%TF.GenerationSoftware,KiCad,Pcbnew,8.0.3*%
%TF.CreationDate,2024-11-19T22:00:52+01:00*%
%TF.ProjectId,weerstation-analoog,77656572-7374-4617-9469-6f6e2d616e61,rev?*%
%TF.SameCoordinates,Original*%
%TF.FileFunction,Drillmap*%
%TF.FilePolarity,Positive*%
%FSLAX45Y45*%
G04 Gerber Fmt 4.5, Leading zero omitted, Abs format (unit mm)*
G04 Created by KiCad (PCBNEW 8.0.3) date 2024-11-19 22:00:52*
%MOMM*%
%LPD*%
G01*
G04 APERTURE LIST*
%ADD10C,0.100000*%
%ADD11C,0.200000*%
%ADD12C,0.120000*%
G04 APERTURE END LIST*
D10*
X1270000Y-1270000D02*
X11176000Y-1270000D01*
X11176000Y-11176000D01*
X1270000Y-11176000D01*
X1270000Y-1270000D01*
D11*
D12*
X1918000Y-7958000D02*
X2038000Y-8078000D01*
X2038000Y-7958000D02*
X1918000Y-8078000D01*
X1918000Y-9478000D02*
X2038000Y-9598000D01*
X2038000Y-9478000D02*
X1918000Y-9598000D01*
X1918000Y-10740000D02*
X2038000Y-10860000D01*
X2038000Y-10740000D02*
X1918000Y-10860000D01*
X5118000Y-1918000D02*
X5238000Y-2038000D01*
X5238000Y-1918000D02*
X5118000Y-2038000D01*
X6134000Y-1918000D02*
X6254000Y-2038000D01*
X6254000Y-1918000D02*
X6134000Y-2038000D01*
X7150000Y-1918000D02*
X7270000Y-2038000D01*
X7270000Y-1918000D02*
X7150000Y-2038000D01*
D11*
X1525777Y-11492484D02*
X1525777Y-11292484D01*
X1525777Y-11292484D02*
X1573396Y-11292484D01*
X1573396Y-11292484D02*
X1601967Y-11302008D01*
X1601967Y-11302008D02*
X1621015Y-11321055D01*
X1621015Y-11321055D02*
X1630539Y-11340103D01*
X1630539Y-11340103D02*
X1640062Y-11378198D01*
X1640062Y-11378198D02*
X1640062Y-11406769D01*
X1640062Y-11406769D02*
X1630539Y-11444865D01*
X1630539Y-11444865D02*
X1621015Y-11463912D01*
X1621015Y-11463912D02*
X1601967Y-11482960D01*
X1601967Y-11482960D02*
X1573396Y-11492484D01*
X1573396Y-11492484D02*
X1525777Y-11492484D01*
X1725777Y-11492484D02*
X1725777Y-11359150D01*
X1725777Y-11397246D02*
X1735301Y-11378198D01*
X1735301Y-11378198D02*
X1744824Y-11368674D01*
X1744824Y-11368674D02*
X1763872Y-11359150D01*
X1763872Y-11359150D02*
X1782920Y-11359150D01*
X1849586Y-11492484D02*
X1849586Y-11359150D01*
X1849586Y-11292484D02*
X1840062Y-11302008D01*
X1840062Y-11302008D02*
X1849586Y-11311531D01*
X1849586Y-11311531D02*
X1859110Y-11302008D01*
X1859110Y-11302008D02*
X1849586Y-11292484D01*
X1849586Y-11292484D02*
X1849586Y-11311531D01*
X1973396Y-11492484D02*
X1954348Y-11482960D01*
X1954348Y-11482960D02*
X1944824Y-11463912D01*
X1944824Y-11463912D02*
X1944824Y-11292484D01*
X2078158Y-11492484D02*
X2059110Y-11482960D01*
X2059110Y-11482960D02*
X2049586Y-11463912D01*
X2049586Y-11463912D02*
X2049586Y-11292484D01*
X2306729Y-11492484D02*
X2306729Y-11292484D01*
X2306729Y-11292484D02*
X2373396Y-11435341D01*
X2373396Y-11435341D02*
X2440063Y-11292484D01*
X2440063Y-11292484D02*
X2440063Y-11492484D01*
X2621015Y-11492484D02*
X2621015Y-11387722D01*
X2621015Y-11387722D02*
X2611491Y-11368674D01*
X2611491Y-11368674D02*
X2592444Y-11359150D01*
X2592444Y-11359150D02*
X2554348Y-11359150D01*
X2554348Y-11359150D02*
X2535301Y-11368674D01*
X2621015Y-11482960D02*
X2601967Y-11492484D01*
X2601967Y-11492484D02*
X2554348Y-11492484D01*
X2554348Y-11492484D02*
X2535301Y-11482960D01*
X2535301Y-11482960D02*
X2525777Y-11463912D01*
X2525777Y-11463912D02*
X2525777Y-11444865D01*
X2525777Y-11444865D02*
X2535301Y-11425817D01*
X2535301Y-11425817D02*
X2554348Y-11416293D01*
X2554348Y-11416293D02*
X2601967Y-11416293D01*
X2601967Y-11416293D02*
X2621015Y-11406769D01*
X2716253Y-11359150D02*
X2716253Y-11559150D01*
X2716253Y-11368674D02*
X2735301Y-11359150D01*
X2735301Y-11359150D02*
X2773396Y-11359150D01*
X2773396Y-11359150D02*
X2792444Y-11368674D01*
X2792444Y-11368674D02*
X2801967Y-11378198D01*
X2801967Y-11378198D02*
X2811491Y-11397246D01*
X2811491Y-11397246D02*
X2811491Y-11454388D01*
X2811491Y-11454388D02*
X2801967Y-11473436D01*
X2801967Y-11473436D02*
X2792444Y-11482960D01*
X2792444Y-11482960D02*
X2773396Y-11492484D01*
X2773396Y-11492484D02*
X2735301Y-11492484D01*
X2735301Y-11492484D02*
X2716253Y-11482960D01*
X2897205Y-11473436D02*
X2906729Y-11482960D01*
X2906729Y-11482960D02*
X2897205Y-11492484D01*
X2897205Y-11492484D02*
X2887682Y-11482960D01*
X2887682Y-11482960D02*
X2897205Y-11473436D01*
X2897205Y-11473436D02*
X2897205Y-11492484D01*
X2897205Y-11368674D02*
X2906729Y-11378198D01*
X2906729Y-11378198D02*
X2897205Y-11387722D01*
X2897205Y-11387722D02*
X2887682Y-11378198D01*
X2887682Y-11378198D02*
X2897205Y-11368674D01*
X2897205Y-11368674D02*
X2897205Y-11387722D01*
D12*
X1145000Y-11761000D02*
X1265000Y-11881000D01*
X1265000Y-11761000D02*
X1145000Y-11881000D01*
D11*
X1630539Y-11912484D02*
X1516253Y-11912484D01*
X1573396Y-11912484D02*
X1573396Y-11712484D01*
X1573396Y-11712484D02*
X1554348Y-11741055D01*
X1554348Y-11741055D02*
X1535301Y-11760103D01*
X1535301Y-11760103D02*
X1516253Y-11769627D01*
X1716253Y-11893436D02*
X1725777Y-11902960D01*
X1725777Y-11902960D02*
X1716253Y-11912484D01*
X1716253Y-11912484D02*
X1706729Y-11902960D01*
X1706729Y-11902960D02*
X1716253Y-11893436D01*
X1716253Y-11893436D02*
X1716253Y-11912484D01*
X1801967Y-11731531D02*
X1811491Y-11722008D01*
X1811491Y-11722008D02*
X1830539Y-11712484D01*
X1830539Y-11712484D02*
X1878158Y-11712484D01*
X1878158Y-11712484D02*
X1897205Y-11722008D01*
X1897205Y-11722008D02*
X1906729Y-11731531D01*
X1906729Y-11731531D02*
X1916253Y-11750579D01*
X1916253Y-11750579D02*
X1916253Y-11769627D01*
X1916253Y-11769627D02*
X1906729Y-11798198D01*
X1906729Y-11798198D02*
X1792443Y-11912484D01*
X1792443Y-11912484D02*
X1916253Y-11912484D01*
X2040062Y-11712484D02*
X2059110Y-11712484D01*
X2059110Y-11712484D02*
X2078158Y-11722008D01*
X2078158Y-11722008D02*
X2087682Y-11731531D01*
X2087682Y-11731531D02*
X2097205Y-11750579D01*
X2097205Y-11750579D02*
X2106729Y-11788674D01*
X2106729Y-11788674D02*
X2106729Y-11836293D01*
X2106729Y-11836293D02*
X2097205Y-11874388D01*
X2097205Y-11874388D02*
X2087682Y-11893436D01*
X2087682Y-11893436D02*
X2078158Y-11902960D01*
X2078158Y-11902960D02*
X2059110Y-11912484D01*
X2059110Y-11912484D02*
X2040062Y-11912484D01*
X2040062Y-11912484D02*
X2021015Y-11902960D01*
X2021015Y-11902960D02*
X2011491Y-11893436D01*
X2011491Y-11893436D02*
X2001967Y-11874388D01*
X2001967Y-11874388D02*
X1992443Y-11836293D01*
X1992443Y-11836293D02*
X1992443Y-11788674D01*
X1992443Y-11788674D02*
X2001967Y-11750579D01*
X2001967Y-11750579D02*
X2011491Y-11731531D01*
X2011491Y-11731531D02*
X2021015Y-11722008D01*
X2021015Y-11722008D02*
X2040062Y-11712484D01*
X2230539Y-11712484D02*
X2249586Y-11712484D01*
X2249586Y-11712484D02*
X2268634Y-11722008D01*
X2268634Y-11722008D02*
X2278158Y-11731531D01*
X2278158Y-11731531D02*
X2287682Y-11750579D01*
X2287682Y-11750579D02*
X2297205Y-11788674D01*
X2297205Y-11788674D02*
X2297205Y-11836293D01*
X2297205Y-11836293D02*
X2287682Y-11874388D01*
X2287682Y-11874388D02*
X2278158Y-11893436D01*
X2278158Y-11893436D02*
X2268634Y-11902960D01*
X2268634Y-11902960D02*
X2249586Y-11912484D01*
X2249586Y-11912484D02*
X2230539Y-11912484D01*
X2230539Y-11912484D02*
X2211491Y-11902960D01*
X2211491Y-11902960D02*
X2201967Y-11893436D01*
X2201967Y-11893436D02*
X2192444Y-11874388D01*
X2192444Y-11874388D02*
X2182920Y-11836293D01*
X2182920Y-11836293D02*
X2182920Y-11788674D01*
X2182920Y-11788674D02*
X2192444Y-11750579D01*
X2192444Y-11750579D02*
X2201967Y-11731531D01*
X2201967Y-11731531D02*
X2211491Y-11722008D01*
X2211491Y-11722008D02*
X2230539Y-11712484D01*
X2382920Y-11912484D02*
X2382920Y-11779150D01*
X2382920Y-11798198D02*
X2392444Y-11788674D01*
X2392444Y-11788674D02*
X2411491Y-11779150D01*
X2411491Y-11779150D02*
X2440063Y-11779150D01*
X2440063Y-11779150D02*
X2459110Y-11788674D01*
X2459110Y-11788674D02*
X2468634Y-11807722D01*
X2468634Y-11807722D02*
X2468634Y-11912484D01*
X2468634Y-11807722D02*
X2478158Y-11788674D01*
X2478158Y-11788674D02*
X2497205Y-11779150D01*
X2497205Y-11779150D02*
X2525777Y-11779150D01*
X2525777Y-11779150D02*
X2544825Y-11788674D01*
X2544825Y-11788674D02*
X2554348Y-11807722D01*
X2554348Y-11807722D02*
X2554348Y-11912484D01*
X2649586Y-11912484D02*
X2649586Y-11779150D01*
X2649586Y-11798198D02*
X2659110Y-11788674D01*
X2659110Y-11788674D02*
X2678158Y-11779150D01*
X2678158Y-11779150D02*
X2706729Y-11779150D01*
X2706729Y-11779150D02*
X2725777Y-11788674D01*
X2725777Y-11788674D02*
X2735301Y-11807722D01*
X2735301Y-11807722D02*
X2735301Y-11912484D01*
X2735301Y-11807722D02*
X2744825Y-11788674D01*
X2744825Y-11788674D02*
X2763872Y-11779150D01*
X2763872Y-11779150D02*
X2792444Y-11779150D01*
X2792444Y-11779150D02*
X2811491Y-11788674D01*
X2811491Y-11788674D02*
X2821015Y-11807722D01*
X2821015Y-11807722D02*
X2821015Y-11912484D01*
X3211491Y-11702960D02*
X3040063Y-11960103D01*
X3468634Y-11712484D02*
X3487682Y-11712484D01*
X3487682Y-11712484D02*
X3506729Y-11722008D01*
X3506729Y-11722008D02*
X3516253Y-11731531D01*
X3516253Y-11731531D02*
X3525777Y-11750579D01*
X3525777Y-11750579D02*
X3535301Y-11788674D01*
X3535301Y-11788674D02*
X3535301Y-11836293D01*
X3535301Y-11836293D02*
X3525777Y-11874388D01*
X3525777Y-11874388D02*
X3516253Y-11893436D01*
X3516253Y-11893436D02*
X3506729Y-11902960D01*
X3506729Y-11902960D02*
X3487682Y-11912484D01*
X3487682Y-11912484D02*
X3468634Y-11912484D01*
X3468634Y-11912484D02*
X3449586Y-11902960D01*
X3449586Y-11902960D02*
X3440063Y-11893436D01*
X3440063Y-11893436D02*
X3430539Y-11874388D01*
X3430539Y-11874388D02*
X3421015Y-11836293D01*
X3421015Y-11836293D02*
X3421015Y-11788674D01*
X3421015Y-11788674D02*
X3430539Y-11750579D01*
X3430539Y-11750579D02*
X3440063Y-11731531D01*
X3440063Y-11731531D02*
X3449586Y-11722008D01*
X3449586Y-11722008D02*
X3468634Y-11712484D01*
X3621015Y-11893436D02*
X3630539Y-11902960D01*
X3630539Y-11902960D02*
X3621015Y-11912484D01*
X3621015Y-11912484D02*
X3611491Y-11902960D01*
X3611491Y-11902960D02*
X3621015Y-11893436D01*
X3621015Y-11893436D02*
X3621015Y-11912484D01*
X3754348Y-11712484D02*
X3773396Y-11712484D01*
X3773396Y-11712484D02*
X3792444Y-11722008D01*
X3792444Y-11722008D02*
X3801967Y-11731531D01*
X3801967Y-11731531D02*
X3811491Y-11750579D01*
X3811491Y-11750579D02*
X3821015Y-11788674D01*
X3821015Y-11788674D02*
X3821015Y-11836293D01*
X3821015Y-11836293D02*
X3811491Y-11874388D01*
X3811491Y-11874388D02*
X3801967Y-11893436D01*
X3801967Y-11893436D02*
X3792444Y-11902960D01*
X3792444Y-11902960D02*
X3773396Y-11912484D01*
X3773396Y-11912484D02*
X3754348Y-11912484D01*
X3754348Y-11912484D02*
X3735301Y-11902960D01*
X3735301Y-11902960D02*
X3725777Y-11893436D01*
X3725777Y-11893436D02*
X3716253Y-11874388D01*
X3716253Y-11874388D02*
X3706729Y-11836293D01*
X3706729Y-11836293D02*
X3706729Y-11788674D01*
X3706729Y-11788674D02*
X3716253Y-11750579D01*
X3716253Y-11750579D02*
X3725777Y-11731531D01*
X3725777Y-11731531D02*
X3735301Y-11722008D01*
X3735301Y-11722008D02*
X3754348Y-11712484D01*
X3992444Y-11779150D02*
X3992444Y-11912484D01*
X3944825Y-11702960D02*
X3897206Y-11845817D01*
X3897206Y-11845817D02*
X4021015Y-11845817D01*
X4078158Y-11712484D02*
X4211491Y-11712484D01*
X4211491Y-11712484D02*
X4125777Y-11912484D01*
X4278158Y-11731531D02*
X4287682Y-11722008D01*
X4287682Y-11722008D02*
X4306729Y-11712484D01*
X4306729Y-11712484D02*
X4354349Y-11712484D01*
X4354349Y-11712484D02*
X4373396Y-11722008D01*
X4373396Y-11722008D02*
X4382920Y-11731531D01*
X4382920Y-11731531D02*
X4392444Y-11750579D01*
X4392444Y-11750579D02*
X4392444Y-11769627D01*
X4392444Y-11769627D02*
X4382920Y-11798198D01*
X4382920Y-11798198D02*
X4268634Y-11912484D01*
X4268634Y-11912484D02*
X4392444Y-11912484D01*
X4468634Y-11712484D02*
X4468634Y-11750579D01*
X4544825Y-11712484D02*
X4544825Y-11750579D01*
X4840063Y-11988674D02*
X4830539Y-11979150D01*
X4830539Y-11979150D02*
X4811491Y-11950579D01*
X4811491Y-11950579D02*
X4801968Y-11931531D01*
X4801968Y-11931531D02*
X4792444Y-11902960D01*
X4792444Y-11902960D02*
X4782920Y-11855341D01*
X4782920Y-11855341D02*
X4782920Y-11817246D01*
X4782920Y-11817246D02*
X4792444Y-11769627D01*
X4792444Y-11769627D02*
X4801968Y-11741055D01*
X4801968Y-11741055D02*
X4811491Y-11722008D01*
X4811491Y-11722008D02*
X4830539Y-11693436D01*
X4830539Y-11693436D02*
X4840063Y-11683912D01*
X5001968Y-11712484D02*
X4963872Y-11712484D01*
X4963872Y-11712484D02*
X4944825Y-11722008D01*
X4944825Y-11722008D02*
X4935301Y-11731531D01*
X4935301Y-11731531D02*
X4916253Y-11760103D01*
X4916253Y-11760103D02*
X4906730Y-11798198D01*
X4906730Y-11798198D02*
X4906730Y-11874388D01*
X4906730Y-11874388D02*
X4916253Y-11893436D01*
X4916253Y-11893436D02*
X4925777Y-11902960D01*
X4925777Y-11902960D02*
X4944825Y-11912484D01*
X4944825Y-11912484D02*
X4982920Y-11912484D01*
X4982920Y-11912484D02*
X5001968Y-11902960D01*
X5001968Y-11902960D02*
X5011491Y-11893436D01*
X5011491Y-11893436D02*
X5021015Y-11874388D01*
X5021015Y-11874388D02*
X5021015Y-11826769D01*
X5021015Y-11826769D02*
X5011491Y-11807722D01*
X5011491Y-11807722D02*
X5001968Y-11798198D01*
X5001968Y-11798198D02*
X4982920Y-11788674D01*
X4982920Y-11788674D02*
X4944825Y-11788674D01*
X4944825Y-11788674D02*
X4925777Y-11798198D01*
X4925777Y-11798198D02*
X4916253Y-11807722D01*
X4916253Y-11807722D02*
X4906730Y-11826769D01*
X5259111Y-11912484D02*
X5259111Y-11712484D01*
X5344825Y-11912484D02*
X5344825Y-11807722D01*
X5344825Y-11807722D02*
X5335301Y-11788674D01*
X5335301Y-11788674D02*
X5316253Y-11779150D01*
X5316253Y-11779150D02*
X5287682Y-11779150D01*
X5287682Y-11779150D02*
X5268634Y-11788674D01*
X5268634Y-11788674D02*
X5259111Y-11798198D01*
X5468634Y-11912484D02*
X5449587Y-11902960D01*
X5449587Y-11902960D02*
X5440063Y-11893436D01*
X5440063Y-11893436D02*
X5430539Y-11874388D01*
X5430539Y-11874388D02*
X5430539Y-11817246D01*
X5430539Y-11817246D02*
X5440063Y-11798198D01*
X5440063Y-11798198D02*
X5449587Y-11788674D01*
X5449587Y-11788674D02*
X5468634Y-11779150D01*
X5468634Y-11779150D02*
X5497206Y-11779150D01*
X5497206Y-11779150D02*
X5516253Y-11788674D01*
X5516253Y-11788674D02*
X5525777Y-11798198D01*
X5525777Y-11798198D02*
X5535301Y-11817246D01*
X5535301Y-11817246D02*
X5535301Y-11874388D01*
X5535301Y-11874388D02*
X5525777Y-11893436D01*
X5525777Y-11893436D02*
X5516253Y-11902960D01*
X5516253Y-11902960D02*
X5497206Y-11912484D01*
X5497206Y-11912484D02*
X5468634Y-11912484D01*
X5649587Y-11912484D02*
X5630539Y-11902960D01*
X5630539Y-11902960D02*
X5621015Y-11883912D01*
X5621015Y-11883912D02*
X5621015Y-11712484D01*
X5801968Y-11902960D02*
X5782920Y-11912484D01*
X5782920Y-11912484D02*
X5744825Y-11912484D01*
X5744825Y-11912484D02*
X5725777Y-11902960D01*
X5725777Y-11902960D02*
X5716253Y-11883912D01*
X5716253Y-11883912D02*
X5716253Y-11807722D01*
X5716253Y-11807722D02*
X5725777Y-11788674D01*
X5725777Y-11788674D02*
X5744825Y-11779150D01*
X5744825Y-11779150D02*
X5782920Y-11779150D01*
X5782920Y-11779150D02*
X5801968Y-11788674D01*
X5801968Y-11788674D02*
X5811491Y-11807722D01*
X5811491Y-11807722D02*
X5811491Y-11826769D01*
X5811491Y-11826769D02*
X5716253Y-11845817D01*
X5887682Y-11902960D02*
X5906730Y-11912484D01*
X5906730Y-11912484D02*
X5944825Y-11912484D01*
X5944825Y-11912484D02*
X5963872Y-11902960D01*
X5963872Y-11902960D02*
X5973396Y-11883912D01*
X5973396Y-11883912D02*
X5973396Y-11874388D01*
X5973396Y-11874388D02*
X5963872Y-11855341D01*
X5963872Y-11855341D02*
X5944825Y-11845817D01*
X5944825Y-11845817D02*
X5916253Y-11845817D01*
X5916253Y-11845817D02*
X5897206Y-11836293D01*
X5897206Y-11836293D02*
X5887682Y-11817246D01*
X5887682Y-11817246D02*
X5887682Y-11807722D01*
X5887682Y-11807722D02*
X5897206Y-11788674D01*
X5897206Y-11788674D02*
X5916253Y-11779150D01*
X5916253Y-11779150D02*
X5944825Y-11779150D01*
X5944825Y-11779150D02*
X5963872Y-11788674D01*
X6040063Y-11988674D02*
X6049587Y-11979150D01*
X6049587Y-11979150D02*
X6068634Y-11950579D01*
X6068634Y-11950579D02*
X6078158Y-11931531D01*
X6078158Y-11931531D02*
X6087682Y-11902960D01*
X6087682Y-11902960D02*
X6097206Y-11855341D01*
X6097206Y-11855341D02*
X6097206Y-11817246D01*
X6097206Y-11817246D02*
X6087682Y-11769627D01*
X6087682Y-11769627D02*
X6078158Y-11741055D01*
X6078158Y-11741055D02*
X6068634Y-11722008D01*
X6068634Y-11722008D02*
X6049587Y-11693436D01*
X6049587Y-11693436D02*
X6040063Y-11683912D01*
X6401968Y-11988674D02*
X6392444Y-11979150D01*
X6392444Y-11979150D02*
X6373396Y-11950579D01*
X6373396Y-11950579D02*
X6363872Y-11931531D01*
X6363872Y-11931531D02*
X6354349Y-11902960D01*
X6354349Y-11902960D02*
X6344825Y-11855341D01*
X6344825Y-11855341D02*
X6344825Y-11817246D01*
X6344825Y-11817246D02*
X6354349Y-11769627D01*
X6354349Y-11769627D02*
X6363872Y-11741055D01*
X6363872Y-11741055D02*
X6373396Y-11722008D01*
X6373396Y-11722008D02*
X6392444Y-11693436D01*
X6392444Y-11693436D02*
X6401968Y-11683912D01*
X6478158Y-11779150D02*
X6478158Y-11912484D01*
X6478158Y-11798198D02*
X6487682Y-11788674D01*
X6487682Y-11788674D02*
X6506730Y-11779150D01*
X6506730Y-11779150D02*
X6535301Y-11779150D01*
X6535301Y-11779150D02*
X6554349Y-11788674D01*
X6554349Y-11788674D02*
X6563872Y-11807722D01*
X6563872Y-11807722D02*
X6563872Y-11912484D01*
X6687682Y-11912484D02*
X6668634Y-11902960D01*
X6668634Y-11902960D02*
X6659111Y-11893436D01*
X6659111Y-11893436D02*
X6649587Y-11874388D01*
X6649587Y-11874388D02*
X6649587Y-11817246D01*
X6649587Y-11817246D02*
X6659111Y-11798198D01*
X6659111Y-11798198D02*
X6668634Y-11788674D01*
X6668634Y-11788674D02*
X6687682Y-11779150D01*
X6687682Y-11779150D02*
X6716253Y-11779150D01*
X6716253Y-11779150D02*
X6735301Y-11788674D01*
X6735301Y-11788674D02*
X6744825Y-11798198D01*
X6744825Y-11798198D02*
X6754349Y-11817246D01*
X6754349Y-11817246D02*
X6754349Y-11874388D01*
X6754349Y-11874388D02*
X6744825Y-11893436D01*
X6744825Y-11893436D02*
X6735301Y-11902960D01*
X6735301Y-11902960D02*
X6716253Y-11912484D01*
X6716253Y-11912484D02*
X6687682Y-11912484D01*
X6811492Y-11779150D02*
X6887682Y-11779150D01*
X6840063Y-11712484D02*
X6840063Y-11883912D01*
X6840063Y-11883912D02*
X6849587Y-11902960D01*
X6849587Y-11902960D02*
X6868634Y-11912484D01*
X6868634Y-11912484D02*
X6887682Y-11912484D01*
X7106730Y-11779150D02*
X7106730Y-11979150D01*
X7106730Y-11788674D02*
X7125777Y-11779150D01*
X7125777Y-11779150D02*
X7163873Y-11779150D01*
X7163873Y-11779150D02*
X7182920Y-11788674D01*
X7182920Y-11788674D02*
X7192444Y-11798198D01*
X7192444Y-11798198D02*
X7201968Y-11817246D01*
X7201968Y-11817246D02*
X7201968Y-11874388D01*
X7201968Y-11874388D02*
X7192444Y-11893436D01*
X7192444Y-11893436D02*
X7182920Y-11902960D01*
X7182920Y-11902960D02*
X7163873Y-11912484D01*
X7163873Y-11912484D02*
X7125777Y-11912484D01*
X7125777Y-11912484D02*
X7106730Y-11902960D01*
X7316253Y-11912484D02*
X7297206Y-11902960D01*
X7297206Y-11902960D02*
X7287682Y-11883912D01*
X7287682Y-11883912D02*
X7287682Y-11712484D01*
X7478158Y-11912484D02*
X7478158Y-11807722D01*
X7478158Y-11807722D02*
X7468634Y-11788674D01*
X7468634Y-11788674D02*
X7449587Y-11779150D01*
X7449587Y-11779150D02*
X7411492Y-11779150D01*
X7411492Y-11779150D02*
X7392444Y-11788674D01*
X7478158Y-11902960D02*
X7459111Y-11912484D01*
X7459111Y-11912484D02*
X7411492Y-11912484D01*
X7411492Y-11912484D02*
X7392444Y-11902960D01*
X7392444Y-11902960D02*
X7382920Y-11883912D01*
X7382920Y-11883912D02*
X7382920Y-11864865D01*
X7382920Y-11864865D02*
X7392444Y-11845817D01*
X7392444Y-11845817D02*
X7411492Y-11836293D01*
X7411492Y-11836293D02*
X7459111Y-11836293D01*
X7459111Y-11836293D02*
X7478158Y-11826769D01*
X7544825Y-11779150D02*
X7621015Y-11779150D01*
X7573396Y-11712484D02*
X7573396Y-11883912D01*
X7573396Y-11883912D02*
X7582920Y-11902960D01*
X7582920Y-11902960D02*
X7601968Y-11912484D01*
X7601968Y-11912484D02*
X7621015Y-11912484D01*
X7763873Y-11902960D02*
X7744825Y-11912484D01*
X7744825Y-11912484D02*
X7706730Y-11912484D01*
X7706730Y-11912484D02*
X7687682Y-11902960D01*
X7687682Y-11902960D02*
X7678158Y-11883912D01*
X7678158Y-11883912D02*
X7678158Y-11807722D01*
X7678158Y-11807722D02*
X7687682Y-11788674D01*
X7687682Y-11788674D02*
X7706730Y-11779150D01*
X7706730Y-11779150D02*
X7744825Y-11779150D01*
X7744825Y-11779150D02*
X7763873Y-11788674D01*
X7763873Y-11788674D02*
X7773396Y-11807722D01*
X7773396Y-11807722D02*
X7773396Y-11826769D01*
X7773396Y-11826769D02*
X7678158Y-11845817D01*
X7944825Y-11912484D02*
X7944825Y-11712484D01*
X7944825Y-11902960D02*
X7925777Y-11912484D01*
X7925777Y-11912484D02*
X7887682Y-11912484D01*
X7887682Y-11912484D02*
X7868634Y-11902960D01*
X7868634Y-11902960D02*
X7859111Y-11893436D01*
X7859111Y-11893436D02*
X7849587Y-11874388D01*
X7849587Y-11874388D02*
X7849587Y-11817246D01*
X7849587Y-11817246D02*
X7859111Y-11798198D01*
X7859111Y-11798198D02*
X7868634Y-11788674D01*
X7868634Y-11788674D02*
X7887682Y-11779150D01*
X7887682Y-11779150D02*
X7925777Y-11779150D01*
X7925777Y-11779150D02*
X7944825Y-11788674D01*
X8021015Y-11988674D02*
X8030539Y-11979150D01*
X8030539Y-11979150D02*
X8049587Y-11950579D01*
X8049587Y-11950579D02*
X8059111Y-11931531D01*
X8059111Y-11931531D02*
X8068634Y-11902960D01*
X8068634Y-11902960D02*
X8078158Y-11855341D01*
X8078158Y-11855341D02*
X8078158Y-11817246D01*
X8078158Y-11817246D02*
X8068634Y-11769627D01*
X8068634Y-11769627D02*
X8059111Y-11741055D01*
X8059111Y-11741055D02*
X8049587Y-11722008D01*
X8049587Y-11722008D02*
X8030539Y-11693436D01*
X8030539Y-11693436D02*
X8021015Y-11683912D01*
M02*
