M48
; DRILL file {KiCad 8.0.3} date 2024-11-19T22:00:51+0100
; FORMAT={-:-/ absolute / inch / decimal}
; #@! TF.CreationDate,2024-11-19T22:00:51+01:00
; #@! TF.GenerationSoftware,Kicad,Pcbnew,8.0.3
; #@! TF.FileFunction,Plated,1,2,PTH
FMAT,2
INCH
; #@! TA.AperFunction,Plated,PTH,ViaDrill
T1C0.0118
; #@! TA.AperFunction,Plated,PTH,ViaDrill
T2C0.0236
; #@! TA.AperFunction,Plated,PTH,ComponentDrill
T3C0.0276
; #@! TA.AperFunction,Plated,PTH,ComponentDrill
T4C0.0374
; #@! TA.AperFunction,Plated,PTH,ViaDrill
T5C0.0394
; #@! TA.AperFunction,Plated,PTH,ComponentDrill
T6C0.0394
; #@! TA.AperFunction,Plated,PTH,ViaDrill
T7C0.0787
; #@! TA.AperFunction,Plated,PTH,ComponentDrill
T8C0.1063
%
G90
G05
T1
X0.55Y-2.086
X0.597Y-0.59
X0.6Y-3.25
X0.8Y-1.944
X0.8Y-2.21
X0.95Y-1.946
X0.97Y-1.17
X1.025Y-3.825
X1.05Y-4.225
X1.1Y-1.946
X1.12Y-4.05
X1.25Y-1.988
X1.27Y-2.31
X1.348Y-3.054
X1.364Y-0.596
X1.375Y-4.225
X1.446Y-3.382
X1.51Y-3.78
X1.528Y-0.97
X1.55Y-3.047
X1.594Y-2.586
X1.596Y-1.934
X1.6Y-1.32
X1.684Y-3.476
X1.798Y-2.31
X1.798Y-2.719
X1.822Y-1.64
X1.85Y-4.225
X1.89Y-1.746
X1.9Y-1.9
X2.22Y-1.886
X2.254Y-1.474
X2.3Y-1.896
X2.35Y-3.95
X2.8Y-1.34
X2.9005Y-1.95
X3.0Y-3.8
X3.04Y-2.42
X3.25Y-1.882
X3.3Y-3.57
X3.4476Y-3.825
X3.45Y-1.95
X3.45Y-3.25
X3.55Y-2.875
X3.574Y-0.826
X3.578Y-0.632
X3.5976Y-3.75
X3.6Y-1.95
X3.7476Y-3.79
X3.75Y-1.95
X3.8976Y-3.84
X3.93Y-3.6
X3.94Y-2.33
X4.04Y-4.04
X4.07Y-2.83
X4.08Y-2.96
X4.08Y-3.05
X4.09Y-3.21
X4.125Y-3.95
X4.14Y-2.48
X4.2Y-1.95
X4.25Y-4.25
T2
X2.653Y-2.322
X3.198Y-2.258
T3
X2.2Y-1.0
X2.2Y-1.3
X2.6Y-1.0
X2.6Y-1.3
X3.0Y-1.0
X3.0Y-1.3
X3.45Y-1.0
X3.45Y-1.3
X3.7Y-1.0
X3.7Y-1.3
X3.95Y-1.0
X3.95Y-1.3
X4.1992Y-1.0
X4.1992Y-1.3
T4
X0.7Y-2.7
X0.7Y-2.7984
X0.7Y-2.8969
X0.7Y-2.9953
X0.7Y-3.0937
X0.7Y-3.3969
X0.7Y-3.4953
X0.7Y-3.5937
X0.7Y-3.6921
X0.7Y-3.9921
X0.7Y-4.0906
X0.7Y-4.189
T5
X1.25Y-2.46
X2.45Y-2.133
X2.45Y-4.225
X2.58Y-2.45
X2.7Y-3.6
X2.725Y-2.85
X3.088Y-1.578
X3.094Y-1.386
X3.174Y-1.578
X3.204Y-1.386
T6
X0.63Y-1.044
X0.63Y-1.144
X0.63Y-1.244
X0.63Y-1.344
X0.75Y-0.7
X0.75Y-0.9
X0.8Y-1.5722
X0.85Y-0.7
X0.85Y-0.9
X0.9Y-1.5722
X0.95Y-0.7
X0.95Y-0.9
X1.0Y-1.5722
X1.05Y-0.9
X1.1Y-1.5722
X1.2Y-1.5722
X1.25Y-0.7
X1.3Y-1.5722
X1.35Y-0.7
X1.4Y-1.5722
X1.45Y-0.7
X1.5Y-1.5722
X1.6Y-1.5722
X1.65Y-0.7
X1.7Y-1.5722
X1.75Y-0.7
X1.85Y-0.7
X2.0Y-1.55
X2.1Y-1.55
X2.1016Y-0.7
X2.2Y-0.7
X2.2Y-1.55
X2.3Y-1.55
X2.4Y-1.55
X2.5Y-1.55
X2.5016Y-0.7
X2.6Y-0.7
X2.6Y-1.55
X2.7Y-1.55
X2.8Y-1.55
X2.9Y-1.55
X2.9016Y-0.7
X2.9976Y-4.2
X3.0Y-0.7
X3.0Y-2.6
X3.0Y-2.7
X3.0Y-2.8
X3.0Y-2.9
X3.0Y-3.0
X3.0Y-3.1
X3.0976Y-4.2
X3.1976Y-4.2
X3.2976Y-4.2
X3.3Y-1.55
X3.3976Y-4.2
X3.4Y-1.55
X3.4Y-2.6
X3.4Y-2.7
X3.4Y-2.8
X3.4Y-2.9
X3.4Y-3.0
X3.4Y-3.1
X3.45Y-0.7
X3.45Y-0.8
X3.4976Y-4.2
X3.5Y-1.55
X3.5976Y-4.2
X3.6Y-1.55
X3.6976Y-4.2
X3.7Y-0.7
X3.7Y-0.8
X3.7Y-1.55
X3.7976Y-4.2
X3.8Y-1.55
X3.8976Y-4.2
X3.9Y-1.55
X3.95Y-0.7
X3.95Y-0.8
X4.0Y-1.55
X4.1Y-1.55
X4.2Y-0.7
X4.2Y-0.8
X4.2Y-1.55
X4.225Y-3.525
X4.225Y-3.625
X4.225Y-3.725
X4.225Y-3.825
X4.23Y-2.82
X4.23Y-2.92
X4.23Y-3.02
X4.23Y-3.12
X4.23Y-3.22
X4.24Y-2.16
X4.24Y-2.26
X4.24Y-2.36
X4.24Y-2.46
X4.24Y-2.56
T7
X2.125Y-3.0
T8
X2.3622Y-2.5591
X2.3622Y-3.3465
X3.7402Y-2.5591
X3.7402Y-3.3465
M30
