%TF.GenerationSoftware,KiCad,Pcbnew,8.0.3*%
%TF.CreationDate,2024-11-19T22:00:52+01:00*%
%TF.ProjectId,weerstation-analoog,77656572-7374-4617-9469-6f6e2d616e61,rev?*%
%TF.SameCoordinates,Original*%
%TF.FileFunction,Drillmap*%
%TF.FilePolarity,Positive*%
%FSLAX45Y45*%
G04 Gerber Fmt 4.5, Leading zero omitted, Abs format (unit mm)*
G04 Created by KiCad (PCBNEW 8.0.3) date 2024-11-19 22:00:52*
%MOMM*%
%LPD*%
G01*
G04 APERTURE LIST*
%ADD10C,0.100000*%
%ADD11C,0.200000*%
%ADD12C,0.270000*%
G04 APERTURE END LIST*
D10*
X1270000Y-1270000D02*
X11176000Y-1270000D01*
X11176000Y-11176000D01*
X1270000Y-11176000D01*
X1270000Y-1270000D01*
D11*
D10*
X1382000Y-5283440D02*
X1412000Y-5313440D01*
X1412000Y-5283440D02*
X1382000Y-5313440D01*
X1501380Y-1483600D02*
X1531380Y-1513600D01*
X1531380Y-1483600D02*
X1501380Y-1513600D01*
X1509000Y-8240000D02*
X1539000Y-8270000D01*
X1539000Y-8240000D02*
X1509000Y-8270000D01*
X2017000Y-4922760D02*
X2047000Y-4952760D01*
X2047000Y-4922760D02*
X2017000Y-4952760D01*
X2017000Y-5598400D02*
X2047000Y-5628400D01*
X2047000Y-5598400D02*
X2017000Y-5628400D01*
X2398000Y-4927840D02*
X2428000Y-4957840D01*
X2428000Y-4927840D02*
X2398000Y-4957840D01*
X2448800Y-2956800D02*
X2478800Y-2986800D01*
X2478800Y-2956800D02*
X2448800Y-2986800D01*
X2588500Y-9700500D02*
X2618500Y-9730500D01*
X2618500Y-9700500D02*
X2588500Y-9730500D01*
X2652000Y-10716500D02*
X2682000Y-10746500D01*
X2682000Y-10716500D02*
X2652000Y-10746500D01*
X2779000Y-4927840D02*
X2809000Y-4957840D01*
X2809000Y-4927840D02*
X2779000Y-4957840D01*
X2829800Y-10272000D02*
X2859800Y-10302000D01*
X2859800Y-10272000D02*
X2829800Y-10302000D01*
X3160000Y-5034520D02*
X3190000Y-5064520D01*
X3190000Y-5034520D02*
X3160000Y-5064520D01*
X3210800Y-5852400D02*
X3240800Y-5882400D01*
X3240800Y-5852400D02*
X3210800Y-5882400D01*
X3408920Y-7742160D02*
X3438920Y-7772160D01*
X3438920Y-7742160D02*
X3408920Y-7772160D01*
X3449560Y-1498840D02*
X3479560Y-1528840D01*
X3479560Y-1498840D02*
X3449560Y-1528840D01*
X3477500Y-10716500D02*
X3507500Y-10746500D01*
X3507500Y-10716500D02*
X3477500Y-10746500D01*
X3657840Y-8575280D02*
X3687840Y-8605280D01*
X3687840Y-8575280D02*
X3657840Y-8605280D01*
X3820400Y-9586200D02*
X3850400Y-9616200D01*
X3850400Y-9586200D02*
X3820400Y-9616200D01*
X3866120Y-2448800D02*
X3896120Y-2478800D01*
X3896120Y-2448800D02*
X3866120Y-2478800D01*
X3922000Y-7724380D02*
X3952000Y-7754380D01*
X3952000Y-7724380D02*
X3922000Y-7754380D01*
X4033760Y-6553440D02*
X4063760Y-6583440D01*
X4063760Y-6553440D02*
X4033760Y-6583440D01*
X4038840Y-4897360D02*
X4068840Y-4927360D01*
X4068840Y-4897360D02*
X4038840Y-4927360D01*
X4049000Y-3337800D02*
X4079000Y-3367800D01*
X4079000Y-3337800D02*
X4049000Y-3367800D01*
X4262360Y-8814040D02*
X4292360Y-8844040D01*
X4292360Y-8814040D02*
X4262360Y-8844040D01*
X4551920Y-5852400D02*
X4581920Y-5882400D01*
X4581920Y-5852400D02*
X4551920Y-5882400D01*
X4551920Y-6891260D02*
X4581920Y-6921260D01*
X4581920Y-6891260D02*
X4551920Y-6921260D01*
X4612880Y-4150600D02*
X4642880Y-4180600D01*
X4642880Y-4150600D02*
X4612880Y-4180600D01*
X4684000Y-10716500D02*
X4714000Y-10746500D01*
X4714000Y-10716500D02*
X4684000Y-10746500D01*
X4785600Y-4419840D02*
X4815600Y-4449840D01*
X4815600Y-4419840D02*
X4785600Y-4449840D01*
X4811000Y-4811000D02*
X4841000Y-4841000D01*
X4841000Y-4811000D02*
X4811000Y-4841000D01*
X5623800Y-4775440D02*
X5653800Y-4805440D01*
X5653800Y-4775440D02*
X5623800Y-4805440D01*
X5710160Y-3728960D02*
X5740160Y-3758960D01*
X5740160Y-3728960D02*
X5710160Y-3758960D01*
X5827000Y-4800840D02*
X5857000Y-4830840D01*
X5857000Y-4800840D02*
X5827000Y-4830840D01*
X5954000Y-10018000D02*
X5984000Y-10048000D01*
X5984000Y-10018000D02*
X5954000Y-10048000D01*
X7097000Y-3388600D02*
X7127000Y-3418600D01*
X7127000Y-3388600D02*
X7097000Y-3418600D01*
X7352350Y-4938000D02*
X7382350Y-4968000D01*
X7382350Y-4938000D02*
X7352350Y-4968000D01*
X7605000Y-9637000D02*
X7635000Y-9667000D01*
X7635000Y-9637000D02*
X7605000Y-9667000D01*
X7706600Y-6131800D02*
X7736600Y-6161800D01*
X7736600Y-6131800D02*
X7706600Y-6161800D01*
X8240000Y-4765280D02*
X8270000Y-4795280D01*
X8270000Y-4765280D02*
X8240000Y-4795280D01*
X8367000Y-9052800D02*
X8397000Y-9082800D01*
X8397000Y-9052800D02*
X8367000Y-9082800D01*
X8741870Y-9700500D02*
X8771870Y-9730500D01*
X8771870Y-9700500D02*
X8741870Y-9730500D01*
X8748000Y-4938000D02*
X8778000Y-4968000D01*
X8778000Y-4938000D02*
X8748000Y-4968000D01*
X8748000Y-8240000D02*
X8778000Y-8270000D01*
X8778000Y-8240000D02*
X8748000Y-8270000D01*
X9002000Y-7287500D02*
X9032000Y-7317500D01*
X9032000Y-7287500D02*
X9002000Y-7317500D01*
X9062960Y-2083040D02*
X9092960Y-2113040D01*
X9092960Y-2083040D02*
X9062960Y-2113040D01*
X9073120Y-1590280D02*
X9103120Y-1620280D01*
X9103120Y-1590280D02*
X9073120Y-1620280D01*
X9122870Y-9510000D02*
X9152870Y-9540000D01*
X9152870Y-9510000D02*
X9122870Y-9540000D01*
X9129000Y-4938000D02*
X9159000Y-4968000D01*
X9159000Y-4938000D02*
X9129000Y-4968000D01*
X9503870Y-9611600D02*
X9533870Y-9641600D01*
X9533870Y-9611600D02*
X9503870Y-9641600D01*
X9510000Y-4938000D02*
X9540000Y-4968000D01*
X9540000Y-4938000D02*
X9510000Y-4968000D01*
X9884870Y-9738600D02*
X9914870Y-9768600D01*
X9914870Y-9738600D02*
X9884870Y-9768600D01*
X9967200Y-9129000D02*
X9997200Y-9159000D01*
X9997200Y-9129000D02*
X9967200Y-9159000D01*
X9992600Y-5903200D02*
X10022600Y-5933200D01*
X10022600Y-5903200D02*
X9992600Y-5933200D01*
X10246600Y-10246600D02*
X10276600Y-10276600D01*
X10276600Y-10246600D02*
X10246600Y-10276600D01*
X10322800Y-7173200D02*
X10352800Y-7203200D01*
X10352800Y-7173200D02*
X10322800Y-7203200D01*
X10348200Y-7503400D02*
X10378200Y-7533400D01*
X10378200Y-7503400D02*
X10348200Y-7533400D01*
X10348200Y-7732000D02*
X10378200Y-7762000D01*
X10378200Y-7732000D02*
X10348200Y-7762000D01*
X10373600Y-8138400D02*
X10403600Y-8168400D01*
X10403600Y-8138400D02*
X10373600Y-8168400D01*
X10462500Y-10018000D02*
X10492500Y-10048000D01*
X10492500Y-10018000D02*
X10462500Y-10048000D01*
X10500600Y-6284200D02*
X10530600Y-6314200D01*
X10530600Y-6284200D02*
X10500600Y-6314200D01*
X10653000Y-4938000D02*
X10683000Y-4968000D01*
X10683000Y-4938000D02*
X10653000Y-4968000D01*
X10780000Y-10780000D02*
X10810000Y-10810000D01*
X10810000Y-10780000D02*
X10780000Y-10810000D01*
X6768620Y-5897880D02*
G75*
G02*
X6708620Y-5897880I-30000J0D01*
G01*
X6708620Y-5897880D02*
G75*
G02*
X6768620Y-5897880I30000J0D01*
G01*
X8152920Y-5735320D02*
G75*
G02*
X8092920Y-5735320I-30000J0D01*
G01*
X8092920Y-5735320D02*
G75*
G02*
X8152920Y-5735320I30000J0D01*
G01*
X5588000Y-2505000D02*
X5588000Y-2575000D01*
X5553000Y-2540000D02*
X5623000Y-2540000D01*
X5588000Y-3267000D02*
X5588000Y-3337000D01*
X5553000Y-3302000D02*
X5623000Y-3302000D01*
X6604000Y-2505000D02*
X6604000Y-2575000D01*
X6569000Y-2540000D02*
X6639000Y-2540000D01*
X6604000Y-3267000D02*
X6604000Y-3337000D01*
X6569000Y-3302000D02*
X6639000Y-3302000D01*
X7620000Y-2505000D02*
X7620000Y-2575000D01*
X7585000Y-2540000D02*
X7655000Y-2540000D01*
X7620000Y-3267000D02*
X7620000Y-3337000D01*
X7585000Y-3302000D02*
X7655000Y-3302000D01*
X8763000Y-2505000D02*
X8763000Y-2575000D01*
X8728000Y-2540000D02*
X8798000Y-2540000D01*
X8763000Y-3267000D02*
X8763000Y-3337000D01*
X8728000Y-3302000D02*
X8798000Y-3302000D01*
X9398000Y-2505000D02*
X9398000Y-2575000D01*
X9363000Y-2540000D02*
X9433000Y-2540000D01*
X9398000Y-3267000D02*
X9398000Y-3337000D01*
X9363000Y-3302000D02*
X9433000Y-3302000D01*
X10033000Y-2505000D02*
X10033000Y-2575000D01*
X9998000Y-2540000D02*
X10068000Y-2540000D01*
X10033000Y-3267000D02*
X10033000Y-3337000D01*
X9998000Y-3302000D02*
X10068000Y-3302000D01*
X10666000Y-2505000D02*
X10666000Y-2575000D01*
X10631000Y-2540000D02*
X10701000Y-2540000D01*
X10666000Y-3267000D02*
X10666000Y-3337000D01*
X10631000Y-3302000D02*
X10701000Y-3302000D01*
X1811588Y-6891588D02*
X1811588Y-6824412D01*
X1744412Y-6824412D01*
X1744412Y-6891588D01*
X1811588Y-6891588D01*
X1811588Y-7141588D02*
X1811588Y-7074412D01*
X1744412Y-7074412D01*
X1744412Y-7141588D01*
X1811588Y-7141588D01*
X1811588Y-7391588D02*
X1811588Y-7324412D01*
X1744412Y-7324412D01*
X1744412Y-7391588D01*
X1811588Y-7391588D01*
X1811588Y-7641588D02*
X1811588Y-7574412D01*
X1744412Y-7574412D01*
X1744412Y-7641588D01*
X1811588Y-7641588D01*
X1811588Y-7891588D02*
X1811588Y-7824412D01*
X1744412Y-7824412D01*
X1744412Y-7891588D01*
X1811588Y-7891588D01*
X1811588Y-8661588D02*
X1811588Y-8594412D01*
X1744412Y-8594412D01*
X1744412Y-8661588D01*
X1811588Y-8661588D01*
X1811588Y-8911588D02*
X1811588Y-8844412D01*
X1744412Y-8844412D01*
X1744412Y-8911588D01*
X1811588Y-8911588D01*
X1811588Y-9161588D02*
X1811588Y-9094412D01*
X1744412Y-9094412D01*
X1744412Y-9161588D01*
X1811588Y-9161588D01*
X1811588Y-9411588D02*
X1811588Y-9344412D01*
X1744412Y-9344412D01*
X1744412Y-9411588D01*
X1811588Y-9411588D01*
X1811588Y-10173588D02*
X1811588Y-10106412D01*
X1744412Y-10106412D01*
X1744412Y-10173588D01*
X1811588Y-10173588D01*
X1811588Y-10423588D02*
X1811588Y-10356412D01*
X1744412Y-10356412D01*
X1744412Y-10423588D01*
X1811588Y-10423588D01*
X1811588Y-10673588D02*
X1811588Y-10606412D01*
X1744412Y-10606412D01*
X1744412Y-10673588D01*
X1811588Y-10673588D01*
X3175000Y-6298400D02*
X3225000Y-6248400D01*
X3175000Y-6198400D01*
X3125000Y-6248400D01*
X3175000Y-6298400D01*
X6223000Y-5467820D02*
X6273000Y-5417820D01*
X6223000Y-5367820D01*
X6173000Y-5417820D01*
X6223000Y-5467820D01*
X6223000Y-10781500D02*
X6273000Y-10731500D01*
X6223000Y-10681500D01*
X6173000Y-10731500D01*
X6223000Y-10781500D01*
X6553200Y-6273000D02*
X6603200Y-6223000D01*
X6553200Y-6173000D01*
X6503200Y-6223000D01*
X6553200Y-6273000D01*
X6858000Y-9194000D02*
X6908000Y-9144000D01*
X6858000Y-9094000D01*
X6808000Y-9144000D01*
X6858000Y-9194000D01*
X6921500Y-7289000D02*
X6971500Y-7239000D01*
X6921500Y-7189000D01*
X6871500Y-7239000D01*
X6921500Y-7289000D01*
X7843520Y-4058120D02*
X7893520Y-4008120D01*
X7843520Y-3958120D01*
X7793520Y-4008120D01*
X7843520Y-4058120D01*
X7858760Y-3570440D02*
X7908760Y-3520440D01*
X7858760Y-3470440D01*
X7808760Y-3520440D01*
X7858760Y-3570440D01*
X8061960Y-4058120D02*
X8111960Y-4008120D01*
X8061960Y-3958120D01*
X8011960Y-4008120D01*
X8061960Y-4058120D01*
X8138160Y-3570440D02*
X8188160Y-3520440D01*
X8138160Y-3470440D01*
X8088160Y-3520440D01*
X8138160Y-3570440D01*
X1550200Y-2601760D02*
X1650200Y-2701760D01*
X1650200Y-2601760D02*
X1550200Y-2701760D01*
X1650200Y-2651760D02*
G75*
G02*
X1550200Y-2651760I-50000J0D01*
G01*
X1550200Y-2651760D02*
G75*
G02*
X1650200Y-2651760I50000J0D01*
G01*
X1550200Y-2855760D02*
X1650200Y-2955760D01*
X1650200Y-2855760D02*
X1550200Y-2955760D01*
X1650200Y-2905760D02*
G75*
G02*
X1550200Y-2905760I-50000J0D01*
G01*
X1550200Y-2905760D02*
G75*
G02*
X1650200Y-2905760I50000J0D01*
G01*
X1550200Y-3109760D02*
X1650200Y-3209760D01*
X1650200Y-3109760D02*
X1550200Y-3209760D01*
X1650200Y-3159760D02*
G75*
G02*
X1550200Y-3159760I-50000J0D01*
G01*
X1550200Y-3159760D02*
G75*
G02*
X1650200Y-3159760I50000J0D01*
G01*
X1550200Y-3363760D02*
X1650200Y-3463760D01*
X1650200Y-3363760D02*
X1550200Y-3463760D01*
X1650200Y-3413760D02*
G75*
G02*
X1550200Y-3413760I-50000J0D01*
G01*
X1550200Y-3413760D02*
G75*
G02*
X1650200Y-3413760I50000J0D01*
G01*
X1855000Y-1728000D02*
X1955000Y-1828000D01*
X1955000Y-1728000D02*
X1855000Y-1828000D01*
X1955000Y-1778000D02*
G75*
G02*
X1855000Y-1778000I-50000J0D01*
G01*
X1855000Y-1778000D02*
G75*
G02*
X1955000Y-1778000I50000J0D01*
G01*
X1855000Y-2236000D02*
X1955000Y-2336000D01*
X1955000Y-2236000D02*
X1855000Y-2336000D01*
X1955000Y-2286000D02*
G75*
G02*
X1855000Y-2286000I-50000J0D01*
G01*
X1855000Y-2286000D02*
G75*
G02*
X1955000Y-2286000I50000J0D01*
G01*
X1982000Y-3943500D02*
X2082000Y-4043500D01*
X2082000Y-3943500D02*
X1982000Y-4043500D01*
X2082000Y-3993500D02*
G75*
G02*
X1982000Y-3993500I-50000J0D01*
G01*
X1982000Y-3993500D02*
G75*
G02*
X2082000Y-3993500I50000J0D01*
G01*
X2109000Y-1728000D02*
X2209000Y-1828000D01*
X2209000Y-1728000D02*
X2109000Y-1828000D01*
X2209000Y-1778000D02*
G75*
G02*
X2109000Y-1778000I-50000J0D01*
G01*
X2109000Y-1778000D02*
G75*
G02*
X2209000Y-1778000I50000J0D01*
G01*
X2109000Y-2236000D02*
X2209000Y-2336000D01*
X2209000Y-2236000D02*
X2109000Y-2336000D01*
X2209000Y-2286000D02*
G75*
G02*
X2109000Y-2286000I-50000J0D01*
G01*
X2109000Y-2286000D02*
G75*
G02*
X2209000Y-2286000I50000J0D01*
G01*
X2236000Y-3943500D02*
X2336000Y-4043500D01*
X2336000Y-3943500D02*
X2236000Y-4043500D01*
X2336000Y-3993500D02*
G75*
G02*
X2236000Y-3993500I-50000J0D01*
G01*
X2236000Y-3993500D02*
G75*
G02*
X2336000Y-3993500I50000J0D01*
G01*
X2363000Y-1728000D02*
X2463000Y-1828000D01*
X2463000Y-1728000D02*
X2363000Y-1828000D01*
X2463000Y-1778000D02*
G75*
G02*
X2363000Y-1778000I-50000J0D01*
G01*
X2363000Y-1778000D02*
G75*
G02*
X2463000Y-1778000I50000J0D01*
G01*
X2363000Y-2236000D02*
X2463000Y-2336000D01*
X2463000Y-2236000D02*
X2363000Y-2336000D01*
X2463000Y-2286000D02*
G75*
G02*
X2363000Y-2286000I-50000J0D01*
G01*
X2363000Y-2286000D02*
G75*
G02*
X2463000Y-2286000I50000J0D01*
G01*
X2490000Y-3943500D02*
X2590000Y-4043500D01*
X2590000Y-3943500D02*
X2490000Y-4043500D01*
X2590000Y-3993500D02*
G75*
G02*
X2490000Y-3993500I-50000J0D01*
G01*
X2490000Y-3993500D02*
G75*
G02*
X2590000Y-3993500I50000J0D01*
G01*
X2617000Y-2236000D02*
X2717000Y-2336000D01*
X2717000Y-2236000D02*
X2617000Y-2336000D01*
X2717000Y-2286000D02*
G75*
G02*
X2617000Y-2286000I-50000J0D01*
G01*
X2617000Y-2286000D02*
G75*
G02*
X2717000Y-2286000I50000J0D01*
G01*
X2744000Y-3943500D02*
X2844000Y-4043500D01*
X2844000Y-3943500D02*
X2744000Y-4043500D01*
X2844000Y-3993500D02*
G75*
G02*
X2744000Y-3993500I-50000J0D01*
G01*
X2744000Y-3993500D02*
G75*
G02*
X2844000Y-3993500I50000J0D01*
G01*
X2998000Y-3943500D02*
X3098000Y-4043500D01*
X3098000Y-3943500D02*
X2998000Y-4043500D01*
X3098000Y-3993500D02*
G75*
G02*
X2998000Y-3993500I-50000J0D01*
G01*
X2998000Y-3993500D02*
G75*
G02*
X3098000Y-3993500I50000J0D01*
G01*
X3125000Y-1728000D02*
X3225000Y-1828000D01*
X3225000Y-1728000D02*
X3125000Y-1828000D01*
X3225000Y-1778000D02*
G75*
G02*
X3125000Y-1778000I-50000J0D01*
G01*
X3125000Y-1778000D02*
G75*
G02*
X3225000Y-1778000I50000J0D01*
G01*
X3252000Y-3943500D02*
X3352000Y-4043500D01*
X3352000Y-3943500D02*
X3252000Y-4043500D01*
X3352000Y-3993500D02*
G75*
G02*
X3252000Y-3993500I-50000J0D01*
G01*
X3252000Y-3993500D02*
G75*
G02*
X3352000Y-3993500I50000J0D01*
G01*
X3379000Y-1728000D02*
X3479000Y-1828000D01*
X3479000Y-1728000D02*
X3379000Y-1828000D01*
X3479000Y-1778000D02*
G75*
G02*
X3379000Y-1778000I-50000J0D01*
G01*
X3379000Y-1778000D02*
G75*
G02*
X3479000Y-1778000I50000J0D01*
G01*
X3506000Y-3943500D02*
X3606000Y-4043500D01*
X3606000Y-3943500D02*
X3506000Y-4043500D01*
X3606000Y-3993500D02*
G75*
G02*
X3506000Y-3993500I-50000J0D01*
G01*
X3506000Y-3993500D02*
G75*
G02*
X3606000Y-3993500I50000J0D01*
G01*
X3633000Y-1728000D02*
X3733000Y-1828000D01*
X3733000Y-1728000D02*
X3633000Y-1828000D01*
X3733000Y-1778000D02*
G75*
G02*
X3633000Y-1778000I-50000J0D01*
G01*
X3633000Y-1778000D02*
G75*
G02*
X3733000Y-1778000I50000J0D01*
G01*
X3760000Y-3943500D02*
X3860000Y-4043500D01*
X3860000Y-3943500D02*
X3760000Y-4043500D01*
X3860000Y-3993500D02*
G75*
G02*
X3760000Y-3993500I-50000J0D01*
G01*
X3760000Y-3993500D02*
G75*
G02*
X3860000Y-3993500I50000J0D01*
G01*
X4014000Y-3943500D02*
X4114000Y-4043500D01*
X4114000Y-3943500D02*
X4014000Y-4043500D01*
X4114000Y-3993500D02*
G75*
G02*
X4014000Y-3993500I-50000J0D01*
G01*
X4014000Y-3993500D02*
G75*
G02*
X4114000Y-3993500I50000J0D01*
G01*
X4141000Y-1728000D02*
X4241000Y-1828000D01*
X4241000Y-1728000D02*
X4141000Y-1828000D01*
X4241000Y-1778000D02*
G75*
G02*
X4141000Y-1778000I-50000J0D01*
G01*
X4141000Y-1778000D02*
G75*
G02*
X4241000Y-1778000I50000J0D01*
G01*
X4268000Y-3943500D02*
X4368000Y-4043500D01*
X4368000Y-3943500D02*
X4268000Y-4043500D01*
X4368000Y-3993500D02*
G75*
G02*
X4268000Y-3993500I-50000J0D01*
G01*
X4268000Y-3993500D02*
G75*
G02*
X4368000Y-3993500I50000J0D01*
G01*
X4395000Y-1728000D02*
X4495000Y-1828000D01*
X4495000Y-1728000D02*
X4395000Y-1828000D01*
X4495000Y-1778000D02*
G75*
G02*
X4395000Y-1778000I-50000J0D01*
G01*
X4395000Y-1778000D02*
G75*
G02*
X4495000Y-1778000I50000J0D01*
G01*
X4649000Y-1728000D02*
X4749000Y-1828000D01*
X4749000Y-1728000D02*
X4649000Y-1828000D01*
X4749000Y-1778000D02*
G75*
G02*
X4649000Y-1778000I-50000J0D01*
G01*
X4649000Y-1778000D02*
G75*
G02*
X4749000Y-1778000I50000J0D01*
G01*
X5030000Y-3887000D02*
X5130000Y-3987000D01*
X5130000Y-3887000D02*
X5030000Y-3987000D01*
X5130000Y-3937000D02*
G75*
G02*
X5030000Y-3937000I-50000J0D01*
G01*
X5030000Y-3937000D02*
G75*
G02*
X5130000Y-3937000I50000J0D01*
G01*
X5284000Y-3887000D02*
X5384000Y-3987000D01*
X5384000Y-3887000D02*
X5284000Y-3987000D01*
X5384000Y-3937000D02*
G75*
G02*
X5284000Y-3937000I-50000J0D01*
G01*
X5284000Y-3937000D02*
G75*
G02*
X5384000Y-3937000I50000J0D01*
G01*
X5288000Y-1728000D02*
X5388000Y-1828000D01*
X5388000Y-1728000D02*
X5288000Y-1828000D01*
X5388000Y-1778000D02*
G75*
G02*
X5288000Y-1778000I-50000J0D01*
G01*
X5288000Y-1778000D02*
G75*
G02*
X5388000Y-1778000I50000J0D01*
G01*
X5538000Y-1728000D02*
X5638000Y-1828000D01*
X5638000Y-1728000D02*
X5538000Y-1828000D01*
X5638000Y-1778000D02*
G75*
G02*
X5538000Y-1778000I-50000J0D01*
G01*
X5538000Y-1778000D02*
G75*
G02*
X5638000Y-1778000I50000J0D01*
G01*
X5538000Y-3887000D02*
X5638000Y-3987000D01*
X5638000Y-3887000D02*
X5538000Y-3987000D01*
X5638000Y-3937000D02*
G75*
G02*
X5538000Y-3937000I-50000J0D01*
G01*
X5538000Y-3937000D02*
G75*
G02*
X5638000Y-3937000I50000J0D01*
G01*
X5792000Y-3887000D02*
X5892000Y-3987000D01*
X5892000Y-3887000D02*
X5792000Y-3987000D01*
X5892000Y-3937000D02*
G75*
G02*
X5792000Y-3937000I-50000J0D01*
G01*
X5792000Y-3937000D02*
G75*
G02*
X5892000Y-3937000I50000J0D01*
G01*
X6046000Y-3887000D02*
X6146000Y-3987000D01*
X6146000Y-3887000D02*
X6046000Y-3987000D01*
X6146000Y-3937000D02*
G75*
G02*
X6046000Y-3937000I-50000J0D01*
G01*
X6046000Y-3937000D02*
G75*
G02*
X6146000Y-3937000I50000J0D01*
G01*
X6300000Y-3887000D02*
X6400000Y-3987000D01*
X6400000Y-3887000D02*
X6300000Y-3987000D01*
X6400000Y-3937000D02*
G75*
G02*
X6300000Y-3937000I-50000J0D01*
G01*
X6300000Y-3937000D02*
G75*
G02*
X6400000Y-3937000I50000J0D01*
G01*
X6304000Y-1728000D02*
X6404000Y-1828000D01*
X6404000Y-1728000D02*
X6304000Y-1828000D01*
X6404000Y-1778000D02*
G75*
G02*
X6304000Y-1778000I-50000J0D01*
G01*
X6304000Y-1778000D02*
G75*
G02*
X6404000Y-1778000I50000J0D01*
G01*
X6554000Y-1728000D02*
X6654000Y-1828000D01*
X6654000Y-1728000D02*
X6554000Y-1828000D01*
X6654000Y-1778000D02*
G75*
G02*
X6554000Y-1778000I-50000J0D01*
G01*
X6554000Y-1778000D02*
G75*
G02*
X6654000Y-1778000I50000J0D01*
G01*
X6554000Y-3887000D02*
X6654000Y-3987000D01*
X6654000Y-3887000D02*
X6554000Y-3987000D01*
X6654000Y-3937000D02*
G75*
G02*
X6554000Y-3937000I-50000J0D01*
G01*
X6554000Y-3937000D02*
G75*
G02*
X6654000Y-3937000I50000J0D01*
G01*
X6808000Y-3887000D02*
X6908000Y-3987000D01*
X6908000Y-3887000D02*
X6808000Y-3987000D01*
X6908000Y-3937000D02*
G75*
G02*
X6808000Y-3937000I-50000J0D01*
G01*
X6808000Y-3937000D02*
G75*
G02*
X6908000Y-3937000I50000J0D01*
G01*
X7062000Y-3887000D02*
X7162000Y-3987000D01*
X7162000Y-3887000D02*
X7062000Y-3987000D01*
X7162000Y-3937000D02*
G75*
G02*
X7062000Y-3937000I-50000J0D01*
G01*
X7062000Y-3937000D02*
G75*
G02*
X7162000Y-3937000I50000J0D01*
G01*
X7316000Y-3887000D02*
X7416000Y-3987000D01*
X7416000Y-3887000D02*
X7316000Y-3987000D01*
X7416000Y-3937000D02*
G75*
G02*
X7316000Y-3937000I-50000J0D01*
G01*
X7316000Y-3937000D02*
G75*
G02*
X7416000Y-3937000I50000J0D01*
G01*
X7320000Y-1728000D02*
X7420000Y-1828000D01*
X7420000Y-1728000D02*
X7320000Y-1828000D01*
X7420000Y-1778000D02*
G75*
G02*
X7320000Y-1778000I-50000J0D01*
G01*
X7320000Y-1778000D02*
G75*
G02*
X7420000Y-1778000I50000J0D01*
G01*
X7563870Y-10618000D02*
X7663870Y-10718000D01*
X7663870Y-10618000D02*
X7563870Y-10718000D01*
X7663870Y-10668000D02*
G75*
G02*
X7563870Y-10668000I-50000J0D01*
G01*
X7563870Y-10668000D02*
G75*
G02*
X7663870Y-10668000I50000J0D01*
G01*
X7570000Y-1728000D02*
X7670000Y-1828000D01*
X7670000Y-1728000D02*
X7570000Y-1828000D01*
X7670000Y-1778000D02*
G75*
G02*
X7570000Y-1778000I-50000J0D01*
G01*
X7570000Y-1778000D02*
G75*
G02*
X7670000Y-1778000I50000J0D01*
G01*
X7570000Y-6554000D02*
X7670000Y-6654000D01*
X7670000Y-6554000D02*
X7570000Y-6654000D01*
X7670000Y-6604000D02*
G75*
G02*
X7570000Y-6604000I-50000J0D01*
G01*
X7570000Y-6604000D02*
G75*
G02*
X7670000Y-6604000I50000J0D01*
G01*
X7570000Y-6808000D02*
X7670000Y-6908000D01*
X7670000Y-6808000D02*
X7570000Y-6908000D01*
X7670000Y-6858000D02*
G75*
G02*
X7570000Y-6858000I-50000J0D01*
G01*
X7570000Y-6858000D02*
G75*
G02*
X7670000Y-6858000I50000J0D01*
G01*
X7570000Y-7062000D02*
X7670000Y-7162000D01*
X7670000Y-7062000D02*
X7570000Y-7162000D01*
X7670000Y-7112000D02*
G75*
G02*
X7570000Y-7112000I-50000J0D01*
G01*
X7570000Y-7112000D02*
G75*
G02*
X7670000Y-7112000I50000J0D01*
G01*
X7570000Y-7316000D02*
X7670000Y-7416000D01*
X7670000Y-7316000D02*
X7570000Y-7416000D01*
X7670000Y-7366000D02*
G75*
G02*
X7570000Y-7366000I-50000J0D01*
G01*
X7570000Y-7366000D02*
G75*
G02*
X7670000Y-7366000I50000J0D01*
G01*
X7570000Y-7570000D02*
X7670000Y-7670000D01*
X7670000Y-7570000D02*
X7570000Y-7670000D01*
X7670000Y-7620000D02*
G75*
G02*
X7570000Y-7620000I-50000J0D01*
G01*
X7570000Y-7620000D02*
G75*
G02*
X7670000Y-7620000I50000J0D01*
G01*
X7570000Y-7824000D02*
X7670000Y-7924000D01*
X7670000Y-7824000D02*
X7570000Y-7924000D01*
X7670000Y-7874000D02*
G75*
G02*
X7570000Y-7874000I-50000J0D01*
G01*
X7570000Y-7874000D02*
G75*
G02*
X7670000Y-7874000I50000J0D01*
G01*
X7817870Y-10618000D02*
X7917870Y-10718000D01*
X7917870Y-10618000D02*
X7817870Y-10718000D01*
X7917870Y-10668000D02*
G75*
G02*
X7817870Y-10668000I-50000J0D01*
G01*
X7817870Y-10668000D02*
G75*
G02*
X7917870Y-10668000I50000J0D01*
G01*
X8071870Y-10618000D02*
X8171870Y-10718000D01*
X8171870Y-10618000D02*
X8071870Y-10718000D01*
X8171870Y-10668000D02*
G75*
G02*
X8071870Y-10668000I-50000J0D01*
G01*
X8071870Y-10668000D02*
G75*
G02*
X8171870Y-10668000I50000J0D01*
G01*
X8325870Y-10618000D02*
X8425870Y-10718000D01*
X8425870Y-10618000D02*
X8325870Y-10718000D01*
X8425870Y-10668000D02*
G75*
G02*
X8325870Y-10668000I-50000J0D01*
G01*
X8325870Y-10668000D02*
G75*
G02*
X8425870Y-10668000I50000J0D01*
G01*
X8332000Y-3887000D02*
X8432000Y-3987000D01*
X8432000Y-3887000D02*
X8332000Y-3987000D01*
X8432000Y-3937000D02*
G75*
G02*
X8332000Y-3937000I-50000J0D01*
G01*
X8332000Y-3937000D02*
G75*
G02*
X8432000Y-3937000I50000J0D01*
G01*
X8579870Y-10618000D02*
X8679870Y-10718000D01*
X8679870Y-10618000D02*
X8579870Y-10718000D01*
X8679870Y-10668000D02*
G75*
G02*
X8579870Y-10668000I-50000J0D01*
G01*
X8579870Y-10668000D02*
G75*
G02*
X8679870Y-10668000I50000J0D01*
G01*
X8586000Y-3887000D02*
X8686000Y-3987000D01*
X8686000Y-3887000D02*
X8586000Y-3987000D01*
X8686000Y-3937000D02*
G75*
G02*
X8586000Y-3937000I-50000J0D01*
G01*
X8586000Y-3937000D02*
G75*
G02*
X8686000Y-3937000I50000J0D01*
G01*
X8586000Y-6554000D02*
X8686000Y-6654000D01*
X8686000Y-6554000D02*
X8586000Y-6654000D01*
X8686000Y-6604000D02*
G75*
G02*
X8586000Y-6604000I-50000J0D01*
G01*
X8586000Y-6604000D02*
G75*
G02*
X8686000Y-6604000I50000J0D01*
G01*
X8586000Y-6808000D02*
X8686000Y-6908000D01*
X8686000Y-6808000D02*
X8586000Y-6908000D01*
X8686000Y-6858000D02*
G75*
G02*
X8586000Y-6858000I-50000J0D01*
G01*
X8586000Y-6858000D02*
G75*
G02*
X8686000Y-6858000I50000J0D01*
G01*
X8586000Y-7062000D02*
X8686000Y-7162000D01*
X8686000Y-7062000D02*
X8586000Y-7162000D01*
X8686000Y-7112000D02*
G75*
G02*
X8586000Y-7112000I-50000J0D01*
G01*
X8586000Y-7112000D02*
G75*
G02*
X8686000Y-7112000I50000J0D01*
G01*
X8586000Y-7316000D02*
X8686000Y-7416000D01*
X8686000Y-7316000D02*
X8586000Y-7416000D01*
X8686000Y-7366000D02*
G75*
G02*
X8586000Y-7366000I-50000J0D01*
G01*
X8586000Y-7366000D02*
G75*
G02*
X8686000Y-7366000I50000J0D01*
G01*
X8586000Y-7570000D02*
X8686000Y-7670000D01*
X8686000Y-7570000D02*
X8586000Y-7670000D01*
X8686000Y-7620000D02*
G75*
G02*
X8586000Y-7620000I-50000J0D01*
G01*
X8586000Y-7620000D02*
G75*
G02*
X8686000Y-7620000I50000J0D01*
G01*
X8586000Y-7824000D02*
X8686000Y-7924000D01*
X8686000Y-7824000D02*
X8586000Y-7924000D01*
X8686000Y-7874000D02*
G75*
G02*
X8586000Y-7874000I-50000J0D01*
G01*
X8586000Y-7874000D02*
G75*
G02*
X8686000Y-7874000I50000J0D01*
G01*
X8713000Y-1728000D02*
X8813000Y-1828000D01*
X8813000Y-1728000D02*
X8713000Y-1828000D01*
X8813000Y-1778000D02*
G75*
G02*
X8713000Y-1778000I-50000J0D01*
G01*
X8713000Y-1778000D02*
G75*
G02*
X8813000Y-1778000I50000J0D01*
G01*
X8713000Y-1982000D02*
X8813000Y-2082000D01*
X8813000Y-1982000D02*
X8713000Y-2082000D01*
X8813000Y-2032000D02*
G75*
G02*
X8713000Y-2032000I-50000J0D01*
G01*
X8713000Y-2032000D02*
G75*
G02*
X8813000Y-2032000I50000J0D01*
G01*
X8833870Y-10618000D02*
X8933870Y-10718000D01*
X8933870Y-10618000D02*
X8833870Y-10718000D01*
X8933870Y-10668000D02*
G75*
G02*
X8833870Y-10668000I-50000J0D01*
G01*
X8833870Y-10668000D02*
G75*
G02*
X8933870Y-10668000I50000J0D01*
G01*
X8840000Y-3887000D02*
X8940000Y-3987000D01*
X8940000Y-3887000D02*
X8840000Y-3987000D01*
X8940000Y-3937000D02*
G75*
G02*
X8840000Y-3937000I-50000J0D01*
G01*
X8840000Y-3937000D02*
G75*
G02*
X8940000Y-3937000I50000J0D01*
G01*
X9087870Y-10618000D02*
X9187870Y-10718000D01*
X9187870Y-10618000D02*
X9087870Y-10718000D01*
X9187870Y-10668000D02*
G75*
G02*
X9087870Y-10668000I-50000J0D01*
G01*
X9087870Y-10668000D02*
G75*
G02*
X9187870Y-10668000I50000J0D01*
G01*
X9094000Y-3887000D02*
X9194000Y-3987000D01*
X9194000Y-3887000D02*
X9094000Y-3987000D01*
X9194000Y-3937000D02*
G75*
G02*
X9094000Y-3937000I-50000J0D01*
G01*
X9094000Y-3937000D02*
G75*
G02*
X9194000Y-3937000I50000J0D01*
G01*
X9341870Y-10618000D02*
X9441870Y-10718000D01*
X9441870Y-10618000D02*
X9341870Y-10718000D01*
X9441870Y-10668000D02*
G75*
G02*
X9341870Y-10668000I-50000J0D01*
G01*
X9341870Y-10668000D02*
G75*
G02*
X9441870Y-10668000I50000J0D01*
G01*
X9348000Y-1728000D02*
X9448000Y-1828000D01*
X9448000Y-1728000D02*
X9348000Y-1828000D01*
X9448000Y-1778000D02*
G75*
G02*
X9348000Y-1778000I-50000J0D01*
G01*
X9348000Y-1778000D02*
G75*
G02*
X9448000Y-1778000I50000J0D01*
G01*
X9348000Y-1982000D02*
X9448000Y-2082000D01*
X9448000Y-1982000D02*
X9348000Y-2082000D01*
X9448000Y-2032000D02*
G75*
G02*
X9348000Y-2032000I-50000J0D01*
G01*
X9348000Y-2032000D02*
G75*
G02*
X9448000Y-2032000I50000J0D01*
G01*
X9348000Y-3887000D02*
X9448000Y-3987000D01*
X9448000Y-3887000D02*
X9348000Y-3987000D01*
X9448000Y-3937000D02*
G75*
G02*
X9348000Y-3937000I-50000J0D01*
G01*
X9348000Y-3937000D02*
G75*
G02*
X9448000Y-3937000I50000J0D01*
G01*
X9595870Y-10618000D02*
X9695870Y-10718000D01*
X9695870Y-10618000D02*
X9595870Y-10718000D01*
X9695870Y-10668000D02*
G75*
G02*
X9595870Y-10668000I-50000J0D01*
G01*
X9595870Y-10668000D02*
G75*
G02*
X9695870Y-10668000I50000J0D01*
G01*
X9602000Y-3887000D02*
X9702000Y-3987000D01*
X9702000Y-3887000D02*
X9602000Y-3987000D01*
X9702000Y-3937000D02*
G75*
G02*
X9602000Y-3937000I-50000J0D01*
G01*
X9602000Y-3937000D02*
G75*
G02*
X9702000Y-3937000I50000J0D01*
G01*
X9849870Y-10618000D02*
X9949870Y-10718000D01*
X9949870Y-10618000D02*
X9849870Y-10718000D01*
X9949870Y-10668000D02*
G75*
G02*
X9849870Y-10668000I-50000J0D01*
G01*
X9849870Y-10668000D02*
G75*
G02*
X9949870Y-10668000I50000J0D01*
G01*
X9856000Y-3887000D02*
X9956000Y-3987000D01*
X9956000Y-3887000D02*
X9856000Y-3987000D01*
X9956000Y-3937000D02*
G75*
G02*
X9856000Y-3937000I-50000J0D01*
G01*
X9856000Y-3937000D02*
G75*
G02*
X9956000Y-3937000I50000J0D01*
G01*
X9983000Y-1728000D02*
X10083000Y-1828000D01*
X10083000Y-1728000D02*
X9983000Y-1828000D01*
X10083000Y-1778000D02*
G75*
G02*
X9983000Y-1778000I-50000J0D01*
G01*
X9983000Y-1778000D02*
G75*
G02*
X10083000Y-1778000I50000J0D01*
G01*
X9983000Y-1982000D02*
X10083000Y-2082000D01*
X10083000Y-1982000D02*
X9983000Y-2082000D01*
X10083000Y-2032000D02*
G75*
G02*
X9983000Y-2032000I-50000J0D01*
G01*
X9983000Y-2032000D02*
G75*
G02*
X10083000Y-2032000I50000J0D01*
G01*
X10110000Y-3887000D02*
X10210000Y-3987000D01*
X10210000Y-3887000D02*
X10110000Y-3987000D01*
X10210000Y-3937000D02*
G75*
G02*
X10110000Y-3937000I-50000J0D01*
G01*
X10110000Y-3937000D02*
G75*
G02*
X10210000Y-3937000I50000J0D01*
G01*
X10364000Y-3887000D02*
X10464000Y-3987000D01*
X10464000Y-3887000D02*
X10364000Y-3987000D01*
X10464000Y-3937000D02*
G75*
G02*
X10364000Y-3937000I-50000J0D01*
G01*
X10364000Y-3937000D02*
G75*
G02*
X10464000Y-3937000I50000J0D01*
G01*
X10618000Y-1728000D02*
X10718000Y-1828000D01*
X10718000Y-1728000D02*
X10618000Y-1828000D01*
X10718000Y-1778000D02*
G75*
G02*
X10618000Y-1778000I-50000J0D01*
G01*
X10618000Y-1778000D02*
G75*
G02*
X10718000Y-1778000I50000J0D01*
G01*
X10618000Y-1982000D02*
X10718000Y-2082000D01*
X10718000Y-1982000D02*
X10618000Y-2082000D01*
X10718000Y-2032000D02*
G75*
G02*
X10618000Y-2032000I-50000J0D01*
G01*
X10618000Y-2032000D02*
G75*
G02*
X10718000Y-2032000I50000J0D01*
G01*
X10618000Y-3887000D02*
X10718000Y-3987000D01*
X10718000Y-3887000D02*
X10618000Y-3987000D01*
X10718000Y-3937000D02*
G75*
G02*
X10618000Y-3937000I-50000J0D01*
G01*
X10618000Y-3937000D02*
G75*
G02*
X10718000Y-3937000I50000J0D01*
G01*
X10681500Y-8903500D02*
X10781500Y-9003500D01*
X10781500Y-8903500D02*
X10681500Y-9003500D01*
X10781500Y-8953500D02*
G75*
G02*
X10681500Y-8953500I-50000J0D01*
G01*
X10681500Y-8953500D02*
G75*
G02*
X10781500Y-8953500I50000J0D01*
G01*
X10681500Y-9157500D02*
X10781500Y-9257500D01*
X10781500Y-9157500D02*
X10681500Y-9257500D01*
X10781500Y-9207500D02*
G75*
G02*
X10681500Y-9207500I-50000J0D01*
G01*
X10681500Y-9207500D02*
G75*
G02*
X10781500Y-9207500I50000J0D01*
G01*
X10681500Y-9411500D02*
X10781500Y-9511500D01*
X10781500Y-9411500D02*
X10681500Y-9511500D01*
X10781500Y-9461500D02*
G75*
G02*
X10681500Y-9461500I-50000J0D01*
G01*
X10681500Y-9461500D02*
G75*
G02*
X10781500Y-9461500I50000J0D01*
G01*
X10681500Y-9665500D02*
X10781500Y-9765500D01*
X10781500Y-9665500D02*
X10681500Y-9765500D01*
X10781500Y-9715500D02*
G75*
G02*
X10681500Y-9715500I-50000J0D01*
G01*
X10681500Y-9715500D02*
G75*
G02*
X10781500Y-9715500I50000J0D01*
G01*
X10694200Y-7112800D02*
X10794200Y-7212800D01*
X10794200Y-7112800D02*
X10694200Y-7212800D01*
X10794200Y-7162800D02*
G75*
G02*
X10694200Y-7162800I-50000J0D01*
G01*
X10694200Y-7162800D02*
G75*
G02*
X10794200Y-7162800I50000J0D01*
G01*
X10694200Y-7366800D02*
X10794200Y-7466800D01*
X10794200Y-7366800D02*
X10694200Y-7466800D01*
X10794200Y-7416800D02*
G75*
G02*
X10694200Y-7416800I-50000J0D01*
G01*
X10694200Y-7416800D02*
G75*
G02*
X10794200Y-7416800I50000J0D01*
G01*
X10694200Y-7620800D02*
X10794200Y-7720800D01*
X10794200Y-7620800D02*
X10694200Y-7720800D01*
X10794200Y-7670800D02*
G75*
G02*
X10694200Y-7670800I-50000J0D01*
G01*
X10694200Y-7670800D02*
G75*
G02*
X10794200Y-7670800I50000J0D01*
G01*
X10694200Y-7874800D02*
X10794200Y-7974800D01*
X10794200Y-7874800D02*
X10694200Y-7974800D01*
X10794200Y-7924800D02*
G75*
G02*
X10694200Y-7924800I-50000J0D01*
G01*
X10694200Y-7924800D02*
G75*
G02*
X10794200Y-7924800I50000J0D01*
G01*
X10694200Y-8128800D02*
X10794200Y-8228800D01*
X10794200Y-8128800D02*
X10694200Y-8228800D01*
X10794200Y-8178800D02*
G75*
G02*
X10694200Y-8178800I-50000J0D01*
G01*
X10694200Y-8178800D02*
G75*
G02*
X10794200Y-8178800I50000J0D01*
G01*
X10719600Y-5436400D02*
X10819600Y-5536400D01*
X10819600Y-5436400D02*
X10719600Y-5536400D01*
X10819600Y-5486400D02*
G75*
G02*
X10719600Y-5486400I-50000J0D01*
G01*
X10719600Y-5486400D02*
G75*
G02*
X10819600Y-5486400I50000J0D01*
G01*
X10719600Y-5690400D02*
X10819600Y-5790400D01*
X10819600Y-5690400D02*
X10719600Y-5790400D01*
X10819600Y-5740400D02*
G75*
G02*
X10719600Y-5740400I-50000J0D01*
G01*
X10719600Y-5740400D02*
G75*
G02*
X10819600Y-5740400I50000J0D01*
G01*
X10719600Y-5944400D02*
X10819600Y-6044400D01*
X10819600Y-5944400D02*
X10719600Y-6044400D01*
X10819600Y-5994400D02*
G75*
G02*
X10719600Y-5994400I-50000J0D01*
G01*
X10719600Y-5994400D02*
G75*
G02*
X10819600Y-5994400I50000J0D01*
G01*
X10719600Y-6198400D02*
X10819600Y-6298400D01*
X10819600Y-6198400D02*
X10719600Y-6298400D01*
X10819600Y-6248400D02*
G75*
G02*
X10719600Y-6248400I-50000J0D01*
G01*
X10719600Y-6248400D02*
G75*
G02*
X10819600Y-6248400I50000J0D01*
G01*
X10719600Y-6452400D02*
X10819600Y-6552400D01*
X10819600Y-6452400D02*
X10719600Y-6552400D01*
X10819600Y-6502400D02*
G75*
G02*
X10719600Y-6502400I-50000J0D01*
G01*
X10719600Y-6502400D02*
G75*
G02*
X10819600Y-6502400I50000J0D01*
G01*
D11*
X5297500Y-7520000D02*
X5497500Y-7720000D01*
X5497500Y-7520000D02*
X5297500Y-7720000D01*
X5397500Y-7520000D02*
X5397500Y-7720000D01*
X5297500Y-7620000D02*
X5497500Y-7620000D01*
D12*
X5865000Y-6365000D02*
X6135000Y-6635000D01*
X6135000Y-6365000D02*
X5865000Y-6635000D01*
X6095460Y-6595460D02*
X6095460Y-6404540D01*
X5904540Y-6404540D01*
X5904540Y-6595460D01*
X6095460Y-6595460D01*
X5865000Y-8365000D02*
X6135000Y-8635000D01*
X6135000Y-8365000D02*
X5865000Y-8635000D01*
X6095460Y-8595460D02*
X6095460Y-8404540D01*
X5904540Y-8404540D01*
X5904540Y-8595460D01*
X6095460Y-8595460D01*
X9365000Y-6365000D02*
X9635000Y-6635000D01*
X9635000Y-6365000D02*
X9365000Y-6635000D01*
X9595460Y-6595460D02*
X9595460Y-6404540D01*
X9404540Y-6404540D01*
X9404540Y-6595460D01*
X9595460Y-6595460D01*
X9365000Y-8365000D02*
X9635000Y-8635000D01*
X9635000Y-8365000D02*
X9365000Y-8635000D01*
X9595460Y-8595460D02*
X9595460Y-8404540D01*
X9404540Y-8404540D01*
X9404540Y-8595460D01*
X9595460Y-8595460D01*
D11*
X1525777Y-11492484D02*
X1525777Y-11292484D01*
X1525777Y-11292484D02*
X1573396Y-11292484D01*
X1573396Y-11292484D02*
X1601967Y-11302008D01*
X1601967Y-11302008D02*
X1621015Y-11321055D01*
X1621015Y-11321055D02*
X1630539Y-11340103D01*
X1630539Y-11340103D02*
X1640062Y-11378198D01*
X1640062Y-11378198D02*
X1640062Y-11406769D01*
X1640062Y-11406769D02*
X1630539Y-11444865D01*
X1630539Y-11444865D02*
X1621015Y-11463912D01*
X1621015Y-11463912D02*
X1601967Y-11482960D01*
X1601967Y-11482960D02*
X1573396Y-11492484D01*
X1573396Y-11492484D02*
X1525777Y-11492484D01*
X1725777Y-11492484D02*
X1725777Y-11359150D01*
X1725777Y-11397246D02*
X1735301Y-11378198D01*
X1735301Y-11378198D02*
X1744824Y-11368674D01*
X1744824Y-11368674D02*
X1763872Y-11359150D01*
X1763872Y-11359150D02*
X1782920Y-11359150D01*
X1849586Y-11492484D02*
X1849586Y-11359150D01*
X1849586Y-11292484D02*
X1840062Y-11302008D01*
X1840062Y-11302008D02*
X1849586Y-11311531D01*
X1849586Y-11311531D02*
X1859110Y-11302008D01*
X1859110Y-11302008D02*
X1849586Y-11292484D01*
X1849586Y-11292484D02*
X1849586Y-11311531D01*
X1973396Y-11492484D02*
X1954348Y-11482960D01*
X1954348Y-11482960D02*
X1944824Y-11463912D01*
X1944824Y-11463912D02*
X1944824Y-11292484D01*
X2078158Y-11492484D02*
X2059110Y-11482960D01*
X2059110Y-11482960D02*
X2049586Y-11463912D01*
X2049586Y-11463912D02*
X2049586Y-11292484D01*
X2306729Y-11492484D02*
X2306729Y-11292484D01*
X2306729Y-11292484D02*
X2373396Y-11435341D01*
X2373396Y-11435341D02*
X2440063Y-11292484D01*
X2440063Y-11292484D02*
X2440063Y-11492484D01*
X2621015Y-11492484D02*
X2621015Y-11387722D01*
X2621015Y-11387722D02*
X2611491Y-11368674D01*
X2611491Y-11368674D02*
X2592444Y-11359150D01*
X2592444Y-11359150D02*
X2554348Y-11359150D01*
X2554348Y-11359150D02*
X2535301Y-11368674D01*
X2621015Y-11482960D02*
X2601967Y-11492484D01*
X2601967Y-11492484D02*
X2554348Y-11492484D01*
X2554348Y-11492484D02*
X2535301Y-11482960D01*
X2535301Y-11482960D02*
X2525777Y-11463912D01*
X2525777Y-11463912D02*
X2525777Y-11444865D01*
X2525777Y-11444865D02*
X2535301Y-11425817D01*
X2535301Y-11425817D02*
X2554348Y-11416293D01*
X2554348Y-11416293D02*
X2601967Y-11416293D01*
X2601967Y-11416293D02*
X2621015Y-11406769D01*
X2716253Y-11359150D02*
X2716253Y-11559150D01*
X2716253Y-11368674D02*
X2735301Y-11359150D01*
X2735301Y-11359150D02*
X2773396Y-11359150D01*
X2773396Y-11359150D02*
X2792444Y-11368674D01*
X2792444Y-11368674D02*
X2801967Y-11378198D01*
X2801967Y-11378198D02*
X2811491Y-11397246D01*
X2811491Y-11397246D02*
X2811491Y-11454388D01*
X2811491Y-11454388D02*
X2801967Y-11473436D01*
X2801967Y-11473436D02*
X2792444Y-11482960D01*
X2792444Y-11482960D02*
X2773396Y-11492484D01*
X2773396Y-11492484D02*
X2735301Y-11492484D01*
X2735301Y-11492484D02*
X2716253Y-11482960D01*
X2897205Y-11473436D02*
X2906729Y-11482960D01*
X2906729Y-11482960D02*
X2897205Y-11492484D01*
X2897205Y-11492484D02*
X2887682Y-11482960D01*
X2887682Y-11482960D02*
X2897205Y-11473436D01*
X2897205Y-11473436D02*
X2897205Y-11492484D01*
X2897205Y-11368674D02*
X2906729Y-11378198D01*
X2906729Y-11378198D02*
X2897205Y-11387722D01*
X2897205Y-11387722D02*
X2887682Y-11378198D01*
X2887682Y-11378198D02*
X2897205Y-11368674D01*
X2897205Y-11368674D02*
X2897205Y-11387722D01*
D10*
X1235000Y-11806000D02*
X1265000Y-11836000D01*
X1265000Y-11806000D02*
X1235000Y-11836000D01*
D11*
X1563872Y-11712484D02*
X1582920Y-11712484D01*
X1582920Y-11712484D02*
X1601967Y-11722008D01*
X1601967Y-11722008D02*
X1611491Y-11731531D01*
X1611491Y-11731531D02*
X1621015Y-11750579D01*
X1621015Y-11750579D02*
X1630539Y-11788674D01*
X1630539Y-11788674D02*
X1630539Y-11836293D01*
X1630539Y-11836293D02*
X1621015Y-11874388D01*
X1621015Y-11874388D02*
X1611491Y-11893436D01*
X1611491Y-11893436D02*
X1601967Y-11902960D01*
X1601967Y-11902960D02*
X1582920Y-11912484D01*
X1582920Y-11912484D02*
X1563872Y-11912484D01*
X1563872Y-11912484D02*
X1544824Y-11902960D01*
X1544824Y-11902960D02*
X1535301Y-11893436D01*
X1535301Y-11893436D02*
X1525777Y-11874388D01*
X1525777Y-11874388D02*
X1516253Y-11836293D01*
X1516253Y-11836293D02*
X1516253Y-11788674D01*
X1516253Y-11788674D02*
X1525777Y-11750579D01*
X1525777Y-11750579D02*
X1535301Y-11731531D01*
X1535301Y-11731531D02*
X1544824Y-11722008D01*
X1544824Y-11722008D02*
X1563872Y-11712484D01*
X1716253Y-11893436D02*
X1725777Y-11902960D01*
X1725777Y-11902960D02*
X1716253Y-11912484D01*
X1716253Y-11912484D02*
X1706729Y-11902960D01*
X1706729Y-11902960D02*
X1716253Y-11893436D01*
X1716253Y-11893436D02*
X1716253Y-11912484D01*
X1792443Y-11712484D02*
X1916253Y-11712484D01*
X1916253Y-11712484D02*
X1849586Y-11788674D01*
X1849586Y-11788674D02*
X1878158Y-11788674D01*
X1878158Y-11788674D02*
X1897205Y-11798198D01*
X1897205Y-11798198D02*
X1906729Y-11807722D01*
X1906729Y-11807722D02*
X1916253Y-11826769D01*
X1916253Y-11826769D02*
X1916253Y-11874388D01*
X1916253Y-11874388D02*
X1906729Y-11893436D01*
X1906729Y-11893436D02*
X1897205Y-11902960D01*
X1897205Y-11902960D02*
X1878158Y-11912484D01*
X1878158Y-11912484D02*
X1821015Y-11912484D01*
X1821015Y-11912484D02*
X1801967Y-11902960D01*
X1801967Y-11902960D02*
X1792443Y-11893436D01*
X2040062Y-11712484D02*
X2059110Y-11712484D01*
X2059110Y-11712484D02*
X2078158Y-11722008D01*
X2078158Y-11722008D02*
X2087682Y-11731531D01*
X2087682Y-11731531D02*
X2097205Y-11750579D01*
X2097205Y-11750579D02*
X2106729Y-11788674D01*
X2106729Y-11788674D02*
X2106729Y-11836293D01*
X2106729Y-11836293D02*
X2097205Y-11874388D01*
X2097205Y-11874388D02*
X2087682Y-11893436D01*
X2087682Y-11893436D02*
X2078158Y-11902960D01*
X2078158Y-11902960D02*
X2059110Y-11912484D01*
X2059110Y-11912484D02*
X2040062Y-11912484D01*
X2040062Y-11912484D02*
X2021015Y-11902960D01*
X2021015Y-11902960D02*
X2011491Y-11893436D01*
X2011491Y-11893436D02*
X2001967Y-11874388D01*
X2001967Y-11874388D02*
X1992443Y-11836293D01*
X1992443Y-11836293D02*
X1992443Y-11788674D01*
X1992443Y-11788674D02*
X2001967Y-11750579D01*
X2001967Y-11750579D02*
X2011491Y-11731531D01*
X2011491Y-11731531D02*
X2021015Y-11722008D01*
X2021015Y-11722008D02*
X2040062Y-11712484D01*
X2230539Y-11712484D02*
X2249586Y-11712484D01*
X2249586Y-11712484D02*
X2268634Y-11722008D01*
X2268634Y-11722008D02*
X2278158Y-11731531D01*
X2278158Y-11731531D02*
X2287682Y-11750579D01*
X2287682Y-11750579D02*
X2297205Y-11788674D01*
X2297205Y-11788674D02*
X2297205Y-11836293D01*
X2297205Y-11836293D02*
X2287682Y-11874388D01*
X2287682Y-11874388D02*
X2278158Y-11893436D01*
X2278158Y-11893436D02*
X2268634Y-11902960D01*
X2268634Y-11902960D02*
X2249586Y-11912484D01*
X2249586Y-11912484D02*
X2230539Y-11912484D01*
X2230539Y-11912484D02*
X2211491Y-11902960D01*
X2211491Y-11902960D02*
X2201967Y-11893436D01*
X2201967Y-11893436D02*
X2192444Y-11874388D01*
X2192444Y-11874388D02*
X2182920Y-11836293D01*
X2182920Y-11836293D02*
X2182920Y-11788674D01*
X2182920Y-11788674D02*
X2192444Y-11750579D01*
X2192444Y-11750579D02*
X2201967Y-11731531D01*
X2201967Y-11731531D02*
X2211491Y-11722008D01*
X2211491Y-11722008D02*
X2230539Y-11712484D01*
X2382920Y-11912484D02*
X2382920Y-11779150D01*
X2382920Y-11798198D02*
X2392444Y-11788674D01*
X2392444Y-11788674D02*
X2411491Y-11779150D01*
X2411491Y-11779150D02*
X2440063Y-11779150D01*
X2440063Y-11779150D02*
X2459110Y-11788674D01*
X2459110Y-11788674D02*
X2468634Y-11807722D01*
X2468634Y-11807722D02*
X2468634Y-11912484D01*
X2468634Y-11807722D02*
X2478158Y-11788674D01*
X2478158Y-11788674D02*
X2497205Y-11779150D01*
X2497205Y-11779150D02*
X2525777Y-11779150D01*
X2525777Y-11779150D02*
X2544825Y-11788674D01*
X2544825Y-11788674D02*
X2554348Y-11807722D01*
X2554348Y-11807722D02*
X2554348Y-11912484D01*
X2649586Y-11912484D02*
X2649586Y-11779150D01*
X2649586Y-11798198D02*
X2659110Y-11788674D01*
X2659110Y-11788674D02*
X2678158Y-11779150D01*
X2678158Y-11779150D02*
X2706729Y-11779150D01*
X2706729Y-11779150D02*
X2725777Y-11788674D01*
X2725777Y-11788674D02*
X2735301Y-11807722D01*
X2735301Y-11807722D02*
X2735301Y-11912484D01*
X2735301Y-11807722D02*
X2744825Y-11788674D01*
X2744825Y-11788674D02*
X2763872Y-11779150D01*
X2763872Y-11779150D02*
X2792444Y-11779150D01*
X2792444Y-11779150D02*
X2811491Y-11788674D01*
X2811491Y-11788674D02*
X2821015Y-11807722D01*
X2821015Y-11807722D02*
X2821015Y-11912484D01*
X3211491Y-11702960D02*
X3040063Y-11960103D01*
X3468634Y-11712484D02*
X3487682Y-11712484D01*
X3487682Y-11712484D02*
X3506729Y-11722008D01*
X3506729Y-11722008D02*
X3516253Y-11731531D01*
X3516253Y-11731531D02*
X3525777Y-11750579D01*
X3525777Y-11750579D02*
X3535301Y-11788674D01*
X3535301Y-11788674D02*
X3535301Y-11836293D01*
X3535301Y-11836293D02*
X3525777Y-11874388D01*
X3525777Y-11874388D02*
X3516253Y-11893436D01*
X3516253Y-11893436D02*
X3506729Y-11902960D01*
X3506729Y-11902960D02*
X3487682Y-11912484D01*
X3487682Y-11912484D02*
X3468634Y-11912484D01*
X3468634Y-11912484D02*
X3449586Y-11902960D01*
X3449586Y-11902960D02*
X3440063Y-11893436D01*
X3440063Y-11893436D02*
X3430539Y-11874388D01*
X3430539Y-11874388D02*
X3421015Y-11836293D01*
X3421015Y-11836293D02*
X3421015Y-11788674D01*
X3421015Y-11788674D02*
X3430539Y-11750579D01*
X3430539Y-11750579D02*
X3440063Y-11731531D01*
X3440063Y-11731531D02*
X3449586Y-11722008D01*
X3449586Y-11722008D02*
X3468634Y-11712484D01*
X3621015Y-11893436D02*
X3630539Y-11902960D01*
X3630539Y-11902960D02*
X3621015Y-11912484D01*
X3621015Y-11912484D02*
X3611491Y-11902960D01*
X3611491Y-11902960D02*
X3621015Y-11893436D01*
X3621015Y-11893436D02*
X3621015Y-11912484D01*
X3754348Y-11712484D02*
X3773396Y-11712484D01*
X3773396Y-11712484D02*
X3792444Y-11722008D01*
X3792444Y-11722008D02*
X3801967Y-11731531D01*
X3801967Y-11731531D02*
X3811491Y-11750579D01*
X3811491Y-11750579D02*
X3821015Y-11788674D01*
X3821015Y-11788674D02*
X3821015Y-11836293D01*
X3821015Y-11836293D02*
X3811491Y-11874388D01*
X3811491Y-11874388D02*
X3801967Y-11893436D01*
X3801967Y-11893436D02*
X3792444Y-11902960D01*
X3792444Y-11902960D02*
X3773396Y-11912484D01*
X3773396Y-11912484D02*
X3754348Y-11912484D01*
X3754348Y-11912484D02*
X3735301Y-11902960D01*
X3735301Y-11902960D02*
X3725777Y-11893436D01*
X3725777Y-11893436D02*
X3716253Y-11874388D01*
X3716253Y-11874388D02*
X3706729Y-11836293D01*
X3706729Y-11836293D02*
X3706729Y-11788674D01*
X3706729Y-11788674D02*
X3716253Y-11750579D01*
X3716253Y-11750579D02*
X3725777Y-11731531D01*
X3725777Y-11731531D02*
X3735301Y-11722008D01*
X3735301Y-11722008D02*
X3754348Y-11712484D01*
X4011491Y-11912484D02*
X3897206Y-11912484D01*
X3954348Y-11912484D02*
X3954348Y-11712484D01*
X3954348Y-11712484D02*
X3935301Y-11741055D01*
X3935301Y-11741055D02*
X3916253Y-11760103D01*
X3916253Y-11760103D02*
X3897206Y-11769627D01*
X4201968Y-11912484D02*
X4087682Y-11912484D01*
X4144825Y-11912484D02*
X4144825Y-11712484D01*
X4144825Y-11712484D02*
X4125777Y-11741055D01*
X4125777Y-11741055D02*
X4106729Y-11760103D01*
X4106729Y-11760103D02*
X4087682Y-11769627D01*
X4316253Y-11798198D02*
X4297206Y-11788674D01*
X4297206Y-11788674D02*
X4287682Y-11779150D01*
X4287682Y-11779150D02*
X4278158Y-11760103D01*
X4278158Y-11760103D02*
X4278158Y-11750579D01*
X4278158Y-11750579D02*
X4287682Y-11731531D01*
X4287682Y-11731531D02*
X4297206Y-11722008D01*
X4297206Y-11722008D02*
X4316253Y-11712484D01*
X4316253Y-11712484D02*
X4354349Y-11712484D01*
X4354349Y-11712484D02*
X4373396Y-11722008D01*
X4373396Y-11722008D02*
X4382920Y-11731531D01*
X4382920Y-11731531D02*
X4392444Y-11750579D01*
X4392444Y-11750579D02*
X4392444Y-11760103D01*
X4392444Y-11760103D02*
X4382920Y-11779150D01*
X4382920Y-11779150D02*
X4373396Y-11788674D01*
X4373396Y-11788674D02*
X4354349Y-11798198D01*
X4354349Y-11798198D02*
X4316253Y-11798198D01*
X4316253Y-11798198D02*
X4297206Y-11807722D01*
X4297206Y-11807722D02*
X4287682Y-11817246D01*
X4287682Y-11817246D02*
X4278158Y-11836293D01*
X4278158Y-11836293D02*
X4278158Y-11874388D01*
X4278158Y-11874388D02*
X4287682Y-11893436D01*
X4287682Y-11893436D02*
X4297206Y-11902960D01*
X4297206Y-11902960D02*
X4316253Y-11912484D01*
X4316253Y-11912484D02*
X4354349Y-11912484D01*
X4354349Y-11912484D02*
X4373396Y-11902960D01*
X4373396Y-11902960D02*
X4382920Y-11893436D01*
X4382920Y-11893436D02*
X4392444Y-11874388D01*
X4392444Y-11874388D02*
X4392444Y-11836293D01*
X4392444Y-11836293D02*
X4382920Y-11817246D01*
X4382920Y-11817246D02*
X4373396Y-11807722D01*
X4373396Y-11807722D02*
X4354349Y-11798198D01*
X4468634Y-11712484D02*
X4468634Y-11750579D01*
X4544825Y-11712484D02*
X4544825Y-11750579D01*
X4840063Y-11988674D02*
X4830539Y-11979150D01*
X4830539Y-11979150D02*
X4811491Y-11950579D01*
X4811491Y-11950579D02*
X4801968Y-11931531D01*
X4801968Y-11931531D02*
X4792444Y-11902960D01*
X4792444Y-11902960D02*
X4782920Y-11855341D01*
X4782920Y-11855341D02*
X4782920Y-11817246D01*
X4782920Y-11817246D02*
X4792444Y-11769627D01*
X4792444Y-11769627D02*
X4801968Y-11741055D01*
X4801968Y-11741055D02*
X4811491Y-11722008D01*
X4811491Y-11722008D02*
X4830539Y-11693436D01*
X4830539Y-11693436D02*
X4840063Y-11683912D01*
X5001968Y-11712484D02*
X4963872Y-11712484D01*
X4963872Y-11712484D02*
X4944825Y-11722008D01*
X4944825Y-11722008D02*
X4935301Y-11731531D01*
X4935301Y-11731531D02*
X4916253Y-11760103D01*
X4916253Y-11760103D02*
X4906730Y-11798198D01*
X4906730Y-11798198D02*
X4906730Y-11874388D01*
X4906730Y-11874388D02*
X4916253Y-11893436D01*
X4916253Y-11893436D02*
X4925777Y-11902960D01*
X4925777Y-11902960D02*
X4944825Y-11912484D01*
X4944825Y-11912484D02*
X4982920Y-11912484D01*
X4982920Y-11912484D02*
X5001968Y-11902960D01*
X5001968Y-11902960D02*
X5011491Y-11893436D01*
X5011491Y-11893436D02*
X5021015Y-11874388D01*
X5021015Y-11874388D02*
X5021015Y-11826769D01*
X5021015Y-11826769D02*
X5011491Y-11807722D01*
X5011491Y-11807722D02*
X5001968Y-11798198D01*
X5001968Y-11798198D02*
X4982920Y-11788674D01*
X4982920Y-11788674D02*
X4944825Y-11788674D01*
X4944825Y-11788674D02*
X4925777Y-11798198D01*
X4925777Y-11798198D02*
X4916253Y-11807722D01*
X4916253Y-11807722D02*
X4906730Y-11826769D01*
X5097206Y-11731531D02*
X5106730Y-11722008D01*
X5106730Y-11722008D02*
X5125777Y-11712484D01*
X5125777Y-11712484D02*
X5173396Y-11712484D01*
X5173396Y-11712484D02*
X5192444Y-11722008D01*
X5192444Y-11722008D02*
X5201968Y-11731531D01*
X5201968Y-11731531D02*
X5211491Y-11750579D01*
X5211491Y-11750579D02*
X5211491Y-11769627D01*
X5211491Y-11769627D02*
X5201968Y-11798198D01*
X5201968Y-11798198D02*
X5087682Y-11912484D01*
X5087682Y-11912484D02*
X5211491Y-11912484D01*
X5449587Y-11912484D02*
X5449587Y-11712484D01*
X5535301Y-11912484D02*
X5535301Y-11807722D01*
X5535301Y-11807722D02*
X5525777Y-11788674D01*
X5525777Y-11788674D02*
X5506730Y-11779150D01*
X5506730Y-11779150D02*
X5478158Y-11779150D01*
X5478158Y-11779150D02*
X5459111Y-11788674D01*
X5459111Y-11788674D02*
X5449587Y-11798198D01*
X5659110Y-11912484D02*
X5640063Y-11902960D01*
X5640063Y-11902960D02*
X5630539Y-11893436D01*
X5630539Y-11893436D02*
X5621015Y-11874388D01*
X5621015Y-11874388D02*
X5621015Y-11817246D01*
X5621015Y-11817246D02*
X5630539Y-11798198D01*
X5630539Y-11798198D02*
X5640063Y-11788674D01*
X5640063Y-11788674D02*
X5659110Y-11779150D01*
X5659110Y-11779150D02*
X5687682Y-11779150D01*
X5687682Y-11779150D02*
X5706730Y-11788674D01*
X5706730Y-11788674D02*
X5716253Y-11798198D01*
X5716253Y-11798198D02*
X5725777Y-11817246D01*
X5725777Y-11817246D02*
X5725777Y-11874388D01*
X5725777Y-11874388D02*
X5716253Y-11893436D01*
X5716253Y-11893436D02*
X5706730Y-11902960D01*
X5706730Y-11902960D02*
X5687682Y-11912484D01*
X5687682Y-11912484D02*
X5659110Y-11912484D01*
X5840063Y-11912484D02*
X5821015Y-11902960D01*
X5821015Y-11902960D02*
X5811491Y-11883912D01*
X5811491Y-11883912D02*
X5811491Y-11712484D01*
X5992444Y-11902960D02*
X5973396Y-11912484D01*
X5973396Y-11912484D02*
X5935301Y-11912484D01*
X5935301Y-11912484D02*
X5916253Y-11902960D01*
X5916253Y-11902960D02*
X5906730Y-11883912D01*
X5906730Y-11883912D02*
X5906730Y-11807722D01*
X5906730Y-11807722D02*
X5916253Y-11788674D01*
X5916253Y-11788674D02*
X5935301Y-11779150D01*
X5935301Y-11779150D02*
X5973396Y-11779150D01*
X5973396Y-11779150D02*
X5992444Y-11788674D01*
X5992444Y-11788674D02*
X6001968Y-11807722D01*
X6001968Y-11807722D02*
X6001968Y-11826769D01*
X6001968Y-11826769D02*
X5906730Y-11845817D01*
X6078158Y-11902960D02*
X6097206Y-11912484D01*
X6097206Y-11912484D02*
X6135301Y-11912484D01*
X6135301Y-11912484D02*
X6154349Y-11902960D01*
X6154349Y-11902960D02*
X6163872Y-11883912D01*
X6163872Y-11883912D02*
X6163872Y-11874388D01*
X6163872Y-11874388D02*
X6154349Y-11855341D01*
X6154349Y-11855341D02*
X6135301Y-11845817D01*
X6135301Y-11845817D02*
X6106730Y-11845817D01*
X6106730Y-11845817D02*
X6087682Y-11836293D01*
X6087682Y-11836293D02*
X6078158Y-11817246D01*
X6078158Y-11817246D02*
X6078158Y-11807722D01*
X6078158Y-11807722D02*
X6087682Y-11788674D01*
X6087682Y-11788674D02*
X6106730Y-11779150D01*
X6106730Y-11779150D02*
X6135301Y-11779150D01*
X6135301Y-11779150D02*
X6154349Y-11788674D01*
X6230539Y-11988674D02*
X6240063Y-11979150D01*
X6240063Y-11979150D02*
X6259111Y-11950579D01*
X6259111Y-11950579D02*
X6268634Y-11931531D01*
X6268634Y-11931531D02*
X6278158Y-11902960D01*
X6278158Y-11902960D02*
X6287682Y-11855341D01*
X6287682Y-11855341D02*
X6287682Y-11817246D01*
X6287682Y-11817246D02*
X6278158Y-11769627D01*
X6278158Y-11769627D02*
X6268634Y-11741055D01*
X6268634Y-11741055D02*
X6259111Y-11722008D01*
X6259111Y-11722008D02*
X6240063Y-11693436D01*
X6240063Y-11693436D02*
X6230539Y-11683912D01*
D10*
X1265000Y-12085000D02*
G75*
G02*
X1205000Y-12085000I-30000J0D01*
G01*
X1205000Y-12085000D02*
G75*
G02*
X1265000Y-12085000I30000J0D01*
G01*
D11*
X1563872Y-11976484D02*
X1582920Y-11976484D01*
X1582920Y-11976484D02*
X1601967Y-11986008D01*
X1601967Y-11986008D02*
X1611491Y-11995531D01*
X1611491Y-11995531D02*
X1621015Y-12014579D01*
X1621015Y-12014579D02*
X1630539Y-12052674D01*
X1630539Y-12052674D02*
X1630539Y-12100293D01*
X1630539Y-12100293D02*
X1621015Y-12138388D01*
X1621015Y-12138388D02*
X1611491Y-12157436D01*
X1611491Y-12157436D02*
X1601967Y-12166960D01*
X1601967Y-12166960D02*
X1582920Y-12176484D01*
X1582920Y-12176484D02*
X1563872Y-12176484D01*
X1563872Y-12176484D02*
X1544824Y-12166960D01*
X1544824Y-12166960D02*
X1535301Y-12157436D01*
X1535301Y-12157436D02*
X1525777Y-12138388D01*
X1525777Y-12138388D02*
X1516253Y-12100293D01*
X1516253Y-12100293D02*
X1516253Y-12052674D01*
X1516253Y-12052674D02*
X1525777Y-12014579D01*
X1525777Y-12014579D02*
X1535301Y-11995531D01*
X1535301Y-11995531D02*
X1544824Y-11986008D01*
X1544824Y-11986008D02*
X1563872Y-11976484D01*
X1716253Y-12157436D02*
X1725777Y-12166960D01*
X1725777Y-12166960D02*
X1716253Y-12176484D01*
X1716253Y-12176484D02*
X1706729Y-12166960D01*
X1706729Y-12166960D02*
X1716253Y-12157436D01*
X1716253Y-12157436D02*
X1716253Y-12176484D01*
X1897205Y-11976484D02*
X1859110Y-11976484D01*
X1859110Y-11976484D02*
X1840062Y-11986008D01*
X1840062Y-11986008D02*
X1830539Y-11995531D01*
X1830539Y-11995531D02*
X1811491Y-12024103D01*
X1811491Y-12024103D02*
X1801967Y-12062198D01*
X1801967Y-12062198D02*
X1801967Y-12138388D01*
X1801967Y-12138388D02*
X1811491Y-12157436D01*
X1811491Y-12157436D02*
X1821015Y-12166960D01*
X1821015Y-12166960D02*
X1840062Y-12176484D01*
X1840062Y-12176484D02*
X1878158Y-12176484D01*
X1878158Y-12176484D02*
X1897205Y-12166960D01*
X1897205Y-12166960D02*
X1906729Y-12157436D01*
X1906729Y-12157436D02*
X1916253Y-12138388D01*
X1916253Y-12138388D02*
X1916253Y-12090769D01*
X1916253Y-12090769D02*
X1906729Y-12071722D01*
X1906729Y-12071722D02*
X1897205Y-12062198D01*
X1897205Y-12062198D02*
X1878158Y-12052674D01*
X1878158Y-12052674D02*
X1840062Y-12052674D01*
X1840062Y-12052674D02*
X1821015Y-12062198D01*
X1821015Y-12062198D02*
X1811491Y-12071722D01*
X1811491Y-12071722D02*
X1801967Y-12090769D01*
X2040062Y-11976484D02*
X2059110Y-11976484D01*
X2059110Y-11976484D02*
X2078158Y-11986008D01*
X2078158Y-11986008D02*
X2087682Y-11995531D01*
X2087682Y-11995531D02*
X2097205Y-12014579D01*
X2097205Y-12014579D02*
X2106729Y-12052674D01*
X2106729Y-12052674D02*
X2106729Y-12100293D01*
X2106729Y-12100293D02*
X2097205Y-12138388D01*
X2097205Y-12138388D02*
X2087682Y-12157436D01*
X2087682Y-12157436D02*
X2078158Y-12166960D01*
X2078158Y-12166960D02*
X2059110Y-12176484D01*
X2059110Y-12176484D02*
X2040062Y-12176484D01*
X2040062Y-12176484D02*
X2021015Y-12166960D01*
X2021015Y-12166960D02*
X2011491Y-12157436D01*
X2011491Y-12157436D02*
X2001967Y-12138388D01*
X2001967Y-12138388D02*
X1992443Y-12100293D01*
X1992443Y-12100293D02*
X1992443Y-12052674D01*
X1992443Y-12052674D02*
X2001967Y-12014579D01*
X2001967Y-12014579D02*
X2011491Y-11995531D01*
X2011491Y-11995531D02*
X2021015Y-11986008D01*
X2021015Y-11986008D02*
X2040062Y-11976484D01*
X2230539Y-11976484D02*
X2249586Y-11976484D01*
X2249586Y-11976484D02*
X2268634Y-11986008D01*
X2268634Y-11986008D02*
X2278158Y-11995531D01*
X2278158Y-11995531D02*
X2287682Y-12014579D01*
X2287682Y-12014579D02*
X2297205Y-12052674D01*
X2297205Y-12052674D02*
X2297205Y-12100293D01*
X2297205Y-12100293D02*
X2287682Y-12138388D01*
X2287682Y-12138388D02*
X2278158Y-12157436D01*
X2278158Y-12157436D02*
X2268634Y-12166960D01*
X2268634Y-12166960D02*
X2249586Y-12176484D01*
X2249586Y-12176484D02*
X2230539Y-12176484D01*
X2230539Y-12176484D02*
X2211491Y-12166960D01*
X2211491Y-12166960D02*
X2201967Y-12157436D01*
X2201967Y-12157436D02*
X2192444Y-12138388D01*
X2192444Y-12138388D02*
X2182920Y-12100293D01*
X2182920Y-12100293D02*
X2182920Y-12052674D01*
X2182920Y-12052674D02*
X2192444Y-12014579D01*
X2192444Y-12014579D02*
X2201967Y-11995531D01*
X2201967Y-11995531D02*
X2211491Y-11986008D01*
X2211491Y-11986008D02*
X2230539Y-11976484D01*
X2382920Y-12176484D02*
X2382920Y-12043150D01*
X2382920Y-12062198D02*
X2392444Y-12052674D01*
X2392444Y-12052674D02*
X2411491Y-12043150D01*
X2411491Y-12043150D02*
X2440063Y-12043150D01*
X2440063Y-12043150D02*
X2459110Y-12052674D01*
X2459110Y-12052674D02*
X2468634Y-12071722D01*
X2468634Y-12071722D02*
X2468634Y-12176484D01*
X2468634Y-12071722D02*
X2478158Y-12052674D01*
X2478158Y-12052674D02*
X2497205Y-12043150D01*
X2497205Y-12043150D02*
X2525777Y-12043150D01*
X2525777Y-12043150D02*
X2544825Y-12052674D01*
X2544825Y-12052674D02*
X2554348Y-12071722D01*
X2554348Y-12071722D02*
X2554348Y-12176484D01*
X2649586Y-12176484D02*
X2649586Y-12043150D01*
X2649586Y-12062198D02*
X2659110Y-12052674D01*
X2659110Y-12052674D02*
X2678158Y-12043150D01*
X2678158Y-12043150D02*
X2706729Y-12043150D01*
X2706729Y-12043150D02*
X2725777Y-12052674D01*
X2725777Y-12052674D02*
X2735301Y-12071722D01*
X2735301Y-12071722D02*
X2735301Y-12176484D01*
X2735301Y-12071722D02*
X2744825Y-12052674D01*
X2744825Y-12052674D02*
X2763872Y-12043150D01*
X2763872Y-12043150D02*
X2792444Y-12043150D01*
X2792444Y-12043150D02*
X2811491Y-12052674D01*
X2811491Y-12052674D02*
X2821015Y-12071722D01*
X2821015Y-12071722D02*
X2821015Y-12176484D01*
X3211491Y-11966960D02*
X3040063Y-12224103D01*
X3468634Y-11976484D02*
X3487682Y-11976484D01*
X3487682Y-11976484D02*
X3506729Y-11986008D01*
X3506729Y-11986008D02*
X3516253Y-11995531D01*
X3516253Y-11995531D02*
X3525777Y-12014579D01*
X3525777Y-12014579D02*
X3535301Y-12052674D01*
X3535301Y-12052674D02*
X3535301Y-12100293D01*
X3535301Y-12100293D02*
X3525777Y-12138388D01*
X3525777Y-12138388D02*
X3516253Y-12157436D01*
X3516253Y-12157436D02*
X3506729Y-12166960D01*
X3506729Y-12166960D02*
X3487682Y-12176484D01*
X3487682Y-12176484D02*
X3468634Y-12176484D01*
X3468634Y-12176484D02*
X3449586Y-12166960D01*
X3449586Y-12166960D02*
X3440063Y-12157436D01*
X3440063Y-12157436D02*
X3430539Y-12138388D01*
X3430539Y-12138388D02*
X3421015Y-12100293D01*
X3421015Y-12100293D02*
X3421015Y-12052674D01*
X3421015Y-12052674D02*
X3430539Y-12014579D01*
X3430539Y-12014579D02*
X3440063Y-11995531D01*
X3440063Y-11995531D02*
X3449586Y-11986008D01*
X3449586Y-11986008D02*
X3468634Y-11976484D01*
X3621015Y-12157436D02*
X3630539Y-12166960D01*
X3630539Y-12166960D02*
X3621015Y-12176484D01*
X3621015Y-12176484D02*
X3611491Y-12166960D01*
X3611491Y-12166960D02*
X3621015Y-12157436D01*
X3621015Y-12157436D02*
X3621015Y-12176484D01*
X3754348Y-11976484D02*
X3773396Y-11976484D01*
X3773396Y-11976484D02*
X3792444Y-11986008D01*
X3792444Y-11986008D02*
X3801967Y-11995531D01*
X3801967Y-11995531D02*
X3811491Y-12014579D01*
X3811491Y-12014579D02*
X3821015Y-12052674D01*
X3821015Y-12052674D02*
X3821015Y-12100293D01*
X3821015Y-12100293D02*
X3811491Y-12138388D01*
X3811491Y-12138388D02*
X3801967Y-12157436D01*
X3801967Y-12157436D02*
X3792444Y-12166960D01*
X3792444Y-12166960D02*
X3773396Y-12176484D01*
X3773396Y-12176484D02*
X3754348Y-12176484D01*
X3754348Y-12176484D02*
X3735301Y-12166960D01*
X3735301Y-12166960D02*
X3725777Y-12157436D01*
X3725777Y-12157436D02*
X3716253Y-12138388D01*
X3716253Y-12138388D02*
X3706729Y-12100293D01*
X3706729Y-12100293D02*
X3706729Y-12052674D01*
X3706729Y-12052674D02*
X3716253Y-12014579D01*
X3716253Y-12014579D02*
X3725777Y-11995531D01*
X3725777Y-11995531D02*
X3735301Y-11986008D01*
X3735301Y-11986008D02*
X3754348Y-11976484D01*
X3897206Y-11995531D02*
X3906729Y-11986008D01*
X3906729Y-11986008D02*
X3925777Y-11976484D01*
X3925777Y-11976484D02*
X3973396Y-11976484D01*
X3973396Y-11976484D02*
X3992444Y-11986008D01*
X3992444Y-11986008D02*
X4001967Y-11995531D01*
X4001967Y-11995531D02*
X4011491Y-12014579D01*
X4011491Y-12014579D02*
X4011491Y-12033627D01*
X4011491Y-12033627D02*
X4001967Y-12062198D01*
X4001967Y-12062198D02*
X3887682Y-12176484D01*
X3887682Y-12176484D02*
X4011491Y-12176484D01*
X4078158Y-11976484D02*
X4201968Y-11976484D01*
X4201968Y-11976484D02*
X4135301Y-12052674D01*
X4135301Y-12052674D02*
X4163872Y-12052674D01*
X4163872Y-12052674D02*
X4182920Y-12062198D01*
X4182920Y-12062198D02*
X4192444Y-12071722D01*
X4192444Y-12071722D02*
X4201968Y-12090769D01*
X4201968Y-12090769D02*
X4201968Y-12138388D01*
X4201968Y-12138388D02*
X4192444Y-12157436D01*
X4192444Y-12157436D02*
X4182920Y-12166960D01*
X4182920Y-12166960D02*
X4163872Y-12176484D01*
X4163872Y-12176484D02*
X4106729Y-12176484D01*
X4106729Y-12176484D02*
X4087682Y-12166960D01*
X4087682Y-12166960D02*
X4078158Y-12157436D01*
X4373396Y-11976484D02*
X4335301Y-11976484D01*
X4335301Y-11976484D02*
X4316253Y-11986008D01*
X4316253Y-11986008D02*
X4306729Y-11995531D01*
X4306729Y-11995531D02*
X4287682Y-12024103D01*
X4287682Y-12024103D02*
X4278158Y-12062198D01*
X4278158Y-12062198D02*
X4278158Y-12138388D01*
X4278158Y-12138388D02*
X4287682Y-12157436D01*
X4287682Y-12157436D02*
X4297206Y-12166960D01*
X4297206Y-12166960D02*
X4316253Y-12176484D01*
X4316253Y-12176484D02*
X4354349Y-12176484D01*
X4354349Y-12176484D02*
X4373396Y-12166960D01*
X4373396Y-12166960D02*
X4382920Y-12157436D01*
X4382920Y-12157436D02*
X4392444Y-12138388D01*
X4392444Y-12138388D02*
X4392444Y-12090769D01*
X4392444Y-12090769D02*
X4382920Y-12071722D01*
X4382920Y-12071722D02*
X4373396Y-12062198D01*
X4373396Y-12062198D02*
X4354349Y-12052674D01*
X4354349Y-12052674D02*
X4316253Y-12052674D01*
X4316253Y-12052674D02*
X4297206Y-12062198D01*
X4297206Y-12062198D02*
X4287682Y-12071722D01*
X4287682Y-12071722D02*
X4278158Y-12090769D01*
X4468634Y-11976484D02*
X4468634Y-12014579D01*
X4544825Y-11976484D02*
X4544825Y-12014579D01*
X4840063Y-12252674D02*
X4830539Y-12243150D01*
X4830539Y-12243150D02*
X4811491Y-12214579D01*
X4811491Y-12214579D02*
X4801968Y-12195531D01*
X4801968Y-12195531D02*
X4792444Y-12166960D01*
X4792444Y-12166960D02*
X4782920Y-12119341D01*
X4782920Y-12119341D02*
X4782920Y-12081246D01*
X4782920Y-12081246D02*
X4792444Y-12033627D01*
X4792444Y-12033627D02*
X4801968Y-12005055D01*
X4801968Y-12005055D02*
X4811491Y-11986008D01*
X4811491Y-11986008D02*
X4830539Y-11957436D01*
X4830539Y-11957436D02*
X4840063Y-11947912D01*
X4906730Y-11995531D02*
X4916253Y-11986008D01*
X4916253Y-11986008D02*
X4935301Y-11976484D01*
X4935301Y-11976484D02*
X4982920Y-11976484D01*
X4982920Y-11976484D02*
X5001968Y-11986008D01*
X5001968Y-11986008D02*
X5011491Y-11995531D01*
X5011491Y-11995531D02*
X5021015Y-12014579D01*
X5021015Y-12014579D02*
X5021015Y-12033627D01*
X5021015Y-12033627D02*
X5011491Y-12062198D01*
X5011491Y-12062198D02*
X4897206Y-12176484D01*
X4897206Y-12176484D02*
X5021015Y-12176484D01*
X5259111Y-12176484D02*
X5259111Y-11976484D01*
X5344825Y-12176484D02*
X5344825Y-12071722D01*
X5344825Y-12071722D02*
X5335301Y-12052674D01*
X5335301Y-12052674D02*
X5316253Y-12043150D01*
X5316253Y-12043150D02*
X5287682Y-12043150D01*
X5287682Y-12043150D02*
X5268634Y-12052674D01*
X5268634Y-12052674D02*
X5259111Y-12062198D01*
X5468634Y-12176484D02*
X5449587Y-12166960D01*
X5449587Y-12166960D02*
X5440063Y-12157436D01*
X5440063Y-12157436D02*
X5430539Y-12138388D01*
X5430539Y-12138388D02*
X5430539Y-12081246D01*
X5430539Y-12081246D02*
X5440063Y-12062198D01*
X5440063Y-12062198D02*
X5449587Y-12052674D01*
X5449587Y-12052674D02*
X5468634Y-12043150D01*
X5468634Y-12043150D02*
X5497206Y-12043150D01*
X5497206Y-12043150D02*
X5516253Y-12052674D01*
X5516253Y-12052674D02*
X5525777Y-12062198D01*
X5525777Y-12062198D02*
X5535301Y-12081246D01*
X5535301Y-12081246D02*
X5535301Y-12138388D01*
X5535301Y-12138388D02*
X5525777Y-12157436D01*
X5525777Y-12157436D02*
X5516253Y-12166960D01*
X5516253Y-12166960D02*
X5497206Y-12176484D01*
X5497206Y-12176484D02*
X5468634Y-12176484D01*
X5649587Y-12176484D02*
X5630539Y-12166960D01*
X5630539Y-12166960D02*
X5621015Y-12147912D01*
X5621015Y-12147912D02*
X5621015Y-11976484D01*
X5801968Y-12166960D02*
X5782920Y-12176484D01*
X5782920Y-12176484D02*
X5744825Y-12176484D01*
X5744825Y-12176484D02*
X5725777Y-12166960D01*
X5725777Y-12166960D02*
X5716253Y-12147912D01*
X5716253Y-12147912D02*
X5716253Y-12071722D01*
X5716253Y-12071722D02*
X5725777Y-12052674D01*
X5725777Y-12052674D02*
X5744825Y-12043150D01*
X5744825Y-12043150D02*
X5782920Y-12043150D01*
X5782920Y-12043150D02*
X5801968Y-12052674D01*
X5801968Y-12052674D02*
X5811491Y-12071722D01*
X5811491Y-12071722D02*
X5811491Y-12090769D01*
X5811491Y-12090769D02*
X5716253Y-12109817D01*
X5887682Y-12166960D02*
X5906730Y-12176484D01*
X5906730Y-12176484D02*
X5944825Y-12176484D01*
X5944825Y-12176484D02*
X5963872Y-12166960D01*
X5963872Y-12166960D02*
X5973396Y-12147912D01*
X5973396Y-12147912D02*
X5973396Y-12138388D01*
X5973396Y-12138388D02*
X5963872Y-12119341D01*
X5963872Y-12119341D02*
X5944825Y-12109817D01*
X5944825Y-12109817D02*
X5916253Y-12109817D01*
X5916253Y-12109817D02*
X5897206Y-12100293D01*
X5897206Y-12100293D02*
X5887682Y-12081246D01*
X5887682Y-12081246D02*
X5887682Y-12071722D01*
X5887682Y-12071722D02*
X5897206Y-12052674D01*
X5897206Y-12052674D02*
X5916253Y-12043150D01*
X5916253Y-12043150D02*
X5944825Y-12043150D01*
X5944825Y-12043150D02*
X5963872Y-12052674D01*
X6040063Y-12252674D02*
X6049587Y-12243150D01*
X6049587Y-12243150D02*
X6068634Y-12214579D01*
X6068634Y-12214579D02*
X6078158Y-12195531D01*
X6078158Y-12195531D02*
X6087682Y-12166960D01*
X6087682Y-12166960D02*
X6097206Y-12119341D01*
X6097206Y-12119341D02*
X6097206Y-12081246D01*
X6097206Y-12081246D02*
X6087682Y-12033627D01*
X6087682Y-12033627D02*
X6078158Y-12005055D01*
X6078158Y-12005055D02*
X6068634Y-11986008D01*
X6068634Y-11986008D02*
X6049587Y-11957436D01*
X6049587Y-11957436D02*
X6040063Y-11947912D01*
D10*
X1230000Y-12314000D02*
X1230000Y-12384000D01*
X1195000Y-12349000D02*
X1265000Y-12349000D01*
D11*
X1563872Y-12240484D02*
X1582920Y-12240484D01*
X1582920Y-12240484D02*
X1601967Y-12250008D01*
X1601967Y-12250008D02*
X1611491Y-12259531D01*
X1611491Y-12259531D02*
X1621015Y-12278579D01*
X1621015Y-12278579D02*
X1630539Y-12316674D01*
X1630539Y-12316674D02*
X1630539Y-12364293D01*
X1630539Y-12364293D02*
X1621015Y-12402388D01*
X1621015Y-12402388D02*
X1611491Y-12421436D01*
X1611491Y-12421436D02*
X1601967Y-12430960D01*
X1601967Y-12430960D02*
X1582920Y-12440484D01*
X1582920Y-12440484D02*
X1563872Y-12440484D01*
X1563872Y-12440484D02*
X1544824Y-12430960D01*
X1544824Y-12430960D02*
X1535301Y-12421436D01*
X1535301Y-12421436D02*
X1525777Y-12402388D01*
X1525777Y-12402388D02*
X1516253Y-12364293D01*
X1516253Y-12364293D02*
X1516253Y-12316674D01*
X1516253Y-12316674D02*
X1525777Y-12278579D01*
X1525777Y-12278579D02*
X1535301Y-12259531D01*
X1535301Y-12259531D02*
X1544824Y-12250008D01*
X1544824Y-12250008D02*
X1563872Y-12240484D01*
X1716253Y-12421436D02*
X1725777Y-12430960D01*
X1725777Y-12430960D02*
X1716253Y-12440484D01*
X1716253Y-12440484D02*
X1706729Y-12430960D01*
X1706729Y-12430960D02*
X1716253Y-12421436D01*
X1716253Y-12421436D02*
X1716253Y-12440484D01*
X1792443Y-12240484D02*
X1925777Y-12240484D01*
X1925777Y-12240484D02*
X1840062Y-12440484D01*
X2040062Y-12240484D02*
X2059110Y-12240484D01*
X2059110Y-12240484D02*
X2078158Y-12250008D01*
X2078158Y-12250008D02*
X2087682Y-12259531D01*
X2087682Y-12259531D02*
X2097205Y-12278579D01*
X2097205Y-12278579D02*
X2106729Y-12316674D01*
X2106729Y-12316674D02*
X2106729Y-12364293D01*
X2106729Y-12364293D02*
X2097205Y-12402388D01*
X2097205Y-12402388D02*
X2087682Y-12421436D01*
X2087682Y-12421436D02*
X2078158Y-12430960D01*
X2078158Y-12430960D02*
X2059110Y-12440484D01*
X2059110Y-12440484D02*
X2040062Y-12440484D01*
X2040062Y-12440484D02*
X2021015Y-12430960D01*
X2021015Y-12430960D02*
X2011491Y-12421436D01*
X2011491Y-12421436D02*
X2001967Y-12402388D01*
X2001967Y-12402388D02*
X1992443Y-12364293D01*
X1992443Y-12364293D02*
X1992443Y-12316674D01*
X1992443Y-12316674D02*
X2001967Y-12278579D01*
X2001967Y-12278579D02*
X2011491Y-12259531D01*
X2011491Y-12259531D02*
X2021015Y-12250008D01*
X2021015Y-12250008D02*
X2040062Y-12240484D01*
X2230539Y-12240484D02*
X2249586Y-12240484D01*
X2249586Y-12240484D02*
X2268634Y-12250008D01*
X2268634Y-12250008D02*
X2278158Y-12259531D01*
X2278158Y-12259531D02*
X2287682Y-12278579D01*
X2287682Y-12278579D02*
X2297205Y-12316674D01*
X2297205Y-12316674D02*
X2297205Y-12364293D01*
X2297205Y-12364293D02*
X2287682Y-12402388D01*
X2287682Y-12402388D02*
X2278158Y-12421436D01*
X2278158Y-12421436D02*
X2268634Y-12430960D01*
X2268634Y-12430960D02*
X2249586Y-12440484D01*
X2249586Y-12440484D02*
X2230539Y-12440484D01*
X2230539Y-12440484D02*
X2211491Y-12430960D01*
X2211491Y-12430960D02*
X2201967Y-12421436D01*
X2201967Y-12421436D02*
X2192444Y-12402388D01*
X2192444Y-12402388D02*
X2182920Y-12364293D01*
X2182920Y-12364293D02*
X2182920Y-12316674D01*
X2182920Y-12316674D02*
X2192444Y-12278579D01*
X2192444Y-12278579D02*
X2201967Y-12259531D01*
X2201967Y-12259531D02*
X2211491Y-12250008D01*
X2211491Y-12250008D02*
X2230539Y-12240484D01*
X2382920Y-12440484D02*
X2382920Y-12307150D01*
X2382920Y-12326198D02*
X2392444Y-12316674D01*
X2392444Y-12316674D02*
X2411491Y-12307150D01*
X2411491Y-12307150D02*
X2440063Y-12307150D01*
X2440063Y-12307150D02*
X2459110Y-12316674D01*
X2459110Y-12316674D02*
X2468634Y-12335722D01*
X2468634Y-12335722D02*
X2468634Y-12440484D01*
X2468634Y-12335722D02*
X2478158Y-12316674D01*
X2478158Y-12316674D02*
X2497205Y-12307150D01*
X2497205Y-12307150D02*
X2525777Y-12307150D01*
X2525777Y-12307150D02*
X2544825Y-12316674D01*
X2544825Y-12316674D02*
X2554348Y-12335722D01*
X2554348Y-12335722D02*
X2554348Y-12440484D01*
X2649586Y-12440484D02*
X2649586Y-12307150D01*
X2649586Y-12326198D02*
X2659110Y-12316674D01*
X2659110Y-12316674D02*
X2678158Y-12307150D01*
X2678158Y-12307150D02*
X2706729Y-12307150D01*
X2706729Y-12307150D02*
X2725777Y-12316674D01*
X2725777Y-12316674D02*
X2735301Y-12335722D01*
X2735301Y-12335722D02*
X2735301Y-12440484D01*
X2735301Y-12335722D02*
X2744825Y-12316674D01*
X2744825Y-12316674D02*
X2763872Y-12307150D01*
X2763872Y-12307150D02*
X2792444Y-12307150D01*
X2792444Y-12307150D02*
X2811491Y-12316674D01*
X2811491Y-12316674D02*
X2821015Y-12335722D01*
X2821015Y-12335722D02*
X2821015Y-12440484D01*
X3211491Y-12230960D02*
X3040063Y-12488103D01*
X3468634Y-12240484D02*
X3487682Y-12240484D01*
X3487682Y-12240484D02*
X3506729Y-12250008D01*
X3506729Y-12250008D02*
X3516253Y-12259531D01*
X3516253Y-12259531D02*
X3525777Y-12278579D01*
X3525777Y-12278579D02*
X3535301Y-12316674D01*
X3535301Y-12316674D02*
X3535301Y-12364293D01*
X3535301Y-12364293D02*
X3525777Y-12402388D01*
X3525777Y-12402388D02*
X3516253Y-12421436D01*
X3516253Y-12421436D02*
X3506729Y-12430960D01*
X3506729Y-12430960D02*
X3487682Y-12440484D01*
X3487682Y-12440484D02*
X3468634Y-12440484D01*
X3468634Y-12440484D02*
X3449586Y-12430960D01*
X3449586Y-12430960D02*
X3440063Y-12421436D01*
X3440063Y-12421436D02*
X3430539Y-12402388D01*
X3430539Y-12402388D02*
X3421015Y-12364293D01*
X3421015Y-12364293D02*
X3421015Y-12316674D01*
X3421015Y-12316674D02*
X3430539Y-12278579D01*
X3430539Y-12278579D02*
X3440063Y-12259531D01*
X3440063Y-12259531D02*
X3449586Y-12250008D01*
X3449586Y-12250008D02*
X3468634Y-12240484D01*
X3621015Y-12421436D02*
X3630539Y-12430960D01*
X3630539Y-12430960D02*
X3621015Y-12440484D01*
X3621015Y-12440484D02*
X3611491Y-12430960D01*
X3611491Y-12430960D02*
X3621015Y-12421436D01*
X3621015Y-12421436D02*
X3621015Y-12440484D01*
X3754348Y-12240484D02*
X3773396Y-12240484D01*
X3773396Y-12240484D02*
X3792444Y-12250008D01*
X3792444Y-12250008D02*
X3801967Y-12259531D01*
X3801967Y-12259531D02*
X3811491Y-12278579D01*
X3811491Y-12278579D02*
X3821015Y-12316674D01*
X3821015Y-12316674D02*
X3821015Y-12364293D01*
X3821015Y-12364293D02*
X3811491Y-12402388D01*
X3811491Y-12402388D02*
X3801967Y-12421436D01*
X3801967Y-12421436D02*
X3792444Y-12430960D01*
X3792444Y-12430960D02*
X3773396Y-12440484D01*
X3773396Y-12440484D02*
X3754348Y-12440484D01*
X3754348Y-12440484D02*
X3735301Y-12430960D01*
X3735301Y-12430960D02*
X3725777Y-12421436D01*
X3725777Y-12421436D02*
X3716253Y-12402388D01*
X3716253Y-12402388D02*
X3706729Y-12364293D01*
X3706729Y-12364293D02*
X3706729Y-12316674D01*
X3706729Y-12316674D02*
X3716253Y-12278579D01*
X3716253Y-12278579D02*
X3725777Y-12259531D01*
X3725777Y-12259531D02*
X3735301Y-12250008D01*
X3735301Y-12250008D02*
X3754348Y-12240484D01*
X3897206Y-12259531D02*
X3906729Y-12250008D01*
X3906729Y-12250008D02*
X3925777Y-12240484D01*
X3925777Y-12240484D02*
X3973396Y-12240484D01*
X3973396Y-12240484D02*
X3992444Y-12250008D01*
X3992444Y-12250008D02*
X4001967Y-12259531D01*
X4001967Y-12259531D02*
X4011491Y-12278579D01*
X4011491Y-12278579D02*
X4011491Y-12297627D01*
X4011491Y-12297627D02*
X4001967Y-12326198D01*
X4001967Y-12326198D02*
X3887682Y-12440484D01*
X3887682Y-12440484D02*
X4011491Y-12440484D01*
X4078158Y-12240484D02*
X4211491Y-12240484D01*
X4211491Y-12240484D02*
X4125777Y-12440484D01*
X4373396Y-12240484D02*
X4335301Y-12240484D01*
X4335301Y-12240484D02*
X4316253Y-12250008D01*
X4316253Y-12250008D02*
X4306729Y-12259531D01*
X4306729Y-12259531D02*
X4287682Y-12288103D01*
X4287682Y-12288103D02*
X4278158Y-12326198D01*
X4278158Y-12326198D02*
X4278158Y-12402388D01*
X4278158Y-12402388D02*
X4287682Y-12421436D01*
X4287682Y-12421436D02*
X4297206Y-12430960D01*
X4297206Y-12430960D02*
X4316253Y-12440484D01*
X4316253Y-12440484D02*
X4354349Y-12440484D01*
X4354349Y-12440484D02*
X4373396Y-12430960D01*
X4373396Y-12430960D02*
X4382920Y-12421436D01*
X4382920Y-12421436D02*
X4392444Y-12402388D01*
X4392444Y-12402388D02*
X4392444Y-12354769D01*
X4392444Y-12354769D02*
X4382920Y-12335722D01*
X4382920Y-12335722D02*
X4373396Y-12326198D01*
X4373396Y-12326198D02*
X4354349Y-12316674D01*
X4354349Y-12316674D02*
X4316253Y-12316674D01*
X4316253Y-12316674D02*
X4297206Y-12326198D01*
X4297206Y-12326198D02*
X4287682Y-12335722D01*
X4287682Y-12335722D02*
X4278158Y-12354769D01*
X4468634Y-12240484D02*
X4468634Y-12278579D01*
X4544825Y-12240484D02*
X4544825Y-12278579D01*
X4840063Y-12516674D02*
X4830539Y-12507150D01*
X4830539Y-12507150D02*
X4811491Y-12478579D01*
X4811491Y-12478579D02*
X4801968Y-12459531D01*
X4801968Y-12459531D02*
X4792444Y-12430960D01*
X4792444Y-12430960D02*
X4782920Y-12383341D01*
X4782920Y-12383341D02*
X4782920Y-12345246D01*
X4782920Y-12345246D02*
X4792444Y-12297627D01*
X4792444Y-12297627D02*
X4801968Y-12269055D01*
X4801968Y-12269055D02*
X4811491Y-12250008D01*
X4811491Y-12250008D02*
X4830539Y-12221436D01*
X4830539Y-12221436D02*
X4840063Y-12211912D01*
X5021015Y-12440484D02*
X4906730Y-12440484D01*
X4963872Y-12440484D02*
X4963872Y-12240484D01*
X4963872Y-12240484D02*
X4944825Y-12269055D01*
X4944825Y-12269055D02*
X4925777Y-12288103D01*
X4925777Y-12288103D02*
X4906730Y-12297627D01*
X5192444Y-12307150D02*
X5192444Y-12440484D01*
X5144825Y-12230960D02*
X5097206Y-12373817D01*
X5097206Y-12373817D02*
X5221015Y-12373817D01*
X5449587Y-12440484D02*
X5449587Y-12240484D01*
X5535301Y-12440484D02*
X5535301Y-12335722D01*
X5535301Y-12335722D02*
X5525777Y-12316674D01*
X5525777Y-12316674D02*
X5506730Y-12307150D01*
X5506730Y-12307150D02*
X5478158Y-12307150D01*
X5478158Y-12307150D02*
X5459111Y-12316674D01*
X5459111Y-12316674D02*
X5449587Y-12326198D01*
X5659110Y-12440484D02*
X5640063Y-12430960D01*
X5640063Y-12430960D02*
X5630539Y-12421436D01*
X5630539Y-12421436D02*
X5621015Y-12402388D01*
X5621015Y-12402388D02*
X5621015Y-12345246D01*
X5621015Y-12345246D02*
X5630539Y-12326198D01*
X5630539Y-12326198D02*
X5640063Y-12316674D01*
X5640063Y-12316674D02*
X5659110Y-12307150D01*
X5659110Y-12307150D02*
X5687682Y-12307150D01*
X5687682Y-12307150D02*
X5706730Y-12316674D01*
X5706730Y-12316674D02*
X5716253Y-12326198D01*
X5716253Y-12326198D02*
X5725777Y-12345246D01*
X5725777Y-12345246D02*
X5725777Y-12402388D01*
X5725777Y-12402388D02*
X5716253Y-12421436D01*
X5716253Y-12421436D02*
X5706730Y-12430960D01*
X5706730Y-12430960D02*
X5687682Y-12440484D01*
X5687682Y-12440484D02*
X5659110Y-12440484D01*
X5840063Y-12440484D02*
X5821015Y-12430960D01*
X5821015Y-12430960D02*
X5811491Y-12411912D01*
X5811491Y-12411912D02*
X5811491Y-12240484D01*
X5992444Y-12430960D02*
X5973396Y-12440484D01*
X5973396Y-12440484D02*
X5935301Y-12440484D01*
X5935301Y-12440484D02*
X5916253Y-12430960D01*
X5916253Y-12430960D02*
X5906730Y-12411912D01*
X5906730Y-12411912D02*
X5906730Y-12335722D01*
X5906730Y-12335722D02*
X5916253Y-12316674D01*
X5916253Y-12316674D02*
X5935301Y-12307150D01*
X5935301Y-12307150D02*
X5973396Y-12307150D01*
X5973396Y-12307150D02*
X5992444Y-12316674D01*
X5992444Y-12316674D02*
X6001968Y-12335722D01*
X6001968Y-12335722D02*
X6001968Y-12354769D01*
X6001968Y-12354769D02*
X5906730Y-12373817D01*
X6078158Y-12430960D02*
X6097206Y-12440484D01*
X6097206Y-12440484D02*
X6135301Y-12440484D01*
X6135301Y-12440484D02*
X6154349Y-12430960D01*
X6154349Y-12430960D02*
X6163872Y-12411912D01*
X6163872Y-12411912D02*
X6163872Y-12402388D01*
X6163872Y-12402388D02*
X6154349Y-12383341D01*
X6154349Y-12383341D02*
X6135301Y-12373817D01*
X6135301Y-12373817D02*
X6106730Y-12373817D01*
X6106730Y-12373817D02*
X6087682Y-12364293D01*
X6087682Y-12364293D02*
X6078158Y-12345246D01*
X6078158Y-12345246D02*
X6078158Y-12335722D01*
X6078158Y-12335722D02*
X6087682Y-12316674D01*
X6087682Y-12316674D02*
X6106730Y-12307150D01*
X6106730Y-12307150D02*
X6135301Y-12307150D01*
X6135301Y-12307150D02*
X6154349Y-12316674D01*
X6230539Y-12516674D02*
X6240063Y-12507150D01*
X6240063Y-12507150D02*
X6259111Y-12478579D01*
X6259111Y-12478579D02*
X6268634Y-12459531D01*
X6268634Y-12459531D02*
X6278158Y-12430960D01*
X6278158Y-12430960D02*
X6287682Y-12383341D01*
X6287682Y-12383341D02*
X6287682Y-12345246D01*
X6287682Y-12345246D02*
X6278158Y-12297627D01*
X6278158Y-12297627D02*
X6268634Y-12269055D01*
X6268634Y-12269055D02*
X6259111Y-12250008D01*
X6259111Y-12250008D02*
X6240063Y-12221436D01*
X6240063Y-12221436D02*
X6230539Y-12211912D01*
D10*
X1251088Y-12646588D02*
X1251088Y-12579412D01*
X1183912Y-12579412D01*
X1183912Y-12646588D01*
X1251088Y-12646588D01*
D11*
X1563872Y-12504484D02*
X1582920Y-12504484D01*
X1582920Y-12504484D02*
X1601967Y-12514008D01*
X1601967Y-12514008D02*
X1611491Y-12523531D01*
X1611491Y-12523531D02*
X1621015Y-12542579D01*
X1621015Y-12542579D02*
X1630539Y-12580674D01*
X1630539Y-12580674D02*
X1630539Y-12628293D01*
X1630539Y-12628293D02*
X1621015Y-12666388D01*
X1621015Y-12666388D02*
X1611491Y-12685436D01*
X1611491Y-12685436D02*
X1601967Y-12694960D01*
X1601967Y-12694960D02*
X1582920Y-12704484D01*
X1582920Y-12704484D02*
X1563872Y-12704484D01*
X1563872Y-12704484D02*
X1544824Y-12694960D01*
X1544824Y-12694960D02*
X1535301Y-12685436D01*
X1535301Y-12685436D02*
X1525777Y-12666388D01*
X1525777Y-12666388D02*
X1516253Y-12628293D01*
X1516253Y-12628293D02*
X1516253Y-12580674D01*
X1516253Y-12580674D02*
X1525777Y-12542579D01*
X1525777Y-12542579D02*
X1535301Y-12523531D01*
X1535301Y-12523531D02*
X1544824Y-12514008D01*
X1544824Y-12514008D02*
X1563872Y-12504484D01*
X1716253Y-12685436D02*
X1725777Y-12694960D01*
X1725777Y-12694960D02*
X1716253Y-12704484D01*
X1716253Y-12704484D02*
X1706729Y-12694960D01*
X1706729Y-12694960D02*
X1716253Y-12685436D01*
X1716253Y-12685436D02*
X1716253Y-12704484D01*
X1821015Y-12704484D02*
X1859110Y-12704484D01*
X1859110Y-12704484D02*
X1878158Y-12694960D01*
X1878158Y-12694960D02*
X1887682Y-12685436D01*
X1887682Y-12685436D02*
X1906729Y-12656865D01*
X1906729Y-12656865D02*
X1916253Y-12618769D01*
X1916253Y-12618769D02*
X1916253Y-12542579D01*
X1916253Y-12542579D02*
X1906729Y-12523531D01*
X1906729Y-12523531D02*
X1897205Y-12514008D01*
X1897205Y-12514008D02*
X1878158Y-12504484D01*
X1878158Y-12504484D02*
X1840062Y-12504484D01*
X1840062Y-12504484D02*
X1821015Y-12514008D01*
X1821015Y-12514008D02*
X1811491Y-12523531D01*
X1811491Y-12523531D02*
X1801967Y-12542579D01*
X1801967Y-12542579D02*
X1801967Y-12590198D01*
X1801967Y-12590198D02*
X1811491Y-12609246D01*
X1811491Y-12609246D02*
X1821015Y-12618769D01*
X1821015Y-12618769D02*
X1840062Y-12628293D01*
X1840062Y-12628293D02*
X1878158Y-12628293D01*
X1878158Y-12628293D02*
X1897205Y-12618769D01*
X1897205Y-12618769D02*
X1906729Y-12609246D01*
X1906729Y-12609246D02*
X1916253Y-12590198D01*
X2097205Y-12504484D02*
X2001967Y-12504484D01*
X2001967Y-12504484D02*
X1992443Y-12599722D01*
X1992443Y-12599722D02*
X2001967Y-12590198D01*
X2001967Y-12590198D02*
X2021015Y-12580674D01*
X2021015Y-12580674D02*
X2068634Y-12580674D01*
X2068634Y-12580674D02*
X2087682Y-12590198D01*
X2087682Y-12590198D02*
X2097205Y-12599722D01*
X2097205Y-12599722D02*
X2106729Y-12618769D01*
X2106729Y-12618769D02*
X2106729Y-12666388D01*
X2106729Y-12666388D02*
X2097205Y-12685436D01*
X2097205Y-12685436D02*
X2087682Y-12694960D01*
X2087682Y-12694960D02*
X2068634Y-12704484D01*
X2068634Y-12704484D02*
X2021015Y-12704484D01*
X2021015Y-12704484D02*
X2001967Y-12694960D01*
X2001967Y-12694960D02*
X1992443Y-12685436D01*
X2230539Y-12504484D02*
X2249586Y-12504484D01*
X2249586Y-12504484D02*
X2268634Y-12514008D01*
X2268634Y-12514008D02*
X2278158Y-12523531D01*
X2278158Y-12523531D02*
X2287682Y-12542579D01*
X2287682Y-12542579D02*
X2297205Y-12580674D01*
X2297205Y-12580674D02*
X2297205Y-12628293D01*
X2297205Y-12628293D02*
X2287682Y-12666388D01*
X2287682Y-12666388D02*
X2278158Y-12685436D01*
X2278158Y-12685436D02*
X2268634Y-12694960D01*
X2268634Y-12694960D02*
X2249586Y-12704484D01*
X2249586Y-12704484D02*
X2230539Y-12704484D01*
X2230539Y-12704484D02*
X2211491Y-12694960D01*
X2211491Y-12694960D02*
X2201967Y-12685436D01*
X2201967Y-12685436D02*
X2192444Y-12666388D01*
X2192444Y-12666388D02*
X2182920Y-12628293D01*
X2182920Y-12628293D02*
X2182920Y-12580674D01*
X2182920Y-12580674D02*
X2192444Y-12542579D01*
X2192444Y-12542579D02*
X2201967Y-12523531D01*
X2201967Y-12523531D02*
X2211491Y-12514008D01*
X2211491Y-12514008D02*
X2230539Y-12504484D01*
X2382920Y-12704484D02*
X2382920Y-12571150D01*
X2382920Y-12590198D02*
X2392444Y-12580674D01*
X2392444Y-12580674D02*
X2411491Y-12571150D01*
X2411491Y-12571150D02*
X2440063Y-12571150D01*
X2440063Y-12571150D02*
X2459110Y-12580674D01*
X2459110Y-12580674D02*
X2468634Y-12599722D01*
X2468634Y-12599722D02*
X2468634Y-12704484D01*
X2468634Y-12599722D02*
X2478158Y-12580674D01*
X2478158Y-12580674D02*
X2497205Y-12571150D01*
X2497205Y-12571150D02*
X2525777Y-12571150D01*
X2525777Y-12571150D02*
X2544825Y-12580674D01*
X2544825Y-12580674D02*
X2554348Y-12599722D01*
X2554348Y-12599722D02*
X2554348Y-12704484D01*
X2649586Y-12704484D02*
X2649586Y-12571150D01*
X2649586Y-12590198D02*
X2659110Y-12580674D01*
X2659110Y-12580674D02*
X2678158Y-12571150D01*
X2678158Y-12571150D02*
X2706729Y-12571150D01*
X2706729Y-12571150D02*
X2725777Y-12580674D01*
X2725777Y-12580674D02*
X2735301Y-12599722D01*
X2735301Y-12599722D02*
X2735301Y-12704484D01*
X2735301Y-12599722D02*
X2744825Y-12580674D01*
X2744825Y-12580674D02*
X2763872Y-12571150D01*
X2763872Y-12571150D02*
X2792444Y-12571150D01*
X2792444Y-12571150D02*
X2811491Y-12580674D01*
X2811491Y-12580674D02*
X2821015Y-12599722D01*
X2821015Y-12599722D02*
X2821015Y-12704484D01*
X3211491Y-12494960D02*
X3040063Y-12752103D01*
X3468634Y-12504484D02*
X3487682Y-12504484D01*
X3487682Y-12504484D02*
X3506729Y-12514008D01*
X3506729Y-12514008D02*
X3516253Y-12523531D01*
X3516253Y-12523531D02*
X3525777Y-12542579D01*
X3525777Y-12542579D02*
X3535301Y-12580674D01*
X3535301Y-12580674D02*
X3535301Y-12628293D01*
X3535301Y-12628293D02*
X3525777Y-12666388D01*
X3525777Y-12666388D02*
X3516253Y-12685436D01*
X3516253Y-12685436D02*
X3506729Y-12694960D01*
X3506729Y-12694960D02*
X3487682Y-12704484D01*
X3487682Y-12704484D02*
X3468634Y-12704484D01*
X3468634Y-12704484D02*
X3449586Y-12694960D01*
X3449586Y-12694960D02*
X3440063Y-12685436D01*
X3440063Y-12685436D02*
X3430539Y-12666388D01*
X3430539Y-12666388D02*
X3421015Y-12628293D01*
X3421015Y-12628293D02*
X3421015Y-12580674D01*
X3421015Y-12580674D02*
X3430539Y-12542579D01*
X3430539Y-12542579D02*
X3440063Y-12523531D01*
X3440063Y-12523531D02*
X3449586Y-12514008D01*
X3449586Y-12514008D02*
X3468634Y-12504484D01*
X3621015Y-12685436D02*
X3630539Y-12694960D01*
X3630539Y-12694960D02*
X3621015Y-12704484D01*
X3621015Y-12704484D02*
X3611491Y-12694960D01*
X3611491Y-12694960D02*
X3621015Y-12685436D01*
X3621015Y-12685436D02*
X3621015Y-12704484D01*
X3754348Y-12504484D02*
X3773396Y-12504484D01*
X3773396Y-12504484D02*
X3792444Y-12514008D01*
X3792444Y-12514008D02*
X3801967Y-12523531D01*
X3801967Y-12523531D02*
X3811491Y-12542579D01*
X3811491Y-12542579D02*
X3821015Y-12580674D01*
X3821015Y-12580674D02*
X3821015Y-12628293D01*
X3821015Y-12628293D02*
X3811491Y-12666388D01*
X3811491Y-12666388D02*
X3801967Y-12685436D01*
X3801967Y-12685436D02*
X3792444Y-12694960D01*
X3792444Y-12694960D02*
X3773396Y-12704484D01*
X3773396Y-12704484D02*
X3754348Y-12704484D01*
X3754348Y-12704484D02*
X3735301Y-12694960D01*
X3735301Y-12694960D02*
X3725777Y-12685436D01*
X3725777Y-12685436D02*
X3716253Y-12666388D01*
X3716253Y-12666388D02*
X3706729Y-12628293D01*
X3706729Y-12628293D02*
X3706729Y-12580674D01*
X3706729Y-12580674D02*
X3716253Y-12542579D01*
X3716253Y-12542579D02*
X3725777Y-12523531D01*
X3725777Y-12523531D02*
X3735301Y-12514008D01*
X3735301Y-12514008D02*
X3754348Y-12504484D01*
X3887682Y-12504484D02*
X4011491Y-12504484D01*
X4011491Y-12504484D02*
X3944825Y-12580674D01*
X3944825Y-12580674D02*
X3973396Y-12580674D01*
X3973396Y-12580674D02*
X3992444Y-12590198D01*
X3992444Y-12590198D02*
X4001967Y-12599722D01*
X4001967Y-12599722D02*
X4011491Y-12618769D01*
X4011491Y-12618769D02*
X4011491Y-12666388D01*
X4011491Y-12666388D02*
X4001967Y-12685436D01*
X4001967Y-12685436D02*
X3992444Y-12694960D01*
X3992444Y-12694960D02*
X3973396Y-12704484D01*
X3973396Y-12704484D02*
X3916253Y-12704484D01*
X3916253Y-12704484D02*
X3897206Y-12694960D01*
X3897206Y-12694960D02*
X3887682Y-12685436D01*
X4078158Y-12504484D02*
X4211491Y-12504484D01*
X4211491Y-12504484D02*
X4125777Y-12704484D01*
X4373396Y-12571150D02*
X4373396Y-12704484D01*
X4325777Y-12494960D02*
X4278158Y-12637817D01*
X4278158Y-12637817D02*
X4401968Y-12637817D01*
X4468634Y-12504484D02*
X4468634Y-12542579D01*
X4544825Y-12504484D02*
X4544825Y-12542579D01*
X4840063Y-12780674D02*
X4830539Y-12771150D01*
X4830539Y-12771150D02*
X4811491Y-12742579D01*
X4811491Y-12742579D02*
X4801968Y-12723531D01*
X4801968Y-12723531D02*
X4792444Y-12694960D01*
X4792444Y-12694960D02*
X4782920Y-12647341D01*
X4782920Y-12647341D02*
X4782920Y-12609246D01*
X4782920Y-12609246D02*
X4792444Y-12561627D01*
X4792444Y-12561627D02*
X4801968Y-12533055D01*
X4801968Y-12533055D02*
X4811491Y-12514008D01*
X4811491Y-12514008D02*
X4830539Y-12485436D01*
X4830539Y-12485436D02*
X4840063Y-12475912D01*
X5021015Y-12704484D02*
X4906730Y-12704484D01*
X4963872Y-12704484D02*
X4963872Y-12504484D01*
X4963872Y-12504484D02*
X4944825Y-12533055D01*
X4944825Y-12533055D02*
X4925777Y-12552103D01*
X4925777Y-12552103D02*
X4906730Y-12561627D01*
X5097206Y-12523531D02*
X5106730Y-12514008D01*
X5106730Y-12514008D02*
X5125777Y-12504484D01*
X5125777Y-12504484D02*
X5173396Y-12504484D01*
X5173396Y-12504484D02*
X5192444Y-12514008D01*
X5192444Y-12514008D02*
X5201968Y-12523531D01*
X5201968Y-12523531D02*
X5211491Y-12542579D01*
X5211491Y-12542579D02*
X5211491Y-12561627D01*
X5211491Y-12561627D02*
X5201968Y-12590198D01*
X5201968Y-12590198D02*
X5087682Y-12704484D01*
X5087682Y-12704484D02*
X5211491Y-12704484D01*
X5449587Y-12704484D02*
X5449587Y-12504484D01*
X5535301Y-12704484D02*
X5535301Y-12599722D01*
X5535301Y-12599722D02*
X5525777Y-12580674D01*
X5525777Y-12580674D02*
X5506730Y-12571150D01*
X5506730Y-12571150D02*
X5478158Y-12571150D01*
X5478158Y-12571150D02*
X5459111Y-12580674D01*
X5459111Y-12580674D02*
X5449587Y-12590198D01*
X5659110Y-12704484D02*
X5640063Y-12694960D01*
X5640063Y-12694960D02*
X5630539Y-12685436D01*
X5630539Y-12685436D02*
X5621015Y-12666388D01*
X5621015Y-12666388D02*
X5621015Y-12609246D01*
X5621015Y-12609246D02*
X5630539Y-12590198D01*
X5630539Y-12590198D02*
X5640063Y-12580674D01*
X5640063Y-12580674D02*
X5659110Y-12571150D01*
X5659110Y-12571150D02*
X5687682Y-12571150D01*
X5687682Y-12571150D02*
X5706730Y-12580674D01*
X5706730Y-12580674D02*
X5716253Y-12590198D01*
X5716253Y-12590198D02*
X5725777Y-12609246D01*
X5725777Y-12609246D02*
X5725777Y-12666388D01*
X5725777Y-12666388D02*
X5716253Y-12685436D01*
X5716253Y-12685436D02*
X5706730Y-12694960D01*
X5706730Y-12694960D02*
X5687682Y-12704484D01*
X5687682Y-12704484D02*
X5659110Y-12704484D01*
X5840063Y-12704484D02*
X5821015Y-12694960D01*
X5821015Y-12694960D02*
X5811491Y-12675912D01*
X5811491Y-12675912D02*
X5811491Y-12504484D01*
X5992444Y-12694960D02*
X5973396Y-12704484D01*
X5973396Y-12704484D02*
X5935301Y-12704484D01*
X5935301Y-12704484D02*
X5916253Y-12694960D01*
X5916253Y-12694960D02*
X5906730Y-12675912D01*
X5906730Y-12675912D02*
X5906730Y-12599722D01*
X5906730Y-12599722D02*
X5916253Y-12580674D01*
X5916253Y-12580674D02*
X5935301Y-12571150D01*
X5935301Y-12571150D02*
X5973396Y-12571150D01*
X5973396Y-12571150D02*
X5992444Y-12580674D01*
X5992444Y-12580674D02*
X6001968Y-12599722D01*
X6001968Y-12599722D02*
X6001968Y-12618769D01*
X6001968Y-12618769D02*
X5906730Y-12637817D01*
X6078158Y-12694960D02*
X6097206Y-12704484D01*
X6097206Y-12704484D02*
X6135301Y-12704484D01*
X6135301Y-12704484D02*
X6154349Y-12694960D01*
X6154349Y-12694960D02*
X6163872Y-12675912D01*
X6163872Y-12675912D02*
X6163872Y-12666388D01*
X6163872Y-12666388D02*
X6154349Y-12647341D01*
X6154349Y-12647341D02*
X6135301Y-12637817D01*
X6135301Y-12637817D02*
X6106730Y-12637817D01*
X6106730Y-12637817D02*
X6087682Y-12628293D01*
X6087682Y-12628293D02*
X6078158Y-12609246D01*
X6078158Y-12609246D02*
X6078158Y-12599722D01*
X6078158Y-12599722D02*
X6087682Y-12580674D01*
X6087682Y-12580674D02*
X6106730Y-12571150D01*
X6106730Y-12571150D02*
X6135301Y-12571150D01*
X6135301Y-12571150D02*
X6154349Y-12580674D01*
X6230539Y-12780674D02*
X6240063Y-12771150D01*
X6240063Y-12771150D02*
X6259111Y-12742579D01*
X6259111Y-12742579D02*
X6268634Y-12723531D01*
X6268634Y-12723531D02*
X6278158Y-12694960D01*
X6278158Y-12694960D02*
X6287682Y-12647341D01*
X6287682Y-12647341D02*
X6287682Y-12609246D01*
X6287682Y-12609246D02*
X6278158Y-12561627D01*
X6278158Y-12561627D02*
X6268634Y-12533055D01*
X6268634Y-12533055D02*
X6259111Y-12514008D01*
X6259111Y-12514008D02*
X6240063Y-12485436D01*
X6240063Y-12485436D02*
X6230539Y-12475912D01*
D10*
X1215000Y-12927000D02*
X1265000Y-12877000D01*
X1215000Y-12827000D01*
X1165000Y-12877000D01*
X1215000Y-12927000D01*
D11*
X1630539Y-12968484D02*
X1516253Y-12968484D01*
X1573396Y-12968484D02*
X1573396Y-12768484D01*
X1573396Y-12768484D02*
X1554348Y-12797055D01*
X1554348Y-12797055D02*
X1535301Y-12816103D01*
X1535301Y-12816103D02*
X1516253Y-12825627D01*
X1716253Y-12949436D02*
X1725777Y-12958960D01*
X1725777Y-12958960D02*
X1716253Y-12968484D01*
X1716253Y-12968484D02*
X1706729Y-12958960D01*
X1706729Y-12958960D02*
X1716253Y-12949436D01*
X1716253Y-12949436D02*
X1716253Y-12968484D01*
X1849586Y-12768484D02*
X1868634Y-12768484D01*
X1868634Y-12768484D02*
X1887682Y-12778008D01*
X1887682Y-12778008D02*
X1897205Y-12787531D01*
X1897205Y-12787531D02*
X1906729Y-12806579D01*
X1906729Y-12806579D02*
X1916253Y-12844674D01*
X1916253Y-12844674D02*
X1916253Y-12892293D01*
X1916253Y-12892293D02*
X1906729Y-12930388D01*
X1906729Y-12930388D02*
X1897205Y-12949436D01*
X1897205Y-12949436D02*
X1887682Y-12958960D01*
X1887682Y-12958960D02*
X1868634Y-12968484D01*
X1868634Y-12968484D02*
X1849586Y-12968484D01*
X1849586Y-12968484D02*
X1830539Y-12958960D01*
X1830539Y-12958960D02*
X1821015Y-12949436D01*
X1821015Y-12949436D02*
X1811491Y-12930388D01*
X1811491Y-12930388D02*
X1801967Y-12892293D01*
X1801967Y-12892293D02*
X1801967Y-12844674D01*
X1801967Y-12844674D02*
X1811491Y-12806579D01*
X1811491Y-12806579D02*
X1821015Y-12787531D01*
X1821015Y-12787531D02*
X1830539Y-12778008D01*
X1830539Y-12778008D02*
X1849586Y-12768484D01*
X2040062Y-12768484D02*
X2059110Y-12768484D01*
X2059110Y-12768484D02*
X2078158Y-12778008D01*
X2078158Y-12778008D02*
X2087682Y-12787531D01*
X2087682Y-12787531D02*
X2097205Y-12806579D01*
X2097205Y-12806579D02*
X2106729Y-12844674D01*
X2106729Y-12844674D02*
X2106729Y-12892293D01*
X2106729Y-12892293D02*
X2097205Y-12930388D01*
X2097205Y-12930388D02*
X2087682Y-12949436D01*
X2087682Y-12949436D02*
X2078158Y-12958960D01*
X2078158Y-12958960D02*
X2059110Y-12968484D01*
X2059110Y-12968484D02*
X2040062Y-12968484D01*
X2040062Y-12968484D02*
X2021015Y-12958960D01*
X2021015Y-12958960D02*
X2011491Y-12949436D01*
X2011491Y-12949436D02*
X2001967Y-12930388D01*
X2001967Y-12930388D02*
X1992443Y-12892293D01*
X1992443Y-12892293D02*
X1992443Y-12844674D01*
X1992443Y-12844674D02*
X2001967Y-12806579D01*
X2001967Y-12806579D02*
X2011491Y-12787531D01*
X2011491Y-12787531D02*
X2021015Y-12778008D01*
X2021015Y-12778008D02*
X2040062Y-12768484D01*
X2230539Y-12768484D02*
X2249586Y-12768484D01*
X2249586Y-12768484D02*
X2268634Y-12778008D01*
X2268634Y-12778008D02*
X2278158Y-12787531D01*
X2278158Y-12787531D02*
X2287682Y-12806579D01*
X2287682Y-12806579D02*
X2297205Y-12844674D01*
X2297205Y-12844674D02*
X2297205Y-12892293D01*
X2297205Y-12892293D02*
X2287682Y-12930388D01*
X2287682Y-12930388D02*
X2278158Y-12949436D01*
X2278158Y-12949436D02*
X2268634Y-12958960D01*
X2268634Y-12958960D02*
X2249586Y-12968484D01*
X2249586Y-12968484D02*
X2230539Y-12968484D01*
X2230539Y-12968484D02*
X2211491Y-12958960D01*
X2211491Y-12958960D02*
X2201967Y-12949436D01*
X2201967Y-12949436D02*
X2192444Y-12930388D01*
X2192444Y-12930388D02*
X2182920Y-12892293D01*
X2182920Y-12892293D02*
X2182920Y-12844674D01*
X2182920Y-12844674D02*
X2192444Y-12806579D01*
X2192444Y-12806579D02*
X2201967Y-12787531D01*
X2201967Y-12787531D02*
X2211491Y-12778008D01*
X2211491Y-12778008D02*
X2230539Y-12768484D01*
X2382920Y-12968484D02*
X2382920Y-12835150D01*
X2382920Y-12854198D02*
X2392444Y-12844674D01*
X2392444Y-12844674D02*
X2411491Y-12835150D01*
X2411491Y-12835150D02*
X2440063Y-12835150D01*
X2440063Y-12835150D02*
X2459110Y-12844674D01*
X2459110Y-12844674D02*
X2468634Y-12863722D01*
X2468634Y-12863722D02*
X2468634Y-12968484D01*
X2468634Y-12863722D02*
X2478158Y-12844674D01*
X2478158Y-12844674D02*
X2497205Y-12835150D01*
X2497205Y-12835150D02*
X2525777Y-12835150D01*
X2525777Y-12835150D02*
X2544825Y-12844674D01*
X2544825Y-12844674D02*
X2554348Y-12863722D01*
X2554348Y-12863722D02*
X2554348Y-12968484D01*
X2649586Y-12968484D02*
X2649586Y-12835150D01*
X2649586Y-12854198D02*
X2659110Y-12844674D01*
X2659110Y-12844674D02*
X2678158Y-12835150D01*
X2678158Y-12835150D02*
X2706729Y-12835150D01*
X2706729Y-12835150D02*
X2725777Y-12844674D01*
X2725777Y-12844674D02*
X2735301Y-12863722D01*
X2735301Y-12863722D02*
X2735301Y-12968484D01*
X2735301Y-12863722D02*
X2744825Y-12844674D01*
X2744825Y-12844674D02*
X2763872Y-12835150D01*
X2763872Y-12835150D02*
X2792444Y-12835150D01*
X2792444Y-12835150D02*
X2811491Y-12844674D01*
X2811491Y-12844674D02*
X2821015Y-12863722D01*
X2821015Y-12863722D02*
X2821015Y-12968484D01*
X3211491Y-12758960D02*
X3040063Y-13016103D01*
X3468634Y-12768484D02*
X3487682Y-12768484D01*
X3487682Y-12768484D02*
X3506729Y-12778008D01*
X3506729Y-12778008D02*
X3516253Y-12787531D01*
X3516253Y-12787531D02*
X3525777Y-12806579D01*
X3525777Y-12806579D02*
X3535301Y-12844674D01*
X3535301Y-12844674D02*
X3535301Y-12892293D01*
X3535301Y-12892293D02*
X3525777Y-12930388D01*
X3525777Y-12930388D02*
X3516253Y-12949436D01*
X3516253Y-12949436D02*
X3506729Y-12958960D01*
X3506729Y-12958960D02*
X3487682Y-12968484D01*
X3487682Y-12968484D02*
X3468634Y-12968484D01*
X3468634Y-12968484D02*
X3449586Y-12958960D01*
X3449586Y-12958960D02*
X3440063Y-12949436D01*
X3440063Y-12949436D02*
X3430539Y-12930388D01*
X3430539Y-12930388D02*
X3421015Y-12892293D01*
X3421015Y-12892293D02*
X3421015Y-12844674D01*
X3421015Y-12844674D02*
X3430539Y-12806579D01*
X3430539Y-12806579D02*
X3440063Y-12787531D01*
X3440063Y-12787531D02*
X3449586Y-12778008D01*
X3449586Y-12778008D02*
X3468634Y-12768484D01*
X3621015Y-12949436D02*
X3630539Y-12958960D01*
X3630539Y-12958960D02*
X3621015Y-12968484D01*
X3621015Y-12968484D02*
X3611491Y-12958960D01*
X3611491Y-12958960D02*
X3621015Y-12949436D01*
X3621015Y-12949436D02*
X3621015Y-12968484D01*
X3754348Y-12768484D02*
X3773396Y-12768484D01*
X3773396Y-12768484D02*
X3792444Y-12778008D01*
X3792444Y-12778008D02*
X3801967Y-12787531D01*
X3801967Y-12787531D02*
X3811491Y-12806579D01*
X3811491Y-12806579D02*
X3821015Y-12844674D01*
X3821015Y-12844674D02*
X3821015Y-12892293D01*
X3821015Y-12892293D02*
X3811491Y-12930388D01*
X3811491Y-12930388D02*
X3801967Y-12949436D01*
X3801967Y-12949436D02*
X3792444Y-12958960D01*
X3792444Y-12958960D02*
X3773396Y-12968484D01*
X3773396Y-12968484D02*
X3754348Y-12968484D01*
X3754348Y-12968484D02*
X3735301Y-12958960D01*
X3735301Y-12958960D02*
X3725777Y-12949436D01*
X3725777Y-12949436D02*
X3716253Y-12930388D01*
X3716253Y-12930388D02*
X3706729Y-12892293D01*
X3706729Y-12892293D02*
X3706729Y-12844674D01*
X3706729Y-12844674D02*
X3716253Y-12806579D01*
X3716253Y-12806579D02*
X3725777Y-12787531D01*
X3725777Y-12787531D02*
X3735301Y-12778008D01*
X3735301Y-12778008D02*
X3754348Y-12768484D01*
X3887682Y-12768484D02*
X4011491Y-12768484D01*
X4011491Y-12768484D02*
X3944825Y-12844674D01*
X3944825Y-12844674D02*
X3973396Y-12844674D01*
X3973396Y-12844674D02*
X3992444Y-12854198D01*
X3992444Y-12854198D02*
X4001967Y-12863722D01*
X4001967Y-12863722D02*
X4011491Y-12882769D01*
X4011491Y-12882769D02*
X4011491Y-12930388D01*
X4011491Y-12930388D02*
X4001967Y-12949436D01*
X4001967Y-12949436D02*
X3992444Y-12958960D01*
X3992444Y-12958960D02*
X3973396Y-12968484D01*
X3973396Y-12968484D02*
X3916253Y-12968484D01*
X3916253Y-12968484D02*
X3897206Y-12958960D01*
X3897206Y-12958960D02*
X3887682Y-12949436D01*
X4106729Y-12968484D02*
X4144825Y-12968484D01*
X4144825Y-12968484D02*
X4163872Y-12958960D01*
X4163872Y-12958960D02*
X4173396Y-12949436D01*
X4173396Y-12949436D02*
X4192444Y-12920865D01*
X4192444Y-12920865D02*
X4201968Y-12882769D01*
X4201968Y-12882769D02*
X4201968Y-12806579D01*
X4201968Y-12806579D02*
X4192444Y-12787531D01*
X4192444Y-12787531D02*
X4182920Y-12778008D01*
X4182920Y-12778008D02*
X4163872Y-12768484D01*
X4163872Y-12768484D02*
X4125777Y-12768484D01*
X4125777Y-12768484D02*
X4106729Y-12778008D01*
X4106729Y-12778008D02*
X4097206Y-12787531D01*
X4097206Y-12787531D02*
X4087682Y-12806579D01*
X4087682Y-12806579D02*
X4087682Y-12854198D01*
X4087682Y-12854198D02*
X4097206Y-12873246D01*
X4097206Y-12873246D02*
X4106729Y-12882769D01*
X4106729Y-12882769D02*
X4125777Y-12892293D01*
X4125777Y-12892293D02*
X4163872Y-12892293D01*
X4163872Y-12892293D02*
X4182920Y-12882769D01*
X4182920Y-12882769D02*
X4192444Y-12873246D01*
X4192444Y-12873246D02*
X4201968Y-12854198D01*
X4373396Y-12835150D02*
X4373396Y-12968484D01*
X4325777Y-12758960D02*
X4278158Y-12901817D01*
X4278158Y-12901817D02*
X4401968Y-12901817D01*
X4468634Y-12768484D02*
X4468634Y-12806579D01*
X4544825Y-12768484D02*
X4544825Y-12806579D01*
X4840063Y-13044674D02*
X4830539Y-13035150D01*
X4830539Y-13035150D02*
X4811491Y-13006579D01*
X4811491Y-13006579D02*
X4801968Y-12987531D01*
X4801968Y-12987531D02*
X4792444Y-12958960D01*
X4792444Y-12958960D02*
X4782920Y-12911341D01*
X4782920Y-12911341D02*
X4782920Y-12873246D01*
X4782920Y-12873246D02*
X4792444Y-12825627D01*
X4792444Y-12825627D02*
X4801968Y-12797055D01*
X4801968Y-12797055D02*
X4811491Y-12778008D01*
X4811491Y-12778008D02*
X4830539Y-12749436D01*
X4830539Y-12749436D02*
X4840063Y-12739912D01*
X5021015Y-12968484D02*
X4906730Y-12968484D01*
X4963872Y-12968484D02*
X4963872Y-12768484D01*
X4963872Y-12768484D02*
X4944825Y-12797055D01*
X4944825Y-12797055D02*
X4925777Y-12816103D01*
X4925777Y-12816103D02*
X4906730Y-12825627D01*
X5144825Y-12768484D02*
X5163872Y-12768484D01*
X5163872Y-12768484D02*
X5182920Y-12778008D01*
X5182920Y-12778008D02*
X5192444Y-12787531D01*
X5192444Y-12787531D02*
X5201968Y-12806579D01*
X5201968Y-12806579D02*
X5211491Y-12844674D01*
X5211491Y-12844674D02*
X5211491Y-12892293D01*
X5211491Y-12892293D02*
X5201968Y-12930388D01*
X5201968Y-12930388D02*
X5192444Y-12949436D01*
X5192444Y-12949436D02*
X5182920Y-12958960D01*
X5182920Y-12958960D02*
X5163872Y-12968484D01*
X5163872Y-12968484D02*
X5144825Y-12968484D01*
X5144825Y-12968484D02*
X5125777Y-12958960D01*
X5125777Y-12958960D02*
X5116253Y-12949436D01*
X5116253Y-12949436D02*
X5106730Y-12930388D01*
X5106730Y-12930388D02*
X5097206Y-12892293D01*
X5097206Y-12892293D02*
X5097206Y-12844674D01*
X5097206Y-12844674D02*
X5106730Y-12806579D01*
X5106730Y-12806579D02*
X5116253Y-12787531D01*
X5116253Y-12787531D02*
X5125777Y-12778008D01*
X5125777Y-12778008D02*
X5144825Y-12768484D01*
X5449587Y-12968484D02*
X5449587Y-12768484D01*
X5535301Y-12968484D02*
X5535301Y-12863722D01*
X5535301Y-12863722D02*
X5525777Y-12844674D01*
X5525777Y-12844674D02*
X5506730Y-12835150D01*
X5506730Y-12835150D02*
X5478158Y-12835150D01*
X5478158Y-12835150D02*
X5459111Y-12844674D01*
X5459111Y-12844674D02*
X5449587Y-12854198D01*
X5659110Y-12968484D02*
X5640063Y-12958960D01*
X5640063Y-12958960D02*
X5630539Y-12949436D01*
X5630539Y-12949436D02*
X5621015Y-12930388D01*
X5621015Y-12930388D02*
X5621015Y-12873246D01*
X5621015Y-12873246D02*
X5630539Y-12854198D01*
X5630539Y-12854198D02*
X5640063Y-12844674D01*
X5640063Y-12844674D02*
X5659110Y-12835150D01*
X5659110Y-12835150D02*
X5687682Y-12835150D01*
X5687682Y-12835150D02*
X5706730Y-12844674D01*
X5706730Y-12844674D02*
X5716253Y-12854198D01*
X5716253Y-12854198D02*
X5725777Y-12873246D01*
X5725777Y-12873246D02*
X5725777Y-12930388D01*
X5725777Y-12930388D02*
X5716253Y-12949436D01*
X5716253Y-12949436D02*
X5706730Y-12958960D01*
X5706730Y-12958960D02*
X5687682Y-12968484D01*
X5687682Y-12968484D02*
X5659110Y-12968484D01*
X5840063Y-12968484D02*
X5821015Y-12958960D01*
X5821015Y-12958960D02*
X5811491Y-12939912D01*
X5811491Y-12939912D02*
X5811491Y-12768484D01*
X5992444Y-12958960D02*
X5973396Y-12968484D01*
X5973396Y-12968484D02*
X5935301Y-12968484D01*
X5935301Y-12968484D02*
X5916253Y-12958960D01*
X5916253Y-12958960D02*
X5906730Y-12939912D01*
X5906730Y-12939912D02*
X5906730Y-12863722D01*
X5906730Y-12863722D02*
X5916253Y-12844674D01*
X5916253Y-12844674D02*
X5935301Y-12835150D01*
X5935301Y-12835150D02*
X5973396Y-12835150D01*
X5973396Y-12835150D02*
X5992444Y-12844674D01*
X5992444Y-12844674D02*
X6001968Y-12863722D01*
X6001968Y-12863722D02*
X6001968Y-12882769D01*
X6001968Y-12882769D02*
X5906730Y-12901817D01*
X6078158Y-12958960D02*
X6097206Y-12968484D01*
X6097206Y-12968484D02*
X6135301Y-12968484D01*
X6135301Y-12968484D02*
X6154349Y-12958960D01*
X6154349Y-12958960D02*
X6163872Y-12939912D01*
X6163872Y-12939912D02*
X6163872Y-12930388D01*
X6163872Y-12930388D02*
X6154349Y-12911341D01*
X6154349Y-12911341D02*
X6135301Y-12901817D01*
X6135301Y-12901817D02*
X6106730Y-12901817D01*
X6106730Y-12901817D02*
X6087682Y-12892293D01*
X6087682Y-12892293D02*
X6078158Y-12873246D01*
X6078158Y-12873246D02*
X6078158Y-12863722D01*
X6078158Y-12863722D02*
X6087682Y-12844674D01*
X6087682Y-12844674D02*
X6106730Y-12835150D01*
X6106730Y-12835150D02*
X6135301Y-12835150D01*
X6135301Y-12835150D02*
X6154349Y-12844674D01*
X6230539Y-13044674D02*
X6240063Y-13035150D01*
X6240063Y-13035150D02*
X6259111Y-13006579D01*
X6259111Y-13006579D02*
X6268634Y-12987531D01*
X6268634Y-12987531D02*
X6278158Y-12958960D01*
X6278158Y-12958960D02*
X6287682Y-12911341D01*
X6287682Y-12911341D02*
X6287682Y-12873246D01*
X6287682Y-12873246D02*
X6278158Y-12825627D01*
X6278158Y-12825627D02*
X6268634Y-12797055D01*
X6268634Y-12797055D02*
X6259111Y-12778008D01*
X6259111Y-12778008D02*
X6240063Y-12749436D01*
X6240063Y-12749436D02*
X6230539Y-12739912D01*
D10*
X1165000Y-13091000D02*
X1265000Y-13191000D01*
X1265000Y-13091000D02*
X1165000Y-13191000D01*
X1265000Y-13141000D02*
G75*
G02*
X1165000Y-13141000I-50000J0D01*
G01*
X1165000Y-13141000D02*
G75*
G02*
X1265000Y-13141000I50000J0D01*
G01*
D11*
X1630539Y-13232484D02*
X1516253Y-13232484D01*
X1573396Y-13232484D02*
X1573396Y-13032484D01*
X1573396Y-13032484D02*
X1554348Y-13061055D01*
X1554348Y-13061055D02*
X1535301Y-13080103D01*
X1535301Y-13080103D02*
X1516253Y-13089627D01*
X1716253Y-13213436D02*
X1725777Y-13222960D01*
X1725777Y-13222960D02*
X1716253Y-13232484D01*
X1716253Y-13232484D02*
X1706729Y-13222960D01*
X1706729Y-13222960D02*
X1716253Y-13213436D01*
X1716253Y-13213436D02*
X1716253Y-13232484D01*
X1849586Y-13032484D02*
X1868634Y-13032484D01*
X1868634Y-13032484D02*
X1887682Y-13042008D01*
X1887682Y-13042008D02*
X1897205Y-13051531D01*
X1897205Y-13051531D02*
X1906729Y-13070579D01*
X1906729Y-13070579D02*
X1916253Y-13108674D01*
X1916253Y-13108674D02*
X1916253Y-13156293D01*
X1916253Y-13156293D02*
X1906729Y-13194388D01*
X1906729Y-13194388D02*
X1897205Y-13213436D01*
X1897205Y-13213436D02*
X1887682Y-13222960D01*
X1887682Y-13222960D02*
X1868634Y-13232484D01*
X1868634Y-13232484D02*
X1849586Y-13232484D01*
X1849586Y-13232484D02*
X1830539Y-13222960D01*
X1830539Y-13222960D02*
X1821015Y-13213436D01*
X1821015Y-13213436D02*
X1811491Y-13194388D01*
X1811491Y-13194388D02*
X1801967Y-13156293D01*
X1801967Y-13156293D02*
X1801967Y-13108674D01*
X1801967Y-13108674D02*
X1811491Y-13070579D01*
X1811491Y-13070579D02*
X1821015Y-13051531D01*
X1821015Y-13051531D02*
X1830539Y-13042008D01*
X1830539Y-13042008D02*
X1849586Y-13032484D01*
X2040062Y-13032484D02*
X2059110Y-13032484D01*
X2059110Y-13032484D02*
X2078158Y-13042008D01*
X2078158Y-13042008D02*
X2087682Y-13051531D01*
X2087682Y-13051531D02*
X2097205Y-13070579D01*
X2097205Y-13070579D02*
X2106729Y-13108674D01*
X2106729Y-13108674D02*
X2106729Y-13156293D01*
X2106729Y-13156293D02*
X2097205Y-13194388D01*
X2097205Y-13194388D02*
X2087682Y-13213436D01*
X2087682Y-13213436D02*
X2078158Y-13222960D01*
X2078158Y-13222960D02*
X2059110Y-13232484D01*
X2059110Y-13232484D02*
X2040062Y-13232484D01*
X2040062Y-13232484D02*
X2021015Y-13222960D01*
X2021015Y-13222960D02*
X2011491Y-13213436D01*
X2011491Y-13213436D02*
X2001967Y-13194388D01*
X2001967Y-13194388D02*
X1992443Y-13156293D01*
X1992443Y-13156293D02*
X1992443Y-13108674D01*
X1992443Y-13108674D02*
X2001967Y-13070579D01*
X2001967Y-13070579D02*
X2011491Y-13051531D01*
X2011491Y-13051531D02*
X2021015Y-13042008D01*
X2021015Y-13042008D02*
X2040062Y-13032484D01*
X2230539Y-13032484D02*
X2249586Y-13032484D01*
X2249586Y-13032484D02*
X2268634Y-13042008D01*
X2268634Y-13042008D02*
X2278158Y-13051531D01*
X2278158Y-13051531D02*
X2287682Y-13070579D01*
X2287682Y-13070579D02*
X2297205Y-13108674D01*
X2297205Y-13108674D02*
X2297205Y-13156293D01*
X2297205Y-13156293D02*
X2287682Y-13194388D01*
X2287682Y-13194388D02*
X2278158Y-13213436D01*
X2278158Y-13213436D02*
X2268634Y-13222960D01*
X2268634Y-13222960D02*
X2249586Y-13232484D01*
X2249586Y-13232484D02*
X2230539Y-13232484D01*
X2230539Y-13232484D02*
X2211491Y-13222960D01*
X2211491Y-13222960D02*
X2201967Y-13213436D01*
X2201967Y-13213436D02*
X2192444Y-13194388D01*
X2192444Y-13194388D02*
X2182920Y-13156293D01*
X2182920Y-13156293D02*
X2182920Y-13108674D01*
X2182920Y-13108674D02*
X2192444Y-13070579D01*
X2192444Y-13070579D02*
X2201967Y-13051531D01*
X2201967Y-13051531D02*
X2211491Y-13042008D01*
X2211491Y-13042008D02*
X2230539Y-13032484D01*
X2382920Y-13232484D02*
X2382920Y-13099150D01*
X2382920Y-13118198D02*
X2392444Y-13108674D01*
X2392444Y-13108674D02*
X2411491Y-13099150D01*
X2411491Y-13099150D02*
X2440063Y-13099150D01*
X2440063Y-13099150D02*
X2459110Y-13108674D01*
X2459110Y-13108674D02*
X2468634Y-13127722D01*
X2468634Y-13127722D02*
X2468634Y-13232484D01*
X2468634Y-13127722D02*
X2478158Y-13108674D01*
X2478158Y-13108674D02*
X2497205Y-13099150D01*
X2497205Y-13099150D02*
X2525777Y-13099150D01*
X2525777Y-13099150D02*
X2544825Y-13108674D01*
X2544825Y-13108674D02*
X2554348Y-13127722D01*
X2554348Y-13127722D02*
X2554348Y-13232484D01*
X2649586Y-13232484D02*
X2649586Y-13099150D01*
X2649586Y-13118198D02*
X2659110Y-13108674D01*
X2659110Y-13108674D02*
X2678158Y-13099150D01*
X2678158Y-13099150D02*
X2706729Y-13099150D01*
X2706729Y-13099150D02*
X2725777Y-13108674D01*
X2725777Y-13108674D02*
X2735301Y-13127722D01*
X2735301Y-13127722D02*
X2735301Y-13232484D01*
X2735301Y-13127722D02*
X2744825Y-13108674D01*
X2744825Y-13108674D02*
X2763872Y-13099150D01*
X2763872Y-13099150D02*
X2792444Y-13099150D01*
X2792444Y-13099150D02*
X2811491Y-13108674D01*
X2811491Y-13108674D02*
X2821015Y-13127722D01*
X2821015Y-13127722D02*
X2821015Y-13232484D01*
X3211491Y-13022960D02*
X3040063Y-13280103D01*
X3468634Y-13032484D02*
X3487682Y-13032484D01*
X3487682Y-13032484D02*
X3506729Y-13042008D01*
X3506729Y-13042008D02*
X3516253Y-13051531D01*
X3516253Y-13051531D02*
X3525777Y-13070579D01*
X3525777Y-13070579D02*
X3535301Y-13108674D01*
X3535301Y-13108674D02*
X3535301Y-13156293D01*
X3535301Y-13156293D02*
X3525777Y-13194388D01*
X3525777Y-13194388D02*
X3516253Y-13213436D01*
X3516253Y-13213436D02*
X3506729Y-13222960D01*
X3506729Y-13222960D02*
X3487682Y-13232484D01*
X3487682Y-13232484D02*
X3468634Y-13232484D01*
X3468634Y-13232484D02*
X3449586Y-13222960D01*
X3449586Y-13222960D02*
X3440063Y-13213436D01*
X3440063Y-13213436D02*
X3430539Y-13194388D01*
X3430539Y-13194388D02*
X3421015Y-13156293D01*
X3421015Y-13156293D02*
X3421015Y-13108674D01*
X3421015Y-13108674D02*
X3430539Y-13070579D01*
X3430539Y-13070579D02*
X3440063Y-13051531D01*
X3440063Y-13051531D02*
X3449586Y-13042008D01*
X3449586Y-13042008D02*
X3468634Y-13032484D01*
X3621015Y-13213436D02*
X3630539Y-13222960D01*
X3630539Y-13222960D02*
X3621015Y-13232484D01*
X3621015Y-13232484D02*
X3611491Y-13222960D01*
X3611491Y-13222960D02*
X3621015Y-13213436D01*
X3621015Y-13213436D02*
X3621015Y-13232484D01*
X3754348Y-13032484D02*
X3773396Y-13032484D01*
X3773396Y-13032484D02*
X3792444Y-13042008D01*
X3792444Y-13042008D02*
X3801967Y-13051531D01*
X3801967Y-13051531D02*
X3811491Y-13070579D01*
X3811491Y-13070579D02*
X3821015Y-13108674D01*
X3821015Y-13108674D02*
X3821015Y-13156293D01*
X3821015Y-13156293D02*
X3811491Y-13194388D01*
X3811491Y-13194388D02*
X3801967Y-13213436D01*
X3801967Y-13213436D02*
X3792444Y-13222960D01*
X3792444Y-13222960D02*
X3773396Y-13232484D01*
X3773396Y-13232484D02*
X3754348Y-13232484D01*
X3754348Y-13232484D02*
X3735301Y-13222960D01*
X3735301Y-13222960D02*
X3725777Y-13213436D01*
X3725777Y-13213436D02*
X3716253Y-13194388D01*
X3716253Y-13194388D02*
X3706729Y-13156293D01*
X3706729Y-13156293D02*
X3706729Y-13108674D01*
X3706729Y-13108674D02*
X3716253Y-13070579D01*
X3716253Y-13070579D02*
X3725777Y-13051531D01*
X3725777Y-13051531D02*
X3735301Y-13042008D01*
X3735301Y-13042008D02*
X3754348Y-13032484D01*
X3887682Y-13032484D02*
X4011491Y-13032484D01*
X4011491Y-13032484D02*
X3944825Y-13108674D01*
X3944825Y-13108674D02*
X3973396Y-13108674D01*
X3973396Y-13108674D02*
X3992444Y-13118198D01*
X3992444Y-13118198D02*
X4001967Y-13127722D01*
X4001967Y-13127722D02*
X4011491Y-13146769D01*
X4011491Y-13146769D02*
X4011491Y-13194388D01*
X4011491Y-13194388D02*
X4001967Y-13213436D01*
X4001967Y-13213436D02*
X3992444Y-13222960D01*
X3992444Y-13222960D02*
X3973396Y-13232484D01*
X3973396Y-13232484D02*
X3916253Y-13232484D01*
X3916253Y-13232484D02*
X3897206Y-13222960D01*
X3897206Y-13222960D02*
X3887682Y-13213436D01*
X4106729Y-13232484D02*
X4144825Y-13232484D01*
X4144825Y-13232484D02*
X4163872Y-13222960D01*
X4163872Y-13222960D02*
X4173396Y-13213436D01*
X4173396Y-13213436D02*
X4192444Y-13184865D01*
X4192444Y-13184865D02*
X4201968Y-13146769D01*
X4201968Y-13146769D02*
X4201968Y-13070579D01*
X4201968Y-13070579D02*
X4192444Y-13051531D01*
X4192444Y-13051531D02*
X4182920Y-13042008D01*
X4182920Y-13042008D02*
X4163872Y-13032484D01*
X4163872Y-13032484D02*
X4125777Y-13032484D01*
X4125777Y-13032484D02*
X4106729Y-13042008D01*
X4106729Y-13042008D02*
X4097206Y-13051531D01*
X4097206Y-13051531D02*
X4087682Y-13070579D01*
X4087682Y-13070579D02*
X4087682Y-13118198D01*
X4087682Y-13118198D02*
X4097206Y-13137246D01*
X4097206Y-13137246D02*
X4106729Y-13146769D01*
X4106729Y-13146769D02*
X4125777Y-13156293D01*
X4125777Y-13156293D02*
X4163872Y-13156293D01*
X4163872Y-13156293D02*
X4182920Y-13146769D01*
X4182920Y-13146769D02*
X4192444Y-13137246D01*
X4192444Y-13137246D02*
X4201968Y-13118198D01*
X4373396Y-13099150D02*
X4373396Y-13232484D01*
X4325777Y-13022960D02*
X4278158Y-13165817D01*
X4278158Y-13165817D02*
X4401968Y-13165817D01*
X4468634Y-13032484D02*
X4468634Y-13070579D01*
X4544825Y-13032484D02*
X4544825Y-13070579D01*
X4840063Y-13308674D02*
X4830539Y-13299150D01*
X4830539Y-13299150D02*
X4811491Y-13270579D01*
X4811491Y-13270579D02*
X4801968Y-13251531D01*
X4801968Y-13251531D02*
X4792444Y-13222960D01*
X4792444Y-13222960D02*
X4782920Y-13175341D01*
X4782920Y-13175341D02*
X4782920Y-13137246D01*
X4782920Y-13137246D02*
X4792444Y-13089627D01*
X4792444Y-13089627D02*
X4801968Y-13061055D01*
X4801968Y-13061055D02*
X4811491Y-13042008D01*
X4811491Y-13042008D02*
X4830539Y-13013436D01*
X4830539Y-13013436D02*
X4840063Y-13003912D01*
X4925777Y-13232484D02*
X4963872Y-13232484D01*
X4963872Y-13232484D02*
X4982920Y-13222960D01*
X4982920Y-13222960D02*
X4992444Y-13213436D01*
X4992444Y-13213436D02*
X5011491Y-13184865D01*
X5011491Y-13184865D02*
X5021015Y-13146769D01*
X5021015Y-13146769D02*
X5021015Y-13070579D01*
X5021015Y-13070579D02*
X5011491Y-13051531D01*
X5011491Y-13051531D02*
X5001968Y-13042008D01*
X5001968Y-13042008D02*
X4982920Y-13032484D01*
X4982920Y-13032484D02*
X4944825Y-13032484D01*
X4944825Y-13032484D02*
X4925777Y-13042008D01*
X4925777Y-13042008D02*
X4916253Y-13051531D01*
X4916253Y-13051531D02*
X4906730Y-13070579D01*
X4906730Y-13070579D02*
X4906730Y-13118198D01*
X4906730Y-13118198D02*
X4916253Y-13137246D01*
X4916253Y-13137246D02*
X4925777Y-13146769D01*
X4925777Y-13146769D02*
X4944825Y-13156293D01*
X4944825Y-13156293D02*
X4982920Y-13156293D01*
X4982920Y-13156293D02*
X5001968Y-13146769D01*
X5001968Y-13146769D02*
X5011491Y-13137246D01*
X5011491Y-13137246D02*
X5021015Y-13118198D01*
X5087682Y-13032484D02*
X5221015Y-13032484D01*
X5221015Y-13032484D02*
X5135301Y-13232484D01*
X5449587Y-13232484D02*
X5449587Y-13032484D01*
X5535301Y-13232484D02*
X5535301Y-13127722D01*
X5535301Y-13127722D02*
X5525777Y-13108674D01*
X5525777Y-13108674D02*
X5506730Y-13099150D01*
X5506730Y-13099150D02*
X5478158Y-13099150D01*
X5478158Y-13099150D02*
X5459111Y-13108674D01*
X5459111Y-13108674D02*
X5449587Y-13118198D01*
X5659110Y-13232484D02*
X5640063Y-13222960D01*
X5640063Y-13222960D02*
X5630539Y-13213436D01*
X5630539Y-13213436D02*
X5621015Y-13194388D01*
X5621015Y-13194388D02*
X5621015Y-13137246D01*
X5621015Y-13137246D02*
X5630539Y-13118198D01*
X5630539Y-13118198D02*
X5640063Y-13108674D01*
X5640063Y-13108674D02*
X5659110Y-13099150D01*
X5659110Y-13099150D02*
X5687682Y-13099150D01*
X5687682Y-13099150D02*
X5706730Y-13108674D01*
X5706730Y-13108674D02*
X5716253Y-13118198D01*
X5716253Y-13118198D02*
X5725777Y-13137246D01*
X5725777Y-13137246D02*
X5725777Y-13194388D01*
X5725777Y-13194388D02*
X5716253Y-13213436D01*
X5716253Y-13213436D02*
X5706730Y-13222960D01*
X5706730Y-13222960D02*
X5687682Y-13232484D01*
X5687682Y-13232484D02*
X5659110Y-13232484D01*
X5840063Y-13232484D02*
X5821015Y-13222960D01*
X5821015Y-13222960D02*
X5811491Y-13203912D01*
X5811491Y-13203912D02*
X5811491Y-13032484D01*
X5992444Y-13222960D02*
X5973396Y-13232484D01*
X5973396Y-13232484D02*
X5935301Y-13232484D01*
X5935301Y-13232484D02*
X5916253Y-13222960D01*
X5916253Y-13222960D02*
X5906730Y-13203912D01*
X5906730Y-13203912D02*
X5906730Y-13127722D01*
X5906730Y-13127722D02*
X5916253Y-13108674D01*
X5916253Y-13108674D02*
X5935301Y-13099150D01*
X5935301Y-13099150D02*
X5973396Y-13099150D01*
X5973396Y-13099150D02*
X5992444Y-13108674D01*
X5992444Y-13108674D02*
X6001968Y-13127722D01*
X6001968Y-13127722D02*
X6001968Y-13146769D01*
X6001968Y-13146769D02*
X5906730Y-13165817D01*
X6078158Y-13222960D02*
X6097206Y-13232484D01*
X6097206Y-13232484D02*
X6135301Y-13232484D01*
X6135301Y-13232484D02*
X6154349Y-13222960D01*
X6154349Y-13222960D02*
X6163872Y-13203912D01*
X6163872Y-13203912D02*
X6163872Y-13194388D01*
X6163872Y-13194388D02*
X6154349Y-13175341D01*
X6154349Y-13175341D02*
X6135301Y-13165817D01*
X6135301Y-13165817D02*
X6106730Y-13165817D01*
X6106730Y-13165817D02*
X6087682Y-13156293D01*
X6087682Y-13156293D02*
X6078158Y-13137246D01*
X6078158Y-13137246D02*
X6078158Y-13127722D01*
X6078158Y-13127722D02*
X6087682Y-13108674D01*
X6087682Y-13108674D02*
X6106730Y-13099150D01*
X6106730Y-13099150D02*
X6135301Y-13099150D01*
X6135301Y-13099150D02*
X6154349Y-13108674D01*
X6230539Y-13308674D02*
X6240063Y-13299150D01*
X6240063Y-13299150D02*
X6259111Y-13270579D01*
X6259111Y-13270579D02*
X6268634Y-13251531D01*
X6268634Y-13251531D02*
X6278158Y-13222960D01*
X6278158Y-13222960D02*
X6287682Y-13175341D01*
X6287682Y-13175341D02*
X6287682Y-13137246D01*
X6287682Y-13137246D02*
X6278158Y-13089627D01*
X6278158Y-13089627D02*
X6268634Y-13061055D01*
X6268634Y-13061055D02*
X6259111Y-13042008D01*
X6259111Y-13042008D02*
X6240063Y-13013436D01*
X6240063Y-13013436D02*
X6230539Y-13003912D01*
X1065000Y-13305000D02*
X1265000Y-13505000D01*
X1265000Y-13305000D02*
X1065000Y-13505000D01*
X1165000Y-13305000D02*
X1165000Y-13505000D01*
X1065000Y-13405000D02*
X1265000Y-13405000D01*
X1516253Y-13315531D02*
X1525777Y-13306008D01*
X1525777Y-13306008D02*
X1544824Y-13296484D01*
X1544824Y-13296484D02*
X1592443Y-13296484D01*
X1592443Y-13296484D02*
X1611491Y-13306008D01*
X1611491Y-13306008D02*
X1621015Y-13315531D01*
X1621015Y-13315531D02*
X1630539Y-13334579D01*
X1630539Y-13334579D02*
X1630539Y-13353627D01*
X1630539Y-13353627D02*
X1621015Y-13382198D01*
X1621015Y-13382198D02*
X1506729Y-13496484D01*
X1506729Y-13496484D02*
X1630539Y-13496484D01*
X1716253Y-13477436D02*
X1725777Y-13486960D01*
X1725777Y-13486960D02*
X1716253Y-13496484D01*
X1716253Y-13496484D02*
X1706729Y-13486960D01*
X1706729Y-13486960D02*
X1716253Y-13477436D01*
X1716253Y-13477436D02*
X1716253Y-13496484D01*
X1849586Y-13296484D02*
X1868634Y-13296484D01*
X1868634Y-13296484D02*
X1887682Y-13306008D01*
X1887682Y-13306008D02*
X1897205Y-13315531D01*
X1897205Y-13315531D02*
X1906729Y-13334579D01*
X1906729Y-13334579D02*
X1916253Y-13372674D01*
X1916253Y-13372674D02*
X1916253Y-13420293D01*
X1916253Y-13420293D02*
X1906729Y-13458388D01*
X1906729Y-13458388D02*
X1897205Y-13477436D01*
X1897205Y-13477436D02*
X1887682Y-13486960D01*
X1887682Y-13486960D02*
X1868634Y-13496484D01*
X1868634Y-13496484D02*
X1849586Y-13496484D01*
X1849586Y-13496484D02*
X1830539Y-13486960D01*
X1830539Y-13486960D02*
X1821015Y-13477436D01*
X1821015Y-13477436D02*
X1811491Y-13458388D01*
X1811491Y-13458388D02*
X1801967Y-13420293D01*
X1801967Y-13420293D02*
X1801967Y-13372674D01*
X1801967Y-13372674D02*
X1811491Y-13334579D01*
X1811491Y-13334579D02*
X1821015Y-13315531D01*
X1821015Y-13315531D02*
X1830539Y-13306008D01*
X1830539Y-13306008D02*
X1849586Y-13296484D01*
X2040062Y-13296484D02*
X2059110Y-13296484D01*
X2059110Y-13296484D02*
X2078158Y-13306008D01*
X2078158Y-13306008D02*
X2087682Y-13315531D01*
X2087682Y-13315531D02*
X2097205Y-13334579D01*
X2097205Y-13334579D02*
X2106729Y-13372674D01*
X2106729Y-13372674D02*
X2106729Y-13420293D01*
X2106729Y-13420293D02*
X2097205Y-13458388D01*
X2097205Y-13458388D02*
X2087682Y-13477436D01*
X2087682Y-13477436D02*
X2078158Y-13486960D01*
X2078158Y-13486960D02*
X2059110Y-13496484D01*
X2059110Y-13496484D02*
X2040062Y-13496484D01*
X2040062Y-13496484D02*
X2021015Y-13486960D01*
X2021015Y-13486960D02*
X2011491Y-13477436D01*
X2011491Y-13477436D02*
X2001967Y-13458388D01*
X2001967Y-13458388D02*
X1992443Y-13420293D01*
X1992443Y-13420293D02*
X1992443Y-13372674D01*
X1992443Y-13372674D02*
X2001967Y-13334579D01*
X2001967Y-13334579D02*
X2011491Y-13315531D01*
X2011491Y-13315531D02*
X2021015Y-13306008D01*
X2021015Y-13306008D02*
X2040062Y-13296484D01*
X2230539Y-13296484D02*
X2249586Y-13296484D01*
X2249586Y-13296484D02*
X2268634Y-13306008D01*
X2268634Y-13306008D02*
X2278158Y-13315531D01*
X2278158Y-13315531D02*
X2287682Y-13334579D01*
X2287682Y-13334579D02*
X2297205Y-13372674D01*
X2297205Y-13372674D02*
X2297205Y-13420293D01*
X2297205Y-13420293D02*
X2287682Y-13458388D01*
X2287682Y-13458388D02*
X2278158Y-13477436D01*
X2278158Y-13477436D02*
X2268634Y-13486960D01*
X2268634Y-13486960D02*
X2249586Y-13496484D01*
X2249586Y-13496484D02*
X2230539Y-13496484D01*
X2230539Y-13496484D02*
X2211491Y-13486960D01*
X2211491Y-13486960D02*
X2201967Y-13477436D01*
X2201967Y-13477436D02*
X2192444Y-13458388D01*
X2192444Y-13458388D02*
X2182920Y-13420293D01*
X2182920Y-13420293D02*
X2182920Y-13372674D01*
X2182920Y-13372674D02*
X2192444Y-13334579D01*
X2192444Y-13334579D02*
X2201967Y-13315531D01*
X2201967Y-13315531D02*
X2211491Y-13306008D01*
X2211491Y-13306008D02*
X2230539Y-13296484D01*
X2382920Y-13496484D02*
X2382920Y-13363150D01*
X2382920Y-13382198D02*
X2392444Y-13372674D01*
X2392444Y-13372674D02*
X2411491Y-13363150D01*
X2411491Y-13363150D02*
X2440063Y-13363150D01*
X2440063Y-13363150D02*
X2459110Y-13372674D01*
X2459110Y-13372674D02*
X2468634Y-13391722D01*
X2468634Y-13391722D02*
X2468634Y-13496484D01*
X2468634Y-13391722D02*
X2478158Y-13372674D01*
X2478158Y-13372674D02*
X2497205Y-13363150D01*
X2497205Y-13363150D02*
X2525777Y-13363150D01*
X2525777Y-13363150D02*
X2544825Y-13372674D01*
X2544825Y-13372674D02*
X2554348Y-13391722D01*
X2554348Y-13391722D02*
X2554348Y-13496484D01*
X2649586Y-13496484D02*
X2649586Y-13363150D01*
X2649586Y-13382198D02*
X2659110Y-13372674D01*
X2659110Y-13372674D02*
X2678158Y-13363150D01*
X2678158Y-13363150D02*
X2706729Y-13363150D01*
X2706729Y-13363150D02*
X2725777Y-13372674D01*
X2725777Y-13372674D02*
X2735301Y-13391722D01*
X2735301Y-13391722D02*
X2735301Y-13496484D01*
X2735301Y-13391722D02*
X2744825Y-13372674D01*
X2744825Y-13372674D02*
X2763872Y-13363150D01*
X2763872Y-13363150D02*
X2792444Y-13363150D01*
X2792444Y-13363150D02*
X2811491Y-13372674D01*
X2811491Y-13372674D02*
X2821015Y-13391722D01*
X2821015Y-13391722D02*
X2821015Y-13496484D01*
X3211491Y-13286960D02*
X3040063Y-13544103D01*
X3468634Y-13296484D02*
X3487682Y-13296484D01*
X3487682Y-13296484D02*
X3506729Y-13306008D01*
X3506729Y-13306008D02*
X3516253Y-13315531D01*
X3516253Y-13315531D02*
X3525777Y-13334579D01*
X3525777Y-13334579D02*
X3535301Y-13372674D01*
X3535301Y-13372674D02*
X3535301Y-13420293D01*
X3535301Y-13420293D02*
X3525777Y-13458388D01*
X3525777Y-13458388D02*
X3516253Y-13477436D01*
X3516253Y-13477436D02*
X3506729Y-13486960D01*
X3506729Y-13486960D02*
X3487682Y-13496484D01*
X3487682Y-13496484D02*
X3468634Y-13496484D01*
X3468634Y-13496484D02*
X3449586Y-13486960D01*
X3449586Y-13486960D02*
X3440063Y-13477436D01*
X3440063Y-13477436D02*
X3430539Y-13458388D01*
X3430539Y-13458388D02*
X3421015Y-13420293D01*
X3421015Y-13420293D02*
X3421015Y-13372674D01*
X3421015Y-13372674D02*
X3430539Y-13334579D01*
X3430539Y-13334579D02*
X3440063Y-13315531D01*
X3440063Y-13315531D02*
X3449586Y-13306008D01*
X3449586Y-13306008D02*
X3468634Y-13296484D01*
X3621015Y-13477436D02*
X3630539Y-13486960D01*
X3630539Y-13486960D02*
X3621015Y-13496484D01*
X3621015Y-13496484D02*
X3611491Y-13486960D01*
X3611491Y-13486960D02*
X3621015Y-13477436D01*
X3621015Y-13477436D02*
X3621015Y-13496484D01*
X3754348Y-13296484D02*
X3773396Y-13296484D01*
X3773396Y-13296484D02*
X3792444Y-13306008D01*
X3792444Y-13306008D02*
X3801967Y-13315531D01*
X3801967Y-13315531D02*
X3811491Y-13334579D01*
X3811491Y-13334579D02*
X3821015Y-13372674D01*
X3821015Y-13372674D02*
X3821015Y-13420293D01*
X3821015Y-13420293D02*
X3811491Y-13458388D01*
X3811491Y-13458388D02*
X3801967Y-13477436D01*
X3801967Y-13477436D02*
X3792444Y-13486960D01*
X3792444Y-13486960D02*
X3773396Y-13496484D01*
X3773396Y-13496484D02*
X3754348Y-13496484D01*
X3754348Y-13496484D02*
X3735301Y-13486960D01*
X3735301Y-13486960D02*
X3725777Y-13477436D01*
X3725777Y-13477436D02*
X3716253Y-13458388D01*
X3716253Y-13458388D02*
X3706729Y-13420293D01*
X3706729Y-13420293D02*
X3706729Y-13372674D01*
X3706729Y-13372674D02*
X3716253Y-13334579D01*
X3716253Y-13334579D02*
X3725777Y-13315531D01*
X3725777Y-13315531D02*
X3735301Y-13306008D01*
X3735301Y-13306008D02*
X3754348Y-13296484D01*
X3887682Y-13296484D02*
X4021015Y-13296484D01*
X4021015Y-13296484D02*
X3935301Y-13496484D01*
X4125777Y-13382198D02*
X4106729Y-13372674D01*
X4106729Y-13372674D02*
X4097206Y-13363150D01*
X4097206Y-13363150D02*
X4087682Y-13344103D01*
X4087682Y-13344103D02*
X4087682Y-13334579D01*
X4087682Y-13334579D02*
X4097206Y-13315531D01*
X4097206Y-13315531D02*
X4106729Y-13306008D01*
X4106729Y-13306008D02*
X4125777Y-13296484D01*
X4125777Y-13296484D02*
X4163872Y-13296484D01*
X4163872Y-13296484D02*
X4182920Y-13306008D01*
X4182920Y-13306008D02*
X4192444Y-13315531D01*
X4192444Y-13315531D02*
X4201968Y-13334579D01*
X4201968Y-13334579D02*
X4201968Y-13344103D01*
X4201968Y-13344103D02*
X4192444Y-13363150D01*
X4192444Y-13363150D02*
X4182920Y-13372674D01*
X4182920Y-13372674D02*
X4163872Y-13382198D01*
X4163872Y-13382198D02*
X4125777Y-13382198D01*
X4125777Y-13382198D02*
X4106729Y-13391722D01*
X4106729Y-13391722D02*
X4097206Y-13401246D01*
X4097206Y-13401246D02*
X4087682Y-13420293D01*
X4087682Y-13420293D02*
X4087682Y-13458388D01*
X4087682Y-13458388D02*
X4097206Y-13477436D01*
X4097206Y-13477436D02*
X4106729Y-13486960D01*
X4106729Y-13486960D02*
X4125777Y-13496484D01*
X4125777Y-13496484D02*
X4163872Y-13496484D01*
X4163872Y-13496484D02*
X4182920Y-13486960D01*
X4182920Y-13486960D02*
X4192444Y-13477436D01*
X4192444Y-13477436D02*
X4201968Y-13458388D01*
X4201968Y-13458388D02*
X4201968Y-13420293D01*
X4201968Y-13420293D02*
X4192444Y-13401246D01*
X4192444Y-13401246D02*
X4182920Y-13391722D01*
X4182920Y-13391722D02*
X4163872Y-13382198D01*
X4268634Y-13296484D02*
X4401968Y-13296484D01*
X4401968Y-13296484D02*
X4316253Y-13496484D01*
X4468634Y-13296484D02*
X4468634Y-13334579D01*
X4544825Y-13296484D02*
X4544825Y-13334579D01*
X4840063Y-13572674D02*
X4830539Y-13563150D01*
X4830539Y-13563150D02*
X4811491Y-13534579D01*
X4811491Y-13534579D02*
X4801968Y-13515531D01*
X4801968Y-13515531D02*
X4792444Y-13486960D01*
X4792444Y-13486960D02*
X4782920Y-13439341D01*
X4782920Y-13439341D02*
X4782920Y-13401246D01*
X4782920Y-13401246D02*
X4792444Y-13353627D01*
X4792444Y-13353627D02*
X4801968Y-13325055D01*
X4801968Y-13325055D02*
X4811491Y-13306008D01*
X4811491Y-13306008D02*
X4830539Y-13277436D01*
X4830539Y-13277436D02*
X4840063Y-13267912D01*
X5021015Y-13496484D02*
X4906730Y-13496484D01*
X4963872Y-13496484D02*
X4963872Y-13296484D01*
X4963872Y-13296484D02*
X4944825Y-13325055D01*
X4944825Y-13325055D02*
X4925777Y-13344103D01*
X4925777Y-13344103D02*
X4906730Y-13353627D01*
X5259111Y-13496484D02*
X5259111Y-13296484D01*
X5344825Y-13496484D02*
X5344825Y-13391722D01*
X5344825Y-13391722D02*
X5335301Y-13372674D01*
X5335301Y-13372674D02*
X5316253Y-13363150D01*
X5316253Y-13363150D02*
X5287682Y-13363150D01*
X5287682Y-13363150D02*
X5268634Y-13372674D01*
X5268634Y-13372674D02*
X5259111Y-13382198D01*
X5468634Y-13496484D02*
X5449587Y-13486960D01*
X5449587Y-13486960D02*
X5440063Y-13477436D01*
X5440063Y-13477436D02*
X5430539Y-13458388D01*
X5430539Y-13458388D02*
X5430539Y-13401246D01*
X5430539Y-13401246D02*
X5440063Y-13382198D01*
X5440063Y-13382198D02*
X5449587Y-13372674D01*
X5449587Y-13372674D02*
X5468634Y-13363150D01*
X5468634Y-13363150D02*
X5497206Y-13363150D01*
X5497206Y-13363150D02*
X5516253Y-13372674D01*
X5516253Y-13372674D02*
X5525777Y-13382198D01*
X5525777Y-13382198D02*
X5535301Y-13401246D01*
X5535301Y-13401246D02*
X5535301Y-13458388D01*
X5535301Y-13458388D02*
X5525777Y-13477436D01*
X5525777Y-13477436D02*
X5516253Y-13486960D01*
X5516253Y-13486960D02*
X5497206Y-13496484D01*
X5497206Y-13496484D02*
X5468634Y-13496484D01*
X5649587Y-13496484D02*
X5630539Y-13486960D01*
X5630539Y-13486960D02*
X5621015Y-13467912D01*
X5621015Y-13467912D02*
X5621015Y-13296484D01*
X5801968Y-13486960D02*
X5782920Y-13496484D01*
X5782920Y-13496484D02*
X5744825Y-13496484D01*
X5744825Y-13496484D02*
X5725777Y-13486960D01*
X5725777Y-13486960D02*
X5716253Y-13467912D01*
X5716253Y-13467912D02*
X5716253Y-13391722D01*
X5716253Y-13391722D02*
X5725777Y-13372674D01*
X5725777Y-13372674D02*
X5744825Y-13363150D01*
X5744825Y-13363150D02*
X5782920Y-13363150D01*
X5782920Y-13363150D02*
X5801968Y-13372674D01*
X5801968Y-13372674D02*
X5811491Y-13391722D01*
X5811491Y-13391722D02*
X5811491Y-13410769D01*
X5811491Y-13410769D02*
X5716253Y-13429817D01*
X5878158Y-13572674D02*
X5887682Y-13563150D01*
X5887682Y-13563150D02*
X5906730Y-13534579D01*
X5906730Y-13534579D02*
X5916253Y-13515531D01*
X5916253Y-13515531D02*
X5925777Y-13486960D01*
X5925777Y-13486960D02*
X5935301Y-13439341D01*
X5935301Y-13439341D02*
X5935301Y-13401246D01*
X5935301Y-13401246D02*
X5925777Y-13353627D01*
X5925777Y-13353627D02*
X5916253Y-13325055D01*
X5916253Y-13325055D02*
X5906730Y-13306008D01*
X5906730Y-13306008D02*
X5887682Y-13277436D01*
X5887682Y-13277436D02*
X5878158Y-13267912D01*
X1065000Y-13625000D02*
X1265000Y-13825000D01*
X1265000Y-13625000D02*
X1065000Y-13825000D01*
X1235711Y-13795711D02*
X1235711Y-13654289D01*
X1094289Y-13654289D01*
X1094289Y-13795711D01*
X1235711Y-13795711D01*
X1516253Y-13635531D02*
X1525777Y-13626008D01*
X1525777Y-13626008D02*
X1544824Y-13616484D01*
X1544824Y-13616484D02*
X1592443Y-13616484D01*
X1592443Y-13616484D02*
X1611491Y-13626008D01*
X1611491Y-13626008D02*
X1621015Y-13635531D01*
X1621015Y-13635531D02*
X1630539Y-13654579D01*
X1630539Y-13654579D02*
X1630539Y-13673627D01*
X1630539Y-13673627D02*
X1621015Y-13702198D01*
X1621015Y-13702198D02*
X1506729Y-13816484D01*
X1506729Y-13816484D02*
X1630539Y-13816484D01*
X1716253Y-13797436D02*
X1725777Y-13806960D01*
X1725777Y-13806960D02*
X1716253Y-13816484D01*
X1716253Y-13816484D02*
X1706729Y-13806960D01*
X1706729Y-13806960D02*
X1716253Y-13797436D01*
X1716253Y-13797436D02*
X1716253Y-13816484D01*
X1792443Y-13616484D02*
X1925777Y-13616484D01*
X1925777Y-13616484D02*
X1840062Y-13816484D01*
X2040062Y-13616484D02*
X2059110Y-13616484D01*
X2059110Y-13616484D02*
X2078158Y-13626008D01*
X2078158Y-13626008D02*
X2087682Y-13635531D01*
X2087682Y-13635531D02*
X2097205Y-13654579D01*
X2097205Y-13654579D02*
X2106729Y-13692674D01*
X2106729Y-13692674D02*
X2106729Y-13740293D01*
X2106729Y-13740293D02*
X2097205Y-13778388D01*
X2097205Y-13778388D02*
X2087682Y-13797436D01*
X2087682Y-13797436D02*
X2078158Y-13806960D01*
X2078158Y-13806960D02*
X2059110Y-13816484D01*
X2059110Y-13816484D02*
X2040062Y-13816484D01*
X2040062Y-13816484D02*
X2021015Y-13806960D01*
X2021015Y-13806960D02*
X2011491Y-13797436D01*
X2011491Y-13797436D02*
X2001967Y-13778388D01*
X2001967Y-13778388D02*
X1992443Y-13740293D01*
X1992443Y-13740293D02*
X1992443Y-13692674D01*
X1992443Y-13692674D02*
X2001967Y-13654579D01*
X2001967Y-13654579D02*
X2011491Y-13635531D01*
X2011491Y-13635531D02*
X2021015Y-13626008D01*
X2021015Y-13626008D02*
X2040062Y-13616484D01*
X2230539Y-13616484D02*
X2249586Y-13616484D01*
X2249586Y-13616484D02*
X2268634Y-13626008D01*
X2268634Y-13626008D02*
X2278158Y-13635531D01*
X2278158Y-13635531D02*
X2287682Y-13654579D01*
X2287682Y-13654579D02*
X2297205Y-13692674D01*
X2297205Y-13692674D02*
X2297205Y-13740293D01*
X2297205Y-13740293D02*
X2287682Y-13778388D01*
X2287682Y-13778388D02*
X2278158Y-13797436D01*
X2278158Y-13797436D02*
X2268634Y-13806960D01*
X2268634Y-13806960D02*
X2249586Y-13816484D01*
X2249586Y-13816484D02*
X2230539Y-13816484D01*
X2230539Y-13816484D02*
X2211491Y-13806960D01*
X2211491Y-13806960D02*
X2201967Y-13797436D01*
X2201967Y-13797436D02*
X2192444Y-13778388D01*
X2192444Y-13778388D02*
X2182920Y-13740293D01*
X2182920Y-13740293D02*
X2182920Y-13692674D01*
X2182920Y-13692674D02*
X2192444Y-13654579D01*
X2192444Y-13654579D02*
X2201967Y-13635531D01*
X2201967Y-13635531D02*
X2211491Y-13626008D01*
X2211491Y-13626008D02*
X2230539Y-13616484D01*
X2382920Y-13816484D02*
X2382920Y-13683150D01*
X2382920Y-13702198D02*
X2392444Y-13692674D01*
X2392444Y-13692674D02*
X2411491Y-13683150D01*
X2411491Y-13683150D02*
X2440063Y-13683150D01*
X2440063Y-13683150D02*
X2459110Y-13692674D01*
X2459110Y-13692674D02*
X2468634Y-13711722D01*
X2468634Y-13711722D02*
X2468634Y-13816484D01*
X2468634Y-13711722D02*
X2478158Y-13692674D01*
X2478158Y-13692674D02*
X2497205Y-13683150D01*
X2497205Y-13683150D02*
X2525777Y-13683150D01*
X2525777Y-13683150D02*
X2544825Y-13692674D01*
X2544825Y-13692674D02*
X2554348Y-13711722D01*
X2554348Y-13711722D02*
X2554348Y-13816484D01*
X2649586Y-13816484D02*
X2649586Y-13683150D01*
X2649586Y-13702198D02*
X2659110Y-13692674D01*
X2659110Y-13692674D02*
X2678158Y-13683150D01*
X2678158Y-13683150D02*
X2706729Y-13683150D01*
X2706729Y-13683150D02*
X2725777Y-13692674D01*
X2725777Y-13692674D02*
X2735301Y-13711722D01*
X2735301Y-13711722D02*
X2735301Y-13816484D01*
X2735301Y-13711722D02*
X2744825Y-13692674D01*
X2744825Y-13692674D02*
X2763872Y-13683150D01*
X2763872Y-13683150D02*
X2792444Y-13683150D01*
X2792444Y-13683150D02*
X2811491Y-13692674D01*
X2811491Y-13692674D02*
X2821015Y-13711722D01*
X2821015Y-13711722D02*
X2821015Y-13816484D01*
X3211491Y-13606960D02*
X3040063Y-13864103D01*
X3468634Y-13616484D02*
X3487682Y-13616484D01*
X3487682Y-13616484D02*
X3506729Y-13626008D01*
X3506729Y-13626008D02*
X3516253Y-13635531D01*
X3516253Y-13635531D02*
X3525777Y-13654579D01*
X3525777Y-13654579D02*
X3535301Y-13692674D01*
X3535301Y-13692674D02*
X3535301Y-13740293D01*
X3535301Y-13740293D02*
X3525777Y-13778388D01*
X3525777Y-13778388D02*
X3516253Y-13797436D01*
X3516253Y-13797436D02*
X3506729Y-13806960D01*
X3506729Y-13806960D02*
X3487682Y-13816484D01*
X3487682Y-13816484D02*
X3468634Y-13816484D01*
X3468634Y-13816484D02*
X3449586Y-13806960D01*
X3449586Y-13806960D02*
X3440063Y-13797436D01*
X3440063Y-13797436D02*
X3430539Y-13778388D01*
X3430539Y-13778388D02*
X3421015Y-13740293D01*
X3421015Y-13740293D02*
X3421015Y-13692674D01*
X3421015Y-13692674D02*
X3430539Y-13654579D01*
X3430539Y-13654579D02*
X3440063Y-13635531D01*
X3440063Y-13635531D02*
X3449586Y-13626008D01*
X3449586Y-13626008D02*
X3468634Y-13616484D01*
X3621015Y-13797436D02*
X3630539Y-13806960D01*
X3630539Y-13806960D02*
X3621015Y-13816484D01*
X3621015Y-13816484D02*
X3611491Y-13806960D01*
X3611491Y-13806960D02*
X3621015Y-13797436D01*
X3621015Y-13797436D02*
X3621015Y-13816484D01*
X3821015Y-13816484D02*
X3706729Y-13816484D01*
X3763872Y-13816484D02*
X3763872Y-13616484D01*
X3763872Y-13616484D02*
X3744825Y-13645055D01*
X3744825Y-13645055D02*
X3725777Y-13664103D01*
X3725777Y-13664103D02*
X3706729Y-13673627D01*
X3944825Y-13616484D02*
X3963872Y-13616484D01*
X3963872Y-13616484D02*
X3982920Y-13626008D01*
X3982920Y-13626008D02*
X3992444Y-13635531D01*
X3992444Y-13635531D02*
X4001967Y-13654579D01*
X4001967Y-13654579D02*
X4011491Y-13692674D01*
X4011491Y-13692674D02*
X4011491Y-13740293D01*
X4011491Y-13740293D02*
X4001967Y-13778388D01*
X4001967Y-13778388D02*
X3992444Y-13797436D01*
X3992444Y-13797436D02*
X3982920Y-13806960D01*
X3982920Y-13806960D02*
X3963872Y-13816484D01*
X3963872Y-13816484D02*
X3944825Y-13816484D01*
X3944825Y-13816484D02*
X3925777Y-13806960D01*
X3925777Y-13806960D02*
X3916253Y-13797436D01*
X3916253Y-13797436D02*
X3906729Y-13778388D01*
X3906729Y-13778388D02*
X3897206Y-13740293D01*
X3897206Y-13740293D02*
X3897206Y-13692674D01*
X3897206Y-13692674D02*
X3906729Y-13654579D01*
X3906729Y-13654579D02*
X3916253Y-13635531D01*
X3916253Y-13635531D02*
X3925777Y-13626008D01*
X3925777Y-13626008D02*
X3944825Y-13616484D01*
X4182920Y-13616484D02*
X4144825Y-13616484D01*
X4144825Y-13616484D02*
X4125777Y-13626008D01*
X4125777Y-13626008D02*
X4116253Y-13635531D01*
X4116253Y-13635531D02*
X4097206Y-13664103D01*
X4097206Y-13664103D02*
X4087682Y-13702198D01*
X4087682Y-13702198D02*
X4087682Y-13778388D01*
X4087682Y-13778388D02*
X4097206Y-13797436D01*
X4097206Y-13797436D02*
X4106729Y-13806960D01*
X4106729Y-13806960D02*
X4125777Y-13816484D01*
X4125777Y-13816484D02*
X4163872Y-13816484D01*
X4163872Y-13816484D02*
X4182920Y-13806960D01*
X4182920Y-13806960D02*
X4192444Y-13797436D01*
X4192444Y-13797436D02*
X4201968Y-13778388D01*
X4201968Y-13778388D02*
X4201968Y-13730769D01*
X4201968Y-13730769D02*
X4192444Y-13711722D01*
X4192444Y-13711722D02*
X4182920Y-13702198D01*
X4182920Y-13702198D02*
X4163872Y-13692674D01*
X4163872Y-13692674D02*
X4125777Y-13692674D01*
X4125777Y-13692674D02*
X4106729Y-13702198D01*
X4106729Y-13702198D02*
X4097206Y-13711722D01*
X4097206Y-13711722D02*
X4087682Y-13730769D01*
X4268634Y-13616484D02*
X4392444Y-13616484D01*
X4392444Y-13616484D02*
X4325777Y-13692674D01*
X4325777Y-13692674D02*
X4354349Y-13692674D01*
X4354349Y-13692674D02*
X4373396Y-13702198D01*
X4373396Y-13702198D02*
X4382920Y-13711722D01*
X4382920Y-13711722D02*
X4392444Y-13730769D01*
X4392444Y-13730769D02*
X4392444Y-13778388D01*
X4392444Y-13778388D02*
X4382920Y-13797436D01*
X4382920Y-13797436D02*
X4373396Y-13806960D01*
X4373396Y-13806960D02*
X4354349Y-13816484D01*
X4354349Y-13816484D02*
X4297206Y-13816484D01*
X4297206Y-13816484D02*
X4278158Y-13806960D01*
X4278158Y-13806960D02*
X4268634Y-13797436D01*
X4468634Y-13616484D02*
X4468634Y-13654579D01*
X4544825Y-13616484D02*
X4544825Y-13654579D01*
X4840063Y-13892674D02*
X4830539Y-13883150D01*
X4830539Y-13883150D02*
X4811491Y-13854579D01*
X4811491Y-13854579D02*
X4801968Y-13835531D01*
X4801968Y-13835531D02*
X4792444Y-13806960D01*
X4792444Y-13806960D02*
X4782920Y-13759341D01*
X4782920Y-13759341D02*
X4782920Y-13721246D01*
X4782920Y-13721246D02*
X4792444Y-13673627D01*
X4792444Y-13673627D02*
X4801968Y-13645055D01*
X4801968Y-13645055D02*
X4811491Y-13626008D01*
X4811491Y-13626008D02*
X4830539Y-13597436D01*
X4830539Y-13597436D02*
X4840063Y-13587912D01*
X5001968Y-13683150D02*
X5001968Y-13816484D01*
X4954349Y-13606960D02*
X4906730Y-13749817D01*
X4906730Y-13749817D02*
X5030539Y-13749817D01*
X5259111Y-13816484D02*
X5259111Y-13616484D01*
X5344825Y-13816484D02*
X5344825Y-13711722D01*
X5344825Y-13711722D02*
X5335301Y-13692674D01*
X5335301Y-13692674D02*
X5316253Y-13683150D01*
X5316253Y-13683150D02*
X5287682Y-13683150D01*
X5287682Y-13683150D02*
X5268634Y-13692674D01*
X5268634Y-13692674D02*
X5259111Y-13702198D01*
X5468634Y-13816484D02*
X5449587Y-13806960D01*
X5449587Y-13806960D02*
X5440063Y-13797436D01*
X5440063Y-13797436D02*
X5430539Y-13778388D01*
X5430539Y-13778388D02*
X5430539Y-13721246D01*
X5430539Y-13721246D02*
X5440063Y-13702198D01*
X5440063Y-13702198D02*
X5449587Y-13692674D01*
X5449587Y-13692674D02*
X5468634Y-13683150D01*
X5468634Y-13683150D02*
X5497206Y-13683150D01*
X5497206Y-13683150D02*
X5516253Y-13692674D01*
X5516253Y-13692674D02*
X5525777Y-13702198D01*
X5525777Y-13702198D02*
X5535301Y-13721246D01*
X5535301Y-13721246D02*
X5535301Y-13778388D01*
X5535301Y-13778388D02*
X5525777Y-13797436D01*
X5525777Y-13797436D02*
X5516253Y-13806960D01*
X5516253Y-13806960D02*
X5497206Y-13816484D01*
X5497206Y-13816484D02*
X5468634Y-13816484D01*
X5649587Y-13816484D02*
X5630539Y-13806960D01*
X5630539Y-13806960D02*
X5621015Y-13787912D01*
X5621015Y-13787912D02*
X5621015Y-13616484D01*
X5801968Y-13806960D02*
X5782920Y-13816484D01*
X5782920Y-13816484D02*
X5744825Y-13816484D01*
X5744825Y-13816484D02*
X5725777Y-13806960D01*
X5725777Y-13806960D02*
X5716253Y-13787912D01*
X5716253Y-13787912D02*
X5716253Y-13711722D01*
X5716253Y-13711722D02*
X5725777Y-13692674D01*
X5725777Y-13692674D02*
X5744825Y-13683150D01*
X5744825Y-13683150D02*
X5782920Y-13683150D01*
X5782920Y-13683150D02*
X5801968Y-13692674D01*
X5801968Y-13692674D02*
X5811491Y-13711722D01*
X5811491Y-13711722D02*
X5811491Y-13730769D01*
X5811491Y-13730769D02*
X5716253Y-13749817D01*
X5887682Y-13806960D02*
X5906730Y-13816484D01*
X5906730Y-13816484D02*
X5944825Y-13816484D01*
X5944825Y-13816484D02*
X5963872Y-13806960D01*
X5963872Y-13806960D02*
X5973396Y-13787912D01*
X5973396Y-13787912D02*
X5973396Y-13778388D01*
X5973396Y-13778388D02*
X5963872Y-13759341D01*
X5963872Y-13759341D02*
X5944825Y-13749817D01*
X5944825Y-13749817D02*
X5916253Y-13749817D01*
X5916253Y-13749817D02*
X5897206Y-13740293D01*
X5897206Y-13740293D02*
X5887682Y-13721246D01*
X5887682Y-13721246D02*
X5887682Y-13711722D01*
X5887682Y-13711722D02*
X5897206Y-13692674D01*
X5897206Y-13692674D02*
X5916253Y-13683150D01*
X5916253Y-13683150D02*
X5944825Y-13683150D01*
X5944825Y-13683150D02*
X5963872Y-13692674D01*
X6040063Y-13892674D02*
X6049587Y-13883150D01*
X6049587Y-13883150D02*
X6068634Y-13854579D01*
X6068634Y-13854579D02*
X6078158Y-13835531D01*
X6078158Y-13835531D02*
X6087682Y-13806960D01*
X6087682Y-13806960D02*
X6097206Y-13759341D01*
X6097206Y-13759341D02*
X6097206Y-13721246D01*
X6097206Y-13721246D02*
X6087682Y-13673627D01*
X6087682Y-13673627D02*
X6078158Y-13645055D01*
X6078158Y-13645055D02*
X6068634Y-13626008D01*
X6068634Y-13626008D02*
X6049587Y-13597436D01*
X6049587Y-13597436D02*
X6040063Y-13587912D01*
M02*
