%TF.GenerationSoftware,KiCad,Pcbnew,8.0.3*%
%TF.CreationDate,2024-11-19T22:00:55+01:00*%
%TF.ProjectId,weerstation-analoog,77656572-7374-4617-9469-6f6e2d616e61,rev?*%
%TF.SameCoordinates,Original*%
%TF.FileFunction,Copper,L1,Top*%
%TF.FilePolarity,Positive*%
%FSLAX46Y46*%
G04 Gerber Fmt 4.6, Leading zero omitted, Abs format (unit mm)*
G04 Created by KiCad (PCBNEW 8.0.3) date 2024-11-19 22:00:55*
%MOMM*%
%LPD*%
G01*
G04 APERTURE LIST*
G04 Aperture macros list*
%AMRoundRect*
0 Rectangle with rounded corners*
0 $1 Rounding radius*
0 $2 $3 $4 $5 $6 $7 $8 $9 X,Y pos of 4 corners*
0 Add a 4 corners polygon primitive as box body*
4,1,4,$2,$3,$4,$5,$6,$7,$8,$9,$2,$3,0*
0 Add four circle primitives for the rounded corners*
1,1,$1+$1,$2,$3*
1,1,$1+$1,$4,$5*
1,1,$1+$1,$6,$7*
1,1,$1+$1,$8,$9*
0 Add four rect primitives between the rounded corners*
20,1,$1+$1,$2,$3,$4,$5,0*
20,1,$1+$1,$4,$5,$6,$7,0*
20,1,$1+$1,$6,$7,$8,$9,0*
20,1,$1+$1,$8,$9,$2,$3,0*%
G04 Aperture macros list end*
%TA.AperFunction,ComponentPad*%
%ADD10C,5.400000*%
%TD*%
%TA.AperFunction,ComponentPad*%
%ADD11R,1.700000X1.700000*%
%TD*%
%TA.AperFunction,ComponentPad*%
%ADD12O,1.700000X1.700000*%
%TD*%
%TA.AperFunction,ComponentPad*%
%ADD13RoundRect,0.250000X0.725000X-0.600000X0.725000X0.600000X-0.725000X0.600000X-0.725000X-0.600000X0*%
%TD*%
%TA.AperFunction,ComponentPad*%
%ADD14O,1.950000X1.700000*%
%TD*%
%TA.AperFunction,ComponentPad*%
%ADD15C,1.400000*%
%TD*%
%TA.AperFunction,ComponentPad*%
%ADD16O,1.400000X1.400000*%
%TD*%
%TA.AperFunction,ComponentPad*%
%ADD17RoundRect,0.250000X-0.600000X-0.750000X0.600000X-0.750000X0.600000X0.750000X-0.600000X0.750000X0*%
%TD*%
%TA.AperFunction,ComponentPad*%
%ADD18O,1.700000X2.000000*%
%TD*%
%TA.AperFunction,ViaPad*%
%ADD19C,1.400000*%
%TD*%
%TA.AperFunction,ViaPad*%
%ADD20C,0.600000*%
%TD*%
%TA.AperFunction,ViaPad*%
%ADD21C,3.000000*%
%TD*%
%TA.AperFunction,ViaPad*%
%ADD22C,1.000000*%
%TD*%
%TA.AperFunction,Conductor*%
%ADD23C,0.500000*%
%TD*%
%TA.AperFunction,Conductor*%
%ADD24C,0.750000*%
%TD*%
%TA.AperFunction,Conductor*%
%ADD25C,1.000000*%
%TD*%
%TA.AperFunction,Conductor*%
%ADD26C,0.600000*%
%TD*%
%TA.AperFunction,Conductor*%
%ADD27C,2.000000*%
%TD*%
G04 APERTURE END LIST*
D10*
%TO.P,H3,1,1*%
%TO.N,GND*%
X95000000Y-85000000D03*
%TD*%
D11*
%TO.P,R9,1*%
%TO.N,+3.3V*%
X100330000Y-17780000D03*
D12*
%TO.P,R9,2*%
%TO.N,ADC-2 A1*%
X100330000Y-20320000D03*
%TD*%
D11*
%TO.P,J14,1,Pin_1*%
%TO.N,+5V*%
X107696000Y-54864000D03*
D12*
%TO.P,J14,2,Pin_2*%
X107696000Y-57404000D03*
%TO.P,J14,3,Pin_3*%
X107696000Y-59944000D03*
%TO.P,J14,4,Pin_4*%
X107696000Y-62484000D03*
%TO.P,J14,5,Pin_5*%
X107696000Y-65024000D03*
%TD*%
D11*
%TO.P,J16,1,Pin_1*%
%TO.N,unconnected-(J16-Pin_1-Pad1)*%
X76200000Y-66040000D03*
D12*
%TO.P,J16,2,Pin_2*%
%TO.N,unconnected-(J16-Pin_2-Pad2)*%
X76200000Y-68580000D03*
%TO.P,J16,3,Pin_3*%
%TO.N,+3.3V*%
X76200000Y-71120000D03*
%TO.P,J16,4,Pin_4*%
%TO.N,GND*%
X76200000Y-73660000D03*
%TO.P,J16,5,Pin_5*%
%TO.N,sda*%
X76200000Y-76200000D03*
%TO.P,J16,6,Pin_6*%
%TO.N,scl*%
X76200000Y-78740000D03*
%TD*%
D13*
%TO.P,J11,1,Pin_1*%
%TO.N,regen-digitaal*%
X17780000Y-78580000D03*
D14*
%TO.P,J11,2,Pin_2*%
%TO.N,ADC4 alert*%
X17780000Y-76080000D03*
%TO.P,J11,3,Pin_3*%
%TO.N,ADC3 alert*%
X17780000Y-73580000D03*
%TO.P,J11,4,Pin_4*%
%TO.N,ADC2 alert*%
X17780000Y-71080000D03*
%TO.P,J11,5,Pin_5*%
%TO.N,ADC1 alert*%
X17780000Y-68580000D03*
%TD*%
D11*
%TO.P,J6,1,Pin_1*%
%TO.N,ADC-3 A3*%
X20320000Y-39935000D03*
D12*
%TO.P,J6,2,Pin_2*%
%TO.N,ADC-3 A2*%
X22860000Y-39935000D03*
%TO.P,J6,3,Pin_3*%
%TO.N,ADC-3 A1*%
X25400000Y-39935000D03*
%TO.P,J6,4,Pin_4*%
%TO.N,ADC-3 A0*%
X27940000Y-39935000D03*
%TO.P,J6,5,Pin_5*%
%TO.N,ADC3 alert*%
X30480000Y-39935000D03*
%TO.P,J6,6,Pin_6*%
%TO.N,scl*%
X33020000Y-39935000D03*
%TO.P,J6,7,Pin_7*%
%TO.N,sda*%
X35560000Y-39935000D03*
%TO.P,J6,8,Pin_8*%
%TO.N,scl*%
X38100000Y-39935000D03*
%TO.P,J6,9,Pin_9*%
%TO.N,GND*%
X40640000Y-39935000D03*
%TO.P,J6,10,Pin_10*%
%TO.N,+3.3V*%
X43180000Y-39935000D03*
%TD*%
D11*
%TO.P,J17,1,Pin_1*%
%TO.N,Net-(J17-Pin_1)*%
X86360000Y-78740000D03*
D12*
%TO.P,J17,2,Pin_2*%
%TO.N,Net-(J17-Pin_2)*%
X86360000Y-76200000D03*
%TO.P,J17,3,Pin_3*%
%TO.N,GND*%
X86360000Y-73660000D03*
%TO.P,J17,4,Pin_4*%
%TO.N,+5V*%
X86360000Y-71120000D03*
%TO.P,J17,5,Pin_5*%
%TO.N,unconnected-(J17-Pin_5-Pad5)*%
X86360000Y-68580000D03*
%TO.P,J17,6,Pin_6*%
%TO.N,unconnected-(J17-Pin_6-Pad6)*%
X86360000Y-66040000D03*
%TD*%
D11*
%TO.P,J5,1,Pin_1*%
%TO.N,ADC-4 A3*%
X98998700Y-106680000D03*
D12*
%TO.P,J5,2,Pin_2*%
%TO.N,ADC-4 A2*%
X96458700Y-106680000D03*
%TO.P,J5,3,Pin_3*%
%TO.N,ADC-4 A1*%
X93918700Y-106680000D03*
%TO.P,J5,4,Pin_4*%
%TO.N,ADC-4 A0*%
X91378700Y-106680000D03*
%TO.P,J5,5,Pin_5*%
%TO.N,ADC4 alert*%
X88838700Y-106680000D03*
%TO.P,J5,6,Pin_6*%
%TO.N,Net-(J17-Pin_2)*%
X86298700Y-106680000D03*
%TO.P,J5,7,Pin_7*%
X83758700Y-106680000D03*
%TO.P,J5,8,Pin_8*%
%TO.N,Net-(J17-Pin_1)*%
X81218700Y-106680000D03*
%TO.P,J5,9,Pin_9*%
%TO.N,GND*%
X78678700Y-106680000D03*
%TO.P,J5,10,Pin_10*%
%TO.N,+5V*%
X76138700Y-106680000D03*
%TD*%
D10*
%TO.P,H1,1,1*%
%TO.N,GND*%
X60000000Y-65000000D03*
%TD*%
D15*
%TO.P,R6,1*%
%TO.N,ADC-1 A2*%
X55880000Y-25400000D03*
D16*
%TO.P,R6,2*%
%TO.N,GND*%
X55880000Y-33020000D03*
%TD*%
D11*
%TO.P,J8,1,Pin_1*%
%TO.N,ADC-3 A0*%
X41910000Y-17780000D03*
D12*
%TO.P,J8,2,Pin_2*%
%TO.N,+3.3V*%
X44450000Y-17780000D03*
%TO.P,J8,3,Pin_3*%
%TO.N,GND*%
X46990000Y-17780000D03*
%TD*%
D13*
%TO.P,J2,1,Pin_1*%
%TO.N,+12L*%
X17780000Y-93780000D03*
D14*
%TO.P,J2,2,Pin_2*%
%TO.N,+5V*%
X17780000Y-91280000D03*
%TO.P,J2,3,Pin_3*%
%TO.N,+3.3V*%
X17780000Y-88780000D03*
%TO.P,J2,4,Pin_4*%
%TO.N,GND*%
X17780000Y-86280000D03*
%TD*%
D13*
%TO.P,J1,1,Pin_1*%
%TO.N,GND*%
X17780000Y-106400000D03*
D14*
%TO.P,J1,2,Pin_2*%
%TO.N,scl*%
X17780000Y-103900000D03*
%TO.P,J1,3,Pin_3*%
%TO.N,sda*%
X17780000Y-101400000D03*
%TD*%
D17*
%TO.P,R3,1*%
%TO.N,+3.3V*%
X63540000Y-17780000D03*
D18*
%TO.P,R3,2*%
%TO.N,ADC-1 A1*%
X66040000Y-17780000D03*
%TD*%
D15*
%TO.P,R12,1*%
%TO.N,ADC-2 A2*%
X93980000Y-25400000D03*
D16*
%TO.P,R12,2*%
%TO.N,GND*%
X93980000Y-33020000D03*
%TD*%
D11*
%TO.P,R7,1*%
%TO.N,+3.3V*%
X106680000Y-17780000D03*
D12*
%TO.P,R7,2*%
%TO.N,ADC-2 A0*%
X106680000Y-20320000D03*
%TD*%
D15*
%TO.P,R4,1*%
%TO.N,ADC-1 A1*%
X66040000Y-25400000D03*
D16*
%TO.P,R4,2*%
%TO.N,GND*%
X66040000Y-33020000D03*
%TD*%
D11*
%TO.P,J4,1,Pin_1*%
%TO.N,ADC-2 A3*%
X83820000Y-39370000D03*
D12*
%TO.P,J4,2,Pin_2*%
%TO.N,ADC-2 A2*%
X86360000Y-39370000D03*
%TO.P,J4,3,Pin_3*%
%TO.N,ADC-2 A1*%
X88900000Y-39370000D03*
%TO.P,J4,4,Pin_4*%
%TO.N,ADC-2 A0*%
X91440000Y-39370000D03*
%TO.P,J4,5,Pin_5*%
%TO.N,ADC2 alert*%
X93980000Y-39370000D03*
%TO.P,J4,6,Pin_6*%
%TO.N,+3.3V*%
X96520000Y-39370000D03*
%TO.P,J4,7,Pin_7*%
%TO.N,sda*%
X99060000Y-39370000D03*
%TO.P,J4,8,Pin_8*%
%TO.N,scl*%
X101600000Y-39370000D03*
%TO.P,J4,9,Pin_9*%
%TO.N,GND*%
X104140000Y-39370000D03*
%TO.P,J4,10,Pin_10*%
%TO.N,+3.3V*%
X106680000Y-39370000D03*
%TD*%
D11*
%TO.P,J15,1,Pin_1*%
%TO.N,GND*%
X107442000Y-71628000D03*
D12*
%TO.P,J15,2,Pin_2*%
X107442000Y-74168000D03*
%TO.P,J15,3,Pin_3*%
X107442000Y-76708000D03*
%TO.P,J15,4,Pin_4*%
X107442000Y-79248000D03*
%TO.P,J15,5,Pin_5*%
X107442000Y-81788000D03*
%TD*%
D10*
%TO.P,H4,1,1*%
%TO.N,GND*%
X60000000Y-85000000D03*
%TD*%
D11*
%TO.P,J7,1,Pin_1*%
%TO.N,ADC-3 A1*%
X31750000Y-17780000D03*
D12*
%TO.P,J7,2,Pin_2*%
%TO.N,+3.3V*%
X34290000Y-17780000D03*
%TO.P,J7,3,Pin_3*%
%TO.N,GND*%
X36830000Y-17780000D03*
%TD*%
D17*
%TO.P,R5,1*%
%TO.N,+3.3V*%
X53380000Y-17780000D03*
D18*
%TO.P,R5,2*%
%TO.N,ADC-1 A2*%
X55880000Y-17780000D03*
%TD*%
D11*
%TO.P,J13,1,Pin_1*%
%TO.N,ADC-4 A0*%
X107315000Y-89535000D03*
D12*
%TO.P,J13,2,Pin_2*%
%TO.N,ADC-4 A1*%
X107315000Y-92075000D03*
%TO.P,J13,3,Pin_3*%
%TO.N,ADC-4 A2*%
X107315000Y-94615000D03*
%TO.P,J13,4,Pin_4*%
%TO.N,ADC-4 A3*%
X107315000Y-97155000D03*
%TD*%
D11*
%TO.P,J10,1,Pin_1*%
%TO.N,ADC-3 A2*%
X19050000Y-22860000D03*
D12*
%TO.P,J10,2,Pin_2*%
%TO.N,regen-digitaal*%
X21590000Y-22860000D03*
%TO.P,J10,3,Pin_3*%
%TO.N,GND*%
X24130000Y-22860000D03*
%TO.P,J10,4,Pin_4*%
%TO.N,+3.3V*%
X26670000Y-22860000D03*
%TD*%
D11*
%TO.P,J3,1,Pin_1*%
%TO.N,ADC-1 A3*%
X50800000Y-39370000D03*
D12*
%TO.P,J3,2,Pin_2*%
%TO.N,ADC-1 A2*%
X53340000Y-39370000D03*
%TO.P,J3,3,Pin_3*%
%TO.N,ADC-1 A1*%
X55880000Y-39370000D03*
%TO.P,J3,4,Pin_4*%
%TO.N,ADC-1 A0*%
X58420000Y-39370000D03*
%TO.P,J3,5,Pin_5*%
%TO.N,ADC1 alert*%
X60960000Y-39370000D03*
%TO.P,J3,6,Pin_6*%
%TO.N,GND*%
X63500000Y-39370000D03*
%TO.P,J3,7,Pin_7*%
%TO.N,sda*%
X66040000Y-39370000D03*
%TO.P,J3,8,Pin_8*%
%TO.N,scl*%
X68580000Y-39370000D03*
%TO.P,J3,9,Pin_9*%
%TO.N,GND*%
X71120000Y-39370000D03*
%TO.P,J3,10,Pin_10*%
%TO.N,+3.3V*%
X73660000Y-39370000D03*
%TD*%
D17*
%TO.P,R1,1*%
%TO.N,+3.3V*%
X73700000Y-17780000D03*
D18*
%TO.P,R1,2*%
%TO.N,ADC-1 A0*%
X76200000Y-17780000D03*
%TD*%
D11*
%TO.P,J9,1,Pin_1*%
%TO.N,ADC-3 A2*%
X19050000Y-17780000D03*
D12*
%TO.P,J9,2,Pin_2*%
%TO.N,+3.3V*%
X21590000Y-17780000D03*
%TO.P,J9,3,Pin_3*%
%TO.N,GND*%
X24130000Y-17780000D03*
%TD*%
D10*
%TO.P,H2,1,1*%
%TO.N,GND*%
X95000000Y-65000000D03*
%TD*%
D15*
%TO.P,R10,1*%
%TO.N,ADC-2 A1*%
X100330000Y-25400000D03*
D16*
%TO.P,R10,2*%
%TO.N,GND*%
X100330000Y-33020000D03*
%TD*%
D11*
%TO.P,J12,1,Pin_1*%
%TO.N,ADC-3 A3*%
X16002000Y-34137600D03*
D12*
%TO.P,J12,2,Pin_2*%
%TO.N,GND*%
X16002000Y-31597600D03*
%TO.P,J12,3,Pin_3*%
%TO.N,+3.3V*%
X16002000Y-29057600D03*
%TO.P,J12,4,Pin_4*%
%TO.N,unconnected-(J12-Pin_4-Pad4)*%
X16002000Y-26517600D03*
%TD*%
D11*
%TO.P,R11,1*%
%TO.N,+3.3V*%
X93980000Y-17780000D03*
D12*
%TO.P,R11,2*%
%TO.N,ADC-2 A2*%
X93980000Y-20320000D03*
%TD*%
D15*
%TO.P,R2,1*%
%TO.N,ADC-1 A0*%
X76200000Y-25400000D03*
D16*
%TO.P,R2,2*%
%TO.N,GND*%
X76200000Y-33020000D03*
%TD*%
D15*
%TO.P,R14,1*%
%TO.N,ADC-2 A3*%
X87630000Y-25400000D03*
D16*
%TO.P,R14,2*%
%TO.N,GND*%
X87630000Y-33020000D03*
%TD*%
D15*
%TO.P,R8,1*%
%TO.N,ADC-2 A0*%
X106660000Y-25400000D03*
D16*
%TO.P,R8,2*%
%TO.N,GND*%
X106660000Y-33020000D03*
%TD*%
D11*
%TO.P,R13,1*%
%TO.N,+3.3V*%
X87630000Y-17780000D03*
D12*
%TO.P,R13,2*%
%TO.N,ADC-2 A3*%
X87630000Y-20320000D03*
%TD*%
D19*
%TO.N,GND*%
X62230000Y-107315000D03*
D20*
X71120000Y-34036000D03*
X99822000Y-91440000D03*
X40538400Y-49123600D03*
X34645600Y-15138400D03*
X73673500Y-49530000D03*
X82550000Y-47802800D03*
X34239200Y-77571600D03*
X83820000Y-90678000D03*
X91378700Y-95250000D03*
X102616000Y-102616000D03*
X42773600Y-88290400D03*
X95250000Y-49530000D03*
X38811200Y-24638000D03*
D21*
X53975000Y-76200000D03*
D20*
X103378000Y-71882000D03*
D19*
X81381600Y-35204400D03*
D20*
X40487600Y-65684400D03*
X87568700Y-97155000D03*
D19*
X80619600Y-40081200D03*
X78435200Y-40081200D03*
D20*
X98998700Y-97536000D03*
X36728400Y-85902800D03*
X103632000Y-77470000D03*
X26670000Y-107315000D03*
X104775000Y-100330000D03*
X15240000Y-82550000D03*
D19*
X31750000Y-62484000D03*
D20*
X95188700Y-96266000D03*
D19*
X68580000Y-91440000D03*
D20*
X56388000Y-47904400D03*
X24130000Y-49428400D03*
X38354000Y-96012000D03*
X58420000Y-48158400D03*
X24638000Y-29718000D03*
X77216000Y-61468000D03*
X13970000Y-52984400D03*
D19*
X62230000Y-54178200D03*
X78587600Y-35204400D03*
D20*
X90170000Y-73025000D03*
X39370000Y-77393800D03*
X90779600Y-20980400D03*
X59690000Y-100330000D03*
X46990000Y-107315000D03*
X107950000Y-107950000D03*
D19*
X65532000Y-62230000D03*
D20*
X48260000Y-48260000D03*
X103886000Y-81534000D03*
X15163800Y-14986000D03*
X100076000Y-59182000D03*
X34925000Y-107315000D03*
X28448000Y-102870000D03*
X31750000Y-50495200D03*
X106680000Y-49530000D03*
X27940000Y-49428400D03*
X87630000Y-49530000D03*
X26035000Y-97155000D03*
X90881200Y-16052800D03*
X87630000Y-82550000D03*
X76200000Y-96520000D03*
X40640000Y-33528000D03*
D19*
X69215000Y-72390000D03*
D20*
X91440000Y-49530000D03*
X20320000Y-49377600D03*
X103632000Y-75184000D03*
X105156000Y-62992000D03*
X46278800Y-41656000D03*
%TO.N,+3.3V*%
X32258000Y-58674000D03*
X20320000Y-56134000D03*
D22*
X67386200Y-58978800D03*
D20*
X45669200Y-69062600D03*
X45669200Y-58674000D03*
%TO.N,sda*%
X57251600Y-37439600D03*
%TO.N,scl*%
X48006000Y-44348400D03*
D22*
X81229200Y-57353200D03*
%TD*%
D23*
%TO.N,GND*%
X46990000Y-17780000D02*
X46736000Y-17780000D01*
X42361000Y-41656000D02*
X40640000Y-39935000D01*
X46990000Y-17780000D02*
X49072800Y-19862800D01*
X72644000Y-40640000D02*
X72644000Y-41402000D01*
X45720000Y-18796000D02*
X45720000Y-20320000D01*
X46228000Y-41656000D02*
X42361000Y-41656000D01*
X71120000Y-39370000D02*
X71374000Y-39370000D01*
X46736000Y-17780000D02*
X45720000Y-18796000D01*
X71374000Y-39370000D02*
X72644000Y-40640000D01*
X78740000Y-106680000D02*
X78678700Y-106680000D01*
D24*
%TO.N,+3.3V*%
X77393800Y-42900600D02*
X73863200Y-39370000D01*
D23*
X43424800Y-16027400D02*
X51627400Y-16027400D01*
X45364400Y-16205200D02*
X45364400Y-16154400D01*
D25*
X13970000Y-30226000D02*
X15138400Y-29057600D01*
D23*
X44450000Y-17119600D02*
X45364400Y-16205200D01*
D24*
X35534600Y-16027400D02*
X34290000Y-17272000D01*
D23*
X71948000Y-16028000D02*
X65292000Y-16028000D01*
X87630000Y-17780000D02*
X86280000Y-17780000D01*
D25*
X32258000Y-58674000D02*
X45669200Y-58674000D01*
D23*
X73700000Y-17780000D02*
X71948000Y-16028000D01*
X55130800Y-16027400D02*
X55131700Y-16028300D01*
D25*
X67589400Y-58978800D02*
X77393800Y-49174400D01*
D23*
X43424800Y-16027400D02*
X44450000Y-17052600D01*
D24*
X34290000Y-17272000D02*
X34290000Y-17780000D01*
D23*
X65291700Y-16028300D02*
X65292000Y-16028000D01*
D24*
X77393800Y-49174400D02*
X77393800Y-42900600D01*
D25*
X13970000Y-49784000D02*
X13970000Y-30226000D01*
D23*
X73700000Y-17780000D02*
X75452500Y-16027500D01*
X106680000Y-17780000D02*
X100330000Y-17780000D01*
D26*
X32969200Y-15748000D02*
X23622000Y-15748000D01*
D23*
X53380000Y-17780000D02*
X55131700Y-16028300D01*
D25*
X67386200Y-58978800D02*
X45974000Y-58978800D01*
D23*
X61788300Y-16028300D02*
X63540000Y-17780000D01*
X73863200Y-39370000D02*
X73660000Y-39370000D01*
X51627400Y-16027400D02*
X53380000Y-17780000D01*
X65292000Y-16028000D02*
X63540000Y-17780000D01*
D25*
X20320000Y-56134000D02*
X13970000Y-49784000D01*
D23*
X15138400Y-29057600D02*
X16002000Y-29057600D01*
D25*
X67386200Y-58978800D02*
X67589400Y-58978800D01*
D23*
X51627400Y-16027400D02*
X55130800Y-16027400D01*
D24*
X34290000Y-17068800D02*
X32969200Y-15748000D01*
D23*
X44450000Y-17780000D02*
X44450000Y-17119600D01*
X84527500Y-16027500D02*
X86280000Y-17780000D01*
D25*
X45974000Y-58978800D02*
X45669200Y-58674000D01*
D27*
X45669200Y-69062600D02*
X45669200Y-58674000D01*
D23*
X93980000Y-17780000D02*
X87630000Y-17780000D01*
X61788300Y-16028300D02*
X65291700Y-16028300D01*
X44450000Y-17052600D02*
X44450000Y-17780000D01*
X34290000Y-17780000D02*
X34290000Y-17068800D01*
D24*
X43424800Y-16027400D02*
X35534600Y-16027400D01*
D26*
X23622000Y-15748000D02*
X21590000Y-17780000D01*
D23*
X55131700Y-16028300D02*
X61788300Y-16028300D01*
X75452500Y-16027500D02*
X84527500Y-16027500D01*
D25*
%TO.N,ADC-1 A0*%
X58420000Y-38049200D02*
X58420000Y-39370000D01*
D24*
X71069200Y-25400000D02*
X58420000Y-38049200D01*
D25*
X76200000Y-25400000D02*
X71069200Y-25400000D01*
D24*
%TO.N,ADC-2 A0*%
X106660000Y-22066700D02*
X106680000Y-22046700D01*
X106660000Y-25400000D02*
X106660000Y-22066700D01*
X106680000Y-20320000D02*
X106680000Y-22046700D01*
%TO.N,ADC-4 A3*%
X107315000Y-97155000D02*
X107619800Y-97459800D01*
X99201900Y-106476800D02*
X98998700Y-106680000D01*
X103073200Y-106476800D02*
X99201900Y-106476800D01*
X107619800Y-97459800D02*
X107619800Y-101930200D01*
X107619800Y-101930200D02*
X103073200Y-106476800D01*
%TO.N,ADC-3 A3*%
X16002000Y-34137600D02*
X16002000Y-35128200D01*
X20320000Y-39446200D02*
X20320000Y-39935000D01*
X16002000Y-35128200D02*
X20320000Y-39446200D01*
X15544800Y-34137600D02*
X16002000Y-34137600D01*
%TO.N,ADC-4 A0*%
X99060000Y-89535000D02*
X107315000Y-89535000D01*
X91378700Y-106680000D02*
X91378700Y-97216300D01*
X91378700Y-97216300D02*
X99060000Y-89535000D01*
%TO.N,ADC-4 A2*%
X96520000Y-106618700D02*
X96520000Y-102870000D01*
X104775000Y-94615000D02*
X107315000Y-94615000D01*
X96520000Y-102870000D02*
X104775000Y-94615000D01*
X96458700Y-106680000D02*
X96520000Y-106618700D01*
%TO.N,ADC-4 A1*%
X93918700Y-100137300D02*
X101981000Y-92075000D01*
X93918700Y-104963300D02*
X93918700Y-106680000D01*
X101981000Y-92075000D02*
X107315000Y-92075000D01*
X93918700Y-104963300D02*
X93918700Y-100137300D01*
%TO.N,ADC-3 A2*%
X19050000Y-22860000D02*
X19050000Y-17780000D01*
X22860000Y-39935000D02*
X22606000Y-39681000D01*
X22606000Y-27025600D02*
X19050000Y-23469600D01*
X19050000Y-23469600D02*
X19050000Y-22860000D01*
X22606000Y-39681000D02*
X22606000Y-27025600D01*
%TO.N,ADC-3 A1*%
X31750000Y-31858300D02*
X25400000Y-38208300D01*
X25400000Y-39935000D02*
X25400000Y-38208300D01*
X31750000Y-17780000D02*
X31750000Y-31858300D01*
D23*
%TO.N,sda*%
X57251600Y-37439600D02*
X38055400Y-37439600D01*
X38055400Y-37439600D02*
X35560000Y-39935000D01*
D25*
X75438000Y-76200000D02*
X76200000Y-76200000D01*
X65659000Y-86741000D02*
X65659000Y-85979000D01*
X17780000Y-101400000D02*
X18215000Y-100965000D01*
X51435000Y-100965000D02*
X65659000Y-86741000D01*
D23*
X66040000Y-39370000D02*
X67655900Y-37754100D01*
D25*
X65659000Y-85979000D02*
X75438000Y-76200000D01*
X18215000Y-100965000D02*
X51435000Y-100965000D01*
D23*
X67655900Y-37754100D02*
X97444100Y-37754100D01*
X97444100Y-37754100D02*
X99060000Y-39370000D01*
D25*
%TO.N,scl*%
X76200000Y-89295000D02*
X76200000Y-78740000D01*
D23*
X38093800Y-39935000D02*
X36474400Y-41554400D01*
X38100000Y-39935000D02*
X38093800Y-39935000D01*
D25*
X76454000Y-78740000D02*
X81280000Y-73914000D01*
X76200000Y-78740000D02*
X76454000Y-78740000D01*
X81280000Y-57404000D02*
X81229200Y-57353200D01*
X18401000Y-104521000D02*
X60974000Y-104521000D01*
D23*
X42513400Y-44348400D02*
X38100000Y-39935000D01*
D25*
X17780000Y-103900000D02*
X18401000Y-104521000D01*
X81280000Y-73914000D02*
X81280000Y-57404000D01*
D23*
X48006000Y-44348400D02*
X42513400Y-44348400D01*
D25*
X60974000Y-104521000D02*
X76200000Y-89295000D01*
D23*
X36474400Y-41554400D02*
X34639400Y-41554400D01*
X34639400Y-41554400D02*
X33020000Y-39935000D01*
%TO.N,ADC1 alert*%
X60960000Y-39370000D02*
X60706000Y-39370000D01*
X60706000Y-39370000D02*
X47752000Y-52324000D01*
X17780000Y-68072000D02*
X17780000Y-68580000D01*
X33528000Y-52324000D02*
X17780000Y-68072000D01*
X47752000Y-52324000D02*
X33528000Y-52324000D01*
%TO.N,ADC2 alert*%
X62270000Y-71080000D02*
X17780000Y-71080000D01*
X93980000Y-39370000D02*
X62270000Y-71080000D01*
D26*
%TO.N,ADC4 alert*%
X13970000Y-78740000D02*
X16630000Y-76080000D01*
D23*
X16630000Y-76080000D02*
X17780000Y-76080000D01*
D24*
X85090000Y-110490000D02*
X88838700Y-106741300D01*
X13970000Y-109728000D02*
X14732000Y-110490000D01*
D26*
X13970000Y-109728000D02*
X13970000Y-78740000D01*
D24*
X14732000Y-110490000D02*
X85090000Y-110490000D01*
D23*
X88838700Y-106680000D02*
X88838700Y-106741300D01*
%TO.N,ADC3 alert*%
X16290500Y-72090500D02*
X17780000Y-73580000D01*
X16290500Y-64483300D02*
X16290500Y-72090500D01*
X30480000Y-39935000D02*
X30480000Y-50293800D01*
X30480000Y-50293800D02*
X16290500Y-64483300D01*
D25*
%TO.N,Net-(J17-Pin_1)*%
X81788000Y-90678000D02*
X81788000Y-83312000D01*
D24*
X81788000Y-106110700D02*
X81218700Y-106680000D01*
X81788000Y-90678000D02*
X81788000Y-106110700D01*
D25*
X81788000Y-83312000D02*
X86360000Y-78740000D01*
D24*
%TO.N,Net-(J17-Pin_2)*%
X86360000Y-76200000D02*
X88900000Y-76200000D01*
X89916000Y-87249000D02*
X85090000Y-92075000D01*
X88900000Y-76200000D02*
X89916000Y-77216000D01*
X85090000Y-92075000D02*
X85090000Y-105348700D01*
X85090000Y-105348700D02*
X83758700Y-106680000D01*
X89916000Y-77216000D02*
X89916000Y-87249000D01*
D25*
X86298700Y-106680000D02*
X83758700Y-106680000D01*
%TD*%
%TA.AperFunction,Conductor*%
%TO.N,GND*%
G36*
X107692000Y-81354988D02*
G01*
X107634993Y-81322075D01*
X107507826Y-81288000D01*
X107376174Y-81288000D01*
X107249007Y-81322075D01*
X107192000Y-81354988D01*
X107192000Y-79681012D01*
X107249007Y-79713925D01*
X107376174Y-79748000D01*
X107507826Y-79748000D01*
X107634993Y-79713925D01*
X107692000Y-79681012D01*
X107692000Y-81354988D01*
G37*
%TD.AperFunction*%
%TA.AperFunction,Conductor*%
G36*
X107692000Y-78814988D02*
G01*
X107634993Y-78782075D01*
X107507826Y-78748000D01*
X107376174Y-78748000D01*
X107249007Y-78782075D01*
X107192000Y-78814988D01*
X107192000Y-77141012D01*
X107249007Y-77173925D01*
X107376174Y-77208000D01*
X107507826Y-77208000D01*
X107634993Y-77173925D01*
X107692000Y-77141012D01*
X107692000Y-78814988D01*
G37*
%TD.AperFunction*%
%TA.AperFunction,Conductor*%
G36*
X107692000Y-76274988D02*
G01*
X107634993Y-76242075D01*
X107507826Y-76208000D01*
X107376174Y-76208000D01*
X107249007Y-76242075D01*
X107192000Y-76274988D01*
X107192000Y-74601012D01*
X107249007Y-74633925D01*
X107376174Y-74668000D01*
X107507826Y-74668000D01*
X107634993Y-74633925D01*
X107692000Y-74601012D01*
X107692000Y-76274988D01*
G37*
%TD.AperFunction*%
%TA.AperFunction,Conductor*%
G36*
X107692000Y-73734988D02*
G01*
X107634993Y-73702075D01*
X107507826Y-73668000D01*
X107376174Y-73668000D01*
X107249007Y-73702075D01*
X107192000Y-73734988D01*
X107192000Y-72061012D01*
X107249007Y-72093925D01*
X107376174Y-72128000D01*
X107507826Y-72128000D01*
X107634993Y-72093925D01*
X107692000Y-72061012D01*
X107692000Y-73734988D01*
G37*
%TD.AperFunction*%
%TA.AperFunction,Conductor*%
G36*
X111105788Y-13219454D02*
G01*
X111186570Y-13273430D01*
X111240546Y-13354212D01*
X111259500Y-13449500D01*
X111259500Y-111010500D01*
X111240546Y-111105788D01*
X111186570Y-111186570D01*
X111105788Y-111240546D01*
X111010500Y-111259500D01*
X86866891Y-111259500D01*
X86771603Y-111240546D01*
X86690821Y-111186570D01*
X86636845Y-111105788D01*
X86617891Y-111010500D01*
X86636845Y-110915212D01*
X86690821Y-110834430D01*
X86986594Y-110538656D01*
X88936013Y-108589236D01*
X89016792Y-108535263D01*
X89094325Y-108516943D01*
X89102726Y-108516343D01*
X89361378Y-108460077D01*
X89609389Y-108367574D01*
X89841711Y-108240716D01*
X89959483Y-108152552D01*
X90047119Y-108110624D01*
X90144135Y-108105423D01*
X90235756Y-108137745D01*
X90257906Y-108152545D01*
X90375689Y-108240716D01*
X90608011Y-108367574D01*
X90856022Y-108460077D01*
X91114674Y-108516343D01*
X91378700Y-108535227D01*
X91642726Y-108516343D01*
X91901378Y-108460077D01*
X92149389Y-108367574D01*
X92381711Y-108240716D01*
X92499483Y-108152552D01*
X92587119Y-108110624D01*
X92684135Y-108105423D01*
X92775756Y-108137745D01*
X92797906Y-108152545D01*
X92915689Y-108240716D01*
X93148011Y-108367574D01*
X93396022Y-108460077D01*
X93654674Y-108516343D01*
X93918700Y-108535227D01*
X94182726Y-108516343D01*
X94441378Y-108460077D01*
X94689389Y-108367574D01*
X94921711Y-108240716D01*
X95039483Y-108152552D01*
X95127119Y-108110624D01*
X95224135Y-108105423D01*
X95315756Y-108137745D01*
X95337906Y-108152545D01*
X95455689Y-108240716D01*
X95688011Y-108367574D01*
X95936022Y-108460077D01*
X96194674Y-108516343D01*
X96458700Y-108535227D01*
X96722726Y-108516343D01*
X96981378Y-108460077D01*
X97229389Y-108367574D01*
X97300038Y-108328995D01*
X97392751Y-108299964D01*
X97489519Y-108308622D01*
X97575608Y-108353652D01*
X97576650Y-108354497D01*
X97595293Y-108369698D01*
X97775651Y-108463909D01*
X97971282Y-108519886D01*
X98090663Y-108530500D01*
X99906736Y-108530499D01*
X100026118Y-108519886D01*
X100221749Y-108463909D01*
X100402107Y-108369698D01*
X100559809Y-108241109D01*
X100688398Y-108083407D01*
X100739271Y-107986014D01*
X100800189Y-107910331D01*
X100885432Y-107863720D01*
X100959975Y-107852300D01*
X103181451Y-107852300D01*
X103181454Y-107852300D01*
X103181457Y-107852299D01*
X103181463Y-107852299D01*
X103395285Y-107818432D01*
X103395285Y-107818431D01*
X103395297Y-107818430D01*
X103601209Y-107751526D01*
X103735690Y-107683004D01*
X103794110Y-107653238D01*
X103794113Y-107653235D01*
X103794119Y-107653233D01*
X103815940Y-107637379D01*
X103871332Y-107597135D01*
X103969271Y-107525978D01*
X103969270Y-107525978D01*
X103969278Y-107525973D01*
X108668972Y-102826279D01*
X108722523Y-102752572D01*
X108722524Y-102752571D01*
X108773430Y-102682504D01*
X108796233Y-102651119D01*
X108796804Y-102650000D01*
X108829639Y-102585557D01*
X108894526Y-102458209D01*
X108961430Y-102252297D01*
X108962056Y-102248343D01*
X108995299Y-102038463D01*
X108995300Y-102038451D01*
X108995300Y-97990116D01*
X109010999Y-97903100D01*
X109051727Y-97793903D01*
X109095077Y-97677678D01*
X109151343Y-97419026D01*
X109170227Y-97155000D01*
X109151343Y-96890974D01*
X109095077Y-96632322D01*
X109002574Y-96384311D01*
X108875716Y-96151989D01*
X108787552Y-96034216D01*
X108745624Y-95946581D01*
X108740423Y-95849565D01*
X108772745Y-95757944D01*
X108787545Y-95735793D01*
X108875716Y-95618011D01*
X109002574Y-95385689D01*
X109095077Y-95137678D01*
X109151343Y-94879026D01*
X109170227Y-94615000D01*
X109151343Y-94350974D01*
X109095077Y-94092322D01*
X109002574Y-93844311D01*
X108875716Y-93611989D01*
X108787552Y-93494216D01*
X108745624Y-93406581D01*
X108740423Y-93309565D01*
X108772745Y-93217944D01*
X108787545Y-93195793D01*
X108875716Y-93078011D01*
X109002574Y-92845689D01*
X109095077Y-92597678D01*
X109151343Y-92339026D01*
X109170227Y-92075000D01*
X109151343Y-91810974D01*
X109095077Y-91552322D01*
X109002574Y-91304311D01*
X108963994Y-91233658D01*
X108934964Y-91140943D01*
X108943623Y-91044175D01*
X108988655Y-90958087D01*
X108989230Y-90957375D01*
X109004698Y-90938407D01*
X109098909Y-90758049D01*
X109154886Y-90562418D01*
X109165500Y-90443037D01*
X109165499Y-88626964D01*
X109154886Y-88507582D01*
X109098909Y-88311951D01*
X109004698Y-88131593D01*
X108876109Y-87973891D01*
X108718407Y-87845302D01*
X108718402Y-87845299D01*
X108538053Y-87751093D01*
X108538052Y-87751092D01*
X108538049Y-87751091D01*
X108342418Y-87695114D01*
X108223037Y-87684500D01*
X108223035Y-87684500D01*
X106406968Y-87684500D01*
X106406956Y-87684501D01*
X106287585Y-87695113D01*
X106091954Y-87751090D01*
X106091946Y-87751093D01*
X105911597Y-87845299D01*
X105911592Y-87845302D01*
X105753893Y-87973889D01*
X105753885Y-87973897D01*
X105677275Y-88067853D01*
X105602369Y-88129725D01*
X105509487Y-88158222D01*
X105484296Y-88159500D01*
X99168254Y-88159500D01*
X98951746Y-88159500D01*
X98951743Y-88159500D01*
X98951734Y-88159501D01*
X98737906Y-88193368D01*
X98589771Y-88241499D01*
X98589772Y-88241500D01*
X98531991Y-88260274D01*
X98531987Y-88260275D01*
X98531980Y-88260279D01*
X98339083Y-88358565D01*
X98295154Y-88390482D01*
X98295153Y-88390483D01*
X98163920Y-88485828D01*
X90329524Y-96320225D01*
X90202266Y-96495381D01*
X90103979Y-96688280D01*
X90103970Y-96688301D01*
X90037072Y-96894196D01*
X90037067Y-96894214D01*
X90003200Y-97108036D01*
X90003200Y-104787796D01*
X89984246Y-104883084D01*
X89930270Y-104963866D01*
X89849488Y-105017842D01*
X89754200Y-105036796D01*
X89658912Y-105017842D01*
X89634872Y-105006341D01*
X89609389Y-104992426D01*
X89361378Y-104899923D01*
X89158993Y-104855897D01*
X89102727Y-104843657D01*
X88838700Y-104824773D01*
X88574672Y-104843657D01*
X88491285Y-104861797D01*
X88316022Y-104899923D01*
X88244510Y-104926595D01*
X88068012Y-104992425D01*
X88068008Y-104992427D01*
X87835695Y-105119280D01*
X87835691Y-105119283D01*
X87835689Y-105119284D01*
X87717918Y-105207445D01*
X87630279Y-105249375D01*
X87533264Y-105254576D01*
X87441643Y-105222254D01*
X87419485Y-105207448D01*
X87301711Y-105119284D01*
X87234064Y-105082346D01*
X87069391Y-104992427D01*
X87069387Y-104992425D01*
X86821376Y-104899922D01*
X86821371Y-104899921D01*
X86661570Y-104865158D01*
X86572489Y-104826382D01*
X86505027Y-104756467D01*
X86469456Y-104666058D01*
X86465500Y-104621849D01*
X86465500Y-92747891D01*
X86484454Y-92652603D01*
X86538430Y-92571821D01*
X88667215Y-90443036D01*
X90965173Y-88145078D01*
X91065732Y-88006669D01*
X91092433Y-87969919D01*
X91190726Y-87777009D01*
X91217335Y-87695114D01*
X91257631Y-87571097D01*
X91291500Y-87357254D01*
X91291500Y-87140746D01*
X91291500Y-84999994D01*
X91794958Y-84999994D01*
X91794958Y-85000005D01*
X91815109Y-85358840D01*
X91815110Y-85358846D01*
X91875312Y-85713173D01*
X91875318Y-85713199D01*
X91974813Y-86058554D01*
X91974816Y-86058565D01*
X92112357Y-86390616D01*
X92286213Y-86705184D01*
X92286214Y-86705185D01*
X92494192Y-86998304D01*
X92494202Y-86998317D01*
X92566843Y-87079601D01*
X93884727Y-85761716D01*
X93970278Y-85879466D01*
X94120534Y-86029722D01*
X94238281Y-86115270D01*
X92920397Y-87433155D01*
X93001682Y-87505797D01*
X93001695Y-87505807D01*
X93294814Y-87713785D01*
X93294815Y-87713786D01*
X93609383Y-87887642D01*
X93941434Y-88025183D01*
X93941445Y-88025186D01*
X94286800Y-88124681D01*
X94286826Y-88124687D01*
X94641153Y-88184889D01*
X94641159Y-88184890D01*
X94999995Y-88205042D01*
X95000005Y-88205042D01*
X95358840Y-88184890D01*
X95358846Y-88184889D01*
X95713173Y-88124687D01*
X95713199Y-88124681D01*
X96058554Y-88025186D01*
X96058565Y-88025183D01*
X96390616Y-87887642D01*
X96705184Y-87713786D01*
X96705185Y-87713786D01*
X96998317Y-87505797D01*
X97079601Y-87433155D01*
X95761717Y-86115271D01*
X95879466Y-86029722D01*
X96029722Y-85879466D01*
X96115271Y-85761717D01*
X97433155Y-87079601D01*
X97505797Y-86998317D01*
X97713786Y-86705185D01*
X97713786Y-86705184D01*
X97887642Y-86390616D01*
X98025183Y-86058565D01*
X98025186Y-86058554D01*
X98124681Y-85713199D01*
X98124687Y-85713173D01*
X98184889Y-85358846D01*
X98184890Y-85358840D01*
X98205042Y-85000005D01*
X98205042Y-84999994D01*
X98184890Y-84641159D01*
X98184889Y-84641153D01*
X98124687Y-84286826D01*
X98124681Y-84286800D01*
X98025186Y-83941445D01*
X98025183Y-83941434D01*
X97887642Y-83609383D01*
X97713786Y-83294815D01*
X97713785Y-83294814D01*
X97505807Y-83001695D01*
X97505797Y-83001682D01*
X97433155Y-82920397D01*
X96115270Y-84238281D01*
X96029722Y-84120534D01*
X95879466Y-83970278D01*
X95761716Y-83884727D01*
X97079601Y-82566843D01*
X96998317Y-82494202D01*
X96998304Y-82494192D01*
X96705185Y-82286214D01*
X96705184Y-82286213D01*
X96390616Y-82112357D01*
X96058565Y-81974816D01*
X96058554Y-81974813D01*
X95713199Y-81875318D01*
X95713173Y-81875312D01*
X95358846Y-81815110D01*
X95358840Y-81815109D01*
X95000005Y-81794958D01*
X94999995Y-81794958D01*
X94641159Y-81815109D01*
X94641153Y-81815110D01*
X94286826Y-81875312D01*
X94286800Y-81875318D01*
X93941445Y-81974813D01*
X93941434Y-81974816D01*
X93609383Y-82112357D01*
X93294815Y-82286213D01*
X93294814Y-82286214D01*
X93001690Y-82494196D01*
X93001687Y-82494198D01*
X92920397Y-82566843D01*
X94238282Y-83884728D01*
X94120534Y-83970278D01*
X93970278Y-84120534D01*
X93884728Y-84238282D01*
X92566843Y-82920397D01*
X92494198Y-83001687D01*
X92494196Y-83001690D01*
X92286214Y-83294814D01*
X92286213Y-83294815D01*
X92112357Y-83609383D01*
X91974816Y-83941434D01*
X91974813Y-83941445D01*
X91875318Y-84286800D01*
X91875312Y-84286826D01*
X91815110Y-84641153D01*
X91815109Y-84641159D01*
X91794958Y-84999994D01*
X91291500Y-84999994D01*
X91291500Y-77107746D01*
X91291499Y-77107743D01*
X91291499Y-77107736D01*
X91257632Y-76893914D01*
X91257631Y-76893911D01*
X91257630Y-76893903D01*
X91190726Y-76687991D01*
X91161272Y-76630185D01*
X91092438Y-76495089D01*
X91092434Y-76495084D01*
X91092433Y-76495081D01*
X91065491Y-76457998D01*
X91053713Y-76441787D01*
X91053713Y-76441788D01*
X90965173Y-76319922D01*
X89796078Y-75150827D01*
X89796074Y-75150824D01*
X89620918Y-75023566D01*
X89428019Y-74925279D01*
X89428017Y-74925278D01*
X89428009Y-74925274D01*
X89428004Y-74925272D01*
X89428001Y-74925271D01*
X89222104Y-74858371D01*
X89222093Y-74858369D01*
X89215099Y-74857261D01*
X89215097Y-74857261D01*
X89008263Y-74824500D01*
X89008254Y-74824500D01*
X87693305Y-74824500D01*
X87598017Y-74805546D01*
X87544086Y-74774835D01*
X87529437Y-74763869D01*
X87464513Y-74691592D01*
X87432191Y-74599972D01*
X87437390Y-74502956D01*
X87474688Y-74421712D01*
X87533600Y-74337577D01*
X87633433Y-74123485D01*
X87633433Y-74123483D01*
X87690636Y-73910001D01*
X87690636Y-73910000D01*
X86793012Y-73910000D01*
X86825925Y-73852993D01*
X86860000Y-73725826D01*
X86860000Y-73594174D01*
X86825925Y-73467007D01*
X86793012Y-73410000D01*
X87690636Y-73410000D01*
X87690636Y-73409998D01*
X87633433Y-73196516D01*
X87633429Y-73196505D01*
X87533603Y-72982428D01*
X87533599Y-72982421D01*
X87474687Y-72898286D01*
X87435558Y-72809359D01*
X87433439Y-72712227D01*
X87468651Y-72621678D01*
X87529433Y-72556133D01*
X87574915Y-72522087D01*
X87762087Y-72334915D01*
X87920716Y-72123011D01*
X88047574Y-71890689D01*
X88140077Y-71642678D01*
X88196343Y-71384026D01*
X88215227Y-71120000D01*
X88196343Y-70855974D01*
X88168976Y-70730167D01*
X106092000Y-70730167D01*
X106092000Y-71377999D01*
X106092001Y-71378000D01*
X107008988Y-71378000D01*
X106976075Y-71435007D01*
X106942000Y-71562174D01*
X106942000Y-71693826D01*
X106976075Y-71820993D01*
X107008988Y-71878000D01*
X106092001Y-71878000D01*
X106092000Y-71878001D01*
X106092000Y-72525832D01*
X106098401Y-72585371D01*
X106098403Y-72585378D01*
X106148646Y-72720087D01*
X106234810Y-72835187D01*
X106234812Y-72835189D01*
X106364169Y-72932026D01*
X106361767Y-72935233D01*
X106410731Y-72976137D01*
X106455780Y-73062216D01*
X106464459Y-73158983D01*
X106435446Y-73251705D01*
X106407636Y-73292456D01*
X106403898Y-73296911D01*
X106268400Y-73490420D01*
X106268396Y-73490428D01*
X106168570Y-73704505D01*
X106168566Y-73704516D01*
X106111363Y-73917998D01*
X106111364Y-73918000D01*
X107008988Y-73918000D01*
X106976075Y-73975007D01*
X106942000Y-74102174D01*
X106942000Y-74233826D01*
X106976075Y-74360993D01*
X107008988Y-74418000D01*
X106111364Y-74418000D01*
X106111363Y-74418001D01*
X106168566Y-74631483D01*
X106168566Y-74631485D01*
X106268399Y-74845576D01*
X106403889Y-75039076D01*
X106570923Y-75206110D01*
X106610798Y-75234031D01*
X106677982Y-75304213D01*
X106713194Y-75394762D01*
X106711075Y-75491894D01*
X106671946Y-75580821D01*
X106610798Y-75641969D01*
X106570923Y-75669889D01*
X106403889Y-75836923D01*
X106268400Y-76030420D01*
X106268396Y-76030428D01*
X106168570Y-76244505D01*
X106168566Y-76244516D01*
X106111363Y-76457998D01*
X106111364Y-76458000D01*
X107008988Y-76458000D01*
X106976075Y-76515007D01*
X106942000Y-76642174D01*
X106942000Y-76773826D01*
X106976075Y-76900993D01*
X107008988Y-76958000D01*
X106111364Y-76958000D01*
X106111363Y-76958001D01*
X106168566Y-77171483D01*
X106168566Y-77171485D01*
X106268399Y-77385576D01*
X106403889Y-77579076D01*
X106570923Y-77746110D01*
X106610798Y-77774031D01*
X106677982Y-77844213D01*
X106713194Y-77934762D01*
X106711075Y-78031894D01*
X106671946Y-78120821D01*
X106610798Y-78181969D01*
X106570923Y-78209889D01*
X106403889Y-78376923D01*
X106268400Y-78570420D01*
X106268396Y-78570428D01*
X106168570Y-78784505D01*
X106168566Y-78784516D01*
X106111363Y-78997998D01*
X106111364Y-78998000D01*
X107008988Y-78998000D01*
X106976075Y-79055007D01*
X106942000Y-79182174D01*
X106942000Y-79313826D01*
X106976075Y-79440993D01*
X107008988Y-79498000D01*
X106111364Y-79498000D01*
X106111363Y-79498001D01*
X106168566Y-79711483D01*
X106168566Y-79711485D01*
X106268399Y-79925576D01*
X106403889Y-80119076D01*
X106570923Y-80286110D01*
X106610798Y-80314031D01*
X106677982Y-80384213D01*
X106713194Y-80474762D01*
X106711075Y-80571894D01*
X106671946Y-80660821D01*
X106610798Y-80721969D01*
X106570923Y-80749889D01*
X106403889Y-80916923D01*
X106268400Y-81110420D01*
X106268396Y-81110428D01*
X106168570Y-81324505D01*
X106168566Y-81324516D01*
X106111363Y-81537998D01*
X106111364Y-81538000D01*
X107008988Y-81538000D01*
X106976075Y-81595007D01*
X106942000Y-81722174D01*
X106942000Y-81853826D01*
X106976075Y-81980993D01*
X107008988Y-82038000D01*
X106111364Y-82038000D01*
X106111363Y-82038001D01*
X106168566Y-82251483D01*
X106168566Y-82251485D01*
X106268399Y-82465576D01*
X106403889Y-82659076D01*
X106570923Y-82826110D01*
X106764423Y-82961600D01*
X106978511Y-83061431D01*
X107192000Y-83118635D01*
X107192000Y-82221012D01*
X107249007Y-82253925D01*
X107376174Y-82288000D01*
X107507826Y-82288000D01*
X107634993Y-82253925D01*
X107692000Y-82221012D01*
X107692000Y-83118635D01*
X107905488Y-83061431D01*
X108119576Y-82961600D01*
X108313076Y-82826110D01*
X108480110Y-82659076D01*
X108615600Y-82465576D01*
X108715433Y-82251485D01*
X108715433Y-82251483D01*
X108772636Y-82038001D01*
X108772636Y-82038000D01*
X107875012Y-82038000D01*
X107907925Y-81980993D01*
X107942000Y-81853826D01*
X107942000Y-81722174D01*
X107907925Y-81595007D01*
X107875012Y-81538000D01*
X108772636Y-81538000D01*
X108772636Y-81537998D01*
X108715433Y-81324516D01*
X108715429Y-81324505D01*
X108615603Y-81110428D01*
X108615599Y-81110420D01*
X108480110Y-80916923D01*
X108313075Y-80749888D01*
X108273203Y-80721970D01*
X108206018Y-80651789D01*
X108170805Y-80561240D01*
X108172924Y-80464108D01*
X108212052Y-80375181D01*
X108273203Y-80314030D01*
X108313075Y-80286111D01*
X108480110Y-80119076D01*
X108615600Y-79925576D01*
X108715433Y-79711485D01*
X108715433Y-79711483D01*
X108772636Y-79498001D01*
X108772636Y-79498000D01*
X107875012Y-79498000D01*
X107907925Y-79440993D01*
X107942000Y-79313826D01*
X107942000Y-79182174D01*
X107907925Y-79055007D01*
X107875012Y-78998000D01*
X108772636Y-78998000D01*
X108772636Y-78997998D01*
X108715433Y-78784516D01*
X108715429Y-78784505D01*
X108615603Y-78570428D01*
X108615599Y-78570420D01*
X108480110Y-78376923D01*
X108313075Y-78209888D01*
X108273203Y-78181970D01*
X108206018Y-78111789D01*
X108170805Y-78021240D01*
X108172924Y-77924108D01*
X108212052Y-77835181D01*
X108273203Y-77774030D01*
X108313075Y-77746111D01*
X108480110Y-77579076D01*
X108615600Y-77385576D01*
X108715433Y-77171485D01*
X108715433Y-77171483D01*
X108772636Y-76958001D01*
X108772636Y-76958000D01*
X107875012Y-76958000D01*
X107907925Y-76900993D01*
X107942000Y-76773826D01*
X107942000Y-76642174D01*
X107907925Y-76515007D01*
X107875012Y-76458000D01*
X108772636Y-76458000D01*
X108772636Y-76457998D01*
X108715433Y-76244516D01*
X108715429Y-76244505D01*
X108615603Y-76030428D01*
X108615599Y-76030420D01*
X108480110Y-75836923D01*
X108313075Y-75669888D01*
X108273203Y-75641970D01*
X108206018Y-75571789D01*
X108170805Y-75481240D01*
X108172924Y-75384108D01*
X108212052Y-75295181D01*
X108273203Y-75234030D01*
X108313075Y-75206111D01*
X108480110Y-75039076D01*
X108615600Y-74845576D01*
X108715433Y-74631485D01*
X108715433Y-74631483D01*
X108772636Y-74418001D01*
X108772636Y-74418000D01*
X107875012Y-74418000D01*
X107907925Y-74360993D01*
X107942000Y-74233826D01*
X107942000Y-74102174D01*
X107907925Y-73975007D01*
X107875012Y-73918000D01*
X108772636Y-73918000D01*
X108772636Y-73917998D01*
X108715433Y-73704516D01*
X108715429Y-73704505D01*
X108615603Y-73490428D01*
X108615599Y-73490420D01*
X108480103Y-73296913D01*
X108476370Y-73292464D01*
X108474134Y-73288389D01*
X108473874Y-73288017D01*
X108473914Y-73287988D01*
X108429642Y-73207285D01*
X108419067Y-73110707D01*
X108446256Y-73017434D01*
X108507070Y-72941666D01*
X108520293Y-72932643D01*
X108519831Y-72932026D01*
X108649187Y-72835189D01*
X108649189Y-72835187D01*
X108735353Y-72720087D01*
X108785596Y-72585378D01*
X108785598Y-72585371D01*
X108791999Y-72525832D01*
X108792000Y-72525825D01*
X108792000Y-71878001D01*
X108791999Y-71878000D01*
X107875012Y-71878000D01*
X107907925Y-71820993D01*
X107942000Y-71693826D01*
X107942000Y-71562174D01*
X107907925Y-71435007D01*
X107875012Y-71378000D01*
X108791999Y-71378000D01*
X108792000Y-71377999D01*
X108792000Y-70730175D01*
X108791999Y-70730167D01*
X108785598Y-70670628D01*
X108785596Y-70670621D01*
X108735353Y-70535912D01*
X108649189Y-70420812D01*
X108649187Y-70420810D01*
X108534087Y-70334646D01*
X108399378Y-70284403D01*
X108399371Y-70284401D01*
X108339832Y-70278000D01*
X107692001Y-70278000D01*
X107692000Y-70278001D01*
X107692000Y-71194988D01*
X107634993Y-71162075D01*
X107507826Y-71128000D01*
X107376174Y-71128000D01*
X107249007Y-71162075D01*
X107192000Y-71194988D01*
X107192000Y-70278001D01*
X107191999Y-70278000D01*
X106544167Y-70278000D01*
X106484628Y-70284401D01*
X106484621Y-70284403D01*
X106349912Y-70334646D01*
X106234812Y-70420810D01*
X106234810Y-70420812D01*
X106148646Y-70535912D01*
X106098403Y-70670621D01*
X106098401Y-70670628D01*
X106092000Y-70730167D01*
X88168976Y-70730167D01*
X88140077Y-70597322D01*
X88047574Y-70349311D01*
X87920716Y-70116989D01*
X87832552Y-69999216D01*
X87790624Y-69911581D01*
X87785423Y-69814565D01*
X87817745Y-69722944D01*
X87832545Y-69700793D01*
X87920716Y-69583011D01*
X88047574Y-69350689D01*
X88140077Y-69102678D01*
X88196343Y-68844026D01*
X88215227Y-68580000D01*
X88196343Y-68315974D01*
X88140077Y-68057322D01*
X88047574Y-67809311D01*
X87920716Y-67576989D01*
X87832552Y-67459216D01*
X87790624Y-67371581D01*
X87785423Y-67274565D01*
X87817745Y-67182944D01*
X87832545Y-67160793D01*
X87920716Y-67043011D01*
X88047574Y-66810689D01*
X88140077Y-66562678D01*
X88196343Y-66304026D01*
X88215227Y-66040000D01*
X88196343Y-65775974D01*
X88140077Y-65517322D01*
X88047574Y-65269311D01*
X87920716Y-65036989D01*
X87893022Y-64999994D01*
X91794958Y-64999994D01*
X91794958Y-65000005D01*
X91815109Y-65358840D01*
X91815110Y-65358846D01*
X91875312Y-65713173D01*
X91875318Y-65713199D01*
X91974813Y-66058554D01*
X91974816Y-66058565D01*
X92112357Y-66390616D01*
X92286213Y-66705184D01*
X92286214Y-66705185D01*
X92494192Y-66998304D01*
X92494202Y-66998317D01*
X92566843Y-67079601D01*
X93884727Y-65761716D01*
X93970278Y-65879466D01*
X94120534Y-66029722D01*
X94238281Y-66115270D01*
X92920397Y-67433155D01*
X93001682Y-67505797D01*
X93001695Y-67505807D01*
X93294814Y-67713785D01*
X93294815Y-67713786D01*
X93609383Y-67887642D01*
X93941434Y-68025183D01*
X93941445Y-68025186D01*
X94286800Y-68124681D01*
X94286826Y-68124687D01*
X94641153Y-68184889D01*
X94641159Y-68184890D01*
X94999995Y-68205042D01*
X95000005Y-68205042D01*
X95358840Y-68184890D01*
X95358846Y-68184889D01*
X95713173Y-68124687D01*
X95713199Y-68124681D01*
X96058554Y-68025186D01*
X96058565Y-68025183D01*
X96390616Y-67887642D01*
X96705184Y-67713786D01*
X96705185Y-67713786D01*
X96998317Y-67505797D01*
X97079601Y-67433155D01*
X95761717Y-66115271D01*
X95879466Y-66029722D01*
X96029722Y-65879466D01*
X96115271Y-65761717D01*
X97433155Y-67079601D01*
X97505797Y-66998317D01*
X97713786Y-66705185D01*
X97713786Y-66705184D01*
X97887642Y-66390616D01*
X98025183Y-66058565D01*
X98025186Y-66058554D01*
X98124681Y-65713199D01*
X98124687Y-65713173D01*
X98184889Y-65358846D01*
X98184890Y-65358840D01*
X98205042Y-65000005D01*
X98205042Y-64999994D01*
X98184890Y-64641159D01*
X98184889Y-64641153D01*
X98124687Y-64286826D01*
X98124681Y-64286800D01*
X98025186Y-63941445D01*
X98025183Y-63941434D01*
X97887642Y-63609383D01*
X97713786Y-63294815D01*
X97713785Y-63294814D01*
X97505807Y-63001695D01*
X97505797Y-63001682D01*
X97433155Y-62920397D01*
X96115270Y-64238281D01*
X96029722Y-64120534D01*
X95879466Y-63970278D01*
X95761716Y-63884727D01*
X97079601Y-62566843D01*
X96998317Y-62494202D01*
X96998304Y-62494192D01*
X96705185Y-62286214D01*
X96705184Y-62286213D01*
X96390616Y-62112357D01*
X96058565Y-61974816D01*
X96058554Y-61974813D01*
X95713199Y-61875318D01*
X95713173Y-61875312D01*
X95358846Y-61815110D01*
X95358840Y-61815109D01*
X95000005Y-61794958D01*
X94999995Y-61794958D01*
X94641159Y-61815109D01*
X94641153Y-61815110D01*
X94286826Y-61875312D01*
X94286800Y-61875318D01*
X93941445Y-61974813D01*
X93941434Y-61974816D01*
X93609383Y-62112357D01*
X93294815Y-62286213D01*
X93294814Y-62286214D01*
X93001690Y-62494196D01*
X93001687Y-62494198D01*
X92920397Y-62566843D01*
X94238282Y-63884728D01*
X94120534Y-63970278D01*
X93970278Y-64120534D01*
X93884728Y-64238282D01*
X92566843Y-62920397D01*
X92494198Y-63001687D01*
X92494196Y-63001690D01*
X92286214Y-63294814D01*
X92286213Y-63294815D01*
X92112357Y-63609383D01*
X91974816Y-63941434D01*
X91974813Y-63941445D01*
X91875318Y-64286800D01*
X91875312Y-64286826D01*
X91815110Y-64641153D01*
X91815109Y-64641159D01*
X91794958Y-64999994D01*
X87893022Y-64999994D01*
X87762087Y-64825085D01*
X87574915Y-64637913D01*
X87363011Y-64479284D01*
X87362291Y-64478891D01*
X87130691Y-64352427D01*
X87130687Y-64352425D01*
X87059177Y-64325753D01*
X86882678Y-64259923D01*
X86680293Y-64215897D01*
X86624027Y-64203657D01*
X86360000Y-64184773D01*
X86095972Y-64203657D01*
X85983440Y-64228137D01*
X85837322Y-64259923D01*
X85765810Y-64286595D01*
X85589312Y-64352425D01*
X85589308Y-64352427D01*
X85356995Y-64479280D01*
X85356989Y-64479284D01*
X85145085Y-64637913D01*
X85145084Y-64637914D01*
X84957914Y-64825084D01*
X84957912Y-64825087D01*
X84799284Y-65036989D01*
X84799280Y-65036995D01*
X84672427Y-65269308D01*
X84672425Y-65269312D01*
X84639031Y-65358846D01*
X84579923Y-65517322D01*
X84579728Y-65518220D01*
X84523657Y-65775972D01*
X84504773Y-66040000D01*
X84523657Y-66304027D01*
X84533658Y-66350000D01*
X84579923Y-66562678D01*
X84672426Y-66810689D01*
X84799284Y-67043011D01*
X84887444Y-67160779D01*
X84887445Y-67160780D01*
X84929375Y-67248421D01*
X84934576Y-67345436D01*
X84902254Y-67437057D01*
X84887448Y-67459214D01*
X84885384Y-67461973D01*
X84799284Y-67576989D01*
X84799280Y-67576995D01*
X84672427Y-67809308D01*
X84672425Y-67809312D01*
X84672425Y-67809313D01*
X84579923Y-68057322D01*
X84523657Y-68315974D01*
X84504773Y-68580000D01*
X84523657Y-68844026D01*
X84579923Y-69102678D01*
X84672426Y-69350689D01*
X84799284Y-69583011D01*
X84868736Y-69675788D01*
X84887445Y-69700780D01*
X84929375Y-69788421D01*
X84934576Y-69885436D01*
X84902254Y-69977057D01*
X84887445Y-69999220D01*
X84799284Y-70116989D01*
X84799280Y-70116995D01*
X84672427Y-70349308D01*
X84672425Y-70349312D01*
X84606595Y-70525810D01*
X84579923Y-70597322D01*
X84523657Y-70855974D01*
X84504773Y-71120000D01*
X84523657Y-71384026D01*
X84579923Y-71642678D01*
X84645753Y-71819177D01*
X84672425Y-71890687D01*
X84672427Y-71890691D01*
X84727791Y-71992083D01*
X84799284Y-72123011D01*
X84957913Y-72334915D01*
X85145085Y-72522087D01*
X85190566Y-72556133D01*
X85255486Y-72628406D01*
X85287808Y-72720027D01*
X85282609Y-72817042D01*
X85245313Y-72898284D01*
X85186403Y-72982417D01*
X85186396Y-72982428D01*
X85086570Y-73196505D01*
X85086566Y-73196516D01*
X85029363Y-73409998D01*
X85029364Y-73410000D01*
X85926988Y-73410000D01*
X85894075Y-73467007D01*
X85860000Y-73594174D01*
X85860000Y-73725826D01*
X85894075Y-73852993D01*
X85926988Y-73910000D01*
X85029364Y-73910000D01*
X85029363Y-73910001D01*
X85086566Y-74123483D01*
X85086566Y-74123485D01*
X85186400Y-74337579D01*
X85245312Y-74421714D01*
X85284441Y-74510641D01*
X85286560Y-74607773D01*
X85251347Y-74698322D01*
X85190564Y-74763868D01*
X85145089Y-74797909D01*
X85145085Y-74797913D01*
X84957913Y-74985085D01*
X84880851Y-75088028D01*
X84799284Y-75196989D01*
X84799280Y-75196995D01*
X84672427Y-75429308D01*
X84672425Y-75429312D01*
X84619285Y-75571789D01*
X84579923Y-75677322D01*
X84548137Y-75823440D01*
X84523657Y-75935972D01*
X84504773Y-76200000D01*
X84523657Y-76464027D01*
X84530414Y-76495089D01*
X84579923Y-76722678D01*
X84643784Y-76893896D01*
X84672425Y-76970687D01*
X84672427Y-76970691D01*
X84711004Y-77041340D01*
X84740035Y-77134057D01*
X84731376Y-77230825D01*
X84686343Y-77316913D01*
X84685443Y-77318024D01*
X84670301Y-77336593D01*
X84670299Y-77336596D01*
X84576093Y-77516946D01*
X84576090Y-77516954D01*
X84520115Y-77712578D01*
X84520114Y-77712582D01*
X84509500Y-77831963D01*
X84509500Y-78365332D01*
X84490546Y-78460620D01*
X84436570Y-78541402D01*
X80643481Y-82334492D01*
X80504657Y-82525566D01*
X80397431Y-82736010D01*
X80397429Y-82736015D01*
X80324446Y-82960635D01*
X80287501Y-83193896D01*
X80287500Y-83193912D01*
X80287500Y-90796087D01*
X80287501Y-90796103D01*
X80324446Y-91029364D01*
X80400313Y-91262859D01*
X80412500Y-91339804D01*
X80412500Y-104864077D01*
X80393546Y-104959365D01*
X80339570Y-105040147D01*
X80282836Y-105082618D01*
X80215690Y-105119283D01*
X80215689Y-105119284D01*
X80003785Y-105277913D01*
X80003784Y-105277914D01*
X79816609Y-105465089D01*
X79782568Y-105510564D01*
X79710290Y-105575487D01*
X79618669Y-105607809D01*
X79521654Y-105602608D01*
X79440414Y-105565312D01*
X79356279Y-105506400D01*
X79142184Y-105406566D01*
X78928701Y-105349363D01*
X78928700Y-105349364D01*
X78928700Y-106246988D01*
X78871693Y-106214075D01*
X78744526Y-106180000D01*
X78612874Y-106180000D01*
X78485707Y-106214075D01*
X78428700Y-106246988D01*
X78428700Y-105349364D01*
X78428698Y-105349363D01*
X78215216Y-105406566D01*
X78215205Y-105406570D01*
X78001128Y-105506396D01*
X78001117Y-105506403D01*
X77916984Y-105565313D01*
X77828057Y-105604441D01*
X77730925Y-105606560D01*
X77640376Y-105571347D01*
X77574834Y-105510566D01*
X77540787Y-105465085D01*
X77353615Y-105277913D01*
X77141711Y-105119284D01*
X77074064Y-105082346D01*
X76909391Y-104992427D01*
X76909387Y-104992425D01*
X76820749Y-104959365D01*
X76661378Y-104899923D01*
X76458993Y-104855897D01*
X76402727Y-104843657D01*
X76138700Y-104824773D01*
X75874672Y-104843657D01*
X75791285Y-104861797D01*
X75616022Y-104899923D01*
X75544510Y-104926595D01*
X75368012Y-104992425D01*
X75368008Y-104992427D01*
X75135695Y-105119280D01*
X75135691Y-105119283D01*
X75135689Y-105119284D01*
X74923785Y-105277913D01*
X74736613Y-105465085D01*
X74600210Y-105647298D01*
X74577984Y-105676989D01*
X74577980Y-105676995D01*
X74451127Y-105909308D01*
X74451125Y-105909312D01*
X74409282Y-106021500D01*
X74358623Y-106157322D01*
X74345716Y-106216657D01*
X74302357Y-106415972D01*
X74283473Y-106680000D01*
X74302357Y-106944027D01*
X74311707Y-106987007D01*
X74358623Y-107202678D01*
X74402053Y-107319119D01*
X74451125Y-107450687D01*
X74451127Y-107450691D01*
X74561726Y-107653238D01*
X74577984Y-107683011D01*
X74736613Y-107894915D01*
X74923785Y-108082087D01*
X75135689Y-108240716D01*
X75368011Y-108367574D01*
X75616022Y-108460077D01*
X75874674Y-108516343D01*
X76138700Y-108535227D01*
X76402726Y-108516343D01*
X76661378Y-108460077D01*
X76909389Y-108367574D01*
X77141711Y-108240716D01*
X77353615Y-108082087D01*
X77540787Y-107894915D01*
X77574832Y-107849436D01*
X77647108Y-107784513D01*
X77738728Y-107752191D01*
X77835744Y-107757390D01*
X77916988Y-107794688D01*
X78001122Y-107853600D01*
X78215211Y-107953431D01*
X78428700Y-108010635D01*
X78428700Y-107113012D01*
X78485707Y-107145925D01*
X78612874Y-107180000D01*
X78744526Y-107180000D01*
X78871693Y-107145925D01*
X78928700Y-107113012D01*
X78928700Y-108010635D01*
X79142188Y-107953431D01*
X79356277Y-107853600D01*
X79440412Y-107794688D01*
X79529339Y-107755559D01*
X79626471Y-107753439D01*
X79717021Y-107788651D01*
X79782567Y-107849435D01*
X79816613Y-107894915D01*
X80003785Y-108082087D01*
X80215689Y-108240716D01*
X80448011Y-108367574D01*
X80696022Y-108460077D01*
X80954674Y-108516343D01*
X81218700Y-108535227D01*
X81482726Y-108516343D01*
X81741378Y-108460077D01*
X81989389Y-108367574D01*
X82221711Y-108240716D01*
X82339483Y-108152552D01*
X82427119Y-108110624D01*
X82524135Y-108105423D01*
X82615756Y-108137745D01*
X82637906Y-108152545D01*
X82755689Y-108240716D01*
X82988011Y-108367574D01*
X83236022Y-108460077D01*
X83494674Y-108516343D01*
X83758700Y-108535227D01*
X84022726Y-108516343D01*
X84281378Y-108460077D01*
X84529389Y-108367574D01*
X84634624Y-108310111D01*
X84727337Y-108281081D01*
X84824105Y-108289740D01*
X84910194Y-108334772D01*
X84972497Y-108409320D01*
X85001528Y-108502036D01*
X84992869Y-108598804D01*
X84947837Y-108684893D01*
X84930025Y-108704723D01*
X84593180Y-109041569D01*
X84512399Y-109095546D01*
X84417110Y-109114500D01*
X20463735Y-109114500D01*
X20368447Y-109095546D01*
X20287665Y-109041570D01*
X20233689Y-108960788D01*
X20214735Y-108865500D01*
X20233689Y-108770212D01*
X20287665Y-108689430D01*
X20312945Y-108668682D01*
X20312704Y-108668388D01*
X20322154Y-108660630D01*
X20322162Y-108660626D01*
X20440626Y-108542162D01*
X20533703Y-108402863D01*
X20597816Y-108248082D01*
X20630500Y-108083767D01*
X20630500Y-107916233D01*
X20597816Y-107751918D01*
X20533703Y-107597137D01*
X20440626Y-107457838D01*
X20322162Y-107339374D01*
X20291851Y-107319121D01*
X20182864Y-107246298D01*
X20182863Y-107246297D01*
X20182860Y-107246296D01*
X20182859Y-107246295D01*
X20028086Y-107182185D01*
X20028082Y-107182184D01*
X19863767Y-107149500D01*
X19696233Y-107149500D01*
X19552575Y-107178074D01*
X19455422Y-107178074D01*
X19365663Y-107140895D01*
X19296964Y-107072196D01*
X19259784Y-106982436D01*
X19255000Y-106933859D01*
X19255000Y-106650001D01*
X19254999Y-106650000D01*
X18184146Y-106650000D01*
X18222630Y-106583343D01*
X18255000Y-106462535D01*
X18255000Y-106337465D01*
X18222630Y-106216657D01*
X18184146Y-106150000D01*
X19254998Y-106150000D01*
X19310568Y-106094430D01*
X19391350Y-106040454D01*
X19486638Y-106021500D01*
X61092088Y-106021500D01*
X61092092Y-106021500D01*
X61325368Y-105984553D01*
X61549992Y-105911568D01*
X61760434Y-105804343D01*
X61951510Y-105665517D01*
X77344518Y-90272510D01*
X77483343Y-90081433D01*
X77590568Y-89870992D01*
X77663553Y-89646368D01*
X77700500Y-89413092D01*
X77700500Y-89176908D01*
X77700500Y-79906325D01*
X77719454Y-79811037D01*
X77750166Y-79757104D01*
X77760716Y-79743011D01*
X77887574Y-79510689D01*
X77917561Y-79430288D01*
X77968618Y-79347632D01*
X77974764Y-79341261D01*
X82424518Y-74891510D01*
X82563343Y-74700433D01*
X82670568Y-74489992D01*
X82743553Y-74265368D01*
X82780500Y-74032092D01*
X82780500Y-73795908D01*
X82780500Y-57404000D01*
X105840773Y-57404000D01*
X105854616Y-57597553D01*
X105859657Y-57668026D01*
X105915923Y-57926678D01*
X106008426Y-58174689D01*
X106135284Y-58407011D01*
X106135285Y-58407012D01*
X106223445Y-58524780D01*
X106265375Y-58612421D01*
X106270576Y-58709436D01*
X106238254Y-58801057D01*
X106223445Y-58823220D01*
X106135284Y-58940989D01*
X106135280Y-58940995D01*
X106008427Y-59173308D01*
X106008425Y-59173312D01*
X105942595Y-59349810D01*
X105915923Y-59421322D01*
X105884137Y-59567440D01*
X105859657Y-59679972D01*
X105840773Y-59944000D01*
X105854616Y-60137553D01*
X105859657Y-60208026D01*
X105915923Y-60466678D01*
X106008426Y-60714689D01*
X106135284Y-60947011D01*
X106135285Y-60947012D01*
X106223445Y-61064780D01*
X106265375Y-61152421D01*
X106270576Y-61249436D01*
X106238254Y-61341057D01*
X106223445Y-61363220D01*
X106135284Y-61480989D01*
X106135280Y-61480995D01*
X106008427Y-61713308D01*
X106008425Y-61713312D01*
X105977973Y-61794958D01*
X105915923Y-61961322D01*
X105859657Y-62219974D01*
X105840773Y-62484000D01*
X105859657Y-62748026D01*
X105915923Y-63006678D01*
X105981753Y-63183177D01*
X106008425Y-63254687D01*
X106008427Y-63254691D01*
X106030336Y-63294815D01*
X106135284Y-63487011D01*
X106135285Y-63487012D01*
X106223445Y-63604780D01*
X106265375Y-63692421D01*
X106270576Y-63789436D01*
X106238254Y-63881057D01*
X106223445Y-63903220D01*
X106135284Y-64020989D01*
X106135280Y-64020995D01*
X106008427Y-64253308D01*
X106008425Y-64253312D01*
X105959357Y-64384871D01*
X105915923Y-64501322D01*
X105884354Y-64646445D01*
X105859657Y-64759972D01*
X105840773Y-65024000D01*
X105858318Y-65269312D01*
X105859657Y-65288026D01*
X105915923Y-65546678D01*
X106008426Y-65794689D01*
X106135284Y-66027011D01*
X106293913Y-66238915D01*
X106481085Y-66426087D01*
X106692989Y-66584716D01*
X106925311Y-66711574D01*
X107173322Y-66804077D01*
X107431974Y-66860343D01*
X107696000Y-66879227D01*
X107960026Y-66860343D01*
X108218678Y-66804077D01*
X108466689Y-66711574D01*
X108699011Y-66584716D01*
X108910915Y-66426087D01*
X109098087Y-66238915D01*
X109256716Y-66027011D01*
X109383574Y-65794689D01*
X109476077Y-65546678D01*
X109532343Y-65288026D01*
X109551227Y-65024000D01*
X109532343Y-64759974D01*
X109476077Y-64501322D01*
X109383574Y-64253311D01*
X109256716Y-64020989D01*
X109168552Y-63903216D01*
X109126624Y-63815581D01*
X109121423Y-63718565D01*
X109153745Y-63626944D01*
X109168545Y-63604793D01*
X109256716Y-63487011D01*
X109383574Y-63254689D01*
X109476077Y-63006678D01*
X109532343Y-62748026D01*
X109551227Y-62484000D01*
X109532343Y-62219974D01*
X109476077Y-61961322D01*
X109383574Y-61713311D01*
X109256716Y-61480989D01*
X109168552Y-61363216D01*
X109126624Y-61275581D01*
X109121423Y-61178565D01*
X109153745Y-61086944D01*
X109168545Y-61064793D01*
X109256716Y-60947011D01*
X109383574Y-60714689D01*
X109476077Y-60466678D01*
X109532343Y-60208026D01*
X109551227Y-59944000D01*
X109532343Y-59679974D01*
X109476077Y-59421322D01*
X109383574Y-59173311D01*
X109256716Y-58940989D01*
X109168552Y-58823216D01*
X109126624Y-58735581D01*
X109121423Y-58638565D01*
X109153745Y-58546944D01*
X109168545Y-58524793D01*
X109256716Y-58407011D01*
X109383574Y-58174689D01*
X109476077Y-57926678D01*
X109532343Y-57668026D01*
X109551227Y-57404000D01*
X109532343Y-57139974D01*
X109476077Y-56881322D01*
X109383574Y-56633311D01*
X109344994Y-56562658D01*
X109315964Y-56469943D01*
X109324623Y-56373175D01*
X109369655Y-56287087D01*
X109370230Y-56286375D01*
X109385698Y-56267407D01*
X109479909Y-56087049D01*
X109535886Y-55891418D01*
X109546500Y-55772037D01*
X109546499Y-53955964D01*
X109535886Y-53836582D01*
X109479909Y-53640951D01*
X109385698Y-53460593D01*
X109257109Y-53302891D01*
X109099407Y-53174302D01*
X109099402Y-53174299D01*
X108919053Y-53080093D01*
X108919052Y-53080092D01*
X108919049Y-53080091D01*
X108723418Y-53024114D01*
X108604037Y-53013500D01*
X108604035Y-53013500D01*
X106787968Y-53013500D01*
X106787956Y-53013501D01*
X106668585Y-53024113D01*
X106472954Y-53080090D01*
X106472946Y-53080093D01*
X106292597Y-53174299D01*
X106292592Y-53174302D01*
X106134893Y-53302889D01*
X106134889Y-53302893D01*
X106006302Y-53460592D01*
X106006299Y-53460597D01*
X105912093Y-53640946D01*
X105912090Y-53640954D01*
X105856115Y-53836578D01*
X105856114Y-53836582D01*
X105845500Y-53955963D01*
X105845500Y-55772031D01*
X105845501Y-55772043D01*
X105856113Y-55891414D01*
X105856113Y-55891417D01*
X105856114Y-55891418D01*
X105893831Y-56023231D01*
X105912090Y-56087045D01*
X105912093Y-56087053D01*
X106006299Y-56267402D01*
X106006306Y-56267413D01*
X106021440Y-56285973D01*
X106066968Y-56371800D01*
X106076185Y-56468517D01*
X106047688Y-56561399D01*
X106047004Y-56562660D01*
X106008427Y-56633308D01*
X106008425Y-56633312D01*
X105977176Y-56717096D01*
X105915923Y-56881322D01*
X105889708Y-57001831D01*
X105859657Y-57139972D01*
X105840773Y-57404000D01*
X82780500Y-57404000D01*
X82780500Y-57285908D01*
X82743553Y-57052632D01*
X82670568Y-56828008D01*
X82612733Y-56714500D01*
X82563343Y-56617566D01*
X82424517Y-56426490D01*
X82371202Y-56373175D01*
X82315785Y-56317757D01*
X82308684Y-56310357D01*
X82248944Y-56245462D01*
X82236530Y-56235800D01*
X82213413Y-56215386D01*
X82206710Y-56208683D01*
X82134569Y-56156269D01*
X82128033Y-56151352D01*
X82052709Y-56092726D01*
X82045264Y-56088697D01*
X82017423Y-56071156D01*
X82015634Y-56069857D01*
X82015631Y-56069855D01*
X82015629Y-56069854D01*
X81929760Y-56026102D01*
X81924293Y-56023230D01*
X81834013Y-55974373D01*
X81834003Y-55974369D01*
X81832861Y-55973977D01*
X81814334Y-55966123D01*
X81814230Y-55966375D01*
X81805196Y-55962633D01*
X81706686Y-55930625D01*
X81702785Y-55929321D01*
X81598821Y-55893631D01*
X81598816Y-55893629D01*
X81598814Y-55893629D01*
X81598811Y-55893628D01*
X81596506Y-55893045D01*
X81584888Y-55890684D01*
X81580561Y-55889645D01*
X81471132Y-55872314D01*
X81469101Y-55871984D01*
X81353535Y-55852700D01*
X81104865Y-55852700D01*
X80989298Y-55871984D01*
X80987420Y-55872289D01*
X80942363Y-55879426D01*
X80877832Y-55889646D01*
X80873520Y-55890682D01*
X80861882Y-55893047D01*
X80859589Y-55893628D01*
X80755646Y-55929310D01*
X80751750Y-55930611D01*
X80653209Y-55962631D01*
X80644172Y-55966374D01*
X80644068Y-55966124D01*
X80625566Y-55973967D01*
X80624409Y-55974364D01*
X80624383Y-55974375D01*
X80534105Y-56023231D01*
X80528641Y-56026101D01*
X80442764Y-56069857D01*
X80440962Y-56071167D01*
X80413147Y-56088690D01*
X80405695Y-56092723D01*
X80405689Y-56092726D01*
X80330384Y-56151338D01*
X80323810Y-56156282D01*
X80251704Y-56208671D01*
X80251677Y-56208694D01*
X80244976Y-56215395D01*
X80221876Y-56235793D01*
X80209465Y-56245453D01*
X80209451Y-56245466D01*
X80149726Y-56310344D01*
X80142605Y-56317766D01*
X80084691Y-56375681D01*
X80084677Y-56375697D01*
X80074842Y-56389233D01*
X80056611Y-56411493D01*
X80041042Y-56428406D01*
X80041034Y-56428417D01*
X79996765Y-56496175D01*
X79989768Y-56506326D01*
X79948840Y-56562660D01*
X79945855Y-56566769D01*
X79945854Y-56566770D01*
X79934962Y-56588148D01*
X79921556Y-56611293D01*
X79905028Y-56636590D01*
X79875423Y-56704081D01*
X79869259Y-56717096D01*
X79838630Y-56777209D01*
X79838630Y-56777210D01*
X79828975Y-56806924D01*
X79820194Y-56829991D01*
X79805134Y-56864325D01*
X79788818Y-56928752D01*
X79784254Y-56944561D01*
X79765647Y-57001831D01*
X79759625Y-57039848D01*
X79755073Y-57062011D01*
X79744091Y-57105378D01*
X79744091Y-57105379D01*
X79739200Y-57164403D01*
X79736986Y-57182785D01*
X79728700Y-57235099D01*
X79728700Y-57280829D01*
X79727850Y-57301390D01*
X79723557Y-57353199D01*
X79727850Y-57405009D01*
X79728700Y-57425570D01*
X79728700Y-57471287D01*
X79728701Y-57471303D01*
X79736984Y-57523599D01*
X79739199Y-57541985D01*
X79744091Y-57601019D01*
X79755073Y-57644386D01*
X79759626Y-57666557D01*
X79765644Y-57704557D01*
X79765646Y-57704564D01*
X79765647Y-57704568D01*
X79767313Y-57709694D01*
X79779500Y-57786640D01*
X79779500Y-73189331D01*
X79760546Y-73284619D01*
X79706570Y-73365401D01*
X78012829Y-75059141D01*
X77932047Y-75113117D01*
X77836759Y-75132071D01*
X77741471Y-75113117D01*
X77660689Y-75059141D01*
X77637430Y-75032298D01*
X77602087Y-74985085D01*
X77414915Y-74797913D01*
X77369436Y-74763867D01*
X77304513Y-74691592D01*
X77272191Y-74599972D01*
X77277390Y-74502956D01*
X77314688Y-74421712D01*
X77373600Y-74337577D01*
X77473433Y-74123485D01*
X77473433Y-74123483D01*
X77530636Y-73910001D01*
X77530636Y-73910000D01*
X76633012Y-73910000D01*
X76665925Y-73852993D01*
X76700000Y-73725826D01*
X76700000Y-73594174D01*
X76665925Y-73467007D01*
X76633012Y-73410000D01*
X77530636Y-73410000D01*
X77530636Y-73409998D01*
X77473433Y-73196516D01*
X77473429Y-73196505D01*
X77373603Y-72982428D01*
X77373599Y-72982421D01*
X77314687Y-72898286D01*
X77275558Y-72809359D01*
X77273439Y-72712227D01*
X77308651Y-72621678D01*
X77369433Y-72556133D01*
X77414915Y-72522087D01*
X77602087Y-72334915D01*
X77760716Y-72123011D01*
X77887574Y-71890689D01*
X77980077Y-71642678D01*
X78036343Y-71384026D01*
X78055227Y-71120000D01*
X78036343Y-70855974D01*
X77980077Y-70597322D01*
X77887574Y-70349311D01*
X77760716Y-70116989D01*
X77672552Y-69999216D01*
X77630624Y-69911581D01*
X77625423Y-69814565D01*
X77657745Y-69722944D01*
X77672545Y-69700793D01*
X77760716Y-69583011D01*
X77887574Y-69350689D01*
X77980077Y-69102678D01*
X78036343Y-68844026D01*
X78055227Y-68580000D01*
X78036343Y-68315974D01*
X77980077Y-68057322D01*
X77887574Y-67809311D01*
X77848994Y-67738658D01*
X77819964Y-67645943D01*
X77828623Y-67549175D01*
X77873655Y-67463087D01*
X77874230Y-67462375D01*
X77889698Y-67443407D01*
X77983909Y-67263049D01*
X78039886Y-67067418D01*
X78050500Y-66948037D01*
X78050499Y-65131964D01*
X78039886Y-65012582D01*
X77983909Y-64816951D01*
X77889698Y-64636593D01*
X77761109Y-64478891D01*
X77603407Y-64350302D01*
X77603402Y-64350299D01*
X77423053Y-64256093D01*
X77423052Y-64256092D01*
X77423049Y-64256091D01*
X77227418Y-64200114D01*
X77108037Y-64189500D01*
X77108035Y-64189500D01*
X75291968Y-64189500D01*
X75291956Y-64189501D01*
X75172585Y-64200113D01*
X74976954Y-64256090D01*
X74976946Y-64256093D01*
X74796597Y-64350299D01*
X74796592Y-64350302D01*
X74638893Y-64478889D01*
X74638889Y-64478893D01*
X74510302Y-64636592D01*
X74510299Y-64636597D01*
X74416093Y-64816946D01*
X74416090Y-64816954D01*
X74360115Y-65012578D01*
X74360114Y-65012582D01*
X74349500Y-65131963D01*
X74349500Y-66948031D01*
X74349501Y-66948043D01*
X74360113Y-67067414D01*
X74360113Y-67067417D01*
X74360114Y-67067418D01*
X74411906Y-67248421D01*
X74416090Y-67263045D01*
X74416093Y-67263053D01*
X74510299Y-67443402D01*
X74510306Y-67443413D01*
X74525440Y-67461973D01*
X74570968Y-67547800D01*
X74580185Y-67644517D01*
X74551688Y-67737399D01*
X74551004Y-67738660D01*
X74512427Y-67809308D01*
X74512425Y-67809312D01*
X74512425Y-67809313D01*
X74419923Y-68057322D01*
X74363657Y-68315974D01*
X74344773Y-68580000D01*
X74363657Y-68844026D01*
X74419923Y-69102678D01*
X74512426Y-69350689D01*
X74639284Y-69583011D01*
X74708736Y-69675788D01*
X74727445Y-69700780D01*
X74769375Y-69788421D01*
X74774576Y-69885436D01*
X74742254Y-69977057D01*
X74727445Y-69999220D01*
X74639284Y-70116989D01*
X74639280Y-70116995D01*
X74512427Y-70349308D01*
X74512425Y-70349312D01*
X74446595Y-70525810D01*
X74419923Y-70597322D01*
X74363657Y-70855974D01*
X74344773Y-71120000D01*
X74363657Y-71384026D01*
X74419923Y-71642678D01*
X74485753Y-71819177D01*
X74512425Y-71890687D01*
X74512427Y-71890691D01*
X74567791Y-71992083D01*
X74639284Y-72123011D01*
X74797913Y-72334915D01*
X74985085Y-72522087D01*
X75030566Y-72556133D01*
X75095486Y-72628406D01*
X75127808Y-72720027D01*
X75122609Y-72817042D01*
X75085313Y-72898284D01*
X75026403Y-72982417D01*
X75026396Y-72982428D01*
X74926570Y-73196505D01*
X74926566Y-73196516D01*
X74869363Y-73409998D01*
X74869364Y-73410000D01*
X75766988Y-73410000D01*
X75734075Y-73467007D01*
X75700000Y-73594174D01*
X75700000Y-73725826D01*
X75734075Y-73852993D01*
X75766988Y-73910000D01*
X74869364Y-73910000D01*
X74869363Y-73910001D01*
X74926566Y-74123483D01*
X74926566Y-74123485D01*
X75026400Y-74337579D01*
X75072079Y-74402815D01*
X75111208Y-74491742D01*
X75113327Y-74588874D01*
X75078114Y-74679423D01*
X75010930Y-74749604D01*
X74945055Y-74782448D01*
X74862014Y-74809429D01*
X74862006Y-74809432D01*
X74651566Y-74916657D01*
X74460492Y-75055481D01*
X64514480Y-85001493D01*
X64375661Y-85192558D01*
X64375655Y-85192568D01*
X64351234Y-85240499D01*
X64268432Y-85403007D01*
X64268430Y-85403012D01*
X64195446Y-85627635D01*
X64158501Y-85860896D01*
X64158500Y-85860912D01*
X64158500Y-86016332D01*
X64139546Y-86111620D01*
X64085570Y-86192402D01*
X50886403Y-99391570D01*
X50805621Y-99445546D01*
X50710333Y-99464500D01*
X18333092Y-99464500D01*
X18096908Y-99464500D01*
X18096905Y-99464500D01*
X18096896Y-99464501D01*
X17863635Y-99501446D01*
X17753248Y-99537313D01*
X17676303Y-99549500D01*
X17533712Y-99549500D01*
X17293209Y-99581162D01*
X17293204Y-99581163D01*
X17058917Y-99643940D01*
X17058894Y-99643948D01*
X16834798Y-99736770D01*
X16834782Y-99736778D01*
X16624720Y-99858058D01*
X16624710Y-99858064D01*
X16432268Y-100005729D01*
X16432258Y-100005738D01*
X16260738Y-100177258D01*
X16260729Y-100177268D01*
X16113064Y-100369710D01*
X16113058Y-100369720D01*
X15991778Y-100579782D01*
X15991770Y-100579798D01*
X15898948Y-100803894D01*
X15898940Y-100803917D01*
X15836163Y-101038204D01*
X15836162Y-101038209D01*
X15804500Y-101278712D01*
X15804500Y-101521287D01*
X15836162Y-101761790D01*
X15836163Y-101761795D01*
X15898940Y-101996082D01*
X15898948Y-101996105D01*
X15991770Y-102220201D01*
X15991778Y-102220217D01*
X16113058Y-102430279D01*
X16113064Y-102430289D01*
X16146594Y-102473986D01*
X16165343Y-102498421D01*
X16208312Y-102585557D01*
X16214665Y-102682504D01*
X16183435Y-102774502D01*
X16165343Y-102801579D01*
X16115847Y-102866085D01*
X16113062Y-102869714D01*
X16113058Y-102869720D01*
X15991778Y-103079782D01*
X15991770Y-103079798D01*
X15898948Y-103303894D01*
X15898940Y-103303917D01*
X15836163Y-103538204D01*
X15836162Y-103538209D01*
X15804500Y-103778712D01*
X15804500Y-104021287D01*
X15836162Y-104261790D01*
X15836163Y-104261795D01*
X15898940Y-104496082D01*
X15898948Y-104496105D01*
X15991770Y-104720201D01*
X15991778Y-104720217D01*
X16113058Y-104930279D01*
X16113064Y-104930289D01*
X16260729Y-105122731D01*
X16260738Y-105122741D01*
X16326298Y-105188301D01*
X16380274Y-105269083D01*
X16399228Y-105364371D01*
X16380274Y-105459659D01*
X16375901Y-105469597D01*
X16370642Y-105480874D01*
X16315495Y-105647298D01*
X16315494Y-105647305D01*
X16305000Y-105750018D01*
X16305000Y-106149999D01*
X16305001Y-106150000D01*
X17375854Y-106150000D01*
X17337370Y-106216657D01*
X17305000Y-106337465D01*
X17305000Y-106462535D01*
X17337370Y-106583343D01*
X17375854Y-106650000D01*
X16305002Y-106650000D01*
X16305001Y-106650001D01*
X16305001Y-107049984D01*
X16315494Y-107152699D01*
X16315495Y-107152702D01*
X16370640Y-107319119D01*
X16370641Y-107319121D01*
X16462681Y-107468341D01*
X16462684Y-107468345D01*
X16586654Y-107592315D01*
X16586658Y-107592318D01*
X16735878Y-107684358D01*
X16735879Y-107684359D01*
X16902298Y-107739504D01*
X16902305Y-107739505D01*
X17005023Y-107749999D01*
X17530000Y-107749999D01*
X17530000Y-106804145D01*
X17596657Y-106842630D01*
X17717465Y-106875000D01*
X17842535Y-106875000D01*
X17963343Y-106842630D01*
X18030000Y-106804145D01*
X18030000Y-107749998D01*
X18030001Y-107749999D01*
X18554968Y-107749999D01*
X18554984Y-107749998D01*
X18655195Y-107739761D01*
X18751916Y-107748933D01*
X18837764Y-107794421D01*
X18899671Y-107869298D01*
X18928211Y-107962167D01*
X18929500Y-107987472D01*
X18929500Y-108083767D01*
X18960797Y-108241109D01*
X18962185Y-108248086D01*
X19012559Y-108369697D01*
X19026297Y-108402863D01*
X19064525Y-108460075D01*
X19111581Y-108530500D01*
X19119374Y-108542162D01*
X19237838Y-108660626D01*
X19237841Y-108660628D01*
X19237842Y-108660629D01*
X19247296Y-108668388D01*
X19246047Y-108669909D01*
X19303303Y-108727167D01*
X19340481Y-108816927D01*
X19340480Y-108914082D01*
X19303298Y-109003841D01*
X19234598Y-109072538D01*
X19144838Y-109109716D01*
X19096265Y-109114500D01*
X15519500Y-109114500D01*
X15424212Y-109095546D01*
X15343430Y-109041570D01*
X15289454Y-108960788D01*
X15270500Y-108865500D01*
X15270500Y-88658712D01*
X15804500Y-88658712D01*
X15804500Y-88901287D01*
X15836162Y-89141790D01*
X15836163Y-89141795D01*
X15898940Y-89376082D01*
X15898948Y-89376105D01*
X15991770Y-89600201D01*
X15991778Y-89600217D01*
X16113058Y-89810279D01*
X16113064Y-89810289D01*
X16150800Y-89859468D01*
X16165343Y-89878421D01*
X16208312Y-89965557D01*
X16214665Y-90062504D01*
X16183435Y-90154502D01*
X16165343Y-90181579D01*
X16113062Y-90249714D01*
X16113058Y-90249720D01*
X15991778Y-90459782D01*
X15991770Y-90459798D01*
X15898948Y-90683894D01*
X15898940Y-90683917D01*
X15836163Y-90918204D01*
X15836162Y-90918209D01*
X15804500Y-91158712D01*
X15804500Y-91401287D01*
X15836162Y-91641790D01*
X15836163Y-91641795D01*
X15898940Y-91876082D01*
X15898948Y-91876105D01*
X15991770Y-92100201D01*
X15991778Y-92100217D01*
X16044724Y-92191921D01*
X16075954Y-92283919D01*
X16069600Y-92380866D01*
X16033763Y-92458222D01*
X15962995Y-92560369D01*
X15869905Y-92765313D01*
X15814903Y-92983591D01*
X15814902Y-92983594D01*
X15804500Y-93115771D01*
X15804500Y-94444208D01*
X15804501Y-94444216D01*
X15814904Y-94576412D01*
X15869904Y-94794683D01*
X15962993Y-94999626D01*
X15962995Y-94999629D01*
X15962996Y-94999631D01*
X16091177Y-95184649D01*
X16091178Y-95184650D01*
X16091181Y-95184654D01*
X16250346Y-95343819D01*
X16250349Y-95343821D01*
X16250350Y-95343822D01*
X16423477Y-95463765D01*
X16435374Y-95472007D01*
X16640317Y-95565096D01*
X16858588Y-95620096D01*
X16858591Y-95620096D01*
X16858594Y-95620097D01*
X16924685Y-95625298D01*
X16990783Y-95630500D01*
X18569216Y-95630499D01*
X18701412Y-95620096D01*
X18725970Y-95613907D01*
X18822998Y-95609003D01*
X18914520Y-95641604D01*
X18986599Y-95706747D01*
X19016856Y-95760071D01*
X19026297Y-95782863D01*
X19119374Y-95922162D01*
X19237838Y-96040626D01*
X19377137Y-96133703D01*
X19531918Y-96197816D01*
X19696233Y-96230500D01*
X19696235Y-96230500D01*
X19863765Y-96230500D01*
X19863767Y-96230500D01*
X20028082Y-96197816D01*
X20182863Y-96133703D01*
X20322162Y-96040626D01*
X20440626Y-95922162D01*
X20533703Y-95782863D01*
X20597816Y-95628082D01*
X20630500Y-95463767D01*
X20630500Y-95296233D01*
X20597816Y-95131918D01*
X20533703Y-94977137D01*
X20440626Y-94837838D01*
X20322162Y-94719374D01*
X20182863Y-94626297D01*
X20182860Y-94626296D01*
X20182859Y-94626295D01*
X20028086Y-94562185D01*
X20028082Y-94562184D01*
X19955920Y-94547830D01*
X19866162Y-94510651D01*
X19797463Y-94441952D01*
X19760284Y-94352193D01*
X19755499Y-94303624D01*
X19755499Y-93115784D01*
X19745096Y-92983588D01*
X19690096Y-92765317D01*
X19597007Y-92560374D01*
X19526235Y-92458221D01*
X19487552Y-92369104D01*
X19485916Y-92271963D01*
X19515273Y-92191924D01*
X19568224Y-92100212D01*
X19661054Y-91876100D01*
X19723838Y-91641789D01*
X19755500Y-91401288D01*
X19755500Y-91158712D01*
X19723838Y-90918211D01*
X19691115Y-90796087D01*
X19661059Y-90683917D01*
X19661057Y-90683911D01*
X19661054Y-90683900D01*
X19610734Y-90562417D01*
X19568229Y-90459798D01*
X19568221Y-90459782D01*
X19446941Y-90249720D01*
X19446936Y-90249711D01*
X19394657Y-90181579D01*
X19351687Y-90094445D01*
X19345333Y-89997498D01*
X19376563Y-89905499D01*
X19394658Y-89878419D01*
X19400361Y-89870987D01*
X19446936Y-89810289D01*
X19568224Y-89600212D01*
X19661054Y-89376100D01*
X19723838Y-89141789D01*
X19755500Y-88901288D01*
X19755500Y-88658712D01*
X19723838Y-88418211D01*
X19695366Y-88311954D01*
X19661059Y-88183917D01*
X19661057Y-88183911D01*
X19661054Y-88183900D01*
X19595313Y-88025186D01*
X19568229Y-87959798D01*
X19568221Y-87959782D01*
X19462702Y-87777019D01*
X19446936Y-87749711D01*
X19299265Y-87557262D01*
X19127738Y-87385735D01*
X19090698Y-87357313D01*
X19026641Y-87284269D01*
X18995412Y-87192270D01*
X19001767Y-87095323D01*
X19040837Y-87013411D01*
X19059623Y-86987553D01*
X19156091Y-86798225D01*
X19156097Y-86798212D01*
X19221756Y-86596129D01*
X19232230Y-86530000D01*
X18184146Y-86530000D01*
X18222630Y-86463343D01*
X18255000Y-86342535D01*
X18255000Y-86217465D01*
X18222630Y-86096657D01*
X18184146Y-86030000D01*
X19232230Y-86030000D01*
X19221756Y-85963870D01*
X19156096Y-85761785D01*
X19156091Y-85761774D01*
X19059623Y-85572446D01*
X18934724Y-85400537D01*
X18784462Y-85250275D01*
X18612553Y-85125376D01*
X18423225Y-85028908D01*
X18423215Y-85028904D01*
X18334238Y-84999994D01*
X56794958Y-84999994D01*
X56794958Y-85000005D01*
X56815109Y-85358840D01*
X56815110Y-85358846D01*
X56875312Y-85713173D01*
X56875318Y-85713199D01*
X56974813Y-86058554D01*
X56974816Y-86058565D01*
X57112357Y-86390616D01*
X57286213Y-86705184D01*
X57286214Y-86705185D01*
X57494192Y-86998304D01*
X57494202Y-86998317D01*
X57566843Y-87079601D01*
X58884727Y-85761716D01*
X58970278Y-85879466D01*
X59120534Y-86029722D01*
X59238281Y-86115270D01*
X57920397Y-87433155D01*
X58001682Y-87505797D01*
X58001695Y-87505807D01*
X58294814Y-87713785D01*
X58294815Y-87713786D01*
X58609383Y-87887642D01*
X58941434Y-88025183D01*
X58941445Y-88025186D01*
X59286800Y-88124681D01*
X59286826Y-88124687D01*
X59641153Y-88184889D01*
X59641159Y-88184890D01*
X59999995Y-88205042D01*
X60000005Y-88205042D01*
X60358840Y-88184890D01*
X60358846Y-88184889D01*
X60713173Y-88124687D01*
X60713199Y-88124681D01*
X61058554Y-88025186D01*
X61058565Y-88025183D01*
X61390616Y-87887642D01*
X61705184Y-87713786D01*
X61705185Y-87713786D01*
X61998317Y-87505797D01*
X62079601Y-87433155D01*
X60761717Y-86115271D01*
X60879466Y-86029722D01*
X61029722Y-85879466D01*
X61115271Y-85761717D01*
X62433155Y-87079601D01*
X62505797Y-86998317D01*
X62713786Y-86705185D01*
X62713786Y-86705184D01*
X62887642Y-86390616D01*
X63025183Y-86058565D01*
X63025186Y-86058554D01*
X63124681Y-85713199D01*
X63124687Y-85713173D01*
X63184889Y-85358846D01*
X63184890Y-85358840D01*
X63205042Y-85000005D01*
X63205042Y-84999994D01*
X63184890Y-84641159D01*
X63184889Y-84641153D01*
X63124687Y-84286826D01*
X63124681Y-84286800D01*
X63025186Y-83941445D01*
X63025183Y-83941434D01*
X62887642Y-83609383D01*
X62713786Y-83294815D01*
X62713785Y-83294814D01*
X62505807Y-83001695D01*
X62505797Y-83001682D01*
X62433155Y-82920397D01*
X61115270Y-84238281D01*
X61029722Y-84120534D01*
X60879466Y-83970278D01*
X60761716Y-83884727D01*
X62079601Y-82566843D01*
X61998317Y-82494202D01*
X61998304Y-82494192D01*
X61705185Y-82286214D01*
X61705184Y-82286213D01*
X61390616Y-82112357D01*
X61058565Y-81974816D01*
X61058554Y-81974813D01*
X60713199Y-81875318D01*
X60713173Y-81875312D01*
X60358846Y-81815110D01*
X60358840Y-81815109D01*
X60000005Y-81794958D01*
X59999995Y-81794958D01*
X59641159Y-81815109D01*
X59641153Y-81815110D01*
X59286826Y-81875312D01*
X59286800Y-81875318D01*
X58941445Y-81974813D01*
X58941434Y-81974816D01*
X58609383Y-82112357D01*
X58294815Y-82286213D01*
X58294814Y-82286214D01*
X58001690Y-82494196D01*
X58001687Y-82494198D01*
X57920397Y-82566843D01*
X59238282Y-83884728D01*
X59120534Y-83970278D01*
X58970278Y-84120534D01*
X58884728Y-84238282D01*
X57566843Y-82920397D01*
X57494198Y-83001687D01*
X57494196Y-83001690D01*
X57286214Y-83294814D01*
X57286213Y-83294815D01*
X57112357Y-83609383D01*
X56974816Y-83941434D01*
X56974813Y-83941445D01*
X56875318Y-84286800D01*
X56875312Y-84286826D01*
X56815110Y-84641153D01*
X56815109Y-84641159D01*
X56794958Y-84999994D01*
X18334238Y-84999994D01*
X18221123Y-84963241D01*
X18030000Y-84932969D01*
X18030000Y-85875854D01*
X17963343Y-85837370D01*
X17842535Y-85805000D01*
X17717465Y-85805000D01*
X17596657Y-85837370D01*
X17530000Y-85875854D01*
X17530000Y-84932969D01*
X17338876Y-84963241D01*
X17136784Y-85028904D01*
X17136774Y-85028908D01*
X16947446Y-85125376D01*
X16775537Y-85250275D01*
X16625275Y-85400537D01*
X16500376Y-85572446D01*
X16403908Y-85761774D01*
X16403904Y-85761785D01*
X16338243Y-85963870D01*
X16327769Y-86030000D01*
X17375854Y-86030000D01*
X17337370Y-86096657D01*
X17305000Y-86217465D01*
X17305000Y-86342535D01*
X17337370Y-86463343D01*
X17375854Y-86530000D01*
X16327770Y-86530000D01*
X16338243Y-86596129D01*
X16403902Y-86798212D01*
X16403908Y-86798225D01*
X16500376Y-86987554D01*
X16500381Y-86987561D01*
X16519164Y-87013415D01*
X16559838Y-87101646D01*
X16563651Y-87198726D01*
X16530022Y-87289875D01*
X16469301Y-87357313D01*
X16432267Y-87385730D01*
X16432258Y-87385738D01*
X16260738Y-87557258D01*
X16260729Y-87557268D01*
X16113064Y-87749710D01*
X16113058Y-87749720D01*
X15991778Y-87959782D01*
X15991770Y-87959798D01*
X15898948Y-88183894D01*
X15898940Y-88183917D01*
X15836163Y-88418204D01*
X15836162Y-88418209D01*
X15804500Y-88658712D01*
X15270500Y-88658712D01*
X15270500Y-79381823D01*
X15289454Y-79286535D01*
X15343424Y-79205760D01*
X15386135Y-79163049D01*
X15466908Y-79109078D01*
X15562196Y-79090123D01*
X15657484Y-79109076D01*
X15738267Y-79163051D01*
X15792244Y-79243832D01*
X15810431Y-79319585D01*
X15814903Y-79376407D01*
X15814903Y-79376410D01*
X15814904Y-79376412D01*
X15865126Y-79575721D01*
X15869905Y-79594686D01*
X15900833Y-79662776D01*
X15962993Y-79799626D01*
X15962995Y-79799629D01*
X15962996Y-79799631D01*
X16091177Y-79984649D01*
X16091178Y-79984650D01*
X16091181Y-79984654D01*
X16250346Y-80143819D01*
X16250349Y-80143821D01*
X16250350Y-80143822D01*
X16423477Y-80263765D01*
X16435374Y-80272007D01*
X16640317Y-80365096D01*
X16858588Y-80420096D01*
X16858591Y-80420096D01*
X16858594Y-80420097D01*
X16924685Y-80425298D01*
X16990783Y-80430500D01*
X18569216Y-80430499D01*
X18701412Y-80420096D01*
X18725970Y-80413907D01*
X18822998Y-80409003D01*
X18914520Y-80441604D01*
X18986599Y-80506747D01*
X19016856Y-80560071D01*
X19026297Y-80582863D01*
X19044064Y-80609453D01*
X19119245Y-80721970D01*
X19119374Y-80722162D01*
X19237838Y-80840626D01*
X19377137Y-80933703D01*
X19531918Y-80997816D01*
X19696233Y-81030500D01*
X19696235Y-81030500D01*
X19863765Y-81030500D01*
X19863767Y-81030500D01*
X20028082Y-80997816D01*
X20182863Y-80933703D01*
X20322162Y-80840626D01*
X20440626Y-80722162D01*
X20533703Y-80582863D01*
X20597816Y-80428082D01*
X20630500Y-80263767D01*
X20630500Y-80096233D01*
X20597816Y-79931918D01*
X20533703Y-79777137D01*
X20440626Y-79637838D01*
X20322162Y-79519374D01*
X20182863Y-79426297D01*
X20182860Y-79426296D01*
X20182859Y-79426295D01*
X20028086Y-79362185D01*
X20028082Y-79362184D01*
X19955920Y-79347830D01*
X19866162Y-79310651D01*
X19797463Y-79241952D01*
X19760284Y-79152193D01*
X19755499Y-79103624D01*
X19755499Y-77915784D01*
X19745096Y-77783588D01*
X19690096Y-77565317D01*
X19597007Y-77360374D01*
X19526235Y-77258221D01*
X19487552Y-77169104D01*
X19485916Y-77071963D01*
X19515273Y-76991924D01*
X19568224Y-76900212D01*
X19570838Y-76893903D01*
X19598231Y-76827766D01*
X19661054Y-76676100D01*
X19723838Y-76441789D01*
X19755500Y-76201288D01*
X19755500Y-75958712D01*
X19723838Y-75718211D01*
X19661054Y-75483900D01*
X19619719Y-75384108D01*
X19568229Y-75259798D01*
X19568221Y-75259782D01*
X19446941Y-75049720D01*
X19446935Y-75049710D01*
X19397347Y-74985086D01*
X19394657Y-74981580D01*
X19351687Y-74894445D01*
X19345333Y-74797498D01*
X19376563Y-74705499D01*
X19394658Y-74678419D01*
X19428799Y-74633925D01*
X19446936Y-74610289D01*
X19568224Y-74400212D01*
X19661054Y-74176100D01*
X19674499Y-74125925D01*
X19699641Y-74032092D01*
X19723838Y-73941789D01*
X19755500Y-73701288D01*
X19755500Y-73458712D01*
X19723838Y-73218211D01*
X19682039Y-73062216D01*
X19661059Y-72983917D01*
X19661057Y-72983911D01*
X19661054Y-72983900D01*
X19599456Y-72835189D01*
X19568229Y-72759798D01*
X19568224Y-72759789D01*
X19568224Y-72759788D01*
X19536014Y-72703999D01*
X19504785Y-72612002D01*
X19511139Y-72515055D01*
X19554110Y-72427919D01*
X19627154Y-72363860D01*
X19719153Y-72332630D01*
X19751655Y-72330500D01*
X62368413Y-72330500D01*
X62368417Y-72330500D01*
X62562826Y-72299709D01*
X62750026Y-72238884D01*
X62925405Y-72149524D01*
X63084646Y-72033828D01*
X93820896Y-41297576D01*
X93901675Y-41243603D01*
X93979200Y-41225283D01*
X93979991Y-41225226D01*
X93980000Y-41225227D01*
X94244026Y-41206343D01*
X94502678Y-41150077D01*
X94750689Y-41057574D01*
X94983011Y-40930716D01*
X95100783Y-40842552D01*
X95188419Y-40800624D01*
X95285435Y-40795423D01*
X95377056Y-40827745D01*
X95399206Y-40842545D01*
X95516989Y-40930716D01*
X95749311Y-41057574D01*
X95997322Y-41150077D01*
X96255974Y-41206343D01*
X96520000Y-41225227D01*
X96784026Y-41206343D01*
X97042678Y-41150077D01*
X97290689Y-41057574D01*
X97523011Y-40930716D01*
X97640783Y-40842552D01*
X97728419Y-40800624D01*
X97825435Y-40795423D01*
X97917056Y-40827745D01*
X97939206Y-40842545D01*
X98056989Y-40930716D01*
X98289311Y-41057574D01*
X98537322Y-41150077D01*
X98795974Y-41206343D01*
X99060000Y-41225227D01*
X99324026Y-41206343D01*
X99582678Y-41150077D01*
X99830689Y-41057574D01*
X100063011Y-40930716D01*
X100180783Y-40842552D01*
X100268419Y-40800624D01*
X100365435Y-40795423D01*
X100457056Y-40827745D01*
X100479206Y-40842545D01*
X100596989Y-40930716D01*
X100829311Y-41057574D01*
X101077322Y-41150077D01*
X101335974Y-41206343D01*
X101600000Y-41225227D01*
X101864026Y-41206343D01*
X102122678Y-41150077D01*
X102370689Y-41057574D01*
X102603011Y-40930716D01*
X102814915Y-40772087D01*
X103002087Y-40584915D01*
X103036132Y-40539436D01*
X103108408Y-40474513D01*
X103200028Y-40442191D01*
X103297044Y-40447390D01*
X103378288Y-40484688D01*
X103462422Y-40543600D01*
X103676511Y-40643431D01*
X103890000Y-40700635D01*
X103890000Y-39803012D01*
X103947007Y-39835925D01*
X104074174Y-39870000D01*
X104205826Y-39870000D01*
X104332993Y-39835925D01*
X104390000Y-39803012D01*
X104390000Y-40700635D01*
X104603488Y-40643431D01*
X104817577Y-40543600D01*
X104901712Y-40484688D01*
X104990639Y-40445559D01*
X105087771Y-40443439D01*
X105178321Y-40478651D01*
X105243867Y-40539435D01*
X105277913Y-40584915D01*
X105465085Y-40772087D01*
X105676989Y-40930716D01*
X105909311Y-41057574D01*
X106157322Y-41150077D01*
X106415974Y-41206343D01*
X106680000Y-41225227D01*
X106944026Y-41206343D01*
X107202678Y-41150077D01*
X107450689Y-41057574D01*
X107683011Y-40930716D01*
X107894915Y-40772087D01*
X108082087Y-40584915D01*
X108240716Y-40373011D01*
X108367574Y-40140689D01*
X108460077Y-39892678D01*
X108516343Y-39634026D01*
X108535227Y-39370000D01*
X108516343Y-39105974D01*
X108460077Y-38847322D01*
X108367574Y-38599311D01*
X108240716Y-38366989D01*
X108082087Y-38155085D01*
X107894915Y-37967913D01*
X107683011Y-37809284D01*
X107450689Y-37682426D01*
X107450687Y-37682425D01*
X107379177Y-37655753D01*
X107202678Y-37589923D01*
X107000293Y-37545897D01*
X106944027Y-37533657D01*
X106680000Y-37514773D01*
X106415972Y-37533657D01*
X106303440Y-37558137D01*
X106157322Y-37589923D01*
X106085810Y-37616595D01*
X105909312Y-37682425D01*
X105909308Y-37682427D01*
X105676995Y-37809280D01*
X105676989Y-37809284D01*
X105465085Y-37967913D01*
X105465084Y-37967914D01*
X105277909Y-38155089D01*
X105243868Y-38200564D01*
X105171590Y-38265487D01*
X105079969Y-38297809D01*
X104982954Y-38292608D01*
X104901714Y-38255312D01*
X104817579Y-38196400D01*
X104603484Y-38096566D01*
X104390001Y-38039363D01*
X104390000Y-38039364D01*
X104390000Y-38936988D01*
X104332993Y-38904075D01*
X104205826Y-38870000D01*
X104074174Y-38870000D01*
X103947007Y-38904075D01*
X103890000Y-38936988D01*
X103890000Y-38039364D01*
X103889998Y-38039363D01*
X103676516Y-38096566D01*
X103676505Y-38096570D01*
X103462428Y-38196396D01*
X103462417Y-38196403D01*
X103378284Y-38255313D01*
X103289357Y-38294441D01*
X103192225Y-38296560D01*
X103101676Y-38261347D01*
X103036134Y-38200566D01*
X103002087Y-38155085D01*
X102814915Y-37967913D01*
X102603011Y-37809284D01*
X102370689Y-37682426D01*
X102370687Y-37682425D01*
X102299177Y-37655753D01*
X102122678Y-37589923D01*
X101920293Y-37545897D01*
X101864027Y-37533657D01*
X101600000Y-37514773D01*
X101335972Y-37533657D01*
X101223440Y-37558137D01*
X101077322Y-37589923D01*
X101005810Y-37616595D01*
X100829312Y-37682425D01*
X100829308Y-37682427D01*
X100596995Y-37809280D01*
X100596989Y-37809284D01*
X100479218Y-37897445D01*
X100391579Y-37939375D01*
X100294564Y-37944576D01*
X100202943Y-37912254D01*
X100180785Y-37897448D01*
X100063011Y-37809284D01*
X99830689Y-37682426D01*
X99830687Y-37682425D01*
X99759177Y-37655753D01*
X99582678Y-37589923D01*
X99380293Y-37545897D01*
X99324027Y-37533657D01*
X99258741Y-37528987D01*
X99060000Y-37514773D01*
X99059998Y-37514773D01*
X99059200Y-37514716D01*
X98965507Y-37489012D01*
X98900895Y-37442420D01*
X98258747Y-36800273D01*
X98258746Y-36800272D01*
X98099505Y-36684576D01*
X97924126Y-36595216D01*
X97924123Y-36595215D01*
X97924121Y-36595214D01*
X97736923Y-36534390D01*
X97542528Y-36503601D01*
X97542519Y-36503600D01*
X97542517Y-36503600D01*
X67557483Y-36503600D01*
X67557479Y-36503600D01*
X67557474Y-36503601D01*
X67493306Y-36513764D01*
X67469418Y-36517548D01*
X67401445Y-36528313D01*
X67363071Y-36534391D01*
X67175878Y-36595214D01*
X67000490Y-36684578D01*
X66841259Y-36800267D01*
X66841254Y-36800270D01*
X66199104Y-37442420D01*
X66118323Y-37496396D01*
X66040799Y-37514716D01*
X66040001Y-37514773D01*
X66040000Y-37514773D01*
X65906542Y-37524318D01*
X65775972Y-37533657D01*
X65663440Y-37558137D01*
X65517322Y-37589923D01*
X65445810Y-37616595D01*
X65269312Y-37682425D01*
X65269308Y-37682427D01*
X65036995Y-37809280D01*
X65036989Y-37809284D01*
X64825085Y-37967913D01*
X64825084Y-37967914D01*
X64637909Y-38155089D01*
X64603868Y-38200564D01*
X64531590Y-38265487D01*
X64439969Y-38297809D01*
X64342954Y-38292608D01*
X64261714Y-38255312D01*
X64177579Y-38196400D01*
X63963484Y-38096566D01*
X63750001Y-38039363D01*
X63750000Y-38039364D01*
X63750000Y-38936988D01*
X63692993Y-38904075D01*
X63565826Y-38870000D01*
X63434174Y-38870000D01*
X63307007Y-38904075D01*
X63250000Y-38936988D01*
X63250000Y-38039364D01*
X63249998Y-38039363D01*
X63036516Y-38096566D01*
X63036505Y-38096570D01*
X62822428Y-38196396D01*
X62822417Y-38196403D01*
X62738284Y-38255313D01*
X62649357Y-38294441D01*
X62552225Y-38296560D01*
X62461676Y-38261347D01*
X62396134Y-38200566D01*
X62362087Y-38155085D01*
X62174915Y-37967913D01*
X61963011Y-37809284D01*
X61730689Y-37682426D01*
X61730687Y-37682425D01*
X61659177Y-37655753D01*
X61482678Y-37589923D01*
X61387702Y-37569262D01*
X61298625Y-37530488D01*
X61231163Y-37460574D01*
X61195591Y-37370165D01*
X61197325Y-37273025D01*
X61236101Y-37183944D01*
X61264559Y-37149890D01*
X64703176Y-33711273D01*
X64783952Y-33657302D01*
X64879240Y-33638348D01*
X64974528Y-33657302D01*
X65055310Y-33711278D01*
X65077946Y-33737292D01*
X65149390Y-33831898D01*
X65149390Y-33831899D01*
X65313740Y-33981724D01*
X65502816Y-34098794D01*
X65502824Y-34098798D01*
X65710198Y-34179135D01*
X65790000Y-34194052D01*
X65790000Y-33264975D01*
X65825095Y-33300070D01*
X65904905Y-33346148D01*
X65993922Y-33370000D01*
X66086078Y-33370000D01*
X66175095Y-33346148D01*
X66254905Y-33300070D01*
X66284974Y-33270001D01*
X66290000Y-33270001D01*
X66290000Y-34194051D01*
X66369801Y-34179135D01*
X66577175Y-34098798D01*
X66577183Y-34098794D01*
X66766259Y-33981724D01*
X66930607Y-33831901D01*
X67064629Y-33654428D01*
X67163760Y-33455347D01*
X67216496Y-33270000D01*
X75023504Y-33270000D01*
X75076239Y-33455347D01*
X75175370Y-33654428D01*
X75309392Y-33831901D01*
X75473740Y-33981724D01*
X75662816Y-34098794D01*
X75662824Y-34098798D01*
X75870198Y-34179135D01*
X75950000Y-34194052D01*
X75950000Y-33270001D01*
X75949999Y-33270000D01*
X75023504Y-33270000D01*
X67216496Y-33270000D01*
X66290001Y-33270000D01*
X66290000Y-33270001D01*
X66284974Y-33270001D01*
X66320070Y-33234905D01*
X66366148Y-33155095D01*
X66390000Y-33066078D01*
X66390000Y-32973922D01*
X75850000Y-32973922D01*
X75850000Y-33066078D01*
X75873852Y-33155095D01*
X75919930Y-33234905D01*
X75985095Y-33300070D01*
X76064905Y-33346148D01*
X76153922Y-33370000D01*
X76246078Y-33370000D01*
X76335095Y-33346148D01*
X76414905Y-33300070D01*
X76444974Y-33270001D01*
X76450000Y-33270001D01*
X76450000Y-34194052D01*
X76529801Y-34179135D01*
X76737175Y-34098798D01*
X76737183Y-34098794D01*
X76926259Y-33981724D01*
X77090607Y-33831901D01*
X77224629Y-33654428D01*
X77323760Y-33455347D01*
X77376496Y-33270000D01*
X86453504Y-33270000D01*
X86506239Y-33455347D01*
X86605370Y-33654428D01*
X86739392Y-33831901D01*
X86903740Y-33981724D01*
X87092816Y-34098794D01*
X87092824Y-34098798D01*
X87300198Y-34179135D01*
X87380000Y-34194052D01*
X87380000Y-33270001D01*
X87379999Y-33270000D01*
X86453504Y-33270000D01*
X77376496Y-33270000D01*
X76450001Y-33270000D01*
X76450000Y-33270001D01*
X76444974Y-33270001D01*
X76480070Y-33234905D01*
X76526148Y-33155095D01*
X76550000Y-33066078D01*
X76550000Y-32973922D01*
X87280000Y-32973922D01*
X87280000Y-33066078D01*
X87303852Y-33155095D01*
X87349930Y-33234905D01*
X87415095Y-33300070D01*
X87494905Y-33346148D01*
X87583922Y-33370000D01*
X87676078Y-33370000D01*
X87765095Y-33346148D01*
X87844905Y-33300070D01*
X87874974Y-33270001D01*
X87880000Y-33270001D01*
X87880000Y-34194052D01*
X87959801Y-34179135D01*
X88167175Y-34098798D01*
X88167183Y-34098794D01*
X88356259Y-33981724D01*
X88520607Y-33831901D01*
X88654629Y-33654428D01*
X88753760Y-33455347D01*
X88806496Y-33270000D01*
X92803504Y-33270000D01*
X92856239Y-33455347D01*
X92955370Y-33654428D01*
X93089392Y-33831901D01*
X93253740Y-33981724D01*
X93442816Y-34098794D01*
X93442824Y-34098798D01*
X93650198Y-34179135D01*
X93730000Y-34194052D01*
X93730000Y-33270001D01*
X93729999Y-33270000D01*
X92803504Y-33270000D01*
X88806496Y-33270000D01*
X87880001Y-33270000D01*
X87880000Y-33270001D01*
X87874974Y-33270001D01*
X87910070Y-33234905D01*
X87956148Y-33155095D01*
X87980000Y-33066078D01*
X87980000Y-32973922D01*
X93630000Y-32973922D01*
X93630000Y-33066078D01*
X93653852Y-33155095D01*
X93699930Y-33234905D01*
X93765095Y-33300070D01*
X93844905Y-33346148D01*
X93933922Y-33370000D01*
X94026078Y-33370000D01*
X94115095Y-33346148D01*
X94194905Y-33300070D01*
X94224974Y-33270001D01*
X94230000Y-33270001D01*
X94230000Y-34194051D01*
X94309801Y-34179135D01*
X94517175Y-34098798D01*
X94517183Y-34098794D01*
X94706259Y-33981724D01*
X94870607Y-33831901D01*
X95004629Y-33654428D01*
X95103760Y-33455347D01*
X95156496Y-33270000D01*
X99153504Y-33270000D01*
X99206239Y-33455347D01*
X99305370Y-33654428D01*
X99439392Y-33831901D01*
X99603740Y-33981724D01*
X99792816Y-34098794D01*
X99792824Y-34098798D01*
X100000198Y-34179135D01*
X100080000Y-34194052D01*
X100080000Y-33270001D01*
X100079999Y-33270000D01*
X99153504Y-33270000D01*
X95156496Y-33270000D01*
X94230001Y-33270000D01*
X94230000Y-33270001D01*
X94224974Y-33270001D01*
X94260070Y-33234905D01*
X94306148Y-33155095D01*
X94330000Y-33066078D01*
X94330000Y-32973922D01*
X99980000Y-32973922D01*
X99980000Y-33066078D01*
X100003852Y-33155095D01*
X100049930Y-33234905D01*
X100115095Y-33300070D01*
X100194905Y-33346148D01*
X100283922Y-33370000D01*
X100376078Y-33370000D01*
X100465095Y-33346148D01*
X100544905Y-33300070D01*
X100574974Y-33270001D01*
X100580000Y-33270001D01*
X100580000Y-34194052D01*
X100659801Y-34179135D01*
X100867175Y-34098798D01*
X100867183Y-34098794D01*
X101056259Y-33981724D01*
X101220607Y-33831901D01*
X101354629Y-33654428D01*
X101453760Y-33455347D01*
X101506496Y-33270000D01*
X105483504Y-33270000D01*
X105536239Y-33455347D01*
X105635370Y-33654428D01*
X105769392Y-33831901D01*
X105933740Y-33981724D01*
X106122816Y-34098794D01*
X106122824Y-34098798D01*
X106330198Y-34179135D01*
X106410000Y-34194052D01*
X106410000Y-33270001D01*
X106409999Y-33270000D01*
X105483504Y-33270000D01*
X101506496Y-33270000D01*
X100580001Y-33270000D01*
X100580000Y-33270001D01*
X100574974Y-33270001D01*
X100610070Y-33234905D01*
X100656148Y-33155095D01*
X100680000Y-33066078D01*
X100680000Y-32973922D01*
X106310000Y-32973922D01*
X106310000Y-33066078D01*
X106333852Y-33155095D01*
X106379930Y-33234905D01*
X106445095Y-33300070D01*
X106524905Y-33346148D01*
X106613922Y-33370000D01*
X106706078Y-33370000D01*
X106795095Y-33346148D01*
X106874905Y-33300070D01*
X106904974Y-33270001D01*
X106910000Y-33270001D01*
X106910000Y-34194051D01*
X106989801Y-34179135D01*
X107197175Y-34098798D01*
X107197183Y-34098794D01*
X107386259Y-33981724D01*
X107550607Y-33831901D01*
X107684629Y-33654428D01*
X107783760Y-33455347D01*
X107836496Y-33270000D01*
X106910001Y-33270000D01*
X106910000Y-33270001D01*
X106904974Y-33270001D01*
X106940070Y-33234905D01*
X106986148Y-33155095D01*
X107010000Y-33066078D01*
X107010000Y-32973922D01*
X106986148Y-32884905D01*
X106940070Y-32805095D01*
X106904974Y-32769999D01*
X106910000Y-32769999D01*
X106910001Y-32770000D01*
X107836495Y-32770000D01*
X107783760Y-32584652D01*
X107684629Y-32385571D01*
X107550607Y-32208098D01*
X107386259Y-32058275D01*
X107197183Y-31941205D01*
X107197175Y-31941201D01*
X106989797Y-31860862D01*
X106910000Y-31845945D01*
X106910000Y-32769999D01*
X106904974Y-32769999D01*
X106874905Y-32739930D01*
X106795095Y-32693852D01*
X106706078Y-32670000D01*
X106613922Y-32670000D01*
X106524905Y-32693852D01*
X106445095Y-32739930D01*
X106379930Y-32805095D01*
X106333852Y-32884905D01*
X106310000Y-32973922D01*
X100680000Y-32973922D01*
X100656148Y-32884905D01*
X100610070Y-32805095D01*
X100574974Y-32769999D01*
X100580000Y-32769999D01*
X100580001Y-32770000D01*
X101506495Y-32770000D01*
X105483504Y-32770000D01*
X106409999Y-32770000D01*
X106410000Y-32769999D01*
X106410000Y-31845946D01*
X106409999Y-31845945D01*
X106330202Y-31860862D01*
X106122824Y-31941201D01*
X106122816Y-31941205D01*
X105933740Y-32058275D01*
X105769392Y-32208098D01*
X105635370Y-32385571D01*
X105536239Y-32584652D01*
X105483504Y-32770000D01*
X101506495Y-32770000D01*
X101453760Y-32584652D01*
X101354629Y-32385571D01*
X101220607Y-32208098D01*
X101056259Y-32058275D01*
X100867183Y-31941205D01*
X100867175Y-31941201D01*
X100659797Y-31860862D01*
X100580000Y-31845945D01*
X100580000Y-32769999D01*
X100574974Y-32769999D01*
X100544905Y-32739930D01*
X100465095Y-32693852D01*
X100376078Y-32670000D01*
X100283922Y-32670000D01*
X100194905Y-32693852D01*
X100115095Y-32739930D01*
X100049930Y-32805095D01*
X100003852Y-32884905D01*
X99980000Y-32973922D01*
X94330000Y-32973922D01*
X94306148Y-32884905D01*
X94260070Y-32805095D01*
X94224974Y-32769999D01*
X94230000Y-32769999D01*
X94230001Y-32770000D01*
X95156495Y-32770000D01*
X99153504Y-32770000D01*
X100079999Y-32770000D01*
X100080000Y-32769999D01*
X100080000Y-31845946D01*
X100079999Y-31845945D01*
X100000202Y-31860862D01*
X99792824Y-31941201D01*
X99792816Y-31941205D01*
X99603740Y-32058275D01*
X99439392Y-32208098D01*
X99305370Y-32385571D01*
X99206239Y-32584652D01*
X99153504Y-32770000D01*
X95156495Y-32770000D01*
X95103760Y-32584652D01*
X95004629Y-32385571D01*
X94870607Y-32208098D01*
X94706259Y-32058275D01*
X94517183Y-31941205D01*
X94517175Y-31941201D01*
X94309797Y-31860862D01*
X94230000Y-31845945D01*
X94230000Y-32769999D01*
X94224974Y-32769999D01*
X94194905Y-32739930D01*
X94115095Y-32693852D01*
X94026078Y-32670000D01*
X93933922Y-32670000D01*
X93844905Y-32693852D01*
X93765095Y-32739930D01*
X93699930Y-32805095D01*
X93653852Y-32884905D01*
X93630000Y-32973922D01*
X87980000Y-32973922D01*
X87956148Y-32884905D01*
X87910070Y-32805095D01*
X87874974Y-32769999D01*
X87880000Y-32769999D01*
X87880001Y-32770000D01*
X88806495Y-32770000D01*
X92803504Y-32770000D01*
X93729999Y-32770000D01*
X93730000Y-32769999D01*
X93730000Y-31845946D01*
X93729999Y-31845945D01*
X93650202Y-31860862D01*
X93442824Y-31941201D01*
X93442816Y-31941205D01*
X93253740Y-32058275D01*
X93089392Y-32208098D01*
X92955370Y-32385571D01*
X92856239Y-32584652D01*
X92803504Y-32770000D01*
X88806495Y-32770000D01*
X88753760Y-32584652D01*
X88654629Y-32385571D01*
X88520607Y-32208098D01*
X88356259Y-32058275D01*
X88167183Y-31941205D01*
X88167175Y-31941201D01*
X87959797Y-31860862D01*
X87880000Y-31845945D01*
X87880000Y-32769999D01*
X87874974Y-32769999D01*
X87844905Y-32739930D01*
X87765095Y-32693852D01*
X87676078Y-32670000D01*
X87583922Y-32670000D01*
X87494905Y-32693852D01*
X87415095Y-32739930D01*
X87349930Y-32805095D01*
X87303852Y-32884905D01*
X87280000Y-32973922D01*
X76550000Y-32973922D01*
X76526148Y-32884905D01*
X76480070Y-32805095D01*
X76444974Y-32769999D01*
X76450000Y-32769999D01*
X76450001Y-32770000D01*
X77376495Y-32770000D01*
X86453504Y-32770000D01*
X87379999Y-32770000D01*
X87380000Y-32769999D01*
X87380000Y-31845946D01*
X87379999Y-31845945D01*
X87300202Y-31860862D01*
X87092824Y-31941201D01*
X87092816Y-31941205D01*
X86903740Y-32058275D01*
X86739392Y-32208098D01*
X86605370Y-32385571D01*
X86506239Y-32584652D01*
X86453504Y-32770000D01*
X77376495Y-32770000D01*
X77323760Y-32584652D01*
X77224629Y-32385571D01*
X77090607Y-32208098D01*
X76926259Y-32058275D01*
X76737183Y-31941205D01*
X76737175Y-31941201D01*
X76529797Y-31860862D01*
X76450000Y-31845945D01*
X76450000Y-32769999D01*
X76444974Y-32769999D01*
X76414905Y-32739930D01*
X76335095Y-32693852D01*
X76246078Y-32670000D01*
X76153922Y-32670000D01*
X76064905Y-32693852D01*
X75985095Y-32739930D01*
X75919930Y-32805095D01*
X75873852Y-32884905D01*
X75850000Y-32973922D01*
X66390000Y-32973922D01*
X66366148Y-32884905D01*
X66320070Y-32805095D01*
X66284975Y-32770000D01*
X67216495Y-32770000D01*
X75023504Y-32770000D01*
X75949999Y-32770000D01*
X75950000Y-32769999D01*
X75950000Y-31845946D01*
X75949999Y-31845945D01*
X75870202Y-31860862D01*
X75662824Y-31941201D01*
X75662816Y-31941205D01*
X75473740Y-32058275D01*
X75309392Y-32208098D01*
X75175370Y-32385571D01*
X75076239Y-32584652D01*
X75023504Y-32770000D01*
X67216495Y-32770000D01*
X67163760Y-32584652D01*
X67064629Y-32385571D01*
X66930607Y-32208098D01*
X66766253Y-32058269D01*
X66760953Y-32054267D01*
X66696337Y-31981714D01*
X66664405Y-31889957D01*
X66670018Y-31792964D01*
X66712321Y-31705503D01*
X66734935Y-31679514D01*
X71441020Y-26973430D01*
X71521802Y-26919454D01*
X71617090Y-26900500D01*
X75339737Y-26900500D01*
X75435025Y-26919454D01*
X75447760Y-26925152D01*
X75576996Y-26987389D01*
X75748458Y-27040278D01*
X75820535Y-27062511D01*
X75820538Y-27062512D01*
X75820539Y-27062512D01*
X75820542Y-27062513D01*
X76072565Y-27100500D01*
X76072569Y-27100500D01*
X76327431Y-27100500D01*
X76327435Y-27100500D01*
X76579458Y-27062513D01*
X76823004Y-26987389D01*
X77052634Y-26876805D01*
X77263217Y-26733232D01*
X77450050Y-26559877D01*
X77608959Y-26360612D01*
X77736393Y-26139888D01*
X77829508Y-25902637D01*
X77886222Y-25654157D01*
X77905268Y-25400000D01*
X85924732Y-25400000D01*
X85943777Y-25654154D01*
X86000489Y-25902629D01*
X86000495Y-25902645D01*
X86093600Y-26139872D01*
X86093605Y-26139884D01*
X86093607Y-26139888D01*
X86221041Y-26360612D01*
X86221045Y-26360617D01*
X86379945Y-26559872D01*
X86566785Y-26733234D01*
X86777362Y-26876803D01*
X86777364Y-26876804D01*
X86777366Y-26876805D01*
X86865928Y-26919454D01*
X87006989Y-26987386D01*
X87006993Y-26987387D01*
X87006996Y-26987389D01*
X87178458Y-27040278D01*
X87250535Y-27062511D01*
X87250538Y-27062512D01*
X87250539Y-27062512D01*
X87250542Y-27062513D01*
X87502565Y-27100500D01*
X87502569Y-27100500D01*
X87757431Y-27100500D01*
X87757435Y-27100500D01*
X88009458Y-27062513D01*
X88253004Y-26987389D01*
X88482634Y-26876805D01*
X88693217Y-26733232D01*
X88880050Y-26559877D01*
X89038959Y-26360612D01*
X89166393Y-26139888D01*
X89259508Y-25902637D01*
X89316222Y-25654157D01*
X89335268Y-25400000D01*
X92274732Y-25400000D01*
X92293777Y-25654154D01*
X92350489Y-25902629D01*
X92350495Y-25902645D01*
X92443600Y-26139872D01*
X92443605Y-26139884D01*
X92443607Y-26139888D01*
X92571041Y-26360612D01*
X92571045Y-26360617D01*
X92729945Y-26559872D01*
X92916785Y-26733234D01*
X93127362Y-26876803D01*
X93127364Y-26876804D01*
X93127366Y-26876805D01*
X93215928Y-26919454D01*
X93356989Y-26987386D01*
X93356993Y-26987387D01*
X93356996Y-26987389D01*
X93528458Y-27040278D01*
X93600535Y-27062511D01*
X93600538Y-27062512D01*
X93600539Y-27062512D01*
X93600542Y-27062513D01*
X93852565Y-27100500D01*
X93852569Y-27100500D01*
X94107431Y-27100500D01*
X94107435Y-27100500D01*
X94359458Y-27062513D01*
X94603004Y-26987389D01*
X94832634Y-26876805D01*
X95043217Y-26733232D01*
X95230050Y-26559877D01*
X95388959Y-26360612D01*
X95516393Y-26139888D01*
X95609508Y-25902637D01*
X95666222Y-25654157D01*
X95685268Y-25400000D01*
X98624732Y-25400000D01*
X98643777Y-25654154D01*
X98700489Y-25902629D01*
X98700495Y-25902645D01*
X98793600Y-26139872D01*
X98793605Y-26139884D01*
X98793607Y-26139888D01*
X98921041Y-26360612D01*
X98921045Y-26360617D01*
X99079945Y-26559872D01*
X99266785Y-26733234D01*
X99477362Y-26876803D01*
X99477364Y-26876804D01*
X99477366Y-26876805D01*
X99565928Y-26919454D01*
X99706989Y-26987386D01*
X99706993Y-26987387D01*
X99706996Y-26987389D01*
X99878458Y-27040278D01*
X99950535Y-27062511D01*
X99950538Y-27062512D01*
X99950539Y-27062512D01*
X99950542Y-27062513D01*
X100202565Y-27100500D01*
X100202569Y-27100500D01*
X100457431Y-27100500D01*
X100457435Y-27100500D01*
X100709458Y-27062513D01*
X100953004Y-26987389D01*
X101182634Y-26876805D01*
X101393217Y-26733232D01*
X101580050Y-26559877D01*
X101738959Y-26360612D01*
X101866393Y-26139888D01*
X101959508Y-25902637D01*
X102016222Y-25654157D01*
X102035268Y-25400000D01*
X102016222Y-25145843D01*
X101973093Y-24956884D01*
X101959510Y-24897370D01*
X101959508Y-24897367D01*
X101959508Y-24897363D01*
X101866393Y-24660112D01*
X101738959Y-24439388D01*
X101665454Y-24347216D01*
X101580054Y-24240127D01*
X101393214Y-24066765D01*
X101182637Y-23923196D01*
X101182632Y-23923194D01*
X100953010Y-23812613D01*
X100953005Y-23812611D01*
X100709464Y-23737488D01*
X100709461Y-23737487D01*
X100601448Y-23721206D01*
X100457435Y-23699500D01*
X100202565Y-23699500D01*
X100076553Y-23718493D01*
X99950538Y-23737487D01*
X99950535Y-23737488D01*
X99706994Y-23812611D01*
X99706989Y-23812613D01*
X99477367Y-23923194D01*
X99477362Y-23923196D01*
X99266785Y-24066765D01*
X99079945Y-24240127D01*
X98921045Y-24439382D01*
X98921041Y-24439388D01*
X98793609Y-24660107D01*
X98793600Y-24660127D01*
X98700495Y-24897354D01*
X98700489Y-24897370D01*
X98643777Y-25145845D01*
X98624732Y-25400000D01*
X95685268Y-25400000D01*
X95666222Y-25145843D01*
X95623093Y-24956884D01*
X95609510Y-24897370D01*
X95609508Y-24897367D01*
X95609508Y-24897363D01*
X95516393Y-24660112D01*
X95388959Y-24439388D01*
X95315454Y-24347216D01*
X95230054Y-24240127D01*
X95043214Y-24066765D01*
X94832637Y-23923196D01*
X94832632Y-23923194D01*
X94603010Y-23812613D01*
X94603005Y-23812611D01*
X94359464Y-23737488D01*
X94359461Y-23737487D01*
X94251448Y-23721206D01*
X94107435Y-23699500D01*
X93852565Y-23699500D01*
X93726553Y-23718493D01*
X93600538Y-23737487D01*
X93600535Y-23737488D01*
X93356994Y-23812611D01*
X93356989Y-23812613D01*
X93127367Y-23923194D01*
X93127362Y-23923196D01*
X92916785Y-24066765D01*
X92729945Y-24240127D01*
X92571045Y-24439382D01*
X92571041Y-24439388D01*
X92443609Y-24660107D01*
X92443600Y-24660127D01*
X92350495Y-24897354D01*
X92350489Y-24897370D01*
X92293777Y-25145845D01*
X92274732Y-25400000D01*
X89335268Y-25400000D01*
X89316222Y-25145843D01*
X89273093Y-24956884D01*
X89259510Y-24897370D01*
X89259508Y-24897367D01*
X89259508Y-24897363D01*
X89166393Y-24660112D01*
X89038959Y-24439388D01*
X88965454Y-24347216D01*
X88880054Y-24240127D01*
X88693214Y-24066765D01*
X88482637Y-23923196D01*
X88482632Y-23923194D01*
X88253010Y-23812613D01*
X88253005Y-23812611D01*
X88009464Y-23737488D01*
X88009461Y-23737487D01*
X87901448Y-23721206D01*
X87757435Y-23699500D01*
X87502565Y-23699500D01*
X87376553Y-23718493D01*
X87250538Y-23737487D01*
X87250535Y-23737488D01*
X87006994Y-23812611D01*
X87006989Y-23812613D01*
X86777367Y-23923194D01*
X86777362Y-23923196D01*
X86566785Y-24066765D01*
X86379945Y-24240127D01*
X86221045Y-24439382D01*
X86221041Y-24439388D01*
X86093609Y-24660107D01*
X86093600Y-24660127D01*
X86000495Y-24897354D01*
X86000489Y-24897370D01*
X85943777Y-25145845D01*
X85924732Y-25400000D01*
X77905268Y-25400000D01*
X77886222Y-25145843D01*
X77843093Y-24956884D01*
X77829510Y-24897370D01*
X77829508Y-24897367D01*
X77829508Y-24897363D01*
X77736393Y-24660112D01*
X77608959Y-24439388D01*
X77535454Y-24347216D01*
X77450054Y-24240127D01*
X77263214Y-24066765D01*
X77052637Y-23923196D01*
X77052632Y-23923194D01*
X76823010Y-23812613D01*
X76823005Y-23812611D01*
X76579464Y-23737488D01*
X76579461Y-23737487D01*
X76471448Y-23721206D01*
X76327435Y-23699500D01*
X76072565Y-23699500D01*
X75946553Y-23718493D01*
X75820538Y-23737487D01*
X75820535Y-23737488D01*
X75576994Y-23812611D01*
X75491455Y-23853804D01*
X75447772Y-23874841D01*
X75353699Y-23899108D01*
X75339737Y-23899500D01*
X70951108Y-23899500D01*
X70951105Y-23899500D01*
X70951096Y-23899501D01*
X70717835Y-23936446D01*
X70493212Y-24009430D01*
X70282762Y-24116659D01*
X70091695Y-24255478D01*
X69924678Y-24422495D01*
X69785857Y-24613565D01*
X69674398Y-24832315D01*
X69628608Y-24895340D01*
X67771222Y-26752726D01*
X67690440Y-26806702D01*
X67595152Y-26825656D01*
X67499864Y-26806702D01*
X67419082Y-26752726D01*
X67365106Y-26671944D01*
X67346152Y-26576656D01*
X67365106Y-26481368D01*
X67400477Y-26421406D01*
X67448954Y-26360618D01*
X67448955Y-26360617D01*
X67448959Y-26360612D01*
X67576393Y-26139888D01*
X67669508Y-25902637D01*
X67726222Y-25654157D01*
X67745268Y-25400000D01*
X67726222Y-25145843D01*
X67683093Y-24956884D01*
X67669510Y-24897370D01*
X67669508Y-24897367D01*
X67669508Y-24897363D01*
X67576393Y-24660112D01*
X67448959Y-24439388D01*
X67375454Y-24347216D01*
X67290054Y-24240127D01*
X67103214Y-24066765D01*
X66892637Y-23923196D01*
X66892632Y-23923194D01*
X66663010Y-23812613D01*
X66663005Y-23812611D01*
X66419464Y-23737488D01*
X66419461Y-23737487D01*
X66311448Y-23721206D01*
X66167435Y-23699500D01*
X65912565Y-23699500D01*
X65786553Y-23718493D01*
X65660538Y-23737487D01*
X65660535Y-23737488D01*
X65416994Y-23812611D01*
X65416989Y-23812613D01*
X65187367Y-23923194D01*
X65187362Y-23923196D01*
X64976785Y-24066765D01*
X64789945Y-24240127D01*
X64631045Y-24439382D01*
X64631041Y-24439388D01*
X64503609Y-24660107D01*
X64503600Y-24660127D01*
X64410495Y-24897354D01*
X64410489Y-24897370D01*
X64353777Y-25145845D01*
X64334732Y-25400000D01*
X64353777Y-25654154D01*
X64410489Y-25902629D01*
X64410495Y-25902645D01*
X64503600Y-26139872D01*
X64503605Y-26139884D01*
X64503607Y-26139888D01*
X64631041Y-26360612D01*
X64631045Y-26360617D01*
X64789945Y-26559872D01*
X64976785Y-26733234D01*
X65187362Y-26876803D01*
X65187364Y-26876804D01*
X65187366Y-26876805D01*
X65275928Y-26919454D01*
X65416989Y-26987386D01*
X65416993Y-26987387D01*
X65416996Y-26987389D01*
X65588458Y-27040278D01*
X65660535Y-27062511D01*
X65660538Y-27062512D01*
X65660539Y-27062512D01*
X65660542Y-27062513D01*
X65912565Y-27100500D01*
X65912569Y-27100500D01*
X66167431Y-27100500D01*
X66167435Y-27100500D01*
X66419458Y-27062513D01*
X66663004Y-26987389D01*
X66892634Y-26876805D01*
X67069779Y-26756029D01*
X67159185Y-26718012D01*
X67256336Y-26717104D01*
X67346440Y-26753442D01*
X67415778Y-26821496D01*
X67453796Y-26910903D01*
X67454704Y-27008054D01*
X67418366Y-27098158D01*
X67386115Y-27137833D01*
X58234746Y-36289201D01*
X58153964Y-36343177D01*
X58058676Y-36362131D01*
X57963388Y-36343177D01*
X57915858Y-36317101D01*
X57904334Y-36309032D01*
X57904332Y-36309031D01*
X57904325Y-36309027D01*
X57698099Y-36212862D01*
X57698096Y-36212861D01*
X57478294Y-36153965D01*
X57478279Y-36153963D01*
X57251606Y-36134132D01*
X57251594Y-36134132D01*
X57024920Y-36153963D01*
X57024902Y-36153966D01*
X56925443Y-36180616D01*
X56860999Y-36189100D01*
X37956983Y-36189100D01*
X37956979Y-36189100D01*
X37956974Y-36189101D01*
X37847657Y-36206415D01*
X37806960Y-36212861D01*
X37776632Y-36217664D01*
X37762572Y-36219891D01*
X37575382Y-36280713D01*
X37575376Y-36280715D01*
X37399990Y-36370078D01*
X37240759Y-36485767D01*
X37240755Y-36485770D01*
X35719103Y-38007420D01*
X35638322Y-38061396D01*
X35560798Y-38079716D01*
X35560000Y-38079773D01*
X35493910Y-38084500D01*
X35295972Y-38098657D01*
X35183440Y-38123137D01*
X35037322Y-38154923D01*
X35007508Y-38166043D01*
X34789312Y-38247425D01*
X34789308Y-38247427D01*
X34556995Y-38374280D01*
X34556989Y-38374284D01*
X34439218Y-38462445D01*
X34351579Y-38504375D01*
X34254564Y-38509576D01*
X34162943Y-38477254D01*
X34140785Y-38462448D01*
X34023011Y-38374284D01*
X34009662Y-38366995D01*
X33790691Y-38247427D01*
X33790687Y-38247425D01*
X33719177Y-38220753D01*
X33542678Y-38154923D01*
X33340293Y-38110897D01*
X33284027Y-38098657D01*
X33020000Y-38079773D01*
X32755972Y-38098657D01*
X32643440Y-38123137D01*
X32497322Y-38154923D01*
X32467508Y-38166043D01*
X32249312Y-38247425D01*
X32249308Y-38247427D01*
X32016995Y-38374280D01*
X32016989Y-38374284D01*
X31899218Y-38462445D01*
X31811579Y-38504375D01*
X31714564Y-38509576D01*
X31622943Y-38477254D01*
X31600785Y-38462448D01*
X31483011Y-38374284D01*
X31469662Y-38366995D01*
X31250691Y-38247427D01*
X31250687Y-38247425D01*
X31179177Y-38220753D01*
X31002678Y-38154923D01*
X30800293Y-38110897D01*
X30744027Y-38098657D01*
X30480000Y-38079773D01*
X30215972Y-38098657D01*
X30103440Y-38123137D01*
X29957322Y-38154923D01*
X29927508Y-38166043D01*
X29709312Y-38247425D01*
X29709308Y-38247427D01*
X29476995Y-38374280D01*
X29476989Y-38374284D01*
X29359218Y-38462445D01*
X29271579Y-38504375D01*
X29174564Y-38509576D01*
X29082943Y-38477254D01*
X29060785Y-38462448D01*
X28943011Y-38374284D01*
X28929662Y-38366995D01*
X28710691Y-38247427D01*
X28710687Y-38247425D01*
X28639177Y-38220753D01*
X28462678Y-38154923D01*
X28260293Y-38110897D01*
X28204027Y-38098657D01*
X28186462Y-38097400D01*
X28048737Y-38087550D01*
X27955047Y-38061847D01*
X27878322Y-38002245D01*
X27830246Y-37917819D01*
X27818138Y-37821421D01*
X27843842Y-37727728D01*
X27890431Y-37663118D01*
X32283550Y-33270000D01*
X54703504Y-33270000D01*
X54756239Y-33455347D01*
X54855370Y-33654428D01*
X54989392Y-33831901D01*
X55153740Y-33981724D01*
X55342816Y-34098794D01*
X55342824Y-34098798D01*
X55550198Y-34179135D01*
X55630000Y-34194052D01*
X55630000Y-33270001D01*
X55629999Y-33270000D01*
X54703504Y-33270000D01*
X32283550Y-33270000D01*
X32579628Y-32973922D01*
X55530000Y-32973922D01*
X55530000Y-33066078D01*
X55553852Y-33155095D01*
X55599930Y-33234905D01*
X55665095Y-33300070D01*
X55744905Y-33346148D01*
X55833922Y-33370000D01*
X55926078Y-33370000D01*
X56015095Y-33346148D01*
X56094905Y-33300070D01*
X56124974Y-33270001D01*
X56130000Y-33270001D01*
X56130000Y-34194051D01*
X56209801Y-34179135D01*
X56417175Y-34098798D01*
X56417183Y-34098794D01*
X56606259Y-33981724D01*
X56770607Y-33831901D01*
X56904629Y-33654428D01*
X57003760Y-33455347D01*
X57056496Y-33270000D01*
X56130001Y-33270000D01*
X56130000Y-33270001D01*
X56124974Y-33270001D01*
X56160070Y-33234905D01*
X56206148Y-33155095D01*
X56230000Y-33066078D01*
X56230000Y-32973922D01*
X56206148Y-32884905D01*
X56160070Y-32805095D01*
X56124974Y-32769999D01*
X56130000Y-32769999D01*
X56130001Y-32770000D01*
X57056495Y-32770000D01*
X57003760Y-32584652D01*
X56904629Y-32385571D01*
X56770607Y-32208098D01*
X56606259Y-32058275D01*
X56417183Y-31941205D01*
X56417175Y-31941201D01*
X56209797Y-31860862D01*
X56130000Y-31845945D01*
X56130000Y-32769999D01*
X56124974Y-32769999D01*
X56094905Y-32739930D01*
X56015095Y-32693852D01*
X55926078Y-32670000D01*
X55833922Y-32670000D01*
X55744905Y-32693852D01*
X55665095Y-32739930D01*
X55599930Y-32805095D01*
X55553852Y-32884905D01*
X55530000Y-32973922D01*
X32579628Y-32973922D01*
X32783550Y-32770000D01*
X54703504Y-32770000D01*
X55629999Y-32770000D01*
X55630000Y-32769999D01*
X55630000Y-31845946D01*
X55629999Y-31845945D01*
X55550202Y-31860862D01*
X55342824Y-31941201D01*
X55342816Y-31941205D01*
X55153740Y-32058275D01*
X54989392Y-32208098D01*
X54855370Y-32385571D01*
X54756239Y-32584652D01*
X54703504Y-32770000D01*
X32783550Y-32770000D01*
X32799172Y-32754378D01*
X32926433Y-32579219D01*
X33024726Y-32386309D01*
X33091630Y-32180397D01*
X33110141Y-32063525D01*
X33125499Y-31966563D01*
X33125500Y-31966551D01*
X33125500Y-25400000D01*
X54174732Y-25400000D01*
X54193777Y-25654154D01*
X54250489Y-25902629D01*
X54250495Y-25902645D01*
X54343600Y-26139872D01*
X54343605Y-26139884D01*
X54343607Y-26139888D01*
X54471041Y-26360612D01*
X54471045Y-26360617D01*
X54629945Y-26559872D01*
X54816785Y-26733234D01*
X55027362Y-26876803D01*
X55027364Y-26876804D01*
X55027366Y-26876805D01*
X55115928Y-26919454D01*
X55256989Y-26987386D01*
X55256993Y-26987387D01*
X55256996Y-26987389D01*
X55428458Y-27040278D01*
X55500535Y-27062511D01*
X55500538Y-27062512D01*
X55500539Y-27062512D01*
X55500542Y-27062513D01*
X55752565Y-27100500D01*
X55752569Y-27100500D01*
X56007431Y-27100500D01*
X56007435Y-27100500D01*
X56259458Y-27062513D01*
X56503004Y-26987389D01*
X56732634Y-26876805D01*
X56943217Y-26733232D01*
X57130050Y-26559877D01*
X57288959Y-26360612D01*
X57416393Y-26139888D01*
X57509508Y-25902637D01*
X57566222Y-25654157D01*
X57585268Y-25400000D01*
X57566222Y-25145843D01*
X57523093Y-24956884D01*
X57509510Y-24897370D01*
X57509508Y-24897367D01*
X57509508Y-24897363D01*
X57416393Y-24660112D01*
X57288959Y-24439388D01*
X57215454Y-24347216D01*
X57130054Y-24240127D01*
X56943214Y-24066765D01*
X56732637Y-23923196D01*
X56732632Y-23923194D01*
X56503010Y-23812613D01*
X56503005Y-23812611D01*
X56259464Y-23737488D01*
X56259461Y-23737487D01*
X56151448Y-23721206D01*
X56007435Y-23699500D01*
X55752565Y-23699500D01*
X55626553Y-23718493D01*
X55500538Y-23737487D01*
X55500535Y-23737488D01*
X55256994Y-23812611D01*
X55256989Y-23812613D01*
X55027367Y-23923194D01*
X55027362Y-23923196D01*
X54816785Y-24066765D01*
X54629945Y-24240127D01*
X54471045Y-24439382D01*
X54471041Y-24439388D01*
X54343609Y-24660107D01*
X54343600Y-24660127D01*
X54250495Y-24897354D01*
X54250489Y-24897370D01*
X54193777Y-25145845D01*
X54174732Y-25400000D01*
X33125500Y-25400000D01*
X33125500Y-19672204D01*
X33144454Y-19576916D01*
X33198430Y-19496134D01*
X33279212Y-19442158D01*
X33374500Y-19423204D01*
X33469788Y-19442158D01*
X33493828Y-19453659D01*
X33519311Y-19467574D01*
X33767322Y-19560077D01*
X34025974Y-19616343D01*
X34290000Y-19635227D01*
X34554026Y-19616343D01*
X34812678Y-19560077D01*
X35060689Y-19467574D01*
X35293011Y-19340716D01*
X35504915Y-19182087D01*
X35692087Y-18994915D01*
X35726132Y-18949436D01*
X35798408Y-18884513D01*
X35890028Y-18852191D01*
X35987044Y-18857390D01*
X36068288Y-18894688D01*
X36152422Y-18953600D01*
X36366511Y-19053431D01*
X36580000Y-19110635D01*
X36580000Y-18213012D01*
X36637007Y-18245925D01*
X36764174Y-18280000D01*
X36895826Y-18280000D01*
X37022993Y-18245925D01*
X37080000Y-18213012D01*
X37080000Y-19110635D01*
X37293488Y-19053431D01*
X37507576Y-18953600D01*
X37701076Y-18818110D01*
X37868110Y-18651076D01*
X38003600Y-18457576D01*
X38103433Y-18243485D01*
X38103433Y-18243483D01*
X38160636Y-18030001D01*
X38160636Y-18030000D01*
X37263012Y-18030000D01*
X37295925Y-17972993D01*
X37330000Y-17845826D01*
X37330000Y-17714174D01*
X37295925Y-17587007D01*
X37263012Y-17530000D01*
X38160636Y-17530000D01*
X38183410Y-17500320D01*
X38256455Y-17436260D01*
X38348453Y-17405030D01*
X38380956Y-17402900D01*
X39810500Y-17402900D01*
X39905788Y-17421854D01*
X39986570Y-17475830D01*
X40040546Y-17556612D01*
X40059500Y-17651900D01*
X40059500Y-18688031D01*
X40059501Y-18688043D01*
X40070113Y-18807414D01*
X40070113Y-18807417D01*
X40070114Y-18807418D01*
X40117116Y-18971681D01*
X40126090Y-19003045D01*
X40126093Y-19003053D01*
X40220297Y-19183399D01*
X40220302Y-19183407D01*
X40348891Y-19341109D01*
X40506593Y-19469698D01*
X40686951Y-19563909D01*
X40882582Y-19619886D01*
X41001963Y-19630500D01*
X42818036Y-19630499D01*
X42937418Y-19619886D01*
X43133049Y-19563909D01*
X43313407Y-19469698D01*
X43331976Y-19454556D01*
X43417795Y-19409033D01*
X43514512Y-19399814D01*
X43607394Y-19428309D01*
X43608582Y-19428953D01*
X43679311Y-19467574D01*
X43927322Y-19560077D01*
X44185974Y-19616343D01*
X44450000Y-19635227D01*
X44714026Y-19616343D01*
X44972678Y-19560077D01*
X45220689Y-19467574D01*
X45453011Y-19340716D01*
X45664915Y-19182087D01*
X45852087Y-18994915D01*
X45886132Y-18949436D01*
X45958408Y-18884513D01*
X46050028Y-18852191D01*
X46147044Y-18857390D01*
X46228288Y-18894688D01*
X46312422Y-18953600D01*
X46526511Y-19053431D01*
X46740000Y-19110635D01*
X46740000Y-18213012D01*
X46797007Y-18245925D01*
X46924174Y-18280000D01*
X47055826Y-18280000D01*
X47182993Y-18245925D01*
X47240000Y-18213012D01*
X47240000Y-19110635D01*
X47453488Y-19053431D01*
X47667576Y-18953600D01*
X47861076Y-18818110D01*
X48028110Y-18651076D01*
X48163600Y-18457576D01*
X48263433Y-18243485D01*
X48263433Y-18243483D01*
X48320636Y-18030001D01*
X48320636Y-18030000D01*
X47423012Y-18030000D01*
X47455925Y-17972993D01*
X47490000Y-17845826D01*
X47490000Y-17714174D01*
X47455925Y-17587007D01*
X47423012Y-17530000D01*
X48320636Y-17530000D01*
X48332075Y-17515091D01*
X48330719Y-17494401D01*
X48361948Y-17402401D01*
X48426006Y-17329356D01*
X48513141Y-17286385D01*
X48577589Y-17277900D01*
X51006286Y-17277900D01*
X51101574Y-17296854D01*
X51182356Y-17350830D01*
X51456570Y-17625044D01*
X51510546Y-17705826D01*
X51529500Y-17801114D01*
X51529500Y-18594208D01*
X51539904Y-18726417D01*
X51539904Y-18726418D01*
X51540388Y-18728335D01*
X51540462Y-18729816D01*
X51541602Y-18736757D01*
X51540820Y-18736885D01*
X51545291Y-18825366D01*
X51512687Y-18916887D01*
X51447542Y-18988965D01*
X51394232Y-19019215D01*
X51377141Y-19026294D01*
X51377135Y-19026298D01*
X51237841Y-19119371D01*
X51119371Y-19237841D01*
X51026298Y-19377135D01*
X51026295Y-19377140D01*
X50962185Y-19531913D01*
X50962184Y-19531917D01*
X50962184Y-19531918D01*
X50929500Y-19696233D01*
X50929500Y-19863767D01*
X50952804Y-19980923D01*
X50962185Y-20028086D01*
X50973737Y-20055974D01*
X51026297Y-20182863D01*
X51119374Y-20322162D01*
X51237838Y-20440626D01*
X51377137Y-20533703D01*
X51531918Y-20597816D01*
X51696233Y-20630500D01*
X51696235Y-20630500D01*
X51863765Y-20630500D01*
X51863767Y-20630500D01*
X52028082Y-20597816D01*
X52182863Y-20533703D01*
X52322162Y-20440626D01*
X52440626Y-20322162D01*
X52533703Y-20182863D01*
X52597816Y-20028082D01*
X52607196Y-19980921D01*
X52644375Y-19891163D01*
X52713074Y-19822464D01*
X52802833Y-19785284D01*
X52851402Y-19780499D01*
X54044216Y-19780499D01*
X54176412Y-19770096D01*
X54394683Y-19715096D01*
X54599626Y-19622007D01*
X54701778Y-19551235D01*
X54790896Y-19512552D01*
X54888037Y-19510916D01*
X54968075Y-19540273D01*
X55059788Y-19593224D01*
X55059791Y-19593225D01*
X55059798Y-19593229D01*
X55161192Y-19635227D01*
X55283900Y-19686054D01*
X55283911Y-19686057D01*
X55283917Y-19686059D01*
X55392285Y-19715096D01*
X55518211Y-19748838D01*
X55758712Y-19780500D01*
X56001288Y-19780500D01*
X56241789Y-19748838D01*
X56438112Y-19696233D01*
X56476082Y-19686059D01*
X56476084Y-19686058D01*
X56476100Y-19686054D01*
X56635844Y-19619886D01*
X56700201Y-19593229D01*
X56700206Y-19593226D01*
X56700212Y-19593224D01*
X56910289Y-19471936D01*
X57102738Y-19324265D01*
X57274265Y-19152738D01*
X57421936Y-18960289D01*
X57543224Y-18750212D01*
X57548745Y-18736885D01*
X57607839Y-18594216D01*
X57636054Y-18526100D01*
X57698838Y-18291789D01*
X57730500Y-18051288D01*
X57730500Y-17527800D01*
X57749454Y-17432512D01*
X57803430Y-17351730D01*
X57884212Y-17297754D01*
X57979500Y-17278800D01*
X61167186Y-17278800D01*
X61262474Y-17297754D01*
X61343256Y-17351730D01*
X61616570Y-17625044D01*
X61670546Y-17705826D01*
X61689500Y-17801114D01*
X61689500Y-18594208D01*
X61699904Y-18726417D01*
X61699904Y-18726418D01*
X61700388Y-18728335D01*
X61700462Y-18729816D01*
X61701602Y-18736757D01*
X61700820Y-18736885D01*
X61705291Y-18825366D01*
X61672687Y-18916887D01*
X61607542Y-18988965D01*
X61554232Y-19019215D01*
X61537141Y-19026294D01*
X61537135Y-19026298D01*
X61397841Y-19119371D01*
X61279371Y-19237841D01*
X61186298Y-19377135D01*
X61186295Y-19377140D01*
X61122185Y-19531913D01*
X61122184Y-19531917D01*
X61122184Y-19531918D01*
X61089500Y-19696233D01*
X61089500Y-19863767D01*
X61112804Y-19980923D01*
X61122185Y-20028086D01*
X61133737Y-20055974D01*
X61186297Y-20182863D01*
X61279374Y-20322162D01*
X61397838Y-20440626D01*
X61537137Y-20533703D01*
X61691918Y-20597816D01*
X61856233Y-20630500D01*
X61856235Y-20630500D01*
X62023765Y-20630500D01*
X62023767Y-20630500D01*
X62188082Y-20597816D01*
X62342863Y-20533703D01*
X62482162Y-20440626D01*
X62600626Y-20322162D01*
X62693703Y-20182863D01*
X62757816Y-20028082D01*
X62767196Y-19980921D01*
X62804375Y-19891163D01*
X62873074Y-19822464D01*
X62962833Y-19785284D01*
X63011402Y-19780499D01*
X64204216Y-19780499D01*
X64336412Y-19770096D01*
X64554683Y-19715096D01*
X64759626Y-19622007D01*
X64861778Y-19551235D01*
X64950896Y-19512552D01*
X65048037Y-19510916D01*
X65128075Y-19540273D01*
X65219788Y-19593224D01*
X65219791Y-19593225D01*
X65219798Y-19593229D01*
X65321192Y-19635227D01*
X65443900Y-19686054D01*
X65443911Y-19686057D01*
X65443917Y-19686059D01*
X65552285Y-19715096D01*
X65678211Y-19748838D01*
X65918712Y-19780500D01*
X66161288Y-19780500D01*
X66401789Y-19748838D01*
X66598112Y-19696233D01*
X66636082Y-19686059D01*
X66636084Y-19686058D01*
X66636100Y-19686054D01*
X66795844Y-19619886D01*
X66860201Y-19593229D01*
X66860206Y-19593226D01*
X66860212Y-19593224D01*
X67070289Y-19471936D01*
X67262738Y-19324265D01*
X67434265Y-19152738D01*
X67581936Y-18960289D01*
X67703224Y-18750212D01*
X67708745Y-18736885D01*
X67767839Y-18594216D01*
X67796054Y-18526100D01*
X67858838Y-18291789D01*
X67890500Y-18051288D01*
X67890500Y-17527500D01*
X67909454Y-17432212D01*
X67963430Y-17351430D01*
X68044212Y-17297454D01*
X68139500Y-17278500D01*
X71326886Y-17278500D01*
X71422174Y-17297454D01*
X71502956Y-17351430D01*
X71776570Y-17625044D01*
X71830546Y-17705826D01*
X71849500Y-17801114D01*
X71849500Y-18594208D01*
X71859904Y-18726417D01*
X71859904Y-18726418D01*
X71860388Y-18728335D01*
X71860462Y-18729816D01*
X71861602Y-18736757D01*
X71860820Y-18736885D01*
X71865291Y-18825366D01*
X71832687Y-18916887D01*
X71767542Y-18988965D01*
X71714232Y-19019215D01*
X71697141Y-19026294D01*
X71697135Y-19026298D01*
X71557841Y-19119371D01*
X71439371Y-19237841D01*
X71346298Y-19377135D01*
X71346295Y-19377140D01*
X71282185Y-19531913D01*
X71282184Y-19531917D01*
X71282184Y-19531918D01*
X71249500Y-19696233D01*
X71249500Y-19863767D01*
X71272804Y-19980923D01*
X71282185Y-20028086D01*
X71293737Y-20055974D01*
X71346297Y-20182863D01*
X71439374Y-20322162D01*
X71557838Y-20440626D01*
X71697137Y-20533703D01*
X71851918Y-20597816D01*
X72016233Y-20630500D01*
X72016235Y-20630500D01*
X72183765Y-20630500D01*
X72183767Y-20630500D01*
X72348082Y-20597816D01*
X72502863Y-20533703D01*
X72642162Y-20440626D01*
X72760626Y-20322162D01*
X72853703Y-20182863D01*
X72917816Y-20028082D01*
X72927196Y-19980921D01*
X72964375Y-19891163D01*
X73033074Y-19822464D01*
X73122833Y-19785284D01*
X73171402Y-19780499D01*
X74364216Y-19780499D01*
X74496412Y-19770096D01*
X74714683Y-19715096D01*
X74919626Y-19622007D01*
X75021778Y-19551235D01*
X75110896Y-19512552D01*
X75208037Y-19510916D01*
X75288075Y-19540273D01*
X75379788Y-19593224D01*
X75379791Y-19593225D01*
X75379798Y-19593229D01*
X75481192Y-19635227D01*
X75603900Y-19686054D01*
X75603911Y-19686057D01*
X75603917Y-19686059D01*
X75712285Y-19715096D01*
X75838211Y-19748838D01*
X76078712Y-19780500D01*
X76321288Y-19780500D01*
X76561789Y-19748838D01*
X76758112Y-19696233D01*
X76796082Y-19686059D01*
X76796084Y-19686058D01*
X76796100Y-19686054D01*
X76955844Y-19619886D01*
X77020201Y-19593229D01*
X77020206Y-19593226D01*
X77020212Y-19593224D01*
X77230289Y-19471936D01*
X77422738Y-19324265D01*
X77594265Y-19152738D01*
X77741936Y-18960289D01*
X77863224Y-18750212D01*
X77868745Y-18736885D01*
X77927839Y-18594216D01*
X77956054Y-18526100D01*
X78018838Y-18291789D01*
X78050500Y-18051288D01*
X78050500Y-17527000D01*
X78069454Y-17431712D01*
X78123430Y-17350930D01*
X78204212Y-17296954D01*
X78299500Y-17278000D01*
X83906386Y-17278000D01*
X84001674Y-17296954D01*
X84082456Y-17350930D01*
X85326172Y-18594646D01*
X85326171Y-18594646D01*
X85419557Y-18688031D01*
X85465354Y-18733828D01*
X85533048Y-18783011D01*
X85591344Y-18825366D01*
X85624595Y-18849524D01*
X85746300Y-18911535D01*
X85822594Y-18971681D01*
X85853956Y-19018106D01*
X85870331Y-19049454D01*
X85940297Y-19183399D01*
X85940301Y-19183406D01*
X85940306Y-19183413D01*
X85955440Y-19201973D01*
X86000968Y-19287800D01*
X86010185Y-19384517D01*
X85981688Y-19477399D01*
X85981004Y-19478660D01*
X85942427Y-19549308D01*
X85942425Y-19549312D01*
X85912144Y-19630500D01*
X85849923Y-19797322D01*
X85835469Y-19863767D01*
X85799724Y-20028086D01*
X85793657Y-20055974D01*
X85774773Y-20320000D01*
X85793657Y-20584026D01*
X85849923Y-20842678D01*
X85896589Y-20967795D01*
X85942425Y-21090687D01*
X85942427Y-21090691D01*
X86056114Y-21298893D01*
X86069284Y-21323011D01*
X86227913Y-21534915D01*
X86415085Y-21722087D01*
X86626989Y-21880716D01*
X86859311Y-22007574D01*
X87107322Y-22100077D01*
X87365974Y-22156343D01*
X87630000Y-22175227D01*
X87894026Y-22156343D01*
X88152678Y-22100077D01*
X88400689Y-22007574D01*
X88633011Y-21880716D01*
X88844915Y-21722087D01*
X89032087Y-21534915D01*
X89190716Y-21323011D01*
X89317574Y-21090689D01*
X89410077Y-20842678D01*
X89466343Y-20584026D01*
X89485227Y-20320000D01*
X89466343Y-20055974D01*
X89410077Y-19797322D01*
X89317574Y-19549311D01*
X89278995Y-19478660D01*
X89249964Y-19385946D01*
X89258623Y-19289177D01*
X89303654Y-19203089D01*
X89304339Y-19202242D01*
X89319698Y-19183407D01*
X89329723Y-19164214D01*
X89390640Y-19088531D01*
X89475883Y-19041920D01*
X89550427Y-19030500D01*
X92059573Y-19030500D01*
X92154861Y-19049454D01*
X92235643Y-19103430D01*
X92280276Y-19164213D01*
X92290302Y-19183407D01*
X92290303Y-19183409D01*
X92290306Y-19183413D01*
X92305440Y-19201973D01*
X92350968Y-19287800D01*
X92360185Y-19384517D01*
X92331688Y-19477399D01*
X92331004Y-19478660D01*
X92292427Y-19549308D01*
X92292425Y-19549312D01*
X92262144Y-19630500D01*
X92199923Y-19797322D01*
X92185469Y-19863767D01*
X92149724Y-20028086D01*
X92143657Y-20055974D01*
X92124773Y-20320000D01*
X92143657Y-20584026D01*
X92199923Y-20842678D01*
X92246589Y-20967795D01*
X92292425Y-21090687D01*
X92292427Y-21090691D01*
X92406114Y-21298893D01*
X92419284Y-21323011D01*
X92577913Y-21534915D01*
X92765085Y-21722087D01*
X92976989Y-21880716D01*
X93209311Y-22007574D01*
X93457322Y-22100077D01*
X93715974Y-22156343D01*
X93980000Y-22175227D01*
X94244026Y-22156343D01*
X94502678Y-22100077D01*
X94750689Y-22007574D01*
X94983011Y-21880716D01*
X95194915Y-21722087D01*
X95382087Y-21534915D01*
X95540716Y-21323011D01*
X95667574Y-21090689D01*
X95760077Y-20842678D01*
X95816343Y-20584026D01*
X95835227Y-20320000D01*
X98474773Y-20320000D01*
X98493657Y-20584026D01*
X98549923Y-20842678D01*
X98596589Y-20967795D01*
X98642425Y-21090687D01*
X98642427Y-21090691D01*
X98756114Y-21298893D01*
X98769284Y-21323011D01*
X98927913Y-21534915D01*
X99115085Y-21722087D01*
X99326989Y-21880716D01*
X99559311Y-22007574D01*
X99807322Y-22100077D01*
X100065974Y-22156343D01*
X100330000Y-22175227D01*
X100594026Y-22156343D01*
X100852678Y-22100077D01*
X101100689Y-22007574D01*
X101333011Y-21880716D01*
X101544915Y-21722087D01*
X101732087Y-21534915D01*
X101890716Y-21323011D01*
X102017574Y-21090689D01*
X102110077Y-20842678D01*
X102166343Y-20584026D01*
X102185227Y-20320000D01*
X102166343Y-20055974D01*
X102110077Y-19797322D01*
X102017574Y-19549311D01*
X101978995Y-19478660D01*
X101949964Y-19385946D01*
X101958623Y-19289177D01*
X102003654Y-19203089D01*
X102004339Y-19202242D01*
X102019698Y-19183407D01*
X102029723Y-19164214D01*
X102090640Y-19088531D01*
X102175883Y-19041920D01*
X102250427Y-19030500D01*
X104759573Y-19030500D01*
X104854861Y-19049454D01*
X104935643Y-19103430D01*
X104980276Y-19164213D01*
X104990302Y-19183407D01*
X104990303Y-19183409D01*
X104990306Y-19183413D01*
X105005440Y-19201973D01*
X105050968Y-19287800D01*
X105060185Y-19384517D01*
X105031688Y-19477399D01*
X105031004Y-19478660D01*
X104992427Y-19549308D01*
X104992425Y-19549312D01*
X104962144Y-19630500D01*
X104899923Y-19797322D01*
X104885469Y-19863767D01*
X104849724Y-20028086D01*
X104843657Y-20055974D01*
X104824773Y-20320000D01*
X104843657Y-20584026D01*
X104899923Y-20842678D01*
X104946589Y-20967795D01*
X104992425Y-21090687D01*
X104992427Y-21090691D01*
X105106114Y-21298893D01*
X105119284Y-21323011D01*
X105254836Y-21504088D01*
X105296765Y-21591725D01*
X105304500Y-21653305D01*
X105304500Y-21812577D01*
X105301434Y-21851531D01*
X105284500Y-21958439D01*
X105284500Y-24314716D01*
X105265546Y-24410004D01*
X105251141Y-24439215D01*
X105123609Y-24660107D01*
X105123600Y-24660127D01*
X105030495Y-24897354D01*
X105030489Y-24897370D01*
X104973777Y-25145845D01*
X104954732Y-25400000D01*
X104973777Y-25654154D01*
X105030489Y-25902629D01*
X105030495Y-25902645D01*
X105123600Y-26139872D01*
X105123605Y-26139884D01*
X105123607Y-26139888D01*
X105251041Y-26360612D01*
X105251045Y-26360617D01*
X105409945Y-26559872D01*
X105596785Y-26733234D01*
X105807362Y-26876803D01*
X105807364Y-26876804D01*
X105807366Y-26876805D01*
X105895928Y-26919454D01*
X106036989Y-26987386D01*
X106036993Y-26987387D01*
X106036996Y-26987389D01*
X106208458Y-27040278D01*
X106280535Y-27062511D01*
X106280538Y-27062512D01*
X106280539Y-27062512D01*
X106280542Y-27062513D01*
X106532565Y-27100500D01*
X106532569Y-27100500D01*
X106787431Y-27100500D01*
X106787435Y-27100500D01*
X107039458Y-27062513D01*
X107283004Y-26987389D01*
X107512634Y-26876805D01*
X107723217Y-26733232D01*
X107910050Y-26559877D01*
X108068959Y-26360612D01*
X108196393Y-26139888D01*
X108289508Y-25902637D01*
X108346222Y-25654157D01*
X108365268Y-25400000D01*
X108346222Y-25145843D01*
X108303093Y-24956884D01*
X108289510Y-24897370D01*
X108289508Y-24897367D01*
X108289508Y-24897363D01*
X108196393Y-24660112D01*
X108068959Y-24439388D01*
X108068958Y-24439387D01*
X108068859Y-24439215D01*
X108037630Y-24347216D01*
X108035500Y-24314716D01*
X108035500Y-22300821D01*
X108038566Y-22261867D01*
X108055499Y-22154960D01*
X108055500Y-22154951D01*
X108055500Y-21653305D01*
X108074454Y-21558017D01*
X108105161Y-21504090D01*
X108240716Y-21323011D01*
X108367574Y-21090689D01*
X108460077Y-20842678D01*
X108516343Y-20584026D01*
X108535227Y-20320000D01*
X108516343Y-20055974D01*
X108460077Y-19797322D01*
X108367574Y-19549311D01*
X108328994Y-19478658D01*
X108299964Y-19385943D01*
X108308623Y-19289175D01*
X108353655Y-19203087D01*
X108354230Y-19202375D01*
X108369698Y-19183407D01*
X108463909Y-19003049D01*
X108519886Y-18807418D01*
X108530500Y-18688037D01*
X108530499Y-16871964D01*
X108519886Y-16752582D01*
X108463909Y-16556951D01*
X108369698Y-16376593D01*
X108241109Y-16218891D01*
X108083407Y-16090302D01*
X108083402Y-16090299D01*
X107903053Y-15996093D01*
X107903052Y-15996092D01*
X107903049Y-15996091D01*
X107707418Y-15940114D01*
X107588037Y-15929500D01*
X107588035Y-15929500D01*
X105771968Y-15929500D01*
X105771956Y-15929501D01*
X105652585Y-15940113D01*
X105456954Y-15996090D01*
X105456946Y-15996093D01*
X105276597Y-16090299D01*
X105276592Y-16090302D01*
X105118893Y-16218889D01*
X105118889Y-16218893D01*
X104990302Y-16376592D01*
X104990302Y-16376593D01*
X104980276Y-16395785D01*
X104919360Y-16471469D01*
X104834117Y-16518080D01*
X104759573Y-16529500D01*
X102250427Y-16529500D01*
X102155139Y-16510546D01*
X102074357Y-16456570D01*
X102029723Y-16395786D01*
X102019698Y-16376593D01*
X101891109Y-16218891D01*
X101733407Y-16090302D01*
X101733402Y-16090299D01*
X101553053Y-15996093D01*
X101553052Y-15996092D01*
X101553049Y-15996091D01*
X101357418Y-15940114D01*
X101238037Y-15929500D01*
X101238035Y-15929500D01*
X99421968Y-15929500D01*
X99421956Y-15929501D01*
X99302585Y-15940113D01*
X99106954Y-15996090D01*
X99106946Y-15996093D01*
X98926597Y-16090299D01*
X98926592Y-16090302D01*
X98768893Y-16218889D01*
X98768889Y-16218893D01*
X98640302Y-16376592D01*
X98640299Y-16376597D01*
X98546093Y-16556946D01*
X98546090Y-16556954D01*
X98490115Y-16752578D01*
X98490114Y-16752582D01*
X98479500Y-16871963D01*
X98479500Y-18688031D01*
X98479501Y-18688043D01*
X98490113Y-18807414D01*
X98490113Y-18807417D01*
X98490114Y-18807418D01*
X98537116Y-18971681D01*
X98546090Y-19003045D01*
X98546093Y-19003053D01*
X98640297Y-19183399D01*
X98640301Y-19183406D01*
X98640306Y-19183413D01*
X98655440Y-19201973D01*
X98700968Y-19287800D01*
X98710185Y-19384517D01*
X98681688Y-19477399D01*
X98681004Y-19478660D01*
X98642427Y-19549308D01*
X98642425Y-19549312D01*
X98612144Y-19630500D01*
X98549923Y-19797322D01*
X98535469Y-19863767D01*
X98499724Y-20028086D01*
X98493657Y-20055974D01*
X98474773Y-20320000D01*
X95835227Y-20320000D01*
X95816343Y-20055974D01*
X95760077Y-19797322D01*
X95667574Y-19549311D01*
X95628994Y-19478658D01*
X95599964Y-19385943D01*
X95608623Y-19289175D01*
X95653655Y-19203087D01*
X95654230Y-19202375D01*
X95669698Y-19183407D01*
X95763909Y-19003049D01*
X95819886Y-18807418D01*
X95830500Y-18688037D01*
X95830499Y-16871964D01*
X95819886Y-16752582D01*
X95763909Y-16556951D01*
X95669698Y-16376593D01*
X95541109Y-16218891D01*
X95383407Y-16090302D01*
X95383402Y-16090299D01*
X95203053Y-15996093D01*
X95203052Y-15996092D01*
X95203049Y-15996091D01*
X95007418Y-15940114D01*
X94888037Y-15929500D01*
X94888035Y-15929500D01*
X93071968Y-15929500D01*
X93071956Y-15929501D01*
X92952585Y-15940113D01*
X92756954Y-15996090D01*
X92756946Y-15996093D01*
X92576597Y-16090299D01*
X92576592Y-16090302D01*
X92418893Y-16218889D01*
X92418889Y-16218893D01*
X92290302Y-16376592D01*
X92290302Y-16376593D01*
X92280276Y-16395785D01*
X92219360Y-16471469D01*
X92134117Y-16518080D01*
X92059573Y-16529500D01*
X89550427Y-16529500D01*
X89455139Y-16510546D01*
X89374357Y-16456570D01*
X89329723Y-16395786D01*
X89319698Y-16376593D01*
X89191109Y-16218891D01*
X89033407Y-16090302D01*
X89033402Y-16090299D01*
X88853053Y-15996093D01*
X88853052Y-15996092D01*
X88853049Y-15996091D01*
X88657418Y-15940114D01*
X88538037Y-15929500D01*
X88538035Y-15929500D01*
X86721968Y-15929500D01*
X86721956Y-15929501D01*
X86602582Y-15940113D01*
X86437163Y-15987445D01*
X86340337Y-15995435D01*
X86247824Y-15965763D01*
X86192597Y-15924122D01*
X85342147Y-15073673D01*
X85342146Y-15073672D01*
X85182905Y-14957976D01*
X85007526Y-14868616D01*
X85007523Y-14868615D01*
X85007521Y-14868614D01*
X84820323Y-14807790D01*
X84625928Y-14777001D01*
X84625919Y-14777000D01*
X84625917Y-14777000D01*
X75550916Y-14777000D01*
X75354083Y-14777000D01*
X75354080Y-14777000D01*
X75354071Y-14777001D01*
X75159676Y-14807790D01*
X75098844Y-14827555D01*
X74972474Y-14868616D01*
X74903226Y-14903899D01*
X74903226Y-14903900D01*
X74797095Y-14957976D01*
X74797093Y-14957977D01*
X74797088Y-14957980D01*
X74637858Y-15073668D01*
X74637854Y-15073671D01*
X74004955Y-15706570D01*
X73924174Y-15760546D01*
X73828886Y-15779500D01*
X73571114Y-15779500D01*
X73475826Y-15760546D01*
X73395045Y-15706570D01*
X72762647Y-15074173D01*
X72761959Y-15073673D01*
X72603405Y-14958476D01*
X72428026Y-14869116D01*
X72428023Y-14869115D01*
X72428021Y-14869114D01*
X72240823Y-14808290D01*
X72046428Y-14777501D01*
X72046419Y-14777500D01*
X72046417Y-14777500D01*
X65390416Y-14777500D01*
X65193583Y-14777500D01*
X65187618Y-14777500D01*
X65179987Y-14777800D01*
X55250438Y-14777800D01*
X55230904Y-14777033D01*
X55229219Y-14776900D01*
X55229217Y-14776900D01*
X55229214Y-14776900D01*
X44060135Y-14776900D01*
X43964847Y-14757946D01*
X43958747Y-14755134D01*
X43952814Y-14752676D01*
X43952809Y-14752674D01*
X43952802Y-14752671D01*
X43952798Y-14752670D01*
X43746903Y-14685772D01*
X43746904Y-14685772D01*
X43746897Y-14685770D01*
X43746894Y-14685769D01*
X43746885Y-14685767D01*
X43533063Y-14651900D01*
X43533054Y-14651900D01*
X35426346Y-14651900D01*
X35426336Y-14651900D01*
X35212514Y-14685767D01*
X35212496Y-14685772D01*
X35006601Y-14752670D01*
X35006593Y-14752673D01*
X35006591Y-14752674D01*
X35006587Y-14752675D01*
X35006580Y-14752679D01*
X34813689Y-14850961D01*
X34813685Y-14850964D01*
X34638519Y-14978229D01*
X34567668Y-15049080D01*
X34486887Y-15103056D01*
X34391598Y-15122009D01*
X34296310Y-15103054D01*
X34215531Y-15049079D01*
X33865280Y-14698829D01*
X33865278Y-14698827D01*
X33690119Y-14571567D01*
X33690120Y-14571567D01*
X33690118Y-14571566D01*
X33497219Y-14473279D01*
X33497217Y-14473278D01*
X33497209Y-14473274D01*
X33497202Y-14473271D01*
X33497198Y-14473270D01*
X33291295Y-14406369D01*
X33077465Y-14372502D01*
X33077456Y-14372501D01*
X33077454Y-14372501D01*
X32860946Y-14372501D01*
X32860943Y-14372501D01*
X32860934Y-14372502D01*
X32647101Y-14406369D01*
X32647100Y-14406370D01*
X32558024Y-14435313D01*
X32481079Y-14447500D01*
X23519638Y-14447500D01*
X23317475Y-14479520D01*
X23317465Y-14479523D01*
X23220120Y-14511152D01*
X23122785Y-14542778D01*
X23122781Y-14542779D01*
X23031583Y-14589247D01*
X23031582Y-14589246D01*
X22940389Y-14635712D01*
X22774782Y-14756033D01*
X22774778Y-14756036D01*
X21672945Y-15857867D01*
X21592164Y-15911843D01*
X21514641Y-15930162D01*
X21325979Y-15943656D01*
X21325974Y-15943656D01*
X21325974Y-15943657D01*
X21067322Y-15999923D01*
X20995810Y-16026595D01*
X20819312Y-16092425D01*
X20819308Y-16092427D01*
X20748660Y-16131004D01*
X20655943Y-16160035D01*
X20559175Y-16151376D01*
X20473087Y-16106343D01*
X20471973Y-16105440D01*
X20453413Y-16090306D01*
X20453402Y-16090299D01*
X20273053Y-15996093D01*
X20273052Y-15996092D01*
X20273049Y-15996091D01*
X20077418Y-15940114D01*
X19958037Y-15929500D01*
X19958035Y-15929500D01*
X18141968Y-15929500D01*
X18141956Y-15929501D01*
X18022585Y-15940113D01*
X17826954Y-15996090D01*
X17826946Y-15996093D01*
X17646597Y-16090299D01*
X17646592Y-16090302D01*
X17488893Y-16218889D01*
X17488889Y-16218893D01*
X17360302Y-16376592D01*
X17360299Y-16376597D01*
X17266093Y-16556946D01*
X17266090Y-16556954D01*
X17210115Y-16752578D01*
X17210114Y-16752582D01*
X17199500Y-16871963D01*
X17199500Y-18688031D01*
X17199501Y-18688043D01*
X17210113Y-18807414D01*
X17210113Y-18807417D01*
X17210114Y-18807418D01*
X17257116Y-18971681D01*
X17266090Y-19003045D01*
X17266093Y-19003053D01*
X17360297Y-19183399D01*
X17360302Y-19183407D01*
X17488891Y-19341109D01*
X17582854Y-19417726D01*
X17644725Y-19492629D01*
X17673222Y-19585510D01*
X17674500Y-19610703D01*
X17674500Y-21029295D01*
X17655546Y-21124583D01*
X17601570Y-21205365D01*
X17582854Y-21222273D01*
X17488899Y-21298883D01*
X17488889Y-21298893D01*
X17360302Y-21456592D01*
X17360299Y-21456597D01*
X17266093Y-21636946D01*
X17266090Y-21636954D01*
X17210115Y-21832578D01*
X17210114Y-21832582D01*
X17199500Y-21951963D01*
X17199500Y-23768031D01*
X17199501Y-23768043D01*
X17210113Y-23887414D01*
X17210113Y-23887417D01*
X17210114Y-23887418D01*
X17261433Y-24066768D01*
X17266090Y-24083045D01*
X17266093Y-24083053D01*
X17356162Y-24255483D01*
X17360302Y-24263407D01*
X17488891Y-24421109D01*
X17646593Y-24549698D01*
X17826951Y-24643909D01*
X18022582Y-24699886D01*
X18141963Y-24710500D01*
X18242508Y-24710499D01*
X18337794Y-24729452D01*
X18418576Y-24783428D01*
X18418578Y-24783429D01*
X21157570Y-27522421D01*
X21211546Y-27603203D01*
X21230500Y-27698491D01*
X21230500Y-37810310D01*
X21211546Y-37905598D01*
X21157570Y-37986380D01*
X21076788Y-38040356D01*
X20981500Y-38059310D01*
X20886212Y-38040356D01*
X20805430Y-37986380D01*
X17925429Y-35106379D01*
X17871453Y-35025597D01*
X17852499Y-34930309D01*
X17852499Y-33229568D01*
X17852498Y-33229556D01*
X17845878Y-33155095D01*
X17841886Y-33110182D01*
X17785909Y-32914551D01*
X17691698Y-32734193D01*
X17563109Y-32576491D01*
X17405407Y-32447902D01*
X17405402Y-32447899D01*
X17366825Y-32427748D01*
X17291141Y-32366830D01*
X17244531Y-32281586D01*
X17234090Y-32184993D01*
X17256442Y-32101811D01*
X17275433Y-32061085D01*
X17275433Y-32061083D01*
X17332636Y-31847601D01*
X17332636Y-31847600D01*
X16435012Y-31847600D01*
X16467925Y-31790593D01*
X16502000Y-31663426D01*
X16502000Y-31531774D01*
X16467925Y-31404607D01*
X16435012Y-31347600D01*
X17332636Y-31347600D01*
X17332636Y-31347598D01*
X17275433Y-31134116D01*
X17275429Y-31134105D01*
X17175603Y-30920028D01*
X17175599Y-30920021D01*
X17116687Y-30835886D01*
X17077558Y-30746959D01*
X17075439Y-30649827D01*
X17110651Y-30559278D01*
X17171433Y-30493733D01*
X17216915Y-30459687D01*
X17404087Y-30272515D01*
X17562716Y-30060611D01*
X17689574Y-29828289D01*
X17782077Y-29580278D01*
X17838343Y-29321626D01*
X17857227Y-29057600D01*
X17838343Y-28793574D01*
X17782077Y-28534922D01*
X17689574Y-28286911D01*
X17562716Y-28054589D01*
X17474552Y-27936816D01*
X17432624Y-27849181D01*
X17427423Y-27752165D01*
X17459745Y-27660544D01*
X17474545Y-27638393D01*
X17562716Y-27520611D01*
X17689574Y-27288289D01*
X17782077Y-27040278D01*
X17838343Y-26781626D01*
X17857227Y-26517600D01*
X17838343Y-26253574D01*
X17782077Y-25994922D01*
X17689574Y-25746911D01*
X17562716Y-25514589D01*
X17404087Y-25302685D01*
X17216915Y-25115513D01*
X17005011Y-24956884D01*
X16895990Y-24897354D01*
X16772691Y-24830027D01*
X16772687Y-24830025D01*
X16647754Y-24783428D01*
X16524678Y-24737523D01*
X16322293Y-24693497D01*
X16266027Y-24681257D01*
X16002000Y-24662373D01*
X15737972Y-24681257D01*
X15652342Y-24699885D01*
X15479322Y-24737523D01*
X15407810Y-24764195D01*
X15231312Y-24830025D01*
X15231308Y-24830027D01*
X14998995Y-24956880D01*
X14998989Y-24956884D01*
X14787085Y-25115513D01*
X14787084Y-25115514D01*
X14599914Y-25302684D01*
X14599912Y-25302687D01*
X14441284Y-25514589D01*
X14441280Y-25514595D01*
X14314427Y-25746908D01*
X14314425Y-25746912D01*
X14256346Y-25902629D01*
X14221923Y-25994922D01*
X14165657Y-26253574D01*
X14146773Y-26517600D01*
X14165657Y-26781626D01*
X14221923Y-27040278D01*
X14243511Y-27098158D01*
X14314425Y-27288287D01*
X14314427Y-27288291D01*
X14410172Y-27463634D01*
X14439203Y-27556350D01*
X14430544Y-27653118D01*
X14385512Y-27739206D01*
X14337990Y-27784411D01*
X14160889Y-27913083D01*
X13625569Y-28448403D01*
X13544788Y-28502379D01*
X13449500Y-28521333D01*
X13354212Y-28502379D01*
X13273430Y-28448402D01*
X13219454Y-28367621D01*
X13200500Y-28272333D01*
X13200500Y-13449500D01*
X13219454Y-13354212D01*
X13273430Y-13273430D01*
X13354212Y-13219454D01*
X13449500Y-13200500D01*
X111010500Y-13200500D01*
X111105788Y-13219454D01*
G37*
%TD.AperFunction*%
%TA.AperFunction,Conductor*%
G36*
X105491809Y-96060823D02*
G01*
X105572591Y-96114799D01*
X105626567Y-96195581D01*
X105645521Y-96290869D01*
X105629822Y-96377884D01*
X105534924Y-96632318D01*
X105478657Y-96890972D01*
X105478426Y-96894203D01*
X105459773Y-97155000D01*
X105478657Y-97419026D01*
X105534923Y-97677678D01*
X105627426Y-97925689D01*
X105754284Y-98158011D01*
X105912913Y-98369915D01*
X106100085Y-98557087D01*
X106100088Y-98557089D01*
X106100089Y-98557090D01*
X106100094Y-98557094D01*
X106144518Y-98590349D01*
X106209442Y-98662626D01*
X106241765Y-98754246D01*
X106244300Y-98789685D01*
X106244300Y-101257309D01*
X106225346Y-101352597D01*
X106171370Y-101433379D01*
X102576379Y-105028370D01*
X102495597Y-105082346D01*
X102400309Y-105101300D01*
X100626885Y-105101300D01*
X100531597Y-105082346D01*
X100469532Y-105045279D01*
X100402113Y-104990306D01*
X100402102Y-104990299D01*
X100221753Y-104896093D01*
X100221752Y-104896092D01*
X100221749Y-104896091D01*
X100026118Y-104840114D01*
X99906737Y-104829500D01*
X99906736Y-104829500D01*
X98144500Y-104829500D01*
X98049212Y-104810546D01*
X97968430Y-104756570D01*
X97914454Y-104675788D01*
X97895500Y-104580500D01*
X97895500Y-103542891D01*
X97914454Y-103447603D01*
X97968430Y-103366821D01*
X101477193Y-99858058D01*
X105220454Y-96114796D01*
X105301233Y-96060823D01*
X105396521Y-96041869D01*
X105491809Y-96060823D01*
G37*
%TD.AperFunction*%
%TA.AperFunction,Conductor*%
G36*
X88406785Y-79997598D02*
G01*
X88482469Y-80058516D01*
X88529080Y-80143760D01*
X88540500Y-80218302D01*
X88540500Y-86576109D01*
X88521546Y-86671397D01*
X88467570Y-86752179D01*
X84040828Y-91178920D01*
X83986287Y-91253991D01*
X83986286Y-91253992D01*
X83913566Y-91354081D01*
X83815279Y-91546980D01*
X83815270Y-91547001D01*
X83748372Y-91752896D01*
X83748367Y-91752914D01*
X83714500Y-91966736D01*
X83714500Y-104596291D01*
X83695546Y-104691579D01*
X83641570Y-104772361D01*
X83560788Y-104826337D01*
X83500936Y-104842757D01*
X83494675Y-104843656D01*
X83494674Y-104843657D01*
X83494672Y-104843657D01*
X83494668Y-104843658D01*
X83465427Y-104850019D01*
X83368288Y-104851752D01*
X83277879Y-104816180D01*
X83207965Y-104748718D01*
X83169190Y-104659636D01*
X83163500Y-104606709D01*
X83163500Y-91339804D01*
X83175687Y-91262859D01*
X83185174Y-91233660D01*
X83251553Y-91029368D01*
X83288500Y-90796092D01*
X83288500Y-84036666D01*
X83307454Y-83941378D01*
X83361428Y-83860598D01*
X86558597Y-80663428D01*
X86639379Y-80609453D01*
X86734667Y-80590499D01*
X87268032Y-80590499D01*
X87268036Y-80590499D01*
X87387418Y-80579886D01*
X87583049Y-80523909D01*
X87763407Y-80429698D01*
X87921109Y-80301109D01*
X88049698Y-80143407D01*
X88070796Y-80103017D01*
X88131714Y-80027333D01*
X88216958Y-79980722D01*
X88313550Y-79970280D01*
X88406785Y-79997598D01*
G37*
%TD.AperFunction*%
%TA.AperFunction,Conductor*%
G36*
X74455662Y-79521745D02*
G01*
X74536444Y-79575721D01*
X74578915Y-79632456D01*
X74639280Y-79743004D01*
X74639285Y-79743012D01*
X74649834Y-79757104D01*
X74691765Y-79844745D01*
X74699500Y-79906325D01*
X74699500Y-88570332D01*
X74680546Y-88665620D01*
X74626570Y-88746402D01*
X60425403Y-102947570D01*
X60344621Y-103001546D01*
X60249333Y-103020500D01*
X19677754Y-103020500D01*
X19582466Y-103001546D01*
X19501684Y-102947570D01*
X19462115Y-102896002D01*
X19446936Y-102869711D01*
X19444151Y-102866082D01*
X19443140Y-102864030D01*
X19442413Y-102862943D01*
X19442556Y-102862847D01*
X19401181Y-102778950D01*
X19394825Y-102682004D01*
X19426052Y-102590004D01*
X19490110Y-102516958D01*
X19577245Y-102473986D01*
X19641695Y-102465500D01*
X51553088Y-102465500D01*
X51553092Y-102465500D01*
X51786368Y-102428553D01*
X52010992Y-102355568D01*
X52221434Y-102248343D01*
X52412510Y-102109517D01*
X66803518Y-87718510D01*
X66942343Y-87527433D01*
X67049568Y-87316992D01*
X67122553Y-87092368D01*
X67159500Y-86859092D01*
X67159500Y-86703666D01*
X67178454Y-86608378D01*
X67232428Y-86527598D01*
X74184307Y-79575718D01*
X74265086Y-79521745D01*
X74360374Y-79502791D01*
X74455662Y-79521745D01*
G37*
%TD.AperFunction*%
%TA.AperFunction,Conductor*%
G36*
X103488397Y-93469454D02*
G01*
X103569179Y-93523430D01*
X103623155Y-93604212D01*
X103642109Y-93699500D01*
X103623155Y-93794788D01*
X103569179Y-93875570D01*
X95719270Y-101725479D01*
X95638488Y-101779455D01*
X95543200Y-101798409D01*
X95447912Y-101779455D01*
X95367130Y-101725479D01*
X95313154Y-101644697D01*
X95294200Y-101549409D01*
X95294200Y-100810191D01*
X95313154Y-100714903D01*
X95367130Y-100634121D01*
X102477821Y-93523430D01*
X102558603Y-93469454D01*
X102653891Y-93450500D01*
X103393109Y-93450500D01*
X103488397Y-93469454D01*
G37*
%TD.AperFunction*%
%TA.AperFunction,Conductor*%
G36*
X100694397Y-90929454D02*
G01*
X100775179Y-90983430D01*
X100829155Y-91064212D01*
X100848109Y-91159500D01*
X100829155Y-91254788D01*
X100775179Y-91335570D01*
X93179270Y-98931479D01*
X93098488Y-98985455D01*
X93003200Y-99004409D01*
X92907912Y-98985455D01*
X92827130Y-98931479D01*
X92773154Y-98850697D01*
X92754200Y-98755409D01*
X92754200Y-97889191D01*
X92773154Y-97793903D01*
X92827130Y-97713121D01*
X99556821Y-90983430D01*
X99637603Y-90929454D01*
X99732891Y-90910500D01*
X100599109Y-90910500D01*
X100694397Y-90929454D01*
G37*
%TD.AperFunction*%
%TA.AperFunction,Conductor*%
G36*
X13544788Y-51507620D02*
G01*
X13625566Y-51561593D01*
X19342490Y-57278517D01*
X19533566Y-57417343D01*
X19744008Y-57524568D01*
X19968631Y-57597553D01*
X20201908Y-57634500D01*
X20201912Y-57634500D01*
X20438088Y-57634500D01*
X20438092Y-57634500D01*
X20671368Y-57597553D01*
X20775813Y-57563616D01*
X20872292Y-57552198D01*
X20965799Y-57578569D01*
X21042097Y-57638717D01*
X21089569Y-57723484D01*
X21100988Y-57819966D01*
X21074617Y-57913473D01*
X21028826Y-57976500D01*
X15336670Y-63668656D01*
X15220976Y-63827895D01*
X15131614Y-64003278D01*
X15076932Y-64171574D01*
X15070790Y-64190476D01*
X15040001Y-64384871D01*
X15040000Y-64384887D01*
X15040000Y-72188912D01*
X15040001Y-72188928D01*
X15070790Y-72383323D01*
X15126937Y-72556128D01*
X15131616Y-72570526D01*
X15220976Y-72745905D01*
X15336672Y-72905146D01*
X15731572Y-73300046D01*
X15785546Y-73380825D01*
X15804500Y-73476113D01*
X15804500Y-73701288D01*
X15813270Y-73767901D01*
X15836162Y-73941790D01*
X15836163Y-73941795D01*
X15898940Y-74176082D01*
X15898948Y-74176105D01*
X15991770Y-74400201D01*
X15991778Y-74400217D01*
X16103888Y-74594396D01*
X16135118Y-74686395D01*
X16128764Y-74783342D01*
X16085793Y-74870477D01*
X16012748Y-74934536D01*
X16001293Y-74940756D01*
X15948394Y-74967709D01*
X15948385Y-74967715D01*
X15782787Y-75088028D01*
X13625570Y-77245245D01*
X13544788Y-77299221D01*
X13449500Y-77318175D01*
X13354212Y-77299221D01*
X13273430Y-77245245D01*
X13219454Y-77164463D01*
X13200500Y-77069175D01*
X13200500Y-51737666D01*
X13219454Y-51642378D01*
X13273430Y-51561596D01*
X13354212Y-51507620D01*
X13449500Y-51488666D01*
X13544788Y-51507620D01*
G37*
%TD.AperFunction*%
%TA.AperFunction,Conductor*%
G36*
X71370000Y-40700635D02*
G01*
X71583488Y-40643431D01*
X71797577Y-40543600D01*
X71881712Y-40484688D01*
X71970639Y-40445559D01*
X72067771Y-40443439D01*
X72158321Y-40478651D01*
X72223867Y-40539435D01*
X72257913Y-40584915D01*
X72445085Y-40772087D01*
X72656989Y-40930716D01*
X72889311Y-41057574D01*
X73137322Y-41150077D01*
X73395974Y-41206343D01*
X73660000Y-41225227D01*
X73660003Y-41225226D01*
X73660007Y-41225227D01*
X73668894Y-41225227D01*
X73668894Y-41227906D01*
X73748410Y-41237831D01*
X73832873Y-41285842D01*
X73846029Y-41298080D01*
X75945370Y-43397421D01*
X75999346Y-43478203D01*
X76018300Y-43573491D01*
X76018300Y-48324733D01*
X75999346Y-48420021D01*
X75945370Y-48500803D01*
X67040803Y-57405370D01*
X66960021Y-57459346D01*
X66864733Y-57478300D01*
X47396074Y-57478300D01*
X47300786Y-57459346D01*
X47220004Y-57405370D01*
X47198535Y-57380889D01*
X47176482Y-57352149D01*
X46991051Y-57166718D01*
X46991046Y-57166714D01*
X46991045Y-57166713D01*
X46783012Y-57007082D01*
X46782998Y-57007073D01*
X46624831Y-56915756D01*
X46555897Y-56875957D01*
X46555895Y-56875956D01*
X46555893Y-56875955D01*
X46555889Y-56875953D01*
X46313617Y-56775601D01*
X46203930Y-56746211D01*
X46060316Y-56707730D01*
X46060311Y-56707729D01*
X46060314Y-56707729D01*
X45800320Y-56673500D01*
X45538080Y-56673500D01*
X45278087Y-56707729D01*
X45024782Y-56775601D01*
X44782510Y-56875953D01*
X44782506Y-56875955D01*
X44555401Y-57007073D01*
X44555386Y-57007083D01*
X44405568Y-57122044D01*
X44318433Y-57165015D01*
X44253986Y-57173500D01*
X32139908Y-57173500D01*
X32139905Y-57173500D01*
X32139896Y-57173501D01*
X31906635Y-57210446D01*
X31682012Y-57283430D01*
X31471562Y-57390659D01*
X31280495Y-57529478D01*
X31113478Y-57696495D01*
X30974659Y-57887562D01*
X30867430Y-58098012D01*
X30794446Y-58322635D01*
X30757501Y-58555896D01*
X30757500Y-58555912D01*
X30757500Y-58792087D01*
X30757501Y-58792103D01*
X30794446Y-59025364D01*
X30794447Y-59025368D01*
X30867432Y-59249992D01*
X30954728Y-59421320D01*
X30974659Y-59460437D01*
X31113478Y-59651504D01*
X31113480Y-59651506D01*
X31113483Y-59651510D01*
X31280490Y-59818517D01*
X31280493Y-59818519D01*
X31280495Y-59818521D01*
X31471562Y-59957340D01*
X31471564Y-59957341D01*
X31471567Y-59957343D01*
X31682008Y-60064568D01*
X31906632Y-60137553D01*
X32139908Y-60174500D01*
X43419700Y-60174500D01*
X43514988Y-60193454D01*
X43595770Y-60247430D01*
X43649746Y-60328212D01*
X43668700Y-60423500D01*
X43668700Y-69193719D01*
X43695885Y-69400210D01*
X43702930Y-69453716D01*
X43711369Y-69485212D01*
X43719634Y-69516055D01*
X43725988Y-69613002D01*
X43694758Y-69705001D01*
X43630699Y-69778045D01*
X43543563Y-69821016D01*
X43479118Y-69829500D01*
X19751655Y-69829500D01*
X19656367Y-69810546D01*
X19575585Y-69756570D01*
X19521609Y-69675788D01*
X19502655Y-69580500D01*
X19521609Y-69485212D01*
X19536015Y-69455999D01*
X19537333Y-69453716D01*
X19568224Y-69400212D01*
X19661054Y-69176100D01*
X19723838Y-68941789D01*
X19755500Y-68701288D01*
X19755500Y-68458712D01*
X19723838Y-68218211D01*
X19693089Y-68103455D01*
X19686734Y-68006508D01*
X19717963Y-67914509D01*
X19757530Y-67862942D01*
X33973044Y-53647430D01*
X34053826Y-53593454D01*
X34149114Y-53574500D01*
X47850413Y-53574500D01*
X47850417Y-53574500D01*
X48044826Y-53543709D01*
X48232026Y-53482884D01*
X48407405Y-53393524D01*
X48566646Y-53277828D01*
X60561586Y-41282886D01*
X60642365Y-41228913D01*
X60737653Y-41209959D01*
X60755400Y-41210593D01*
X60960000Y-41225227D01*
X61224026Y-41206343D01*
X61482678Y-41150077D01*
X61730689Y-41057574D01*
X61963011Y-40930716D01*
X62174915Y-40772087D01*
X62362087Y-40584915D01*
X62396132Y-40539436D01*
X62468408Y-40474513D01*
X62560028Y-40442191D01*
X62657044Y-40447390D01*
X62738288Y-40484688D01*
X62822422Y-40543600D01*
X63036511Y-40643431D01*
X63250000Y-40700635D01*
X63250000Y-39803012D01*
X63307007Y-39835925D01*
X63434174Y-39870000D01*
X63565826Y-39870000D01*
X63692993Y-39835925D01*
X63750000Y-39803012D01*
X63750000Y-40700635D01*
X63963488Y-40643431D01*
X64177577Y-40543600D01*
X64261712Y-40484688D01*
X64350639Y-40445559D01*
X64447771Y-40443439D01*
X64538321Y-40478651D01*
X64603867Y-40539435D01*
X64637913Y-40584915D01*
X64825085Y-40772087D01*
X65036989Y-40930716D01*
X65269311Y-41057574D01*
X65517322Y-41150077D01*
X65775974Y-41206343D01*
X66040000Y-41225227D01*
X66304026Y-41206343D01*
X66562678Y-41150077D01*
X66810689Y-41057574D01*
X67043011Y-40930716D01*
X67160783Y-40842552D01*
X67248419Y-40800624D01*
X67345435Y-40795423D01*
X67437056Y-40827745D01*
X67459206Y-40842545D01*
X67576989Y-40930716D01*
X67809311Y-41057574D01*
X68057322Y-41150077D01*
X68315974Y-41206343D01*
X68580000Y-41225227D01*
X68844026Y-41206343D01*
X69102678Y-41150077D01*
X69350689Y-41057574D01*
X69583011Y-40930716D01*
X69794915Y-40772087D01*
X69982087Y-40584915D01*
X70016132Y-40539436D01*
X70088408Y-40474513D01*
X70180028Y-40442191D01*
X70277044Y-40447390D01*
X70358288Y-40484688D01*
X70442422Y-40543600D01*
X70656511Y-40643431D01*
X70870000Y-40700635D01*
X70870000Y-39803012D01*
X70927007Y-39835925D01*
X71054174Y-39870000D01*
X71185826Y-39870000D01*
X71312993Y-39835925D01*
X71370000Y-39803012D01*
X71370000Y-40700635D01*
G37*
%TD.AperFunction*%
%TA.AperFunction,Conductor*%
G36*
X81815788Y-39023554D02*
G01*
X81896570Y-39077530D01*
X81950546Y-39158312D01*
X81969500Y-39253600D01*
X81969500Y-40278031D01*
X81969501Y-40278043D01*
X81980113Y-40397414D01*
X81980113Y-40397417D01*
X81980114Y-40397418D01*
X81981118Y-40400925D01*
X82036090Y-40593045D01*
X82036093Y-40593053D01*
X82100838Y-40717002D01*
X82130302Y-40773407D01*
X82258891Y-40931109D01*
X82416593Y-41059698D01*
X82596951Y-41153909D01*
X82792582Y-41209886D01*
X82911963Y-41220500D01*
X84728036Y-41220499D01*
X84847418Y-41209886D01*
X85043049Y-41153909D01*
X85223407Y-41059698D01*
X85241976Y-41044556D01*
X85327795Y-40999033D01*
X85424512Y-40989814D01*
X85517394Y-41018309D01*
X85518582Y-41018953D01*
X85589311Y-41057574D01*
X85837322Y-41150077D01*
X86095974Y-41206343D01*
X86360000Y-41225227D01*
X86624026Y-41206343D01*
X86882678Y-41150077D01*
X87130689Y-41057574D01*
X87363011Y-40930716D01*
X87480783Y-40842552D01*
X87568419Y-40800624D01*
X87665435Y-40795423D01*
X87757056Y-40827745D01*
X87779206Y-40842545D01*
X87896989Y-40930716D01*
X88129311Y-41057574D01*
X88377322Y-41150077D01*
X88635974Y-41206343D01*
X88900000Y-41225227D01*
X89164026Y-41206343D01*
X89422678Y-41150077D01*
X89670689Y-41057574D01*
X89903011Y-40930716D01*
X90020783Y-40842552D01*
X90108419Y-40800624D01*
X90205435Y-40795423D01*
X90297056Y-40827745D01*
X90319210Y-40842548D01*
X90329232Y-40850050D01*
X90394151Y-40922327D01*
X90426471Y-41013948D01*
X90421269Y-41110964D01*
X90379336Y-41198604D01*
X90356075Y-41225449D01*
X61824956Y-69756570D01*
X61744174Y-69810546D01*
X61648886Y-69829500D01*
X47859282Y-69829500D01*
X47763994Y-69810546D01*
X47683212Y-69756570D01*
X47629236Y-69675788D01*
X47610282Y-69580500D01*
X47618766Y-69516055D01*
X47635470Y-69453716D01*
X47669700Y-69193720D01*
X47669700Y-64999994D01*
X56794958Y-64999994D01*
X56794958Y-65000005D01*
X56815109Y-65358840D01*
X56815110Y-65358846D01*
X56875312Y-65713173D01*
X56875318Y-65713199D01*
X56974813Y-66058554D01*
X56974816Y-66058565D01*
X57112357Y-66390616D01*
X57286213Y-66705184D01*
X57286214Y-66705185D01*
X57494192Y-66998304D01*
X57494202Y-66998317D01*
X57566843Y-67079601D01*
X58884727Y-65761716D01*
X58970278Y-65879466D01*
X59120534Y-66029722D01*
X59238281Y-66115270D01*
X57920397Y-67433155D01*
X58001682Y-67505797D01*
X58001695Y-67505807D01*
X58294814Y-67713785D01*
X58294815Y-67713786D01*
X58609383Y-67887642D01*
X58941434Y-68025183D01*
X58941445Y-68025186D01*
X59286800Y-68124681D01*
X59286826Y-68124687D01*
X59641153Y-68184889D01*
X59641159Y-68184890D01*
X59999995Y-68205042D01*
X60000005Y-68205042D01*
X60358840Y-68184890D01*
X60358846Y-68184889D01*
X60713173Y-68124687D01*
X60713199Y-68124681D01*
X61058554Y-68025186D01*
X61058565Y-68025183D01*
X61390616Y-67887642D01*
X61705184Y-67713786D01*
X61705185Y-67713786D01*
X61998317Y-67505797D01*
X62079601Y-67433155D01*
X60761717Y-66115271D01*
X60879466Y-66029722D01*
X61029722Y-65879466D01*
X61115271Y-65761717D01*
X62433155Y-67079601D01*
X62505797Y-66998317D01*
X62713786Y-66705185D01*
X62713786Y-66705184D01*
X62887642Y-66390616D01*
X63025183Y-66058565D01*
X63025186Y-66058554D01*
X63124681Y-65713199D01*
X63124687Y-65713173D01*
X63184889Y-65358846D01*
X63184890Y-65358840D01*
X63205042Y-65000005D01*
X63205042Y-64999994D01*
X63184890Y-64641159D01*
X63184889Y-64641153D01*
X63124687Y-64286826D01*
X63124681Y-64286800D01*
X63025186Y-63941445D01*
X63025183Y-63941434D01*
X62887642Y-63609383D01*
X62713786Y-63294815D01*
X62713785Y-63294814D01*
X62505807Y-63001695D01*
X62505797Y-63001682D01*
X62433155Y-62920397D01*
X61115270Y-64238281D01*
X61029722Y-64120534D01*
X60879466Y-63970278D01*
X60761716Y-63884727D01*
X62079601Y-62566843D01*
X61998317Y-62494202D01*
X61998304Y-62494192D01*
X61705185Y-62286214D01*
X61705184Y-62286213D01*
X61390616Y-62112357D01*
X61058565Y-61974816D01*
X61058554Y-61974813D01*
X60713199Y-61875318D01*
X60713173Y-61875312D01*
X60358846Y-61815110D01*
X60358840Y-61815109D01*
X60000005Y-61794958D01*
X59999995Y-61794958D01*
X59641159Y-61815109D01*
X59641153Y-61815110D01*
X59286826Y-61875312D01*
X59286800Y-61875318D01*
X58941445Y-61974813D01*
X58941434Y-61974816D01*
X58609383Y-62112357D01*
X58294815Y-62286213D01*
X58294814Y-62286214D01*
X58001690Y-62494196D01*
X58001687Y-62494198D01*
X57920397Y-62566843D01*
X59238282Y-63884728D01*
X59120534Y-63970278D01*
X58970278Y-64120534D01*
X58884728Y-64238282D01*
X57566843Y-62920397D01*
X57494198Y-63001687D01*
X57494196Y-63001690D01*
X57286214Y-63294814D01*
X57286213Y-63294815D01*
X57112357Y-63609383D01*
X56974816Y-63941434D01*
X56974813Y-63941445D01*
X56875318Y-64286800D01*
X56875312Y-64286826D01*
X56815110Y-64641153D01*
X56815109Y-64641159D01*
X56794958Y-64999994D01*
X47669700Y-64999994D01*
X47669700Y-60728300D01*
X47688654Y-60633012D01*
X47742630Y-60552230D01*
X47823412Y-60498254D01*
X47918700Y-60479300D01*
X67707488Y-60479300D01*
X67707492Y-60479300D01*
X67940768Y-60442353D01*
X68165392Y-60369368D01*
X68375834Y-60262143D01*
X68566910Y-60123317D01*
X78538317Y-50151910D01*
X78677143Y-49960834D01*
X78784368Y-49750393D01*
X78857352Y-49525769D01*
X78894299Y-49292492D01*
X78894299Y-49056309D01*
X78857352Y-48823032D01*
X78784368Y-48598408D01*
X78781487Y-48589540D01*
X78769300Y-48512596D01*
X78769300Y-42792348D01*
X78769299Y-42792336D01*
X78735432Y-42578514D01*
X78735431Y-42578511D01*
X78735430Y-42578503D01*
X78668526Y-42372591D01*
X78639072Y-42314785D01*
X78570238Y-42179689D01*
X78570234Y-42179683D01*
X78570233Y-42179681D01*
X78534794Y-42130904D01*
X78464698Y-42034424D01*
X78464696Y-42034422D01*
X78442975Y-42004525D01*
X78442974Y-42004524D01*
X78442972Y-42004521D01*
X75868121Y-39429670D01*
X75814145Y-39348888D01*
X75795191Y-39253600D01*
X75814145Y-39158312D01*
X75868121Y-39077530D01*
X75948903Y-39023554D01*
X76044191Y-39004600D01*
X81720500Y-39004600D01*
X81815788Y-39023554D01*
G37*
%TD.AperFunction*%
%TA.AperFunction,Conductor*%
G36*
X48795788Y-38709054D02*
G01*
X48876570Y-38763030D01*
X48930546Y-38843812D01*
X48949500Y-38939100D01*
X48949500Y-40278031D01*
X48949501Y-40278043D01*
X48960113Y-40397414D01*
X48960113Y-40397417D01*
X48960114Y-40397418D01*
X48961118Y-40400925D01*
X49016090Y-40593045D01*
X49016093Y-40593053D01*
X49080838Y-40717002D01*
X49110302Y-40773407D01*
X49238891Y-40931109D01*
X49396593Y-41059698D01*
X49576951Y-41153909D01*
X49772582Y-41209886D01*
X49891963Y-41220500D01*
X51708036Y-41220499D01*
X51827418Y-41209886D01*
X52023049Y-41153909D01*
X52203407Y-41059698D01*
X52221976Y-41044556D01*
X52307795Y-40999033D01*
X52404512Y-40989814D01*
X52497394Y-41018309D01*
X52498582Y-41018953D01*
X52569311Y-41057574D01*
X52817322Y-41150077D01*
X53075974Y-41206343D01*
X53340000Y-41225227D01*
X53604026Y-41206343D01*
X53862678Y-41150077D01*
X54110689Y-41057574D01*
X54343011Y-40930716D01*
X54460783Y-40842552D01*
X54548419Y-40800624D01*
X54645435Y-40795423D01*
X54737056Y-40827745D01*
X54759206Y-40842545D01*
X54876989Y-40930716D01*
X55109311Y-41057574D01*
X55357322Y-41150077D01*
X55615974Y-41206343D01*
X55880000Y-41225227D01*
X56144026Y-41206343D01*
X56402678Y-41150077D01*
X56533957Y-41101112D01*
X56629858Y-41085573D01*
X56724408Y-41107916D01*
X56803212Y-41164741D01*
X56854271Y-41247398D01*
X56869811Y-41343302D01*
X56847468Y-41437852D01*
X56797040Y-41510484D01*
X47306956Y-51000570D01*
X47226174Y-51054546D01*
X47130886Y-51073500D01*
X33626416Y-51073500D01*
X33429583Y-51073500D01*
X33429580Y-51073500D01*
X33429571Y-51073501D01*
X33235176Y-51104290D01*
X33047978Y-51165114D01*
X32872595Y-51254476D01*
X32713356Y-51370170D01*
X17966070Y-66117456D01*
X17885288Y-66171432D01*
X17790000Y-66190386D01*
X17694712Y-66171432D01*
X17613930Y-66117456D01*
X17559954Y-66036674D01*
X17541000Y-65941386D01*
X17541000Y-65104413D01*
X17559954Y-65009125D01*
X17613927Y-64928346D01*
X31433828Y-51108446D01*
X31549524Y-50949205D01*
X31634448Y-50782528D01*
X31638277Y-50775693D01*
X31638884Y-50773825D01*
X31699709Y-50586626D01*
X31730500Y-50392217D01*
X31730500Y-41758948D01*
X31749454Y-41663660D01*
X31803430Y-41582878D01*
X31884212Y-41528902D01*
X31979500Y-41509948D01*
X32074788Y-41528902D01*
X32098819Y-41540399D01*
X32249311Y-41622574D01*
X32249313Y-41622575D01*
X32291090Y-41638156D01*
X32497322Y-41715077D01*
X32755974Y-41771343D01*
X33020000Y-41790227D01*
X33020007Y-41790226D01*
X33020798Y-41790283D01*
X33114492Y-41815987D01*
X33179105Y-41862579D01*
X33685572Y-42369046D01*
X33685571Y-42369046D01*
X33824752Y-42508226D01*
X33824754Y-42508228D01*
X33983995Y-42623924D01*
X34159375Y-42713284D01*
X34285748Y-42754345D01*
X34346573Y-42774109D01*
X34346576Y-42774109D01*
X34346578Y-42774110D01*
X34461656Y-42792336D01*
X34540983Y-42804900D01*
X34540987Y-42804900D01*
X36572813Y-42804900D01*
X36572817Y-42804900D01*
X36767226Y-42774109D01*
X36954426Y-42713284D01*
X37129805Y-42623924D01*
X37289046Y-42508228D01*
X37920829Y-41876443D01*
X38001611Y-41822467D01*
X38096899Y-41803513D01*
X38192187Y-41822467D01*
X38272968Y-41876443D01*
X38272969Y-41876443D01*
X41698754Y-45302228D01*
X41857995Y-45417924D01*
X42033374Y-45507284D01*
X42220574Y-45568109D01*
X42414983Y-45598900D01*
X47615399Y-45598900D01*
X47679843Y-45607384D01*
X47734885Y-45622132D01*
X47779308Y-45634035D01*
X47798984Y-45635756D01*
X48005994Y-45653868D01*
X48006000Y-45653868D01*
X48006006Y-45653868D01*
X48185668Y-45638149D01*
X48232692Y-45634035D01*
X48452496Y-45575139D01*
X48658734Y-45478968D01*
X48845139Y-45348447D01*
X49006047Y-45187539D01*
X49136568Y-45001134D01*
X49232739Y-44794896D01*
X49291635Y-44575092D01*
X49311468Y-44348400D01*
X49311468Y-44348394D01*
X49291636Y-44121720D01*
X49291635Y-44121708D01*
X49232739Y-43901904D01*
X49136568Y-43695666D01*
X49136565Y-43695662D01*
X49136563Y-43695658D01*
X49006050Y-43509265D01*
X49006049Y-43509264D01*
X49006047Y-43509261D01*
X48845139Y-43348353D01*
X48845135Y-43348350D01*
X48845134Y-43348349D01*
X48658741Y-43217836D01*
X48658727Y-43217828D01*
X48452499Y-43121662D01*
X48452496Y-43121661D01*
X48232694Y-43062765D01*
X48232679Y-43062763D01*
X48006006Y-43042932D01*
X48005994Y-43042932D01*
X47779320Y-43062763D01*
X47779302Y-43062766D01*
X47679843Y-43089416D01*
X47615399Y-43097900D01*
X43134514Y-43097900D01*
X43039226Y-43078946D01*
X42958444Y-43024970D01*
X41664337Y-41730863D01*
X41610361Y-41650081D01*
X41591407Y-41554793D01*
X41610361Y-41459505D01*
X41664337Y-41378723D01*
X41745119Y-41324747D01*
X41840407Y-41305793D01*
X41935695Y-41324747D01*
X41989622Y-41355455D01*
X42176989Y-41495716D01*
X42409311Y-41622574D01*
X42657322Y-41715077D01*
X42915974Y-41771343D01*
X43180000Y-41790227D01*
X43444026Y-41771343D01*
X43702678Y-41715077D01*
X43950689Y-41622574D01*
X44183011Y-41495716D01*
X44394915Y-41337087D01*
X44582087Y-41149915D01*
X44740716Y-40938011D01*
X44867574Y-40705689D01*
X44960077Y-40457678D01*
X45016343Y-40199026D01*
X45035227Y-39935000D01*
X45016343Y-39670974D01*
X44960077Y-39412322D01*
X44867574Y-39164311D01*
X44809759Y-39058431D01*
X44780729Y-38965718D01*
X44789388Y-38868949D01*
X44834420Y-38782861D01*
X44908968Y-38720558D01*
X45001684Y-38691527D01*
X45028302Y-38690100D01*
X48700500Y-38690100D01*
X48795788Y-38709054D01*
G37*
%TD.AperFunction*%
%TA.AperFunction,Conductor*%
G36*
X15814788Y-36913044D02*
G01*
X15895570Y-36967020D01*
X18396570Y-39468020D01*
X18450546Y-39548802D01*
X18469500Y-39644090D01*
X18469500Y-40843031D01*
X18469501Y-40843043D01*
X18480113Y-40962414D01*
X18480113Y-40962417D01*
X18480114Y-40962418D01*
X18534907Y-41153909D01*
X18536090Y-41158045D01*
X18536093Y-41158053D01*
X18623166Y-41324747D01*
X18630302Y-41338407D01*
X18758891Y-41496109D01*
X18916593Y-41624698D01*
X19096951Y-41718909D01*
X19292582Y-41774886D01*
X19411963Y-41785500D01*
X21228036Y-41785499D01*
X21347418Y-41774886D01*
X21543049Y-41718909D01*
X21723407Y-41624698D01*
X21741976Y-41609556D01*
X21827795Y-41564033D01*
X21924512Y-41554814D01*
X22017394Y-41583309D01*
X22018582Y-41583953D01*
X22089311Y-41622574D01*
X22337322Y-41715077D01*
X22595974Y-41771343D01*
X22860000Y-41790227D01*
X23124026Y-41771343D01*
X23382678Y-41715077D01*
X23630689Y-41622574D01*
X23863011Y-41495716D01*
X23980783Y-41407552D01*
X24068419Y-41365624D01*
X24165435Y-41360423D01*
X24257056Y-41392745D01*
X24279206Y-41407545D01*
X24396989Y-41495716D01*
X24629311Y-41622574D01*
X24877322Y-41715077D01*
X25135974Y-41771343D01*
X25400000Y-41790227D01*
X25664026Y-41771343D01*
X25922678Y-41715077D01*
X26170689Y-41622574D01*
X26403011Y-41495716D01*
X26520783Y-41407552D01*
X26608419Y-41365624D01*
X26705435Y-41360423D01*
X26797056Y-41392745D01*
X26819206Y-41407545D01*
X26936989Y-41495716D01*
X27169311Y-41622574D01*
X27417322Y-41715077D01*
X27675974Y-41771343D01*
X27940000Y-41790227D01*
X28204026Y-41771343D01*
X28462678Y-41715077D01*
X28710689Y-41622574D01*
X28861170Y-41540404D01*
X28953882Y-41511375D01*
X29050650Y-41520034D01*
X29136739Y-41565066D01*
X29199042Y-41639614D01*
X29228073Y-41732330D01*
X29229500Y-41758948D01*
X29229500Y-49672686D01*
X29210546Y-49767974D01*
X29156570Y-49848756D01*
X22162500Y-56842826D01*
X22081718Y-56896802D01*
X21986430Y-56915756D01*
X21891142Y-56896802D01*
X21810360Y-56842826D01*
X21756384Y-56762044D01*
X21737430Y-56666756D01*
X21749616Y-56589813D01*
X21783553Y-56485368D01*
X21820500Y-56252092D01*
X21820500Y-56015908D01*
X21783553Y-55782631D01*
X21710568Y-55558008D01*
X21603343Y-55347566D01*
X21464517Y-55156490D01*
X15543430Y-49235403D01*
X15489454Y-49154621D01*
X15470500Y-49059333D01*
X15470500Y-37143090D01*
X15489454Y-37047802D01*
X15543430Y-36967020D01*
X15624212Y-36913044D01*
X15719500Y-36894090D01*
X15814788Y-36913044D01*
G37*
%TD.AperFunction*%
%TA.AperFunction,Conductor*%
G36*
X29745788Y-17067454D02*
G01*
X29826570Y-17121430D01*
X29880546Y-17202212D01*
X29899500Y-17297500D01*
X29899500Y-18688031D01*
X29899501Y-18688043D01*
X29910113Y-18807414D01*
X29910113Y-18807417D01*
X29910114Y-18807418D01*
X29957116Y-18971681D01*
X29966090Y-19003045D01*
X29966093Y-19003053D01*
X30060297Y-19183399D01*
X30060302Y-19183407D01*
X30188891Y-19341109D01*
X30282854Y-19417726D01*
X30344725Y-19492629D01*
X30373222Y-19585510D01*
X30374500Y-19610703D01*
X30374500Y-31185409D01*
X30355546Y-31280697D01*
X30301570Y-31361479D01*
X24406570Y-37256479D01*
X24325788Y-37310455D01*
X24230500Y-37329409D01*
X24135212Y-37310455D01*
X24054430Y-37256479D01*
X24000454Y-37175697D01*
X23981500Y-37080409D01*
X23981500Y-26917348D01*
X23981499Y-26917336D01*
X23947632Y-26703514D01*
X23947631Y-26703511D01*
X23947630Y-26703503D01*
X23880726Y-26497591D01*
X23837786Y-26413318D01*
X23782433Y-26304680D01*
X23708725Y-26203231D01*
X23708724Y-26203229D01*
X23655172Y-26129521D01*
X22409951Y-24884300D01*
X22355978Y-24803522D01*
X22337024Y-24708234D01*
X22355978Y-24612946D01*
X22409954Y-24532164D01*
X22466691Y-24489692D01*
X22593011Y-24420716D01*
X22804915Y-24262087D01*
X22992087Y-24074915D01*
X23026132Y-24029436D01*
X23098408Y-23964513D01*
X23190028Y-23932191D01*
X23287044Y-23937390D01*
X23368288Y-23974688D01*
X23452422Y-24033600D01*
X23666511Y-24133431D01*
X23880000Y-24190635D01*
X23880000Y-23293012D01*
X23937007Y-23325925D01*
X24064174Y-23360000D01*
X24195826Y-23360000D01*
X24322993Y-23325925D01*
X24380000Y-23293012D01*
X24380000Y-24190635D01*
X24593488Y-24133431D01*
X24807577Y-24033600D01*
X24891712Y-23974688D01*
X24980639Y-23935559D01*
X25077771Y-23933439D01*
X25168321Y-23968651D01*
X25233867Y-24029435D01*
X25267913Y-24074915D01*
X25455085Y-24262087D01*
X25666989Y-24420716D01*
X25899311Y-24547574D01*
X26147322Y-24640077D01*
X26405974Y-24696343D01*
X26670000Y-24715227D01*
X26934026Y-24696343D01*
X27192678Y-24640077D01*
X27440689Y-24547574D01*
X27673011Y-24420716D01*
X27884915Y-24262087D01*
X28072087Y-24074915D01*
X28230716Y-23863011D01*
X28357574Y-23630689D01*
X28450077Y-23382678D01*
X28506343Y-23124026D01*
X28525227Y-22860000D01*
X28506343Y-22595974D01*
X28450077Y-22337322D01*
X28357574Y-22089311D01*
X28230716Y-21856989D01*
X28072087Y-21645085D01*
X27884915Y-21457913D01*
X27673011Y-21299284D01*
X27672291Y-21298891D01*
X27440691Y-21172427D01*
X27440687Y-21172425D01*
X27369177Y-21145753D01*
X27192678Y-21079923D01*
X26959944Y-21029295D01*
X26934027Y-21023657D01*
X26670000Y-21004773D01*
X26405972Y-21023657D01*
X26293440Y-21048137D01*
X26147322Y-21079923D01*
X26118452Y-21090691D01*
X25899312Y-21172425D01*
X25899308Y-21172427D01*
X25666995Y-21299280D01*
X25666989Y-21299284D01*
X25455085Y-21457913D01*
X25455084Y-21457914D01*
X25267909Y-21645089D01*
X25233868Y-21690564D01*
X25161590Y-21755487D01*
X25069969Y-21787809D01*
X24972954Y-21782608D01*
X24891714Y-21745312D01*
X24807579Y-21686400D01*
X24593484Y-21586566D01*
X24380001Y-21529363D01*
X24380000Y-21529364D01*
X24380000Y-22426988D01*
X24322993Y-22394075D01*
X24195826Y-22360000D01*
X24064174Y-22360000D01*
X23937007Y-22394075D01*
X23880000Y-22426988D01*
X23880000Y-21529364D01*
X23879998Y-21529363D01*
X23666516Y-21586566D01*
X23666505Y-21586570D01*
X23452428Y-21686396D01*
X23452417Y-21686403D01*
X23368284Y-21745313D01*
X23279357Y-21784441D01*
X23182225Y-21786560D01*
X23091676Y-21751347D01*
X23026134Y-21690566D01*
X22992087Y-21645085D01*
X22804915Y-21457913D01*
X22593011Y-21299284D01*
X22592291Y-21298891D01*
X22360691Y-21172427D01*
X22360687Y-21172425D01*
X22289177Y-21145753D01*
X22112678Y-21079923D01*
X21879944Y-21029295D01*
X21854027Y-21023657D01*
X21590000Y-21004773D01*
X21325972Y-21023657D01*
X21213440Y-21048137D01*
X21067322Y-21079923D01*
X21038452Y-21090691D01*
X20819312Y-21172425D01*
X20819308Y-21172427D01*
X20793828Y-21186340D01*
X20701112Y-21215369D01*
X20604344Y-21206707D01*
X20518256Y-21161674D01*
X20455955Y-21087123D01*
X20426926Y-20994407D01*
X20425500Y-20967795D01*
X20425500Y-19672204D01*
X20444454Y-19576916D01*
X20498430Y-19496134D01*
X20579212Y-19442158D01*
X20674500Y-19423204D01*
X20769788Y-19442158D01*
X20793828Y-19453659D01*
X20819311Y-19467574D01*
X21067322Y-19560077D01*
X21325974Y-19616343D01*
X21590000Y-19635227D01*
X21854026Y-19616343D01*
X22112678Y-19560077D01*
X22360689Y-19467574D01*
X22593011Y-19340716D01*
X22804915Y-19182087D01*
X22992087Y-18994915D01*
X23026132Y-18949436D01*
X23098408Y-18884513D01*
X23190028Y-18852191D01*
X23287044Y-18857390D01*
X23368288Y-18894688D01*
X23452422Y-18953600D01*
X23666511Y-19053431D01*
X23880000Y-19110635D01*
X23880000Y-18213012D01*
X23937007Y-18245925D01*
X24064174Y-18280000D01*
X24195826Y-18280000D01*
X24322993Y-18245925D01*
X24380000Y-18213012D01*
X24380000Y-19110635D01*
X24593488Y-19053431D01*
X24807576Y-18953600D01*
X25001076Y-18818110D01*
X25168110Y-18651076D01*
X25303600Y-18457576D01*
X25403433Y-18243485D01*
X25403433Y-18243483D01*
X25460636Y-18030001D01*
X25460636Y-18030000D01*
X24563012Y-18030000D01*
X24595925Y-17972993D01*
X24630000Y-17845826D01*
X24630000Y-17714174D01*
X24595925Y-17587007D01*
X24563012Y-17530000D01*
X25460636Y-17530000D01*
X25460635Y-17529999D01*
X25415606Y-17361946D01*
X25409252Y-17264999D01*
X25440482Y-17173000D01*
X25504540Y-17099955D01*
X25591676Y-17056984D01*
X25656122Y-17048500D01*
X29650500Y-17048500D01*
X29745788Y-17067454D01*
G37*
%TD.AperFunction*%
%TD*%
M02*
