%TF.GenerationSoftware,KiCad,Pcbnew,8.0.3*%
%TF.CreationDate,2024-11-03T21:20:50+01:00*%
%TF.ProjectId,weerstation-analoog,77656572-7374-4617-9469-6f6e2d616e61,rev?*%
%TF.SameCoordinates,Original*%
%TF.FileFunction,Drillmap*%
%TF.FilePolarity,Positive*%
%FSLAX45Y45*%
G04 Gerber Fmt 4.5, Leading zero omitted, Abs format (unit mm)*
G04 Created by KiCad (PCBNEW 8.0.3) date 2024-11-03 21:20:50*
%MOMM*%
%LPD*%
G01*
G04 APERTURE LIST*
%ADD10C,0.100000*%
%ADD11C,0.200000*%
G04 APERTURE END LIST*
D10*
X1270000Y-1270000D02*
X11176000Y-1270000D01*
X11176000Y-11176000D01*
X1270000Y-11176000D01*
X1270000Y-1270000D01*
D11*
D10*
X2017000Y-4849100D02*
X2047000Y-4879100D01*
X2047000Y-4849100D02*
X2017000Y-4879100D01*
X2372600Y-3007600D02*
X2402600Y-3037600D01*
X2402600Y-3007600D02*
X2372600Y-3037600D01*
X2398000Y-4887200D02*
X2428000Y-4917200D01*
X2428000Y-4887200D02*
X2398000Y-4917200D01*
X2779000Y-4887200D02*
X2809000Y-4917200D01*
X2809000Y-4887200D02*
X2779000Y-4917200D01*
X3261600Y-4899900D02*
X3291600Y-4929900D01*
X3291600Y-4899900D02*
X3261600Y-4929900D01*
X3414000Y-7795500D02*
X3444000Y-7825500D01*
X3444000Y-7795500D02*
X3414000Y-7825500D01*
X3414000Y-8621000D02*
X3444000Y-8651000D01*
X3444000Y-8621000D02*
X3414000Y-8651000D01*
X3414000Y-9446500D02*
X3444000Y-9476500D01*
X3444000Y-9446500D02*
X3414000Y-9476500D01*
X3820400Y-2499600D02*
X3850400Y-2529600D01*
X3850400Y-2499600D02*
X3820400Y-2529600D01*
X3922000Y-7795500D02*
X3952000Y-7825500D01*
X3952000Y-7795500D02*
X3922000Y-7825500D01*
X3922000Y-8621000D02*
X3952000Y-8651000D01*
X3952000Y-8621000D02*
X3922000Y-8651000D01*
X4049000Y-3337800D02*
X4079000Y-3367800D01*
X4079000Y-3337800D02*
X4049000Y-3367800D01*
X4150600Y-4938000D02*
X4180600Y-4968000D01*
X4180600Y-4938000D02*
X4150600Y-4968000D01*
X4811000Y-4811000D02*
X4841000Y-4841000D01*
X4841000Y-4811000D02*
X4811000Y-4841000D01*
X4861650Y-4310170D02*
X4891650Y-4340170D01*
X4891650Y-4310170D02*
X4861650Y-4340170D01*
X4874500Y-2652000D02*
X4904500Y-2682000D01*
X4904500Y-2652000D02*
X4874500Y-2682000D01*
X5573000Y-4811000D02*
X5603000Y-4841000D01*
X5603000Y-4811000D02*
X5573000Y-4841000D01*
X5725400Y-3668000D02*
X5755400Y-3698000D01*
X5755400Y-3668000D02*
X5725400Y-3698000D01*
X6017500Y-4938000D02*
X6047500Y-4968000D01*
X6047500Y-4938000D02*
X6017500Y-4968000D01*
X7097000Y-3388600D02*
X7127000Y-3418600D01*
X7127000Y-3388600D02*
X7097000Y-3418600D01*
X7352350Y-4938000D02*
X7382350Y-4968000D01*
X7382350Y-4938000D02*
X7352350Y-4968000D01*
X7605000Y-9764000D02*
X7635000Y-9794000D01*
X7635000Y-9764000D02*
X7605000Y-9794000D01*
X8240000Y-4811000D02*
X8270000Y-4841000D01*
X8270000Y-4811000D02*
X8240000Y-4841000D01*
X8748000Y-9637000D02*
X8778000Y-9667000D01*
X8778000Y-9637000D02*
X8748000Y-9667000D01*
X8875000Y-4938000D02*
X8905000Y-4968000D01*
X8905000Y-4938000D02*
X8875000Y-4968000D01*
X9122870Y-9637000D02*
X9152870Y-9667000D01*
X9152870Y-9637000D02*
X9122870Y-9667000D01*
X9129000Y-4938000D02*
X9159000Y-4968000D01*
X9159000Y-4938000D02*
X9129000Y-4968000D01*
X9503870Y-9637000D02*
X9533870Y-9667000D01*
X9533870Y-9637000D02*
X9503870Y-9667000D01*
X9510000Y-4938000D02*
X9540000Y-4968000D01*
X9540000Y-4938000D02*
X9510000Y-4968000D01*
X9884870Y-9637000D02*
X9914870Y-9667000D01*
X9914870Y-9637000D02*
X9884870Y-9667000D01*
X10653000Y-4938000D02*
X10683000Y-4968000D01*
X10683000Y-4938000D02*
X10653000Y-4968000D01*
X5623000Y-2540000D02*
G75*
G02*
X5553000Y-2540000I-35000J0D01*
G01*
X5553000Y-2540000D02*
G75*
G02*
X5623000Y-2540000I35000J0D01*
G01*
X5623000Y-3302000D02*
G75*
G02*
X5553000Y-3302000I-35000J0D01*
G01*
X5553000Y-3302000D02*
G75*
G02*
X5623000Y-3302000I35000J0D01*
G01*
X6639000Y-2540000D02*
G75*
G02*
X6569000Y-2540000I-35000J0D01*
G01*
X6569000Y-2540000D02*
G75*
G02*
X6639000Y-2540000I35000J0D01*
G01*
X6639000Y-3302000D02*
G75*
G02*
X6569000Y-3302000I-35000J0D01*
G01*
X6569000Y-3302000D02*
G75*
G02*
X6639000Y-3302000I35000J0D01*
G01*
X7655000Y-2540000D02*
G75*
G02*
X7585000Y-2540000I-35000J0D01*
G01*
X7585000Y-2540000D02*
G75*
G02*
X7655000Y-2540000I35000J0D01*
G01*
X7655000Y-3302000D02*
G75*
G02*
X7585000Y-3302000I-35000J0D01*
G01*
X7585000Y-3302000D02*
G75*
G02*
X7655000Y-3302000I35000J0D01*
G01*
X8798000Y-2540000D02*
G75*
G02*
X8728000Y-2540000I-35000J0D01*
G01*
X8728000Y-2540000D02*
G75*
G02*
X8798000Y-2540000I35000J0D01*
G01*
X8798000Y-3302000D02*
G75*
G02*
X8728000Y-3302000I-35000J0D01*
G01*
X8728000Y-3302000D02*
G75*
G02*
X8798000Y-3302000I35000J0D01*
G01*
X9433000Y-2540000D02*
G75*
G02*
X9363000Y-2540000I-35000J0D01*
G01*
X9363000Y-2540000D02*
G75*
G02*
X9433000Y-2540000I35000J0D01*
G01*
X9433000Y-3302000D02*
G75*
G02*
X9363000Y-3302000I-35000J0D01*
G01*
X9363000Y-3302000D02*
G75*
G02*
X9433000Y-3302000I35000J0D01*
G01*
X10068000Y-2540000D02*
G75*
G02*
X9998000Y-2540000I-35000J0D01*
G01*
X9998000Y-2540000D02*
G75*
G02*
X10068000Y-2540000I35000J0D01*
G01*
X10068000Y-3302000D02*
G75*
G02*
X9998000Y-3302000I-35000J0D01*
G01*
X9998000Y-3302000D02*
G75*
G02*
X10068000Y-3302000I35000J0D01*
G01*
X10701000Y-2540000D02*
G75*
G02*
X10631000Y-2540000I-35000J0D01*
G01*
X10631000Y-2540000D02*
G75*
G02*
X10701000Y-2540000I35000J0D01*
G01*
X10701000Y-3302000D02*
G75*
G02*
X10631000Y-3302000I-35000J0D01*
G01*
X10631000Y-3302000D02*
G75*
G02*
X10701000Y-3302000I35000J0D01*
G01*
X1778000Y-6810500D02*
X1778000Y-6905500D01*
X1730500Y-6858000D02*
X1825500Y-6858000D01*
X1778000Y-7060500D02*
X1778000Y-7155500D01*
X1730500Y-7108000D02*
X1825500Y-7108000D01*
X1778000Y-7310500D02*
X1778000Y-7405500D01*
X1730500Y-7358000D02*
X1825500Y-7358000D01*
X1778000Y-7560500D02*
X1778000Y-7655500D01*
X1730500Y-7608000D02*
X1825500Y-7608000D01*
X1778000Y-7810500D02*
X1778000Y-7905500D01*
X1730500Y-7858000D02*
X1825500Y-7858000D01*
X1778000Y-8580500D02*
X1778000Y-8675500D01*
X1730500Y-8628000D02*
X1825500Y-8628000D01*
X1778000Y-8830500D02*
X1778000Y-8925500D01*
X1730500Y-8878000D02*
X1825500Y-8878000D01*
X1778000Y-9080500D02*
X1778000Y-9175500D01*
X1730500Y-9128000D02*
X1825500Y-9128000D01*
X1778000Y-9330500D02*
X1778000Y-9425500D01*
X1730500Y-9378000D02*
X1825500Y-9378000D01*
X1778000Y-10092500D02*
X1778000Y-10187500D01*
X1730500Y-10140000D02*
X1825500Y-10140000D01*
X1778000Y-10342500D02*
X1778000Y-10437500D01*
X1730500Y-10390000D02*
X1825500Y-10390000D01*
X1778000Y-10592500D02*
X1778000Y-10687500D01*
X1730500Y-10640000D02*
X1825500Y-10640000D01*
X8036356Y-3337356D02*
X8036356Y-3266644D01*
X7965644Y-3266644D01*
X7965644Y-3337356D01*
X8036356Y-3337356D01*
X8036356Y-4099356D02*
X8036356Y-4028644D01*
X7965644Y-4028644D01*
X7965644Y-4099356D01*
X8036356Y-4099356D01*
X1905000Y-1828000D02*
X1955000Y-1778000D01*
X1905000Y-1728000D01*
X1855000Y-1778000D01*
X1905000Y-1828000D01*
X1905000Y-2336000D02*
X1955000Y-2286000D01*
X1905000Y-2236000D01*
X1855000Y-2286000D01*
X1905000Y-2336000D01*
X2032000Y-4043500D02*
X2082000Y-3993500D01*
X2032000Y-3943500D01*
X1982000Y-3993500D01*
X2032000Y-4043500D01*
X2159000Y-1828000D02*
X2209000Y-1778000D01*
X2159000Y-1728000D01*
X2109000Y-1778000D01*
X2159000Y-1828000D01*
X2159000Y-2336000D02*
X2209000Y-2286000D01*
X2159000Y-2236000D01*
X2109000Y-2286000D01*
X2159000Y-2336000D01*
X2286000Y-4043500D02*
X2336000Y-3993500D01*
X2286000Y-3943500D01*
X2236000Y-3993500D01*
X2286000Y-4043500D01*
X2413000Y-1828000D02*
X2463000Y-1778000D01*
X2413000Y-1728000D01*
X2363000Y-1778000D01*
X2413000Y-1828000D01*
X2413000Y-2336000D02*
X2463000Y-2286000D01*
X2413000Y-2236000D01*
X2363000Y-2286000D01*
X2413000Y-2336000D01*
X2540000Y-4043500D02*
X2590000Y-3993500D01*
X2540000Y-3943500D01*
X2490000Y-3993500D01*
X2540000Y-4043500D01*
X2667000Y-2336000D02*
X2717000Y-2286000D01*
X2667000Y-2236000D01*
X2617000Y-2286000D01*
X2667000Y-2336000D01*
X2794000Y-4043500D02*
X2844000Y-3993500D01*
X2794000Y-3943500D01*
X2744000Y-3993500D01*
X2794000Y-4043500D01*
X3048000Y-4043500D02*
X3098000Y-3993500D01*
X3048000Y-3943500D01*
X2998000Y-3993500D01*
X3048000Y-4043500D01*
X3175000Y-1828000D02*
X3225000Y-1778000D01*
X3175000Y-1728000D01*
X3125000Y-1778000D01*
X3175000Y-1828000D01*
X3302000Y-4043500D02*
X3352000Y-3993500D01*
X3302000Y-3943500D01*
X3252000Y-3993500D01*
X3302000Y-4043500D01*
X3429000Y-1828000D02*
X3479000Y-1778000D01*
X3429000Y-1728000D01*
X3379000Y-1778000D01*
X3429000Y-1828000D01*
X3556000Y-4043500D02*
X3606000Y-3993500D01*
X3556000Y-3943500D01*
X3506000Y-3993500D01*
X3556000Y-4043500D01*
X3683000Y-1828000D02*
X3733000Y-1778000D01*
X3683000Y-1728000D01*
X3633000Y-1778000D01*
X3683000Y-1828000D01*
X3810000Y-4043500D02*
X3860000Y-3993500D01*
X3810000Y-3943500D01*
X3760000Y-3993500D01*
X3810000Y-4043500D01*
X4064000Y-4043500D02*
X4114000Y-3993500D01*
X4064000Y-3943500D01*
X4014000Y-3993500D01*
X4064000Y-4043500D01*
X4191000Y-1828000D02*
X4241000Y-1778000D01*
X4191000Y-1728000D01*
X4141000Y-1778000D01*
X4191000Y-1828000D01*
X4318000Y-4043500D02*
X4368000Y-3993500D01*
X4318000Y-3943500D01*
X4268000Y-3993500D01*
X4318000Y-4043500D01*
X4445000Y-1828000D02*
X4495000Y-1778000D01*
X4445000Y-1728000D01*
X4395000Y-1778000D01*
X4445000Y-1828000D01*
X4699000Y-1828000D02*
X4749000Y-1778000D01*
X4699000Y-1728000D01*
X4649000Y-1778000D01*
X4699000Y-1828000D01*
X5080000Y-3987000D02*
X5130000Y-3937000D01*
X5080000Y-3887000D01*
X5030000Y-3937000D01*
X5080000Y-3987000D01*
X5334000Y-3987000D02*
X5384000Y-3937000D01*
X5334000Y-3887000D01*
X5284000Y-3937000D01*
X5334000Y-3987000D01*
X5338000Y-1828000D02*
X5388000Y-1778000D01*
X5338000Y-1728000D01*
X5288000Y-1778000D01*
X5338000Y-1828000D01*
X5588000Y-1828000D02*
X5638000Y-1778000D01*
X5588000Y-1728000D01*
X5538000Y-1778000D01*
X5588000Y-1828000D01*
X5588000Y-3987000D02*
X5638000Y-3937000D01*
X5588000Y-3887000D01*
X5538000Y-3937000D01*
X5588000Y-3987000D01*
X5842000Y-3987000D02*
X5892000Y-3937000D01*
X5842000Y-3887000D01*
X5792000Y-3937000D01*
X5842000Y-3987000D01*
X6096000Y-3987000D02*
X6146000Y-3937000D01*
X6096000Y-3887000D01*
X6046000Y-3937000D01*
X6096000Y-3987000D01*
X6350000Y-3987000D02*
X6400000Y-3937000D01*
X6350000Y-3887000D01*
X6300000Y-3937000D01*
X6350000Y-3987000D01*
X6354000Y-1828000D02*
X6404000Y-1778000D01*
X6354000Y-1728000D01*
X6304000Y-1778000D01*
X6354000Y-1828000D01*
X6604000Y-1828000D02*
X6654000Y-1778000D01*
X6604000Y-1728000D01*
X6554000Y-1778000D01*
X6604000Y-1828000D01*
X6604000Y-3987000D02*
X6654000Y-3937000D01*
X6604000Y-3887000D01*
X6554000Y-3937000D01*
X6604000Y-3987000D01*
X6858000Y-3987000D02*
X6908000Y-3937000D01*
X6858000Y-3887000D01*
X6808000Y-3937000D01*
X6858000Y-3987000D01*
X7112000Y-3987000D02*
X7162000Y-3937000D01*
X7112000Y-3887000D01*
X7062000Y-3937000D01*
X7112000Y-3987000D01*
X7366000Y-3987000D02*
X7416000Y-3937000D01*
X7366000Y-3887000D01*
X7316000Y-3937000D01*
X7366000Y-3987000D01*
X7370000Y-1828000D02*
X7420000Y-1778000D01*
X7370000Y-1728000D01*
X7320000Y-1778000D01*
X7370000Y-1828000D01*
X7613870Y-10718000D02*
X7663870Y-10668000D01*
X7613870Y-10618000D01*
X7563870Y-10668000D01*
X7613870Y-10718000D01*
X7620000Y-1828000D02*
X7670000Y-1778000D01*
X7620000Y-1728000D01*
X7570000Y-1778000D01*
X7620000Y-1828000D01*
X7867870Y-10718000D02*
X7917870Y-10668000D01*
X7867870Y-10618000D01*
X7817870Y-10668000D01*
X7867870Y-10718000D01*
X8121870Y-10718000D02*
X8171870Y-10668000D01*
X8121870Y-10618000D01*
X8071870Y-10668000D01*
X8121870Y-10718000D01*
X8375870Y-10718000D02*
X8425870Y-10668000D01*
X8375870Y-10618000D01*
X8325870Y-10668000D01*
X8375870Y-10718000D01*
X8382000Y-3987000D02*
X8432000Y-3937000D01*
X8382000Y-3887000D01*
X8332000Y-3937000D01*
X8382000Y-3987000D01*
X8629870Y-10718000D02*
X8679870Y-10668000D01*
X8629870Y-10618000D01*
X8579870Y-10668000D01*
X8629870Y-10718000D01*
X8636000Y-3987000D02*
X8686000Y-3937000D01*
X8636000Y-3887000D01*
X8586000Y-3937000D01*
X8636000Y-3987000D01*
X8763000Y-1828000D02*
X8813000Y-1778000D01*
X8763000Y-1728000D01*
X8713000Y-1778000D01*
X8763000Y-1828000D01*
X8763000Y-2082000D02*
X8813000Y-2032000D01*
X8763000Y-1982000D01*
X8713000Y-2032000D01*
X8763000Y-2082000D01*
X8883870Y-10718000D02*
X8933870Y-10668000D01*
X8883870Y-10618000D01*
X8833870Y-10668000D01*
X8883870Y-10718000D01*
X8890000Y-3987000D02*
X8940000Y-3937000D01*
X8890000Y-3887000D01*
X8840000Y-3937000D01*
X8890000Y-3987000D01*
X9137870Y-10718000D02*
X9187870Y-10668000D01*
X9137870Y-10618000D01*
X9087870Y-10668000D01*
X9137870Y-10718000D01*
X9144000Y-3987000D02*
X9194000Y-3937000D01*
X9144000Y-3887000D01*
X9094000Y-3937000D01*
X9144000Y-3987000D01*
X9391870Y-10718000D02*
X9441870Y-10668000D01*
X9391870Y-10618000D01*
X9341870Y-10668000D01*
X9391870Y-10718000D01*
X9398000Y-1828000D02*
X9448000Y-1778000D01*
X9398000Y-1728000D01*
X9348000Y-1778000D01*
X9398000Y-1828000D01*
X9398000Y-2082000D02*
X9448000Y-2032000D01*
X9398000Y-1982000D01*
X9348000Y-2032000D01*
X9398000Y-2082000D01*
X9398000Y-3987000D02*
X9448000Y-3937000D01*
X9398000Y-3887000D01*
X9348000Y-3937000D01*
X9398000Y-3987000D01*
X9645870Y-10718000D02*
X9695870Y-10668000D01*
X9645870Y-10618000D01*
X9595870Y-10668000D01*
X9645870Y-10718000D01*
X9652000Y-3987000D02*
X9702000Y-3937000D01*
X9652000Y-3887000D01*
X9602000Y-3937000D01*
X9652000Y-3987000D01*
X9899870Y-10718000D02*
X9949870Y-10668000D01*
X9899870Y-10618000D01*
X9849870Y-10668000D01*
X9899870Y-10718000D01*
X9906000Y-3987000D02*
X9956000Y-3937000D01*
X9906000Y-3887000D01*
X9856000Y-3937000D01*
X9906000Y-3987000D01*
X10033000Y-1828000D02*
X10083000Y-1778000D01*
X10033000Y-1728000D01*
X9983000Y-1778000D01*
X10033000Y-1828000D01*
X10033000Y-2082000D02*
X10083000Y-2032000D01*
X10033000Y-1982000D01*
X9983000Y-2032000D01*
X10033000Y-2082000D01*
X10160000Y-3987000D02*
X10210000Y-3937000D01*
X10160000Y-3887000D01*
X10110000Y-3937000D01*
X10160000Y-3987000D01*
X10414000Y-3987000D02*
X10464000Y-3937000D01*
X10414000Y-3887000D01*
X10364000Y-3937000D01*
X10414000Y-3987000D01*
X10668000Y-1828000D02*
X10718000Y-1778000D01*
X10668000Y-1728000D01*
X10618000Y-1778000D01*
X10668000Y-1828000D01*
X10668000Y-2082000D02*
X10718000Y-2032000D01*
X10668000Y-1982000D01*
X10618000Y-2032000D01*
X10668000Y-2082000D01*
X10668000Y-3987000D02*
X10718000Y-3937000D01*
X10668000Y-3887000D01*
X10618000Y-3937000D01*
X10668000Y-3987000D01*
D11*
X1932000Y-5107000D02*
X2132000Y-5307000D01*
X2132000Y-5107000D02*
X1932000Y-5307000D01*
X2132000Y-5207000D02*
G75*
G02*
X1932000Y-5207000I-100000J0D01*
G01*
X1932000Y-5207000D02*
G75*
G02*
X2132000Y-5207000I100000J0D01*
G01*
X2821000Y-5996000D02*
X3021000Y-6196000D01*
X3021000Y-5996000D02*
X2821000Y-6196000D01*
X3021000Y-6096000D02*
G75*
G02*
X2821000Y-6096000I-100000J0D01*
G01*
X2821000Y-6096000D02*
G75*
G02*
X3021000Y-6096000I100000J0D01*
G01*
X6377000Y-5742000D02*
X6577000Y-5942000D01*
X6577000Y-5742000D02*
X6377000Y-5942000D01*
X6577000Y-5842000D02*
G75*
G02*
X6377000Y-5842000I-100000J0D01*
G01*
X6377000Y-5842000D02*
G75*
G02*
X6577000Y-5842000I100000J0D01*
G01*
X6377000Y-8790000D02*
X6577000Y-8990000D01*
X6577000Y-8790000D02*
X6377000Y-8990000D01*
X6577000Y-8890000D02*
G75*
G02*
X6377000Y-8890000I-100000J0D01*
G01*
X6377000Y-8890000D02*
G75*
G02*
X6577000Y-8890000I100000J0D01*
G01*
X7266000Y-6631000D02*
X7466000Y-6831000D01*
X7466000Y-6631000D02*
X7266000Y-6831000D01*
X7466000Y-6731000D02*
G75*
G02*
X7266000Y-6731000I-100000J0D01*
G01*
X7266000Y-6731000D02*
G75*
G02*
X7466000Y-6731000I100000J0D01*
G01*
X7266000Y-7901000D02*
X7466000Y-8101000D01*
X7466000Y-7901000D02*
X7266000Y-8101000D01*
X7466000Y-8001000D02*
G75*
G02*
X7266000Y-8001000I-100000J0D01*
G01*
X7266000Y-8001000D02*
G75*
G02*
X7466000Y-8001000I100000J0D01*
G01*
X1525777Y-11492484D02*
X1525777Y-11292484D01*
X1525777Y-11292484D02*
X1573396Y-11292484D01*
X1573396Y-11292484D02*
X1601967Y-11302008D01*
X1601967Y-11302008D02*
X1621015Y-11321055D01*
X1621015Y-11321055D02*
X1630539Y-11340103D01*
X1630539Y-11340103D02*
X1640062Y-11378198D01*
X1640062Y-11378198D02*
X1640062Y-11406769D01*
X1640062Y-11406769D02*
X1630539Y-11444865D01*
X1630539Y-11444865D02*
X1621015Y-11463912D01*
X1621015Y-11463912D02*
X1601967Y-11482960D01*
X1601967Y-11482960D02*
X1573396Y-11492484D01*
X1573396Y-11492484D02*
X1525777Y-11492484D01*
X1725777Y-11492484D02*
X1725777Y-11359150D01*
X1725777Y-11397246D02*
X1735301Y-11378198D01*
X1735301Y-11378198D02*
X1744824Y-11368674D01*
X1744824Y-11368674D02*
X1763872Y-11359150D01*
X1763872Y-11359150D02*
X1782920Y-11359150D01*
X1849586Y-11492484D02*
X1849586Y-11359150D01*
X1849586Y-11292484D02*
X1840062Y-11302008D01*
X1840062Y-11302008D02*
X1849586Y-11311531D01*
X1849586Y-11311531D02*
X1859110Y-11302008D01*
X1859110Y-11302008D02*
X1849586Y-11292484D01*
X1849586Y-11292484D02*
X1849586Y-11311531D01*
X1973396Y-11492484D02*
X1954348Y-11482960D01*
X1954348Y-11482960D02*
X1944824Y-11463912D01*
X1944824Y-11463912D02*
X1944824Y-11292484D01*
X2078158Y-11492484D02*
X2059110Y-11482960D01*
X2059110Y-11482960D02*
X2049586Y-11463912D01*
X2049586Y-11463912D02*
X2049586Y-11292484D01*
X2306729Y-11492484D02*
X2306729Y-11292484D01*
X2306729Y-11292484D02*
X2373396Y-11435341D01*
X2373396Y-11435341D02*
X2440063Y-11292484D01*
X2440063Y-11292484D02*
X2440063Y-11492484D01*
X2621015Y-11492484D02*
X2621015Y-11387722D01*
X2621015Y-11387722D02*
X2611491Y-11368674D01*
X2611491Y-11368674D02*
X2592444Y-11359150D01*
X2592444Y-11359150D02*
X2554348Y-11359150D01*
X2554348Y-11359150D02*
X2535301Y-11368674D01*
X2621015Y-11482960D02*
X2601967Y-11492484D01*
X2601967Y-11492484D02*
X2554348Y-11492484D01*
X2554348Y-11492484D02*
X2535301Y-11482960D01*
X2535301Y-11482960D02*
X2525777Y-11463912D01*
X2525777Y-11463912D02*
X2525777Y-11444865D01*
X2525777Y-11444865D02*
X2535301Y-11425817D01*
X2535301Y-11425817D02*
X2554348Y-11416293D01*
X2554348Y-11416293D02*
X2601967Y-11416293D01*
X2601967Y-11416293D02*
X2621015Y-11406769D01*
X2716253Y-11359150D02*
X2716253Y-11559150D01*
X2716253Y-11368674D02*
X2735301Y-11359150D01*
X2735301Y-11359150D02*
X2773396Y-11359150D01*
X2773396Y-11359150D02*
X2792444Y-11368674D01*
X2792444Y-11368674D02*
X2801967Y-11378198D01*
X2801967Y-11378198D02*
X2811491Y-11397246D01*
X2811491Y-11397246D02*
X2811491Y-11454388D01*
X2811491Y-11454388D02*
X2801967Y-11473436D01*
X2801967Y-11473436D02*
X2792444Y-11482960D01*
X2792444Y-11482960D02*
X2773396Y-11492484D01*
X2773396Y-11492484D02*
X2735301Y-11492484D01*
X2735301Y-11492484D02*
X2716253Y-11482960D01*
X2897205Y-11473436D02*
X2906729Y-11482960D01*
X2906729Y-11482960D02*
X2897205Y-11492484D01*
X2897205Y-11492484D02*
X2887682Y-11482960D01*
X2887682Y-11482960D02*
X2897205Y-11473436D01*
X2897205Y-11473436D02*
X2897205Y-11492484D01*
X2897205Y-11368674D02*
X2906729Y-11378198D01*
X2906729Y-11378198D02*
X2897205Y-11387722D01*
X2897205Y-11387722D02*
X2887682Y-11378198D01*
X2887682Y-11378198D02*
X2897205Y-11368674D01*
X2897205Y-11368674D02*
X2897205Y-11387722D01*
D10*
X1235000Y-11806000D02*
X1265000Y-11836000D01*
X1265000Y-11806000D02*
X1235000Y-11836000D01*
D11*
X1563872Y-11712484D02*
X1582920Y-11712484D01*
X1582920Y-11712484D02*
X1601967Y-11722008D01*
X1601967Y-11722008D02*
X1611491Y-11731531D01*
X1611491Y-11731531D02*
X1621015Y-11750579D01*
X1621015Y-11750579D02*
X1630539Y-11788674D01*
X1630539Y-11788674D02*
X1630539Y-11836293D01*
X1630539Y-11836293D02*
X1621015Y-11874388D01*
X1621015Y-11874388D02*
X1611491Y-11893436D01*
X1611491Y-11893436D02*
X1601967Y-11902960D01*
X1601967Y-11902960D02*
X1582920Y-11912484D01*
X1582920Y-11912484D02*
X1563872Y-11912484D01*
X1563872Y-11912484D02*
X1544824Y-11902960D01*
X1544824Y-11902960D02*
X1535301Y-11893436D01*
X1535301Y-11893436D02*
X1525777Y-11874388D01*
X1525777Y-11874388D02*
X1516253Y-11836293D01*
X1516253Y-11836293D02*
X1516253Y-11788674D01*
X1516253Y-11788674D02*
X1525777Y-11750579D01*
X1525777Y-11750579D02*
X1535301Y-11731531D01*
X1535301Y-11731531D02*
X1544824Y-11722008D01*
X1544824Y-11722008D02*
X1563872Y-11712484D01*
X1716253Y-11893436D02*
X1725777Y-11902960D01*
X1725777Y-11902960D02*
X1716253Y-11912484D01*
X1716253Y-11912484D02*
X1706729Y-11902960D01*
X1706729Y-11902960D02*
X1716253Y-11893436D01*
X1716253Y-11893436D02*
X1716253Y-11912484D01*
X1792443Y-11712484D02*
X1916253Y-11712484D01*
X1916253Y-11712484D02*
X1849586Y-11788674D01*
X1849586Y-11788674D02*
X1878158Y-11788674D01*
X1878158Y-11788674D02*
X1897205Y-11798198D01*
X1897205Y-11798198D02*
X1906729Y-11807722D01*
X1906729Y-11807722D02*
X1916253Y-11826769D01*
X1916253Y-11826769D02*
X1916253Y-11874388D01*
X1916253Y-11874388D02*
X1906729Y-11893436D01*
X1906729Y-11893436D02*
X1897205Y-11902960D01*
X1897205Y-11902960D02*
X1878158Y-11912484D01*
X1878158Y-11912484D02*
X1821015Y-11912484D01*
X1821015Y-11912484D02*
X1801967Y-11902960D01*
X1801967Y-11902960D02*
X1792443Y-11893436D01*
X2040062Y-11712484D02*
X2059110Y-11712484D01*
X2059110Y-11712484D02*
X2078158Y-11722008D01*
X2078158Y-11722008D02*
X2087682Y-11731531D01*
X2087682Y-11731531D02*
X2097205Y-11750579D01*
X2097205Y-11750579D02*
X2106729Y-11788674D01*
X2106729Y-11788674D02*
X2106729Y-11836293D01*
X2106729Y-11836293D02*
X2097205Y-11874388D01*
X2097205Y-11874388D02*
X2087682Y-11893436D01*
X2087682Y-11893436D02*
X2078158Y-11902960D01*
X2078158Y-11902960D02*
X2059110Y-11912484D01*
X2059110Y-11912484D02*
X2040062Y-11912484D01*
X2040062Y-11912484D02*
X2021015Y-11902960D01*
X2021015Y-11902960D02*
X2011491Y-11893436D01*
X2011491Y-11893436D02*
X2001967Y-11874388D01*
X2001967Y-11874388D02*
X1992443Y-11836293D01*
X1992443Y-11836293D02*
X1992443Y-11788674D01*
X1992443Y-11788674D02*
X2001967Y-11750579D01*
X2001967Y-11750579D02*
X2011491Y-11731531D01*
X2011491Y-11731531D02*
X2021015Y-11722008D01*
X2021015Y-11722008D02*
X2040062Y-11712484D01*
X2230539Y-11712484D02*
X2249586Y-11712484D01*
X2249586Y-11712484D02*
X2268634Y-11722008D01*
X2268634Y-11722008D02*
X2278158Y-11731531D01*
X2278158Y-11731531D02*
X2287682Y-11750579D01*
X2287682Y-11750579D02*
X2297205Y-11788674D01*
X2297205Y-11788674D02*
X2297205Y-11836293D01*
X2297205Y-11836293D02*
X2287682Y-11874388D01*
X2287682Y-11874388D02*
X2278158Y-11893436D01*
X2278158Y-11893436D02*
X2268634Y-11902960D01*
X2268634Y-11902960D02*
X2249586Y-11912484D01*
X2249586Y-11912484D02*
X2230539Y-11912484D01*
X2230539Y-11912484D02*
X2211491Y-11902960D01*
X2211491Y-11902960D02*
X2201967Y-11893436D01*
X2201967Y-11893436D02*
X2192444Y-11874388D01*
X2192444Y-11874388D02*
X2182920Y-11836293D01*
X2182920Y-11836293D02*
X2182920Y-11788674D01*
X2182920Y-11788674D02*
X2192444Y-11750579D01*
X2192444Y-11750579D02*
X2201967Y-11731531D01*
X2201967Y-11731531D02*
X2211491Y-11722008D01*
X2211491Y-11722008D02*
X2230539Y-11712484D01*
X2382920Y-11912484D02*
X2382920Y-11779150D01*
X2382920Y-11798198D02*
X2392444Y-11788674D01*
X2392444Y-11788674D02*
X2411491Y-11779150D01*
X2411491Y-11779150D02*
X2440063Y-11779150D01*
X2440063Y-11779150D02*
X2459110Y-11788674D01*
X2459110Y-11788674D02*
X2468634Y-11807722D01*
X2468634Y-11807722D02*
X2468634Y-11912484D01*
X2468634Y-11807722D02*
X2478158Y-11788674D01*
X2478158Y-11788674D02*
X2497205Y-11779150D01*
X2497205Y-11779150D02*
X2525777Y-11779150D01*
X2525777Y-11779150D02*
X2544825Y-11788674D01*
X2544825Y-11788674D02*
X2554348Y-11807722D01*
X2554348Y-11807722D02*
X2554348Y-11912484D01*
X2649586Y-11912484D02*
X2649586Y-11779150D01*
X2649586Y-11798198D02*
X2659110Y-11788674D01*
X2659110Y-11788674D02*
X2678158Y-11779150D01*
X2678158Y-11779150D02*
X2706729Y-11779150D01*
X2706729Y-11779150D02*
X2725777Y-11788674D01*
X2725777Y-11788674D02*
X2735301Y-11807722D01*
X2735301Y-11807722D02*
X2735301Y-11912484D01*
X2735301Y-11807722D02*
X2744825Y-11788674D01*
X2744825Y-11788674D02*
X2763872Y-11779150D01*
X2763872Y-11779150D02*
X2792444Y-11779150D01*
X2792444Y-11779150D02*
X2811491Y-11788674D01*
X2811491Y-11788674D02*
X2821015Y-11807722D01*
X2821015Y-11807722D02*
X2821015Y-11912484D01*
X3211491Y-11702960D02*
X3040063Y-11960103D01*
X3468634Y-11712484D02*
X3487682Y-11712484D01*
X3487682Y-11712484D02*
X3506729Y-11722008D01*
X3506729Y-11722008D02*
X3516253Y-11731531D01*
X3516253Y-11731531D02*
X3525777Y-11750579D01*
X3525777Y-11750579D02*
X3535301Y-11788674D01*
X3535301Y-11788674D02*
X3535301Y-11836293D01*
X3535301Y-11836293D02*
X3525777Y-11874388D01*
X3525777Y-11874388D02*
X3516253Y-11893436D01*
X3516253Y-11893436D02*
X3506729Y-11902960D01*
X3506729Y-11902960D02*
X3487682Y-11912484D01*
X3487682Y-11912484D02*
X3468634Y-11912484D01*
X3468634Y-11912484D02*
X3449586Y-11902960D01*
X3449586Y-11902960D02*
X3440063Y-11893436D01*
X3440063Y-11893436D02*
X3430539Y-11874388D01*
X3430539Y-11874388D02*
X3421015Y-11836293D01*
X3421015Y-11836293D02*
X3421015Y-11788674D01*
X3421015Y-11788674D02*
X3430539Y-11750579D01*
X3430539Y-11750579D02*
X3440063Y-11731531D01*
X3440063Y-11731531D02*
X3449586Y-11722008D01*
X3449586Y-11722008D02*
X3468634Y-11712484D01*
X3621015Y-11893436D02*
X3630539Y-11902960D01*
X3630539Y-11902960D02*
X3621015Y-11912484D01*
X3621015Y-11912484D02*
X3611491Y-11902960D01*
X3611491Y-11902960D02*
X3621015Y-11893436D01*
X3621015Y-11893436D02*
X3621015Y-11912484D01*
X3754348Y-11712484D02*
X3773396Y-11712484D01*
X3773396Y-11712484D02*
X3792444Y-11722008D01*
X3792444Y-11722008D02*
X3801967Y-11731531D01*
X3801967Y-11731531D02*
X3811491Y-11750579D01*
X3811491Y-11750579D02*
X3821015Y-11788674D01*
X3821015Y-11788674D02*
X3821015Y-11836293D01*
X3821015Y-11836293D02*
X3811491Y-11874388D01*
X3811491Y-11874388D02*
X3801967Y-11893436D01*
X3801967Y-11893436D02*
X3792444Y-11902960D01*
X3792444Y-11902960D02*
X3773396Y-11912484D01*
X3773396Y-11912484D02*
X3754348Y-11912484D01*
X3754348Y-11912484D02*
X3735301Y-11902960D01*
X3735301Y-11902960D02*
X3725777Y-11893436D01*
X3725777Y-11893436D02*
X3716253Y-11874388D01*
X3716253Y-11874388D02*
X3706729Y-11836293D01*
X3706729Y-11836293D02*
X3706729Y-11788674D01*
X3706729Y-11788674D02*
X3716253Y-11750579D01*
X3716253Y-11750579D02*
X3725777Y-11731531D01*
X3725777Y-11731531D02*
X3735301Y-11722008D01*
X3735301Y-11722008D02*
X3754348Y-11712484D01*
X4011491Y-11912484D02*
X3897206Y-11912484D01*
X3954348Y-11912484D02*
X3954348Y-11712484D01*
X3954348Y-11712484D02*
X3935301Y-11741055D01*
X3935301Y-11741055D02*
X3916253Y-11760103D01*
X3916253Y-11760103D02*
X3897206Y-11769627D01*
X4201968Y-11912484D02*
X4087682Y-11912484D01*
X4144825Y-11912484D02*
X4144825Y-11712484D01*
X4144825Y-11712484D02*
X4125777Y-11741055D01*
X4125777Y-11741055D02*
X4106729Y-11760103D01*
X4106729Y-11760103D02*
X4087682Y-11769627D01*
X4316253Y-11798198D02*
X4297206Y-11788674D01*
X4297206Y-11788674D02*
X4287682Y-11779150D01*
X4287682Y-11779150D02*
X4278158Y-11760103D01*
X4278158Y-11760103D02*
X4278158Y-11750579D01*
X4278158Y-11750579D02*
X4287682Y-11731531D01*
X4287682Y-11731531D02*
X4297206Y-11722008D01*
X4297206Y-11722008D02*
X4316253Y-11712484D01*
X4316253Y-11712484D02*
X4354349Y-11712484D01*
X4354349Y-11712484D02*
X4373396Y-11722008D01*
X4373396Y-11722008D02*
X4382920Y-11731531D01*
X4382920Y-11731531D02*
X4392444Y-11750579D01*
X4392444Y-11750579D02*
X4392444Y-11760103D01*
X4392444Y-11760103D02*
X4382920Y-11779150D01*
X4382920Y-11779150D02*
X4373396Y-11788674D01*
X4373396Y-11788674D02*
X4354349Y-11798198D01*
X4354349Y-11798198D02*
X4316253Y-11798198D01*
X4316253Y-11798198D02*
X4297206Y-11807722D01*
X4297206Y-11807722D02*
X4287682Y-11817246D01*
X4287682Y-11817246D02*
X4278158Y-11836293D01*
X4278158Y-11836293D02*
X4278158Y-11874388D01*
X4278158Y-11874388D02*
X4287682Y-11893436D01*
X4287682Y-11893436D02*
X4297206Y-11902960D01*
X4297206Y-11902960D02*
X4316253Y-11912484D01*
X4316253Y-11912484D02*
X4354349Y-11912484D01*
X4354349Y-11912484D02*
X4373396Y-11902960D01*
X4373396Y-11902960D02*
X4382920Y-11893436D01*
X4382920Y-11893436D02*
X4392444Y-11874388D01*
X4392444Y-11874388D02*
X4392444Y-11836293D01*
X4392444Y-11836293D02*
X4382920Y-11817246D01*
X4382920Y-11817246D02*
X4373396Y-11807722D01*
X4373396Y-11807722D02*
X4354349Y-11798198D01*
X4468634Y-11712484D02*
X4468634Y-11750579D01*
X4544825Y-11712484D02*
X4544825Y-11750579D01*
X4840063Y-11988674D02*
X4830539Y-11979150D01*
X4830539Y-11979150D02*
X4811491Y-11950579D01*
X4811491Y-11950579D02*
X4801968Y-11931531D01*
X4801968Y-11931531D02*
X4792444Y-11902960D01*
X4792444Y-11902960D02*
X4782920Y-11855341D01*
X4782920Y-11855341D02*
X4782920Y-11817246D01*
X4782920Y-11817246D02*
X4792444Y-11769627D01*
X4792444Y-11769627D02*
X4801968Y-11741055D01*
X4801968Y-11741055D02*
X4811491Y-11722008D01*
X4811491Y-11722008D02*
X4830539Y-11693436D01*
X4830539Y-11693436D02*
X4840063Y-11683912D01*
X4897206Y-11712484D02*
X5021015Y-11712484D01*
X5021015Y-11712484D02*
X4954349Y-11788674D01*
X4954349Y-11788674D02*
X4982920Y-11788674D01*
X4982920Y-11788674D02*
X5001968Y-11798198D01*
X5001968Y-11798198D02*
X5011491Y-11807722D01*
X5011491Y-11807722D02*
X5021015Y-11826769D01*
X5021015Y-11826769D02*
X5021015Y-11874388D01*
X5021015Y-11874388D02*
X5011491Y-11893436D01*
X5011491Y-11893436D02*
X5001968Y-11902960D01*
X5001968Y-11902960D02*
X4982920Y-11912484D01*
X4982920Y-11912484D02*
X4925777Y-11912484D01*
X4925777Y-11912484D02*
X4906730Y-11902960D01*
X4906730Y-11902960D02*
X4897206Y-11893436D01*
X5211491Y-11912484D02*
X5097206Y-11912484D01*
X5154349Y-11912484D02*
X5154349Y-11712484D01*
X5154349Y-11712484D02*
X5135301Y-11741055D01*
X5135301Y-11741055D02*
X5116253Y-11760103D01*
X5116253Y-11760103D02*
X5097206Y-11769627D01*
X5449587Y-11912484D02*
X5449587Y-11712484D01*
X5535301Y-11912484D02*
X5535301Y-11807722D01*
X5535301Y-11807722D02*
X5525777Y-11788674D01*
X5525777Y-11788674D02*
X5506730Y-11779150D01*
X5506730Y-11779150D02*
X5478158Y-11779150D01*
X5478158Y-11779150D02*
X5459111Y-11788674D01*
X5459111Y-11788674D02*
X5449587Y-11798198D01*
X5659110Y-11912484D02*
X5640063Y-11902960D01*
X5640063Y-11902960D02*
X5630539Y-11893436D01*
X5630539Y-11893436D02*
X5621015Y-11874388D01*
X5621015Y-11874388D02*
X5621015Y-11817246D01*
X5621015Y-11817246D02*
X5630539Y-11798198D01*
X5630539Y-11798198D02*
X5640063Y-11788674D01*
X5640063Y-11788674D02*
X5659110Y-11779150D01*
X5659110Y-11779150D02*
X5687682Y-11779150D01*
X5687682Y-11779150D02*
X5706730Y-11788674D01*
X5706730Y-11788674D02*
X5716253Y-11798198D01*
X5716253Y-11798198D02*
X5725777Y-11817246D01*
X5725777Y-11817246D02*
X5725777Y-11874388D01*
X5725777Y-11874388D02*
X5716253Y-11893436D01*
X5716253Y-11893436D02*
X5706730Y-11902960D01*
X5706730Y-11902960D02*
X5687682Y-11912484D01*
X5687682Y-11912484D02*
X5659110Y-11912484D01*
X5840063Y-11912484D02*
X5821015Y-11902960D01*
X5821015Y-11902960D02*
X5811491Y-11883912D01*
X5811491Y-11883912D02*
X5811491Y-11712484D01*
X5992444Y-11902960D02*
X5973396Y-11912484D01*
X5973396Y-11912484D02*
X5935301Y-11912484D01*
X5935301Y-11912484D02*
X5916253Y-11902960D01*
X5916253Y-11902960D02*
X5906730Y-11883912D01*
X5906730Y-11883912D02*
X5906730Y-11807722D01*
X5906730Y-11807722D02*
X5916253Y-11788674D01*
X5916253Y-11788674D02*
X5935301Y-11779150D01*
X5935301Y-11779150D02*
X5973396Y-11779150D01*
X5973396Y-11779150D02*
X5992444Y-11788674D01*
X5992444Y-11788674D02*
X6001968Y-11807722D01*
X6001968Y-11807722D02*
X6001968Y-11826769D01*
X6001968Y-11826769D02*
X5906730Y-11845817D01*
X6078158Y-11902960D02*
X6097206Y-11912484D01*
X6097206Y-11912484D02*
X6135301Y-11912484D01*
X6135301Y-11912484D02*
X6154349Y-11902960D01*
X6154349Y-11902960D02*
X6163872Y-11883912D01*
X6163872Y-11883912D02*
X6163872Y-11874388D01*
X6163872Y-11874388D02*
X6154349Y-11855341D01*
X6154349Y-11855341D02*
X6135301Y-11845817D01*
X6135301Y-11845817D02*
X6106730Y-11845817D01*
X6106730Y-11845817D02*
X6087682Y-11836293D01*
X6087682Y-11836293D02*
X6078158Y-11817246D01*
X6078158Y-11817246D02*
X6078158Y-11807722D01*
X6078158Y-11807722D02*
X6087682Y-11788674D01*
X6087682Y-11788674D02*
X6106730Y-11779150D01*
X6106730Y-11779150D02*
X6135301Y-11779150D01*
X6135301Y-11779150D02*
X6154349Y-11788674D01*
X6230539Y-11988674D02*
X6240063Y-11979150D01*
X6240063Y-11979150D02*
X6259111Y-11950579D01*
X6259111Y-11950579D02*
X6268634Y-11931531D01*
X6268634Y-11931531D02*
X6278158Y-11902960D01*
X6278158Y-11902960D02*
X6287682Y-11855341D01*
X6287682Y-11855341D02*
X6287682Y-11817246D01*
X6287682Y-11817246D02*
X6278158Y-11769627D01*
X6278158Y-11769627D02*
X6268634Y-11741055D01*
X6268634Y-11741055D02*
X6259111Y-11722008D01*
X6259111Y-11722008D02*
X6240063Y-11693436D01*
X6240063Y-11693436D02*
X6230539Y-11683912D01*
D10*
X1265000Y-12085000D02*
G75*
G02*
X1195000Y-12085000I-35000J0D01*
G01*
X1195000Y-12085000D02*
G75*
G02*
X1265000Y-12085000I35000J0D01*
G01*
D11*
X1563872Y-11976484D02*
X1582920Y-11976484D01*
X1582920Y-11976484D02*
X1601967Y-11986008D01*
X1601967Y-11986008D02*
X1611491Y-11995531D01*
X1611491Y-11995531D02*
X1621015Y-12014579D01*
X1621015Y-12014579D02*
X1630539Y-12052674D01*
X1630539Y-12052674D02*
X1630539Y-12100293D01*
X1630539Y-12100293D02*
X1621015Y-12138388D01*
X1621015Y-12138388D02*
X1611491Y-12157436D01*
X1611491Y-12157436D02*
X1601967Y-12166960D01*
X1601967Y-12166960D02*
X1582920Y-12176484D01*
X1582920Y-12176484D02*
X1563872Y-12176484D01*
X1563872Y-12176484D02*
X1544824Y-12166960D01*
X1544824Y-12166960D02*
X1535301Y-12157436D01*
X1535301Y-12157436D02*
X1525777Y-12138388D01*
X1525777Y-12138388D02*
X1516253Y-12100293D01*
X1516253Y-12100293D02*
X1516253Y-12052674D01*
X1516253Y-12052674D02*
X1525777Y-12014579D01*
X1525777Y-12014579D02*
X1535301Y-11995531D01*
X1535301Y-11995531D02*
X1544824Y-11986008D01*
X1544824Y-11986008D02*
X1563872Y-11976484D01*
X1716253Y-12157436D02*
X1725777Y-12166960D01*
X1725777Y-12166960D02*
X1716253Y-12176484D01*
X1716253Y-12176484D02*
X1706729Y-12166960D01*
X1706729Y-12166960D02*
X1716253Y-12157436D01*
X1716253Y-12157436D02*
X1716253Y-12176484D01*
X1792443Y-11976484D02*
X1925777Y-11976484D01*
X1925777Y-11976484D02*
X1840062Y-12176484D01*
X2040062Y-11976484D02*
X2059110Y-11976484D01*
X2059110Y-11976484D02*
X2078158Y-11986008D01*
X2078158Y-11986008D02*
X2087682Y-11995531D01*
X2087682Y-11995531D02*
X2097205Y-12014579D01*
X2097205Y-12014579D02*
X2106729Y-12052674D01*
X2106729Y-12052674D02*
X2106729Y-12100293D01*
X2106729Y-12100293D02*
X2097205Y-12138388D01*
X2097205Y-12138388D02*
X2087682Y-12157436D01*
X2087682Y-12157436D02*
X2078158Y-12166960D01*
X2078158Y-12166960D02*
X2059110Y-12176484D01*
X2059110Y-12176484D02*
X2040062Y-12176484D01*
X2040062Y-12176484D02*
X2021015Y-12166960D01*
X2021015Y-12166960D02*
X2011491Y-12157436D01*
X2011491Y-12157436D02*
X2001967Y-12138388D01*
X2001967Y-12138388D02*
X1992443Y-12100293D01*
X1992443Y-12100293D02*
X1992443Y-12052674D01*
X1992443Y-12052674D02*
X2001967Y-12014579D01*
X2001967Y-12014579D02*
X2011491Y-11995531D01*
X2011491Y-11995531D02*
X2021015Y-11986008D01*
X2021015Y-11986008D02*
X2040062Y-11976484D01*
X2230539Y-11976484D02*
X2249586Y-11976484D01*
X2249586Y-11976484D02*
X2268634Y-11986008D01*
X2268634Y-11986008D02*
X2278158Y-11995531D01*
X2278158Y-11995531D02*
X2287682Y-12014579D01*
X2287682Y-12014579D02*
X2297205Y-12052674D01*
X2297205Y-12052674D02*
X2297205Y-12100293D01*
X2297205Y-12100293D02*
X2287682Y-12138388D01*
X2287682Y-12138388D02*
X2278158Y-12157436D01*
X2278158Y-12157436D02*
X2268634Y-12166960D01*
X2268634Y-12166960D02*
X2249586Y-12176484D01*
X2249586Y-12176484D02*
X2230539Y-12176484D01*
X2230539Y-12176484D02*
X2211491Y-12166960D01*
X2211491Y-12166960D02*
X2201967Y-12157436D01*
X2201967Y-12157436D02*
X2192444Y-12138388D01*
X2192444Y-12138388D02*
X2182920Y-12100293D01*
X2182920Y-12100293D02*
X2182920Y-12052674D01*
X2182920Y-12052674D02*
X2192444Y-12014579D01*
X2192444Y-12014579D02*
X2201967Y-11995531D01*
X2201967Y-11995531D02*
X2211491Y-11986008D01*
X2211491Y-11986008D02*
X2230539Y-11976484D01*
X2382920Y-12176484D02*
X2382920Y-12043150D01*
X2382920Y-12062198D02*
X2392444Y-12052674D01*
X2392444Y-12052674D02*
X2411491Y-12043150D01*
X2411491Y-12043150D02*
X2440063Y-12043150D01*
X2440063Y-12043150D02*
X2459110Y-12052674D01*
X2459110Y-12052674D02*
X2468634Y-12071722D01*
X2468634Y-12071722D02*
X2468634Y-12176484D01*
X2468634Y-12071722D02*
X2478158Y-12052674D01*
X2478158Y-12052674D02*
X2497205Y-12043150D01*
X2497205Y-12043150D02*
X2525777Y-12043150D01*
X2525777Y-12043150D02*
X2544825Y-12052674D01*
X2544825Y-12052674D02*
X2554348Y-12071722D01*
X2554348Y-12071722D02*
X2554348Y-12176484D01*
X2649586Y-12176484D02*
X2649586Y-12043150D01*
X2649586Y-12062198D02*
X2659110Y-12052674D01*
X2659110Y-12052674D02*
X2678158Y-12043150D01*
X2678158Y-12043150D02*
X2706729Y-12043150D01*
X2706729Y-12043150D02*
X2725777Y-12052674D01*
X2725777Y-12052674D02*
X2735301Y-12071722D01*
X2735301Y-12071722D02*
X2735301Y-12176484D01*
X2735301Y-12071722D02*
X2744825Y-12052674D01*
X2744825Y-12052674D02*
X2763872Y-12043150D01*
X2763872Y-12043150D02*
X2792444Y-12043150D01*
X2792444Y-12043150D02*
X2811491Y-12052674D01*
X2811491Y-12052674D02*
X2821015Y-12071722D01*
X2821015Y-12071722D02*
X2821015Y-12176484D01*
X3211491Y-11966960D02*
X3040063Y-12224103D01*
X3468634Y-11976484D02*
X3487682Y-11976484D01*
X3487682Y-11976484D02*
X3506729Y-11986008D01*
X3506729Y-11986008D02*
X3516253Y-11995531D01*
X3516253Y-11995531D02*
X3525777Y-12014579D01*
X3525777Y-12014579D02*
X3535301Y-12052674D01*
X3535301Y-12052674D02*
X3535301Y-12100293D01*
X3535301Y-12100293D02*
X3525777Y-12138388D01*
X3525777Y-12138388D02*
X3516253Y-12157436D01*
X3516253Y-12157436D02*
X3506729Y-12166960D01*
X3506729Y-12166960D02*
X3487682Y-12176484D01*
X3487682Y-12176484D02*
X3468634Y-12176484D01*
X3468634Y-12176484D02*
X3449586Y-12166960D01*
X3449586Y-12166960D02*
X3440063Y-12157436D01*
X3440063Y-12157436D02*
X3430539Y-12138388D01*
X3430539Y-12138388D02*
X3421015Y-12100293D01*
X3421015Y-12100293D02*
X3421015Y-12052674D01*
X3421015Y-12052674D02*
X3430539Y-12014579D01*
X3430539Y-12014579D02*
X3440063Y-11995531D01*
X3440063Y-11995531D02*
X3449586Y-11986008D01*
X3449586Y-11986008D02*
X3468634Y-11976484D01*
X3621015Y-12157436D02*
X3630539Y-12166960D01*
X3630539Y-12166960D02*
X3621015Y-12176484D01*
X3621015Y-12176484D02*
X3611491Y-12166960D01*
X3611491Y-12166960D02*
X3621015Y-12157436D01*
X3621015Y-12157436D02*
X3621015Y-12176484D01*
X3754348Y-11976484D02*
X3773396Y-11976484D01*
X3773396Y-11976484D02*
X3792444Y-11986008D01*
X3792444Y-11986008D02*
X3801967Y-11995531D01*
X3801967Y-11995531D02*
X3811491Y-12014579D01*
X3811491Y-12014579D02*
X3821015Y-12052674D01*
X3821015Y-12052674D02*
X3821015Y-12100293D01*
X3821015Y-12100293D02*
X3811491Y-12138388D01*
X3811491Y-12138388D02*
X3801967Y-12157436D01*
X3801967Y-12157436D02*
X3792444Y-12166960D01*
X3792444Y-12166960D02*
X3773396Y-12176484D01*
X3773396Y-12176484D02*
X3754348Y-12176484D01*
X3754348Y-12176484D02*
X3735301Y-12166960D01*
X3735301Y-12166960D02*
X3725777Y-12157436D01*
X3725777Y-12157436D02*
X3716253Y-12138388D01*
X3716253Y-12138388D02*
X3706729Y-12100293D01*
X3706729Y-12100293D02*
X3706729Y-12052674D01*
X3706729Y-12052674D02*
X3716253Y-12014579D01*
X3716253Y-12014579D02*
X3725777Y-11995531D01*
X3725777Y-11995531D02*
X3735301Y-11986008D01*
X3735301Y-11986008D02*
X3754348Y-11976484D01*
X3897206Y-11995531D02*
X3906729Y-11986008D01*
X3906729Y-11986008D02*
X3925777Y-11976484D01*
X3925777Y-11976484D02*
X3973396Y-11976484D01*
X3973396Y-11976484D02*
X3992444Y-11986008D01*
X3992444Y-11986008D02*
X4001967Y-11995531D01*
X4001967Y-11995531D02*
X4011491Y-12014579D01*
X4011491Y-12014579D02*
X4011491Y-12033627D01*
X4011491Y-12033627D02*
X4001967Y-12062198D01*
X4001967Y-12062198D02*
X3887682Y-12176484D01*
X3887682Y-12176484D02*
X4011491Y-12176484D01*
X4078158Y-11976484D02*
X4211491Y-11976484D01*
X4211491Y-11976484D02*
X4125777Y-12176484D01*
X4373396Y-11976484D02*
X4335301Y-11976484D01*
X4335301Y-11976484D02*
X4316253Y-11986008D01*
X4316253Y-11986008D02*
X4306729Y-11995531D01*
X4306729Y-11995531D02*
X4287682Y-12024103D01*
X4287682Y-12024103D02*
X4278158Y-12062198D01*
X4278158Y-12062198D02*
X4278158Y-12138388D01*
X4278158Y-12138388D02*
X4287682Y-12157436D01*
X4287682Y-12157436D02*
X4297206Y-12166960D01*
X4297206Y-12166960D02*
X4316253Y-12176484D01*
X4316253Y-12176484D02*
X4354349Y-12176484D01*
X4354349Y-12176484D02*
X4373396Y-12166960D01*
X4373396Y-12166960D02*
X4382920Y-12157436D01*
X4382920Y-12157436D02*
X4392444Y-12138388D01*
X4392444Y-12138388D02*
X4392444Y-12090769D01*
X4392444Y-12090769D02*
X4382920Y-12071722D01*
X4382920Y-12071722D02*
X4373396Y-12062198D01*
X4373396Y-12062198D02*
X4354349Y-12052674D01*
X4354349Y-12052674D02*
X4316253Y-12052674D01*
X4316253Y-12052674D02*
X4297206Y-12062198D01*
X4297206Y-12062198D02*
X4287682Y-12071722D01*
X4287682Y-12071722D02*
X4278158Y-12090769D01*
X4468634Y-11976484D02*
X4468634Y-12014579D01*
X4544825Y-11976484D02*
X4544825Y-12014579D01*
X4840063Y-12252674D02*
X4830539Y-12243150D01*
X4830539Y-12243150D02*
X4811491Y-12214579D01*
X4811491Y-12214579D02*
X4801968Y-12195531D01*
X4801968Y-12195531D02*
X4792444Y-12166960D01*
X4792444Y-12166960D02*
X4782920Y-12119341D01*
X4782920Y-12119341D02*
X4782920Y-12081246D01*
X4782920Y-12081246D02*
X4792444Y-12033627D01*
X4792444Y-12033627D02*
X4801968Y-12005055D01*
X4801968Y-12005055D02*
X4811491Y-11986008D01*
X4811491Y-11986008D02*
X4830539Y-11957436D01*
X4830539Y-11957436D02*
X4840063Y-11947912D01*
X5021015Y-12176484D02*
X4906730Y-12176484D01*
X4963872Y-12176484D02*
X4963872Y-11976484D01*
X4963872Y-11976484D02*
X4944825Y-12005055D01*
X4944825Y-12005055D02*
X4925777Y-12024103D01*
X4925777Y-12024103D02*
X4906730Y-12033627D01*
X5192444Y-12043150D02*
X5192444Y-12176484D01*
X5144825Y-11966960D02*
X5097206Y-12109817D01*
X5097206Y-12109817D02*
X5221015Y-12109817D01*
X5449587Y-12176484D02*
X5449587Y-11976484D01*
X5535301Y-12176484D02*
X5535301Y-12071722D01*
X5535301Y-12071722D02*
X5525777Y-12052674D01*
X5525777Y-12052674D02*
X5506730Y-12043150D01*
X5506730Y-12043150D02*
X5478158Y-12043150D01*
X5478158Y-12043150D02*
X5459111Y-12052674D01*
X5459111Y-12052674D02*
X5449587Y-12062198D01*
X5659110Y-12176484D02*
X5640063Y-12166960D01*
X5640063Y-12166960D02*
X5630539Y-12157436D01*
X5630539Y-12157436D02*
X5621015Y-12138388D01*
X5621015Y-12138388D02*
X5621015Y-12081246D01*
X5621015Y-12081246D02*
X5630539Y-12062198D01*
X5630539Y-12062198D02*
X5640063Y-12052674D01*
X5640063Y-12052674D02*
X5659110Y-12043150D01*
X5659110Y-12043150D02*
X5687682Y-12043150D01*
X5687682Y-12043150D02*
X5706730Y-12052674D01*
X5706730Y-12052674D02*
X5716253Y-12062198D01*
X5716253Y-12062198D02*
X5725777Y-12081246D01*
X5725777Y-12081246D02*
X5725777Y-12138388D01*
X5725777Y-12138388D02*
X5716253Y-12157436D01*
X5716253Y-12157436D02*
X5706730Y-12166960D01*
X5706730Y-12166960D02*
X5687682Y-12176484D01*
X5687682Y-12176484D02*
X5659110Y-12176484D01*
X5840063Y-12176484D02*
X5821015Y-12166960D01*
X5821015Y-12166960D02*
X5811491Y-12147912D01*
X5811491Y-12147912D02*
X5811491Y-11976484D01*
X5992444Y-12166960D02*
X5973396Y-12176484D01*
X5973396Y-12176484D02*
X5935301Y-12176484D01*
X5935301Y-12176484D02*
X5916253Y-12166960D01*
X5916253Y-12166960D02*
X5906730Y-12147912D01*
X5906730Y-12147912D02*
X5906730Y-12071722D01*
X5906730Y-12071722D02*
X5916253Y-12052674D01*
X5916253Y-12052674D02*
X5935301Y-12043150D01*
X5935301Y-12043150D02*
X5973396Y-12043150D01*
X5973396Y-12043150D02*
X5992444Y-12052674D01*
X5992444Y-12052674D02*
X6001968Y-12071722D01*
X6001968Y-12071722D02*
X6001968Y-12090769D01*
X6001968Y-12090769D02*
X5906730Y-12109817D01*
X6078158Y-12166960D02*
X6097206Y-12176484D01*
X6097206Y-12176484D02*
X6135301Y-12176484D01*
X6135301Y-12176484D02*
X6154349Y-12166960D01*
X6154349Y-12166960D02*
X6163872Y-12147912D01*
X6163872Y-12147912D02*
X6163872Y-12138388D01*
X6163872Y-12138388D02*
X6154349Y-12119341D01*
X6154349Y-12119341D02*
X6135301Y-12109817D01*
X6135301Y-12109817D02*
X6106730Y-12109817D01*
X6106730Y-12109817D02*
X6087682Y-12100293D01*
X6087682Y-12100293D02*
X6078158Y-12081246D01*
X6078158Y-12081246D02*
X6078158Y-12071722D01*
X6078158Y-12071722D02*
X6087682Y-12052674D01*
X6087682Y-12052674D02*
X6106730Y-12043150D01*
X6106730Y-12043150D02*
X6135301Y-12043150D01*
X6135301Y-12043150D02*
X6154349Y-12052674D01*
X6230539Y-12252674D02*
X6240063Y-12243150D01*
X6240063Y-12243150D02*
X6259111Y-12214579D01*
X6259111Y-12214579D02*
X6268634Y-12195531D01*
X6268634Y-12195531D02*
X6278158Y-12166960D01*
X6278158Y-12166960D02*
X6287682Y-12119341D01*
X6287682Y-12119341D02*
X6287682Y-12081246D01*
X6287682Y-12081246D02*
X6278158Y-12033627D01*
X6278158Y-12033627D02*
X6268634Y-12005055D01*
X6268634Y-12005055D02*
X6259111Y-11986008D01*
X6259111Y-11986008D02*
X6240063Y-11957436D01*
X6240063Y-11957436D02*
X6230539Y-11947912D01*
D10*
X1217500Y-12301500D02*
X1217500Y-12396500D01*
X1170000Y-12349000D02*
X1265000Y-12349000D01*
D11*
X1563872Y-12240484D02*
X1582920Y-12240484D01*
X1582920Y-12240484D02*
X1601967Y-12250008D01*
X1601967Y-12250008D02*
X1611491Y-12259531D01*
X1611491Y-12259531D02*
X1621015Y-12278579D01*
X1621015Y-12278579D02*
X1630539Y-12316674D01*
X1630539Y-12316674D02*
X1630539Y-12364293D01*
X1630539Y-12364293D02*
X1621015Y-12402388D01*
X1621015Y-12402388D02*
X1611491Y-12421436D01*
X1611491Y-12421436D02*
X1601967Y-12430960D01*
X1601967Y-12430960D02*
X1582920Y-12440484D01*
X1582920Y-12440484D02*
X1563872Y-12440484D01*
X1563872Y-12440484D02*
X1544824Y-12430960D01*
X1544824Y-12430960D02*
X1535301Y-12421436D01*
X1535301Y-12421436D02*
X1525777Y-12402388D01*
X1525777Y-12402388D02*
X1516253Y-12364293D01*
X1516253Y-12364293D02*
X1516253Y-12316674D01*
X1516253Y-12316674D02*
X1525777Y-12278579D01*
X1525777Y-12278579D02*
X1535301Y-12259531D01*
X1535301Y-12259531D02*
X1544824Y-12250008D01*
X1544824Y-12250008D02*
X1563872Y-12240484D01*
X1716253Y-12421436D02*
X1725777Y-12430960D01*
X1725777Y-12430960D02*
X1716253Y-12440484D01*
X1716253Y-12440484D02*
X1706729Y-12430960D01*
X1706729Y-12430960D02*
X1716253Y-12421436D01*
X1716253Y-12421436D02*
X1716253Y-12440484D01*
X1821015Y-12440484D02*
X1859110Y-12440484D01*
X1859110Y-12440484D02*
X1878158Y-12430960D01*
X1878158Y-12430960D02*
X1887682Y-12421436D01*
X1887682Y-12421436D02*
X1906729Y-12392865D01*
X1906729Y-12392865D02*
X1916253Y-12354769D01*
X1916253Y-12354769D02*
X1916253Y-12278579D01*
X1916253Y-12278579D02*
X1906729Y-12259531D01*
X1906729Y-12259531D02*
X1897205Y-12250008D01*
X1897205Y-12250008D02*
X1878158Y-12240484D01*
X1878158Y-12240484D02*
X1840062Y-12240484D01*
X1840062Y-12240484D02*
X1821015Y-12250008D01*
X1821015Y-12250008D02*
X1811491Y-12259531D01*
X1811491Y-12259531D02*
X1801967Y-12278579D01*
X1801967Y-12278579D02*
X1801967Y-12326198D01*
X1801967Y-12326198D02*
X1811491Y-12345246D01*
X1811491Y-12345246D02*
X1821015Y-12354769D01*
X1821015Y-12354769D02*
X1840062Y-12364293D01*
X1840062Y-12364293D02*
X1878158Y-12364293D01*
X1878158Y-12364293D02*
X1897205Y-12354769D01*
X1897205Y-12354769D02*
X1906729Y-12345246D01*
X1906729Y-12345246D02*
X1916253Y-12326198D01*
X2097205Y-12240484D02*
X2001967Y-12240484D01*
X2001967Y-12240484D02*
X1992443Y-12335722D01*
X1992443Y-12335722D02*
X2001967Y-12326198D01*
X2001967Y-12326198D02*
X2021015Y-12316674D01*
X2021015Y-12316674D02*
X2068634Y-12316674D01*
X2068634Y-12316674D02*
X2087682Y-12326198D01*
X2087682Y-12326198D02*
X2097205Y-12335722D01*
X2097205Y-12335722D02*
X2106729Y-12354769D01*
X2106729Y-12354769D02*
X2106729Y-12402388D01*
X2106729Y-12402388D02*
X2097205Y-12421436D01*
X2097205Y-12421436D02*
X2087682Y-12430960D01*
X2087682Y-12430960D02*
X2068634Y-12440484D01*
X2068634Y-12440484D02*
X2021015Y-12440484D01*
X2021015Y-12440484D02*
X2001967Y-12430960D01*
X2001967Y-12430960D02*
X1992443Y-12421436D01*
X2230539Y-12240484D02*
X2249586Y-12240484D01*
X2249586Y-12240484D02*
X2268634Y-12250008D01*
X2268634Y-12250008D02*
X2278158Y-12259531D01*
X2278158Y-12259531D02*
X2287682Y-12278579D01*
X2287682Y-12278579D02*
X2297205Y-12316674D01*
X2297205Y-12316674D02*
X2297205Y-12364293D01*
X2297205Y-12364293D02*
X2287682Y-12402388D01*
X2287682Y-12402388D02*
X2278158Y-12421436D01*
X2278158Y-12421436D02*
X2268634Y-12430960D01*
X2268634Y-12430960D02*
X2249586Y-12440484D01*
X2249586Y-12440484D02*
X2230539Y-12440484D01*
X2230539Y-12440484D02*
X2211491Y-12430960D01*
X2211491Y-12430960D02*
X2201967Y-12421436D01*
X2201967Y-12421436D02*
X2192444Y-12402388D01*
X2192444Y-12402388D02*
X2182920Y-12364293D01*
X2182920Y-12364293D02*
X2182920Y-12316674D01*
X2182920Y-12316674D02*
X2192444Y-12278579D01*
X2192444Y-12278579D02*
X2201967Y-12259531D01*
X2201967Y-12259531D02*
X2211491Y-12250008D01*
X2211491Y-12250008D02*
X2230539Y-12240484D01*
X2382920Y-12440484D02*
X2382920Y-12307150D01*
X2382920Y-12326198D02*
X2392444Y-12316674D01*
X2392444Y-12316674D02*
X2411491Y-12307150D01*
X2411491Y-12307150D02*
X2440063Y-12307150D01*
X2440063Y-12307150D02*
X2459110Y-12316674D01*
X2459110Y-12316674D02*
X2468634Y-12335722D01*
X2468634Y-12335722D02*
X2468634Y-12440484D01*
X2468634Y-12335722D02*
X2478158Y-12316674D01*
X2478158Y-12316674D02*
X2497205Y-12307150D01*
X2497205Y-12307150D02*
X2525777Y-12307150D01*
X2525777Y-12307150D02*
X2544825Y-12316674D01*
X2544825Y-12316674D02*
X2554348Y-12335722D01*
X2554348Y-12335722D02*
X2554348Y-12440484D01*
X2649586Y-12440484D02*
X2649586Y-12307150D01*
X2649586Y-12326198D02*
X2659110Y-12316674D01*
X2659110Y-12316674D02*
X2678158Y-12307150D01*
X2678158Y-12307150D02*
X2706729Y-12307150D01*
X2706729Y-12307150D02*
X2725777Y-12316674D01*
X2725777Y-12316674D02*
X2735301Y-12335722D01*
X2735301Y-12335722D02*
X2735301Y-12440484D01*
X2735301Y-12335722D02*
X2744825Y-12316674D01*
X2744825Y-12316674D02*
X2763872Y-12307150D01*
X2763872Y-12307150D02*
X2792444Y-12307150D01*
X2792444Y-12307150D02*
X2811491Y-12316674D01*
X2811491Y-12316674D02*
X2821015Y-12335722D01*
X2821015Y-12335722D02*
X2821015Y-12440484D01*
X3211491Y-12230960D02*
X3040063Y-12488103D01*
X3468634Y-12240484D02*
X3487682Y-12240484D01*
X3487682Y-12240484D02*
X3506729Y-12250008D01*
X3506729Y-12250008D02*
X3516253Y-12259531D01*
X3516253Y-12259531D02*
X3525777Y-12278579D01*
X3525777Y-12278579D02*
X3535301Y-12316674D01*
X3535301Y-12316674D02*
X3535301Y-12364293D01*
X3535301Y-12364293D02*
X3525777Y-12402388D01*
X3525777Y-12402388D02*
X3516253Y-12421436D01*
X3516253Y-12421436D02*
X3506729Y-12430960D01*
X3506729Y-12430960D02*
X3487682Y-12440484D01*
X3487682Y-12440484D02*
X3468634Y-12440484D01*
X3468634Y-12440484D02*
X3449586Y-12430960D01*
X3449586Y-12430960D02*
X3440063Y-12421436D01*
X3440063Y-12421436D02*
X3430539Y-12402388D01*
X3430539Y-12402388D02*
X3421015Y-12364293D01*
X3421015Y-12364293D02*
X3421015Y-12316674D01*
X3421015Y-12316674D02*
X3430539Y-12278579D01*
X3430539Y-12278579D02*
X3440063Y-12259531D01*
X3440063Y-12259531D02*
X3449586Y-12250008D01*
X3449586Y-12250008D02*
X3468634Y-12240484D01*
X3621015Y-12421436D02*
X3630539Y-12430960D01*
X3630539Y-12430960D02*
X3621015Y-12440484D01*
X3621015Y-12440484D02*
X3611491Y-12430960D01*
X3611491Y-12430960D02*
X3621015Y-12421436D01*
X3621015Y-12421436D02*
X3621015Y-12440484D01*
X3754348Y-12240484D02*
X3773396Y-12240484D01*
X3773396Y-12240484D02*
X3792444Y-12250008D01*
X3792444Y-12250008D02*
X3801967Y-12259531D01*
X3801967Y-12259531D02*
X3811491Y-12278579D01*
X3811491Y-12278579D02*
X3821015Y-12316674D01*
X3821015Y-12316674D02*
X3821015Y-12364293D01*
X3821015Y-12364293D02*
X3811491Y-12402388D01*
X3811491Y-12402388D02*
X3801967Y-12421436D01*
X3801967Y-12421436D02*
X3792444Y-12430960D01*
X3792444Y-12430960D02*
X3773396Y-12440484D01*
X3773396Y-12440484D02*
X3754348Y-12440484D01*
X3754348Y-12440484D02*
X3735301Y-12430960D01*
X3735301Y-12430960D02*
X3725777Y-12421436D01*
X3725777Y-12421436D02*
X3716253Y-12402388D01*
X3716253Y-12402388D02*
X3706729Y-12364293D01*
X3706729Y-12364293D02*
X3706729Y-12316674D01*
X3706729Y-12316674D02*
X3716253Y-12278579D01*
X3716253Y-12278579D02*
X3725777Y-12259531D01*
X3725777Y-12259531D02*
X3735301Y-12250008D01*
X3735301Y-12250008D02*
X3754348Y-12240484D01*
X3887682Y-12240484D02*
X4011491Y-12240484D01*
X4011491Y-12240484D02*
X3944825Y-12316674D01*
X3944825Y-12316674D02*
X3973396Y-12316674D01*
X3973396Y-12316674D02*
X3992444Y-12326198D01*
X3992444Y-12326198D02*
X4001967Y-12335722D01*
X4001967Y-12335722D02*
X4011491Y-12354769D01*
X4011491Y-12354769D02*
X4011491Y-12402388D01*
X4011491Y-12402388D02*
X4001967Y-12421436D01*
X4001967Y-12421436D02*
X3992444Y-12430960D01*
X3992444Y-12430960D02*
X3973396Y-12440484D01*
X3973396Y-12440484D02*
X3916253Y-12440484D01*
X3916253Y-12440484D02*
X3897206Y-12430960D01*
X3897206Y-12430960D02*
X3887682Y-12421436D01*
X4078158Y-12240484D02*
X4211491Y-12240484D01*
X4211491Y-12240484D02*
X4125777Y-12440484D01*
X4373396Y-12307150D02*
X4373396Y-12440484D01*
X4325777Y-12230960D02*
X4278158Y-12373817D01*
X4278158Y-12373817D02*
X4401968Y-12373817D01*
X4468634Y-12240484D02*
X4468634Y-12278579D01*
X4544825Y-12240484D02*
X4544825Y-12278579D01*
X4840063Y-12516674D02*
X4830539Y-12507150D01*
X4830539Y-12507150D02*
X4811491Y-12478579D01*
X4811491Y-12478579D02*
X4801968Y-12459531D01*
X4801968Y-12459531D02*
X4792444Y-12430960D01*
X4792444Y-12430960D02*
X4782920Y-12383341D01*
X4782920Y-12383341D02*
X4782920Y-12345246D01*
X4782920Y-12345246D02*
X4792444Y-12297627D01*
X4792444Y-12297627D02*
X4801968Y-12269055D01*
X4801968Y-12269055D02*
X4811491Y-12250008D01*
X4811491Y-12250008D02*
X4830539Y-12221436D01*
X4830539Y-12221436D02*
X4840063Y-12211912D01*
X5021015Y-12440484D02*
X4906730Y-12440484D01*
X4963872Y-12440484D02*
X4963872Y-12240484D01*
X4963872Y-12240484D02*
X4944825Y-12269055D01*
X4944825Y-12269055D02*
X4925777Y-12288103D01*
X4925777Y-12288103D02*
X4906730Y-12297627D01*
X5097206Y-12259531D02*
X5106730Y-12250008D01*
X5106730Y-12250008D02*
X5125777Y-12240484D01*
X5125777Y-12240484D02*
X5173396Y-12240484D01*
X5173396Y-12240484D02*
X5192444Y-12250008D01*
X5192444Y-12250008D02*
X5201968Y-12259531D01*
X5201968Y-12259531D02*
X5211491Y-12278579D01*
X5211491Y-12278579D02*
X5211491Y-12297627D01*
X5211491Y-12297627D02*
X5201968Y-12326198D01*
X5201968Y-12326198D02*
X5087682Y-12440484D01*
X5087682Y-12440484D02*
X5211491Y-12440484D01*
X5449587Y-12440484D02*
X5449587Y-12240484D01*
X5535301Y-12440484D02*
X5535301Y-12335722D01*
X5535301Y-12335722D02*
X5525777Y-12316674D01*
X5525777Y-12316674D02*
X5506730Y-12307150D01*
X5506730Y-12307150D02*
X5478158Y-12307150D01*
X5478158Y-12307150D02*
X5459111Y-12316674D01*
X5459111Y-12316674D02*
X5449587Y-12326198D01*
X5659110Y-12440484D02*
X5640063Y-12430960D01*
X5640063Y-12430960D02*
X5630539Y-12421436D01*
X5630539Y-12421436D02*
X5621015Y-12402388D01*
X5621015Y-12402388D02*
X5621015Y-12345246D01*
X5621015Y-12345246D02*
X5630539Y-12326198D01*
X5630539Y-12326198D02*
X5640063Y-12316674D01*
X5640063Y-12316674D02*
X5659110Y-12307150D01*
X5659110Y-12307150D02*
X5687682Y-12307150D01*
X5687682Y-12307150D02*
X5706730Y-12316674D01*
X5706730Y-12316674D02*
X5716253Y-12326198D01*
X5716253Y-12326198D02*
X5725777Y-12345246D01*
X5725777Y-12345246D02*
X5725777Y-12402388D01*
X5725777Y-12402388D02*
X5716253Y-12421436D01*
X5716253Y-12421436D02*
X5706730Y-12430960D01*
X5706730Y-12430960D02*
X5687682Y-12440484D01*
X5687682Y-12440484D02*
X5659110Y-12440484D01*
X5840063Y-12440484D02*
X5821015Y-12430960D01*
X5821015Y-12430960D02*
X5811491Y-12411912D01*
X5811491Y-12411912D02*
X5811491Y-12240484D01*
X5992444Y-12430960D02*
X5973396Y-12440484D01*
X5973396Y-12440484D02*
X5935301Y-12440484D01*
X5935301Y-12440484D02*
X5916253Y-12430960D01*
X5916253Y-12430960D02*
X5906730Y-12411912D01*
X5906730Y-12411912D02*
X5906730Y-12335722D01*
X5906730Y-12335722D02*
X5916253Y-12316674D01*
X5916253Y-12316674D02*
X5935301Y-12307150D01*
X5935301Y-12307150D02*
X5973396Y-12307150D01*
X5973396Y-12307150D02*
X5992444Y-12316674D01*
X5992444Y-12316674D02*
X6001968Y-12335722D01*
X6001968Y-12335722D02*
X6001968Y-12354769D01*
X6001968Y-12354769D02*
X5906730Y-12373817D01*
X6078158Y-12430960D02*
X6097206Y-12440484D01*
X6097206Y-12440484D02*
X6135301Y-12440484D01*
X6135301Y-12440484D02*
X6154349Y-12430960D01*
X6154349Y-12430960D02*
X6163872Y-12411912D01*
X6163872Y-12411912D02*
X6163872Y-12402388D01*
X6163872Y-12402388D02*
X6154349Y-12383341D01*
X6154349Y-12383341D02*
X6135301Y-12373817D01*
X6135301Y-12373817D02*
X6106730Y-12373817D01*
X6106730Y-12373817D02*
X6087682Y-12364293D01*
X6087682Y-12364293D02*
X6078158Y-12345246D01*
X6078158Y-12345246D02*
X6078158Y-12335722D01*
X6078158Y-12335722D02*
X6087682Y-12316674D01*
X6087682Y-12316674D02*
X6106730Y-12307150D01*
X6106730Y-12307150D02*
X6135301Y-12307150D01*
X6135301Y-12307150D02*
X6154349Y-12316674D01*
X6230539Y-12516674D02*
X6240063Y-12507150D01*
X6240063Y-12507150D02*
X6259111Y-12478579D01*
X6259111Y-12478579D02*
X6268634Y-12459531D01*
X6268634Y-12459531D02*
X6278158Y-12430960D01*
X6278158Y-12430960D02*
X6287682Y-12383341D01*
X6287682Y-12383341D02*
X6287682Y-12345246D01*
X6287682Y-12345246D02*
X6278158Y-12297627D01*
X6278158Y-12297627D02*
X6268634Y-12269055D01*
X6268634Y-12269055D02*
X6259111Y-12250008D01*
X6259111Y-12250008D02*
X6240063Y-12221436D01*
X6240063Y-12221436D02*
X6230539Y-12211912D01*
D10*
X1250356Y-12648356D02*
X1250356Y-12577644D01*
X1179644Y-12577644D01*
X1179644Y-12648356D01*
X1250356Y-12648356D01*
D11*
X1630539Y-12704484D02*
X1516253Y-12704484D01*
X1573396Y-12704484D02*
X1573396Y-12504484D01*
X1573396Y-12504484D02*
X1554348Y-12533055D01*
X1554348Y-12533055D02*
X1535301Y-12552103D01*
X1535301Y-12552103D02*
X1516253Y-12561627D01*
X1716253Y-12685436D02*
X1725777Y-12694960D01*
X1725777Y-12694960D02*
X1716253Y-12704484D01*
X1716253Y-12704484D02*
X1706729Y-12694960D01*
X1706729Y-12694960D02*
X1716253Y-12685436D01*
X1716253Y-12685436D02*
X1716253Y-12704484D01*
X1849586Y-12504484D02*
X1868634Y-12504484D01*
X1868634Y-12504484D02*
X1887682Y-12514008D01*
X1887682Y-12514008D02*
X1897205Y-12523531D01*
X1897205Y-12523531D02*
X1906729Y-12542579D01*
X1906729Y-12542579D02*
X1916253Y-12580674D01*
X1916253Y-12580674D02*
X1916253Y-12628293D01*
X1916253Y-12628293D02*
X1906729Y-12666388D01*
X1906729Y-12666388D02*
X1897205Y-12685436D01*
X1897205Y-12685436D02*
X1887682Y-12694960D01*
X1887682Y-12694960D02*
X1868634Y-12704484D01*
X1868634Y-12704484D02*
X1849586Y-12704484D01*
X1849586Y-12704484D02*
X1830539Y-12694960D01*
X1830539Y-12694960D02*
X1821015Y-12685436D01*
X1821015Y-12685436D02*
X1811491Y-12666388D01*
X1811491Y-12666388D02*
X1801967Y-12628293D01*
X1801967Y-12628293D02*
X1801967Y-12580674D01*
X1801967Y-12580674D02*
X1811491Y-12542579D01*
X1811491Y-12542579D02*
X1821015Y-12523531D01*
X1821015Y-12523531D02*
X1830539Y-12514008D01*
X1830539Y-12514008D02*
X1849586Y-12504484D01*
X2040062Y-12504484D02*
X2059110Y-12504484D01*
X2059110Y-12504484D02*
X2078158Y-12514008D01*
X2078158Y-12514008D02*
X2087682Y-12523531D01*
X2087682Y-12523531D02*
X2097205Y-12542579D01*
X2097205Y-12542579D02*
X2106729Y-12580674D01*
X2106729Y-12580674D02*
X2106729Y-12628293D01*
X2106729Y-12628293D02*
X2097205Y-12666388D01*
X2097205Y-12666388D02*
X2087682Y-12685436D01*
X2087682Y-12685436D02*
X2078158Y-12694960D01*
X2078158Y-12694960D02*
X2059110Y-12704484D01*
X2059110Y-12704484D02*
X2040062Y-12704484D01*
X2040062Y-12704484D02*
X2021015Y-12694960D01*
X2021015Y-12694960D02*
X2011491Y-12685436D01*
X2011491Y-12685436D02*
X2001967Y-12666388D01*
X2001967Y-12666388D02*
X1992443Y-12628293D01*
X1992443Y-12628293D02*
X1992443Y-12580674D01*
X1992443Y-12580674D02*
X2001967Y-12542579D01*
X2001967Y-12542579D02*
X2011491Y-12523531D01*
X2011491Y-12523531D02*
X2021015Y-12514008D01*
X2021015Y-12514008D02*
X2040062Y-12504484D01*
X2230539Y-12504484D02*
X2249586Y-12504484D01*
X2249586Y-12504484D02*
X2268634Y-12514008D01*
X2268634Y-12514008D02*
X2278158Y-12523531D01*
X2278158Y-12523531D02*
X2287682Y-12542579D01*
X2287682Y-12542579D02*
X2297205Y-12580674D01*
X2297205Y-12580674D02*
X2297205Y-12628293D01*
X2297205Y-12628293D02*
X2287682Y-12666388D01*
X2287682Y-12666388D02*
X2278158Y-12685436D01*
X2278158Y-12685436D02*
X2268634Y-12694960D01*
X2268634Y-12694960D02*
X2249586Y-12704484D01*
X2249586Y-12704484D02*
X2230539Y-12704484D01*
X2230539Y-12704484D02*
X2211491Y-12694960D01*
X2211491Y-12694960D02*
X2201967Y-12685436D01*
X2201967Y-12685436D02*
X2192444Y-12666388D01*
X2192444Y-12666388D02*
X2182920Y-12628293D01*
X2182920Y-12628293D02*
X2182920Y-12580674D01*
X2182920Y-12580674D02*
X2192444Y-12542579D01*
X2192444Y-12542579D02*
X2201967Y-12523531D01*
X2201967Y-12523531D02*
X2211491Y-12514008D01*
X2211491Y-12514008D02*
X2230539Y-12504484D01*
X2382920Y-12704484D02*
X2382920Y-12571150D01*
X2382920Y-12590198D02*
X2392444Y-12580674D01*
X2392444Y-12580674D02*
X2411491Y-12571150D01*
X2411491Y-12571150D02*
X2440063Y-12571150D01*
X2440063Y-12571150D02*
X2459110Y-12580674D01*
X2459110Y-12580674D02*
X2468634Y-12599722D01*
X2468634Y-12599722D02*
X2468634Y-12704484D01*
X2468634Y-12599722D02*
X2478158Y-12580674D01*
X2478158Y-12580674D02*
X2497205Y-12571150D01*
X2497205Y-12571150D02*
X2525777Y-12571150D01*
X2525777Y-12571150D02*
X2544825Y-12580674D01*
X2544825Y-12580674D02*
X2554348Y-12599722D01*
X2554348Y-12599722D02*
X2554348Y-12704484D01*
X2649586Y-12704484D02*
X2649586Y-12571150D01*
X2649586Y-12590198D02*
X2659110Y-12580674D01*
X2659110Y-12580674D02*
X2678158Y-12571150D01*
X2678158Y-12571150D02*
X2706729Y-12571150D01*
X2706729Y-12571150D02*
X2725777Y-12580674D01*
X2725777Y-12580674D02*
X2735301Y-12599722D01*
X2735301Y-12599722D02*
X2735301Y-12704484D01*
X2735301Y-12599722D02*
X2744825Y-12580674D01*
X2744825Y-12580674D02*
X2763872Y-12571150D01*
X2763872Y-12571150D02*
X2792444Y-12571150D01*
X2792444Y-12571150D02*
X2811491Y-12580674D01*
X2811491Y-12580674D02*
X2821015Y-12599722D01*
X2821015Y-12599722D02*
X2821015Y-12704484D01*
X3211491Y-12494960D02*
X3040063Y-12752103D01*
X3468634Y-12504484D02*
X3487682Y-12504484D01*
X3487682Y-12504484D02*
X3506729Y-12514008D01*
X3506729Y-12514008D02*
X3516253Y-12523531D01*
X3516253Y-12523531D02*
X3525777Y-12542579D01*
X3525777Y-12542579D02*
X3535301Y-12580674D01*
X3535301Y-12580674D02*
X3535301Y-12628293D01*
X3535301Y-12628293D02*
X3525777Y-12666388D01*
X3525777Y-12666388D02*
X3516253Y-12685436D01*
X3516253Y-12685436D02*
X3506729Y-12694960D01*
X3506729Y-12694960D02*
X3487682Y-12704484D01*
X3487682Y-12704484D02*
X3468634Y-12704484D01*
X3468634Y-12704484D02*
X3449586Y-12694960D01*
X3449586Y-12694960D02*
X3440063Y-12685436D01*
X3440063Y-12685436D02*
X3430539Y-12666388D01*
X3430539Y-12666388D02*
X3421015Y-12628293D01*
X3421015Y-12628293D02*
X3421015Y-12580674D01*
X3421015Y-12580674D02*
X3430539Y-12542579D01*
X3430539Y-12542579D02*
X3440063Y-12523531D01*
X3440063Y-12523531D02*
X3449586Y-12514008D01*
X3449586Y-12514008D02*
X3468634Y-12504484D01*
X3621015Y-12685436D02*
X3630539Y-12694960D01*
X3630539Y-12694960D02*
X3621015Y-12704484D01*
X3621015Y-12704484D02*
X3611491Y-12694960D01*
X3611491Y-12694960D02*
X3621015Y-12685436D01*
X3621015Y-12685436D02*
X3621015Y-12704484D01*
X3754348Y-12504484D02*
X3773396Y-12504484D01*
X3773396Y-12504484D02*
X3792444Y-12514008D01*
X3792444Y-12514008D02*
X3801967Y-12523531D01*
X3801967Y-12523531D02*
X3811491Y-12542579D01*
X3811491Y-12542579D02*
X3821015Y-12580674D01*
X3821015Y-12580674D02*
X3821015Y-12628293D01*
X3821015Y-12628293D02*
X3811491Y-12666388D01*
X3811491Y-12666388D02*
X3801967Y-12685436D01*
X3801967Y-12685436D02*
X3792444Y-12694960D01*
X3792444Y-12694960D02*
X3773396Y-12704484D01*
X3773396Y-12704484D02*
X3754348Y-12704484D01*
X3754348Y-12704484D02*
X3735301Y-12694960D01*
X3735301Y-12694960D02*
X3725777Y-12685436D01*
X3725777Y-12685436D02*
X3716253Y-12666388D01*
X3716253Y-12666388D02*
X3706729Y-12628293D01*
X3706729Y-12628293D02*
X3706729Y-12580674D01*
X3706729Y-12580674D02*
X3716253Y-12542579D01*
X3716253Y-12542579D02*
X3725777Y-12523531D01*
X3725777Y-12523531D02*
X3735301Y-12514008D01*
X3735301Y-12514008D02*
X3754348Y-12504484D01*
X3887682Y-12504484D02*
X4011491Y-12504484D01*
X4011491Y-12504484D02*
X3944825Y-12580674D01*
X3944825Y-12580674D02*
X3973396Y-12580674D01*
X3973396Y-12580674D02*
X3992444Y-12590198D01*
X3992444Y-12590198D02*
X4001967Y-12599722D01*
X4001967Y-12599722D02*
X4011491Y-12618769D01*
X4011491Y-12618769D02*
X4011491Y-12666388D01*
X4011491Y-12666388D02*
X4001967Y-12685436D01*
X4001967Y-12685436D02*
X3992444Y-12694960D01*
X3992444Y-12694960D02*
X3973396Y-12704484D01*
X3973396Y-12704484D02*
X3916253Y-12704484D01*
X3916253Y-12704484D02*
X3897206Y-12694960D01*
X3897206Y-12694960D02*
X3887682Y-12685436D01*
X4106729Y-12704484D02*
X4144825Y-12704484D01*
X4144825Y-12704484D02*
X4163872Y-12694960D01*
X4163872Y-12694960D02*
X4173396Y-12685436D01*
X4173396Y-12685436D02*
X4192444Y-12656865D01*
X4192444Y-12656865D02*
X4201968Y-12618769D01*
X4201968Y-12618769D02*
X4201968Y-12542579D01*
X4201968Y-12542579D02*
X4192444Y-12523531D01*
X4192444Y-12523531D02*
X4182920Y-12514008D01*
X4182920Y-12514008D02*
X4163872Y-12504484D01*
X4163872Y-12504484D02*
X4125777Y-12504484D01*
X4125777Y-12504484D02*
X4106729Y-12514008D01*
X4106729Y-12514008D02*
X4097206Y-12523531D01*
X4097206Y-12523531D02*
X4087682Y-12542579D01*
X4087682Y-12542579D02*
X4087682Y-12590198D01*
X4087682Y-12590198D02*
X4097206Y-12609246D01*
X4097206Y-12609246D02*
X4106729Y-12618769D01*
X4106729Y-12618769D02*
X4125777Y-12628293D01*
X4125777Y-12628293D02*
X4163872Y-12628293D01*
X4163872Y-12628293D02*
X4182920Y-12618769D01*
X4182920Y-12618769D02*
X4192444Y-12609246D01*
X4192444Y-12609246D02*
X4201968Y-12590198D01*
X4373396Y-12571150D02*
X4373396Y-12704484D01*
X4325777Y-12494960D02*
X4278158Y-12637817D01*
X4278158Y-12637817D02*
X4401968Y-12637817D01*
X4468634Y-12504484D02*
X4468634Y-12542579D01*
X4544825Y-12504484D02*
X4544825Y-12542579D01*
X4840063Y-12780674D02*
X4830539Y-12771150D01*
X4830539Y-12771150D02*
X4811491Y-12742579D01*
X4811491Y-12742579D02*
X4801968Y-12723531D01*
X4801968Y-12723531D02*
X4792444Y-12694960D01*
X4792444Y-12694960D02*
X4782920Y-12647341D01*
X4782920Y-12647341D02*
X4782920Y-12609246D01*
X4782920Y-12609246D02*
X4792444Y-12561627D01*
X4792444Y-12561627D02*
X4801968Y-12533055D01*
X4801968Y-12533055D02*
X4811491Y-12514008D01*
X4811491Y-12514008D02*
X4830539Y-12485436D01*
X4830539Y-12485436D02*
X4840063Y-12475912D01*
X4906730Y-12523531D02*
X4916253Y-12514008D01*
X4916253Y-12514008D02*
X4935301Y-12504484D01*
X4935301Y-12504484D02*
X4982920Y-12504484D01*
X4982920Y-12504484D02*
X5001968Y-12514008D01*
X5001968Y-12514008D02*
X5011491Y-12523531D01*
X5011491Y-12523531D02*
X5021015Y-12542579D01*
X5021015Y-12542579D02*
X5021015Y-12561627D01*
X5021015Y-12561627D02*
X5011491Y-12590198D01*
X5011491Y-12590198D02*
X4897206Y-12704484D01*
X4897206Y-12704484D02*
X5021015Y-12704484D01*
X5259111Y-12704484D02*
X5259111Y-12504484D01*
X5344825Y-12704484D02*
X5344825Y-12599722D01*
X5344825Y-12599722D02*
X5335301Y-12580674D01*
X5335301Y-12580674D02*
X5316253Y-12571150D01*
X5316253Y-12571150D02*
X5287682Y-12571150D01*
X5287682Y-12571150D02*
X5268634Y-12580674D01*
X5268634Y-12580674D02*
X5259111Y-12590198D01*
X5468634Y-12704484D02*
X5449587Y-12694960D01*
X5449587Y-12694960D02*
X5440063Y-12685436D01*
X5440063Y-12685436D02*
X5430539Y-12666388D01*
X5430539Y-12666388D02*
X5430539Y-12609246D01*
X5430539Y-12609246D02*
X5440063Y-12590198D01*
X5440063Y-12590198D02*
X5449587Y-12580674D01*
X5449587Y-12580674D02*
X5468634Y-12571150D01*
X5468634Y-12571150D02*
X5497206Y-12571150D01*
X5497206Y-12571150D02*
X5516253Y-12580674D01*
X5516253Y-12580674D02*
X5525777Y-12590198D01*
X5525777Y-12590198D02*
X5535301Y-12609246D01*
X5535301Y-12609246D02*
X5535301Y-12666388D01*
X5535301Y-12666388D02*
X5525777Y-12685436D01*
X5525777Y-12685436D02*
X5516253Y-12694960D01*
X5516253Y-12694960D02*
X5497206Y-12704484D01*
X5497206Y-12704484D02*
X5468634Y-12704484D01*
X5649587Y-12704484D02*
X5630539Y-12694960D01*
X5630539Y-12694960D02*
X5621015Y-12675912D01*
X5621015Y-12675912D02*
X5621015Y-12504484D01*
X5801968Y-12694960D02*
X5782920Y-12704484D01*
X5782920Y-12704484D02*
X5744825Y-12704484D01*
X5744825Y-12704484D02*
X5725777Y-12694960D01*
X5725777Y-12694960D02*
X5716253Y-12675912D01*
X5716253Y-12675912D02*
X5716253Y-12599722D01*
X5716253Y-12599722D02*
X5725777Y-12580674D01*
X5725777Y-12580674D02*
X5744825Y-12571150D01*
X5744825Y-12571150D02*
X5782920Y-12571150D01*
X5782920Y-12571150D02*
X5801968Y-12580674D01*
X5801968Y-12580674D02*
X5811491Y-12599722D01*
X5811491Y-12599722D02*
X5811491Y-12618769D01*
X5811491Y-12618769D02*
X5716253Y-12637817D01*
X5887682Y-12694960D02*
X5906730Y-12704484D01*
X5906730Y-12704484D02*
X5944825Y-12704484D01*
X5944825Y-12704484D02*
X5963872Y-12694960D01*
X5963872Y-12694960D02*
X5973396Y-12675912D01*
X5973396Y-12675912D02*
X5973396Y-12666388D01*
X5973396Y-12666388D02*
X5963872Y-12647341D01*
X5963872Y-12647341D02*
X5944825Y-12637817D01*
X5944825Y-12637817D02*
X5916253Y-12637817D01*
X5916253Y-12637817D02*
X5897206Y-12628293D01*
X5897206Y-12628293D02*
X5887682Y-12609246D01*
X5887682Y-12609246D02*
X5887682Y-12599722D01*
X5887682Y-12599722D02*
X5897206Y-12580674D01*
X5897206Y-12580674D02*
X5916253Y-12571150D01*
X5916253Y-12571150D02*
X5944825Y-12571150D01*
X5944825Y-12571150D02*
X5963872Y-12580674D01*
X6040063Y-12780674D02*
X6049587Y-12771150D01*
X6049587Y-12771150D02*
X6068634Y-12742579D01*
X6068634Y-12742579D02*
X6078158Y-12723531D01*
X6078158Y-12723531D02*
X6087682Y-12694960D01*
X6087682Y-12694960D02*
X6097206Y-12647341D01*
X6097206Y-12647341D02*
X6097206Y-12609246D01*
X6097206Y-12609246D02*
X6087682Y-12561627D01*
X6087682Y-12561627D02*
X6078158Y-12533055D01*
X6078158Y-12533055D02*
X6068634Y-12514008D01*
X6068634Y-12514008D02*
X6049587Y-12485436D01*
X6049587Y-12485436D02*
X6040063Y-12475912D01*
D10*
X1215000Y-12927000D02*
X1265000Y-12877000D01*
X1215000Y-12827000D01*
X1165000Y-12877000D01*
X1215000Y-12927000D01*
D11*
X1630539Y-12968484D02*
X1516253Y-12968484D01*
X1573396Y-12968484D02*
X1573396Y-12768484D01*
X1573396Y-12768484D02*
X1554348Y-12797055D01*
X1554348Y-12797055D02*
X1535301Y-12816103D01*
X1535301Y-12816103D02*
X1516253Y-12825627D01*
X1716253Y-12949436D02*
X1725777Y-12958960D01*
X1725777Y-12958960D02*
X1716253Y-12968484D01*
X1716253Y-12968484D02*
X1706729Y-12958960D01*
X1706729Y-12958960D02*
X1716253Y-12949436D01*
X1716253Y-12949436D02*
X1716253Y-12968484D01*
X1849586Y-12768484D02*
X1868634Y-12768484D01*
X1868634Y-12768484D02*
X1887682Y-12778008D01*
X1887682Y-12778008D02*
X1897205Y-12787531D01*
X1897205Y-12787531D02*
X1906729Y-12806579D01*
X1906729Y-12806579D02*
X1916253Y-12844674D01*
X1916253Y-12844674D02*
X1916253Y-12892293D01*
X1916253Y-12892293D02*
X1906729Y-12930388D01*
X1906729Y-12930388D02*
X1897205Y-12949436D01*
X1897205Y-12949436D02*
X1887682Y-12958960D01*
X1887682Y-12958960D02*
X1868634Y-12968484D01*
X1868634Y-12968484D02*
X1849586Y-12968484D01*
X1849586Y-12968484D02*
X1830539Y-12958960D01*
X1830539Y-12958960D02*
X1821015Y-12949436D01*
X1821015Y-12949436D02*
X1811491Y-12930388D01*
X1811491Y-12930388D02*
X1801967Y-12892293D01*
X1801967Y-12892293D02*
X1801967Y-12844674D01*
X1801967Y-12844674D02*
X1811491Y-12806579D01*
X1811491Y-12806579D02*
X1821015Y-12787531D01*
X1821015Y-12787531D02*
X1830539Y-12778008D01*
X1830539Y-12778008D02*
X1849586Y-12768484D01*
X2040062Y-12768484D02*
X2059110Y-12768484D01*
X2059110Y-12768484D02*
X2078158Y-12778008D01*
X2078158Y-12778008D02*
X2087682Y-12787531D01*
X2087682Y-12787531D02*
X2097205Y-12806579D01*
X2097205Y-12806579D02*
X2106729Y-12844674D01*
X2106729Y-12844674D02*
X2106729Y-12892293D01*
X2106729Y-12892293D02*
X2097205Y-12930388D01*
X2097205Y-12930388D02*
X2087682Y-12949436D01*
X2087682Y-12949436D02*
X2078158Y-12958960D01*
X2078158Y-12958960D02*
X2059110Y-12968484D01*
X2059110Y-12968484D02*
X2040062Y-12968484D01*
X2040062Y-12968484D02*
X2021015Y-12958960D01*
X2021015Y-12958960D02*
X2011491Y-12949436D01*
X2011491Y-12949436D02*
X2001967Y-12930388D01*
X2001967Y-12930388D02*
X1992443Y-12892293D01*
X1992443Y-12892293D02*
X1992443Y-12844674D01*
X1992443Y-12844674D02*
X2001967Y-12806579D01*
X2001967Y-12806579D02*
X2011491Y-12787531D01*
X2011491Y-12787531D02*
X2021015Y-12778008D01*
X2021015Y-12778008D02*
X2040062Y-12768484D01*
X2230539Y-12768484D02*
X2249586Y-12768484D01*
X2249586Y-12768484D02*
X2268634Y-12778008D01*
X2268634Y-12778008D02*
X2278158Y-12787531D01*
X2278158Y-12787531D02*
X2287682Y-12806579D01*
X2287682Y-12806579D02*
X2297205Y-12844674D01*
X2297205Y-12844674D02*
X2297205Y-12892293D01*
X2297205Y-12892293D02*
X2287682Y-12930388D01*
X2287682Y-12930388D02*
X2278158Y-12949436D01*
X2278158Y-12949436D02*
X2268634Y-12958960D01*
X2268634Y-12958960D02*
X2249586Y-12968484D01*
X2249586Y-12968484D02*
X2230539Y-12968484D01*
X2230539Y-12968484D02*
X2211491Y-12958960D01*
X2211491Y-12958960D02*
X2201967Y-12949436D01*
X2201967Y-12949436D02*
X2192444Y-12930388D01*
X2192444Y-12930388D02*
X2182920Y-12892293D01*
X2182920Y-12892293D02*
X2182920Y-12844674D01*
X2182920Y-12844674D02*
X2192444Y-12806579D01*
X2192444Y-12806579D02*
X2201967Y-12787531D01*
X2201967Y-12787531D02*
X2211491Y-12778008D01*
X2211491Y-12778008D02*
X2230539Y-12768484D01*
X2382920Y-12968484D02*
X2382920Y-12835150D01*
X2382920Y-12854198D02*
X2392444Y-12844674D01*
X2392444Y-12844674D02*
X2411491Y-12835150D01*
X2411491Y-12835150D02*
X2440063Y-12835150D01*
X2440063Y-12835150D02*
X2459110Y-12844674D01*
X2459110Y-12844674D02*
X2468634Y-12863722D01*
X2468634Y-12863722D02*
X2468634Y-12968484D01*
X2468634Y-12863722D02*
X2478158Y-12844674D01*
X2478158Y-12844674D02*
X2497205Y-12835150D01*
X2497205Y-12835150D02*
X2525777Y-12835150D01*
X2525777Y-12835150D02*
X2544825Y-12844674D01*
X2544825Y-12844674D02*
X2554348Y-12863722D01*
X2554348Y-12863722D02*
X2554348Y-12968484D01*
X2649586Y-12968484D02*
X2649586Y-12835150D01*
X2649586Y-12854198D02*
X2659110Y-12844674D01*
X2659110Y-12844674D02*
X2678158Y-12835150D01*
X2678158Y-12835150D02*
X2706729Y-12835150D01*
X2706729Y-12835150D02*
X2725777Y-12844674D01*
X2725777Y-12844674D02*
X2735301Y-12863722D01*
X2735301Y-12863722D02*
X2735301Y-12968484D01*
X2735301Y-12863722D02*
X2744825Y-12844674D01*
X2744825Y-12844674D02*
X2763872Y-12835150D01*
X2763872Y-12835150D02*
X2792444Y-12835150D01*
X2792444Y-12835150D02*
X2811491Y-12844674D01*
X2811491Y-12844674D02*
X2821015Y-12863722D01*
X2821015Y-12863722D02*
X2821015Y-12968484D01*
X3211491Y-12758960D02*
X3040063Y-13016103D01*
X3468634Y-12768484D02*
X3487682Y-12768484D01*
X3487682Y-12768484D02*
X3506729Y-12778008D01*
X3506729Y-12778008D02*
X3516253Y-12787531D01*
X3516253Y-12787531D02*
X3525777Y-12806579D01*
X3525777Y-12806579D02*
X3535301Y-12844674D01*
X3535301Y-12844674D02*
X3535301Y-12892293D01*
X3535301Y-12892293D02*
X3525777Y-12930388D01*
X3525777Y-12930388D02*
X3516253Y-12949436D01*
X3516253Y-12949436D02*
X3506729Y-12958960D01*
X3506729Y-12958960D02*
X3487682Y-12968484D01*
X3487682Y-12968484D02*
X3468634Y-12968484D01*
X3468634Y-12968484D02*
X3449586Y-12958960D01*
X3449586Y-12958960D02*
X3440063Y-12949436D01*
X3440063Y-12949436D02*
X3430539Y-12930388D01*
X3430539Y-12930388D02*
X3421015Y-12892293D01*
X3421015Y-12892293D02*
X3421015Y-12844674D01*
X3421015Y-12844674D02*
X3430539Y-12806579D01*
X3430539Y-12806579D02*
X3440063Y-12787531D01*
X3440063Y-12787531D02*
X3449586Y-12778008D01*
X3449586Y-12778008D02*
X3468634Y-12768484D01*
X3621015Y-12949436D02*
X3630539Y-12958960D01*
X3630539Y-12958960D02*
X3621015Y-12968484D01*
X3621015Y-12968484D02*
X3611491Y-12958960D01*
X3611491Y-12958960D02*
X3621015Y-12949436D01*
X3621015Y-12949436D02*
X3621015Y-12968484D01*
X3754348Y-12768484D02*
X3773396Y-12768484D01*
X3773396Y-12768484D02*
X3792444Y-12778008D01*
X3792444Y-12778008D02*
X3801967Y-12787531D01*
X3801967Y-12787531D02*
X3811491Y-12806579D01*
X3811491Y-12806579D02*
X3821015Y-12844674D01*
X3821015Y-12844674D02*
X3821015Y-12892293D01*
X3821015Y-12892293D02*
X3811491Y-12930388D01*
X3811491Y-12930388D02*
X3801967Y-12949436D01*
X3801967Y-12949436D02*
X3792444Y-12958960D01*
X3792444Y-12958960D02*
X3773396Y-12968484D01*
X3773396Y-12968484D02*
X3754348Y-12968484D01*
X3754348Y-12968484D02*
X3735301Y-12958960D01*
X3735301Y-12958960D02*
X3725777Y-12949436D01*
X3725777Y-12949436D02*
X3716253Y-12930388D01*
X3716253Y-12930388D02*
X3706729Y-12892293D01*
X3706729Y-12892293D02*
X3706729Y-12844674D01*
X3706729Y-12844674D02*
X3716253Y-12806579D01*
X3716253Y-12806579D02*
X3725777Y-12787531D01*
X3725777Y-12787531D02*
X3735301Y-12778008D01*
X3735301Y-12778008D02*
X3754348Y-12768484D01*
X3887682Y-12768484D02*
X4011491Y-12768484D01*
X4011491Y-12768484D02*
X3944825Y-12844674D01*
X3944825Y-12844674D02*
X3973396Y-12844674D01*
X3973396Y-12844674D02*
X3992444Y-12854198D01*
X3992444Y-12854198D02*
X4001967Y-12863722D01*
X4001967Y-12863722D02*
X4011491Y-12882769D01*
X4011491Y-12882769D02*
X4011491Y-12930388D01*
X4011491Y-12930388D02*
X4001967Y-12949436D01*
X4001967Y-12949436D02*
X3992444Y-12958960D01*
X3992444Y-12958960D02*
X3973396Y-12968484D01*
X3973396Y-12968484D02*
X3916253Y-12968484D01*
X3916253Y-12968484D02*
X3897206Y-12958960D01*
X3897206Y-12958960D02*
X3887682Y-12949436D01*
X4106729Y-12968484D02*
X4144825Y-12968484D01*
X4144825Y-12968484D02*
X4163872Y-12958960D01*
X4163872Y-12958960D02*
X4173396Y-12949436D01*
X4173396Y-12949436D02*
X4192444Y-12920865D01*
X4192444Y-12920865D02*
X4201968Y-12882769D01*
X4201968Y-12882769D02*
X4201968Y-12806579D01*
X4201968Y-12806579D02*
X4192444Y-12787531D01*
X4192444Y-12787531D02*
X4182920Y-12778008D01*
X4182920Y-12778008D02*
X4163872Y-12768484D01*
X4163872Y-12768484D02*
X4125777Y-12768484D01*
X4125777Y-12768484D02*
X4106729Y-12778008D01*
X4106729Y-12778008D02*
X4097206Y-12787531D01*
X4097206Y-12787531D02*
X4087682Y-12806579D01*
X4087682Y-12806579D02*
X4087682Y-12854198D01*
X4087682Y-12854198D02*
X4097206Y-12873246D01*
X4097206Y-12873246D02*
X4106729Y-12882769D01*
X4106729Y-12882769D02*
X4125777Y-12892293D01*
X4125777Y-12892293D02*
X4163872Y-12892293D01*
X4163872Y-12892293D02*
X4182920Y-12882769D01*
X4182920Y-12882769D02*
X4192444Y-12873246D01*
X4192444Y-12873246D02*
X4201968Y-12854198D01*
X4373396Y-12835150D02*
X4373396Y-12968484D01*
X4325777Y-12758960D02*
X4278158Y-12901817D01*
X4278158Y-12901817D02*
X4401968Y-12901817D01*
X4468634Y-12768484D02*
X4468634Y-12806579D01*
X4544825Y-12768484D02*
X4544825Y-12806579D01*
X4840063Y-13044674D02*
X4830539Y-13035150D01*
X4830539Y-13035150D02*
X4811491Y-13006579D01*
X4811491Y-13006579D02*
X4801968Y-12987531D01*
X4801968Y-12987531D02*
X4792444Y-12958960D01*
X4792444Y-12958960D02*
X4782920Y-12911341D01*
X4782920Y-12911341D02*
X4782920Y-12873246D01*
X4782920Y-12873246D02*
X4792444Y-12825627D01*
X4792444Y-12825627D02*
X4801968Y-12797055D01*
X4801968Y-12797055D02*
X4811491Y-12778008D01*
X4811491Y-12778008D02*
X4830539Y-12749436D01*
X4830539Y-12749436D02*
X4840063Y-12739912D01*
X5001968Y-12768484D02*
X4963872Y-12768484D01*
X4963872Y-12768484D02*
X4944825Y-12778008D01*
X4944825Y-12778008D02*
X4935301Y-12787531D01*
X4935301Y-12787531D02*
X4916253Y-12816103D01*
X4916253Y-12816103D02*
X4906730Y-12854198D01*
X4906730Y-12854198D02*
X4906730Y-12930388D01*
X4906730Y-12930388D02*
X4916253Y-12949436D01*
X4916253Y-12949436D02*
X4925777Y-12958960D01*
X4925777Y-12958960D02*
X4944825Y-12968484D01*
X4944825Y-12968484D02*
X4982920Y-12968484D01*
X4982920Y-12968484D02*
X5001968Y-12958960D01*
X5001968Y-12958960D02*
X5011491Y-12949436D01*
X5011491Y-12949436D02*
X5021015Y-12930388D01*
X5021015Y-12930388D02*
X5021015Y-12882769D01*
X5021015Y-12882769D02*
X5011491Y-12863722D01*
X5011491Y-12863722D02*
X5001968Y-12854198D01*
X5001968Y-12854198D02*
X4982920Y-12844674D01*
X4982920Y-12844674D02*
X4944825Y-12844674D01*
X4944825Y-12844674D02*
X4925777Y-12854198D01*
X4925777Y-12854198D02*
X4916253Y-12863722D01*
X4916253Y-12863722D02*
X4906730Y-12882769D01*
X5087682Y-12768484D02*
X5221015Y-12768484D01*
X5221015Y-12768484D02*
X5135301Y-12968484D01*
X5449587Y-12968484D02*
X5449587Y-12768484D01*
X5535301Y-12968484D02*
X5535301Y-12863722D01*
X5535301Y-12863722D02*
X5525777Y-12844674D01*
X5525777Y-12844674D02*
X5506730Y-12835150D01*
X5506730Y-12835150D02*
X5478158Y-12835150D01*
X5478158Y-12835150D02*
X5459111Y-12844674D01*
X5459111Y-12844674D02*
X5449587Y-12854198D01*
X5659110Y-12968484D02*
X5640063Y-12958960D01*
X5640063Y-12958960D02*
X5630539Y-12949436D01*
X5630539Y-12949436D02*
X5621015Y-12930388D01*
X5621015Y-12930388D02*
X5621015Y-12873246D01*
X5621015Y-12873246D02*
X5630539Y-12854198D01*
X5630539Y-12854198D02*
X5640063Y-12844674D01*
X5640063Y-12844674D02*
X5659110Y-12835150D01*
X5659110Y-12835150D02*
X5687682Y-12835150D01*
X5687682Y-12835150D02*
X5706730Y-12844674D01*
X5706730Y-12844674D02*
X5716253Y-12854198D01*
X5716253Y-12854198D02*
X5725777Y-12873246D01*
X5725777Y-12873246D02*
X5725777Y-12930388D01*
X5725777Y-12930388D02*
X5716253Y-12949436D01*
X5716253Y-12949436D02*
X5706730Y-12958960D01*
X5706730Y-12958960D02*
X5687682Y-12968484D01*
X5687682Y-12968484D02*
X5659110Y-12968484D01*
X5840063Y-12968484D02*
X5821015Y-12958960D01*
X5821015Y-12958960D02*
X5811491Y-12939912D01*
X5811491Y-12939912D02*
X5811491Y-12768484D01*
X5992444Y-12958960D02*
X5973396Y-12968484D01*
X5973396Y-12968484D02*
X5935301Y-12968484D01*
X5935301Y-12968484D02*
X5916253Y-12958960D01*
X5916253Y-12958960D02*
X5906730Y-12939912D01*
X5906730Y-12939912D02*
X5906730Y-12863722D01*
X5906730Y-12863722D02*
X5916253Y-12844674D01*
X5916253Y-12844674D02*
X5935301Y-12835150D01*
X5935301Y-12835150D02*
X5973396Y-12835150D01*
X5973396Y-12835150D02*
X5992444Y-12844674D01*
X5992444Y-12844674D02*
X6001968Y-12863722D01*
X6001968Y-12863722D02*
X6001968Y-12882769D01*
X6001968Y-12882769D02*
X5906730Y-12901817D01*
X6078158Y-12958960D02*
X6097206Y-12968484D01*
X6097206Y-12968484D02*
X6135301Y-12968484D01*
X6135301Y-12968484D02*
X6154349Y-12958960D01*
X6154349Y-12958960D02*
X6163872Y-12939912D01*
X6163872Y-12939912D02*
X6163872Y-12930388D01*
X6163872Y-12930388D02*
X6154349Y-12911341D01*
X6154349Y-12911341D02*
X6135301Y-12901817D01*
X6135301Y-12901817D02*
X6106730Y-12901817D01*
X6106730Y-12901817D02*
X6087682Y-12892293D01*
X6087682Y-12892293D02*
X6078158Y-12873246D01*
X6078158Y-12873246D02*
X6078158Y-12863722D01*
X6078158Y-12863722D02*
X6087682Y-12844674D01*
X6087682Y-12844674D02*
X6106730Y-12835150D01*
X6106730Y-12835150D02*
X6135301Y-12835150D01*
X6135301Y-12835150D02*
X6154349Y-12844674D01*
X6230539Y-13044674D02*
X6240063Y-13035150D01*
X6240063Y-13035150D02*
X6259111Y-13006579D01*
X6259111Y-13006579D02*
X6268634Y-12987531D01*
X6268634Y-12987531D02*
X6278158Y-12958960D01*
X6278158Y-12958960D02*
X6287682Y-12911341D01*
X6287682Y-12911341D02*
X6287682Y-12873246D01*
X6287682Y-12873246D02*
X6278158Y-12825627D01*
X6278158Y-12825627D02*
X6268634Y-12797055D01*
X6268634Y-12797055D02*
X6259111Y-12778008D01*
X6259111Y-12778008D02*
X6240063Y-12749436D01*
X6240063Y-12749436D02*
X6230539Y-12739912D01*
X1065000Y-13041000D02*
X1265000Y-13241000D01*
X1265000Y-13041000D02*
X1065000Y-13241000D01*
X1265000Y-13141000D02*
G75*
G02*
X1065000Y-13141000I-100000J0D01*
G01*
X1065000Y-13141000D02*
G75*
G02*
X1265000Y-13141000I100000J0D01*
G01*
X1516253Y-13051531D02*
X1525777Y-13042008D01*
X1525777Y-13042008D02*
X1544824Y-13032484D01*
X1544824Y-13032484D02*
X1592443Y-13032484D01*
X1592443Y-13032484D02*
X1611491Y-13042008D01*
X1611491Y-13042008D02*
X1621015Y-13051531D01*
X1621015Y-13051531D02*
X1630539Y-13070579D01*
X1630539Y-13070579D02*
X1630539Y-13089627D01*
X1630539Y-13089627D02*
X1621015Y-13118198D01*
X1621015Y-13118198D02*
X1506729Y-13232484D01*
X1506729Y-13232484D02*
X1630539Y-13232484D01*
X1716253Y-13213436D02*
X1725777Y-13222960D01*
X1725777Y-13222960D02*
X1716253Y-13232484D01*
X1716253Y-13232484D02*
X1706729Y-13222960D01*
X1706729Y-13222960D02*
X1716253Y-13213436D01*
X1716253Y-13213436D02*
X1716253Y-13232484D01*
X1849586Y-13032484D02*
X1868634Y-13032484D01*
X1868634Y-13032484D02*
X1887682Y-13042008D01*
X1887682Y-13042008D02*
X1897205Y-13051531D01*
X1897205Y-13051531D02*
X1906729Y-13070579D01*
X1906729Y-13070579D02*
X1916253Y-13108674D01*
X1916253Y-13108674D02*
X1916253Y-13156293D01*
X1916253Y-13156293D02*
X1906729Y-13194388D01*
X1906729Y-13194388D02*
X1897205Y-13213436D01*
X1897205Y-13213436D02*
X1887682Y-13222960D01*
X1887682Y-13222960D02*
X1868634Y-13232484D01*
X1868634Y-13232484D02*
X1849586Y-13232484D01*
X1849586Y-13232484D02*
X1830539Y-13222960D01*
X1830539Y-13222960D02*
X1821015Y-13213436D01*
X1821015Y-13213436D02*
X1811491Y-13194388D01*
X1811491Y-13194388D02*
X1801967Y-13156293D01*
X1801967Y-13156293D02*
X1801967Y-13108674D01*
X1801967Y-13108674D02*
X1811491Y-13070579D01*
X1811491Y-13070579D02*
X1821015Y-13051531D01*
X1821015Y-13051531D02*
X1830539Y-13042008D01*
X1830539Y-13042008D02*
X1849586Y-13032484D01*
X2040062Y-13032484D02*
X2059110Y-13032484D01*
X2059110Y-13032484D02*
X2078158Y-13042008D01*
X2078158Y-13042008D02*
X2087682Y-13051531D01*
X2087682Y-13051531D02*
X2097205Y-13070579D01*
X2097205Y-13070579D02*
X2106729Y-13108674D01*
X2106729Y-13108674D02*
X2106729Y-13156293D01*
X2106729Y-13156293D02*
X2097205Y-13194388D01*
X2097205Y-13194388D02*
X2087682Y-13213436D01*
X2087682Y-13213436D02*
X2078158Y-13222960D01*
X2078158Y-13222960D02*
X2059110Y-13232484D01*
X2059110Y-13232484D02*
X2040062Y-13232484D01*
X2040062Y-13232484D02*
X2021015Y-13222960D01*
X2021015Y-13222960D02*
X2011491Y-13213436D01*
X2011491Y-13213436D02*
X2001967Y-13194388D01*
X2001967Y-13194388D02*
X1992443Y-13156293D01*
X1992443Y-13156293D02*
X1992443Y-13108674D01*
X1992443Y-13108674D02*
X2001967Y-13070579D01*
X2001967Y-13070579D02*
X2011491Y-13051531D01*
X2011491Y-13051531D02*
X2021015Y-13042008D01*
X2021015Y-13042008D02*
X2040062Y-13032484D01*
X2230539Y-13032484D02*
X2249586Y-13032484D01*
X2249586Y-13032484D02*
X2268634Y-13042008D01*
X2268634Y-13042008D02*
X2278158Y-13051531D01*
X2278158Y-13051531D02*
X2287682Y-13070579D01*
X2287682Y-13070579D02*
X2297205Y-13108674D01*
X2297205Y-13108674D02*
X2297205Y-13156293D01*
X2297205Y-13156293D02*
X2287682Y-13194388D01*
X2287682Y-13194388D02*
X2278158Y-13213436D01*
X2278158Y-13213436D02*
X2268634Y-13222960D01*
X2268634Y-13222960D02*
X2249586Y-13232484D01*
X2249586Y-13232484D02*
X2230539Y-13232484D01*
X2230539Y-13232484D02*
X2211491Y-13222960D01*
X2211491Y-13222960D02*
X2201967Y-13213436D01*
X2201967Y-13213436D02*
X2192444Y-13194388D01*
X2192444Y-13194388D02*
X2182920Y-13156293D01*
X2182920Y-13156293D02*
X2182920Y-13108674D01*
X2182920Y-13108674D02*
X2192444Y-13070579D01*
X2192444Y-13070579D02*
X2201967Y-13051531D01*
X2201967Y-13051531D02*
X2211491Y-13042008D01*
X2211491Y-13042008D02*
X2230539Y-13032484D01*
X2382920Y-13232484D02*
X2382920Y-13099150D01*
X2382920Y-13118198D02*
X2392444Y-13108674D01*
X2392444Y-13108674D02*
X2411491Y-13099150D01*
X2411491Y-13099150D02*
X2440063Y-13099150D01*
X2440063Y-13099150D02*
X2459110Y-13108674D01*
X2459110Y-13108674D02*
X2468634Y-13127722D01*
X2468634Y-13127722D02*
X2468634Y-13232484D01*
X2468634Y-13127722D02*
X2478158Y-13108674D01*
X2478158Y-13108674D02*
X2497205Y-13099150D01*
X2497205Y-13099150D02*
X2525777Y-13099150D01*
X2525777Y-13099150D02*
X2544825Y-13108674D01*
X2544825Y-13108674D02*
X2554348Y-13127722D01*
X2554348Y-13127722D02*
X2554348Y-13232484D01*
X2649586Y-13232484D02*
X2649586Y-13099150D01*
X2649586Y-13118198D02*
X2659110Y-13108674D01*
X2659110Y-13108674D02*
X2678158Y-13099150D01*
X2678158Y-13099150D02*
X2706729Y-13099150D01*
X2706729Y-13099150D02*
X2725777Y-13108674D01*
X2725777Y-13108674D02*
X2735301Y-13127722D01*
X2735301Y-13127722D02*
X2735301Y-13232484D01*
X2735301Y-13127722D02*
X2744825Y-13108674D01*
X2744825Y-13108674D02*
X2763872Y-13099150D01*
X2763872Y-13099150D02*
X2792444Y-13099150D01*
X2792444Y-13099150D02*
X2811491Y-13108674D01*
X2811491Y-13108674D02*
X2821015Y-13127722D01*
X2821015Y-13127722D02*
X2821015Y-13232484D01*
X3211491Y-13022960D02*
X3040063Y-13280103D01*
X3468634Y-13032484D02*
X3487682Y-13032484D01*
X3487682Y-13032484D02*
X3506729Y-13042008D01*
X3506729Y-13042008D02*
X3516253Y-13051531D01*
X3516253Y-13051531D02*
X3525777Y-13070579D01*
X3525777Y-13070579D02*
X3535301Y-13108674D01*
X3535301Y-13108674D02*
X3535301Y-13156293D01*
X3535301Y-13156293D02*
X3525777Y-13194388D01*
X3525777Y-13194388D02*
X3516253Y-13213436D01*
X3516253Y-13213436D02*
X3506729Y-13222960D01*
X3506729Y-13222960D02*
X3487682Y-13232484D01*
X3487682Y-13232484D02*
X3468634Y-13232484D01*
X3468634Y-13232484D02*
X3449586Y-13222960D01*
X3449586Y-13222960D02*
X3440063Y-13213436D01*
X3440063Y-13213436D02*
X3430539Y-13194388D01*
X3430539Y-13194388D02*
X3421015Y-13156293D01*
X3421015Y-13156293D02*
X3421015Y-13108674D01*
X3421015Y-13108674D02*
X3430539Y-13070579D01*
X3430539Y-13070579D02*
X3440063Y-13051531D01*
X3440063Y-13051531D02*
X3449586Y-13042008D01*
X3449586Y-13042008D02*
X3468634Y-13032484D01*
X3621015Y-13213436D02*
X3630539Y-13222960D01*
X3630539Y-13222960D02*
X3621015Y-13232484D01*
X3621015Y-13232484D02*
X3611491Y-13222960D01*
X3611491Y-13222960D02*
X3621015Y-13213436D01*
X3621015Y-13213436D02*
X3621015Y-13232484D01*
X3754348Y-13032484D02*
X3773396Y-13032484D01*
X3773396Y-13032484D02*
X3792444Y-13042008D01*
X3792444Y-13042008D02*
X3801967Y-13051531D01*
X3801967Y-13051531D02*
X3811491Y-13070579D01*
X3811491Y-13070579D02*
X3821015Y-13108674D01*
X3821015Y-13108674D02*
X3821015Y-13156293D01*
X3821015Y-13156293D02*
X3811491Y-13194388D01*
X3811491Y-13194388D02*
X3801967Y-13213436D01*
X3801967Y-13213436D02*
X3792444Y-13222960D01*
X3792444Y-13222960D02*
X3773396Y-13232484D01*
X3773396Y-13232484D02*
X3754348Y-13232484D01*
X3754348Y-13232484D02*
X3735301Y-13222960D01*
X3735301Y-13222960D02*
X3725777Y-13213436D01*
X3725777Y-13213436D02*
X3716253Y-13194388D01*
X3716253Y-13194388D02*
X3706729Y-13156293D01*
X3706729Y-13156293D02*
X3706729Y-13108674D01*
X3706729Y-13108674D02*
X3716253Y-13070579D01*
X3716253Y-13070579D02*
X3725777Y-13051531D01*
X3725777Y-13051531D02*
X3735301Y-13042008D01*
X3735301Y-13042008D02*
X3754348Y-13032484D01*
X3887682Y-13032484D02*
X4021015Y-13032484D01*
X4021015Y-13032484D02*
X3935301Y-13232484D01*
X4125777Y-13118198D02*
X4106729Y-13108674D01*
X4106729Y-13108674D02*
X4097206Y-13099150D01*
X4097206Y-13099150D02*
X4087682Y-13080103D01*
X4087682Y-13080103D02*
X4087682Y-13070579D01*
X4087682Y-13070579D02*
X4097206Y-13051531D01*
X4097206Y-13051531D02*
X4106729Y-13042008D01*
X4106729Y-13042008D02*
X4125777Y-13032484D01*
X4125777Y-13032484D02*
X4163872Y-13032484D01*
X4163872Y-13032484D02*
X4182920Y-13042008D01*
X4182920Y-13042008D02*
X4192444Y-13051531D01*
X4192444Y-13051531D02*
X4201968Y-13070579D01*
X4201968Y-13070579D02*
X4201968Y-13080103D01*
X4201968Y-13080103D02*
X4192444Y-13099150D01*
X4192444Y-13099150D02*
X4182920Y-13108674D01*
X4182920Y-13108674D02*
X4163872Y-13118198D01*
X4163872Y-13118198D02*
X4125777Y-13118198D01*
X4125777Y-13118198D02*
X4106729Y-13127722D01*
X4106729Y-13127722D02*
X4097206Y-13137246D01*
X4097206Y-13137246D02*
X4087682Y-13156293D01*
X4087682Y-13156293D02*
X4087682Y-13194388D01*
X4087682Y-13194388D02*
X4097206Y-13213436D01*
X4097206Y-13213436D02*
X4106729Y-13222960D01*
X4106729Y-13222960D02*
X4125777Y-13232484D01*
X4125777Y-13232484D02*
X4163872Y-13232484D01*
X4163872Y-13232484D02*
X4182920Y-13222960D01*
X4182920Y-13222960D02*
X4192444Y-13213436D01*
X4192444Y-13213436D02*
X4201968Y-13194388D01*
X4201968Y-13194388D02*
X4201968Y-13156293D01*
X4201968Y-13156293D02*
X4192444Y-13137246D01*
X4192444Y-13137246D02*
X4182920Y-13127722D01*
X4182920Y-13127722D02*
X4163872Y-13118198D01*
X4268634Y-13032484D02*
X4401968Y-13032484D01*
X4401968Y-13032484D02*
X4316253Y-13232484D01*
X4468634Y-13032484D02*
X4468634Y-13070579D01*
X4544825Y-13032484D02*
X4544825Y-13070579D01*
X4840063Y-13308674D02*
X4830539Y-13299150D01*
X4830539Y-13299150D02*
X4811491Y-13270579D01*
X4811491Y-13270579D02*
X4801968Y-13251531D01*
X4801968Y-13251531D02*
X4792444Y-13222960D01*
X4792444Y-13222960D02*
X4782920Y-13175341D01*
X4782920Y-13175341D02*
X4782920Y-13137246D01*
X4782920Y-13137246D02*
X4792444Y-13089627D01*
X4792444Y-13089627D02*
X4801968Y-13061055D01*
X4801968Y-13061055D02*
X4811491Y-13042008D01*
X4811491Y-13042008D02*
X4830539Y-13013436D01*
X4830539Y-13013436D02*
X4840063Y-13003912D01*
X5001968Y-13032484D02*
X4963872Y-13032484D01*
X4963872Y-13032484D02*
X4944825Y-13042008D01*
X4944825Y-13042008D02*
X4935301Y-13051531D01*
X4935301Y-13051531D02*
X4916253Y-13080103D01*
X4916253Y-13080103D02*
X4906730Y-13118198D01*
X4906730Y-13118198D02*
X4906730Y-13194388D01*
X4906730Y-13194388D02*
X4916253Y-13213436D01*
X4916253Y-13213436D02*
X4925777Y-13222960D01*
X4925777Y-13222960D02*
X4944825Y-13232484D01*
X4944825Y-13232484D02*
X4982920Y-13232484D01*
X4982920Y-13232484D02*
X5001968Y-13222960D01*
X5001968Y-13222960D02*
X5011491Y-13213436D01*
X5011491Y-13213436D02*
X5021015Y-13194388D01*
X5021015Y-13194388D02*
X5021015Y-13146769D01*
X5021015Y-13146769D02*
X5011491Y-13127722D01*
X5011491Y-13127722D02*
X5001968Y-13118198D01*
X5001968Y-13118198D02*
X4982920Y-13108674D01*
X4982920Y-13108674D02*
X4944825Y-13108674D01*
X4944825Y-13108674D02*
X4925777Y-13118198D01*
X4925777Y-13118198D02*
X4916253Y-13127722D01*
X4916253Y-13127722D02*
X4906730Y-13146769D01*
X5259111Y-13232484D02*
X5259111Y-13032484D01*
X5344825Y-13232484D02*
X5344825Y-13127722D01*
X5344825Y-13127722D02*
X5335301Y-13108674D01*
X5335301Y-13108674D02*
X5316253Y-13099150D01*
X5316253Y-13099150D02*
X5287682Y-13099150D01*
X5287682Y-13099150D02*
X5268634Y-13108674D01*
X5268634Y-13108674D02*
X5259111Y-13118198D01*
X5468634Y-13232484D02*
X5449587Y-13222960D01*
X5449587Y-13222960D02*
X5440063Y-13213436D01*
X5440063Y-13213436D02*
X5430539Y-13194388D01*
X5430539Y-13194388D02*
X5430539Y-13137246D01*
X5430539Y-13137246D02*
X5440063Y-13118198D01*
X5440063Y-13118198D02*
X5449587Y-13108674D01*
X5449587Y-13108674D02*
X5468634Y-13099150D01*
X5468634Y-13099150D02*
X5497206Y-13099150D01*
X5497206Y-13099150D02*
X5516253Y-13108674D01*
X5516253Y-13108674D02*
X5525777Y-13118198D01*
X5525777Y-13118198D02*
X5535301Y-13137246D01*
X5535301Y-13137246D02*
X5535301Y-13194388D01*
X5535301Y-13194388D02*
X5525777Y-13213436D01*
X5525777Y-13213436D02*
X5516253Y-13222960D01*
X5516253Y-13222960D02*
X5497206Y-13232484D01*
X5497206Y-13232484D02*
X5468634Y-13232484D01*
X5649587Y-13232484D02*
X5630539Y-13222960D01*
X5630539Y-13222960D02*
X5621015Y-13203912D01*
X5621015Y-13203912D02*
X5621015Y-13032484D01*
X5801968Y-13222960D02*
X5782920Y-13232484D01*
X5782920Y-13232484D02*
X5744825Y-13232484D01*
X5744825Y-13232484D02*
X5725777Y-13222960D01*
X5725777Y-13222960D02*
X5716253Y-13203912D01*
X5716253Y-13203912D02*
X5716253Y-13127722D01*
X5716253Y-13127722D02*
X5725777Y-13108674D01*
X5725777Y-13108674D02*
X5744825Y-13099150D01*
X5744825Y-13099150D02*
X5782920Y-13099150D01*
X5782920Y-13099150D02*
X5801968Y-13108674D01*
X5801968Y-13108674D02*
X5811491Y-13127722D01*
X5811491Y-13127722D02*
X5811491Y-13146769D01*
X5811491Y-13146769D02*
X5716253Y-13165817D01*
X5887682Y-13222960D02*
X5906730Y-13232484D01*
X5906730Y-13232484D02*
X5944825Y-13232484D01*
X5944825Y-13232484D02*
X5963872Y-13222960D01*
X5963872Y-13222960D02*
X5973396Y-13203912D01*
X5973396Y-13203912D02*
X5973396Y-13194388D01*
X5973396Y-13194388D02*
X5963872Y-13175341D01*
X5963872Y-13175341D02*
X5944825Y-13165817D01*
X5944825Y-13165817D02*
X5916253Y-13165817D01*
X5916253Y-13165817D02*
X5897206Y-13156293D01*
X5897206Y-13156293D02*
X5887682Y-13137246D01*
X5887682Y-13137246D02*
X5887682Y-13127722D01*
X5887682Y-13127722D02*
X5897206Y-13108674D01*
X5897206Y-13108674D02*
X5916253Y-13099150D01*
X5916253Y-13099150D02*
X5944825Y-13099150D01*
X5944825Y-13099150D02*
X5963872Y-13108674D01*
X6040063Y-13308674D02*
X6049587Y-13299150D01*
X6049587Y-13299150D02*
X6068634Y-13270579D01*
X6068634Y-13270579D02*
X6078158Y-13251531D01*
X6078158Y-13251531D02*
X6087682Y-13222960D01*
X6087682Y-13222960D02*
X6097206Y-13175341D01*
X6097206Y-13175341D02*
X6097206Y-13137246D01*
X6097206Y-13137246D02*
X6087682Y-13089627D01*
X6087682Y-13089627D02*
X6078158Y-13061055D01*
X6078158Y-13061055D02*
X6068634Y-13042008D01*
X6068634Y-13042008D02*
X6049587Y-13013436D01*
X6049587Y-13013436D02*
X6040063Y-13003912D01*
M02*
