M48
; DRILL file {KiCad 8.0.3} date 2024-11-03T21:20:48+0100
; FORMAT={-:-/ absolute / inch / decimal}
; #@! TF.CreationDate,2024-11-03T21:20:48+01:00
; #@! TF.GenerationSoftware,Kicad,Pcbnew,8.0.3
; #@! TF.FileFunction,Plated,1,2,PTH
FMAT,2
INCH
; #@! TA.AperFunction,Plated,PTH,ViaDrill
T1C0.0118
; #@! TA.AperFunction,Plated,PTH,ComponentDrill
T2C0.0276
; #@! TA.AperFunction,Plated,PTH,ComponentDrill
T3C0.0374
; #@! TA.AperFunction,Plated,PTH,ViaDrill
T4C0.0394
; #@! TA.AperFunction,Plated,PTH,ComponentDrill
T5C0.0394
; #@! TA.AperFunction,Plated,PTH,ViaDrill
T6C0.0787
%
G90
G05
T1
X0.8Y-1.915
X0.94Y-1.19
X0.95Y-1.93
X1.1Y-1.93
X1.29Y-1.935
X1.35Y-3.075
X1.35Y-3.4
X1.35Y-3.725
X1.51Y-0.99
X1.55Y-3.075
X1.55Y-3.4
X1.6Y-1.32
X1.64Y-1.95
X1.9Y-1.9
X1.9199Y-1.7028
X1.925Y-1.05
X2.2Y-1.9
X2.26Y-1.45
X2.375Y-1.95
X2.8Y-1.34
X2.9005Y-1.95
X3.0Y-3.85
X3.25Y-1.9
X3.45Y-3.8
X3.5Y-1.95
X3.5976Y-3.8
X3.6Y-1.95
X3.7476Y-3.8
X3.75Y-1.95
X3.8976Y-3.8
X4.2Y-1.95
T2
X2.2Y-1.0
X2.2Y-1.3
X2.6Y-1.0
X2.6Y-1.3
X3.0Y-1.0
X3.0Y-1.3
X3.45Y-1.0
X3.45Y-1.3
X3.7Y-1.0
X3.7Y-1.3
X3.95Y-1.0
X3.95Y-1.3
X4.1992Y-1.0
X4.1992Y-1.3
T3
X0.7Y-2.7
X0.7Y-2.7984
X0.7Y-2.8969
X0.7Y-2.9953
X0.7Y-3.0937
X0.7Y-3.3969
X0.7Y-3.4953
X0.7Y-3.5937
X0.7Y-3.6921
X0.7Y-3.9921
X0.7Y-4.0906
X0.7Y-4.189
T4
X3.15Y-1.3
X3.15Y-1.6
T5
X0.75Y-0.7
X0.75Y-0.9
X0.8Y-1.5722
X0.85Y-0.7
X0.85Y-0.9
X0.9Y-1.5722
X0.95Y-0.7
X0.95Y-0.9
X1.0Y-1.5722
X1.05Y-0.9
X1.1Y-1.5722
X1.2Y-1.5722
X1.25Y-0.7
X1.3Y-1.5722
X1.35Y-0.7
X1.4Y-1.5722
X1.45Y-0.7
X1.5Y-1.5722
X1.6Y-1.5722
X1.65Y-0.7
X1.7Y-1.5722
X1.75Y-0.7
X1.85Y-0.7
X2.0Y-1.55
X2.1Y-1.55
X2.1016Y-0.7
X2.2Y-0.7
X2.2Y-1.55
X2.3Y-1.55
X2.4Y-1.55
X2.5Y-1.55
X2.5016Y-0.7
X2.6Y-0.7
X2.6Y-1.55
X2.7Y-1.55
X2.8Y-1.55
X2.9Y-1.55
X2.9016Y-0.7
X2.9976Y-4.2
X3.0Y-0.7
X3.0976Y-4.2
X3.1976Y-4.2
X3.2976Y-4.2
X3.3Y-1.55
X3.3976Y-4.2
X3.4Y-1.55
X3.45Y-0.7
X3.45Y-0.8
X3.4976Y-4.2
X3.5Y-1.55
X3.5976Y-4.2
X3.6Y-1.55
X3.6976Y-4.2
X3.7Y-0.7
X3.7Y-0.8
X3.7Y-1.55
X3.7976Y-4.2
X3.8Y-1.55
X3.8976Y-4.2
X3.9Y-1.55
X3.95Y-0.7
X3.95Y-0.8
X4.0Y-1.55
X4.1Y-1.55
X4.2Y-0.7
X4.2Y-0.8
X4.2Y-1.55
T6
X0.8Y-2.05
X1.15Y-2.4
X2.55Y-2.3
X2.55Y-3.5
X2.9Y-2.65
X2.9Y-3.15
M30
