%TF.GenerationSoftware,KiCad,Pcbnew,8.0.3*%
%TF.CreationDate,2024-11-03T21:20:52+01:00*%
%TF.ProjectId,weerstation-analoog,77656572-7374-4617-9469-6f6e2d616e61,rev?*%
%TF.SameCoordinates,Original*%
%TF.FileFunction,Copper,L2,Bot*%
%TF.FilePolarity,Positive*%
%FSLAX46Y46*%
G04 Gerber Fmt 4.6, Leading zero omitted, Abs format (unit mm)*
G04 Created by KiCad (PCBNEW 8.0.3) date 2024-11-03 21:20:52*
%MOMM*%
%LPD*%
G01*
G04 APERTURE LIST*
G04 Aperture macros list*
%AMRoundRect*
0 Rectangle with rounded corners*
0 $1 Rounding radius*
0 $2 $3 $4 $5 $6 $7 $8 $9 X,Y pos of 4 corners*
0 Add a 4 corners polygon primitive as box body*
4,1,4,$2,$3,$4,$5,$6,$7,$8,$9,$2,$3,0*
0 Add four circle primitives for the rounded corners*
1,1,$1+$1,$2,$3*
1,1,$1+$1,$4,$5*
1,1,$1+$1,$6,$7*
1,1,$1+$1,$8,$9*
0 Add four rect primitives between the rounded corners*
20,1,$1+$1,$2,$3,$4,$5,0*
20,1,$1+$1,$4,$5,$6,$7,0*
20,1,$1+$1,$6,$7,$8,$9,0*
20,1,$1+$1,$8,$9,$2,$3,0*%
G04 Aperture macros list end*
%TA.AperFunction,ComponentPad*%
%ADD10R,1.700000X1.700000*%
%TD*%
%TA.AperFunction,ComponentPad*%
%ADD11O,1.700000X1.700000*%
%TD*%
%TA.AperFunction,ComponentPad*%
%ADD12RoundRect,0.250000X0.725000X-0.600000X0.725000X0.600000X-0.725000X0.600000X-0.725000X-0.600000X0*%
%TD*%
%TA.AperFunction,ComponentPad*%
%ADD13O,1.950000X1.700000*%
%TD*%
%TA.AperFunction,ComponentPad*%
%ADD14C,1.400000*%
%TD*%
%TA.AperFunction,ComponentPad*%
%ADD15O,1.400000X1.400000*%
%TD*%
%TA.AperFunction,ComponentPad*%
%ADD16RoundRect,0.250000X-0.600000X-0.750000X0.600000X-0.750000X0.600000X0.750000X-0.600000X0.750000X0*%
%TD*%
%TA.AperFunction,ComponentPad*%
%ADD17O,1.700000X2.000000*%
%TD*%
%TA.AperFunction,SMDPad,CuDef*%
%ADD18RoundRect,0.250000X-0.650000X0.412500X-0.650000X-0.412500X0.650000X-0.412500X0.650000X0.412500X0*%
%TD*%
%TA.AperFunction,SMDPad,CuDef*%
%ADD19RoundRect,0.250000X-0.412500X-0.650000X0.412500X-0.650000X0.412500X0.650000X-0.412500X0.650000X0*%
%TD*%
%TA.AperFunction,SMDPad,CuDef*%
%ADD20RoundRect,0.250000X0.650000X-0.412500X0.650000X0.412500X-0.650000X0.412500X-0.650000X-0.412500X0*%
%TD*%
%TA.AperFunction,SMDPad,CuDef*%
%ADD21RoundRect,0.250000X0.412500X0.650000X-0.412500X0.650000X-0.412500X-0.650000X0.412500X-0.650000X0*%
%TD*%
%TA.AperFunction,ViaPad*%
%ADD22C,0.600000*%
%TD*%
%TA.AperFunction,ViaPad*%
%ADD23C,3.000000*%
%TD*%
%TA.AperFunction,ViaPad*%
%ADD24C,2.000000*%
%TD*%
%TA.AperFunction,Conductor*%
%ADD25C,0.500000*%
%TD*%
%TA.AperFunction,Conductor*%
%ADD26C,0.750000*%
%TD*%
%TA.AperFunction,Conductor*%
%ADD27C,4.000000*%
%TD*%
%TA.AperFunction,Conductor*%
%ADD28C,2.000000*%
%TD*%
G04 APERTURE END LIST*
D10*
%TO.P,R9,1*%
%TO.N,+3.3V*%
X100330000Y-17780000D03*
D11*
%TO.P,R9,2*%
%TO.N,ADC-2 A1*%
X100330000Y-20320000D03*
%TD*%
D12*
%TO.P,J11,1,Pin_1*%
%TO.N,regen-digitaal*%
X17780000Y-78580000D03*
D13*
%TO.P,J11,2,Pin_2*%
%TO.N,ADC4 alert*%
X17780000Y-76080000D03*
%TO.P,J11,3,Pin_3*%
%TO.N,ADC3 alert*%
X17780000Y-73580000D03*
%TO.P,J11,4,Pin_4*%
%TO.N,ADC2 alert*%
X17780000Y-71080000D03*
%TO.P,J11,5,Pin_5*%
%TO.N,ADC1 alert*%
X17780000Y-68580000D03*
%TD*%
D10*
%TO.P,J6,1,Pin_1*%
%TO.N,ADC-3 A3*%
X20320000Y-39935000D03*
D11*
%TO.P,J6,2,Pin_2*%
%TO.N,ADC-3 A2*%
X22860000Y-39935000D03*
%TO.P,J6,3,Pin_3*%
%TO.N,ADC-3 A1*%
X25400000Y-39935000D03*
%TO.P,J6,4,Pin_4*%
%TO.N,ADC-3 A0*%
X27940000Y-39935000D03*
%TO.P,J6,5,Pin_5*%
%TO.N,ADC3 alert*%
X30480000Y-39935000D03*
%TO.P,J6,6,Pin_6*%
%TO.N,scl*%
X33020000Y-39935000D03*
%TO.P,J6,7,Pin_7*%
%TO.N,sda*%
X35560000Y-39935000D03*
%TO.P,J6,8,Pin_8*%
%TO.N,scl*%
X38100000Y-39935000D03*
%TO.P,J6,9,Pin_9*%
%TO.N,GND*%
X40640000Y-39935000D03*
%TO.P,J6,10,Pin_10*%
%TO.N,+3.3V*%
X43180000Y-39935000D03*
%TD*%
D10*
%TO.P,J5,1,Pin_1*%
%TO.N,ADC-4 A3*%
X98998700Y-106680000D03*
D11*
%TO.P,J5,2,Pin_2*%
%TO.N,ADC-4 A2*%
X96458700Y-106680000D03*
%TO.P,J5,3,Pin_3*%
%TO.N,ADC-4 A1*%
X93918700Y-106680000D03*
%TO.P,J5,4,Pin_4*%
%TO.N,ADC-4 A0*%
X91378700Y-106680000D03*
%TO.P,J5,5,Pin_5*%
%TO.N,ADC4 alert*%
X88838700Y-106680000D03*
%TO.P,J5,6,Pin_6*%
%TO.N,sda*%
X86298700Y-106680000D03*
%TO.P,J5,7,Pin_7*%
X83758700Y-106680000D03*
%TO.P,J5,8,Pin_8*%
%TO.N,scl*%
X81218700Y-106680000D03*
%TO.P,J5,9,Pin_9*%
%TO.N,GND*%
X78678700Y-106680000D03*
%TO.P,J5,10,Pin_10*%
%TO.N,+3.3V*%
X76138700Y-106680000D03*
%TD*%
D14*
%TO.P,R6,1*%
%TO.N,ADC-1 A2*%
X55880000Y-25400000D03*
D15*
%TO.P,R6,2*%
%TO.N,GND*%
X55880000Y-33020000D03*
%TD*%
D10*
%TO.P,J8,1,Pin_1*%
%TO.N,ADC-3 A0*%
X41910000Y-17780000D03*
D11*
%TO.P,J8,2,Pin_2*%
%TO.N,+3.3V*%
X44450000Y-17780000D03*
%TO.P,J8,3,Pin_3*%
%TO.N,GND*%
X46990000Y-17780000D03*
%TD*%
D12*
%TO.P,J2,1,Pin_1*%
%TO.N,+12L*%
X17780000Y-93780000D03*
D13*
%TO.P,J2,2,Pin_2*%
%TO.N,+5V*%
X17780000Y-91280000D03*
%TO.P,J2,3,Pin_3*%
%TO.N,+3.3V*%
X17780000Y-88780000D03*
%TO.P,J2,4,Pin_4*%
%TO.N,GND*%
X17780000Y-86280000D03*
%TD*%
D12*
%TO.P,J1,1,Pin_1*%
%TO.N,GND*%
X17780000Y-106400000D03*
D13*
%TO.P,J1,2,Pin_2*%
%TO.N,scl*%
X17780000Y-103900000D03*
%TO.P,J1,3,Pin_3*%
%TO.N,sda*%
X17780000Y-101400000D03*
%TD*%
D16*
%TO.P,R3,1*%
%TO.N,+3.3V*%
X63540000Y-17780000D03*
D17*
%TO.P,R3,2*%
%TO.N,ADC-1 A1*%
X66040000Y-17780000D03*
%TD*%
D14*
%TO.P,R12,1*%
%TO.N,ADC-2 A2*%
X93980000Y-25400000D03*
D15*
%TO.P,R12,2*%
%TO.N,GND*%
X93980000Y-33020000D03*
%TD*%
D10*
%TO.P,R7,1*%
%TO.N,+3.3V*%
X106680000Y-17780000D03*
D11*
%TO.P,R7,2*%
%TO.N,ADC-2 A0*%
X106680000Y-20320000D03*
%TD*%
D14*
%TO.P,R4,1*%
%TO.N,ADC-1 A1*%
X66040000Y-25400000D03*
D15*
%TO.P,R4,2*%
%TO.N,GND*%
X66040000Y-33020000D03*
%TD*%
D10*
%TO.P,J4,1,Pin_1*%
%TO.N,ADC-2 A3*%
X83820000Y-39370000D03*
D11*
%TO.P,J4,2,Pin_2*%
%TO.N,ADC-2 A2*%
X86360000Y-39370000D03*
%TO.P,J4,3,Pin_3*%
%TO.N,ADC-2 A1*%
X88900000Y-39370000D03*
%TO.P,J4,4,Pin_4*%
%TO.N,ADC-2 A0*%
X91440000Y-39370000D03*
%TO.P,J4,5,Pin_5*%
%TO.N,ADC2 alert*%
X93980000Y-39370000D03*
%TO.P,J4,6,Pin_6*%
%TO.N,+3.3V*%
X96520000Y-39370000D03*
%TO.P,J4,7,Pin_7*%
%TO.N,sda*%
X99060000Y-39370000D03*
%TO.P,J4,8,Pin_8*%
%TO.N,scl*%
X101600000Y-39370000D03*
%TO.P,J4,9,Pin_9*%
%TO.N,GND*%
X104140000Y-39370000D03*
%TO.P,J4,10,Pin_10*%
%TO.N,+3.3V*%
X106680000Y-39370000D03*
%TD*%
D10*
%TO.P,J7,1,Pin_1*%
%TO.N,ADC-3 A1*%
X31750000Y-17780000D03*
D11*
%TO.P,J7,2,Pin_2*%
%TO.N,+3.3V*%
X34290000Y-17780000D03*
%TO.P,J7,3,Pin_3*%
%TO.N,GND*%
X36830000Y-17780000D03*
%TD*%
D16*
%TO.P,R5,1*%
%TO.N,+3.3V*%
X53380000Y-17780000D03*
D17*
%TO.P,R5,2*%
%TO.N,ADC-1 A2*%
X55880000Y-17780000D03*
%TD*%
D10*
%TO.P,J10,1,Pin_1*%
%TO.N,ADC-3 A2*%
X19050000Y-22860000D03*
D11*
%TO.P,J10,2,Pin_2*%
%TO.N,regen-digitaal*%
X21590000Y-22860000D03*
%TO.P,J10,3,Pin_3*%
%TO.N,GND*%
X24130000Y-22860000D03*
%TO.P,J10,4,Pin_4*%
%TO.N,+3.3V*%
X26670000Y-22860000D03*
%TD*%
D10*
%TO.P,J3,1,Pin_1*%
%TO.N,ADC-1 A3*%
X50800000Y-39370000D03*
D11*
%TO.P,J3,2,Pin_2*%
%TO.N,ADC-1 A2*%
X53340000Y-39370000D03*
%TO.P,J3,3,Pin_3*%
%TO.N,ADC-1 A1*%
X55880000Y-39370000D03*
%TO.P,J3,4,Pin_4*%
%TO.N,ADC-1 A0*%
X58420000Y-39370000D03*
%TO.P,J3,5,Pin_5*%
%TO.N,ADC1 alert*%
X60960000Y-39370000D03*
%TO.P,J3,6,Pin_6*%
%TO.N,GND*%
X63500000Y-39370000D03*
%TO.P,J3,7,Pin_7*%
%TO.N,sda*%
X66040000Y-39370000D03*
%TO.P,J3,8,Pin_8*%
%TO.N,scl*%
X68580000Y-39370000D03*
%TO.P,J3,9,Pin_9*%
%TO.N,GND*%
X71120000Y-39370000D03*
%TO.P,J3,10,Pin_10*%
%TO.N,+3.3V*%
X73660000Y-39370000D03*
%TD*%
D16*
%TO.P,R1,1*%
%TO.N,+3.3V*%
X73700000Y-17780000D03*
D17*
%TO.P,R1,2*%
%TO.N,ADC-1 A0*%
X76200000Y-17780000D03*
%TD*%
D10*
%TO.P,J9,1,Pin_1*%
%TO.N,ADC-3 A2*%
X19050000Y-17780000D03*
D11*
%TO.P,J9,2,Pin_2*%
%TO.N,+3.3V*%
X21590000Y-17780000D03*
%TO.P,J9,3,Pin_3*%
%TO.N,GND*%
X24130000Y-17780000D03*
%TD*%
D14*
%TO.P,R10,1*%
%TO.N,ADC-2 A1*%
X100330000Y-25400000D03*
D15*
%TO.P,R10,2*%
%TO.N,GND*%
X100330000Y-33020000D03*
%TD*%
D10*
%TO.P,R11,1*%
%TO.N,+3.3V*%
X93980000Y-17780000D03*
D11*
%TO.P,R11,2*%
%TO.N,ADC-2 A2*%
X93980000Y-20320000D03*
%TD*%
D14*
%TO.P,R2,1*%
%TO.N,ADC-1 A0*%
X76200000Y-25400000D03*
D15*
%TO.P,R2,2*%
%TO.N,GND*%
X76200000Y-33020000D03*
%TD*%
D14*
%TO.P,R14,1*%
%TO.N,ADC-2 A3*%
X87630000Y-25400000D03*
D15*
%TO.P,R14,2*%
%TO.N,GND*%
X87630000Y-33020000D03*
%TD*%
D14*
%TO.P,R8,1*%
%TO.N,ADC-2 A0*%
X106660000Y-25400000D03*
D15*
%TO.P,R8,2*%
%TO.N,GND*%
X106660000Y-33020000D03*
%TD*%
D10*
%TO.P,R13,1*%
%TO.N,+3.3V*%
X87630000Y-17780000D03*
D11*
%TO.P,R13,2*%
%TO.N,ADC-2 A3*%
X87630000Y-20320000D03*
%TD*%
D18*
%TO.P,C10,1*%
%TO.N,ADC-2 A1*%
X91440000Y-42887500D03*
%TO.P,C10,2*%
%TO.N,GND*%
X91440000Y-46012500D03*
%TD*%
%TO.P,C20,1*%
%TO.N,ADC-3 A1*%
X27940000Y-43745000D03*
%TO.P,C20,2*%
%TO.N,GND*%
X27940000Y-46870000D03*
%TD*%
%TO.P,C1,1*%
%TO.N,ADC-1 A3*%
X50800000Y-42887500D03*
%TO.P,C1,2*%
%TO.N,GND*%
X50800000Y-46012500D03*
%TD*%
%TO.P,C9,1*%
%TO.N,ADC-2 A2*%
X87630000Y-42887500D03*
%TO.P,C9,2*%
%TO.N,GND*%
X87630000Y-46012500D03*
%TD*%
%TO.P,C14,1*%
%TO.N,+3.3V*%
X43180000Y-43452500D03*
%TO.P,C14,2*%
%TO.N,GND*%
X43180000Y-46577500D03*
%TD*%
%TO.P,C4,1*%
%TO.N,ADC-1 A2*%
X54610000Y-42887500D03*
%TO.P,C4,2*%
%TO.N,GND*%
X54610000Y-46012500D03*
%TD*%
D19*
%TO.P,C21,1*%
%TO.N,+3.3V*%
X33705000Y-26670000D03*
%TO.P,C21,2*%
%TO.N,GND*%
X36830000Y-26670000D03*
%TD*%
D20*
%TO.P,C25,1*%
%TO.N,+3.3V*%
X34290000Y-83527500D03*
%TO.P,C25,2*%
%TO.N,GND*%
X34290000Y-80402500D03*
%TD*%
D18*
%TO.P,C8,1*%
%TO.N,ADC-2 A0*%
X95250000Y-42887500D03*
%TO.P,C8,2*%
%TO.N,GND*%
X95250000Y-46012500D03*
%TD*%
D20*
%TO.P,C17,1*%
%TO.N,ADC-4 A2*%
X95188700Y-103162500D03*
%TO.P,C17,2*%
%TO.N,GND*%
X95188700Y-100037500D03*
%TD*%
D18*
%TO.P,C7,1*%
%TO.N,+3.3V*%
X106680000Y-42887500D03*
%TO.P,C7,2*%
%TO.N,GND*%
X106680000Y-46012500D03*
%TD*%
D20*
%TO.P,C27,1*%
%TO.N,+5V*%
X34290000Y-91440000D03*
%TO.P,C27,2*%
%TO.N,GND*%
X34290000Y-88315000D03*
%TD*%
%TO.P,C24,1*%
%TO.N,+5V*%
X39370000Y-91440000D03*
%TO.P,C24,2*%
%TO.N,GND*%
X39370000Y-88315000D03*
%TD*%
D18*
%TO.P,C2,1*%
%TO.N,+3.3V*%
X73660000Y-43180000D03*
%TO.P,C2,2*%
%TO.N,GND*%
X73660000Y-46305000D03*
%TD*%
D20*
%TO.P,C18,1*%
%TO.N,ADC-4 A1*%
X91378700Y-103162500D03*
%TO.P,C18,2*%
%TO.N,GND*%
X91378700Y-100037500D03*
%TD*%
D19*
%TO.P,C22,1*%
%TO.N,+3.3V*%
X43865000Y-26670000D03*
%TO.P,C22,2*%
%TO.N,GND*%
X46990000Y-26670000D03*
%TD*%
D18*
%TO.P,C3,1*%
%TO.N,ADC-1 A0*%
X62230000Y-42887500D03*
%TO.P,C3,2*%
%TO.N,GND*%
X62230000Y-46012500D03*
%TD*%
%TO.P,C13,1*%
%TO.N,ADC-3 A3*%
X20320000Y-43452500D03*
%TO.P,C13,2*%
%TO.N,GND*%
X20320000Y-46577500D03*
%TD*%
%TO.P,C16,1*%
%TO.N,ADC-3 A0*%
X31750000Y-43745000D03*
%TO.P,C16,2*%
%TO.N,GND*%
X31750000Y-46870000D03*
%TD*%
D20*
%TO.P,C11,1*%
%TO.N,ADC-4 A3*%
X98998700Y-103162500D03*
%TO.P,C11,2*%
%TO.N,GND*%
X98998700Y-100037500D03*
%TD*%
%TO.P,C26,1*%
%TO.N,+3.3V*%
X39370000Y-83527500D03*
%TO.P,C26,2*%
%TO.N,GND*%
X39370000Y-80402500D03*
%TD*%
D21*
%TO.P,C28,1*%
%TO.N,+3.3V*%
X26962500Y-27940000D03*
%TO.P,C28,2*%
%TO.N,GND*%
X23837500Y-27940000D03*
%TD*%
D20*
%TO.P,C15,1*%
%TO.N,ADC-4 A0*%
X87568700Y-103162500D03*
%TO.P,C15,2*%
%TO.N,GND*%
X87568700Y-100037500D03*
%TD*%
%TO.P,C12,1*%
%TO.N,+3.3V*%
X76138700Y-103162500D03*
%TO.P,C12,2*%
%TO.N,GND*%
X76138700Y-100037500D03*
%TD*%
D18*
%TO.P,C19,1*%
%TO.N,ADC-3 A2*%
X24130000Y-43452500D03*
%TO.P,C19,2*%
%TO.N,GND*%
X24130000Y-46577500D03*
%TD*%
D20*
%TO.P,C23,1*%
%TO.N,+12L*%
X34290000Y-100037500D03*
%TO.P,C23,2*%
%TO.N,GND*%
X34290000Y-96912500D03*
%TD*%
D18*
%TO.P,C5,1*%
%TO.N,ADC-1 A1*%
X58420000Y-42887500D03*
%TO.P,C5,2*%
%TO.N,GND*%
X58420000Y-46012500D03*
%TD*%
%TO.P,C6,1*%
%TO.N,ADC-2 A3*%
X83820000Y-42887500D03*
%TO.P,C6,2*%
%TO.N,GND*%
X83820000Y-46012500D03*
%TD*%
D22*
%TO.N,GND*%
X71120000Y-34036000D03*
X40640000Y-33528000D03*
D23*
X73660000Y-80010000D03*
X64770000Y-88900000D03*
X29210000Y-60960000D03*
X20320000Y-52070000D03*
X64770000Y-58420000D03*
X73660000Y-67310000D03*
D24*
X80010000Y-40640000D03*
X80010000Y-33020000D03*
D22*
%TO.N,scl*%
X48766500Y-43251700D03*
%TO.N,sda*%
X57404000Y-36830000D03*
%TO.N,GND*%
X34290000Y-94615000D03*
X87630000Y-96520000D03*
X39370000Y-78105000D03*
X98998700Y-96520000D03*
X91378700Y-96520000D03*
X39370000Y-86360000D03*
X34290000Y-86360000D03*
X95188700Y-96520000D03*
X34290000Y-78105000D03*
X24130000Y-49022000D03*
X20320000Y-48641000D03*
X95250000Y-49530000D03*
X55880000Y-48260000D03*
X41656000Y-49530000D03*
X88900000Y-49530000D03*
X48260000Y-48260000D03*
X27940000Y-49022000D03*
X91440000Y-49530000D03*
X60325000Y-49530000D03*
X76200000Y-97790000D03*
X82550000Y-48260000D03*
X106680000Y-49530000D03*
X32766000Y-49149000D03*
X38354000Y-25146000D03*
X48895000Y-26670000D03*
X23876000Y-30226000D03*
X73673500Y-49530000D03*
%TD*%
D25*
%TO.N,sda*%
X64417100Y-37747100D02*
X66040000Y-39370000D01*
X58321100Y-37747100D02*
X64417100Y-37747100D01*
X57404000Y-36830000D02*
X58321100Y-37747100D01*
D26*
%TO.N,ADC-1 A1*%
X58928000Y-33528000D02*
X58928000Y-32512000D01*
X55880000Y-36576000D02*
X58928000Y-33528000D01*
X58928000Y-32512000D02*
X66040000Y-25400000D01*
X55880000Y-39370000D02*
X55880000Y-36576000D01*
D25*
%TO.N,GND*%
X71120000Y-39370000D02*
X71120000Y-34036000D01*
D26*
%TO.N,ADC-2 A1*%
X92456000Y-32512000D02*
X92456000Y-30988000D01*
X90157400Y-34810600D02*
X92456000Y-32512000D01*
X92456000Y-30988000D02*
X98044000Y-25400000D01*
X90128400Y-34810600D02*
X90157400Y-34810600D01*
X98044000Y-25400000D02*
X100330000Y-25400000D01*
%TO.N,ADC-2 A2*%
X90424000Y-32512000D02*
X86360000Y-36576000D01*
X90424000Y-28448000D02*
X90424000Y-32512000D01*
X93669600Y-25202400D02*
X90424000Y-28448000D01*
X93980000Y-25202400D02*
X93669600Y-25202400D01*
%TO.N,ADC-2 A0*%
X104648000Y-27940000D02*
X106660000Y-25928000D01*
X106660000Y-25928000D02*
X106660000Y-25400000D01*
X100584000Y-27940000D02*
X104648000Y-27940000D01*
X97028000Y-33528000D02*
X97028000Y-31496000D01*
X92912700Y-37643300D02*
X97028000Y-33528000D01*
X91440000Y-39370000D02*
X91440000Y-37643300D01*
X91440000Y-37643300D02*
X92912700Y-37643300D01*
X97028000Y-31496000D02*
X100584000Y-27940000D01*
D25*
%TO.N,+3.3V*%
X109220000Y-36068000D02*
X109220000Y-19812000D01*
X106680000Y-38608000D02*
X109220000Y-36068000D01*
X107188000Y-17780000D02*
X106680000Y-17780000D01*
X106680000Y-39370000D02*
X106680000Y-38608000D01*
X109220000Y-19812000D02*
X107188000Y-17780000D01*
%TO.N,GND*%
X40640000Y-39935000D02*
X40640000Y-33528000D01*
X41656000Y-49530000D02*
X43180000Y-48006000D01*
X43180000Y-48006000D02*
X43180000Y-46577500D01*
X32766000Y-49149000D02*
X31750000Y-48133000D01*
X31750000Y-48133000D02*
X31750000Y-46870000D01*
X27940000Y-46870000D02*
X27940000Y-49022000D01*
X24130000Y-46577500D02*
X24130000Y-49022000D01*
X20320000Y-46577500D02*
X20320000Y-48641000D01*
X23837500Y-30187500D02*
X23837500Y-27940000D01*
X23876000Y-30226000D02*
X23837500Y-30187500D01*
X38354000Y-25146000D02*
X36830000Y-26670000D01*
X48895000Y-26670000D02*
X46990000Y-26670000D01*
X62230000Y-48895000D02*
X62230000Y-46012500D01*
X61595000Y-49530000D02*
X62230000Y-48895000D01*
X60325000Y-49530000D02*
X61595000Y-49530000D01*
X58420000Y-48736250D02*
X58420000Y-46012500D01*
X59213750Y-49530000D02*
X58420000Y-48736250D01*
X60325000Y-49530000D02*
X59213750Y-49530000D01*
X73673500Y-46318500D02*
X73660000Y-46305000D01*
X73673500Y-49530000D02*
X73673500Y-46318500D01*
X98998700Y-96520000D02*
X98998700Y-100037500D01*
X95188700Y-100037500D02*
X95188700Y-96520000D01*
X91378700Y-96520000D02*
X91378700Y-100037500D01*
X87630000Y-96520000D02*
X87568700Y-96581300D01*
X87568700Y-96581300D02*
X87568700Y-100037500D01*
X76138700Y-97851300D02*
X76200000Y-97790000D01*
X76138700Y-100037500D02*
X76138700Y-97851300D01*
X34290000Y-94615000D02*
X34290000Y-96912500D01*
X39370000Y-78105000D02*
X39370000Y-80402500D01*
X34290000Y-78105000D02*
X34290000Y-80402500D01*
X34290000Y-86360000D02*
X34290000Y-88315000D01*
X39370000Y-88315000D02*
X39370000Y-86360000D01*
D27*
X64770000Y-88900000D02*
X73660000Y-80010000D01*
D28*
X80010000Y-33020000D02*
X80010000Y-40640000D01*
D25*
X106680000Y-49530000D02*
X106680000Y-46012500D01*
X91440000Y-49530000D02*
X91440000Y-46012500D01*
X95250000Y-49530000D02*
X95250000Y-46012500D01*
X87630000Y-48260000D02*
X87630000Y-46012500D01*
X88900000Y-49530000D02*
X87630000Y-48260000D01*
X83820000Y-46990000D02*
X83820000Y-46012500D01*
X82550000Y-48260000D02*
X83820000Y-46990000D01*
X50507500Y-46012500D02*
X50800000Y-46012500D01*
X48260000Y-48260000D02*
X50507500Y-46012500D01*
X54610000Y-46990000D02*
X55880000Y-48260000D01*
X54610000Y-46012500D02*
X54610000Y-46990000D01*
%TO.N,+3.3V*%
X71412500Y-103162500D02*
X76138700Y-103162500D01*
X51777500Y-83527500D02*
X71412500Y-103162500D01*
X44599100Y-83527500D02*
X51777500Y-83527500D01*
D27*
%TO.N,GND*%
X20320000Y-52070000D02*
X29210000Y-60960000D01*
X64770000Y-58420000D02*
X73660000Y-67310000D01*
D25*
%TO.N,regen-digitaal*%
X16290500Y-77090500D02*
X17780000Y-78580000D01*
X16290500Y-36550700D02*
X16290500Y-77090500D01*
X21590000Y-31251200D02*
X16290500Y-36550700D01*
X21590000Y-22860000D02*
X21590000Y-31251200D01*
%TO.N,scl*%
X81218700Y-106680000D02*
X81218700Y-44800600D01*
X96169400Y-44800600D02*
X101600000Y-39370000D01*
X81218700Y-44800600D02*
X96169400Y-44800600D01*
X70096200Y-44800600D02*
X81218700Y-44800600D01*
X68580000Y-43284400D02*
X70096200Y-44800600D01*
X68580000Y-39370000D02*
X68580000Y-43284400D01*
X48766500Y-43353800D02*
X48766500Y-43251700D01*
X49764900Y-44352200D02*
X48766500Y-43353800D01*
X67512200Y-44352200D02*
X49764900Y-44352200D01*
X68580000Y-43284400D02*
X67512200Y-44352200D01*
%TO.N,sda*%
X16349600Y-98619600D02*
X17780000Y-100050000D01*
X16349600Y-85712800D02*
X16349600Y-98619600D01*
X35560000Y-66502400D02*
X16349600Y-85712800D01*
X35560000Y-39935000D02*
X35560000Y-66502400D01*
X17780000Y-101400000D02*
X17780000Y-100050000D01*
%TO.N,+5V*%
X39370000Y-91440000D02*
X34290000Y-91440000D01*
X19415000Y-91440000D02*
X19255000Y-91280000D01*
X34290000Y-91440000D02*
X19415000Y-91440000D01*
X17780000Y-91280000D02*
X19255000Y-91280000D01*
%TO.N,+12L*%
X28032500Y-93780000D02*
X17780000Y-93780000D01*
X34290000Y-100037500D02*
X28032500Y-93780000D01*
D26*
%TO.N,ADC-3 A1*%
X25856700Y-41661700D02*
X25400000Y-41661700D01*
X27940000Y-43745000D02*
X25856700Y-41661700D01*
X25400000Y-39935000D02*
X25400000Y-41661700D01*
%TO.N,ADC-3 A2*%
X19050000Y-22860000D02*
X19050000Y-17780000D01*
X22860000Y-42182500D02*
X22860000Y-39935000D01*
X24130000Y-43452500D02*
X22860000Y-42182500D01*
%TO.N,ADC-4 A1*%
X93169500Y-104953300D02*
X93918700Y-104953300D01*
X91378700Y-103162500D02*
X93169500Y-104953300D01*
X93918700Y-106680000D02*
X93918700Y-104953300D01*
%TO.N,ADC-4 A2*%
X96458700Y-104432500D02*
X96458700Y-106680000D01*
X95188700Y-103162500D02*
X96458700Y-104432500D01*
%TO.N,ADC-3 A0*%
X27940000Y-39935000D02*
X27940000Y-38208300D01*
X41910000Y-24320800D02*
X41910000Y-17780000D01*
X28022500Y-38208300D02*
X41910000Y-24320800D01*
X27940000Y-38208300D02*
X28022500Y-38208300D01*
X29666700Y-41661700D02*
X27940000Y-41661700D01*
X31750000Y-43745000D02*
X29666700Y-41661700D01*
X27940000Y-39935000D02*
X27940000Y-41661700D01*
%TO.N,ADC-4 A0*%
X87861200Y-103162500D02*
X91378700Y-106680000D01*
X87568700Y-103162500D02*
X87861200Y-103162500D01*
%TO.N,ADC-3 A3*%
X20320000Y-43452500D02*
X20320000Y-39935000D01*
%TO.N,ADC-4 A3*%
X98998700Y-103162500D02*
X98998700Y-106680000D01*
%TO.N,ADC-2 A1*%
X100330000Y-25400000D02*
X100330000Y-20320000D01*
X90128400Y-36414900D02*
X88900000Y-37643300D01*
X90128400Y-34810600D02*
X90128400Y-36414900D01*
X88900000Y-39370000D02*
X88900000Y-37643300D01*
X89649200Y-41096700D02*
X88900000Y-41096700D01*
X91440000Y-42887500D02*
X89649200Y-41096700D01*
X88900000Y-39370000D02*
X88900000Y-41096700D01*
%TO.N,ADC-2 A2*%
X93980000Y-25400000D02*
X93980000Y-20320000D01*
X86360000Y-41617500D02*
X86360000Y-39370000D01*
X87630000Y-42887500D02*
X86360000Y-41617500D01*
X86360000Y-36773600D02*
X86360000Y-39370000D01*
%TO.N,ADC-2 A0*%
X94957500Y-42887500D02*
X91440000Y-39370000D01*
X95250000Y-42887500D02*
X94957500Y-42887500D01*
%TO.N,ADC-2 A3*%
X87630000Y-25400000D02*
X87630000Y-20320000D01*
X83820000Y-42887500D02*
X83820000Y-39370000D01*
X83820000Y-29210000D02*
X87630000Y-25400000D01*
X83820000Y-39370000D02*
X83820000Y-29210000D01*
%TO.N,ADC-1 A1*%
X55880000Y-39370000D02*
X55880000Y-41096700D01*
X66040000Y-25400000D02*
X66040000Y-17780000D01*
X56629200Y-41096700D02*
X55880000Y-41096700D01*
X58420000Y-42887500D02*
X56629200Y-41096700D01*
%TO.N,ADC-1 A2*%
X55880000Y-17780000D02*
X55880000Y-25400000D01*
X53340000Y-27940000D02*
X53340000Y-39370000D01*
X55880000Y-25400000D02*
X53340000Y-27940000D01*
X53340000Y-41617500D02*
X53340000Y-39370000D01*
X54610000Y-42887500D02*
X53340000Y-41617500D01*
%TO.N,ADC-1 A0*%
X76200000Y-17780000D02*
X76200000Y-25400000D01*
X61937500Y-42887500D02*
X58420000Y-39370000D01*
X62230000Y-42887500D02*
X61937500Y-42887500D01*
D25*
%TO.N,+3.3V*%
X23032500Y-83527500D02*
X17780000Y-88780000D01*
X34290000Y-83527500D02*
X23032500Y-83527500D01*
X34290000Y-17780000D02*
X34290000Y-19130000D01*
X106680000Y-42887500D02*
X106680000Y-39370000D01*
X33705000Y-19715000D02*
X34290000Y-19130000D01*
X33705000Y-26670000D02*
X33705000Y-19715000D01*
X76138700Y-103162500D02*
X76138700Y-106680000D01*
X73660000Y-39370000D02*
X73660000Y-43180000D01*
X100330000Y-17780000D02*
X98980000Y-17780000D01*
X93980000Y-17780000D02*
X95330000Y-17780000D01*
X96520000Y-39370000D02*
X96520000Y-38020000D01*
X95975000Y-18425000D02*
X96520000Y-18425000D01*
X95330000Y-17780000D02*
X95975000Y-18425000D01*
X98335000Y-18425000D02*
X98980000Y-17780000D01*
X96520000Y-18425000D02*
X98335000Y-18425000D01*
X26670000Y-23458200D02*
X26670000Y-24210000D01*
X26670000Y-23458200D02*
X26670000Y-22860000D01*
X25320000Y-21510000D02*
X21590000Y-17780000D01*
X26670000Y-21510000D02*
X25320000Y-21510000D01*
X26670000Y-22860000D02*
X26670000Y-21510000D01*
X28232500Y-25772500D02*
X26670000Y-24210000D01*
X28232500Y-26670000D02*
X28232500Y-25772500D01*
X33705000Y-26670000D02*
X28232500Y-26670000D01*
X28232500Y-26670000D02*
X26962500Y-27940000D01*
X43180000Y-39935000D02*
X43180000Y-43452500D01*
X44599100Y-44871600D02*
X44599100Y-83527500D01*
X43180000Y-43452500D02*
X44599100Y-44871600D01*
X44599100Y-83527500D02*
X39370000Y-83527500D01*
X39370000Y-83527500D02*
X34290000Y-83527500D01*
X44450000Y-17780000D02*
X44450000Y-19130000D01*
X105330000Y-38020000D02*
X106680000Y-39370000D01*
X96520000Y-38020000D02*
X105330000Y-38020000D01*
X73700000Y-37980000D02*
X73660000Y-38020000D01*
X73700000Y-17780000D02*
X73700000Y-37980000D01*
X73660000Y-39370000D02*
X73660000Y-38020000D01*
X43865000Y-19715000D02*
X43865000Y-26670000D01*
X44450000Y-19130000D02*
X43865000Y-19715000D01*
X43865000Y-37900000D02*
X43180000Y-38585000D01*
X43865000Y-26670000D02*
X43865000Y-37900000D01*
X43180000Y-39935000D02*
X43180000Y-38585000D01*
D26*
%TO.N,ADC-1 A3*%
X50800000Y-42887500D02*
X50800000Y-39370000D01*
%TD*%
M02*
