M48
; DRILL file {KiCad 8.0.3} date 2024-07-01T16:32:08+0200
; FORMAT={-:-/ absolute / inch / decimal}
; #@! TF.CreationDate,2024-07-01T16:32:08+02:00
; #@! TF.GenerationSoftware,Kicad,Pcbnew,8.0.3
; #@! TF.FileFunction,Plated,1,2,PTH
FMAT,2
INCH
; #@! TA.AperFunction,Plated,PTH,ComponentDrill
T1C0.0374
; #@! TA.AperFunction,Plated,PTH,ComponentDrill
T2C0.0394
; #@! TA.AperFunction,Plated,PTH,ComponentDrill
T3C0.0402
; #@! TA.AperFunction,Plated,PTH,ComponentDrill
T4C0.0472
; #@! TA.AperFunction,Plated,PTH,ComponentDrill
T5C0.0630
; #@! TA.AperFunction,Plated,PTH,ComponentDrill
T6C0.0984
%
G90
G05
T1
X0.9031Y-4.2
X1.0016Y-4.2
X1.1Y-4.2
X1.5Y-4.2
X1.5984Y-4.2
X1.6969Y-4.2
X1.7953Y-4.2
X2.2Y-4.2
X2.2984Y-4.2
X2.3969Y-4.2
X2.4953Y-4.2
X2.5937Y-4.2
T2
X0.75Y-2.9
X0.75Y-3.5
X0.85Y-2.9
X0.85Y-3.5
X0.95Y-2.9
X0.95Y-3.5
X1.05Y-2.9
X1.05Y-3.5
X1.15Y-2.9
X1.15Y-3.5
X1.25Y-2.9
X1.25Y-3.5
X1.35Y-2.9
X1.35Y-3.5
X1.45Y-2.9
X1.45Y-3.5
X1.55Y-2.9
X1.55Y-3.5
X1.65Y-2.9
X1.65Y-3.5
X1.75Y-2.9
X1.75Y-3.5
X1.85Y-2.9
X1.85Y-3.5
X2.2Y-0.7
X2.3Y-0.7
X2.4Y-0.7
X2.5Y-0.7
X2.6Y-0.7
X2.7Y-0.7
X2.8Y-0.7
X3.0Y-4.3
X3.1Y-4.3
X3.2Y-3.4
X3.2Y-3.8
X3.2Y-4.3
X3.3Y-3.2
X3.3Y-3.6
X3.3Y-4.3
X3.4Y-3.2
X3.4Y-3.4
X3.4Y-3.6
X3.4Y-3.8
X3.4Y-4.3
X3.5Y-3.2
X3.5Y-3.4
X3.5Y-3.6
X3.5Y-3.8
X3.5Y-4.3
X3.6Y-3.2
X3.6Y-3.4
X3.6Y-3.6
X3.6Y-3.8
X3.9Y-3.4
X3.9Y-3.8
X4.0Y-0.7
X4.0Y-0.8
X4.0Y-0.9
X4.0Y-1.0
X4.0Y-1.1
X4.0Y-3.2
X4.0Y-3.6
X4.1Y-3.2
X4.1Y-3.4
X4.1Y-3.6
X4.1Y-3.8
X4.2Y-3.2
X4.2Y-3.4
X4.2Y-3.6
X4.2Y-3.8
X4.3Y-0.7
X4.3Y-0.8
X4.3Y-0.9
X4.3Y-1.0
X4.3Y-3.2
X4.3Y-3.4
X4.3Y-3.6
X4.3Y-3.8
T3
X0.8Y-1.0
X0.8Y-1.1
X0.8Y-1.2
X0.8Y-1.3
X0.8Y-1.4
X0.8Y-1.5
X0.8Y-1.6
X0.8Y-1.7
X0.8Y-1.8
X0.8Y-1.9
X0.8Y-2.0
X0.8Y-2.1
X0.8Y-2.2
X0.8Y-2.3
X0.8Y-2.4
X1.8Y-1.0
X1.8Y-1.1
X1.8Y-1.2
X1.8Y-1.3
X1.8Y-1.4
X1.8Y-1.5
X1.8Y-1.6
X1.8Y-1.7
X1.8Y-1.8
X1.8Y-1.9
X1.8Y-2.0
X1.8Y-2.1
X1.8Y-2.2
X1.8Y-2.3
X1.8Y-2.4
T4
X4.1992Y-2.107
X4.1992Y-2.2448
X4.2Y-1.4188
X4.2Y-1.5566
X4.2Y-1.7622
X4.2Y-1.9
X4.2Y-2.4518
X4.2Y-2.5896
X4.2Y-2.8
X4.2Y-2.9378
T5
X3.25Y-1.6
X3.25Y-2.0
X3.25Y-2.4
X3.75Y-1.6
X3.75Y-2.0
X3.75Y-2.4
T6
X0.8Y-3.2
X1.8Y-3.2
M30
