%TF.GenerationSoftware,KiCad,Pcbnew,8.0.3*%
%TF.CreationDate,2024-07-01T16:32:00+02:00*%
%TF.ProjectId,weerstation-main,77656572-7374-4617-9469-6f6e2d6d6169,rev?*%
%TF.SameCoordinates,Original*%
%TF.FileFunction,Legend,Top*%
%TF.FilePolarity,Positive*%
%FSLAX46Y46*%
G04 Gerber Fmt 4.6, Leading zero omitted, Abs format (unit mm)*
G04 Created by KiCad (PCBNEW 8.0.3) date 2024-07-01 16:32:00*
%MOMM*%
%LPD*%
G01*
G04 APERTURE LIST*
%ADD10C,0.150000*%
%ADD11C,0.120000*%
G04 APERTURE END LIST*
D10*
X70789580Y-56522857D02*
X70837200Y-56570476D01*
X70837200Y-56570476D02*
X70884819Y-56713333D01*
X70884819Y-56713333D02*
X70884819Y-56808571D01*
X70884819Y-56808571D02*
X70837200Y-56951428D01*
X70837200Y-56951428D02*
X70741961Y-57046666D01*
X70741961Y-57046666D02*
X70646723Y-57094285D01*
X70646723Y-57094285D02*
X70456247Y-57141904D01*
X70456247Y-57141904D02*
X70313390Y-57141904D01*
X70313390Y-57141904D02*
X70122914Y-57094285D01*
X70122914Y-57094285D02*
X70027676Y-57046666D01*
X70027676Y-57046666D02*
X69932438Y-56951428D01*
X69932438Y-56951428D02*
X69884819Y-56808571D01*
X69884819Y-56808571D02*
X69884819Y-56713333D01*
X69884819Y-56713333D02*
X69932438Y-56570476D01*
X69932438Y-56570476D02*
X69980057Y-56522857D01*
X70884819Y-55570476D02*
X70884819Y-56141904D01*
X70884819Y-55856190D02*
X69884819Y-55856190D01*
X69884819Y-55856190D02*
X70027676Y-55951428D01*
X70027676Y-55951428D02*
X70122914Y-56046666D01*
X70122914Y-56046666D02*
X70170533Y-56141904D01*
X69884819Y-55237142D02*
X69884819Y-54618095D01*
X69884819Y-54618095D02*
X70265771Y-54951428D01*
X70265771Y-54951428D02*
X70265771Y-54808571D01*
X70265771Y-54808571D02*
X70313390Y-54713333D01*
X70313390Y-54713333D02*
X70361009Y-54665714D01*
X70361009Y-54665714D02*
X70456247Y-54618095D01*
X70456247Y-54618095D02*
X70694342Y-54618095D01*
X70694342Y-54618095D02*
X70789580Y-54665714D01*
X70789580Y-54665714D02*
X70837200Y-54713333D01*
X70837200Y-54713333D02*
X70884819Y-54808571D01*
X70884819Y-54808571D02*
X70884819Y-55094285D01*
X70884819Y-55094285D02*
X70837200Y-55189523D01*
X70837200Y-55189523D02*
X70789580Y-55237142D01*
X66074819Y-46481904D02*
X66884342Y-46481904D01*
X66884342Y-46481904D02*
X66979580Y-46434285D01*
X66979580Y-46434285D02*
X67027200Y-46386666D01*
X67027200Y-46386666D02*
X67074819Y-46291428D01*
X67074819Y-46291428D02*
X67074819Y-46100952D01*
X67074819Y-46100952D02*
X67027200Y-46005714D01*
X67027200Y-46005714D02*
X66979580Y-45958095D01*
X66979580Y-45958095D02*
X66884342Y-45910476D01*
X66884342Y-45910476D02*
X66074819Y-45910476D01*
X66170057Y-45481904D02*
X66122438Y-45434285D01*
X66122438Y-45434285D02*
X66074819Y-45339047D01*
X66074819Y-45339047D02*
X66074819Y-45100952D01*
X66074819Y-45100952D02*
X66122438Y-45005714D01*
X66122438Y-45005714D02*
X66170057Y-44958095D01*
X66170057Y-44958095D02*
X66265295Y-44910476D01*
X66265295Y-44910476D02*
X66360533Y-44910476D01*
X66360533Y-44910476D02*
X66503390Y-44958095D01*
X66503390Y-44958095D02*
X67074819Y-45529523D01*
X67074819Y-45529523D02*
X67074819Y-44910476D01*
X63359575Y-25268615D02*
X63311956Y-25316235D01*
X63311956Y-25316235D02*
X63169099Y-25363854D01*
X63169099Y-25363854D02*
X63073861Y-25363854D01*
X63073861Y-25363854D02*
X62931004Y-25316235D01*
X62931004Y-25316235D02*
X62835766Y-25220996D01*
X62835766Y-25220996D02*
X62788147Y-25125758D01*
X62788147Y-25125758D02*
X62740528Y-24935282D01*
X62740528Y-24935282D02*
X62740528Y-24792425D01*
X62740528Y-24792425D02*
X62788147Y-24601949D01*
X62788147Y-24601949D02*
X62835766Y-24506711D01*
X62835766Y-24506711D02*
X62931004Y-24411473D01*
X62931004Y-24411473D02*
X63073861Y-24363854D01*
X63073861Y-24363854D02*
X63169099Y-24363854D01*
X63169099Y-24363854D02*
X63311956Y-24411473D01*
X63311956Y-24411473D02*
X63359575Y-24459092D01*
X63931004Y-24792425D02*
X63835766Y-24744806D01*
X63835766Y-24744806D02*
X63788147Y-24697187D01*
X63788147Y-24697187D02*
X63740528Y-24601949D01*
X63740528Y-24601949D02*
X63740528Y-24554330D01*
X63740528Y-24554330D02*
X63788147Y-24459092D01*
X63788147Y-24459092D02*
X63835766Y-24411473D01*
X63835766Y-24411473D02*
X63931004Y-24363854D01*
X63931004Y-24363854D02*
X64121480Y-24363854D01*
X64121480Y-24363854D02*
X64216718Y-24411473D01*
X64216718Y-24411473D02*
X64264337Y-24459092D01*
X64264337Y-24459092D02*
X64311956Y-24554330D01*
X64311956Y-24554330D02*
X64311956Y-24601949D01*
X64311956Y-24601949D02*
X64264337Y-24697187D01*
X64264337Y-24697187D02*
X64216718Y-24744806D01*
X64216718Y-24744806D02*
X64121480Y-24792425D01*
X64121480Y-24792425D02*
X63931004Y-24792425D01*
X63931004Y-24792425D02*
X63835766Y-24840044D01*
X63835766Y-24840044D02*
X63788147Y-24887663D01*
X63788147Y-24887663D02*
X63740528Y-24982901D01*
X63740528Y-24982901D02*
X63740528Y-25173377D01*
X63740528Y-25173377D02*
X63788147Y-25268615D01*
X63788147Y-25268615D02*
X63835766Y-25316235D01*
X63835766Y-25316235D02*
X63931004Y-25363854D01*
X63931004Y-25363854D02*
X64121480Y-25363854D01*
X64121480Y-25363854D02*
X64216718Y-25316235D01*
X64216718Y-25316235D02*
X64264337Y-25268615D01*
X64264337Y-25268615D02*
X64311956Y-25173377D01*
X64311956Y-25173377D02*
X64311956Y-24982901D01*
X64311956Y-24982901D02*
X64264337Y-24887663D01*
X64264337Y-24887663D02*
X64216718Y-24840044D01*
X64216718Y-24840044D02*
X64121480Y-24792425D01*
X75869580Y-56522857D02*
X75917200Y-56570476D01*
X75917200Y-56570476D02*
X75964819Y-56713333D01*
X75964819Y-56713333D02*
X75964819Y-56808571D01*
X75964819Y-56808571D02*
X75917200Y-56951428D01*
X75917200Y-56951428D02*
X75821961Y-57046666D01*
X75821961Y-57046666D02*
X75726723Y-57094285D01*
X75726723Y-57094285D02*
X75536247Y-57141904D01*
X75536247Y-57141904D02*
X75393390Y-57141904D01*
X75393390Y-57141904D02*
X75202914Y-57094285D01*
X75202914Y-57094285D02*
X75107676Y-57046666D01*
X75107676Y-57046666D02*
X75012438Y-56951428D01*
X75012438Y-56951428D02*
X74964819Y-56808571D01*
X74964819Y-56808571D02*
X74964819Y-56713333D01*
X74964819Y-56713333D02*
X75012438Y-56570476D01*
X75012438Y-56570476D02*
X75060057Y-56522857D01*
X75964819Y-55570476D02*
X75964819Y-56141904D01*
X75964819Y-55856190D02*
X74964819Y-55856190D01*
X74964819Y-55856190D02*
X75107676Y-55951428D01*
X75107676Y-55951428D02*
X75202914Y-56046666D01*
X75202914Y-56046666D02*
X75250533Y-56141904D01*
X75298152Y-54713333D02*
X75964819Y-54713333D01*
X74917200Y-54951428D02*
X75631485Y-55189523D01*
X75631485Y-55189523D02*
X75631485Y-54570476D01*
X42068466Y-26789166D02*
X42116086Y-26836785D01*
X42116086Y-26836785D02*
X42163705Y-26979642D01*
X42163705Y-26979642D02*
X42163705Y-27074880D01*
X42163705Y-27074880D02*
X42116086Y-27217737D01*
X42116086Y-27217737D02*
X42020847Y-27312975D01*
X42020847Y-27312975D02*
X41925609Y-27360594D01*
X41925609Y-27360594D02*
X41735133Y-27408213D01*
X41735133Y-27408213D02*
X41592276Y-27408213D01*
X41592276Y-27408213D02*
X41401800Y-27360594D01*
X41401800Y-27360594D02*
X41306562Y-27312975D01*
X41306562Y-27312975D02*
X41211324Y-27217737D01*
X41211324Y-27217737D02*
X41163705Y-27074880D01*
X41163705Y-27074880D02*
X41163705Y-26979642D01*
X41163705Y-26979642D02*
X41211324Y-26836785D01*
X41211324Y-26836785D02*
X41258943Y-26789166D01*
X42163705Y-25836785D02*
X42163705Y-26408213D01*
X42163705Y-26122499D02*
X41163705Y-26122499D01*
X41163705Y-26122499D02*
X41306562Y-26217737D01*
X41306562Y-26217737D02*
X41401800Y-26312975D01*
X41401800Y-26312975D02*
X41449419Y-26408213D01*
D11*
%TO.C,C13*%
X67670000Y-55168748D02*
X67670000Y-56591252D01*
X69490000Y-55168748D02*
X69490000Y-56591252D01*
%TO.C,U2*%
X67710000Y-43810000D02*
X68970000Y-43810000D01*
X67710000Y-49820000D02*
X67710000Y-43810000D01*
X74530000Y-43810000D02*
X73270000Y-43810000D01*
X74530000Y-47570000D02*
X74530000Y-43810000D01*
%TO.C,C8*%
X62788748Y-21950000D02*
X64211252Y-21950000D01*
X62788748Y-23770000D02*
X64211252Y-23770000D01*
%TO.C,C14*%
X72750000Y-55168748D02*
X72750000Y-56591252D01*
X74570000Y-55168748D02*
X74570000Y-56591252D01*
%TO.C,C1*%
X38948886Y-25911248D02*
X38948886Y-27333752D01*
X40768886Y-25911248D02*
X40768886Y-27333752D01*
%TD*%
M02*
