%TF.GenerationSoftware,KiCad,Pcbnew,8.0.3*%
%TF.CreationDate,2024-11-03T20:36:31+01:00*%
%TF.ProjectId,weerstation-power,77656572-7374-4617-9469-6f6e2d706f77,rev?*%
%TF.SameCoordinates,Original*%
%TF.FileFunction,Legend,Top*%
%TF.FilePolarity,Positive*%
%FSLAX46Y46*%
G04 Gerber Fmt 4.6, Leading zero omitted, Abs format (unit mm)*
G04 Created by KiCad (PCBNEW 8.0.3) date 2024-11-03 20:36:31*
%MOMM*%
%LPD*%
G01*
G04 APERTURE LIST*
%ADD10C,0.150000*%
%ADD11C,0.120000*%
G04 APERTURE END LIST*
D10*
X19238095Y-95154819D02*
X19238095Y-94154819D01*
X19238095Y-94631009D02*
X19809523Y-94631009D01*
X19809523Y-95154819D02*
X19809523Y-94154819D01*
X20714285Y-94488152D02*
X20714285Y-95154819D01*
X20476190Y-94107200D02*
X20238095Y-94821485D01*
X20238095Y-94821485D02*
X20857142Y-94821485D01*
X99238095Y-95154819D02*
X99238095Y-94154819D01*
X99238095Y-94631009D02*
X99809523Y-94631009D01*
X99809523Y-95154819D02*
X99809523Y-94154819D01*
X100190476Y-94154819D02*
X100809523Y-94154819D01*
X100809523Y-94154819D02*
X100476190Y-94535771D01*
X100476190Y-94535771D02*
X100619047Y-94535771D01*
X100619047Y-94535771D02*
X100714285Y-94583390D01*
X100714285Y-94583390D02*
X100761904Y-94631009D01*
X100761904Y-94631009D02*
X100809523Y-94726247D01*
X100809523Y-94726247D02*
X100809523Y-94964342D01*
X100809523Y-94964342D02*
X100761904Y-95059580D01*
X100761904Y-95059580D02*
X100714285Y-95107200D01*
X100714285Y-95107200D02*
X100619047Y-95154819D01*
X100619047Y-95154819D02*
X100333333Y-95154819D01*
X100333333Y-95154819D02*
X100238095Y-95107200D01*
X100238095Y-95107200D02*
X100190476Y-95059580D01*
X49238095Y-15154819D02*
X49238095Y-14154819D01*
X49238095Y-14631009D02*
X49809523Y-14631009D01*
X49809523Y-15154819D02*
X49809523Y-14154819D01*
X50238095Y-14250057D02*
X50285714Y-14202438D01*
X50285714Y-14202438D02*
X50380952Y-14154819D01*
X50380952Y-14154819D02*
X50619047Y-14154819D01*
X50619047Y-14154819D02*
X50714285Y-14202438D01*
X50714285Y-14202438D02*
X50761904Y-14250057D01*
X50761904Y-14250057D02*
X50809523Y-14345295D01*
X50809523Y-14345295D02*
X50809523Y-14440533D01*
X50809523Y-14440533D02*
X50761904Y-14583390D01*
X50761904Y-14583390D02*
X50190476Y-15154819D01*
X50190476Y-15154819D02*
X50809523Y-15154819D01*
X19238095Y-15154819D02*
X19238095Y-14154819D01*
X19238095Y-14631009D02*
X19809523Y-14631009D01*
X19809523Y-15154819D02*
X19809523Y-14154819D01*
X20809523Y-15154819D02*
X20238095Y-15154819D01*
X20523809Y-15154819D02*
X20523809Y-14154819D01*
X20523809Y-14154819D02*
X20428571Y-14297676D01*
X20428571Y-14297676D02*
X20333333Y-14392914D01*
X20333333Y-14392914D02*
X20238095Y-14440533D01*
X38843976Y-105977319D02*
X38843976Y-106691604D01*
X38843976Y-106691604D02*
X38796357Y-106834461D01*
X38796357Y-106834461D02*
X38701119Y-106929700D01*
X38701119Y-106929700D02*
X38558262Y-106977319D01*
X38558262Y-106977319D02*
X38463024Y-106977319D01*
X39843976Y-106977319D02*
X39272548Y-106977319D01*
X39558262Y-106977319D02*
X39558262Y-105977319D01*
X39558262Y-105977319D02*
X39463024Y-106120176D01*
X39463024Y-106120176D02*
X39367786Y-106215414D01*
X39367786Y-106215414D02*
X39272548Y-106263033D01*
X40224929Y-106072557D02*
X40272548Y-106024938D01*
X40272548Y-106024938D02*
X40367786Y-105977319D01*
X40367786Y-105977319D02*
X40605881Y-105977319D01*
X40605881Y-105977319D02*
X40701119Y-106024938D01*
X40701119Y-106024938D02*
X40748738Y-106072557D01*
X40748738Y-106072557D02*
X40796357Y-106167795D01*
X40796357Y-106167795D02*
X40796357Y-106263033D01*
X40796357Y-106263033D02*
X40748738Y-106405890D01*
X40748738Y-106405890D02*
X40177310Y-106977319D01*
X40177310Y-106977319D02*
X40796357Y-106977319D01*
X32470166Y-95589700D02*
X32565404Y-95637319D01*
X32565404Y-95637319D02*
X32755880Y-95637319D01*
X32755880Y-95637319D02*
X32851118Y-95589700D01*
X32851118Y-95589700D02*
X32898737Y-95494461D01*
X32898737Y-95494461D02*
X32898737Y-95446842D01*
X32898737Y-95446842D02*
X32851118Y-95351604D01*
X32851118Y-95351604D02*
X32755880Y-95303985D01*
X32755880Y-95303985D02*
X32613023Y-95303985D01*
X32613023Y-95303985D02*
X32517785Y-95256366D01*
X32517785Y-95256366D02*
X32470166Y-95161128D01*
X32470166Y-95161128D02*
X32470166Y-95113509D01*
X32470166Y-95113509D02*
X32517785Y-95018271D01*
X32517785Y-95018271D02*
X32613023Y-94970652D01*
X32613023Y-94970652D02*
X32755880Y-94970652D01*
X32755880Y-94970652D02*
X32851118Y-95018271D01*
X33708261Y-95589700D02*
X33613023Y-95637319D01*
X33613023Y-95637319D02*
X33422547Y-95637319D01*
X33422547Y-95637319D02*
X33327309Y-95589700D01*
X33327309Y-95589700D02*
X33279690Y-95494461D01*
X33279690Y-95494461D02*
X33279690Y-95113509D01*
X33279690Y-95113509D02*
X33327309Y-95018271D01*
X33327309Y-95018271D02*
X33422547Y-94970652D01*
X33422547Y-94970652D02*
X33613023Y-94970652D01*
X33613023Y-94970652D02*
X33708261Y-95018271D01*
X33708261Y-95018271D02*
X33755880Y-95113509D01*
X33755880Y-95113509D02*
X33755880Y-95208747D01*
X33755880Y-95208747D02*
X33279690Y-95303985D01*
X34184452Y-95637319D02*
X34184452Y-94970652D01*
X34184452Y-95161128D02*
X34232071Y-95065890D01*
X34232071Y-95065890D02*
X34279690Y-95018271D01*
X34279690Y-95018271D02*
X34374928Y-94970652D01*
X34374928Y-94970652D02*
X34470166Y-94970652D01*
X34708262Y-94970652D02*
X34946357Y-95637319D01*
X34946357Y-95637319D02*
X35184452Y-94970652D01*
X35708262Y-95637319D02*
X35613024Y-95589700D01*
X35613024Y-95589700D02*
X35565405Y-95542080D01*
X35565405Y-95542080D02*
X35517786Y-95446842D01*
X35517786Y-95446842D02*
X35517786Y-95161128D01*
X35517786Y-95161128D02*
X35565405Y-95065890D01*
X35565405Y-95065890D02*
X35613024Y-95018271D01*
X35613024Y-95018271D02*
X35708262Y-94970652D01*
X35708262Y-94970652D02*
X35851119Y-94970652D01*
X35851119Y-94970652D02*
X35946357Y-95018271D01*
X35946357Y-95018271D02*
X35993976Y-95065890D01*
X35993976Y-95065890D02*
X36041595Y-95161128D01*
X36041595Y-95161128D02*
X36041595Y-95446842D01*
X36041595Y-95446842D02*
X35993976Y-95542080D01*
X35993976Y-95542080D02*
X35946357Y-95589700D01*
X35946357Y-95589700D02*
X35851119Y-95637319D01*
X35851119Y-95637319D02*
X35708262Y-95637319D01*
X36232072Y-95732557D02*
X36993976Y-95732557D01*
X37232072Y-94970652D02*
X37232072Y-95970652D01*
X37232072Y-95018271D02*
X37327310Y-94970652D01*
X37327310Y-94970652D02*
X37517786Y-94970652D01*
X37517786Y-94970652D02*
X37613024Y-95018271D01*
X37613024Y-95018271D02*
X37660643Y-95065890D01*
X37660643Y-95065890D02*
X37708262Y-95161128D01*
X37708262Y-95161128D02*
X37708262Y-95446842D01*
X37708262Y-95446842D02*
X37660643Y-95542080D01*
X37660643Y-95542080D02*
X37613024Y-95589700D01*
X37613024Y-95589700D02*
X37517786Y-95637319D01*
X37517786Y-95637319D02*
X37327310Y-95637319D01*
X37327310Y-95637319D02*
X37232072Y-95589700D01*
X38279691Y-95637319D02*
X38184453Y-95589700D01*
X38184453Y-95589700D02*
X38136834Y-95542080D01*
X38136834Y-95542080D02*
X38089215Y-95446842D01*
X38089215Y-95446842D02*
X38089215Y-95161128D01*
X38089215Y-95161128D02*
X38136834Y-95065890D01*
X38136834Y-95065890D02*
X38184453Y-95018271D01*
X38184453Y-95018271D02*
X38279691Y-94970652D01*
X38279691Y-94970652D02*
X38422548Y-94970652D01*
X38422548Y-94970652D02*
X38517786Y-95018271D01*
X38517786Y-95018271D02*
X38565405Y-95065890D01*
X38565405Y-95065890D02*
X38613024Y-95161128D01*
X38613024Y-95161128D02*
X38613024Y-95446842D01*
X38613024Y-95446842D02*
X38565405Y-95542080D01*
X38565405Y-95542080D02*
X38517786Y-95589700D01*
X38517786Y-95589700D02*
X38422548Y-95637319D01*
X38422548Y-95637319D02*
X38279691Y-95637319D01*
X38946358Y-94970652D02*
X39136834Y-95637319D01*
X39136834Y-95637319D02*
X39327310Y-95161128D01*
X39327310Y-95161128D02*
X39517786Y-95637319D01*
X39517786Y-95637319D02*
X39708262Y-94970652D01*
X40470167Y-95589700D02*
X40374929Y-95637319D01*
X40374929Y-95637319D02*
X40184453Y-95637319D01*
X40184453Y-95637319D02*
X40089215Y-95589700D01*
X40089215Y-95589700D02*
X40041596Y-95494461D01*
X40041596Y-95494461D02*
X40041596Y-95113509D01*
X40041596Y-95113509D02*
X40089215Y-95018271D01*
X40089215Y-95018271D02*
X40184453Y-94970652D01*
X40184453Y-94970652D02*
X40374929Y-94970652D01*
X40374929Y-94970652D02*
X40470167Y-95018271D01*
X40470167Y-95018271D02*
X40517786Y-95113509D01*
X40517786Y-95113509D02*
X40517786Y-95208747D01*
X40517786Y-95208747D02*
X40041596Y-95303985D01*
X40946358Y-95637319D02*
X40946358Y-94970652D01*
X40946358Y-95161128D02*
X40993977Y-95065890D01*
X40993977Y-95065890D02*
X41041596Y-95018271D01*
X41041596Y-95018271D02*
X41136834Y-94970652D01*
X41136834Y-94970652D02*
X41232072Y-94970652D01*
X13904819Y-37333333D02*
X14619104Y-37333333D01*
X14619104Y-37333333D02*
X14761961Y-37380952D01*
X14761961Y-37380952D02*
X14857200Y-37476190D01*
X14857200Y-37476190D02*
X14904819Y-37619047D01*
X14904819Y-37619047D02*
X14904819Y-37714285D01*
X14904819Y-36333333D02*
X14904819Y-36904761D01*
X14904819Y-36619047D02*
X13904819Y-36619047D01*
X13904819Y-36619047D02*
X14047676Y-36714285D01*
X14047676Y-36714285D02*
X14142914Y-36809523D01*
X14142914Y-36809523D02*
X14190533Y-36904761D01*
X23280819Y-48972192D02*
X22757009Y-48972192D01*
X22757009Y-48972192D02*
X22661771Y-49019811D01*
X22661771Y-49019811D02*
X22614152Y-49115049D01*
X22614152Y-49115049D02*
X22614152Y-49305525D01*
X22614152Y-49305525D02*
X22661771Y-49400763D01*
X23233200Y-48972192D02*
X23280819Y-49067430D01*
X23280819Y-49067430D02*
X23280819Y-49305525D01*
X23280819Y-49305525D02*
X23233200Y-49400763D01*
X23233200Y-49400763D02*
X23137961Y-49448382D01*
X23137961Y-49448382D02*
X23042723Y-49448382D01*
X23042723Y-49448382D02*
X22947485Y-49400763D01*
X22947485Y-49400763D02*
X22899866Y-49305525D01*
X22899866Y-49305525D02*
X22899866Y-49067430D01*
X22899866Y-49067430D02*
X22852247Y-48972192D01*
X22614152Y-48496001D02*
X23280819Y-48496001D01*
X22709390Y-48496001D02*
X22661771Y-48448382D01*
X22661771Y-48448382D02*
X22614152Y-48353144D01*
X22614152Y-48353144D02*
X22614152Y-48210287D01*
X22614152Y-48210287D02*
X22661771Y-48115049D01*
X22661771Y-48115049D02*
X22757009Y-48067430D01*
X22757009Y-48067430D02*
X23280819Y-48067430D01*
X23280819Y-47162668D02*
X22757009Y-47162668D01*
X22757009Y-47162668D02*
X22661771Y-47210287D01*
X22661771Y-47210287D02*
X22614152Y-47305525D01*
X22614152Y-47305525D02*
X22614152Y-47496001D01*
X22614152Y-47496001D02*
X22661771Y-47591239D01*
X23233200Y-47162668D02*
X23280819Y-47257906D01*
X23280819Y-47257906D02*
X23280819Y-47496001D01*
X23280819Y-47496001D02*
X23233200Y-47591239D01*
X23233200Y-47591239D02*
X23137961Y-47638858D01*
X23137961Y-47638858D02*
X23042723Y-47638858D01*
X23042723Y-47638858D02*
X22947485Y-47591239D01*
X22947485Y-47591239D02*
X22899866Y-47496001D01*
X22899866Y-47496001D02*
X22899866Y-47257906D01*
X22899866Y-47257906D02*
X22852247Y-47162668D01*
X23280819Y-46543620D02*
X23233200Y-46638858D01*
X23233200Y-46638858D02*
X23137961Y-46686477D01*
X23137961Y-46686477D02*
X22280819Y-46686477D01*
X23280819Y-46019810D02*
X23233200Y-46115048D01*
X23233200Y-46115048D02*
X23185580Y-46162667D01*
X23185580Y-46162667D02*
X23090342Y-46210286D01*
X23090342Y-46210286D02*
X22804628Y-46210286D01*
X22804628Y-46210286D02*
X22709390Y-46162667D01*
X22709390Y-46162667D02*
X22661771Y-46115048D01*
X22661771Y-46115048D02*
X22614152Y-46019810D01*
X22614152Y-46019810D02*
X22614152Y-45876953D01*
X22614152Y-45876953D02*
X22661771Y-45781715D01*
X22661771Y-45781715D02*
X22709390Y-45734096D01*
X22709390Y-45734096D02*
X22804628Y-45686477D01*
X22804628Y-45686477D02*
X23090342Y-45686477D01*
X23090342Y-45686477D02*
X23185580Y-45734096D01*
X23185580Y-45734096D02*
X23233200Y-45781715D01*
X23233200Y-45781715D02*
X23280819Y-45876953D01*
X23280819Y-45876953D02*
X23280819Y-46019810D01*
X23280819Y-45115048D02*
X23233200Y-45210286D01*
X23233200Y-45210286D02*
X23185580Y-45257905D01*
X23185580Y-45257905D02*
X23090342Y-45305524D01*
X23090342Y-45305524D02*
X22804628Y-45305524D01*
X22804628Y-45305524D02*
X22709390Y-45257905D01*
X22709390Y-45257905D02*
X22661771Y-45210286D01*
X22661771Y-45210286D02*
X22614152Y-45115048D01*
X22614152Y-45115048D02*
X22614152Y-44972191D01*
X22614152Y-44972191D02*
X22661771Y-44876953D01*
X22661771Y-44876953D02*
X22709390Y-44829334D01*
X22709390Y-44829334D02*
X22804628Y-44781715D01*
X22804628Y-44781715D02*
X23090342Y-44781715D01*
X23090342Y-44781715D02*
X23185580Y-44829334D01*
X23185580Y-44829334D02*
X23233200Y-44876953D01*
X23233200Y-44876953D02*
X23280819Y-44972191D01*
X23280819Y-44972191D02*
X23280819Y-45115048D01*
X22614152Y-43924572D02*
X23423676Y-43924572D01*
X23423676Y-43924572D02*
X23518914Y-43972191D01*
X23518914Y-43972191D02*
X23566533Y-44019810D01*
X23566533Y-44019810D02*
X23614152Y-44115048D01*
X23614152Y-44115048D02*
X23614152Y-44257905D01*
X23614152Y-44257905D02*
X23566533Y-44353143D01*
X23233200Y-43924572D02*
X23280819Y-44019810D01*
X23280819Y-44019810D02*
X23280819Y-44210286D01*
X23280819Y-44210286D02*
X23233200Y-44305524D01*
X23233200Y-44305524D02*
X23185580Y-44353143D01*
X23185580Y-44353143D02*
X23090342Y-44400762D01*
X23090342Y-44400762D02*
X22804628Y-44400762D01*
X22804628Y-44400762D02*
X22709390Y-44353143D01*
X22709390Y-44353143D02*
X22661771Y-44305524D01*
X22661771Y-44305524D02*
X22614152Y-44210286D01*
X22614152Y-44210286D02*
X22614152Y-44019810D01*
X22614152Y-44019810D02*
X22661771Y-43924572D01*
X23280819Y-42686476D02*
X22280819Y-42686476D01*
X22661771Y-42686476D02*
X22614152Y-42591238D01*
X22614152Y-42591238D02*
X22614152Y-42400762D01*
X22614152Y-42400762D02*
X22661771Y-42305524D01*
X22661771Y-42305524D02*
X22709390Y-42257905D01*
X22709390Y-42257905D02*
X22804628Y-42210286D01*
X22804628Y-42210286D02*
X23090342Y-42210286D01*
X23090342Y-42210286D02*
X23185580Y-42257905D01*
X23185580Y-42257905D02*
X23233200Y-42305524D01*
X23233200Y-42305524D02*
X23280819Y-42400762D01*
X23280819Y-42400762D02*
X23280819Y-42591238D01*
X23280819Y-42591238D02*
X23233200Y-42686476D01*
X23280819Y-41638857D02*
X23233200Y-41734095D01*
X23233200Y-41734095D02*
X23185580Y-41781714D01*
X23185580Y-41781714D02*
X23090342Y-41829333D01*
X23090342Y-41829333D02*
X22804628Y-41829333D01*
X22804628Y-41829333D02*
X22709390Y-41781714D01*
X22709390Y-41781714D02*
X22661771Y-41734095D01*
X22661771Y-41734095D02*
X22614152Y-41638857D01*
X22614152Y-41638857D02*
X22614152Y-41496000D01*
X22614152Y-41496000D02*
X22661771Y-41400762D01*
X22661771Y-41400762D02*
X22709390Y-41353143D01*
X22709390Y-41353143D02*
X22804628Y-41305524D01*
X22804628Y-41305524D02*
X23090342Y-41305524D01*
X23090342Y-41305524D02*
X23185580Y-41353143D01*
X23185580Y-41353143D02*
X23233200Y-41400762D01*
X23233200Y-41400762D02*
X23280819Y-41496000D01*
X23280819Y-41496000D02*
X23280819Y-41638857D01*
X23280819Y-40876952D02*
X22614152Y-40876952D01*
X22804628Y-40876952D02*
X22709390Y-40829333D01*
X22709390Y-40829333D02*
X22661771Y-40781714D01*
X22661771Y-40781714D02*
X22614152Y-40686476D01*
X22614152Y-40686476D02*
X22614152Y-40591238D01*
X23280819Y-39829333D02*
X22280819Y-39829333D01*
X23233200Y-39829333D02*
X23280819Y-39924571D01*
X23280819Y-39924571D02*
X23280819Y-40115047D01*
X23280819Y-40115047D02*
X23233200Y-40210285D01*
X23233200Y-40210285D02*
X23185580Y-40257904D01*
X23185580Y-40257904D02*
X23090342Y-40305523D01*
X23090342Y-40305523D02*
X22804628Y-40305523D01*
X22804628Y-40305523D02*
X22709390Y-40257904D01*
X22709390Y-40257904D02*
X22661771Y-40210285D01*
X22661771Y-40210285D02*
X22614152Y-40115047D01*
X22614152Y-40115047D02*
X22614152Y-39924571D01*
X22614152Y-39924571D02*
X22661771Y-39829333D01*
X23233200Y-38162666D02*
X23280819Y-38257904D01*
X23280819Y-38257904D02*
X23280819Y-38448380D01*
X23280819Y-38448380D02*
X23233200Y-38543618D01*
X23233200Y-38543618D02*
X23185580Y-38591237D01*
X23185580Y-38591237D02*
X23090342Y-38638856D01*
X23090342Y-38638856D02*
X22804628Y-38638856D01*
X22804628Y-38638856D02*
X22709390Y-38591237D01*
X22709390Y-38591237D02*
X22661771Y-38543618D01*
X22661771Y-38543618D02*
X22614152Y-38448380D01*
X22614152Y-38448380D02*
X22614152Y-38257904D01*
X22614152Y-38257904D02*
X22661771Y-38162666D01*
X23280819Y-37591237D02*
X23233200Y-37686475D01*
X23233200Y-37686475D02*
X23185580Y-37734094D01*
X23185580Y-37734094D02*
X23090342Y-37781713D01*
X23090342Y-37781713D02*
X22804628Y-37781713D01*
X22804628Y-37781713D02*
X22709390Y-37734094D01*
X22709390Y-37734094D02*
X22661771Y-37686475D01*
X22661771Y-37686475D02*
X22614152Y-37591237D01*
X22614152Y-37591237D02*
X22614152Y-37448380D01*
X22614152Y-37448380D02*
X22661771Y-37353142D01*
X22661771Y-37353142D02*
X22709390Y-37305523D01*
X22709390Y-37305523D02*
X22804628Y-37257904D01*
X22804628Y-37257904D02*
X23090342Y-37257904D01*
X23090342Y-37257904D02*
X23185580Y-37305523D01*
X23185580Y-37305523D02*
X23233200Y-37353142D01*
X23233200Y-37353142D02*
X23280819Y-37448380D01*
X23280819Y-37448380D02*
X23280819Y-37591237D01*
X22614152Y-36829332D02*
X23280819Y-36829332D01*
X22709390Y-36829332D02*
X22661771Y-36781713D01*
X22661771Y-36781713D02*
X22614152Y-36686475D01*
X22614152Y-36686475D02*
X22614152Y-36543618D01*
X22614152Y-36543618D02*
X22661771Y-36448380D01*
X22661771Y-36448380D02*
X22757009Y-36400761D01*
X22757009Y-36400761D02*
X23280819Y-36400761D01*
X22614152Y-35924570D02*
X23280819Y-35924570D01*
X22709390Y-35924570D02*
X22661771Y-35876951D01*
X22661771Y-35876951D02*
X22614152Y-35781713D01*
X22614152Y-35781713D02*
X22614152Y-35638856D01*
X22614152Y-35638856D02*
X22661771Y-35543618D01*
X22661771Y-35543618D02*
X22757009Y-35495999D01*
X22757009Y-35495999D02*
X23280819Y-35495999D01*
X23233200Y-34638856D02*
X23280819Y-34734094D01*
X23280819Y-34734094D02*
X23280819Y-34924570D01*
X23280819Y-34924570D02*
X23233200Y-35019808D01*
X23233200Y-35019808D02*
X23137961Y-35067427D01*
X23137961Y-35067427D02*
X22757009Y-35067427D01*
X22757009Y-35067427D02*
X22661771Y-35019808D01*
X22661771Y-35019808D02*
X22614152Y-34924570D01*
X22614152Y-34924570D02*
X22614152Y-34734094D01*
X22614152Y-34734094D02*
X22661771Y-34638856D01*
X22661771Y-34638856D02*
X22757009Y-34591237D01*
X22757009Y-34591237D02*
X22852247Y-34591237D01*
X22852247Y-34591237D02*
X22947485Y-35067427D01*
X23233200Y-33734094D02*
X23280819Y-33829332D01*
X23280819Y-33829332D02*
X23280819Y-34019808D01*
X23280819Y-34019808D02*
X23233200Y-34115046D01*
X23233200Y-34115046D02*
X23185580Y-34162665D01*
X23185580Y-34162665D02*
X23090342Y-34210284D01*
X23090342Y-34210284D02*
X22804628Y-34210284D01*
X22804628Y-34210284D02*
X22709390Y-34162665D01*
X22709390Y-34162665D02*
X22661771Y-34115046D01*
X22661771Y-34115046D02*
X22614152Y-34019808D01*
X22614152Y-34019808D02*
X22614152Y-33829332D01*
X22614152Y-33829332D02*
X22661771Y-33734094D01*
X22614152Y-33448379D02*
X22614152Y-33067427D01*
X22280819Y-33305522D02*
X23137961Y-33305522D01*
X23137961Y-33305522D02*
X23233200Y-33257903D01*
X23233200Y-33257903D02*
X23280819Y-33162665D01*
X23280819Y-33162665D02*
X23280819Y-33067427D01*
X23280819Y-32591236D02*
X23233200Y-32686474D01*
X23233200Y-32686474D02*
X23185580Y-32734093D01*
X23185580Y-32734093D02*
X23090342Y-32781712D01*
X23090342Y-32781712D02*
X22804628Y-32781712D01*
X22804628Y-32781712D02*
X22709390Y-32734093D01*
X22709390Y-32734093D02*
X22661771Y-32686474D01*
X22661771Y-32686474D02*
X22614152Y-32591236D01*
X22614152Y-32591236D02*
X22614152Y-32448379D01*
X22614152Y-32448379D02*
X22661771Y-32353141D01*
X22661771Y-32353141D02*
X22709390Y-32305522D01*
X22709390Y-32305522D02*
X22804628Y-32257903D01*
X22804628Y-32257903D02*
X23090342Y-32257903D01*
X23090342Y-32257903D02*
X23185580Y-32305522D01*
X23185580Y-32305522D02*
X23233200Y-32353141D01*
X23233200Y-32353141D02*
X23280819Y-32448379D01*
X23280819Y-32448379D02*
X23280819Y-32591236D01*
X23280819Y-31829331D02*
X22614152Y-31829331D01*
X22804628Y-31829331D02*
X22709390Y-31781712D01*
X22709390Y-31781712D02*
X22661771Y-31734093D01*
X22661771Y-31734093D02*
X22614152Y-31638855D01*
X22614152Y-31638855D02*
X22614152Y-31543617D01*
X22614152Y-30448378D02*
X23614152Y-30448378D01*
X22661771Y-30448378D02*
X22614152Y-30353140D01*
X22614152Y-30353140D02*
X22614152Y-30162664D01*
X22614152Y-30162664D02*
X22661771Y-30067426D01*
X22661771Y-30067426D02*
X22709390Y-30019807D01*
X22709390Y-30019807D02*
X22804628Y-29972188D01*
X22804628Y-29972188D02*
X23090342Y-29972188D01*
X23090342Y-29972188D02*
X23185580Y-30019807D01*
X23185580Y-30019807D02*
X23233200Y-30067426D01*
X23233200Y-30067426D02*
X23280819Y-30162664D01*
X23280819Y-30162664D02*
X23280819Y-30353140D01*
X23280819Y-30353140D02*
X23233200Y-30448378D01*
X23280819Y-29400759D02*
X23233200Y-29495997D01*
X23233200Y-29495997D02*
X23185580Y-29543616D01*
X23185580Y-29543616D02*
X23090342Y-29591235D01*
X23090342Y-29591235D02*
X22804628Y-29591235D01*
X22804628Y-29591235D02*
X22709390Y-29543616D01*
X22709390Y-29543616D02*
X22661771Y-29495997D01*
X22661771Y-29495997D02*
X22614152Y-29400759D01*
X22614152Y-29400759D02*
X22614152Y-29257902D01*
X22614152Y-29257902D02*
X22661771Y-29162664D01*
X22661771Y-29162664D02*
X22709390Y-29115045D01*
X22709390Y-29115045D02*
X22804628Y-29067426D01*
X22804628Y-29067426D02*
X23090342Y-29067426D01*
X23090342Y-29067426D02*
X23185580Y-29115045D01*
X23185580Y-29115045D02*
X23233200Y-29162664D01*
X23233200Y-29162664D02*
X23280819Y-29257902D01*
X23280819Y-29257902D02*
X23280819Y-29400759D01*
X22614152Y-28734092D02*
X23280819Y-28543616D01*
X23280819Y-28543616D02*
X22804628Y-28353140D01*
X22804628Y-28353140D02*
X23280819Y-28162664D01*
X23280819Y-28162664D02*
X22614152Y-27972188D01*
X23233200Y-27210283D02*
X23280819Y-27305521D01*
X23280819Y-27305521D02*
X23280819Y-27495997D01*
X23280819Y-27495997D02*
X23233200Y-27591235D01*
X23233200Y-27591235D02*
X23137961Y-27638854D01*
X23137961Y-27638854D02*
X22757009Y-27638854D01*
X22757009Y-27638854D02*
X22661771Y-27591235D01*
X22661771Y-27591235D02*
X22614152Y-27495997D01*
X22614152Y-27495997D02*
X22614152Y-27305521D01*
X22614152Y-27305521D02*
X22661771Y-27210283D01*
X22661771Y-27210283D02*
X22757009Y-27162664D01*
X22757009Y-27162664D02*
X22852247Y-27162664D01*
X22852247Y-27162664D02*
X22947485Y-27638854D01*
X23280819Y-26734092D02*
X22614152Y-26734092D01*
X22804628Y-26734092D02*
X22709390Y-26686473D01*
X22709390Y-26686473D02*
X22661771Y-26638854D01*
X22661771Y-26638854D02*
X22614152Y-26543616D01*
X22614152Y-26543616D02*
X22614152Y-26448378D01*
X76891905Y-32884819D02*
X76891905Y-31884819D01*
X76891905Y-31884819D02*
X77130000Y-31884819D01*
X77130000Y-31884819D02*
X77272857Y-31932438D01*
X77272857Y-31932438D02*
X77368095Y-32027676D01*
X77368095Y-32027676D02*
X77415714Y-32122914D01*
X77415714Y-32122914D02*
X77463333Y-32313390D01*
X77463333Y-32313390D02*
X77463333Y-32456247D01*
X77463333Y-32456247D02*
X77415714Y-32646723D01*
X77415714Y-32646723D02*
X77368095Y-32741961D01*
X77368095Y-32741961D02*
X77272857Y-32837200D01*
X77272857Y-32837200D02*
X77130000Y-32884819D01*
X77130000Y-32884819D02*
X76891905Y-32884819D01*
X77844286Y-31980057D02*
X77891905Y-31932438D01*
X77891905Y-31932438D02*
X77987143Y-31884819D01*
X77987143Y-31884819D02*
X78225238Y-31884819D01*
X78225238Y-31884819D02*
X78320476Y-31932438D01*
X78320476Y-31932438D02*
X78368095Y-31980057D01*
X78368095Y-31980057D02*
X78415714Y-32075295D01*
X78415714Y-32075295D02*
X78415714Y-32170533D01*
X78415714Y-32170533D02*
X78368095Y-32313390D01*
X78368095Y-32313390D02*
X77796667Y-32884819D01*
X77796667Y-32884819D02*
X78415714Y-32884819D01*
X67368095Y-35954819D02*
X67368095Y-34954819D01*
X67939523Y-35954819D02*
X67510952Y-35383390D01*
X67939523Y-34954819D02*
X67368095Y-35526247D01*
X59972976Y-105977319D02*
X59972976Y-106691604D01*
X59972976Y-106691604D02*
X59925357Y-106834461D01*
X59925357Y-106834461D02*
X59830119Y-106929700D01*
X59830119Y-106929700D02*
X59687262Y-106977319D01*
X59687262Y-106977319D02*
X59592024Y-106977319D01*
X60972976Y-106977319D02*
X60401548Y-106977319D01*
X60687262Y-106977319D02*
X60687262Y-105977319D01*
X60687262Y-105977319D02*
X60592024Y-106120176D01*
X60592024Y-106120176D02*
X60496786Y-106215414D01*
X60496786Y-106215414D02*
X60401548Y-106263033D01*
X61592024Y-105977319D02*
X61687262Y-105977319D01*
X61687262Y-105977319D02*
X61782500Y-106024938D01*
X61782500Y-106024938D02*
X61830119Y-106072557D01*
X61830119Y-106072557D02*
X61877738Y-106167795D01*
X61877738Y-106167795D02*
X61925357Y-106358271D01*
X61925357Y-106358271D02*
X61925357Y-106596366D01*
X61925357Y-106596366D02*
X61877738Y-106786842D01*
X61877738Y-106786842D02*
X61830119Y-106882080D01*
X61830119Y-106882080D02*
X61782500Y-106929700D01*
X61782500Y-106929700D02*
X61687262Y-106977319D01*
X61687262Y-106977319D02*
X61592024Y-106977319D01*
X61592024Y-106977319D02*
X61496786Y-106929700D01*
X61496786Y-106929700D02*
X61449167Y-106882080D01*
X61449167Y-106882080D02*
X61401548Y-106786842D01*
X61401548Y-106786842D02*
X61353929Y-106596366D01*
X61353929Y-106596366D02*
X61353929Y-106358271D01*
X61353929Y-106358271D02*
X61401548Y-106167795D01*
X61401548Y-106167795D02*
X61449167Y-106072557D01*
X61449167Y-106072557D02*
X61496786Y-106024938D01*
X61496786Y-106024938D02*
X61592024Y-105977319D01*
X55242023Y-94637319D02*
X54765833Y-94637319D01*
X54765833Y-94637319D02*
X54718214Y-95113509D01*
X54718214Y-95113509D02*
X54765833Y-95065890D01*
X54765833Y-95065890D02*
X54861071Y-95018271D01*
X54861071Y-95018271D02*
X55099166Y-95018271D01*
X55099166Y-95018271D02*
X55194404Y-95065890D01*
X55194404Y-95065890D02*
X55242023Y-95113509D01*
X55242023Y-95113509D02*
X55289642Y-95208747D01*
X55289642Y-95208747D02*
X55289642Y-95446842D01*
X55289642Y-95446842D02*
X55242023Y-95542080D01*
X55242023Y-95542080D02*
X55194404Y-95589700D01*
X55194404Y-95589700D02*
X55099166Y-95637319D01*
X55099166Y-95637319D02*
X54861071Y-95637319D01*
X54861071Y-95637319D02*
X54765833Y-95589700D01*
X54765833Y-95589700D02*
X54718214Y-95542080D01*
X55622976Y-94970652D02*
X55861071Y-95637319D01*
X55861071Y-95637319D02*
X56099166Y-94970652D01*
X56242024Y-95732557D02*
X57003928Y-95732557D01*
X57242024Y-94970652D02*
X57242024Y-95970652D01*
X57242024Y-95018271D02*
X57337262Y-94970652D01*
X57337262Y-94970652D02*
X57527738Y-94970652D01*
X57527738Y-94970652D02*
X57622976Y-95018271D01*
X57622976Y-95018271D02*
X57670595Y-95065890D01*
X57670595Y-95065890D02*
X57718214Y-95161128D01*
X57718214Y-95161128D02*
X57718214Y-95446842D01*
X57718214Y-95446842D02*
X57670595Y-95542080D01*
X57670595Y-95542080D02*
X57622976Y-95589700D01*
X57622976Y-95589700D02*
X57527738Y-95637319D01*
X57527738Y-95637319D02*
X57337262Y-95637319D01*
X57337262Y-95637319D02*
X57242024Y-95589700D01*
X58289643Y-95637319D02*
X58194405Y-95589700D01*
X58194405Y-95589700D02*
X58146786Y-95542080D01*
X58146786Y-95542080D02*
X58099167Y-95446842D01*
X58099167Y-95446842D02*
X58099167Y-95161128D01*
X58099167Y-95161128D02*
X58146786Y-95065890D01*
X58146786Y-95065890D02*
X58194405Y-95018271D01*
X58194405Y-95018271D02*
X58289643Y-94970652D01*
X58289643Y-94970652D02*
X58432500Y-94970652D01*
X58432500Y-94970652D02*
X58527738Y-95018271D01*
X58527738Y-95018271D02*
X58575357Y-95065890D01*
X58575357Y-95065890D02*
X58622976Y-95161128D01*
X58622976Y-95161128D02*
X58622976Y-95446842D01*
X58622976Y-95446842D02*
X58575357Y-95542080D01*
X58575357Y-95542080D02*
X58527738Y-95589700D01*
X58527738Y-95589700D02*
X58432500Y-95637319D01*
X58432500Y-95637319D02*
X58289643Y-95637319D01*
X58956310Y-94970652D02*
X59146786Y-95637319D01*
X59146786Y-95637319D02*
X59337262Y-95161128D01*
X59337262Y-95161128D02*
X59527738Y-95637319D01*
X59527738Y-95637319D02*
X59718214Y-94970652D01*
X60480119Y-95589700D02*
X60384881Y-95637319D01*
X60384881Y-95637319D02*
X60194405Y-95637319D01*
X60194405Y-95637319D02*
X60099167Y-95589700D01*
X60099167Y-95589700D02*
X60051548Y-95494461D01*
X60051548Y-95494461D02*
X60051548Y-95113509D01*
X60051548Y-95113509D02*
X60099167Y-95018271D01*
X60099167Y-95018271D02*
X60194405Y-94970652D01*
X60194405Y-94970652D02*
X60384881Y-94970652D01*
X60384881Y-94970652D02*
X60480119Y-95018271D01*
X60480119Y-95018271D02*
X60527738Y-95113509D01*
X60527738Y-95113509D02*
X60527738Y-95208747D01*
X60527738Y-95208747D02*
X60051548Y-95303985D01*
X60956310Y-95637319D02*
X60956310Y-94970652D01*
X60956310Y-95161128D02*
X61003929Y-95065890D01*
X61003929Y-95065890D02*
X61051548Y-95018271D01*
X61051548Y-95018271D02*
X61146786Y-94970652D01*
X61146786Y-94970652D02*
X61242024Y-94970652D01*
X97504819Y-44244333D02*
X98219104Y-44244333D01*
X98219104Y-44244333D02*
X98361961Y-44291952D01*
X98361961Y-44291952D02*
X98457200Y-44387190D01*
X98457200Y-44387190D02*
X98504819Y-44530047D01*
X98504819Y-44530047D02*
X98504819Y-44625285D01*
X97504819Y-43291952D02*
X97504819Y-43768142D01*
X97504819Y-43768142D02*
X97981009Y-43815761D01*
X97981009Y-43815761D02*
X97933390Y-43768142D01*
X97933390Y-43768142D02*
X97885771Y-43672904D01*
X97885771Y-43672904D02*
X97885771Y-43434809D01*
X97885771Y-43434809D02*
X97933390Y-43339571D01*
X97933390Y-43339571D02*
X97981009Y-43291952D01*
X97981009Y-43291952D02*
X98076247Y-43244333D01*
X98076247Y-43244333D02*
X98314342Y-43244333D01*
X98314342Y-43244333D02*
X98409580Y-43291952D01*
X98409580Y-43291952D02*
X98457200Y-43339571D01*
X98457200Y-43339571D02*
X98504819Y-43434809D01*
X98504819Y-43434809D02*
X98504819Y-43672904D01*
X98504819Y-43672904D02*
X98457200Y-43768142D01*
X98457200Y-43768142D02*
X98409580Y-43815761D01*
X95958819Y-47941952D02*
X94958819Y-47941952D01*
X95339771Y-47941952D02*
X95292152Y-47846714D01*
X95292152Y-47846714D02*
X95292152Y-47656238D01*
X95292152Y-47656238D02*
X95339771Y-47561000D01*
X95339771Y-47561000D02*
X95387390Y-47513381D01*
X95387390Y-47513381D02*
X95482628Y-47465762D01*
X95482628Y-47465762D02*
X95768342Y-47465762D01*
X95768342Y-47465762D02*
X95863580Y-47513381D01*
X95863580Y-47513381D02*
X95911200Y-47561000D01*
X95911200Y-47561000D02*
X95958819Y-47656238D01*
X95958819Y-47656238D02*
X95958819Y-47846714D01*
X95958819Y-47846714D02*
X95911200Y-47941952D01*
X95958819Y-46608619D02*
X95435009Y-46608619D01*
X95435009Y-46608619D02*
X95339771Y-46656238D01*
X95339771Y-46656238D02*
X95292152Y-46751476D01*
X95292152Y-46751476D02*
X95292152Y-46941952D01*
X95292152Y-46941952D02*
X95339771Y-47037190D01*
X95911200Y-46608619D02*
X95958819Y-46703857D01*
X95958819Y-46703857D02*
X95958819Y-46941952D01*
X95958819Y-46941952D02*
X95911200Y-47037190D01*
X95911200Y-47037190D02*
X95815961Y-47084809D01*
X95815961Y-47084809D02*
X95720723Y-47084809D01*
X95720723Y-47084809D02*
X95625485Y-47037190D01*
X95625485Y-47037190D02*
X95577866Y-46941952D01*
X95577866Y-46941952D02*
X95577866Y-46703857D01*
X95577866Y-46703857D02*
X95530247Y-46608619D01*
X95292152Y-46275285D02*
X95292152Y-45894333D01*
X94958819Y-46132428D02*
X95815961Y-46132428D01*
X95815961Y-46132428D02*
X95911200Y-46084809D01*
X95911200Y-46084809D02*
X95958819Y-45989571D01*
X95958819Y-45989571D02*
X95958819Y-45894333D01*
X95292152Y-45703856D02*
X95292152Y-45322904D01*
X94958819Y-45560999D02*
X95815961Y-45560999D01*
X95815961Y-45560999D02*
X95911200Y-45513380D01*
X95911200Y-45513380D02*
X95958819Y-45418142D01*
X95958819Y-45418142D02*
X95958819Y-45322904D01*
X95911200Y-44608618D02*
X95958819Y-44703856D01*
X95958819Y-44703856D02*
X95958819Y-44894332D01*
X95958819Y-44894332D02*
X95911200Y-44989570D01*
X95911200Y-44989570D02*
X95815961Y-45037189D01*
X95815961Y-45037189D02*
X95435009Y-45037189D01*
X95435009Y-45037189D02*
X95339771Y-44989570D01*
X95339771Y-44989570D02*
X95292152Y-44894332D01*
X95292152Y-44894332D02*
X95292152Y-44703856D01*
X95292152Y-44703856D02*
X95339771Y-44608618D01*
X95339771Y-44608618D02*
X95435009Y-44560999D01*
X95435009Y-44560999D02*
X95530247Y-44560999D01*
X95530247Y-44560999D02*
X95625485Y-45037189D01*
X95958819Y-44132427D02*
X95292152Y-44132427D01*
X95482628Y-44132427D02*
X95387390Y-44084808D01*
X95387390Y-44084808D02*
X95339771Y-44037189D01*
X95339771Y-44037189D02*
X95292152Y-43941951D01*
X95292152Y-43941951D02*
X95292152Y-43846713D01*
X95958819Y-43513379D02*
X95292152Y-43513379D01*
X94958819Y-43513379D02*
X95006438Y-43560998D01*
X95006438Y-43560998D02*
X95054057Y-43513379D01*
X95054057Y-43513379D02*
X95006438Y-43465760D01*
X95006438Y-43465760D02*
X94958819Y-43513379D01*
X94958819Y-43513379D02*
X95054057Y-43513379D01*
X95292152Y-43037189D02*
X96149295Y-43037189D01*
X96149295Y-43037189D02*
X96244533Y-43084808D01*
X96244533Y-43084808D02*
X96292152Y-43180046D01*
X96292152Y-43180046D02*
X96292152Y-43227665D01*
X94958819Y-43037189D02*
X95006438Y-43084808D01*
X95006438Y-43084808D02*
X95054057Y-43037189D01*
X95054057Y-43037189D02*
X95006438Y-42989570D01*
X95006438Y-42989570D02*
X94958819Y-43037189D01*
X94958819Y-43037189D02*
X95054057Y-43037189D01*
X96054057Y-42799095D02*
X96054057Y-42037190D01*
X95958819Y-41656237D02*
X95911200Y-41751475D01*
X95911200Y-41751475D02*
X95815961Y-41799094D01*
X95815961Y-41799094D02*
X94958819Y-41799094D01*
X95958819Y-41132427D02*
X95911200Y-41227665D01*
X95911200Y-41227665D02*
X95863580Y-41275284D01*
X95863580Y-41275284D02*
X95768342Y-41322903D01*
X95768342Y-41322903D02*
X95482628Y-41322903D01*
X95482628Y-41322903D02*
X95387390Y-41275284D01*
X95387390Y-41275284D02*
X95339771Y-41227665D01*
X95339771Y-41227665D02*
X95292152Y-41132427D01*
X95292152Y-41132427D02*
X95292152Y-40989570D01*
X95292152Y-40989570D02*
X95339771Y-40894332D01*
X95339771Y-40894332D02*
X95387390Y-40846713D01*
X95387390Y-40846713D02*
X95482628Y-40799094D01*
X95482628Y-40799094D02*
X95768342Y-40799094D01*
X95768342Y-40799094D02*
X95863580Y-40846713D01*
X95863580Y-40846713D02*
X95911200Y-40894332D01*
X95911200Y-40894332D02*
X95958819Y-40989570D01*
X95958819Y-40989570D02*
X95958819Y-41132427D01*
X95958819Y-39941951D02*
X95435009Y-39941951D01*
X95435009Y-39941951D02*
X95339771Y-39989570D01*
X95339771Y-39989570D02*
X95292152Y-40084808D01*
X95292152Y-40084808D02*
X95292152Y-40275284D01*
X95292152Y-40275284D02*
X95339771Y-40370522D01*
X95911200Y-39941951D02*
X95958819Y-40037189D01*
X95958819Y-40037189D02*
X95958819Y-40275284D01*
X95958819Y-40275284D02*
X95911200Y-40370522D01*
X95911200Y-40370522D02*
X95815961Y-40418141D01*
X95815961Y-40418141D02*
X95720723Y-40418141D01*
X95720723Y-40418141D02*
X95625485Y-40370522D01*
X95625485Y-40370522D02*
X95577866Y-40275284D01*
X95577866Y-40275284D02*
X95577866Y-40037189D01*
X95577866Y-40037189D02*
X95530247Y-39941951D01*
X95958819Y-39037189D02*
X94958819Y-39037189D01*
X95911200Y-39037189D02*
X95958819Y-39132427D01*
X95958819Y-39132427D02*
X95958819Y-39322903D01*
X95958819Y-39322903D02*
X95911200Y-39418141D01*
X95911200Y-39418141D02*
X95863580Y-39465760D01*
X95863580Y-39465760D02*
X95768342Y-39513379D01*
X95768342Y-39513379D02*
X95482628Y-39513379D01*
X95482628Y-39513379D02*
X95387390Y-39465760D01*
X95387390Y-39465760D02*
X95339771Y-39418141D01*
X95339771Y-39418141D02*
X95292152Y-39322903D01*
X95292152Y-39322903D02*
X95292152Y-39132427D01*
X95292152Y-39132427D02*
X95339771Y-39037189D01*
X96054057Y-38799094D02*
X96054057Y-38037189D01*
X95958819Y-37275284D02*
X95958819Y-37846712D01*
X95958819Y-37560998D02*
X94958819Y-37560998D01*
X94958819Y-37560998D02*
X95101676Y-37656236D01*
X95101676Y-37656236D02*
X95196914Y-37751474D01*
X95196914Y-37751474D02*
X95244533Y-37846712D01*
X95054057Y-36894331D02*
X95006438Y-36846712D01*
X95006438Y-36846712D02*
X94958819Y-36751474D01*
X94958819Y-36751474D02*
X94958819Y-36513379D01*
X94958819Y-36513379D02*
X95006438Y-36418141D01*
X95006438Y-36418141D02*
X95054057Y-36370522D01*
X95054057Y-36370522D02*
X95149295Y-36322903D01*
X95149295Y-36322903D02*
X95244533Y-36322903D01*
X95244533Y-36322903D02*
X95387390Y-36370522D01*
X95387390Y-36370522D02*
X95958819Y-36941950D01*
X95958819Y-36941950D02*
X95958819Y-36322903D01*
X95863580Y-35894331D02*
X95911200Y-35846712D01*
X95911200Y-35846712D02*
X95958819Y-35894331D01*
X95958819Y-35894331D02*
X95911200Y-35941950D01*
X95911200Y-35941950D02*
X95863580Y-35894331D01*
X95863580Y-35894331D02*
X95958819Y-35894331D01*
X94958819Y-35513379D02*
X94958819Y-34894332D01*
X94958819Y-34894332D02*
X95339771Y-35227665D01*
X95339771Y-35227665D02*
X95339771Y-35084808D01*
X95339771Y-35084808D02*
X95387390Y-34989570D01*
X95387390Y-34989570D02*
X95435009Y-34941951D01*
X95435009Y-34941951D02*
X95530247Y-34894332D01*
X95530247Y-34894332D02*
X95768342Y-34894332D01*
X95768342Y-34894332D02*
X95863580Y-34941951D01*
X95863580Y-34941951D02*
X95911200Y-34989570D01*
X95911200Y-34989570D02*
X95958819Y-35084808D01*
X95958819Y-35084808D02*
X95958819Y-35370522D01*
X95958819Y-35370522D02*
X95911200Y-35465760D01*
X95911200Y-35465760D02*
X95863580Y-35513379D01*
X95292152Y-34560998D02*
X95958819Y-34322903D01*
X95958819Y-34322903D02*
X95292152Y-34084808D01*
X13904819Y-66083333D02*
X14619104Y-66083333D01*
X14619104Y-66083333D02*
X14761961Y-66130952D01*
X14761961Y-66130952D02*
X14857200Y-66226190D01*
X14857200Y-66226190D02*
X14904819Y-66369047D01*
X14904819Y-66369047D02*
X14904819Y-66464285D01*
X14000057Y-65654761D02*
X13952438Y-65607142D01*
X13952438Y-65607142D02*
X13904819Y-65511904D01*
X13904819Y-65511904D02*
X13904819Y-65273809D01*
X13904819Y-65273809D02*
X13952438Y-65178571D01*
X13952438Y-65178571D02*
X14000057Y-65130952D01*
X14000057Y-65130952D02*
X14095295Y-65083333D01*
X14095295Y-65083333D02*
X14190533Y-65083333D01*
X14190533Y-65083333D02*
X14333390Y-65130952D01*
X14333390Y-65130952D02*
X14904819Y-65702380D01*
X14904819Y-65702380D02*
X14904819Y-65083333D01*
X23280819Y-78675335D02*
X22280819Y-78675335D01*
X23233200Y-78675335D02*
X23280819Y-78770573D01*
X23280819Y-78770573D02*
X23280819Y-78961049D01*
X23280819Y-78961049D02*
X23233200Y-79056287D01*
X23233200Y-79056287D02*
X23185580Y-79103906D01*
X23185580Y-79103906D02*
X23090342Y-79151525D01*
X23090342Y-79151525D02*
X22804628Y-79151525D01*
X22804628Y-79151525D02*
X22709390Y-79103906D01*
X22709390Y-79103906D02*
X22661771Y-79056287D01*
X22661771Y-79056287D02*
X22614152Y-78961049D01*
X22614152Y-78961049D02*
X22614152Y-78770573D01*
X22614152Y-78770573D02*
X22661771Y-78675335D01*
X23280819Y-78199144D02*
X22614152Y-78199144D01*
X22280819Y-78199144D02*
X22328438Y-78246763D01*
X22328438Y-78246763D02*
X22376057Y-78199144D01*
X22376057Y-78199144D02*
X22328438Y-78151525D01*
X22328438Y-78151525D02*
X22280819Y-78199144D01*
X22280819Y-78199144D02*
X22376057Y-78199144D01*
X22614152Y-77294383D02*
X23423676Y-77294383D01*
X23423676Y-77294383D02*
X23518914Y-77342002D01*
X23518914Y-77342002D02*
X23566533Y-77389621D01*
X23566533Y-77389621D02*
X23614152Y-77484859D01*
X23614152Y-77484859D02*
X23614152Y-77627716D01*
X23614152Y-77627716D02*
X23566533Y-77722954D01*
X23233200Y-77294383D02*
X23280819Y-77389621D01*
X23280819Y-77389621D02*
X23280819Y-77580097D01*
X23280819Y-77580097D02*
X23233200Y-77675335D01*
X23233200Y-77675335D02*
X23185580Y-77722954D01*
X23185580Y-77722954D02*
X23090342Y-77770573D01*
X23090342Y-77770573D02*
X22804628Y-77770573D01*
X22804628Y-77770573D02*
X22709390Y-77722954D01*
X22709390Y-77722954D02*
X22661771Y-77675335D01*
X22661771Y-77675335D02*
X22614152Y-77580097D01*
X22614152Y-77580097D02*
X22614152Y-77389621D01*
X22614152Y-77389621D02*
X22661771Y-77294383D01*
X23280819Y-76818192D02*
X22614152Y-76818192D01*
X22280819Y-76818192D02*
X22328438Y-76865811D01*
X22328438Y-76865811D02*
X22376057Y-76818192D01*
X22376057Y-76818192D02*
X22328438Y-76770573D01*
X22328438Y-76770573D02*
X22280819Y-76818192D01*
X22280819Y-76818192D02*
X22376057Y-76818192D01*
X22614152Y-76484859D02*
X22614152Y-76103907D01*
X22280819Y-76342002D02*
X23137961Y-76342002D01*
X23137961Y-76342002D02*
X23233200Y-76294383D01*
X23233200Y-76294383D02*
X23280819Y-76199145D01*
X23280819Y-76199145D02*
X23280819Y-76103907D01*
X23280819Y-75342002D02*
X22757009Y-75342002D01*
X22757009Y-75342002D02*
X22661771Y-75389621D01*
X22661771Y-75389621D02*
X22614152Y-75484859D01*
X22614152Y-75484859D02*
X22614152Y-75675335D01*
X22614152Y-75675335D02*
X22661771Y-75770573D01*
X23233200Y-75342002D02*
X23280819Y-75437240D01*
X23280819Y-75437240D02*
X23280819Y-75675335D01*
X23280819Y-75675335D02*
X23233200Y-75770573D01*
X23233200Y-75770573D02*
X23137961Y-75818192D01*
X23137961Y-75818192D02*
X23042723Y-75818192D01*
X23042723Y-75818192D02*
X22947485Y-75770573D01*
X22947485Y-75770573D02*
X22899866Y-75675335D01*
X22899866Y-75675335D02*
X22899866Y-75437240D01*
X22899866Y-75437240D02*
X22852247Y-75342002D01*
X23280819Y-74437240D02*
X22757009Y-74437240D01*
X22757009Y-74437240D02*
X22661771Y-74484859D01*
X22661771Y-74484859D02*
X22614152Y-74580097D01*
X22614152Y-74580097D02*
X22614152Y-74770573D01*
X22614152Y-74770573D02*
X22661771Y-74865811D01*
X23233200Y-74437240D02*
X23280819Y-74532478D01*
X23280819Y-74532478D02*
X23280819Y-74770573D01*
X23280819Y-74770573D02*
X23233200Y-74865811D01*
X23233200Y-74865811D02*
X23137961Y-74913430D01*
X23137961Y-74913430D02*
X23042723Y-74913430D01*
X23042723Y-74913430D02*
X22947485Y-74865811D01*
X22947485Y-74865811D02*
X22899866Y-74770573D01*
X22899866Y-74770573D02*
X22899866Y-74532478D01*
X22899866Y-74532478D02*
X22852247Y-74437240D01*
X23280819Y-73818192D02*
X23233200Y-73913430D01*
X23233200Y-73913430D02*
X23137961Y-73961049D01*
X23137961Y-73961049D02*
X22280819Y-73961049D01*
X23280819Y-72675334D02*
X22280819Y-72675334D01*
X22661771Y-72675334D02*
X22614152Y-72580096D01*
X22614152Y-72580096D02*
X22614152Y-72389620D01*
X22614152Y-72389620D02*
X22661771Y-72294382D01*
X22661771Y-72294382D02*
X22709390Y-72246763D01*
X22709390Y-72246763D02*
X22804628Y-72199144D01*
X22804628Y-72199144D02*
X23090342Y-72199144D01*
X23090342Y-72199144D02*
X23185580Y-72246763D01*
X23185580Y-72246763D02*
X23233200Y-72294382D01*
X23233200Y-72294382D02*
X23280819Y-72389620D01*
X23280819Y-72389620D02*
X23280819Y-72580096D01*
X23280819Y-72580096D02*
X23233200Y-72675334D01*
X23280819Y-71627715D02*
X23233200Y-71722953D01*
X23233200Y-71722953D02*
X23185580Y-71770572D01*
X23185580Y-71770572D02*
X23090342Y-71818191D01*
X23090342Y-71818191D02*
X22804628Y-71818191D01*
X22804628Y-71818191D02*
X22709390Y-71770572D01*
X22709390Y-71770572D02*
X22661771Y-71722953D01*
X22661771Y-71722953D02*
X22614152Y-71627715D01*
X22614152Y-71627715D02*
X22614152Y-71484858D01*
X22614152Y-71484858D02*
X22661771Y-71389620D01*
X22661771Y-71389620D02*
X22709390Y-71342001D01*
X22709390Y-71342001D02*
X22804628Y-71294382D01*
X22804628Y-71294382D02*
X23090342Y-71294382D01*
X23090342Y-71294382D02*
X23185580Y-71342001D01*
X23185580Y-71342001D02*
X23233200Y-71389620D01*
X23233200Y-71389620D02*
X23280819Y-71484858D01*
X23280819Y-71484858D02*
X23280819Y-71627715D01*
X23280819Y-70865810D02*
X22614152Y-70865810D01*
X22804628Y-70865810D02*
X22709390Y-70818191D01*
X22709390Y-70818191D02*
X22661771Y-70770572D01*
X22661771Y-70770572D02*
X22614152Y-70675334D01*
X22614152Y-70675334D02*
X22614152Y-70580096D01*
X23280819Y-69818191D02*
X22280819Y-69818191D01*
X23233200Y-69818191D02*
X23280819Y-69913429D01*
X23280819Y-69913429D02*
X23280819Y-70103905D01*
X23280819Y-70103905D02*
X23233200Y-70199143D01*
X23233200Y-70199143D02*
X23185580Y-70246762D01*
X23185580Y-70246762D02*
X23090342Y-70294381D01*
X23090342Y-70294381D02*
X22804628Y-70294381D01*
X22804628Y-70294381D02*
X22709390Y-70246762D01*
X22709390Y-70246762D02*
X22661771Y-70199143D01*
X22661771Y-70199143D02*
X22614152Y-70103905D01*
X22614152Y-70103905D02*
X22614152Y-69913429D01*
X22614152Y-69913429D02*
X22661771Y-69818191D01*
X23233200Y-68151524D02*
X23280819Y-68246762D01*
X23280819Y-68246762D02*
X23280819Y-68437238D01*
X23280819Y-68437238D02*
X23233200Y-68532476D01*
X23233200Y-68532476D02*
X23185580Y-68580095D01*
X23185580Y-68580095D02*
X23090342Y-68627714D01*
X23090342Y-68627714D02*
X22804628Y-68627714D01*
X22804628Y-68627714D02*
X22709390Y-68580095D01*
X22709390Y-68580095D02*
X22661771Y-68532476D01*
X22661771Y-68532476D02*
X22614152Y-68437238D01*
X22614152Y-68437238D02*
X22614152Y-68246762D01*
X22614152Y-68246762D02*
X22661771Y-68151524D01*
X23280819Y-67580095D02*
X23233200Y-67675333D01*
X23233200Y-67675333D02*
X23185580Y-67722952D01*
X23185580Y-67722952D02*
X23090342Y-67770571D01*
X23090342Y-67770571D02*
X22804628Y-67770571D01*
X22804628Y-67770571D02*
X22709390Y-67722952D01*
X22709390Y-67722952D02*
X22661771Y-67675333D01*
X22661771Y-67675333D02*
X22614152Y-67580095D01*
X22614152Y-67580095D02*
X22614152Y-67437238D01*
X22614152Y-67437238D02*
X22661771Y-67342000D01*
X22661771Y-67342000D02*
X22709390Y-67294381D01*
X22709390Y-67294381D02*
X22804628Y-67246762D01*
X22804628Y-67246762D02*
X23090342Y-67246762D01*
X23090342Y-67246762D02*
X23185580Y-67294381D01*
X23185580Y-67294381D02*
X23233200Y-67342000D01*
X23233200Y-67342000D02*
X23280819Y-67437238D01*
X23280819Y-67437238D02*
X23280819Y-67580095D01*
X22614152Y-66818190D02*
X23280819Y-66818190D01*
X22709390Y-66818190D02*
X22661771Y-66770571D01*
X22661771Y-66770571D02*
X22614152Y-66675333D01*
X22614152Y-66675333D02*
X22614152Y-66532476D01*
X22614152Y-66532476D02*
X22661771Y-66437238D01*
X22661771Y-66437238D02*
X22757009Y-66389619D01*
X22757009Y-66389619D02*
X23280819Y-66389619D01*
X22614152Y-65913428D02*
X23280819Y-65913428D01*
X22709390Y-65913428D02*
X22661771Y-65865809D01*
X22661771Y-65865809D02*
X22614152Y-65770571D01*
X22614152Y-65770571D02*
X22614152Y-65627714D01*
X22614152Y-65627714D02*
X22661771Y-65532476D01*
X22661771Y-65532476D02*
X22757009Y-65484857D01*
X22757009Y-65484857D02*
X23280819Y-65484857D01*
X23233200Y-64627714D02*
X23280819Y-64722952D01*
X23280819Y-64722952D02*
X23280819Y-64913428D01*
X23280819Y-64913428D02*
X23233200Y-65008666D01*
X23233200Y-65008666D02*
X23137961Y-65056285D01*
X23137961Y-65056285D02*
X22757009Y-65056285D01*
X22757009Y-65056285D02*
X22661771Y-65008666D01*
X22661771Y-65008666D02*
X22614152Y-64913428D01*
X22614152Y-64913428D02*
X22614152Y-64722952D01*
X22614152Y-64722952D02*
X22661771Y-64627714D01*
X22661771Y-64627714D02*
X22757009Y-64580095D01*
X22757009Y-64580095D02*
X22852247Y-64580095D01*
X22852247Y-64580095D02*
X22947485Y-65056285D01*
X23233200Y-63722952D02*
X23280819Y-63818190D01*
X23280819Y-63818190D02*
X23280819Y-64008666D01*
X23280819Y-64008666D02*
X23233200Y-64103904D01*
X23233200Y-64103904D02*
X23185580Y-64151523D01*
X23185580Y-64151523D02*
X23090342Y-64199142D01*
X23090342Y-64199142D02*
X22804628Y-64199142D01*
X22804628Y-64199142D02*
X22709390Y-64151523D01*
X22709390Y-64151523D02*
X22661771Y-64103904D01*
X22661771Y-64103904D02*
X22614152Y-64008666D01*
X22614152Y-64008666D02*
X22614152Y-63818190D01*
X22614152Y-63818190D02*
X22661771Y-63722952D01*
X22614152Y-63437237D02*
X22614152Y-63056285D01*
X22280819Y-63294380D02*
X23137961Y-63294380D01*
X23137961Y-63294380D02*
X23233200Y-63246761D01*
X23233200Y-63246761D02*
X23280819Y-63151523D01*
X23280819Y-63151523D02*
X23280819Y-63056285D01*
X23280819Y-62580094D02*
X23233200Y-62675332D01*
X23233200Y-62675332D02*
X23185580Y-62722951D01*
X23185580Y-62722951D02*
X23090342Y-62770570D01*
X23090342Y-62770570D02*
X22804628Y-62770570D01*
X22804628Y-62770570D02*
X22709390Y-62722951D01*
X22709390Y-62722951D02*
X22661771Y-62675332D01*
X22661771Y-62675332D02*
X22614152Y-62580094D01*
X22614152Y-62580094D02*
X22614152Y-62437237D01*
X22614152Y-62437237D02*
X22661771Y-62341999D01*
X22661771Y-62341999D02*
X22709390Y-62294380D01*
X22709390Y-62294380D02*
X22804628Y-62246761D01*
X22804628Y-62246761D02*
X23090342Y-62246761D01*
X23090342Y-62246761D02*
X23185580Y-62294380D01*
X23185580Y-62294380D02*
X23233200Y-62341999D01*
X23233200Y-62341999D02*
X23280819Y-62437237D01*
X23280819Y-62437237D02*
X23280819Y-62580094D01*
X23280819Y-61818189D02*
X22614152Y-61818189D01*
X22804628Y-61818189D02*
X22709390Y-61770570D01*
X22709390Y-61770570D02*
X22661771Y-61722951D01*
X22661771Y-61722951D02*
X22614152Y-61627713D01*
X22614152Y-61627713D02*
X22614152Y-61532475D01*
X22614152Y-60437236D02*
X23614152Y-60437236D01*
X22661771Y-60437236D02*
X22614152Y-60341998D01*
X22614152Y-60341998D02*
X22614152Y-60151522D01*
X22614152Y-60151522D02*
X22661771Y-60056284D01*
X22661771Y-60056284D02*
X22709390Y-60008665D01*
X22709390Y-60008665D02*
X22804628Y-59961046D01*
X22804628Y-59961046D02*
X23090342Y-59961046D01*
X23090342Y-59961046D02*
X23185580Y-60008665D01*
X23185580Y-60008665D02*
X23233200Y-60056284D01*
X23233200Y-60056284D02*
X23280819Y-60151522D01*
X23280819Y-60151522D02*
X23280819Y-60341998D01*
X23280819Y-60341998D02*
X23233200Y-60437236D01*
X23280819Y-59389617D02*
X23233200Y-59484855D01*
X23233200Y-59484855D02*
X23185580Y-59532474D01*
X23185580Y-59532474D02*
X23090342Y-59580093D01*
X23090342Y-59580093D02*
X22804628Y-59580093D01*
X22804628Y-59580093D02*
X22709390Y-59532474D01*
X22709390Y-59532474D02*
X22661771Y-59484855D01*
X22661771Y-59484855D02*
X22614152Y-59389617D01*
X22614152Y-59389617D02*
X22614152Y-59246760D01*
X22614152Y-59246760D02*
X22661771Y-59151522D01*
X22661771Y-59151522D02*
X22709390Y-59103903D01*
X22709390Y-59103903D02*
X22804628Y-59056284D01*
X22804628Y-59056284D02*
X23090342Y-59056284D01*
X23090342Y-59056284D02*
X23185580Y-59103903D01*
X23185580Y-59103903D02*
X23233200Y-59151522D01*
X23233200Y-59151522D02*
X23280819Y-59246760D01*
X23280819Y-59246760D02*
X23280819Y-59389617D01*
X22614152Y-58722950D02*
X23280819Y-58532474D01*
X23280819Y-58532474D02*
X22804628Y-58341998D01*
X22804628Y-58341998D02*
X23280819Y-58151522D01*
X23280819Y-58151522D02*
X22614152Y-57961046D01*
X23233200Y-57199141D02*
X23280819Y-57294379D01*
X23280819Y-57294379D02*
X23280819Y-57484855D01*
X23280819Y-57484855D02*
X23233200Y-57580093D01*
X23233200Y-57580093D02*
X23137961Y-57627712D01*
X23137961Y-57627712D02*
X22757009Y-57627712D01*
X22757009Y-57627712D02*
X22661771Y-57580093D01*
X22661771Y-57580093D02*
X22614152Y-57484855D01*
X22614152Y-57484855D02*
X22614152Y-57294379D01*
X22614152Y-57294379D02*
X22661771Y-57199141D01*
X22661771Y-57199141D02*
X22757009Y-57151522D01*
X22757009Y-57151522D02*
X22852247Y-57151522D01*
X22852247Y-57151522D02*
X22947485Y-57627712D01*
X23280819Y-56722950D02*
X22614152Y-56722950D01*
X22804628Y-56722950D02*
X22709390Y-56675331D01*
X22709390Y-56675331D02*
X22661771Y-56627712D01*
X22661771Y-56627712D02*
X22614152Y-56532474D01*
X22614152Y-56532474D02*
X22614152Y-56437236D01*
X97504819Y-65326333D02*
X98219104Y-65326333D01*
X98219104Y-65326333D02*
X98361961Y-65373952D01*
X98361961Y-65373952D02*
X98457200Y-65469190D01*
X98457200Y-65469190D02*
X98504819Y-65612047D01*
X98504819Y-65612047D02*
X98504819Y-65707285D01*
X97504819Y-64945380D02*
X97504819Y-64278714D01*
X97504819Y-64278714D02*
X98504819Y-64707285D01*
X95038152Y-67650666D02*
X96038152Y-67650666D01*
X95085771Y-67650666D02*
X95038152Y-67555428D01*
X95038152Y-67555428D02*
X95038152Y-67364952D01*
X95038152Y-67364952D02*
X95085771Y-67269714D01*
X95085771Y-67269714D02*
X95133390Y-67222095D01*
X95133390Y-67222095D02*
X95228628Y-67174476D01*
X95228628Y-67174476D02*
X95514342Y-67174476D01*
X95514342Y-67174476D02*
X95609580Y-67222095D01*
X95609580Y-67222095D02*
X95657200Y-67269714D01*
X95657200Y-67269714D02*
X95704819Y-67364952D01*
X95704819Y-67364952D02*
X95704819Y-67555428D01*
X95704819Y-67555428D02*
X95657200Y-67650666D01*
X95704819Y-66603047D02*
X95657200Y-66698285D01*
X95657200Y-66698285D02*
X95609580Y-66745904D01*
X95609580Y-66745904D02*
X95514342Y-66793523D01*
X95514342Y-66793523D02*
X95228628Y-66793523D01*
X95228628Y-66793523D02*
X95133390Y-66745904D01*
X95133390Y-66745904D02*
X95085771Y-66698285D01*
X95085771Y-66698285D02*
X95038152Y-66603047D01*
X95038152Y-66603047D02*
X95038152Y-66460190D01*
X95038152Y-66460190D02*
X95085771Y-66364952D01*
X95085771Y-66364952D02*
X95133390Y-66317333D01*
X95133390Y-66317333D02*
X95228628Y-66269714D01*
X95228628Y-66269714D02*
X95514342Y-66269714D01*
X95514342Y-66269714D02*
X95609580Y-66317333D01*
X95609580Y-66317333D02*
X95657200Y-66364952D01*
X95657200Y-66364952D02*
X95704819Y-66460190D01*
X95704819Y-66460190D02*
X95704819Y-66603047D01*
X95038152Y-65936380D02*
X95704819Y-65745904D01*
X95704819Y-65745904D02*
X95228628Y-65555428D01*
X95228628Y-65555428D02*
X95704819Y-65364952D01*
X95704819Y-65364952D02*
X95038152Y-65174476D01*
X95657200Y-64412571D02*
X95704819Y-64507809D01*
X95704819Y-64507809D02*
X95704819Y-64698285D01*
X95704819Y-64698285D02*
X95657200Y-64793523D01*
X95657200Y-64793523D02*
X95561961Y-64841142D01*
X95561961Y-64841142D02*
X95181009Y-64841142D01*
X95181009Y-64841142D02*
X95085771Y-64793523D01*
X95085771Y-64793523D02*
X95038152Y-64698285D01*
X95038152Y-64698285D02*
X95038152Y-64507809D01*
X95038152Y-64507809D02*
X95085771Y-64412571D01*
X95085771Y-64412571D02*
X95181009Y-64364952D01*
X95181009Y-64364952D02*
X95276247Y-64364952D01*
X95276247Y-64364952D02*
X95371485Y-64841142D01*
X95704819Y-63936380D02*
X95038152Y-63936380D01*
X95228628Y-63936380D02*
X95133390Y-63888761D01*
X95133390Y-63888761D02*
X95085771Y-63841142D01*
X95085771Y-63841142D02*
X95038152Y-63745904D01*
X95038152Y-63745904D02*
X95038152Y-63650666D01*
X95800057Y-63555428D02*
X95800057Y-62793523D01*
X95704819Y-62555427D02*
X95038152Y-62555427D01*
X95133390Y-62555427D02*
X95085771Y-62507808D01*
X95085771Y-62507808D02*
X95038152Y-62412570D01*
X95038152Y-62412570D02*
X95038152Y-62269713D01*
X95038152Y-62269713D02*
X95085771Y-62174475D01*
X95085771Y-62174475D02*
X95181009Y-62126856D01*
X95181009Y-62126856D02*
X95704819Y-62126856D01*
X95181009Y-62126856D02*
X95085771Y-62079237D01*
X95085771Y-62079237D02*
X95038152Y-61983999D01*
X95038152Y-61983999D02*
X95038152Y-61841142D01*
X95038152Y-61841142D02*
X95085771Y-61745903D01*
X95085771Y-61745903D02*
X95181009Y-61698284D01*
X95181009Y-61698284D02*
X95704819Y-61698284D01*
X95704819Y-61079237D02*
X95657200Y-61174475D01*
X95657200Y-61174475D02*
X95609580Y-61222094D01*
X95609580Y-61222094D02*
X95514342Y-61269713D01*
X95514342Y-61269713D02*
X95228628Y-61269713D01*
X95228628Y-61269713D02*
X95133390Y-61222094D01*
X95133390Y-61222094D02*
X95085771Y-61174475D01*
X95085771Y-61174475D02*
X95038152Y-61079237D01*
X95038152Y-61079237D02*
X95038152Y-60936380D01*
X95038152Y-60936380D02*
X95085771Y-60841142D01*
X95085771Y-60841142D02*
X95133390Y-60793523D01*
X95133390Y-60793523D02*
X95228628Y-60745904D01*
X95228628Y-60745904D02*
X95514342Y-60745904D01*
X95514342Y-60745904D02*
X95609580Y-60793523D01*
X95609580Y-60793523D02*
X95657200Y-60841142D01*
X95657200Y-60841142D02*
X95704819Y-60936380D01*
X95704819Y-60936380D02*
X95704819Y-61079237D01*
X95038152Y-60317332D02*
X95704819Y-60317332D01*
X95133390Y-60317332D02*
X95085771Y-60269713D01*
X95085771Y-60269713D02*
X95038152Y-60174475D01*
X95038152Y-60174475D02*
X95038152Y-60031618D01*
X95038152Y-60031618D02*
X95085771Y-59936380D01*
X95085771Y-59936380D02*
X95181009Y-59888761D01*
X95181009Y-59888761D02*
X95704819Y-59888761D01*
X95704819Y-59412570D02*
X95038152Y-59412570D01*
X94704819Y-59412570D02*
X94752438Y-59460189D01*
X94752438Y-59460189D02*
X94800057Y-59412570D01*
X94800057Y-59412570D02*
X94752438Y-59364951D01*
X94752438Y-59364951D02*
X94704819Y-59412570D01*
X94704819Y-59412570D02*
X94800057Y-59412570D01*
X95038152Y-59079237D02*
X95038152Y-58698285D01*
X94704819Y-58936380D02*
X95561961Y-58936380D01*
X95561961Y-58936380D02*
X95657200Y-58888761D01*
X95657200Y-58888761D02*
X95704819Y-58793523D01*
X95704819Y-58793523D02*
X95704819Y-58698285D01*
X95704819Y-58222094D02*
X95657200Y-58317332D01*
X95657200Y-58317332D02*
X95609580Y-58364951D01*
X95609580Y-58364951D02*
X95514342Y-58412570D01*
X95514342Y-58412570D02*
X95228628Y-58412570D01*
X95228628Y-58412570D02*
X95133390Y-58364951D01*
X95133390Y-58364951D02*
X95085771Y-58317332D01*
X95085771Y-58317332D02*
X95038152Y-58222094D01*
X95038152Y-58222094D02*
X95038152Y-58079237D01*
X95038152Y-58079237D02*
X95085771Y-57983999D01*
X95085771Y-57983999D02*
X95133390Y-57936380D01*
X95133390Y-57936380D02*
X95228628Y-57888761D01*
X95228628Y-57888761D02*
X95514342Y-57888761D01*
X95514342Y-57888761D02*
X95609580Y-57936380D01*
X95609580Y-57936380D02*
X95657200Y-57983999D01*
X95657200Y-57983999D02*
X95704819Y-58079237D01*
X95704819Y-58079237D02*
X95704819Y-58222094D01*
X95704819Y-57460189D02*
X95038152Y-57460189D01*
X95228628Y-57460189D02*
X95133390Y-57412570D01*
X95133390Y-57412570D02*
X95085771Y-57364951D01*
X95085771Y-57364951D02*
X95038152Y-57269713D01*
X95038152Y-57269713D02*
X95038152Y-57174475D01*
X97504819Y-86427833D02*
X98219104Y-86427833D01*
X98219104Y-86427833D02*
X98361961Y-86475452D01*
X98361961Y-86475452D02*
X98457200Y-86570690D01*
X98457200Y-86570690D02*
X98504819Y-86713547D01*
X98504819Y-86713547D02*
X98504819Y-86808785D01*
X98504819Y-85904023D02*
X98504819Y-85713547D01*
X98504819Y-85713547D02*
X98457200Y-85618309D01*
X98457200Y-85618309D02*
X98409580Y-85570690D01*
X98409580Y-85570690D02*
X98266723Y-85475452D01*
X98266723Y-85475452D02*
X98076247Y-85427833D01*
X98076247Y-85427833D02*
X97695295Y-85427833D01*
X97695295Y-85427833D02*
X97600057Y-85475452D01*
X97600057Y-85475452D02*
X97552438Y-85523071D01*
X97552438Y-85523071D02*
X97504819Y-85618309D01*
X97504819Y-85618309D02*
X97504819Y-85808785D01*
X97504819Y-85808785D02*
X97552438Y-85904023D01*
X97552438Y-85904023D02*
X97600057Y-85951642D01*
X97600057Y-85951642D02*
X97695295Y-85999261D01*
X97695295Y-85999261D02*
X97933390Y-85999261D01*
X97933390Y-85999261D02*
X98028628Y-85951642D01*
X98028628Y-85951642D02*
X98076247Y-85904023D01*
X98076247Y-85904023D02*
X98123866Y-85808785D01*
X98123866Y-85808785D02*
X98123866Y-85618309D01*
X98123866Y-85618309D02*
X98076247Y-85523071D01*
X98076247Y-85523071D02*
X98028628Y-85475452D01*
X98028628Y-85475452D02*
X97933390Y-85427833D01*
X94958819Y-88161143D02*
X94958819Y-88637333D01*
X94958819Y-88637333D02*
X95435009Y-88684952D01*
X95435009Y-88684952D02*
X95387390Y-88637333D01*
X95387390Y-88637333D02*
X95339771Y-88542095D01*
X95339771Y-88542095D02*
X95339771Y-88304000D01*
X95339771Y-88304000D02*
X95387390Y-88208762D01*
X95387390Y-88208762D02*
X95435009Y-88161143D01*
X95435009Y-88161143D02*
X95530247Y-88113524D01*
X95530247Y-88113524D02*
X95768342Y-88113524D01*
X95768342Y-88113524D02*
X95863580Y-88161143D01*
X95863580Y-88161143D02*
X95911200Y-88208762D01*
X95911200Y-88208762D02*
X95958819Y-88304000D01*
X95958819Y-88304000D02*
X95958819Y-88542095D01*
X95958819Y-88542095D02*
X95911200Y-88637333D01*
X95911200Y-88637333D02*
X95863580Y-88684952D01*
X95292152Y-87780190D02*
X95958819Y-87542095D01*
X95958819Y-87542095D02*
X95292152Y-87304000D01*
X96054057Y-87161143D02*
X96054057Y-86399238D01*
X95958819Y-86161142D02*
X94958819Y-86161142D01*
X95958819Y-85732571D02*
X95435009Y-85732571D01*
X95435009Y-85732571D02*
X95339771Y-85780190D01*
X95339771Y-85780190D02*
X95292152Y-85875428D01*
X95292152Y-85875428D02*
X95292152Y-86018285D01*
X95292152Y-86018285D02*
X95339771Y-86113523D01*
X95339771Y-86113523D02*
X95387390Y-86161142D01*
X95958819Y-85256380D02*
X95292152Y-85256380D01*
X94958819Y-85256380D02*
X95006438Y-85303999D01*
X95006438Y-85303999D02*
X95054057Y-85256380D01*
X95054057Y-85256380D02*
X95006438Y-85208761D01*
X95006438Y-85208761D02*
X94958819Y-85256380D01*
X94958819Y-85256380D02*
X95054057Y-85256380D01*
X95292152Y-84351619D02*
X96101676Y-84351619D01*
X96101676Y-84351619D02*
X96196914Y-84399238D01*
X96196914Y-84399238D02*
X96244533Y-84446857D01*
X96244533Y-84446857D02*
X96292152Y-84542095D01*
X96292152Y-84542095D02*
X96292152Y-84684952D01*
X96292152Y-84684952D02*
X96244533Y-84780190D01*
X95911200Y-84351619D02*
X95958819Y-84446857D01*
X95958819Y-84446857D02*
X95958819Y-84637333D01*
X95958819Y-84637333D02*
X95911200Y-84732571D01*
X95911200Y-84732571D02*
X95863580Y-84780190D01*
X95863580Y-84780190D02*
X95768342Y-84827809D01*
X95768342Y-84827809D02*
X95482628Y-84827809D01*
X95482628Y-84827809D02*
X95387390Y-84780190D01*
X95387390Y-84780190D02*
X95339771Y-84732571D01*
X95339771Y-84732571D02*
X95292152Y-84637333D01*
X95292152Y-84637333D02*
X95292152Y-84446857D01*
X95292152Y-84446857D02*
X95339771Y-84351619D01*
X95958819Y-83875428D02*
X94958819Y-83875428D01*
X95958819Y-83446857D02*
X95435009Y-83446857D01*
X95435009Y-83446857D02*
X95339771Y-83494476D01*
X95339771Y-83494476D02*
X95292152Y-83589714D01*
X95292152Y-83589714D02*
X95292152Y-83732571D01*
X95292152Y-83732571D02*
X95339771Y-83827809D01*
X95339771Y-83827809D02*
X95387390Y-83875428D01*
X95292152Y-82970666D02*
X96292152Y-82970666D01*
X95339771Y-82970666D02*
X95292152Y-82875428D01*
X95292152Y-82875428D02*
X95292152Y-82684952D01*
X95292152Y-82684952D02*
X95339771Y-82589714D01*
X95339771Y-82589714D02*
X95387390Y-82542095D01*
X95387390Y-82542095D02*
X95482628Y-82494476D01*
X95482628Y-82494476D02*
X95768342Y-82494476D01*
X95768342Y-82494476D02*
X95863580Y-82542095D01*
X95863580Y-82542095D02*
X95911200Y-82589714D01*
X95911200Y-82589714D02*
X95958819Y-82684952D01*
X95958819Y-82684952D02*
X95958819Y-82875428D01*
X95958819Y-82875428D02*
X95911200Y-82970666D01*
X95958819Y-81923047D02*
X95911200Y-82018285D01*
X95911200Y-82018285D02*
X95863580Y-82065904D01*
X95863580Y-82065904D02*
X95768342Y-82113523D01*
X95768342Y-82113523D02*
X95482628Y-82113523D01*
X95482628Y-82113523D02*
X95387390Y-82065904D01*
X95387390Y-82065904D02*
X95339771Y-82018285D01*
X95339771Y-82018285D02*
X95292152Y-81923047D01*
X95292152Y-81923047D02*
X95292152Y-81780190D01*
X95292152Y-81780190D02*
X95339771Y-81684952D01*
X95339771Y-81684952D02*
X95387390Y-81637333D01*
X95387390Y-81637333D02*
X95482628Y-81589714D01*
X95482628Y-81589714D02*
X95768342Y-81589714D01*
X95768342Y-81589714D02*
X95863580Y-81637333D01*
X95863580Y-81637333D02*
X95911200Y-81684952D01*
X95911200Y-81684952D02*
X95958819Y-81780190D01*
X95958819Y-81780190D02*
X95958819Y-81923047D01*
X95292152Y-81256380D02*
X95958819Y-81065904D01*
X95958819Y-81065904D02*
X95482628Y-80875428D01*
X95482628Y-80875428D02*
X95958819Y-80684952D01*
X95958819Y-80684952D02*
X95292152Y-80494476D01*
X95911200Y-79732571D02*
X95958819Y-79827809D01*
X95958819Y-79827809D02*
X95958819Y-80018285D01*
X95958819Y-80018285D02*
X95911200Y-80113523D01*
X95911200Y-80113523D02*
X95815961Y-80161142D01*
X95815961Y-80161142D02*
X95435009Y-80161142D01*
X95435009Y-80161142D02*
X95339771Y-80113523D01*
X95339771Y-80113523D02*
X95292152Y-80018285D01*
X95292152Y-80018285D02*
X95292152Y-79827809D01*
X95292152Y-79827809D02*
X95339771Y-79732571D01*
X95339771Y-79732571D02*
X95435009Y-79684952D01*
X95435009Y-79684952D02*
X95530247Y-79684952D01*
X95530247Y-79684952D02*
X95625485Y-80161142D01*
X95958819Y-79256380D02*
X95292152Y-79256380D01*
X95482628Y-79256380D02*
X95387390Y-79208761D01*
X95387390Y-79208761D02*
X95339771Y-79161142D01*
X95339771Y-79161142D02*
X95292152Y-79065904D01*
X95292152Y-79065904D02*
X95292152Y-78970666D01*
X96054057Y-78875428D02*
X96054057Y-78113523D01*
X95958819Y-77875427D02*
X95292152Y-77875427D01*
X94958819Y-77875427D02*
X95006438Y-77923046D01*
X95006438Y-77923046D02*
X95054057Y-77875427D01*
X95054057Y-77875427D02*
X95006438Y-77827808D01*
X95006438Y-77827808D02*
X94958819Y-77875427D01*
X94958819Y-77875427D02*
X95054057Y-77875427D01*
X95292152Y-77399237D02*
X95958819Y-77399237D01*
X95387390Y-77399237D02*
X95339771Y-77351618D01*
X95339771Y-77351618D02*
X95292152Y-77256380D01*
X95292152Y-77256380D02*
X95292152Y-77113523D01*
X95292152Y-77113523D02*
X95339771Y-77018285D01*
X95339771Y-77018285D02*
X95435009Y-76970666D01*
X95435009Y-76970666D02*
X95958819Y-76970666D01*
X97504819Y-54785333D02*
X98219104Y-54785333D01*
X98219104Y-54785333D02*
X98361961Y-54832952D01*
X98361961Y-54832952D02*
X98457200Y-54928190D01*
X98457200Y-54928190D02*
X98504819Y-55071047D01*
X98504819Y-55071047D02*
X98504819Y-55166285D01*
X97504819Y-53880571D02*
X97504819Y-54071047D01*
X97504819Y-54071047D02*
X97552438Y-54166285D01*
X97552438Y-54166285D02*
X97600057Y-54213904D01*
X97600057Y-54213904D02*
X97742914Y-54309142D01*
X97742914Y-54309142D02*
X97933390Y-54356761D01*
X97933390Y-54356761D02*
X98314342Y-54356761D01*
X98314342Y-54356761D02*
X98409580Y-54309142D01*
X98409580Y-54309142D02*
X98457200Y-54261523D01*
X98457200Y-54261523D02*
X98504819Y-54166285D01*
X98504819Y-54166285D02*
X98504819Y-53975809D01*
X98504819Y-53975809D02*
X98457200Y-53880571D01*
X98457200Y-53880571D02*
X98409580Y-53832952D01*
X98409580Y-53832952D02*
X98314342Y-53785333D01*
X98314342Y-53785333D02*
X98076247Y-53785333D01*
X98076247Y-53785333D02*
X97981009Y-53832952D01*
X97981009Y-53832952D02*
X97933390Y-53880571D01*
X97933390Y-53880571D02*
X97885771Y-53975809D01*
X97885771Y-53975809D02*
X97885771Y-54166285D01*
X97885771Y-54166285D02*
X97933390Y-54261523D01*
X97933390Y-54261523D02*
X97981009Y-54309142D01*
X97981009Y-54309142D02*
X98076247Y-54356761D01*
X109928819Y-56696952D02*
X108928819Y-56696952D01*
X109309771Y-56696952D02*
X109262152Y-56601714D01*
X109262152Y-56601714D02*
X109262152Y-56411238D01*
X109262152Y-56411238D02*
X109309771Y-56316000D01*
X109309771Y-56316000D02*
X109357390Y-56268381D01*
X109357390Y-56268381D02*
X109452628Y-56220762D01*
X109452628Y-56220762D02*
X109738342Y-56220762D01*
X109738342Y-56220762D02*
X109833580Y-56268381D01*
X109833580Y-56268381D02*
X109881200Y-56316000D01*
X109881200Y-56316000D02*
X109928819Y-56411238D01*
X109928819Y-56411238D02*
X109928819Y-56601714D01*
X109928819Y-56601714D02*
X109881200Y-56696952D01*
X109928819Y-55363619D02*
X109405009Y-55363619D01*
X109405009Y-55363619D02*
X109309771Y-55411238D01*
X109309771Y-55411238D02*
X109262152Y-55506476D01*
X109262152Y-55506476D02*
X109262152Y-55696952D01*
X109262152Y-55696952D02*
X109309771Y-55792190D01*
X109881200Y-55363619D02*
X109928819Y-55458857D01*
X109928819Y-55458857D02*
X109928819Y-55696952D01*
X109928819Y-55696952D02*
X109881200Y-55792190D01*
X109881200Y-55792190D02*
X109785961Y-55839809D01*
X109785961Y-55839809D02*
X109690723Y-55839809D01*
X109690723Y-55839809D02*
X109595485Y-55792190D01*
X109595485Y-55792190D02*
X109547866Y-55696952D01*
X109547866Y-55696952D02*
X109547866Y-55458857D01*
X109547866Y-55458857D02*
X109500247Y-55363619D01*
X109262152Y-55030285D02*
X109262152Y-54649333D01*
X108928819Y-54887428D02*
X109785961Y-54887428D01*
X109785961Y-54887428D02*
X109881200Y-54839809D01*
X109881200Y-54839809D02*
X109928819Y-54744571D01*
X109928819Y-54744571D02*
X109928819Y-54649333D01*
X109262152Y-54458856D02*
X109262152Y-54077904D01*
X108928819Y-54315999D02*
X109785961Y-54315999D01*
X109785961Y-54315999D02*
X109881200Y-54268380D01*
X109881200Y-54268380D02*
X109928819Y-54173142D01*
X109928819Y-54173142D02*
X109928819Y-54077904D01*
X109881200Y-53363618D02*
X109928819Y-53458856D01*
X109928819Y-53458856D02*
X109928819Y-53649332D01*
X109928819Y-53649332D02*
X109881200Y-53744570D01*
X109881200Y-53744570D02*
X109785961Y-53792189D01*
X109785961Y-53792189D02*
X109405009Y-53792189D01*
X109405009Y-53792189D02*
X109309771Y-53744570D01*
X109309771Y-53744570D02*
X109262152Y-53649332D01*
X109262152Y-53649332D02*
X109262152Y-53458856D01*
X109262152Y-53458856D02*
X109309771Y-53363618D01*
X109309771Y-53363618D02*
X109405009Y-53315999D01*
X109405009Y-53315999D02*
X109500247Y-53315999D01*
X109500247Y-53315999D02*
X109595485Y-53792189D01*
X109928819Y-52887427D02*
X109262152Y-52887427D01*
X109452628Y-52887427D02*
X109357390Y-52839808D01*
X109357390Y-52839808D02*
X109309771Y-52792189D01*
X109309771Y-52792189D02*
X109262152Y-52696951D01*
X109262152Y-52696951D02*
X109262152Y-52601713D01*
X109928819Y-52268379D02*
X109262152Y-52268379D01*
X108928819Y-52268379D02*
X108976438Y-52315998D01*
X108976438Y-52315998D02*
X109024057Y-52268379D01*
X109024057Y-52268379D02*
X108976438Y-52220760D01*
X108976438Y-52220760D02*
X108928819Y-52268379D01*
X108928819Y-52268379D02*
X109024057Y-52268379D01*
X109262152Y-51792189D02*
X110119295Y-51792189D01*
X110119295Y-51792189D02*
X110214533Y-51839808D01*
X110214533Y-51839808D02*
X110262152Y-51935046D01*
X110262152Y-51935046D02*
X110262152Y-51982665D01*
X108928819Y-51792189D02*
X108976438Y-51839808D01*
X108976438Y-51839808D02*
X109024057Y-51792189D01*
X109024057Y-51792189D02*
X108976438Y-51744570D01*
X108976438Y-51744570D02*
X108928819Y-51792189D01*
X108928819Y-51792189D02*
X109024057Y-51792189D01*
X110024057Y-51554095D02*
X110024057Y-50792190D01*
X109928819Y-50030285D02*
X109928819Y-50601713D01*
X109928819Y-50315999D02*
X108928819Y-50315999D01*
X108928819Y-50315999D02*
X109071676Y-50411237D01*
X109071676Y-50411237D02*
X109166914Y-50506475D01*
X109166914Y-50506475D02*
X109214533Y-50601713D01*
X109024057Y-49649332D02*
X108976438Y-49601713D01*
X108976438Y-49601713D02*
X108928819Y-49506475D01*
X108928819Y-49506475D02*
X108928819Y-49268380D01*
X108928819Y-49268380D02*
X108976438Y-49173142D01*
X108976438Y-49173142D02*
X109024057Y-49125523D01*
X109024057Y-49125523D02*
X109119295Y-49077904D01*
X109119295Y-49077904D02*
X109214533Y-49077904D01*
X109214533Y-49077904D02*
X109357390Y-49125523D01*
X109357390Y-49125523D02*
X109928819Y-49696951D01*
X109928819Y-49696951D02*
X109928819Y-49077904D01*
X109833580Y-48649332D02*
X109881200Y-48601713D01*
X109881200Y-48601713D02*
X109928819Y-48649332D01*
X109928819Y-48649332D02*
X109881200Y-48696951D01*
X109881200Y-48696951D02*
X109833580Y-48649332D01*
X109833580Y-48649332D02*
X109928819Y-48649332D01*
X108928819Y-48268380D02*
X108928819Y-47649333D01*
X108928819Y-47649333D02*
X109309771Y-47982666D01*
X109309771Y-47982666D02*
X109309771Y-47839809D01*
X109309771Y-47839809D02*
X109357390Y-47744571D01*
X109357390Y-47744571D02*
X109405009Y-47696952D01*
X109405009Y-47696952D02*
X109500247Y-47649333D01*
X109500247Y-47649333D02*
X109738342Y-47649333D01*
X109738342Y-47649333D02*
X109833580Y-47696952D01*
X109833580Y-47696952D02*
X109881200Y-47744571D01*
X109881200Y-47744571D02*
X109928819Y-47839809D01*
X109928819Y-47839809D02*
X109928819Y-48125523D01*
X109928819Y-48125523D02*
X109881200Y-48220761D01*
X109881200Y-48220761D02*
X109833580Y-48268380D01*
X109262152Y-47315999D02*
X109928819Y-47077904D01*
X109928819Y-47077904D02*
X109262152Y-46839809D01*
X76891905Y-65904819D02*
X76891905Y-64904819D01*
X76891905Y-64904819D02*
X77130000Y-64904819D01*
X77130000Y-64904819D02*
X77272857Y-64952438D01*
X77272857Y-64952438D02*
X77368095Y-65047676D01*
X77368095Y-65047676D02*
X77415714Y-65142914D01*
X77415714Y-65142914D02*
X77463333Y-65333390D01*
X77463333Y-65333390D02*
X77463333Y-65476247D01*
X77463333Y-65476247D02*
X77415714Y-65666723D01*
X77415714Y-65666723D02*
X77368095Y-65761961D01*
X77368095Y-65761961D02*
X77272857Y-65857200D01*
X77272857Y-65857200D02*
X77130000Y-65904819D01*
X77130000Y-65904819D02*
X76891905Y-65904819D01*
X78320476Y-65238152D02*
X78320476Y-65904819D01*
X78082381Y-64857200D02*
X77844286Y-65571485D01*
X77844286Y-65571485D02*
X78463333Y-65571485D01*
X67368095Y-68974819D02*
X67368095Y-67974819D01*
X67939523Y-68974819D02*
X67510952Y-68403390D01*
X67939523Y-67974819D02*
X67368095Y-68546247D01*
X97504819Y-75867333D02*
X98219104Y-75867333D01*
X98219104Y-75867333D02*
X98361961Y-75914952D01*
X98361961Y-75914952D02*
X98457200Y-76010190D01*
X98457200Y-76010190D02*
X98504819Y-76153047D01*
X98504819Y-76153047D02*
X98504819Y-76248285D01*
X97933390Y-75248285D02*
X97885771Y-75343523D01*
X97885771Y-75343523D02*
X97838152Y-75391142D01*
X97838152Y-75391142D02*
X97742914Y-75438761D01*
X97742914Y-75438761D02*
X97695295Y-75438761D01*
X97695295Y-75438761D02*
X97600057Y-75391142D01*
X97600057Y-75391142D02*
X97552438Y-75343523D01*
X97552438Y-75343523D02*
X97504819Y-75248285D01*
X97504819Y-75248285D02*
X97504819Y-75057809D01*
X97504819Y-75057809D02*
X97552438Y-74962571D01*
X97552438Y-74962571D02*
X97600057Y-74914952D01*
X97600057Y-74914952D02*
X97695295Y-74867333D01*
X97695295Y-74867333D02*
X97742914Y-74867333D01*
X97742914Y-74867333D02*
X97838152Y-74914952D01*
X97838152Y-74914952D02*
X97885771Y-74962571D01*
X97885771Y-74962571D02*
X97933390Y-75057809D01*
X97933390Y-75057809D02*
X97933390Y-75248285D01*
X97933390Y-75248285D02*
X97981009Y-75343523D01*
X97981009Y-75343523D02*
X98028628Y-75391142D01*
X98028628Y-75391142D02*
X98123866Y-75438761D01*
X98123866Y-75438761D02*
X98314342Y-75438761D01*
X98314342Y-75438761D02*
X98409580Y-75391142D01*
X98409580Y-75391142D02*
X98457200Y-75343523D01*
X98457200Y-75343523D02*
X98504819Y-75248285D01*
X98504819Y-75248285D02*
X98504819Y-75057809D01*
X98504819Y-75057809D02*
X98457200Y-74962571D01*
X98457200Y-74962571D02*
X98409580Y-74914952D01*
X98409580Y-74914952D02*
X98314342Y-74867333D01*
X98314342Y-74867333D02*
X98123866Y-74867333D01*
X98123866Y-74867333D02*
X98028628Y-74914952D01*
X98028628Y-74914952D02*
X97981009Y-74962571D01*
X97981009Y-74962571D02*
X97933390Y-75057809D01*
X109844819Y-74826857D02*
X109844819Y-75398285D01*
X109844819Y-75112571D02*
X108844819Y-75112571D01*
X108844819Y-75112571D02*
X108987676Y-75207809D01*
X108987676Y-75207809D02*
X109082914Y-75303047D01*
X109082914Y-75303047D02*
X109130533Y-75398285D01*
X108940057Y-74445904D02*
X108892438Y-74398285D01*
X108892438Y-74398285D02*
X108844819Y-74303047D01*
X108844819Y-74303047D02*
X108844819Y-74064952D01*
X108844819Y-74064952D02*
X108892438Y-73969714D01*
X108892438Y-73969714D02*
X108940057Y-73922095D01*
X108940057Y-73922095D02*
X109035295Y-73874476D01*
X109035295Y-73874476D02*
X109130533Y-73874476D01*
X109130533Y-73874476D02*
X109273390Y-73922095D01*
X109273390Y-73922095D02*
X109844819Y-74493523D01*
X109844819Y-74493523D02*
X109844819Y-73874476D01*
X109178152Y-73541142D02*
X109844819Y-73303047D01*
X109844819Y-73303047D02*
X109178152Y-73064952D01*
X109940057Y-72922095D02*
X109940057Y-72160190D01*
X109844819Y-71779237D02*
X109797200Y-71874475D01*
X109797200Y-71874475D02*
X109749580Y-71922094D01*
X109749580Y-71922094D02*
X109654342Y-71969713D01*
X109654342Y-71969713D02*
X109368628Y-71969713D01*
X109368628Y-71969713D02*
X109273390Y-71922094D01*
X109273390Y-71922094D02*
X109225771Y-71874475D01*
X109225771Y-71874475D02*
X109178152Y-71779237D01*
X109178152Y-71779237D02*
X109178152Y-71636380D01*
X109178152Y-71636380D02*
X109225771Y-71541142D01*
X109225771Y-71541142D02*
X109273390Y-71493523D01*
X109273390Y-71493523D02*
X109368628Y-71445904D01*
X109368628Y-71445904D02*
X109654342Y-71445904D01*
X109654342Y-71445904D02*
X109749580Y-71493523D01*
X109749580Y-71493523D02*
X109797200Y-71541142D01*
X109797200Y-71541142D02*
X109844819Y-71636380D01*
X109844819Y-71636380D02*
X109844819Y-71779237D01*
X109178152Y-70588761D02*
X109844819Y-70588761D01*
X109178152Y-71017332D02*
X109701961Y-71017332D01*
X109701961Y-71017332D02*
X109797200Y-70969713D01*
X109797200Y-70969713D02*
X109844819Y-70874475D01*
X109844819Y-70874475D02*
X109844819Y-70731618D01*
X109844819Y-70731618D02*
X109797200Y-70636380D01*
X109797200Y-70636380D02*
X109749580Y-70588761D01*
X109178152Y-70255427D02*
X109178152Y-69874475D01*
X108844819Y-70112570D02*
X109701961Y-70112570D01*
X109701961Y-70112570D02*
X109797200Y-70064951D01*
X109797200Y-70064951D02*
X109844819Y-69969713D01*
X109844819Y-69969713D02*
X109844819Y-69874475D01*
X49384976Y-105977319D02*
X49384976Y-106691604D01*
X49384976Y-106691604D02*
X49337357Y-106834461D01*
X49337357Y-106834461D02*
X49242119Y-106929700D01*
X49242119Y-106929700D02*
X49099262Y-106977319D01*
X49099262Y-106977319D02*
X49004024Y-106977319D01*
X50384976Y-106977319D02*
X49813548Y-106977319D01*
X50099262Y-106977319D02*
X50099262Y-105977319D01*
X50099262Y-105977319D02*
X50004024Y-106120176D01*
X50004024Y-106120176D02*
X49908786Y-106215414D01*
X49908786Y-106215414D02*
X49813548Y-106263033D01*
X51337357Y-106977319D02*
X50765929Y-106977319D01*
X51051643Y-106977319D02*
X51051643Y-105977319D01*
X51051643Y-105977319D02*
X50956405Y-106120176D01*
X50956405Y-106120176D02*
X50861167Y-106215414D01*
X50861167Y-106215414D02*
X50765929Y-106263033D01*
X43368309Y-94637319D02*
X43987356Y-94637319D01*
X43987356Y-94637319D02*
X43654023Y-95018271D01*
X43654023Y-95018271D02*
X43796880Y-95018271D01*
X43796880Y-95018271D02*
X43892118Y-95065890D01*
X43892118Y-95065890D02*
X43939737Y-95113509D01*
X43939737Y-95113509D02*
X43987356Y-95208747D01*
X43987356Y-95208747D02*
X43987356Y-95446842D01*
X43987356Y-95446842D02*
X43939737Y-95542080D01*
X43939737Y-95542080D02*
X43892118Y-95589700D01*
X43892118Y-95589700D02*
X43796880Y-95637319D01*
X43796880Y-95637319D02*
X43511166Y-95637319D01*
X43511166Y-95637319D02*
X43415928Y-95589700D01*
X43415928Y-95589700D02*
X43368309Y-95542080D01*
X44415928Y-95542080D02*
X44463547Y-95589700D01*
X44463547Y-95589700D02*
X44415928Y-95637319D01*
X44415928Y-95637319D02*
X44368309Y-95589700D01*
X44368309Y-95589700D02*
X44415928Y-95542080D01*
X44415928Y-95542080D02*
X44415928Y-95637319D01*
X44796880Y-94637319D02*
X45415927Y-94637319D01*
X45415927Y-94637319D02*
X45082594Y-95018271D01*
X45082594Y-95018271D02*
X45225451Y-95018271D01*
X45225451Y-95018271D02*
X45320689Y-95065890D01*
X45320689Y-95065890D02*
X45368308Y-95113509D01*
X45368308Y-95113509D02*
X45415927Y-95208747D01*
X45415927Y-95208747D02*
X45415927Y-95446842D01*
X45415927Y-95446842D02*
X45368308Y-95542080D01*
X45368308Y-95542080D02*
X45320689Y-95589700D01*
X45320689Y-95589700D02*
X45225451Y-95637319D01*
X45225451Y-95637319D02*
X44939737Y-95637319D01*
X44939737Y-95637319D02*
X44844499Y-95589700D01*
X44844499Y-95589700D02*
X44796880Y-95542080D01*
X45749261Y-94970652D02*
X45987356Y-95637319D01*
X45987356Y-95637319D02*
X46225451Y-94970652D01*
X46368309Y-95732557D02*
X47130213Y-95732557D01*
X47368309Y-94970652D02*
X47368309Y-95970652D01*
X47368309Y-95018271D02*
X47463547Y-94970652D01*
X47463547Y-94970652D02*
X47654023Y-94970652D01*
X47654023Y-94970652D02*
X47749261Y-95018271D01*
X47749261Y-95018271D02*
X47796880Y-95065890D01*
X47796880Y-95065890D02*
X47844499Y-95161128D01*
X47844499Y-95161128D02*
X47844499Y-95446842D01*
X47844499Y-95446842D02*
X47796880Y-95542080D01*
X47796880Y-95542080D02*
X47749261Y-95589700D01*
X47749261Y-95589700D02*
X47654023Y-95637319D01*
X47654023Y-95637319D02*
X47463547Y-95637319D01*
X47463547Y-95637319D02*
X47368309Y-95589700D01*
X48415928Y-95637319D02*
X48320690Y-95589700D01*
X48320690Y-95589700D02*
X48273071Y-95542080D01*
X48273071Y-95542080D02*
X48225452Y-95446842D01*
X48225452Y-95446842D02*
X48225452Y-95161128D01*
X48225452Y-95161128D02*
X48273071Y-95065890D01*
X48273071Y-95065890D02*
X48320690Y-95018271D01*
X48320690Y-95018271D02*
X48415928Y-94970652D01*
X48415928Y-94970652D02*
X48558785Y-94970652D01*
X48558785Y-94970652D02*
X48654023Y-95018271D01*
X48654023Y-95018271D02*
X48701642Y-95065890D01*
X48701642Y-95065890D02*
X48749261Y-95161128D01*
X48749261Y-95161128D02*
X48749261Y-95446842D01*
X48749261Y-95446842D02*
X48701642Y-95542080D01*
X48701642Y-95542080D02*
X48654023Y-95589700D01*
X48654023Y-95589700D02*
X48558785Y-95637319D01*
X48558785Y-95637319D02*
X48415928Y-95637319D01*
X49082595Y-94970652D02*
X49273071Y-95637319D01*
X49273071Y-95637319D02*
X49463547Y-95161128D01*
X49463547Y-95161128D02*
X49654023Y-95637319D01*
X49654023Y-95637319D02*
X49844499Y-94970652D01*
X50606404Y-95589700D02*
X50511166Y-95637319D01*
X50511166Y-95637319D02*
X50320690Y-95637319D01*
X50320690Y-95637319D02*
X50225452Y-95589700D01*
X50225452Y-95589700D02*
X50177833Y-95494461D01*
X50177833Y-95494461D02*
X50177833Y-95113509D01*
X50177833Y-95113509D02*
X50225452Y-95018271D01*
X50225452Y-95018271D02*
X50320690Y-94970652D01*
X50320690Y-94970652D02*
X50511166Y-94970652D01*
X50511166Y-94970652D02*
X50606404Y-95018271D01*
X50606404Y-95018271D02*
X50654023Y-95113509D01*
X50654023Y-95113509D02*
X50654023Y-95208747D01*
X50654023Y-95208747D02*
X50177833Y-95303985D01*
X51082595Y-95637319D02*
X51082595Y-94970652D01*
X51082595Y-95161128D02*
X51130214Y-95065890D01*
X51130214Y-95065890D02*
X51177833Y-95018271D01*
X51177833Y-95018271D02*
X51273071Y-94970652D01*
X51273071Y-94970652D02*
X51368309Y-94970652D01*
X76731905Y-17644819D02*
X76731905Y-16644819D01*
X76731905Y-16644819D02*
X76970000Y-16644819D01*
X76970000Y-16644819D02*
X77112857Y-16692438D01*
X77112857Y-16692438D02*
X77208095Y-16787676D01*
X77208095Y-16787676D02*
X77255714Y-16882914D01*
X77255714Y-16882914D02*
X77303333Y-17073390D01*
X77303333Y-17073390D02*
X77303333Y-17216247D01*
X77303333Y-17216247D02*
X77255714Y-17406723D01*
X77255714Y-17406723D02*
X77208095Y-17501961D01*
X77208095Y-17501961D02*
X77112857Y-17597200D01*
X77112857Y-17597200D02*
X76970000Y-17644819D01*
X76970000Y-17644819D02*
X76731905Y-17644819D01*
X78255714Y-17644819D02*
X77684286Y-17644819D01*
X77970000Y-17644819D02*
X77970000Y-16644819D01*
X77970000Y-16644819D02*
X77874762Y-16787676D01*
X77874762Y-16787676D02*
X77779524Y-16882914D01*
X77779524Y-16882914D02*
X77684286Y-16930533D01*
X67208095Y-20714819D02*
X67208095Y-19714819D01*
X67779523Y-20714819D02*
X67350952Y-20143390D01*
X67779523Y-19714819D02*
X67208095Y-20286247D01*
X97504819Y-33703333D02*
X98219104Y-33703333D01*
X98219104Y-33703333D02*
X98361961Y-33750952D01*
X98361961Y-33750952D02*
X98457200Y-33846190D01*
X98457200Y-33846190D02*
X98504819Y-33989047D01*
X98504819Y-33989047D02*
X98504819Y-34084285D01*
X97838152Y-32798571D02*
X98504819Y-32798571D01*
X97457200Y-33036666D02*
X98171485Y-33274761D01*
X98171485Y-33274761D02*
X98171485Y-32655714D01*
X109844819Y-37829524D02*
X108844819Y-37829524D01*
X109225771Y-37829524D02*
X109178152Y-37734286D01*
X109178152Y-37734286D02*
X109178152Y-37543810D01*
X109178152Y-37543810D02*
X109225771Y-37448572D01*
X109225771Y-37448572D02*
X109273390Y-37400953D01*
X109273390Y-37400953D02*
X109368628Y-37353334D01*
X109368628Y-37353334D02*
X109654342Y-37353334D01*
X109654342Y-37353334D02*
X109749580Y-37400953D01*
X109749580Y-37400953D02*
X109797200Y-37448572D01*
X109797200Y-37448572D02*
X109844819Y-37543810D01*
X109844819Y-37543810D02*
X109844819Y-37734286D01*
X109844819Y-37734286D02*
X109797200Y-37829524D01*
X109844819Y-36496191D02*
X109321009Y-36496191D01*
X109321009Y-36496191D02*
X109225771Y-36543810D01*
X109225771Y-36543810D02*
X109178152Y-36639048D01*
X109178152Y-36639048D02*
X109178152Y-36829524D01*
X109178152Y-36829524D02*
X109225771Y-36924762D01*
X109797200Y-36496191D02*
X109844819Y-36591429D01*
X109844819Y-36591429D02*
X109844819Y-36829524D01*
X109844819Y-36829524D02*
X109797200Y-36924762D01*
X109797200Y-36924762D02*
X109701961Y-36972381D01*
X109701961Y-36972381D02*
X109606723Y-36972381D01*
X109606723Y-36972381D02*
X109511485Y-36924762D01*
X109511485Y-36924762D02*
X109463866Y-36829524D01*
X109463866Y-36829524D02*
X109463866Y-36591429D01*
X109463866Y-36591429D02*
X109416247Y-36496191D01*
X109178152Y-36162857D02*
X109178152Y-35781905D01*
X108844819Y-36020000D02*
X109701961Y-36020000D01*
X109701961Y-36020000D02*
X109797200Y-35972381D01*
X109797200Y-35972381D02*
X109844819Y-35877143D01*
X109844819Y-35877143D02*
X109844819Y-35781905D01*
X109178152Y-35591428D02*
X109178152Y-35210476D01*
X108844819Y-35448571D02*
X109701961Y-35448571D01*
X109701961Y-35448571D02*
X109797200Y-35400952D01*
X109797200Y-35400952D02*
X109844819Y-35305714D01*
X109844819Y-35305714D02*
X109844819Y-35210476D01*
X109797200Y-34496190D02*
X109844819Y-34591428D01*
X109844819Y-34591428D02*
X109844819Y-34781904D01*
X109844819Y-34781904D02*
X109797200Y-34877142D01*
X109797200Y-34877142D02*
X109701961Y-34924761D01*
X109701961Y-34924761D02*
X109321009Y-34924761D01*
X109321009Y-34924761D02*
X109225771Y-34877142D01*
X109225771Y-34877142D02*
X109178152Y-34781904D01*
X109178152Y-34781904D02*
X109178152Y-34591428D01*
X109178152Y-34591428D02*
X109225771Y-34496190D01*
X109225771Y-34496190D02*
X109321009Y-34448571D01*
X109321009Y-34448571D02*
X109416247Y-34448571D01*
X109416247Y-34448571D02*
X109511485Y-34924761D01*
X109844819Y-34019999D02*
X109178152Y-34019999D01*
X109368628Y-34019999D02*
X109273390Y-33972380D01*
X109273390Y-33972380D02*
X109225771Y-33924761D01*
X109225771Y-33924761D02*
X109178152Y-33829523D01*
X109178152Y-33829523D02*
X109178152Y-33734285D01*
X109844819Y-33400951D02*
X109178152Y-33400951D01*
X108844819Y-33400951D02*
X108892438Y-33448570D01*
X108892438Y-33448570D02*
X108940057Y-33400951D01*
X108940057Y-33400951D02*
X108892438Y-33353332D01*
X108892438Y-33353332D02*
X108844819Y-33400951D01*
X108844819Y-33400951D02*
X108940057Y-33400951D01*
X109178152Y-32924761D02*
X110035295Y-32924761D01*
X110035295Y-32924761D02*
X110130533Y-32972380D01*
X110130533Y-32972380D02*
X110178152Y-33067618D01*
X110178152Y-33067618D02*
X110178152Y-33115237D01*
X108844819Y-32924761D02*
X108892438Y-32972380D01*
X108892438Y-32972380D02*
X108940057Y-32924761D01*
X108940057Y-32924761D02*
X108892438Y-32877142D01*
X108892438Y-32877142D02*
X108844819Y-32924761D01*
X108844819Y-32924761D02*
X108940057Y-32924761D01*
X109940057Y-32686667D02*
X109940057Y-31924762D01*
X109844819Y-31543809D02*
X109797200Y-31639047D01*
X109797200Y-31639047D02*
X109701961Y-31686666D01*
X109701961Y-31686666D02*
X108844819Y-31686666D01*
X109844819Y-30734285D02*
X109321009Y-30734285D01*
X109321009Y-30734285D02*
X109225771Y-30781904D01*
X109225771Y-30781904D02*
X109178152Y-30877142D01*
X109178152Y-30877142D02*
X109178152Y-31067618D01*
X109178152Y-31067618D02*
X109225771Y-31162856D01*
X109797200Y-30734285D02*
X109844819Y-30829523D01*
X109844819Y-30829523D02*
X109844819Y-31067618D01*
X109844819Y-31067618D02*
X109797200Y-31162856D01*
X109797200Y-31162856D02*
X109701961Y-31210475D01*
X109701961Y-31210475D02*
X109606723Y-31210475D01*
X109606723Y-31210475D02*
X109511485Y-31162856D01*
X109511485Y-31162856D02*
X109463866Y-31067618D01*
X109463866Y-31067618D02*
X109463866Y-30829523D01*
X109463866Y-30829523D02*
X109416247Y-30734285D01*
X109844819Y-29829523D02*
X108844819Y-29829523D01*
X109797200Y-29829523D02*
X109844819Y-29924761D01*
X109844819Y-29924761D02*
X109844819Y-30115237D01*
X109844819Y-30115237D02*
X109797200Y-30210475D01*
X109797200Y-30210475D02*
X109749580Y-30258094D01*
X109749580Y-30258094D02*
X109654342Y-30305713D01*
X109654342Y-30305713D02*
X109368628Y-30305713D01*
X109368628Y-30305713D02*
X109273390Y-30258094D01*
X109273390Y-30258094D02*
X109225771Y-30210475D01*
X109225771Y-30210475D02*
X109178152Y-30115237D01*
X109178152Y-30115237D02*
X109178152Y-29924761D01*
X109178152Y-29924761D02*
X109225771Y-29829523D01*
X109797200Y-28972380D02*
X109844819Y-29067618D01*
X109844819Y-29067618D02*
X109844819Y-29258094D01*
X109844819Y-29258094D02*
X109797200Y-29353332D01*
X109797200Y-29353332D02*
X109701961Y-29400951D01*
X109701961Y-29400951D02*
X109321009Y-29400951D01*
X109321009Y-29400951D02*
X109225771Y-29353332D01*
X109225771Y-29353332D02*
X109178152Y-29258094D01*
X109178152Y-29258094D02*
X109178152Y-29067618D01*
X109178152Y-29067618D02*
X109225771Y-28972380D01*
X109225771Y-28972380D02*
X109321009Y-28924761D01*
X109321009Y-28924761D02*
X109416247Y-28924761D01*
X109416247Y-28924761D02*
X109511485Y-29400951D01*
X109178152Y-28496189D02*
X109844819Y-28496189D01*
X109273390Y-28496189D02*
X109225771Y-28448570D01*
X109225771Y-28448570D02*
X109178152Y-28353332D01*
X109178152Y-28353332D02*
X109178152Y-28210475D01*
X109178152Y-28210475D02*
X109225771Y-28115237D01*
X109225771Y-28115237D02*
X109321009Y-28067618D01*
X109321009Y-28067618D02*
X109844819Y-28067618D01*
X109940057Y-27829523D02*
X109940057Y-27067618D01*
X109844819Y-26305713D02*
X109844819Y-26877141D01*
X109844819Y-26591427D02*
X108844819Y-26591427D01*
X108844819Y-26591427D02*
X108987676Y-26686665D01*
X108987676Y-26686665D02*
X109082914Y-26781903D01*
X109082914Y-26781903D02*
X109130533Y-26877141D01*
X108940057Y-25924760D02*
X108892438Y-25877141D01*
X108892438Y-25877141D02*
X108844819Y-25781903D01*
X108844819Y-25781903D02*
X108844819Y-25543808D01*
X108844819Y-25543808D02*
X108892438Y-25448570D01*
X108892438Y-25448570D02*
X108940057Y-25400951D01*
X108940057Y-25400951D02*
X109035295Y-25353332D01*
X109035295Y-25353332D02*
X109130533Y-25353332D01*
X109130533Y-25353332D02*
X109273390Y-25400951D01*
X109273390Y-25400951D02*
X109844819Y-25972379D01*
X109844819Y-25972379D02*
X109844819Y-25353332D01*
X109749580Y-24924760D02*
X109797200Y-24877141D01*
X109797200Y-24877141D02*
X109844819Y-24924760D01*
X109844819Y-24924760D02*
X109797200Y-24972379D01*
X109797200Y-24972379D02*
X109749580Y-24924760D01*
X109749580Y-24924760D02*
X109844819Y-24924760D01*
X108844819Y-24543808D02*
X108844819Y-23924761D01*
X108844819Y-23924761D02*
X109225771Y-24258094D01*
X109225771Y-24258094D02*
X109225771Y-24115237D01*
X109225771Y-24115237D02*
X109273390Y-24019999D01*
X109273390Y-24019999D02*
X109321009Y-23972380D01*
X109321009Y-23972380D02*
X109416247Y-23924761D01*
X109416247Y-23924761D02*
X109654342Y-23924761D01*
X109654342Y-23924761D02*
X109749580Y-23972380D01*
X109749580Y-23972380D02*
X109797200Y-24019999D01*
X109797200Y-24019999D02*
X109844819Y-24115237D01*
X109844819Y-24115237D02*
X109844819Y-24400951D01*
X109844819Y-24400951D02*
X109797200Y-24496189D01*
X109797200Y-24496189D02*
X109749580Y-24543808D01*
X109178152Y-23591427D02*
X109844819Y-23353332D01*
X109844819Y-23353332D02*
X109178152Y-23115237D01*
X97504819Y-23162333D02*
X98219104Y-23162333D01*
X98219104Y-23162333D02*
X98361961Y-23209952D01*
X98361961Y-23209952D02*
X98457200Y-23305190D01*
X98457200Y-23305190D02*
X98504819Y-23448047D01*
X98504819Y-23448047D02*
X98504819Y-23543285D01*
X97504819Y-22781380D02*
X97504819Y-22162333D01*
X97504819Y-22162333D02*
X97885771Y-22495666D01*
X97885771Y-22495666D02*
X97885771Y-22352809D01*
X97885771Y-22352809D02*
X97933390Y-22257571D01*
X97933390Y-22257571D02*
X97981009Y-22209952D01*
X97981009Y-22209952D02*
X98076247Y-22162333D01*
X98076247Y-22162333D02*
X98314342Y-22162333D01*
X98314342Y-22162333D02*
X98409580Y-22209952D01*
X98409580Y-22209952D02*
X98457200Y-22257571D01*
X98457200Y-22257571D02*
X98504819Y-22352809D01*
X98504819Y-22352809D02*
X98504819Y-22638523D01*
X98504819Y-22638523D02*
X98457200Y-22733761D01*
X98457200Y-22733761D02*
X98409580Y-22781380D01*
X95546152Y-27978762D02*
X95546152Y-27454953D01*
X95546152Y-27454953D02*
X96212819Y-27978762D01*
X96212819Y-27978762D02*
X96212819Y-27454953D01*
X96212819Y-26931143D02*
X96165200Y-27026381D01*
X96165200Y-27026381D02*
X96117580Y-27074000D01*
X96117580Y-27074000D02*
X96022342Y-27121619D01*
X96022342Y-27121619D02*
X95736628Y-27121619D01*
X95736628Y-27121619D02*
X95641390Y-27074000D01*
X95641390Y-27074000D02*
X95593771Y-27026381D01*
X95593771Y-27026381D02*
X95546152Y-26931143D01*
X95546152Y-26931143D02*
X95546152Y-26788286D01*
X95546152Y-26788286D02*
X95593771Y-26693048D01*
X95593771Y-26693048D02*
X95641390Y-26645429D01*
X95641390Y-26645429D02*
X95736628Y-26597810D01*
X95736628Y-26597810D02*
X96022342Y-26597810D01*
X96022342Y-26597810D02*
X96117580Y-26645429D01*
X96117580Y-26645429D02*
X96165200Y-26693048D01*
X96165200Y-26693048D02*
X96212819Y-26788286D01*
X96212819Y-26788286D02*
X96212819Y-26931143D01*
X95546152Y-26169238D02*
X96212819Y-26169238D01*
X95641390Y-26169238D02*
X95593771Y-26121619D01*
X95593771Y-26121619D02*
X95546152Y-26026381D01*
X95546152Y-26026381D02*
X95546152Y-25883524D01*
X95546152Y-25883524D02*
X95593771Y-25788286D01*
X95593771Y-25788286D02*
X95689009Y-25740667D01*
X95689009Y-25740667D02*
X96212819Y-25740667D01*
X95546152Y-25264476D02*
X96212819Y-25264476D01*
X95641390Y-25264476D02*
X95593771Y-25216857D01*
X95593771Y-25216857D02*
X95546152Y-25121619D01*
X95546152Y-25121619D02*
X95546152Y-24978762D01*
X95546152Y-24978762D02*
X95593771Y-24883524D01*
X95593771Y-24883524D02*
X95689009Y-24835905D01*
X95689009Y-24835905D02*
X96212819Y-24835905D01*
X96165200Y-23978762D02*
X96212819Y-24074000D01*
X96212819Y-24074000D02*
X96212819Y-24264476D01*
X96212819Y-24264476D02*
X96165200Y-24359714D01*
X96165200Y-24359714D02*
X96069961Y-24407333D01*
X96069961Y-24407333D02*
X95689009Y-24407333D01*
X95689009Y-24407333D02*
X95593771Y-24359714D01*
X95593771Y-24359714D02*
X95546152Y-24264476D01*
X95546152Y-24264476D02*
X95546152Y-24074000D01*
X95546152Y-24074000D02*
X95593771Y-23978762D01*
X95593771Y-23978762D02*
X95689009Y-23931143D01*
X95689009Y-23931143D02*
X95784247Y-23931143D01*
X95784247Y-23931143D02*
X95879485Y-24407333D01*
X95546152Y-23502571D02*
X96546152Y-23502571D01*
X95593771Y-23502571D02*
X95546152Y-23407333D01*
X95546152Y-23407333D02*
X95546152Y-23216857D01*
X95546152Y-23216857D02*
X95593771Y-23121619D01*
X95593771Y-23121619D02*
X95641390Y-23074000D01*
X95641390Y-23074000D02*
X95736628Y-23026381D01*
X95736628Y-23026381D02*
X96022342Y-23026381D01*
X96022342Y-23026381D02*
X96117580Y-23074000D01*
X96117580Y-23074000D02*
X96165200Y-23121619D01*
X96165200Y-23121619D02*
X96212819Y-23216857D01*
X96212819Y-23216857D02*
X96212819Y-23407333D01*
X96212819Y-23407333D02*
X96165200Y-23502571D01*
X96212819Y-22169238D02*
X95689009Y-22169238D01*
X95689009Y-22169238D02*
X95593771Y-22216857D01*
X95593771Y-22216857D02*
X95546152Y-22312095D01*
X95546152Y-22312095D02*
X95546152Y-22502571D01*
X95546152Y-22502571D02*
X95593771Y-22597809D01*
X96165200Y-22169238D02*
X96212819Y-22264476D01*
X96212819Y-22264476D02*
X96212819Y-22502571D01*
X96212819Y-22502571D02*
X96165200Y-22597809D01*
X96165200Y-22597809D02*
X96069961Y-22645428D01*
X96069961Y-22645428D02*
X95974723Y-22645428D01*
X95974723Y-22645428D02*
X95879485Y-22597809D01*
X95879485Y-22597809D02*
X95831866Y-22502571D01*
X95831866Y-22502571D02*
X95831866Y-22264476D01*
X95831866Y-22264476D02*
X95784247Y-22169238D01*
X95546152Y-21693047D02*
X96212819Y-21693047D01*
X95641390Y-21693047D02*
X95593771Y-21645428D01*
X95593771Y-21645428D02*
X95546152Y-21550190D01*
X95546152Y-21550190D02*
X95546152Y-21407333D01*
X95546152Y-21407333D02*
X95593771Y-21312095D01*
X95593771Y-21312095D02*
X95689009Y-21264476D01*
X95689009Y-21264476D02*
X96212819Y-21264476D01*
X96165200Y-20407333D02*
X96212819Y-20502571D01*
X96212819Y-20502571D02*
X96212819Y-20693047D01*
X96212819Y-20693047D02*
X96165200Y-20788285D01*
X96165200Y-20788285D02*
X96069961Y-20835904D01*
X96069961Y-20835904D02*
X95689009Y-20835904D01*
X95689009Y-20835904D02*
X95593771Y-20788285D01*
X95593771Y-20788285D02*
X95546152Y-20693047D01*
X95546152Y-20693047D02*
X95546152Y-20502571D01*
X95546152Y-20502571D02*
X95593771Y-20407333D01*
X95593771Y-20407333D02*
X95689009Y-20359714D01*
X95689009Y-20359714D02*
X95784247Y-20359714D01*
X95784247Y-20359714D02*
X95879485Y-20835904D01*
X96212819Y-19788285D02*
X96165200Y-19883523D01*
X96165200Y-19883523D02*
X96069961Y-19931142D01*
X96069961Y-19931142D02*
X95212819Y-19931142D01*
X96165200Y-19026380D02*
X96212819Y-19121618D01*
X96212819Y-19121618D02*
X96212819Y-19312094D01*
X96212819Y-19312094D02*
X96165200Y-19407332D01*
X96165200Y-19407332D02*
X96069961Y-19454951D01*
X96069961Y-19454951D02*
X95689009Y-19454951D01*
X95689009Y-19454951D02*
X95593771Y-19407332D01*
X95593771Y-19407332D02*
X95546152Y-19312094D01*
X95546152Y-19312094D02*
X95546152Y-19121618D01*
X95546152Y-19121618D02*
X95593771Y-19026380D01*
X95593771Y-19026380D02*
X95689009Y-18978761D01*
X95689009Y-18978761D02*
X95784247Y-18978761D01*
X95784247Y-18978761D02*
X95879485Y-19454951D01*
X95546152Y-18550189D02*
X96212819Y-18550189D01*
X95641390Y-18550189D02*
X95593771Y-18502570D01*
X95593771Y-18502570D02*
X95546152Y-18407332D01*
X95546152Y-18407332D02*
X95546152Y-18264475D01*
X95546152Y-18264475D02*
X95593771Y-18169237D01*
X95593771Y-18169237D02*
X95689009Y-18121618D01*
X95689009Y-18121618D02*
X96212819Y-18121618D01*
X96308057Y-17883523D02*
X96308057Y-17121618D01*
X96212819Y-16359713D02*
X96212819Y-16931141D01*
X96212819Y-16645427D02*
X95212819Y-16645427D01*
X95212819Y-16645427D02*
X95355676Y-16740665D01*
X95355676Y-16740665D02*
X95450914Y-16835903D01*
X95450914Y-16835903D02*
X95498533Y-16931141D01*
X95308057Y-15978760D02*
X95260438Y-15931141D01*
X95260438Y-15931141D02*
X95212819Y-15835903D01*
X95212819Y-15835903D02*
X95212819Y-15597808D01*
X95212819Y-15597808D02*
X95260438Y-15502570D01*
X95260438Y-15502570D02*
X95308057Y-15454951D01*
X95308057Y-15454951D02*
X95403295Y-15407332D01*
X95403295Y-15407332D02*
X95498533Y-15407332D01*
X95498533Y-15407332D02*
X95641390Y-15454951D01*
X95641390Y-15454951D02*
X96212819Y-16026379D01*
X96212819Y-16026379D02*
X96212819Y-15407332D01*
X96117580Y-14978760D02*
X96165200Y-14931141D01*
X96165200Y-14931141D02*
X96212819Y-14978760D01*
X96212819Y-14978760D02*
X96165200Y-15026379D01*
X96165200Y-15026379D02*
X96117580Y-14978760D01*
X96117580Y-14978760D02*
X96212819Y-14978760D01*
X95212819Y-14597808D02*
X95212819Y-13978761D01*
X95212819Y-13978761D02*
X95593771Y-14312094D01*
X95593771Y-14312094D02*
X95593771Y-14169237D01*
X95593771Y-14169237D02*
X95641390Y-14073999D01*
X95641390Y-14073999D02*
X95689009Y-14026380D01*
X95689009Y-14026380D02*
X95784247Y-13978761D01*
X95784247Y-13978761D02*
X96022342Y-13978761D01*
X96022342Y-13978761D02*
X96117580Y-14026380D01*
X96117580Y-14026380D02*
X96165200Y-14073999D01*
X96165200Y-14073999D02*
X96212819Y-14169237D01*
X96212819Y-14169237D02*
X96212819Y-14454951D01*
X96212819Y-14454951D02*
X96165200Y-14550189D01*
X96165200Y-14550189D02*
X96117580Y-14597808D01*
X95546152Y-13645427D02*
X96212819Y-13407332D01*
X96212819Y-13407332D02*
X95546152Y-13169237D01*
X76731905Y-50664819D02*
X76731905Y-49664819D01*
X76731905Y-49664819D02*
X76970000Y-49664819D01*
X76970000Y-49664819D02*
X77112857Y-49712438D01*
X77112857Y-49712438D02*
X77208095Y-49807676D01*
X77208095Y-49807676D02*
X77255714Y-49902914D01*
X77255714Y-49902914D02*
X77303333Y-50093390D01*
X77303333Y-50093390D02*
X77303333Y-50236247D01*
X77303333Y-50236247D02*
X77255714Y-50426723D01*
X77255714Y-50426723D02*
X77208095Y-50521961D01*
X77208095Y-50521961D02*
X77112857Y-50617200D01*
X77112857Y-50617200D02*
X76970000Y-50664819D01*
X76970000Y-50664819D02*
X76731905Y-50664819D01*
X77636667Y-49664819D02*
X78255714Y-49664819D01*
X78255714Y-49664819D02*
X77922381Y-50045771D01*
X77922381Y-50045771D02*
X78065238Y-50045771D01*
X78065238Y-50045771D02*
X78160476Y-50093390D01*
X78160476Y-50093390D02*
X78208095Y-50141009D01*
X78208095Y-50141009D02*
X78255714Y-50236247D01*
X78255714Y-50236247D02*
X78255714Y-50474342D01*
X78255714Y-50474342D02*
X78208095Y-50569580D01*
X78208095Y-50569580D02*
X78160476Y-50617200D01*
X78160476Y-50617200D02*
X78065238Y-50664819D01*
X78065238Y-50664819D02*
X77779524Y-50664819D01*
X77779524Y-50664819D02*
X77684286Y-50617200D01*
X77684286Y-50617200D02*
X77636667Y-50569580D01*
X67208095Y-53734819D02*
X67208095Y-52734819D01*
X67779523Y-53734819D02*
X67350952Y-53163390D01*
X67779523Y-52734819D02*
X67208095Y-53306247D01*
D11*
%TO.C,J12*%
X31693500Y-105542500D02*
X31693500Y-96322500D01*
X41913500Y-96322500D02*
X31693500Y-96322500D01*
X41913500Y-105542500D02*
X31693500Y-105542500D01*
X41913500Y-105542500D02*
X41913500Y-96322500D01*
X42153500Y-102782500D02*
X42153500Y-105782500D01*
X42153500Y-105782500D02*
X39153500Y-105782500D01*
%TO.C,J1*%
X21510000Y-30690000D02*
X15540000Y-30690000D01*
X15540000Y-30690000D02*
X15540000Y-43310000D01*
X17800000Y-30700000D02*
X17800000Y-31450000D01*
X16300000Y-30700000D02*
X15550000Y-30700000D01*
X15550000Y-30700000D02*
X15550000Y-32500000D01*
X20750000Y-31450000D02*
X20750000Y-37000000D01*
X17800000Y-31450000D02*
X20750000Y-31450000D01*
X16300000Y-32500000D02*
X16300000Y-30700000D01*
X15550000Y-32500000D02*
X16300000Y-32500000D01*
X16300000Y-34000000D02*
X15550000Y-34000000D01*
X15550000Y-34000000D02*
X15550000Y-40000000D01*
X20750000Y-37000000D02*
X20750000Y-41490000D01*
X16300000Y-40000000D02*
X16300000Y-34000000D01*
X15550000Y-40000000D02*
X16300000Y-40000000D01*
X16300000Y-41500000D02*
X15550000Y-41500000D01*
X15550000Y-41500000D02*
X15550000Y-43300000D01*
X15250000Y-42350000D02*
X15250000Y-43600000D01*
X17800000Y-42550000D02*
X19140000Y-42550000D01*
X17800000Y-43300000D02*
X17800000Y-42550000D01*
X16300000Y-43300000D02*
X16300000Y-41500000D01*
X15550000Y-43300000D02*
X16300000Y-43300000D01*
X21510000Y-43310000D02*
X21510000Y-30690000D01*
X15540000Y-43310000D02*
X21510000Y-43310000D01*
X15250000Y-43600000D02*
X16500000Y-43600000D01*
%TO.C,D2*%
X69470000Y-38100000D02*
X72960000Y-38100000D01*
X72960000Y-33430000D02*
X72960000Y-42770000D01*
X72960000Y-42770000D02*
X82300000Y-42770000D01*
X74325000Y-33430000D02*
X74325000Y-42770000D01*
X74445000Y-33430000D02*
X74445000Y-42770000D01*
X74565000Y-33430000D02*
X74565000Y-42770000D01*
X82300000Y-33430000D02*
X72960000Y-33430000D01*
X82300000Y-42770000D02*
X82300000Y-33430000D01*
X85790000Y-38100000D02*
X82300000Y-38100000D01*
%TO.C,J10*%
X52822500Y-105542500D02*
X52822500Y-96322500D01*
X63042500Y-96322500D02*
X52822500Y-96322500D01*
X63042500Y-105542500D02*
X52822500Y-105542500D01*
X63042500Y-105542500D02*
X63042500Y-96322500D01*
X63282500Y-102782500D02*
X63282500Y-105782500D01*
X63282500Y-105782500D02*
X60282500Y-105782500D01*
%TO.C,J5*%
X98790000Y-46411000D02*
X98790000Y-43411000D01*
X99030000Y-35951000D02*
X108250000Y-35951000D01*
X99030000Y-46171000D02*
X99030000Y-35951000D01*
X99030000Y-46171000D02*
X108250000Y-46171000D01*
X101790000Y-46411000D02*
X98790000Y-46411000D01*
X108250000Y-46171000D02*
X108250000Y-35951000D01*
%TO.C,J2*%
X21510000Y-59440000D02*
X15540000Y-59440000D01*
X15540000Y-59440000D02*
X15540000Y-72060000D01*
X17800000Y-59450000D02*
X17800000Y-60200000D01*
X16300000Y-59450000D02*
X15550000Y-59450000D01*
X15550000Y-59450000D02*
X15550000Y-61250000D01*
X20750000Y-60200000D02*
X20750000Y-65750000D01*
X17800000Y-60200000D02*
X20750000Y-60200000D01*
X16300000Y-61250000D02*
X16300000Y-59450000D01*
X15550000Y-61250000D02*
X16300000Y-61250000D01*
X16300000Y-62750000D02*
X15550000Y-62750000D01*
X15550000Y-62750000D02*
X15550000Y-68750000D01*
X20750000Y-65750000D02*
X20750000Y-70240000D01*
X16300000Y-68750000D02*
X16300000Y-62750000D01*
X15550000Y-68750000D02*
X16300000Y-68750000D01*
X16300000Y-70250000D02*
X15550000Y-70250000D01*
X15550000Y-70250000D02*
X15550000Y-72050000D01*
X15250000Y-71100000D02*
X15250000Y-72350000D01*
X17800000Y-71300000D02*
X19140000Y-71300000D01*
X17800000Y-72050000D02*
X17800000Y-71300000D01*
X16300000Y-72050000D02*
X16300000Y-70250000D01*
X15550000Y-72050000D02*
X16300000Y-72050000D01*
X21510000Y-72060000D02*
X21510000Y-59440000D01*
X15540000Y-72060000D02*
X21510000Y-72060000D01*
X15250000Y-72350000D02*
X16500000Y-72350000D01*
%TO.C,J7*%
X98790000Y-67493000D02*
X98790000Y-64493000D01*
X99030000Y-57033000D02*
X108250000Y-57033000D01*
X99030000Y-67253000D02*
X99030000Y-57033000D01*
X99030000Y-67253000D02*
X108250000Y-67253000D01*
X101790000Y-67493000D02*
X98790000Y-67493000D01*
X108250000Y-67253000D02*
X108250000Y-57033000D01*
%TO.C,J9*%
X98790000Y-88594500D02*
X98790000Y-85594500D01*
X99030000Y-78134500D02*
X108250000Y-78134500D01*
X99030000Y-88354500D02*
X99030000Y-78134500D01*
X99030000Y-88354500D02*
X108250000Y-88354500D01*
X101790000Y-88594500D02*
X98790000Y-88594500D01*
X108250000Y-88354500D02*
X108250000Y-78134500D01*
%TO.C,J6*%
X98790000Y-56952000D02*
X98790000Y-53952000D01*
X99030000Y-46492000D02*
X108250000Y-46492000D01*
X99030000Y-56712000D02*
X99030000Y-46492000D01*
X99030000Y-56712000D02*
X108250000Y-56712000D01*
X101790000Y-56952000D02*
X98790000Y-56952000D01*
X108250000Y-56712000D02*
X108250000Y-46492000D01*
%TO.C,D4*%
X69470000Y-71120000D02*
X72960000Y-71120000D01*
X72960000Y-66450000D02*
X72960000Y-75790000D01*
X72960000Y-75790000D02*
X82300000Y-75790000D01*
X74325000Y-66450000D02*
X74325000Y-75790000D01*
X74445000Y-66450000D02*
X74445000Y-75790000D01*
X74565000Y-66450000D02*
X74565000Y-75790000D01*
X82300000Y-66450000D02*
X72960000Y-66450000D01*
X82300000Y-75790000D02*
X82300000Y-66450000D01*
X85790000Y-71120000D02*
X82300000Y-71120000D01*
%TO.C,J8*%
X98790000Y-78034000D02*
X98790000Y-75034000D01*
X99030000Y-67574000D02*
X108250000Y-67574000D01*
X99030000Y-77794000D02*
X99030000Y-67574000D01*
X99030000Y-77794000D02*
X108250000Y-77794000D01*
X101790000Y-78034000D02*
X98790000Y-78034000D01*
X108250000Y-77794000D02*
X108250000Y-67574000D01*
%TO.C,J11*%
X42234500Y-105542500D02*
X42234500Y-96322500D01*
X52454500Y-96322500D02*
X42234500Y-96322500D01*
X52454500Y-105542500D02*
X42234500Y-105542500D01*
X52454500Y-105542500D02*
X52454500Y-96322500D01*
X52694500Y-102782500D02*
X52694500Y-105782500D01*
X52694500Y-105782500D02*
X49694500Y-105782500D01*
%TO.C,D1*%
X69310000Y-22860000D02*
X72800000Y-22860000D01*
X72800000Y-18190000D02*
X72800000Y-27530000D01*
X72800000Y-27530000D02*
X82140000Y-27530000D01*
X74165000Y-18190000D02*
X74165000Y-27530000D01*
X74285000Y-18190000D02*
X74285000Y-27530000D01*
X74405000Y-18190000D02*
X74405000Y-27530000D01*
X82140000Y-18190000D02*
X72800000Y-18190000D01*
X82140000Y-27530000D02*
X82140000Y-18190000D01*
X85630000Y-22860000D02*
X82140000Y-22860000D01*
%TO.C,J4*%
X98790000Y-35870000D02*
X98790000Y-32870000D01*
X99030000Y-25410000D02*
X108250000Y-25410000D01*
X99030000Y-35630000D02*
X99030000Y-25410000D01*
X99030000Y-35630000D02*
X108250000Y-35630000D01*
X101790000Y-35870000D02*
X98790000Y-35870000D01*
X108250000Y-35630000D02*
X108250000Y-25410000D01*
%TO.C,J3*%
X98790000Y-25329000D02*
X98790000Y-22329000D01*
X99030000Y-14869000D02*
X108250000Y-14869000D01*
X99030000Y-25089000D02*
X99030000Y-14869000D01*
X99030000Y-25089000D02*
X108250000Y-25089000D01*
X101790000Y-25329000D02*
X98790000Y-25329000D01*
X108250000Y-25089000D02*
X108250000Y-14869000D01*
%TO.C,D3*%
X69310000Y-55880000D02*
X72800000Y-55880000D01*
X72800000Y-51210000D02*
X72800000Y-60550000D01*
X72800000Y-60550000D02*
X82140000Y-60550000D01*
X74165000Y-51210000D02*
X74165000Y-60550000D01*
X74285000Y-51210000D02*
X74285000Y-60550000D01*
X74405000Y-51210000D02*
X74405000Y-60550000D01*
X82140000Y-51210000D02*
X72800000Y-51210000D01*
X82140000Y-60550000D02*
X82140000Y-51210000D01*
X85630000Y-55880000D02*
X82140000Y-55880000D01*
%TD*%
M02*
