%TF.GenerationSoftware,KiCad,Pcbnew,8.0.3*%
%TF.CreationDate,2024-11-03T20:36:30+01:00*%
%TF.ProjectId,weerstation-power,77656572-7374-4617-9469-6f6e2d706f77,rev?*%
%TF.SameCoordinates,Original*%
%TF.FileFunction,Copper,L2,Bot*%
%TF.FilePolarity,Positive*%
%FSLAX46Y46*%
G04 Gerber Fmt 4.6, Leading zero omitted, Abs format (unit mm)*
G04 Created by KiCad (PCBNEW 8.0.3) date 2024-11-03 20:36:30*
%MOMM*%
%LPD*%
G01*
G04 APERTURE LIST*
G04 Aperture macros list*
%AMRoundRect*
0 Rectangle with rounded corners*
0 $1 Rounding radius*
0 $2 $3 $4 $5 $6 $7 $8 $9 X,Y pos of 4 corners*
0 Add a 4 corners polygon primitive as box body*
4,1,4,$2,$3,$4,$5,$6,$7,$8,$9,$2,$3,0*
0 Add four circle primitives for the rounded corners*
1,1,$1+$1,$2,$3*
1,1,$1+$1,$4,$5*
1,1,$1+$1,$6,$7*
1,1,$1+$1,$8,$9*
0 Add four rect primitives between the rounded corners*
20,1,$1+$1,$2,$3,$4,$5,0*
20,1,$1+$1,$4,$5,$6,$7,0*
20,1,$1+$1,$6,$7,$8,$9,0*
20,1,$1+$1,$8,$9,$2,$3,0*%
G04 Aperture macros list end*
%TA.AperFunction,ComponentPad*%
%ADD10C,8.600000*%
%TD*%
%TA.AperFunction,ComponentPad*%
%ADD11R,3.000000X3.000000*%
%TD*%
%TA.AperFunction,ComponentPad*%
%ADD12C,3.000000*%
%TD*%
%TA.AperFunction,ComponentPad*%
%ADD13RoundRect,0.250000X0.725000X-0.600000X0.725000X0.600000X-0.725000X0.600000X-0.725000X-0.600000X0*%
%TD*%
%TA.AperFunction,ComponentPad*%
%ADD14O,1.950000X1.700000*%
%TD*%
%TA.AperFunction,ComponentPad*%
%ADD15R,3.200000X3.200000*%
%TD*%
%TA.AperFunction,ComponentPad*%
%ADD16O,3.200000X3.200000*%
%TD*%
%TA.AperFunction,SMDPad,CuDef*%
%ADD17RoundRect,0.250000X0.650000X-0.412500X0.650000X0.412500X-0.650000X0.412500X-0.650000X-0.412500X0*%
%TD*%
%TA.AperFunction,SMDPad,CuDef*%
%ADD18RoundRect,0.250000X0.412500X0.650000X-0.412500X0.650000X-0.412500X-0.650000X0.412500X-0.650000X0*%
%TD*%
%TA.AperFunction,SMDPad,CuDef*%
%ADD19RoundRect,0.375000X0.625000X0.375000X-0.625000X0.375000X-0.625000X-0.375000X0.625000X-0.375000X0*%
%TD*%
%TA.AperFunction,SMDPad,CuDef*%
%ADD20RoundRect,0.500000X0.500000X1.400000X-0.500000X1.400000X-0.500000X-1.400000X0.500000X-1.400000X0*%
%TD*%
%TA.AperFunction,ViaPad*%
%ADD21C,1.500000*%
%TD*%
%TA.AperFunction,ViaPad*%
%ADD22C,2.000000*%
%TD*%
%TA.AperFunction,ViaPad*%
%ADD23C,3.000000*%
%TD*%
%TA.AperFunction,Conductor*%
%ADD24C,1.000000*%
%TD*%
%TA.AperFunction,Conductor*%
%ADD25C,5.000000*%
%TD*%
%TA.AperFunction,Conductor*%
%ADD26C,1.326800*%
%TD*%
%TA.AperFunction,Conductor*%
%ADD27C,0.500000*%
%TD*%
%TA.AperFunction,Conductor*%
%ADD28C,1.502600*%
%TD*%
%TA.AperFunction,Conductor*%
%ADD29C,2.000000*%
%TD*%
%TA.AperFunction,Conductor*%
%ADD30C,3.000000*%
%TD*%
%TA.AperFunction,Conductor*%
%ADD31C,4.000000*%
%TD*%
%TA.AperFunction,Conductor*%
%ADD32C,2.999800*%
%TD*%
G04 APERTURE END LIST*
D10*
%TO.P,H4,1,1*%
%TO.N,GND*%
X20000000Y-100000000D03*
%TD*%
%TO.P,H3,1,1*%
%TO.N,GND*%
X100000000Y-100000000D03*
%TD*%
%TO.P,H2,1,1*%
%TO.N,GND*%
X50000000Y-20000000D03*
%TD*%
%TO.P,H1,1,1*%
%TO.N,GND*%
X20000000Y-20000000D03*
%TD*%
D11*
%TO.P,J12,1,Pin_1*%
%TO.N,+5VL*%
X39303500Y-100432500D03*
D12*
%TO.P,J12,2,Pin_2*%
%TO.N,GND*%
X34303500Y-100432500D03*
%TD*%
D13*
%TO.P,J1,1,Pin_1*%
%TO.N,+12L*%
X18000000Y-40750000D03*
D14*
%TO.P,J1,2,Pin_2*%
%TO.N,+5V*%
X18000000Y-38250000D03*
%TO.P,J1,3,Pin_3*%
%TO.N,+3.3V*%
X18000000Y-35750000D03*
%TO.P,J1,4,Pin_4*%
%TO.N,GND*%
X18000000Y-33250000D03*
%TD*%
D15*
%TO.P,D2,1,K*%
%TO.N,Net-(D2-K)*%
X67630000Y-38100000D03*
D16*
%TO.P,D2,2,A*%
%TO.N,Net-(D1-K)*%
X87630000Y-38100000D03*
%TD*%
D11*
%TO.P,J10,1,Pin_1*%
%TO.N,+5V*%
X60432500Y-100432500D03*
D12*
%TO.P,J10,2,Pin_2*%
%TO.N,GND*%
X55432500Y-100432500D03*
%TD*%
D11*
%TO.P,J5,1,Pin_1*%
%TO.N,Net-(D3-A)*%
X104140000Y-43561000D03*
D12*
%TO.P,J5,2,Pin_2*%
%TO.N,GND*%
X104140000Y-38561000D03*
%TD*%
D13*
%TO.P,J2,1,Pin_1*%
%TO.N,+12L*%
X18000000Y-69500000D03*
D14*
%TO.P,J2,2,Pin_2*%
%TO.N,+5V*%
X18000000Y-67000000D03*
%TO.P,J2,3,Pin_3*%
%TO.N,+3.3V*%
X18000000Y-64500000D03*
%TO.P,J2,4,Pin_4*%
%TO.N,GND*%
X18000000Y-62000000D03*
%TD*%
D11*
%TO.P,J7,1,Pin_1*%
%TO.N,Net-(D2-K)*%
X104140000Y-64643000D03*
D12*
%TO.P,J7,2,Pin_2*%
%TO.N,+12L*%
X104140000Y-59643000D03*
%TD*%
D11*
%TO.P,J9,1,Pin_1*%
%TO.N,Net-(D4-A)*%
X104140000Y-85744500D03*
D12*
%TO.P,J9,2,Pin_2*%
%TO.N,GND*%
X104140000Y-80744500D03*
%TD*%
D11*
%TO.P,J6,1,Pin_1*%
%TO.N,Net-(D2-K)*%
X104140000Y-54102000D03*
D12*
%TO.P,J6,2,Pin_2*%
%TO.N,GND*%
X104140000Y-49102000D03*
%TD*%
D15*
%TO.P,D4,1,K*%
%TO.N,+5VL*%
X67630000Y-71120000D03*
D16*
%TO.P,D4,2,A*%
%TO.N,Net-(D4-A)*%
X87630000Y-71120000D03*
%TD*%
D11*
%TO.P,J8,1,Pin_1*%
%TO.N,+12L*%
X104140000Y-75184000D03*
D12*
%TO.P,J8,2,Pin_2*%
%TO.N,GND*%
X104140000Y-70184000D03*
%TD*%
D11*
%TO.P,J11,1,Pin_1*%
%TO.N,+3.3V*%
X49844500Y-100432500D03*
D12*
%TO.P,J11,2,Pin_2*%
%TO.N,GND*%
X44844500Y-100432500D03*
%TD*%
D15*
%TO.P,D1,1,K*%
%TO.N,Net-(D1-K)*%
X67470000Y-22860000D03*
D16*
%TO.P,D1,2,A*%
%TO.N,Net-(D1-A)*%
X87470000Y-22860000D03*
%TD*%
D11*
%TO.P,J4,1,Pin_1*%
%TO.N,Net-(D1-K)*%
X104140000Y-33020000D03*
D12*
%TO.P,J4,2,Pin_2*%
%TO.N,GND*%
X104140000Y-28020000D03*
%TD*%
D11*
%TO.P,J3,1,Pin_1*%
%TO.N,Net-(D1-A)*%
X104140000Y-22479000D03*
D12*
%TO.P,J3,2,Pin_2*%
%TO.N,GND*%
X104140000Y-17479000D03*
%TD*%
D15*
%TO.P,D3,1,K*%
%TO.N,Net-(D2-K)*%
X67470000Y-55880000D03*
D16*
%TO.P,D3,2,A*%
%TO.N,Net-(D3-A)*%
X87470000Y-55880000D03*
%TD*%
D17*
%TO.P,C7,1*%
%TO.N,+12L*%
X60000000Y-57562500D03*
%TO.P,C7,2*%
%TO.N,GND*%
X60000000Y-54437500D03*
%TD*%
D18*
%TO.P,C2,1*%
%TO.N,+3.3V*%
X36316500Y-41682000D03*
%TO.P,C2,2*%
%TO.N,GND*%
X33191500Y-41682000D03*
%TD*%
%TO.P,C5,1*%
%TO.N,+5V*%
X37672500Y-62952000D03*
%TO.P,C5,2*%
%TO.N,GND*%
X34547500Y-62952000D03*
%TD*%
D19*
%TO.P,U1,1,GND*%
%TO.N,GND*%
X47150000Y-43700000D03*
%TO.P,U1,2,VO*%
%TO.N,+3.3V*%
X47150000Y-46000000D03*
D20*
X40850000Y-46000000D03*
D19*
%TO.P,U1,3,VI*%
%TO.N,+12L*%
X47150000Y-48300000D03*
%TD*%
D17*
%TO.P,C8,1*%
%TO.N,+12L*%
X52380000Y-57562500D03*
%TO.P,C8,2*%
%TO.N,GND*%
X52380000Y-54437500D03*
%TD*%
%TO.P,C4,1*%
%TO.N,+12L*%
X55160000Y-68022500D03*
%TO.P,C4,2*%
%TO.N,GND*%
X55160000Y-64897500D03*
%TD*%
D19*
%TO.P,U2,1,GND*%
%TO.N,GND*%
X48150000Y-63700000D03*
%TO.P,U2,2,VO*%
%TO.N,+5V*%
X48150000Y-66000000D03*
D20*
X41850000Y-66000000D03*
D19*
%TO.P,U2,3,VI*%
%TO.N,+12L*%
X48150000Y-68300000D03*
%TD*%
D18*
%TO.P,C6,1*%
%TO.N,+5V*%
X37672500Y-69810000D03*
%TO.P,C6,2*%
%TO.N,GND*%
X34547500Y-69810000D03*
%TD*%
%TO.P,C3,1*%
%TO.N,+3.3V*%
X36380000Y-48794000D03*
%TO.P,C3,2*%
%TO.N,GND*%
X33255000Y-48794000D03*
%TD*%
%TO.P,C10,1*%
%TO.N,+5VL*%
X82550000Y-91948000D03*
%TO.P,C10,2*%
%TO.N,GND*%
X79425000Y-91948000D03*
%TD*%
D17*
%TO.P,C1,1*%
%TO.N,+12L*%
X54160000Y-47562500D03*
%TO.P,C1,2*%
%TO.N,GND*%
X54160000Y-44437500D03*
%TD*%
D18*
%TO.P,C9,1*%
%TO.N,+5VL*%
X82550000Y-85550000D03*
%TO.P,C9,2*%
%TO.N,GND*%
X79425000Y-85550000D03*
%TD*%
D21*
%TO.N,GND*%
X26162000Y-54102000D03*
D22*
X28000000Y-32000000D03*
X28000000Y-40000000D03*
D21*
X14102000Y-54102000D03*
X19102000Y-54102000D03*
D23*
%TO.N,+12L*%
X40804300Y-52364500D03*
%TD*%
D24*
%TO.N,+3.3V*%
X16002000Y-62502000D02*
X16528700Y-63028700D01*
X16002000Y-37748000D02*
X16002000Y-62502000D01*
X16528700Y-37221300D02*
X16002000Y-37748000D01*
%TO.N,+5V*%
X20216000Y-38250000D02*
X18000000Y-38250000D01*
X25400000Y-67000000D02*
X22860000Y-64460000D01*
X22860000Y-64460000D02*
X22860000Y-40894000D01*
X25400000Y-67000000D02*
X21307200Y-67000000D01*
X22860000Y-40894000D02*
X20216000Y-38250000D01*
X37672500Y-67000000D02*
X25400000Y-67000000D01*
D25*
%TO.N,Net-(D2-K)*%
X67630000Y-51418300D02*
X67630000Y-38100000D01*
X67470000Y-51578300D02*
X67630000Y-51418300D01*
X67470000Y-55880000D02*
X67470000Y-51578300D01*
%TO.N,Net-(D4-A)*%
X89615500Y-75421700D02*
X87630000Y-75421700D01*
X99938300Y-85744500D02*
X89615500Y-75421700D01*
X104140000Y-85744500D02*
X99938300Y-85744500D01*
X87630000Y-71120000D02*
X87630000Y-75421700D01*
D26*
%TO.N,+5VL*%
X82550000Y-85550000D02*
X82550000Y-91948000D01*
D25*
X73286800Y-71120000D02*
X82788700Y-80621900D01*
X67630000Y-71120000D02*
X73286800Y-71120000D01*
D26*
X82788700Y-85311300D02*
X82550000Y-85550000D01*
X82788700Y-80621900D02*
X82788700Y-85311300D01*
D27*
%TO.N,+5V*%
X46656800Y-84705100D02*
X60432500Y-98480800D01*
X46656800Y-66000000D02*
X46656800Y-84705100D01*
X46656800Y-66000000D02*
X48150000Y-66000000D01*
X60432500Y-100432500D02*
X60432500Y-98480800D01*
X46656800Y-66000000D02*
X41850000Y-66000000D01*
X38672500Y-63952000D02*
X37672500Y-62952000D01*
X38672500Y-66000000D02*
X38672500Y-63952000D01*
D24*
X41850000Y-66000000D02*
X38672500Y-66000000D01*
X18000000Y-67000000D02*
X19426700Y-67000000D01*
X38672500Y-66000000D02*
X37672500Y-67000000D01*
D27*
X37672500Y-67000000D02*
X37672500Y-69810000D01*
D24*
X21307200Y-67000000D02*
X19426700Y-67000000D01*
D27*
%TO.N,+3.3V*%
X49844500Y-100432500D02*
X47892800Y-100432500D01*
X45941100Y-98480800D02*
X47892800Y-100432500D01*
X44638700Y-98480800D02*
X45941100Y-98480800D01*
X16542200Y-70384300D02*
X44638700Y-98480800D01*
X16542200Y-65957800D02*
X16542200Y-70384300D01*
X18000000Y-64500000D02*
X16542200Y-65957800D01*
X47150000Y-46000000D02*
X40850000Y-46000000D01*
X40850000Y-46000000D02*
X39174000Y-46000000D01*
X39174000Y-46000000D02*
X36380000Y-48794000D01*
X16528700Y-63028700D02*
X18000000Y-64500000D01*
X18000000Y-35750000D02*
X16528700Y-37221300D01*
X39174000Y-44539500D02*
X36316500Y-41682000D01*
X39174000Y-46000000D02*
X39174000Y-44539500D01*
D24*
X30384500Y-35750000D02*
X18000000Y-35750000D01*
D27*
X36316500Y-41682000D02*
X30384500Y-35750000D01*
D28*
%TO.N,+12L*%
X49015300Y-69165300D02*
X48150000Y-68300000D01*
X51851600Y-69165300D02*
X49015300Y-69165300D01*
D29*
X51851600Y-69165300D02*
X52994400Y-68022500D01*
X52994400Y-68022500D02*
X55160000Y-68022500D01*
D26*
X60000000Y-58015800D02*
X60000000Y-57562500D01*
D29*
X61040400Y-68022500D02*
X55160000Y-68022500D01*
D28*
X44552100Y-50897900D02*
X47150000Y-48300000D01*
X48301600Y-49451600D02*
X47150000Y-48300000D01*
D29*
X52130000Y-49451600D02*
X48301600Y-49451600D01*
X52671900Y-48909700D02*
X52130000Y-49451600D01*
D30*
X54160000Y-48909700D02*
X52671900Y-48909700D01*
D26*
X54160000Y-48909700D02*
X54160000Y-47562500D01*
D25*
X43085500Y-52364500D02*
X44552100Y-50897900D01*
X40804300Y-52364500D02*
X43085500Y-52364500D01*
D30*
X55999700Y-50749400D02*
X54160000Y-48909700D01*
D31*
X55999700Y-57562500D02*
X55999700Y-50749400D01*
D26*
X60000000Y-57562500D02*
X55999700Y-57562500D01*
X55999700Y-57562500D02*
X52380000Y-57562500D01*
D25*
X91092800Y-61120200D02*
X91770200Y-60442800D01*
X62232600Y-61120200D02*
X91092800Y-61120200D01*
X62232600Y-60248400D02*
X62232600Y-61120200D01*
X60000000Y-58015800D02*
X62232600Y-60248400D01*
D31*
X62232600Y-66830300D02*
X61040400Y-68022500D01*
D25*
X62232600Y-61120200D02*
X62232600Y-66830300D01*
D32*
X100138600Y-74384200D02*
X100938400Y-75184000D01*
X96853700Y-74384200D02*
X100138600Y-74384200D01*
X104140000Y-75184000D02*
X100938400Y-75184000D01*
D25*
X96853700Y-60442800D02*
X96853700Y-74384200D01*
D32*
X91770200Y-60442800D02*
X96853700Y-60442800D01*
X103340200Y-60442800D02*
X104140000Y-59643000D01*
X96853700Y-60442800D02*
X103340200Y-60442800D01*
%TD*%
%TA.AperFunction,Conductor*%
%TO.N,GND*%
G36*
X30212228Y-37019454D02*
G01*
X30293010Y-37073430D01*
X32615275Y-39395695D01*
X32669251Y-39476477D01*
X32688205Y-39571765D01*
X32669251Y-39667053D01*
X32615275Y-39747835D01*
X32534493Y-39801811D01*
X32500047Y-39813217D01*
X32364486Y-39847376D01*
X32364484Y-39847376D01*
X32159624Y-39940429D01*
X32159620Y-39940431D01*
X31974670Y-40068564D01*
X31815564Y-40227670D01*
X31687431Y-40412620D01*
X31687429Y-40412624D01*
X31594377Y-40617482D01*
X31539400Y-40835665D01*
X31539398Y-40835678D01*
X31529000Y-40967797D01*
X31529000Y-41306999D01*
X31529001Y-41307000D01*
X33317500Y-41307000D01*
X33412788Y-41325954D01*
X33493570Y-41379930D01*
X33547546Y-41460712D01*
X33566500Y-41556000D01*
X33566500Y-43581998D01*
X33566501Y-43581999D01*
X33668182Y-43581999D01*
X33800334Y-43571599D01*
X34018517Y-43516622D01*
X34223375Y-43423570D01*
X34223379Y-43423568D01*
X34408329Y-43295435D01*
X34567435Y-43136329D01*
X34701167Y-42943298D01*
X34771012Y-42875765D01*
X34861384Y-42840101D01*
X34958526Y-42841735D01*
X35047647Y-42880420D01*
X35098825Y-42927746D01*
X35166404Y-43010626D01*
X35192891Y-43043109D01*
X35350593Y-43171698D01*
X35530951Y-43265909D01*
X35726582Y-43321886D01*
X35845963Y-43332500D01*
X36448938Y-43332499D01*
X36544226Y-43351453D01*
X36625007Y-43405429D01*
X36625008Y-43405429D01*
X38100570Y-44880990D01*
X38154546Y-44961772D01*
X38173500Y-45057060D01*
X38173500Y-45482439D01*
X38154546Y-45577727D01*
X38100570Y-45658509D01*
X36688508Y-47070570D01*
X36607726Y-47124546D01*
X36512438Y-47143500D01*
X35909468Y-47143500D01*
X35909456Y-47143501D01*
X35790085Y-47154113D01*
X35594454Y-47210090D01*
X35594446Y-47210093D01*
X35414097Y-47304299D01*
X35414092Y-47304302D01*
X35256393Y-47432889D01*
X35256389Y-47432893D01*
X35162325Y-47548254D01*
X35087418Y-47610126D01*
X34994536Y-47638623D01*
X34897820Y-47629406D01*
X34811992Y-47583879D01*
X34764667Y-47532701D01*
X34630935Y-47339670D01*
X34471829Y-47180564D01*
X34286879Y-47052431D01*
X34286875Y-47052429D01*
X34082017Y-46959377D01*
X33863834Y-46904400D01*
X33863821Y-46904398D01*
X33731702Y-46894000D01*
X33630001Y-46894000D01*
X33630000Y-46894001D01*
X33630000Y-50693998D01*
X33630001Y-50693999D01*
X33731682Y-50693999D01*
X33863834Y-50683599D01*
X34082017Y-50628622D01*
X34286875Y-50535570D01*
X34286879Y-50535568D01*
X34471829Y-50407435D01*
X34630935Y-50248329D01*
X34764667Y-50055298D01*
X34834512Y-49987765D01*
X34924884Y-49952101D01*
X35022026Y-49953735D01*
X35111147Y-49992420D01*
X35162324Y-50039745D01*
X35256391Y-50155109D01*
X35414093Y-50283698D01*
X35594451Y-50377909D01*
X35790082Y-50433886D01*
X35909463Y-50444500D01*
X36850536Y-50444499D01*
X36969918Y-50433886D01*
X37165549Y-50377909D01*
X37345907Y-50283698D01*
X37503609Y-50155109D01*
X37632198Y-49997407D01*
X37726409Y-49817049D01*
X37782386Y-49621418D01*
X37793000Y-49502037D01*
X37792999Y-48899058D01*
X37811953Y-48803771D01*
X37865929Y-48722990D01*
X37865930Y-48722989D01*
X38788739Y-47800181D01*
X38869520Y-47746205D01*
X38964808Y-47727251D01*
X39060096Y-47746205D01*
X39140878Y-47800182D01*
X39191516Y-47873274D01*
X39257994Y-48019628D01*
X39257994Y-48019629D01*
X39386177Y-48204649D01*
X39386178Y-48204650D01*
X39386181Y-48204654D01*
X39545346Y-48363819D01*
X39545349Y-48363821D01*
X39545350Y-48363822D01*
X39722473Y-48486533D01*
X39730374Y-48492007D01*
X39935317Y-48585096D01*
X40153588Y-48640096D01*
X40153591Y-48640096D01*
X40153594Y-48640097D01*
X40273178Y-48649508D01*
X40285783Y-48650500D01*
X40286827Y-48650499D01*
X40287084Y-48650551D01*
X40290670Y-48650692D01*
X40290647Y-48651259D01*
X40382114Y-48669437D01*
X40462904Y-48723400D01*
X40516894Y-48804172D01*
X40535864Y-48899457D01*
X40516926Y-48994749D01*
X40462963Y-49075539D01*
X40382191Y-49129529D01*
X40332604Y-49143266D01*
X40332773Y-49144112D01*
X40326783Y-49145303D01*
X40326777Y-49145304D01*
X40013540Y-49207611D01*
X40013537Y-49207611D01*
X40013531Y-49207613D01*
X39707932Y-49300315D01*
X39707911Y-49300323D01*
X39412857Y-49422537D01*
X39412854Y-49422539D01*
X39131211Y-49573080D01*
X39131190Y-49573093D01*
X38865646Y-49750523D01*
X38618768Y-49953131D01*
X38392931Y-50178968D01*
X38190323Y-50425846D01*
X38012893Y-50691390D01*
X38012880Y-50691411D01*
X37862339Y-50973054D01*
X37862337Y-50973057D01*
X37740123Y-51268111D01*
X37740115Y-51268132D01*
X37647413Y-51573731D01*
X37647411Y-51573737D01*
X37647411Y-51573740D01*
X37596236Y-51831016D01*
X37585103Y-51886984D01*
X37553800Y-52204812D01*
X37553800Y-52524187D01*
X37582333Y-52813895D01*
X37585104Y-52842023D01*
X37647411Y-53155260D01*
X37647413Y-53155268D01*
X37740115Y-53460867D01*
X37740123Y-53460888D01*
X37862337Y-53755942D01*
X37862339Y-53755945D01*
X38012880Y-54037588D01*
X38012890Y-54037604D01*
X38012891Y-54037606D01*
X38190325Y-54303156D01*
X38392934Y-54550035D01*
X38618765Y-54775866D01*
X38865644Y-54978475D01*
X39131194Y-55155909D01*
X39131200Y-55155912D01*
X39131211Y-55155919D01*
X39412854Y-55306460D01*
X39412857Y-55306462D01*
X39548727Y-55362740D01*
X39707919Y-55428680D01*
X40013540Y-55521389D01*
X40326777Y-55583696D01*
X40644613Y-55615000D01*
X40644616Y-55615000D01*
X43245184Y-55615000D01*
X43245187Y-55615000D01*
X43563023Y-55583696D01*
X43876260Y-55521389D01*
X44181881Y-55428680D01*
X44476944Y-55306461D01*
X44632231Y-55223457D01*
X44758588Y-55155919D01*
X44758592Y-55155916D01*
X44758606Y-55155909D01*
X45024156Y-54978475D01*
X45271035Y-54775866D01*
X46086104Y-53960797D01*
X50480000Y-53960797D01*
X50480000Y-54062499D01*
X50480001Y-54062500D01*
X52004999Y-54062500D01*
X52005000Y-54062499D01*
X52005000Y-52775001D01*
X52004999Y-52775000D01*
X51665817Y-52775000D01*
X51533665Y-52785400D01*
X51315482Y-52840377D01*
X51110624Y-52933429D01*
X51110620Y-52933431D01*
X50925670Y-53061564D01*
X50766564Y-53220670D01*
X50638431Y-53405620D01*
X50638429Y-53405624D01*
X50545377Y-53610482D01*
X50490400Y-53828665D01*
X50490398Y-53828678D01*
X50480000Y-53960797D01*
X46086104Y-53960797D01*
X46963467Y-53083435D01*
X47166075Y-52836555D01*
X47343510Y-52571006D01*
X47494061Y-52289344D01*
X47616280Y-51994281D01*
X47708989Y-51688659D01*
X47770000Y-51381937D01*
X47807179Y-51292181D01*
X47875878Y-51223482D01*
X47965638Y-51186302D01*
X48046712Y-51183648D01*
X48186866Y-51202100D01*
X48186868Y-51202100D01*
X52244734Y-51202100D01*
X52445771Y-51175632D01*
X52472239Y-51172148D01*
X52485167Y-51168683D01*
X52549610Y-51160200D01*
X53000200Y-51160200D01*
X53095488Y-51179154D01*
X53176270Y-51233130D01*
X53230246Y-51313912D01*
X53249200Y-51409200D01*
X53249200Y-52526000D01*
X53230246Y-52621288D01*
X53176270Y-52702070D01*
X53095488Y-52756046D01*
X53000200Y-52775000D01*
X52755001Y-52775000D01*
X52755000Y-52775001D01*
X52755000Y-54563500D01*
X52736046Y-54658788D01*
X52682070Y-54739570D01*
X52601288Y-54793546D01*
X52506000Y-54812500D01*
X50480002Y-54812500D01*
X50480001Y-54812501D01*
X50480001Y-54914181D01*
X50490400Y-55046334D01*
X50545377Y-55264517D01*
X50638429Y-55469375D01*
X50638431Y-55469379D01*
X50766564Y-55654329D01*
X50925670Y-55813435D01*
X51118701Y-55947167D01*
X51186234Y-56017012D01*
X51221898Y-56107385D01*
X51220264Y-56204526D01*
X51181579Y-56293647D01*
X51134254Y-56344824D01*
X51124841Y-56352500D01*
X51018893Y-56438889D01*
X51018889Y-56438893D01*
X50890302Y-56596592D01*
X50890299Y-56596597D01*
X50796093Y-56776946D01*
X50796090Y-56776954D01*
X50740115Y-56972578D01*
X50740114Y-56972582D01*
X50729500Y-57091963D01*
X50729500Y-58033031D01*
X50729501Y-58033043D01*
X50740113Y-58152414D01*
X50740113Y-58152417D01*
X50740114Y-58152418D01*
X50796091Y-58348049D01*
X50890302Y-58528407D01*
X51018891Y-58686109D01*
X51176593Y-58814698D01*
X51356951Y-58908909D01*
X51552582Y-58964886D01*
X51671963Y-58975500D01*
X52247496Y-58975499D01*
X52267046Y-58976268D01*
X52268722Y-58976400D01*
X52268724Y-58976400D01*
X53502094Y-58976400D01*
X53597382Y-58995354D01*
X53678164Y-59049330D01*
X53712926Y-59092922D01*
X53752965Y-59156643D01*
X53945580Y-59398174D01*
X54164026Y-59616620D01*
X54405557Y-59809235D01*
X54652756Y-59964560D01*
X54667140Y-59973598D01*
X54745409Y-60011290D01*
X54945471Y-60107635D01*
X55237064Y-60209668D01*
X55538248Y-60278411D01*
X55730113Y-60300029D01*
X55845222Y-60312999D01*
X55845235Y-60313000D01*
X56154165Y-60313000D01*
X56154177Y-60312999D01*
X56241378Y-60303173D01*
X56461152Y-60278411D01*
X56762336Y-60209668D01*
X57053929Y-60107635D01*
X57205709Y-60034541D01*
X57299782Y-60010275D01*
X57395983Y-60023856D01*
X57479664Y-60073218D01*
X57506223Y-60100918D01*
X57572481Y-60181653D01*
X57588634Y-60201335D01*
X58909172Y-61521873D01*
X58963146Y-61602652D01*
X58982100Y-61697940D01*
X58982100Y-66023000D01*
X58963146Y-66118288D01*
X58909170Y-66199070D01*
X58828388Y-66253046D01*
X58733100Y-66272000D01*
X57132528Y-66272000D01*
X57037240Y-66253046D01*
X56956458Y-66199070D01*
X56902482Y-66118288D01*
X56883528Y-66023000D01*
X56902482Y-65927712D01*
X56905819Y-65920024D01*
X56994622Y-65724517D01*
X57049599Y-65506334D01*
X57049601Y-65506321D01*
X57059999Y-65374202D01*
X57060000Y-65374190D01*
X57060000Y-65272501D01*
X57059999Y-65272500D01*
X53260002Y-65272500D01*
X53260001Y-65272501D01*
X53260001Y-65374181D01*
X53270400Y-65506334D01*
X53325377Y-65724517D01*
X53414181Y-65920024D01*
X53436331Y-66014620D01*
X53420595Y-66110492D01*
X53369367Y-66193044D01*
X53290448Y-66249709D01*
X53195852Y-66271859D01*
X53187472Y-66272000D01*
X52879666Y-66272000D01*
X52678628Y-66298467D01*
X52678626Y-66298467D01*
X52652170Y-66301950D01*
X52652157Y-66301953D01*
X52493017Y-66344594D01*
X52493016Y-66344593D01*
X52430518Y-66361340D01*
X52218517Y-66449153D01*
X52218506Y-66449158D01*
X52019797Y-66563883D01*
X52019787Y-66563889D01*
X51900523Y-66655405D01*
X51900522Y-66655405D01*
X51837743Y-66703576D01*
X51391320Y-67150000D01*
X50950747Y-67590571D01*
X50869968Y-67644546D01*
X50774680Y-67663500D01*
X50051615Y-67663500D01*
X49956327Y-67644546D01*
X49875545Y-67590570D01*
X49822721Y-67512523D01*
X49767321Y-67383152D01*
X49767318Y-67383147D01*
X49767317Y-67383145D01*
X49767316Y-67383143D01*
X49703981Y-67289567D01*
X49666267Y-67200031D01*
X49665689Y-67102878D01*
X49702333Y-67012898D01*
X49703981Y-67010433D01*
X49767316Y-66916856D01*
X49767316Y-66916854D01*
X49767321Y-66916848D01*
X49851934Y-66719259D01*
X49897624Y-66509226D01*
X49899392Y-66479534D01*
X49900500Y-66460956D01*
X49900500Y-65539043D01*
X49898203Y-65500500D01*
X49897624Y-65490774D01*
X49851934Y-65280741D01*
X49851933Y-65280738D01*
X49851932Y-65280735D01*
X49813001Y-65189824D01*
X49792914Y-65094768D01*
X49810732Y-64999261D01*
X49851529Y-64931300D01*
X49901659Y-64871842D01*
X49901665Y-64871833D01*
X50020118Y-64669977D01*
X50102760Y-64450991D01*
X50108600Y-64420797D01*
X53260000Y-64420797D01*
X53260000Y-64522499D01*
X53260001Y-64522500D01*
X54784999Y-64522500D01*
X54785000Y-64522499D01*
X54785000Y-63235001D01*
X55535000Y-63235001D01*
X55535000Y-64522499D01*
X55535001Y-64522500D01*
X57059998Y-64522500D01*
X57059999Y-64522499D01*
X57059999Y-64420818D01*
X57049599Y-64288665D01*
X56994622Y-64070482D01*
X56901570Y-63865624D01*
X56901568Y-63865620D01*
X56773435Y-63680670D01*
X56614329Y-63521564D01*
X56429379Y-63393431D01*
X56429375Y-63393429D01*
X56224517Y-63300377D01*
X56006334Y-63245400D01*
X56006321Y-63245398D01*
X55874202Y-63235000D01*
X55535001Y-63235000D01*
X55535000Y-63235001D01*
X54785000Y-63235001D01*
X54784999Y-63235000D01*
X54445817Y-63235000D01*
X54313665Y-63245400D01*
X54095482Y-63300377D01*
X53890624Y-63393429D01*
X53890620Y-63393431D01*
X53705670Y-63521564D01*
X53546564Y-63680670D01*
X53418431Y-63865620D01*
X53418429Y-63865624D01*
X53325377Y-64070482D01*
X53270400Y-64288665D01*
X53270398Y-64288678D01*
X53260000Y-64420797D01*
X50108600Y-64420797D01*
X50147207Y-64221178D01*
X50149998Y-64168623D01*
X50150000Y-64168579D01*
X50150000Y-64075001D01*
X50149999Y-64075000D01*
X46150002Y-64075000D01*
X46150001Y-64075001D01*
X46150001Y-64168591D01*
X46152794Y-64221191D01*
X46197239Y-64450992D01*
X46277091Y-64662583D01*
X46293002Y-64758426D01*
X46271024Y-64853063D01*
X46214504Y-64932085D01*
X46132045Y-64983463D01*
X46044128Y-64999500D01*
X43849499Y-64999500D01*
X43754211Y-64980546D01*
X43673429Y-64926570D01*
X43619453Y-64845788D01*
X43600499Y-64750500D01*
X43600499Y-64535791D01*
X43600499Y-64535784D01*
X43590096Y-64403588D01*
X43535096Y-64185317D01*
X43442007Y-63980374D01*
X43438318Y-63975049D01*
X43313822Y-63795350D01*
X43313821Y-63795349D01*
X43313819Y-63795346D01*
X43154654Y-63636181D01*
X43154650Y-63636178D01*
X43154649Y-63636177D01*
X42969631Y-63507996D01*
X42969629Y-63507995D01*
X42969626Y-63507993D01*
X42832776Y-63445833D01*
X42764686Y-63414905D01*
X42764684Y-63414904D01*
X42764683Y-63414904D01*
X42546412Y-63359904D01*
X42546411Y-63359903D01*
X42546408Y-63359903D01*
X42546405Y-63359902D01*
X42414222Y-63349500D01*
X41285791Y-63349500D01*
X41153587Y-63359904D01*
X40935313Y-63414905D01*
X40796219Y-63478085D01*
X40730374Y-63507993D01*
X40730372Y-63507993D01*
X40730368Y-63507996D01*
X40545350Y-63636177D01*
X40386177Y-63795350D01*
X40257996Y-63980368D01*
X40164904Y-64185316D01*
X40163452Y-64191079D01*
X40161305Y-64195601D01*
X40161212Y-64195868D01*
X40161183Y-64195858D01*
X40121789Y-64278847D01*
X40049710Y-64343991D01*
X39958188Y-64376592D01*
X39861157Y-64371688D01*
X39773389Y-64330025D01*
X39708245Y-64257946D01*
X39675644Y-64166424D01*
X39673000Y-64130236D01*
X39673000Y-64062849D01*
X39673001Y-64062828D01*
X39673001Y-63853460D01*
X39673000Y-63853455D01*
X39634553Y-63660168D01*
X39634552Y-63660165D01*
X39559134Y-63478090D01*
X39559131Y-63478085D01*
X39449640Y-63314219D01*
X39366841Y-63231420D01*
X46150000Y-63231420D01*
X46150000Y-63324999D01*
X46150001Y-63325000D01*
X47774999Y-63325000D01*
X47775000Y-63324999D01*
X47775000Y-61950001D01*
X48525000Y-61950001D01*
X48525000Y-63324999D01*
X48525001Y-63325000D01*
X50149998Y-63325000D01*
X50149999Y-63324999D01*
X50149999Y-63231426D01*
X50149998Y-63231408D01*
X50147205Y-63178808D01*
X50102760Y-62949007D01*
X50020118Y-62730022D01*
X49901665Y-62528166D01*
X49901654Y-62528151D01*
X49750794Y-62349221D01*
X49750778Y-62349205D01*
X49571848Y-62198345D01*
X49571833Y-62198334D01*
X49369977Y-62079881D01*
X49150991Y-61997239D01*
X48921175Y-61952792D01*
X48921182Y-61952792D01*
X48868623Y-61950001D01*
X48868580Y-61950000D01*
X48525001Y-61950000D01*
X48525000Y-61950001D01*
X47775000Y-61950001D01*
X47774999Y-61950000D01*
X47431427Y-61950000D01*
X47431407Y-61950001D01*
X47378808Y-61952794D01*
X47149007Y-61997239D01*
X46930022Y-62079881D01*
X46728166Y-62198334D01*
X46728151Y-62198345D01*
X46549221Y-62349205D01*
X46549205Y-62349221D01*
X46398345Y-62528151D01*
X46398334Y-62528166D01*
X46279881Y-62730022D01*
X46197239Y-62949008D01*
X46152792Y-63178821D01*
X46150001Y-63231376D01*
X46150000Y-63231420D01*
X39366841Y-63231420D01*
X39314229Y-63178808D01*
X39158429Y-63023007D01*
X39104453Y-62942226D01*
X39085499Y-62846938D01*
X39085499Y-62243968D01*
X39085498Y-62243956D01*
X39084950Y-62237797D01*
X39074886Y-62124582D01*
X39018909Y-61928951D01*
X38924698Y-61748593D01*
X38796109Y-61590891D01*
X38638407Y-61462302D01*
X38638402Y-61462299D01*
X38458053Y-61368093D01*
X38458052Y-61368092D01*
X38458049Y-61368091D01*
X38262418Y-61312114D01*
X38143037Y-61301500D01*
X38143035Y-61301500D01*
X37201968Y-61301500D01*
X37201956Y-61301501D01*
X37082585Y-61312113D01*
X36886954Y-61368090D01*
X36886946Y-61368093D01*
X36706597Y-61462299D01*
X36706592Y-61462302D01*
X36548893Y-61590889D01*
X36548889Y-61590893D01*
X36454825Y-61706254D01*
X36379918Y-61768126D01*
X36287036Y-61796623D01*
X36190320Y-61787406D01*
X36104492Y-61741879D01*
X36057167Y-61690701D01*
X35923435Y-61497670D01*
X35764329Y-61338564D01*
X35579379Y-61210431D01*
X35579375Y-61210429D01*
X35374517Y-61117377D01*
X35156334Y-61062400D01*
X35156321Y-61062398D01*
X35024202Y-61052000D01*
X34922501Y-61052000D01*
X34922500Y-61052001D01*
X34922500Y-64851998D01*
X34922501Y-64851999D01*
X35024182Y-64851999D01*
X35156334Y-64841599D01*
X35374517Y-64786622D01*
X35579375Y-64693570D01*
X35579379Y-64693568D01*
X35764329Y-64565435D01*
X35923435Y-64406329D01*
X36057167Y-64213298D01*
X36127012Y-64145765D01*
X36217384Y-64110101D01*
X36314526Y-64111735D01*
X36403647Y-64150420D01*
X36454825Y-64197746D01*
X36528959Y-64288665D01*
X36548891Y-64313109D01*
X36706593Y-64441698D01*
X36886951Y-64535909D01*
X37082582Y-64591886D01*
X37201963Y-64602500D01*
X37423001Y-64602499D01*
X37518287Y-64621453D01*
X37599069Y-64675429D01*
X37653046Y-64756210D01*
X37672000Y-64851498D01*
X37672000Y-65128886D01*
X37653046Y-65224174D01*
X37599070Y-65304956D01*
X37227456Y-65676570D01*
X37146674Y-65730546D01*
X37051386Y-65749500D01*
X26021114Y-65749500D01*
X25925826Y-65730546D01*
X25845044Y-65676570D01*
X24183430Y-64014956D01*
X24129454Y-63934174D01*
X24110500Y-63838886D01*
X24110500Y-63327001D01*
X32885001Y-63327001D01*
X32885001Y-63666181D01*
X32895400Y-63798334D01*
X32950377Y-64016517D01*
X33043429Y-64221375D01*
X33043431Y-64221379D01*
X33171564Y-64406329D01*
X33330670Y-64565435D01*
X33515620Y-64693568D01*
X33515624Y-64693570D01*
X33720482Y-64786622D01*
X33938665Y-64841599D01*
X33938678Y-64841601D01*
X34070804Y-64851999D01*
X34172500Y-64851998D01*
X34172500Y-63327001D01*
X34172499Y-63327000D01*
X32885002Y-63327000D01*
X32885001Y-63327001D01*
X24110500Y-63327001D01*
X24110500Y-62237797D01*
X32885000Y-62237797D01*
X32885000Y-62576999D01*
X32885001Y-62577000D01*
X34172499Y-62577000D01*
X34172500Y-62576999D01*
X34172500Y-61052000D01*
X34172499Y-61051999D01*
X34070817Y-61052000D01*
X33938665Y-61062400D01*
X33720482Y-61117377D01*
X33515624Y-61210429D01*
X33515620Y-61210431D01*
X33330670Y-61338564D01*
X33171564Y-61497670D01*
X33043431Y-61682620D01*
X33043429Y-61682624D01*
X32950377Y-61887482D01*
X32895400Y-62105665D01*
X32895398Y-62105678D01*
X32885000Y-62237797D01*
X24110500Y-62237797D01*
X24110500Y-49169001D01*
X31592501Y-49169001D01*
X31592501Y-49508181D01*
X31602900Y-49640334D01*
X31657877Y-49858517D01*
X31750929Y-50063375D01*
X31750931Y-50063379D01*
X31879064Y-50248329D01*
X32038170Y-50407435D01*
X32223120Y-50535568D01*
X32223124Y-50535570D01*
X32427982Y-50628622D01*
X32646165Y-50683599D01*
X32646178Y-50683601D01*
X32778304Y-50693999D01*
X32880000Y-50693998D01*
X32880000Y-49169001D01*
X32879999Y-49169000D01*
X31592502Y-49169000D01*
X31592501Y-49169001D01*
X24110500Y-49169001D01*
X24110500Y-48079797D01*
X31592500Y-48079797D01*
X31592500Y-48418999D01*
X31592501Y-48419000D01*
X32879999Y-48419000D01*
X32880000Y-48418999D01*
X32880000Y-46894000D01*
X32879999Y-46893999D01*
X32778317Y-46894000D01*
X32646165Y-46904400D01*
X32427982Y-46959377D01*
X32223124Y-47052429D01*
X32223120Y-47052431D01*
X32038170Y-47180564D01*
X31879064Y-47339670D01*
X31750931Y-47524620D01*
X31750929Y-47524624D01*
X31657877Y-47729482D01*
X31602900Y-47947665D01*
X31602898Y-47947678D01*
X31592500Y-48079797D01*
X24110500Y-48079797D01*
X24110500Y-42057001D01*
X31529001Y-42057001D01*
X31529001Y-42396181D01*
X31539400Y-42528334D01*
X31594377Y-42746517D01*
X31687429Y-42951375D01*
X31687431Y-42951379D01*
X31815564Y-43136329D01*
X31974670Y-43295435D01*
X32159620Y-43423568D01*
X32159624Y-43423570D01*
X32364482Y-43516622D01*
X32582665Y-43571599D01*
X32582678Y-43571601D01*
X32714804Y-43581999D01*
X32816500Y-43581998D01*
X32816500Y-42057001D01*
X32816499Y-42057000D01*
X31529002Y-42057000D01*
X31529001Y-42057001D01*
X24110500Y-42057001D01*
X24110500Y-40795587D01*
X24110498Y-40795571D01*
X24088859Y-40658946D01*
X24079709Y-40601174D01*
X24039880Y-40478593D01*
X24032391Y-40455543D01*
X24018887Y-40413981D01*
X24018886Y-40413979D01*
X24018884Y-40413976D01*
X24018884Y-40413974D01*
X23929524Y-40238595D01*
X23929522Y-40238592D01*
X23929521Y-40238590D01*
X23813833Y-40079360D01*
X23813831Y-40079358D01*
X23813829Y-40079355D01*
X21160040Y-37425566D01*
X21106067Y-37344788D01*
X21087113Y-37249500D01*
X21106067Y-37154212D01*
X21160043Y-37073430D01*
X21240825Y-37019454D01*
X21336113Y-37000500D01*
X30116940Y-37000500D01*
X30212228Y-37019454D01*
G37*
%TD.AperFunction*%
%TA.AperFunction,Conductor*%
G36*
X20069787Y-39899067D02*
G01*
X20150568Y-39953043D01*
X20150569Y-39953043D01*
X21536570Y-41339044D01*
X21590546Y-41419826D01*
X21609500Y-41515114D01*
X21609500Y-64558412D01*
X21609501Y-64558428D01*
X21640290Y-64752823D01*
X21698535Y-64932085D01*
X21701116Y-64940026D01*
X21790476Y-65115405D01*
X21906172Y-65274646D01*
X21955959Y-65324433D01*
X22009933Y-65405212D01*
X22028887Y-65500500D01*
X22009933Y-65595788D01*
X21955957Y-65676570D01*
X21875175Y-65730546D01*
X21779887Y-65749500D01*
X19684202Y-65749500D01*
X19588914Y-65730546D01*
X19508132Y-65676570D01*
X19454156Y-65595788D01*
X19435202Y-65500500D01*
X19454156Y-65405212D01*
X19482758Y-65354140D01*
X19493865Y-65338852D01*
X19493865Y-65338851D01*
X19493870Y-65338845D01*
X19608241Y-65114379D01*
X19686090Y-64874785D01*
X19720104Y-64660030D01*
X19725499Y-64625971D01*
X19725500Y-64625959D01*
X19725500Y-64374040D01*
X19725499Y-64374028D01*
X19699951Y-64212729D01*
X19686090Y-64125215D01*
X19608241Y-63885621D01*
X19493870Y-63661155D01*
X19444770Y-63593575D01*
X19404096Y-63505346D01*
X19400281Y-63408266D01*
X19433908Y-63317116D01*
X19470150Y-63271144D01*
X19518878Y-63222417D01*
X19518893Y-63222400D01*
X19666518Y-63030010D01*
X19666524Y-63030000D01*
X19787771Y-62819995D01*
X19787779Y-62819979D01*
X19880576Y-62595944D01*
X19880584Y-62595921D01*
X19939780Y-62375000D01*
X18296752Y-62375000D01*
X18380095Y-62291657D01*
X18442630Y-62183343D01*
X18475000Y-62062535D01*
X18475000Y-61937465D01*
X18442630Y-61816657D01*
X18380095Y-61708343D01*
X18296751Y-61624999D01*
X18375000Y-61624999D01*
X18375001Y-61625000D01*
X19939780Y-61625000D01*
X19939780Y-61624999D01*
X19880584Y-61404078D01*
X19880576Y-61404055D01*
X19787779Y-61180020D01*
X19787771Y-61180004D01*
X19666524Y-60969999D01*
X19666518Y-60969989D01*
X19518893Y-60777599D01*
X19518884Y-60777589D01*
X19347410Y-60606115D01*
X19347400Y-60606106D01*
X19155010Y-60458481D01*
X19155000Y-60458475D01*
X18944995Y-60337228D01*
X18944979Y-60337220D01*
X18720944Y-60244423D01*
X18720935Y-60244420D01*
X18486686Y-60181653D01*
X18375000Y-60166949D01*
X18375000Y-61624999D01*
X18296751Y-61624999D01*
X18291657Y-61619905D01*
X18183343Y-61557370D01*
X18062535Y-61525000D01*
X17937465Y-61525000D01*
X17816657Y-61557370D01*
X17708343Y-61619905D01*
X17625000Y-61703248D01*
X17625000Y-60166949D01*
X17624999Y-60166948D01*
X17534001Y-60178929D01*
X17437054Y-60172574D01*
X17349918Y-60129604D01*
X17285860Y-60056559D01*
X17254630Y-59964560D01*
X17252500Y-59932059D01*
X17252500Y-42599499D01*
X17271454Y-42504211D01*
X17325430Y-42423429D01*
X17406212Y-42369453D01*
X17501500Y-42350499D01*
X18783032Y-42350499D01*
X18783036Y-42350499D01*
X18902418Y-42339886D01*
X18902420Y-42339885D01*
X18904200Y-42339727D01*
X19000792Y-42350169D01*
X19086036Y-42396779D01*
X19146954Y-42472463D01*
X19170465Y-42539170D01*
X19182183Y-42598079D01*
X19182185Y-42598086D01*
X19243668Y-42746517D01*
X19246297Y-42752863D01*
X19339374Y-42892162D01*
X19457838Y-43010626D01*
X19597137Y-43103703D01*
X19751918Y-43167816D01*
X19916233Y-43200500D01*
X19916235Y-43200500D01*
X20083765Y-43200500D01*
X20083767Y-43200500D01*
X20248082Y-43167816D01*
X20402863Y-43103703D01*
X20542162Y-43010626D01*
X20660626Y-42892162D01*
X20753703Y-42752863D01*
X20817816Y-42598082D01*
X20850500Y-42433767D01*
X20850500Y-42266233D01*
X20817816Y-42101918D01*
X20753703Y-41947137D01*
X20660626Y-41807838D01*
X20542162Y-41689374D01*
X20516498Y-41672226D01*
X20402864Y-41596298D01*
X20402863Y-41596297D01*
X20402860Y-41596296D01*
X20402859Y-41596295D01*
X20248086Y-41532185D01*
X20248082Y-41532184D01*
X20083767Y-41499500D01*
X19974500Y-41499500D01*
X19879212Y-41480546D01*
X19798430Y-41426570D01*
X19744454Y-41345788D01*
X19725500Y-41250500D01*
X19725499Y-40129113D01*
X19744453Y-40033825D01*
X19798429Y-39953044D01*
X19879211Y-39899067D01*
X19974499Y-39880113D01*
X20069787Y-39899067D01*
G37*
%TD.AperFunction*%
%TA.AperFunction,Conductor*%
G36*
X111345788Y-12519454D02*
G01*
X111426570Y-12573430D01*
X111480546Y-12654212D01*
X111499500Y-12749500D01*
X111499500Y-111250500D01*
X111480546Y-111345788D01*
X111426570Y-111426570D01*
X111345788Y-111480546D01*
X111250500Y-111499500D01*
X12749500Y-111499500D01*
X12654212Y-111480546D01*
X12573430Y-111426570D01*
X12519454Y-111345788D01*
X12500500Y-111250500D01*
X12500500Y-99999999D01*
X14694951Y-99999999D01*
X14694951Y-100000000D01*
X14715137Y-100462361D01*
X14715138Y-100462366D01*
X14775546Y-100921208D01*
X14775547Y-100921213D01*
X14875713Y-101373037D01*
X15014885Y-101814435D01*
X15191985Y-102241994D01*
X15191992Y-102242009D01*
X15405693Y-102652526D01*
X15654356Y-103042849D01*
X15936082Y-103410002D01*
X15936092Y-103410013D01*
X15995174Y-103474492D01*
X18236345Y-101233320D01*
X18380076Y-101420635D01*
X18579365Y-101619924D01*
X18766676Y-101763653D01*
X16525506Y-104004824D01*
X16589982Y-104063905D01*
X16589988Y-104063910D01*
X16957150Y-104345643D01*
X17347473Y-104594306D01*
X17757990Y-104808007D01*
X17758005Y-104808014D01*
X18185564Y-104985114D01*
X18626962Y-105124286D01*
X19078786Y-105224452D01*
X19078791Y-105224453D01*
X19537633Y-105284861D01*
X19537638Y-105284862D01*
X20000000Y-105305049D01*
X20462361Y-105284862D01*
X20462366Y-105284861D01*
X20921208Y-105224453D01*
X20921213Y-105224452D01*
X21373037Y-105124286D01*
X21814435Y-104985114D01*
X22241994Y-104808014D01*
X22242009Y-104808007D01*
X22652526Y-104594306D01*
X23042843Y-104345646D01*
X23410026Y-104063897D01*
X23474492Y-104004824D01*
X21233322Y-101763654D01*
X21420635Y-101619924D01*
X21619924Y-101420635D01*
X21763654Y-101233322D01*
X24004824Y-103474492D01*
X24063897Y-103410026D01*
X24345646Y-103042843D01*
X24594306Y-102652526D01*
X24808007Y-102242009D01*
X24808014Y-102241994D01*
X24985114Y-101814435D01*
X25124286Y-101373037D01*
X25224452Y-100921213D01*
X25224453Y-100921208D01*
X25284861Y-100462366D01*
X25284862Y-100462361D01*
X25286166Y-100432500D01*
X31798557Y-100432500D01*
X31818309Y-100746455D01*
X31877255Y-101055458D01*
X31974461Y-101354627D01*
X32108402Y-101639266D01*
X32108404Y-101639269D01*
X32276961Y-101904872D01*
X32287752Y-101917915D01*
X33662732Y-100542934D01*
X33678479Y-100622098D01*
X33727478Y-100740390D01*
X33798612Y-100846851D01*
X33889149Y-100937388D01*
X33995610Y-101008522D01*
X34113902Y-101057521D01*
X34193062Y-101073266D01*
X32820860Y-102445469D01*
X32961283Y-102547493D01*
X33236949Y-102699040D01*
X33529437Y-102814844D01*
X33834115Y-102893072D01*
X33834120Y-102893073D01*
X34146218Y-102932500D01*
X34460782Y-102932500D01*
X34772879Y-102893073D01*
X34772884Y-102893072D01*
X35077562Y-102814844D01*
X35370053Y-102699039D01*
X35645712Y-102547494D01*
X35645714Y-102547493D01*
X35786138Y-102445468D01*
X34413936Y-101073266D01*
X34493098Y-101057521D01*
X34611390Y-101008522D01*
X34717851Y-100937388D01*
X34808388Y-100846851D01*
X34879522Y-100740390D01*
X34928521Y-100622098D01*
X34944267Y-100542936D01*
X36319246Y-101917915D01*
X36330031Y-101904881D01*
X36330046Y-101904860D01*
X36498588Y-101639280D01*
X36498600Y-101639260D01*
X36578698Y-101469043D01*
X36636419Y-101390894D01*
X36719654Y-101340783D01*
X36815729Y-101326338D01*
X36910019Y-101349760D01*
X36988168Y-101407481D01*
X37038279Y-101490716D01*
X37053000Y-101575061D01*
X37053000Y-101982506D01*
X37063501Y-102085300D01*
X37072751Y-102113213D01*
X37118686Y-102251834D01*
X37210788Y-102401156D01*
X37334844Y-102525212D01*
X37484166Y-102617314D01*
X37484169Y-102617315D01*
X37484167Y-102617315D01*
X37647810Y-102671540D01*
X37650703Y-102672499D01*
X37753491Y-102683000D01*
X40853508Y-102682999D01*
X40956297Y-102672499D01*
X41122834Y-102617314D01*
X41272156Y-102525212D01*
X41396212Y-102401156D01*
X41488314Y-102251834D01*
X41543499Y-102085297D01*
X41554000Y-101982509D01*
X41553999Y-98882492D01*
X41543499Y-98779703D01*
X41488314Y-98613166D01*
X41396212Y-98463844D01*
X41272156Y-98339788D01*
X41122834Y-98247686D01*
X41122832Y-98247685D01*
X41122830Y-98247684D01*
X41122832Y-98247684D01*
X40956302Y-98192502D01*
X40956298Y-98192501D01*
X40956297Y-98192501D01*
X40853509Y-98182000D01*
X40853505Y-98182000D01*
X37753493Y-98182000D01*
X37650699Y-98192501D01*
X37484167Y-98247685D01*
X37334846Y-98339786D01*
X37210786Y-98463846D01*
X37118684Y-98613168D01*
X37063502Y-98779697D01*
X37063501Y-98779704D01*
X37053000Y-98882488D01*
X37053000Y-99289936D01*
X37034046Y-99385224D01*
X36980070Y-99466006D01*
X36899288Y-99519982D01*
X36804000Y-99538936D01*
X36708712Y-99519982D01*
X36627930Y-99466006D01*
X36578698Y-99395956D01*
X36498597Y-99225733D01*
X36498595Y-99225730D01*
X36330040Y-98960131D01*
X36319245Y-98947083D01*
X34944266Y-100322062D01*
X34928521Y-100242902D01*
X34879522Y-100124610D01*
X34808388Y-100018149D01*
X34717851Y-99927612D01*
X34611390Y-99856478D01*
X34493098Y-99807479D01*
X34413934Y-99791732D01*
X35786138Y-98419529D01*
X35645716Y-98317506D01*
X35370050Y-98165959D01*
X35077562Y-98050155D01*
X34772884Y-97971927D01*
X34772879Y-97971926D01*
X34460782Y-97932500D01*
X34146218Y-97932500D01*
X33834120Y-97971926D01*
X33834115Y-97971927D01*
X33529437Y-98050155D01*
X33236949Y-98165959D01*
X32961286Y-98317505D01*
X32961283Y-98317507D01*
X32820860Y-98419529D01*
X34193063Y-99791732D01*
X34113902Y-99807479D01*
X33995610Y-99856478D01*
X33889149Y-99927612D01*
X33798612Y-100018149D01*
X33727478Y-100124610D01*
X33678479Y-100242902D01*
X33662732Y-100322063D01*
X32287752Y-98947083D01*
X32276960Y-98960130D01*
X32108404Y-99225730D01*
X32108402Y-99225733D01*
X31974461Y-99510372D01*
X31877255Y-99809541D01*
X31818309Y-100118544D01*
X31798557Y-100432500D01*
X25286166Y-100432500D01*
X25305049Y-100000000D01*
X25305049Y-99999999D01*
X25284862Y-99537638D01*
X25284861Y-99537633D01*
X25224453Y-99078791D01*
X25224452Y-99078786D01*
X25124286Y-98626962D01*
X24985114Y-98185564D01*
X24808014Y-97758005D01*
X24808007Y-97757991D01*
X24594307Y-97347477D01*
X24345640Y-96957147D01*
X24063910Y-96589988D01*
X24063905Y-96589982D01*
X24004823Y-96525506D01*
X21763653Y-98766676D01*
X21619924Y-98579365D01*
X21420635Y-98380076D01*
X21233320Y-98236345D01*
X23474492Y-95995174D01*
X23410013Y-95936092D01*
X23410002Y-95936082D01*
X23042849Y-95654356D01*
X22652526Y-95405693D01*
X22242009Y-95191992D01*
X22241994Y-95191985D01*
X21814435Y-95014885D01*
X21373037Y-94875713D01*
X20921213Y-94775547D01*
X20921208Y-94775546D01*
X20462366Y-94715138D01*
X20462361Y-94715137D01*
X20000000Y-94694951D01*
X19537638Y-94715137D01*
X19537633Y-94715138D01*
X19078791Y-94775546D01*
X19078786Y-94775547D01*
X18626962Y-94875713D01*
X18185564Y-95014885D01*
X17758005Y-95191985D01*
X17757991Y-95191992D01*
X17347477Y-95405692D01*
X16957153Y-95654355D01*
X16589974Y-95936101D01*
X16525506Y-95995174D01*
X18766677Y-98236345D01*
X18579365Y-98380076D01*
X18380076Y-98579365D01*
X18236345Y-98766677D01*
X15995174Y-96525506D01*
X15936101Y-96589974D01*
X15654355Y-96957153D01*
X15405692Y-97347477D01*
X15191992Y-97757991D01*
X15191985Y-97758005D01*
X15014885Y-98185564D01*
X14875713Y-98626962D01*
X14775547Y-99078786D01*
X14775546Y-99078791D01*
X14715138Y-99537633D01*
X14715137Y-99537638D01*
X14694951Y-99999999D01*
X12500500Y-99999999D01*
X12500500Y-37649587D01*
X14751500Y-37649587D01*
X14751500Y-62600412D01*
X14751501Y-62600428D01*
X14782290Y-62794823D01*
X14841378Y-62976679D01*
X14843116Y-62982026D01*
X14932476Y-63157405D01*
X15048172Y-63316646D01*
X15714054Y-63982528D01*
X15714057Y-63982530D01*
X15873291Y-64098222D01*
X15873295Y-64098224D01*
X16048674Y-64187583D01*
X16048679Y-64187584D01*
X16048682Y-64187586D01*
X16102445Y-64205055D01*
X16187213Y-64252527D01*
X16247361Y-64328824D01*
X16273732Y-64422332D01*
X16274500Y-64441868D01*
X16274500Y-64625970D01*
X16279895Y-64660030D01*
X16276079Y-64757110D01*
X16235403Y-64845340D01*
X16210030Y-64875047D01*
X15904420Y-65180658D01*
X15904420Y-65180659D01*
X15904418Y-65180661D01*
X15904417Y-65180660D01*
X15765062Y-65320016D01*
X15765060Y-65320019D01*
X15655569Y-65483884D01*
X15655565Y-65483891D01*
X15580149Y-65665964D01*
X15580147Y-65665969D01*
X15541700Y-65859254D01*
X15541700Y-70482845D01*
X15580147Y-70676130D01*
X15580149Y-70676135D01*
X15655565Y-70858208D01*
X15655566Y-70858211D01*
X15655568Y-70858214D01*
X15761153Y-71016234D01*
X15765060Y-71022080D01*
X15765062Y-71022083D01*
X15904417Y-71161439D01*
X15904418Y-71161439D01*
X43861561Y-99118582D01*
X43861560Y-99118582D01*
X43968709Y-99225730D01*
X44000918Y-99257939D01*
X44164786Y-99367432D01*
X44271444Y-99411610D01*
X44271446Y-99411612D01*
X44358165Y-99447532D01*
X44357336Y-99449532D01*
X44427849Y-99487217D01*
X44445967Y-99503637D01*
X44734063Y-99791733D01*
X44654902Y-99807479D01*
X44536610Y-99856478D01*
X44430149Y-99927612D01*
X44339612Y-100018149D01*
X44268478Y-100124610D01*
X44219479Y-100242902D01*
X44203732Y-100322063D01*
X42828752Y-98947083D01*
X42817960Y-98960130D01*
X42649404Y-99225730D01*
X42649402Y-99225733D01*
X42515461Y-99510372D01*
X42418255Y-99809541D01*
X42359309Y-100118544D01*
X42339557Y-100432500D01*
X42359309Y-100746455D01*
X42418255Y-101055458D01*
X42515461Y-101354627D01*
X42649402Y-101639266D01*
X42649404Y-101639269D01*
X42817961Y-101904872D01*
X42828752Y-101917915D01*
X44203732Y-100542934D01*
X44219479Y-100622098D01*
X44268478Y-100740390D01*
X44339612Y-100846851D01*
X44430149Y-100937388D01*
X44536610Y-101008522D01*
X44654902Y-101057521D01*
X44734062Y-101073266D01*
X43361860Y-102445469D01*
X43502283Y-102547493D01*
X43777949Y-102699040D01*
X44070437Y-102814844D01*
X44375115Y-102893072D01*
X44375120Y-102893073D01*
X44687218Y-102932500D01*
X45001782Y-102932500D01*
X45313879Y-102893073D01*
X45313884Y-102893072D01*
X45618562Y-102814844D01*
X45911053Y-102699039D01*
X46186712Y-102547494D01*
X46186714Y-102547493D01*
X46327138Y-102445468D01*
X44954936Y-101073266D01*
X45034098Y-101057521D01*
X45152390Y-101008522D01*
X45258851Y-100937388D01*
X45349388Y-100846851D01*
X45420522Y-100740390D01*
X45469521Y-100622098D01*
X45485267Y-100542936D01*
X46860246Y-101917915D01*
X46871031Y-101904881D01*
X46871046Y-101904860D01*
X47039588Y-101639280D01*
X47039600Y-101639260D01*
X47119698Y-101469044D01*
X47177420Y-101390895D01*
X47260654Y-101340784D01*
X47356730Y-101326339D01*
X47451019Y-101349761D01*
X47529168Y-101407483D01*
X47579279Y-101490717D01*
X47594000Y-101575062D01*
X47594000Y-101982506D01*
X47604501Y-102085300D01*
X47613751Y-102113213D01*
X47659686Y-102251834D01*
X47751788Y-102401156D01*
X47875844Y-102525212D01*
X48025166Y-102617314D01*
X48025169Y-102617315D01*
X48025167Y-102617315D01*
X48188810Y-102671540D01*
X48191703Y-102672499D01*
X48294491Y-102683000D01*
X51394508Y-102682999D01*
X51497297Y-102672499D01*
X51663834Y-102617314D01*
X51813156Y-102525212D01*
X51937212Y-102401156D01*
X52029314Y-102251834D01*
X52084499Y-102085297D01*
X52095000Y-101982509D01*
X52094999Y-98882492D01*
X52084499Y-98779703D01*
X52029314Y-98613166D01*
X51937212Y-98463844D01*
X51813156Y-98339788D01*
X51663834Y-98247686D01*
X51663832Y-98247685D01*
X51663830Y-98247684D01*
X51663832Y-98247684D01*
X51497302Y-98192502D01*
X51497298Y-98192501D01*
X51497297Y-98192501D01*
X51394509Y-98182000D01*
X51394505Y-98182000D01*
X48294493Y-98182000D01*
X48191699Y-98192501D01*
X48025167Y-98247685D01*
X47875846Y-98339786D01*
X47751782Y-98463850D01*
X47743084Y-98474851D01*
X47669114Y-98537839D01*
X47576670Y-98567725D01*
X47479826Y-98559959D01*
X47393325Y-98515724D01*
X47371698Y-98496478D01*
X46718240Y-97843020D01*
X46718239Y-97843018D01*
X46578882Y-97703661D01*
X46415014Y-97594168D01*
X46415009Y-97594165D01*
X46325968Y-97557283D01*
X46286265Y-97540838D01*
X46232936Y-97518749D01*
X46232933Y-97518748D01*
X46136289Y-97499524D01*
X46136288Y-97499524D01*
X46039641Y-97480300D01*
X46039638Y-97480300D01*
X45156261Y-97480300D01*
X45060973Y-97461346D01*
X44980191Y-97407370D01*
X32526552Y-84953731D01*
X19945706Y-72372886D01*
X19891731Y-72292105D01*
X19872777Y-72196817D01*
X19891731Y-72101529D01*
X19945707Y-72020747D01*
X20026489Y-71966771D01*
X20073200Y-71952601D01*
X20083762Y-71950500D01*
X20083767Y-71950500D01*
X20248082Y-71917816D01*
X20402863Y-71853703D01*
X20542162Y-71760626D01*
X20660626Y-71642162D01*
X20753703Y-71502863D01*
X20817816Y-71348082D01*
X20850500Y-71183767D01*
X20850500Y-71016233D01*
X20817816Y-70851918D01*
X20809998Y-70833045D01*
X20770799Y-70738411D01*
X20753703Y-70697137D01*
X20660626Y-70557838D01*
X20542162Y-70439374D01*
X20533504Y-70433589D01*
X20472991Y-70393155D01*
X20402863Y-70346297D01*
X20402860Y-70346296D01*
X20402859Y-70346295D01*
X20248086Y-70282185D01*
X20248082Y-70282184D01*
X20083767Y-70249500D01*
X19974500Y-70249500D01*
X19879212Y-70230546D01*
X19811048Y-70185001D01*
X32885001Y-70185001D01*
X32885001Y-70524181D01*
X32895400Y-70656334D01*
X32950377Y-70874517D01*
X33043429Y-71079375D01*
X33043431Y-71079379D01*
X33171564Y-71264329D01*
X33330670Y-71423435D01*
X33515620Y-71551568D01*
X33515624Y-71551570D01*
X33720482Y-71644622D01*
X33938665Y-71699599D01*
X33938678Y-71699601D01*
X34070804Y-71709999D01*
X34172500Y-71709998D01*
X34172500Y-70185001D01*
X34172499Y-70185000D01*
X32885002Y-70185000D01*
X32885001Y-70185001D01*
X19811048Y-70185001D01*
X19798430Y-70176570D01*
X19744454Y-70095788D01*
X19725500Y-70000500D01*
X19725499Y-68841968D01*
X19725498Y-68841956D01*
X19720608Y-68786954D01*
X19714886Y-68722582D01*
X19670653Y-68567997D01*
X19662664Y-68471173D01*
X19692335Y-68378659D01*
X19755151Y-68304543D01*
X19841548Y-68260107D01*
X19910047Y-68250500D01*
X21208783Y-68250500D01*
X25301583Y-68250500D01*
X32788626Y-68250500D01*
X32883914Y-68269454D01*
X32964696Y-68323430D01*
X33018672Y-68404212D01*
X33037626Y-68499500D01*
X33018672Y-68594788D01*
X33015335Y-68602477D01*
X32950377Y-68745484D01*
X32895400Y-68963665D01*
X32895398Y-68963678D01*
X32885000Y-69095797D01*
X32885000Y-69434999D01*
X32885001Y-69435000D01*
X34673500Y-69435000D01*
X34768788Y-69453954D01*
X34849570Y-69507930D01*
X34903546Y-69588712D01*
X34922500Y-69684000D01*
X34922500Y-71709998D01*
X34922501Y-71709999D01*
X35024182Y-71709999D01*
X35156334Y-71699599D01*
X35374517Y-71644622D01*
X35579375Y-71551570D01*
X35579379Y-71551568D01*
X35764329Y-71423435D01*
X35923435Y-71264329D01*
X36057167Y-71071298D01*
X36127012Y-71003765D01*
X36217384Y-70968101D01*
X36314526Y-70969735D01*
X36403647Y-71008420D01*
X36454824Y-71055745D01*
X36548891Y-71171109D01*
X36706593Y-71299698D01*
X36886951Y-71393909D01*
X37082582Y-71449886D01*
X37201963Y-71460500D01*
X38143036Y-71460499D01*
X38262418Y-71449886D01*
X38458049Y-71393909D01*
X38638407Y-71299698D01*
X38796109Y-71171109D01*
X38924698Y-71013407D01*
X39018909Y-70833049D01*
X39074886Y-70637418D01*
X39085500Y-70518037D01*
X39085499Y-69101964D01*
X39074886Y-68982582D01*
X39018909Y-68786951D01*
X38924698Y-68606593D01*
X38796109Y-68448891D01*
X38796103Y-68448886D01*
X38764643Y-68423233D01*
X38702773Y-68348326D01*
X38674277Y-68255444D01*
X38673000Y-68230257D01*
X38673000Y-67871114D01*
X38691954Y-67775826D01*
X38745930Y-67695044D01*
X39117544Y-67323430D01*
X39198326Y-67269454D01*
X39293614Y-67250500D01*
X39852508Y-67250500D01*
X39947796Y-67269454D01*
X40028578Y-67323430D01*
X40082554Y-67404212D01*
X40100740Y-67479962D01*
X40109904Y-67596412D01*
X40164904Y-67814683D01*
X40257993Y-68019626D01*
X40257995Y-68019629D01*
X40257996Y-68019631D01*
X40386177Y-68204649D01*
X40386178Y-68204650D01*
X40386181Y-68204654D01*
X40545346Y-68363819D01*
X40545349Y-68363821D01*
X40545350Y-68363822D01*
X40668140Y-68448891D01*
X40730374Y-68492007D01*
X40935317Y-68585096D01*
X41153588Y-68640096D01*
X41153591Y-68640096D01*
X41153594Y-68640097D01*
X41219685Y-68645298D01*
X41285783Y-68650500D01*
X42414216Y-68650499D01*
X42546412Y-68640096D01*
X42764683Y-68585096D01*
X42969626Y-68492007D01*
X43154654Y-68363819D01*
X43313819Y-68204654D01*
X43442007Y-68019626D01*
X43535096Y-67814683D01*
X43590096Y-67596412D01*
X43591330Y-67580741D01*
X43598104Y-67494652D01*
X43600500Y-67464217D01*
X43600500Y-67249500D01*
X43619454Y-67154212D01*
X43673430Y-67073430D01*
X43754212Y-67019454D01*
X43849500Y-67000500D01*
X45407300Y-67000500D01*
X45502588Y-67019454D01*
X45583370Y-67073430D01*
X45637346Y-67154212D01*
X45656300Y-67249500D01*
X45656300Y-84803644D01*
X45694748Y-84996933D01*
X45694749Y-84996938D01*
X45716838Y-85050264D01*
X45770165Y-85179009D01*
X45770168Y-85179014D01*
X45828947Y-85266984D01*
X45879661Y-85342882D01*
X46019018Y-85482239D01*
X46019020Y-85482240D01*
X58496477Y-97959698D01*
X58550453Y-98040480D01*
X58569407Y-98135768D01*
X58550453Y-98231056D01*
X58496477Y-98311838D01*
X58474854Y-98331081D01*
X58463851Y-98339781D01*
X58339786Y-98463846D01*
X58247684Y-98613168D01*
X58192502Y-98779697D01*
X58192501Y-98779704D01*
X58182000Y-98882488D01*
X58182000Y-99289936D01*
X58163046Y-99385224D01*
X58109070Y-99466006D01*
X58028288Y-99519982D01*
X57933000Y-99538936D01*
X57837712Y-99519982D01*
X57756930Y-99466006D01*
X57707698Y-99395956D01*
X57627597Y-99225733D01*
X57627595Y-99225730D01*
X57459040Y-98960131D01*
X57448245Y-98947083D01*
X56073266Y-100322062D01*
X56057521Y-100242902D01*
X56008522Y-100124610D01*
X55937388Y-100018149D01*
X55846851Y-99927612D01*
X55740390Y-99856478D01*
X55622098Y-99807479D01*
X55542934Y-99791732D01*
X56915138Y-98419529D01*
X56774716Y-98317506D01*
X56499050Y-98165959D01*
X56206562Y-98050155D01*
X55901884Y-97971927D01*
X55901879Y-97971926D01*
X55589782Y-97932500D01*
X55275218Y-97932500D01*
X54963120Y-97971926D01*
X54963115Y-97971927D01*
X54658437Y-98050155D01*
X54365949Y-98165959D01*
X54090286Y-98317505D01*
X54090283Y-98317507D01*
X53949860Y-98419529D01*
X55322063Y-99791732D01*
X55242902Y-99807479D01*
X55124610Y-99856478D01*
X55018149Y-99927612D01*
X54927612Y-100018149D01*
X54856478Y-100124610D01*
X54807479Y-100242902D01*
X54791732Y-100322063D01*
X53416752Y-98947083D01*
X53405960Y-98960130D01*
X53237404Y-99225730D01*
X53237402Y-99225733D01*
X53103461Y-99510372D01*
X53006255Y-99809541D01*
X52947309Y-100118544D01*
X52927557Y-100432500D01*
X52947309Y-100746455D01*
X53006255Y-101055458D01*
X53103461Y-101354627D01*
X53237402Y-101639266D01*
X53237404Y-101639269D01*
X53405961Y-101904872D01*
X53416752Y-101917915D01*
X54791732Y-100542934D01*
X54807479Y-100622098D01*
X54856478Y-100740390D01*
X54927612Y-100846851D01*
X55018149Y-100937388D01*
X55124610Y-101008522D01*
X55242902Y-101057521D01*
X55322062Y-101073266D01*
X53949860Y-102445469D01*
X54090283Y-102547493D01*
X54365949Y-102699040D01*
X54658437Y-102814844D01*
X54963115Y-102893072D01*
X54963120Y-102893073D01*
X55275218Y-102932500D01*
X55589782Y-102932500D01*
X55901879Y-102893073D01*
X55901884Y-102893072D01*
X56206562Y-102814844D01*
X56499053Y-102699039D01*
X56774712Y-102547494D01*
X56774714Y-102547493D01*
X56915138Y-102445468D01*
X55542936Y-101073266D01*
X55622098Y-101057521D01*
X55740390Y-101008522D01*
X55846851Y-100937388D01*
X55937388Y-100846851D01*
X56008522Y-100740390D01*
X56057521Y-100622098D01*
X56073267Y-100542936D01*
X57448246Y-101917915D01*
X57459031Y-101904881D01*
X57459046Y-101904860D01*
X57627588Y-101639280D01*
X57627600Y-101639260D01*
X57707698Y-101469043D01*
X57765419Y-101390894D01*
X57848654Y-101340783D01*
X57944729Y-101326338D01*
X58039019Y-101349760D01*
X58117168Y-101407481D01*
X58167279Y-101490716D01*
X58182000Y-101575061D01*
X58182000Y-101982506D01*
X58192501Y-102085300D01*
X58201751Y-102113213D01*
X58247686Y-102251834D01*
X58339788Y-102401156D01*
X58463844Y-102525212D01*
X58613166Y-102617314D01*
X58613169Y-102617315D01*
X58613167Y-102617315D01*
X58776810Y-102671540D01*
X58779703Y-102672499D01*
X58882491Y-102683000D01*
X61982508Y-102682999D01*
X62085297Y-102672499D01*
X62251834Y-102617314D01*
X62401156Y-102525212D01*
X62525212Y-102401156D01*
X62617314Y-102251834D01*
X62672499Y-102085297D01*
X62683000Y-101982509D01*
X62682999Y-99999999D01*
X94694951Y-99999999D01*
X94694951Y-100000000D01*
X94715137Y-100462361D01*
X94715138Y-100462366D01*
X94775546Y-100921208D01*
X94775547Y-100921213D01*
X94875713Y-101373037D01*
X95014885Y-101814435D01*
X95191985Y-102241994D01*
X95191992Y-102242009D01*
X95405693Y-102652526D01*
X95654356Y-103042849D01*
X95936082Y-103410002D01*
X95936092Y-103410013D01*
X95995174Y-103474492D01*
X98236345Y-101233320D01*
X98380076Y-101420635D01*
X98579365Y-101619924D01*
X98766676Y-101763653D01*
X96525506Y-104004824D01*
X96589982Y-104063905D01*
X96589988Y-104063910D01*
X96957150Y-104345643D01*
X97347473Y-104594306D01*
X97757990Y-104808007D01*
X97758005Y-104808014D01*
X98185564Y-104985114D01*
X98626962Y-105124286D01*
X99078786Y-105224452D01*
X99078791Y-105224453D01*
X99537633Y-105284861D01*
X99537638Y-105284862D01*
X100000000Y-105305049D01*
X100462361Y-105284862D01*
X100462366Y-105284861D01*
X100921208Y-105224453D01*
X100921213Y-105224452D01*
X101373037Y-105124286D01*
X101814435Y-104985114D01*
X102241994Y-104808014D01*
X102242009Y-104808007D01*
X102652526Y-104594306D01*
X103042843Y-104345646D01*
X103410026Y-104063897D01*
X103474492Y-104004824D01*
X101233322Y-101763654D01*
X101420635Y-101619924D01*
X101619924Y-101420635D01*
X101763654Y-101233322D01*
X104004824Y-103474492D01*
X104063897Y-103410026D01*
X104345646Y-103042843D01*
X104594306Y-102652526D01*
X104808007Y-102242009D01*
X104808014Y-102241994D01*
X104985114Y-101814435D01*
X105124286Y-101373037D01*
X105224452Y-100921213D01*
X105224453Y-100921208D01*
X105284861Y-100462366D01*
X105284862Y-100462361D01*
X105305049Y-100000000D01*
X105305049Y-99999999D01*
X105284862Y-99537638D01*
X105284861Y-99537633D01*
X105224453Y-99078791D01*
X105224452Y-99078786D01*
X105124286Y-98626962D01*
X104985114Y-98185564D01*
X104808014Y-97758005D01*
X104808007Y-97757991D01*
X104594307Y-97347477D01*
X104345640Y-96957147D01*
X104063910Y-96589988D01*
X104063905Y-96589982D01*
X104004823Y-96525506D01*
X101763653Y-98766676D01*
X101619924Y-98579365D01*
X101420635Y-98380076D01*
X101233320Y-98236345D01*
X103474492Y-95995174D01*
X103410013Y-95936092D01*
X103410002Y-95936082D01*
X103042849Y-95654356D01*
X102652526Y-95405693D01*
X102242009Y-95191992D01*
X102241994Y-95191985D01*
X101814435Y-95014885D01*
X101373037Y-94875713D01*
X100921213Y-94775547D01*
X100921208Y-94775546D01*
X100462366Y-94715138D01*
X100462361Y-94715137D01*
X100000000Y-94694951D01*
X99537638Y-94715137D01*
X99537633Y-94715138D01*
X99078791Y-94775546D01*
X99078786Y-94775547D01*
X98626962Y-94875713D01*
X98185564Y-95014885D01*
X97758005Y-95191985D01*
X97757991Y-95191992D01*
X97347477Y-95405692D01*
X96957153Y-95654355D01*
X96589974Y-95936101D01*
X96525506Y-95995174D01*
X98766677Y-98236345D01*
X98579365Y-98380076D01*
X98380076Y-98579365D01*
X98236345Y-98766677D01*
X95995174Y-96525506D01*
X95936101Y-96589974D01*
X95654355Y-96957153D01*
X95405692Y-97347477D01*
X95191992Y-97757991D01*
X95191985Y-97758005D01*
X95014885Y-98185564D01*
X94875713Y-98626962D01*
X94775547Y-99078786D01*
X94775546Y-99078791D01*
X94715138Y-99537633D01*
X94715137Y-99537638D01*
X94694951Y-99999999D01*
X62682999Y-99999999D01*
X62682999Y-98882492D01*
X62672499Y-98779703D01*
X62617314Y-98613166D01*
X62525212Y-98463844D01*
X62401156Y-98339788D01*
X62251834Y-98247686D01*
X62251832Y-98247685D01*
X62251830Y-98247684D01*
X62251832Y-98247684D01*
X62085302Y-98192502D01*
X62085298Y-98192501D01*
X62085297Y-98192501D01*
X62033903Y-98187250D01*
X61982511Y-98182000D01*
X61982509Y-98182000D01*
X61558043Y-98182000D01*
X61462755Y-98163046D01*
X61381973Y-98109070D01*
X61327997Y-98028288D01*
X61327694Y-98027558D01*
X61319132Y-98006886D01*
X61209639Y-97843018D01*
X61209637Y-97843016D01*
X61070282Y-97703660D01*
X61070282Y-97703661D01*
X55689622Y-92323001D01*
X77762501Y-92323001D01*
X77762501Y-92662181D01*
X77772900Y-92794334D01*
X77827877Y-93012517D01*
X77920929Y-93217375D01*
X77920931Y-93217379D01*
X78049064Y-93402329D01*
X78208170Y-93561435D01*
X78393120Y-93689568D01*
X78393124Y-93689570D01*
X78597982Y-93782622D01*
X78816165Y-93837599D01*
X78816178Y-93837601D01*
X78948304Y-93847999D01*
X79050000Y-93847998D01*
X79050000Y-92323001D01*
X79049999Y-92323000D01*
X77762502Y-92323000D01*
X77762501Y-92323001D01*
X55689622Y-92323001D01*
X54600418Y-91233797D01*
X77762500Y-91233797D01*
X77762500Y-91572999D01*
X77762501Y-91573000D01*
X79049999Y-91573000D01*
X79050000Y-91572999D01*
X79050000Y-90048000D01*
X79049999Y-90047999D01*
X78948317Y-90048000D01*
X78816165Y-90058400D01*
X78597982Y-90113377D01*
X78393124Y-90206429D01*
X78393120Y-90206431D01*
X78208170Y-90334564D01*
X78049064Y-90493670D01*
X77920931Y-90678620D01*
X77920929Y-90678624D01*
X77827877Y-90883482D01*
X77772900Y-91101665D01*
X77772898Y-91101678D01*
X77762500Y-91233797D01*
X54600418Y-91233797D01*
X49291622Y-85925001D01*
X77762501Y-85925001D01*
X77762501Y-86264181D01*
X77772900Y-86396334D01*
X77827877Y-86614517D01*
X77920929Y-86819375D01*
X77920931Y-86819379D01*
X78049064Y-87004329D01*
X78208170Y-87163435D01*
X78393120Y-87291568D01*
X78393124Y-87291570D01*
X78597982Y-87384622D01*
X78816165Y-87439599D01*
X78816178Y-87439601D01*
X78948304Y-87449999D01*
X79050000Y-87449998D01*
X79050000Y-85925001D01*
X79049999Y-85925000D01*
X77762502Y-85925000D01*
X77762501Y-85925001D01*
X49291622Y-85925001D01*
X48202418Y-84835797D01*
X77762500Y-84835797D01*
X77762500Y-85174999D01*
X77762501Y-85175000D01*
X79049999Y-85175000D01*
X79050000Y-85174999D01*
X79050000Y-83650000D01*
X79049999Y-83649999D01*
X78948317Y-83650000D01*
X78816165Y-83660400D01*
X78597982Y-83715377D01*
X78393124Y-83808429D01*
X78393120Y-83808431D01*
X78208170Y-83936564D01*
X78049064Y-84095670D01*
X77920931Y-84280620D01*
X77920929Y-84280624D01*
X77827877Y-84485482D01*
X77772900Y-84703665D01*
X77772898Y-84703678D01*
X77762500Y-84835797D01*
X48202418Y-84835797D01*
X47730230Y-84363609D01*
X47676254Y-84282827D01*
X47657300Y-84187539D01*
X47657300Y-70523672D01*
X47676254Y-70428384D01*
X47730230Y-70347602D01*
X47811012Y-70293626D01*
X47906300Y-70274672D01*
X48001588Y-70293626D01*
X48052656Y-70322225D01*
X48228185Y-70449755D01*
X48438809Y-70557073D01*
X48663628Y-70630121D01*
X48897106Y-70667100D01*
X50885075Y-70667100D01*
X50980363Y-70686054D01*
X51009574Y-70700459D01*
X51075712Y-70738644D01*
X51287713Y-70826458D01*
X51509361Y-70885848D01*
X51736866Y-70915799D01*
X51966334Y-70915799D01*
X52193839Y-70885848D01*
X52415487Y-70826458D01*
X52627488Y-70738644D01*
X52826212Y-70623910D01*
X53008261Y-70484220D01*
X53646549Y-69845930D01*
X53727330Y-69791954D01*
X53822619Y-69773000D01*
X55045266Y-69773000D01*
X58798743Y-69773000D01*
X58894031Y-69791954D01*
X58974813Y-69845930D01*
X58984411Y-69856083D01*
X58986275Y-69858169D01*
X58986280Y-69858174D01*
X59204726Y-70076620D01*
X59446257Y-70269235D01*
X59707835Y-70433596D01*
X59986170Y-70567635D01*
X60277764Y-70669667D01*
X60578948Y-70738411D01*
X60622034Y-70743265D01*
X60885920Y-70772999D01*
X60885935Y-70773000D01*
X61194865Y-70773000D01*
X61194879Y-70772999D01*
X61415679Y-70748120D01*
X61501852Y-70738411D01*
X61803036Y-70669667D01*
X62094630Y-70567635D01*
X62372965Y-70433596D01*
X62634543Y-70269235D01*
X62876074Y-70076620D01*
X62897725Y-70054968D01*
X62978502Y-70000991D01*
X63017562Y-69989145D01*
X63017553Y-69989108D01*
X63017510Y-69988964D01*
X63017517Y-69988961D01*
X63017444Y-69988670D01*
X63023345Y-69987191D01*
X63023360Y-69987189D01*
X63023374Y-69987184D01*
X63023377Y-69987184D01*
X63208043Y-69931166D01*
X63328981Y-69894480D01*
X63624044Y-69772261D01*
X63845915Y-69653668D01*
X63905688Y-69621719D01*
X63905692Y-69621716D01*
X63905706Y-69621709D01*
X64171256Y-69444275D01*
X64394918Y-69260720D01*
X64480601Y-69214921D01*
X64577288Y-69205398D01*
X64670259Y-69233600D01*
X64745361Y-69295235D01*
X64791160Y-69380918D01*
X64800683Y-69477605D01*
X64772481Y-69570576D01*
X64772480Y-69570577D01*
X64688039Y-69728554D01*
X64688037Y-69728557D01*
X64565823Y-70023611D01*
X64565815Y-70023632D01*
X64473113Y-70329231D01*
X64473111Y-70329237D01*
X64473111Y-70329240D01*
X64411811Y-70637418D01*
X64410803Y-70642484D01*
X64379500Y-70960312D01*
X64379500Y-71279687D01*
X64390749Y-71393906D01*
X64410804Y-71597523D01*
X64461762Y-71853703D01*
X64473113Y-71910768D01*
X64565815Y-72216367D01*
X64565823Y-72216388D01*
X64688037Y-72511442D01*
X64688039Y-72511445D01*
X64838580Y-72793088D01*
X64838590Y-72793104D01*
X64838591Y-72793106D01*
X65016025Y-73058656D01*
X65218634Y-73305535D01*
X65444465Y-73531366D01*
X65691344Y-73733975D01*
X65956894Y-73911409D01*
X65956900Y-73911412D01*
X65956911Y-73911419D01*
X66238554Y-74061960D01*
X66238557Y-74061962D01*
X66374427Y-74118240D01*
X66533619Y-74184180D01*
X66839240Y-74276889D01*
X67152477Y-74339196D01*
X67470313Y-74370500D01*
X71837259Y-74370500D01*
X71932547Y-74389454D01*
X72013329Y-74443430D01*
X80603165Y-83033266D01*
X80850045Y-83235875D01*
X80995599Y-83333131D01*
X81115591Y-83413307D01*
X81115601Y-83413313D01*
X81243178Y-83481504D01*
X81318280Y-83543138D01*
X81364078Y-83628821D01*
X81374800Y-83701102D01*
X81374800Y-84127347D01*
X81355846Y-84222635D01*
X81301870Y-84303417D01*
X81221088Y-84357393D01*
X81125800Y-84376347D01*
X81030512Y-84357393D01*
X80949730Y-84303417D01*
X80921121Y-84269149D01*
X80800933Y-84095668D01*
X80641829Y-83936564D01*
X80456879Y-83808431D01*
X80456875Y-83808429D01*
X80252017Y-83715377D01*
X80033834Y-83660400D01*
X80033821Y-83660398D01*
X79901702Y-83650000D01*
X79800001Y-83650000D01*
X79800000Y-83650001D01*
X79800000Y-87449998D01*
X79800001Y-87449999D01*
X79901682Y-87449999D01*
X80033834Y-87439599D01*
X80252017Y-87384622D01*
X80456875Y-87291570D01*
X80456879Y-87291568D01*
X80641829Y-87163435D01*
X80711030Y-87094235D01*
X80791812Y-87040259D01*
X80887100Y-87021305D01*
X80982388Y-87040259D01*
X81063170Y-87094235D01*
X81117146Y-87175017D01*
X81136100Y-87270305D01*
X81136100Y-90227695D01*
X81117146Y-90322983D01*
X81063170Y-90403765D01*
X80982388Y-90457741D01*
X80887100Y-90476695D01*
X80791812Y-90457741D01*
X80711030Y-90403765D01*
X80641829Y-90334564D01*
X80456879Y-90206431D01*
X80456875Y-90206429D01*
X80252017Y-90113377D01*
X80033834Y-90058400D01*
X80033821Y-90058398D01*
X79901702Y-90048000D01*
X79800001Y-90048000D01*
X79800000Y-90048001D01*
X79800000Y-93847998D01*
X79800001Y-93847999D01*
X79901682Y-93847999D01*
X80033834Y-93837599D01*
X80252017Y-93782622D01*
X80456875Y-93689570D01*
X80456879Y-93689568D01*
X80641829Y-93561435D01*
X80800935Y-93402329D01*
X80934667Y-93209298D01*
X81004512Y-93141765D01*
X81094884Y-93106101D01*
X81192026Y-93107735D01*
X81281147Y-93146420D01*
X81332324Y-93193745D01*
X81426391Y-93309109D01*
X81584093Y-93437698D01*
X81764451Y-93531909D01*
X81960082Y-93587886D01*
X82079463Y-93598500D01*
X83020536Y-93598499D01*
X83139918Y-93587886D01*
X83335549Y-93531909D01*
X83515907Y-93437698D01*
X83673609Y-93309109D01*
X83802198Y-93151407D01*
X83896409Y-92971049D01*
X83952386Y-92775418D01*
X83963000Y-92656037D01*
X83962999Y-92080505D01*
X83963768Y-92060957D01*
X83963900Y-92059280D01*
X83963900Y-86178176D01*
X83982854Y-86082888D01*
X83993884Y-86061240D01*
X83993534Y-86061062D01*
X83997974Y-86052347D01*
X83997976Y-86052345D01*
X84099012Y-85854049D01*
X84167785Y-85642389D01*
X84202600Y-85422576D01*
X84202600Y-85200024D01*
X84202600Y-83701102D01*
X84221554Y-83605814D01*
X84275530Y-83525032D01*
X84334222Y-83481504D01*
X84383567Y-83455128D01*
X84461806Y-83413309D01*
X84727356Y-83235875D01*
X84974235Y-83033266D01*
X85200066Y-82807435D01*
X85402675Y-82560556D01*
X85580109Y-82295006D01*
X85730661Y-82013344D01*
X85852880Y-81718281D01*
X85945589Y-81412660D01*
X86007896Y-81099423D01*
X86039200Y-80781587D01*
X86039200Y-80462213D01*
X86007896Y-80144377D01*
X85945589Y-79831140D01*
X85852880Y-79525519D01*
X85786940Y-79366327D01*
X85730662Y-79230457D01*
X85730660Y-79230454D01*
X85580113Y-78948801D01*
X85580107Y-78948790D01*
X85434937Y-78731529D01*
X85402675Y-78683245D01*
X85200066Y-78436365D01*
X75472335Y-68708634D01*
X75225456Y-68506025D01*
X74959906Y-68328591D01*
X74959904Y-68328590D01*
X74959888Y-68328580D01*
X74678245Y-68178039D01*
X74678242Y-68178037D01*
X74383188Y-68055823D01*
X74383181Y-68055820D01*
X74383176Y-68055818D01*
X74383167Y-68055815D01*
X74077568Y-67963113D01*
X74077563Y-67963112D01*
X74077560Y-67963111D01*
X73764323Y-67900804D01*
X73764317Y-67900803D01*
X73764315Y-67900803D01*
X73446487Y-67869500D01*
X67470313Y-67869500D01*
X67470312Y-67869500D01*
X67152484Y-67900803D01*
X67152480Y-67900803D01*
X67152477Y-67900804D01*
X66839240Y-67963111D01*
X66839237Y-67963111D01*
X66839231Y-67963113D01*
X66533632Y-68055815D01*
X66533611Y-68055823D01*
X66238557Y-68178037D01*
X66238554Y-68178039D01*
X65956911Y-68328580D01*
X65956890Y-68328593D01*
X65691346Y-68506023D01*
X65691335Y-68506031D01*
X65467680Y-68689580D01*
X65381997Y-68735378D01*
X65285310Y-68744901D01*
X65192339Y-68716698D01*
X65117237Y-68655063D01*
X65071439Y-68569380D01*
X65061916Y-68472693D01*
X65090118Y-68379725D01*
X65174561Y-68221744D01*
X65296780Y-67926681D01*
X65389489Y-67621060D01*
X65451796Y-67307823D01*
X65483100Y-66989987D01*
X65483100Y-64619700D01*
X65502054Y-64524412D01*
X65556030Y-64443630D01*
X65636812Y-64389654D01*
X65732100Y-64370700D01*
X91252484Y-64370700D01*
X91252487Y-64370700D01*
X91570323Y-64339396D01*
X91883560Y-64277089D01*
X92189181Y-64184380D01*
X92444446Y-64078645D01*
X92484242Y-64062162D01*
X92484244Y-64062161D01*
X92723690Y-63934174D01*
X92765888Y-63911619D01*
X92765892Y-63911616D01*
X92765906Y-63911609D01*
X93031456Y-63734175D01*
X93196236Y-63598942D01*
X93281918Y-63553144D01*
X93378606Y-63543621D01*
X93471577Y-63571823D01*
X93546679Y-63633458D01*
X93592478Y-63719140D01*
X93603200Y-63791422D01*
X93603200Y-74211359D01*
X93584246Y-74306647D01*
X93530270Y-74387429D01*
X93449488Y-74441405D01*
X93354200Y-74460359D01*
X93258912Y-74441405D01*
X93178130Y-74387429D01*
X92524676Y-73733975D01*
X91801035Y-73010334D01*
X91554156Y-72807725D01*
X91288606Y-72630291D01*
X91288604Y-72630290D01*
X91288588Y-72630280D01*
X91012122Y-72482506D01*
X90937020Y-72420872D01*
X90891222Y-72335188D01*
X90880500Y-72262908D01*
X90880500Y-70960316D01*
X90880500Y-70960313D01*
X90849196Y-70642477D01*
X90786889Y-70329240D01*
X90694180Y-70023619D01*
X90628240Y-69864427D01*
X90571962Y-69728557D01*
X90571960Y-69728554D01*
X90421419Y-69446911D01*
X90421412Y-69446900D01*
X90421409Y-69446894D01*
X90243975Y-69181344D01*
X90041366Y-68934465D01*
X89815535Y-68708634D01*
X89568656Y-68506025D01*
X89303106Y-68328591D01*
X89303104Y-68328590D01*
X89303088Y-68328580D01*
X89021445Y-68178039D01*
X89021442Y-68178037D01*
X88726388Y-68055823D01*
X88726381Y-68055820D01*
X88726376Y-68055818D01*
X88726367Y-68055815D01*
X88420768Y-67963113D01*
X88420763Y-67963112D01*
X88420760Y-67963111D01*
X88107523Y-67900804D01*
X88107517Y-67900803D01*
X88107515Y-67900803D01*
X87789687Y-67869500D01*
X87470313Y-67869500D01*
X87470312Y-67869500D01*
X87152484Y-67900803D01*
X87152480Y-67900803D01*
X87152477Y-67900804D01*
X86839240Y-67963111D01*
X86839237Y-67963111D01*
X86839231Y-67963113D01*
X86533632Y-68055815D01*
X86533611Y-68055823D01*
X86238557Y-68178037D01*
X86238554Y-68178039D01*
X85956911Y-68328580D01*
X85956890Y-68328593D01*
X85691346Y-68506023D01*
X85444468Y-68708631D01*
X85218631Y-68934468D01*
X85016023Y-69181346D01*
X84838593Y-69446890D01*
X84838580Y-69446911D01*
X84688039Y-69728554D01*
X84688037Y-69728557D01*
X84565823Y-70023611D01*
X84565815Y-70023632D01*
X84473113Y-70329231D01*
X84473111Y-70329237D01*
X84473111Y-70329240D01*
X84411811Y-70637418D01*
X84410803Y-70642484D01*
X84392683Y-70826459D01*
X84379500Y-70960313D01*
X84379500Y-75581387D01*
X84410804Y-75899223D01*
X84473111Y-76212460D01*
X84473113Y-76212468D01*
X84565815Y-76518067D01*
X84565823Y-76518088D01*
X84688037Y-76813142D01*
X84688039Y-76813145D01*
X84838580Y-77094788D01*
X84838590Y-77094804D01*
X84838591Y-77094806D01*
X85016025Y-77360356D01*
X85218634Y-77607235D01*
X85444465Y-77833066D01*
X85691344Y-78035675D01*
X85956894Y-78213109D01*
X85956900Y-78213112D01*
X85956911Y-78213119D01*
X86238554Y-78363660D01*
X86238557Y-78363662D01*
X86374427Y-78419940D01*
X86533619Y-78485880D01*
X86839240Y-78578589D01*
X87152477Y-78640896D01*
X87470313Y-78672200D01*
X87789687Y-78672200D01*
X88165959Y-78672200D01*
X88261247Y-78691154D01*
X88342028Y-78745129D01*
X97752765Y-88155867D01*
X97888362Y-88267148D01*
X97999644Y-88358475D01*
X98106008Y-88429545D01*
X98265194Y-88535910D01*
X98546856Y-88686461D01*
X98841919Y-88808680D01*
X99147540Y-88901389D01*
X99460777Y-88963696D01*
X99778613Y-88995000D01*
X99778614Y-88995000D01*
X99778616Y-88995000D01*
X104299684Y-88995000D01*
X104299687Y-88995000D01*
X104617523Y-88963696D01*
X104930760Y-88901389D01*
X105236381Y-88808680D01*
X105531444Y-88686461D01*
X105686731Y-88603457D01*
X105813088Y-88535919D01*
X105813092Y-88535916D01*
X105813106Y-88535909D01*
X106078656Y-88358475D01*
X106325535Y-88155866D01*
X106551366Y-87930035D01*
X106753975Y-87683156D01*
X106931409Y-87417606D01*
X106949040Y-87384622D01*
X107061076Y-87175017D01*
X107081961Y-87135944D01*
X107204180Y-86840881D01*
X107296889Y-86535260D01*
X107359196Y-86222023D01*
X107390500Y-85904187D01*
X107390500Y-85584813D01*
X107359196Y-85266977D01*
X107296889Y-84953740D01*
X107204180Y-84648119D01*
X107136814Y-84485482D01*
X107081962Y-84353057D01*
X107081960Y-84353054D01*
X106931419Y-84071411D01*
X106931412Y-84071400D01*
X106931409Y-84071394D01*
X106753975Y-83805844D01*
X106551366Y-83558965D01*
X106325535Y-83333134D01*
X106078656Y-83130525D01*
X105813106Y-82953091D01*
X105813098Y-82953086D01*
X105813088Y-82953081D01*
X105759184Y-82924268D01*
X105684083Y-82862633D01*
X105638285Y-82776950D01*
X105637818Y-82772649D01*
X104250436Y-81385266D01*
X104329598Y-81369521D01*
X104447890Y-81320522D01*
X104554351Y-81249388D01*
X104644888Y-81158851D01*
X104716022Y-81052390D01*
X104765021Y-80934098D01*
X104780767Y-80854936D01*
X106155746Y-82229915D01*
X106166531Y-82216881D01*
X106166546Y-82216860D01*
X106335088Y-81951280D01*
X106335097Y-81951266D01*
X106469038Y-81666627D01*
X106566244Y-81367458D01*
X106625190Y-81058455D01*
X106644942Y-80744500D01*
X106625190Y-80430544D01*
X106566244Y-80121541D01*
X106469038Y-79822372D01*
X106335097Y-79537733D01*
X106335095Y-79537730D01*
X106166540Y-79272131D01*
X106155745Y-79259083D01*
X104780766Y-80634062D01*
X104765021Y-80554902D01*
X104716022Y-80436610D01*
X104644888Y-80330149D01*
X104554351Y-80239612D01*
X104447890Y-80168478D01*
X104329598Y-80119479D01*
X104250434Y-80103732D01*
X105622638Y-78731529D01*
X105482216Y-78629506D01*
X105206550Y-78477959D01*
X104914062Y-78362155D01*
X104609384Y-78283927D01*
X104609379Y-78283926D01*
X104297282Y-78244500D01*
X103982718Y-78244500D01*
X103670620Y-78283926D01*
X103670615Y-78283927D01*
X103365937Y-78362155D01*
X103073449Y-78477959D01*
X102797786Y-78629505D01*
X102797783Y-78629507D01*
X102657360Y-78731529D01*
X104029563Y-80103732D01*
X103950402Y-80119479D01*
X103832110Y-80168478D01*
X103725649Y-80239612D01*
X103635112Y-80330149D01*
X103563978Y-80436610D01*
X103514979Y-80554902D01*
X103499232Y-80634063D01*
X102124252Y-79259083D01*
X102113460Y-79272130D01*
X101944904Y-79537730D01*
X101944902Y-79537733D01*
X101810961Y-79822372D01*
X101713755Y-80121541D01*
X101654809Y-80430544D01*
X101635057Y-80744500D01*
X101654809Y-81058455D01*
X101713755Y-81367458D01*
X101810961Y-81666627D01*
X101944902Y-81951266D01*
X101944904Y-81951269D01*
X102046640Y-82111579D01*
X102081694Y-82202190D01*
X102079405Y-82299318D01*
X102040121Y-82388177D01*
X101969823Y-82455238D01*
X101879212Y-82490292D01*
X101836402Y-82494000D01*
X101387842Y-82494000D01*
X101292554Y-82475046D01*
X101211772Y-82421070D01*
X96850142Y-78059440D01*
X96796166Y-77978658D01*
X96777212Y-77883370D01*
X96796166Y-77788082D01*
X96850142Y-77707300D01*
X96930924Y-77653324D01*
X97007388Y-77636154D01*
X97007304Y-77635299D01*
X97013386Y-77634700D01*
X97013387Y-77634700D01*
X97331223Y-77603396D01*
X97644460Y-77541089D01*
X97950081Y-77448380D01*
X98245144Y-77326161D01*
X98400431Y-77243157D01*
X98526788Y-77175619D01*
X98526792Y-77175616D01*
X98526806Y-77175609D01*
X98792356Y-76998175D01*
X99039235Y-76795566D01*
X99039236Y-76795564D01*
X99043960Y-76791688D01*
X99045140Y-76793126D01*
X99118928Y-76748841D01*
X99215023Y-76734530D01*
X99309280Y-76758082D01*
X99379020Y-76807167D01*
X99451420Y-76879567D01*
X99451430Y-76879576D01*
X99598852Y-76992696D01*
X99685462Y-77059154D01*
X99685471Y-77059159D01*
X99940932Y-77206650D01*
X99940935Y-77206651D01*
X99940938Y-77206653D01*
X100213480Y-77319544D01*
X100498427Y-77395895D01*
X100790901Y-77434401D01*
X101093627Y-77434401D01*
X101093659Y-77434400D01*
X102581690Y-77434400D01*
X102585624Y-77434499D01*
X102589981Y-77434499D01*
X102589991Y-77434500D01*
X105690008Y-77434499D01*
X105792797Y-77423999D01*
X105959334Y-77368814D01*
X106108656Y-77276712D01*
X106232712Y-77152656D01*
X106324814Y-77003334D01*
X106379999Y-76836797D01*
X106390500Y-76734009D01*
X106390499Y-73633992D01*
X106379999Y-73531203D01*
X106324814Y-73364666D01*
X106232712Y-73215344D01*
X106108656Y-73091288D01*
X105959334Y-72999186D01*
X105959332Y-72999185D01*
X105959330Y-72999184D01*
X105959332Y-72999184D01*
X105792802Y-72944002D01*
X105792798Y-72944001D01*
X105792797Y-72944001D01*
X105741403Y-72938750D01*
X105690011Y-72933500D01*
X105292039Y-72933500D01*
X105196751Y-72914546D01*
X105115969Y-72860570D01*
X105061993Y-72779788D01*
X105043039Y-72684500D01*
X105061993Y-72589212D01*
X105115969Y-72508430D01*
X105196751Y-72454454D01*
X105200382Y-72452983D01*
X105206551Y-72450540D01*
X105206552Y-72450540D01*
X105482212Y-72298994D01*
X105482214Y-72298993D01*
X105622638Y-72196968D01*
X104250436Y-70824766D01*
X104329598Y-70809021D01*
X104447890Y-70760022D01*
X104554351Y-70688888D01*
X104644888Y-70598351D01*
X104716022Y-70491890D01*
X104765021Y-70373598D01*
X104780767Y-70294436D01*
X106155746Y-71669415D01*
X106166531Y-71656381D01*
X106166546Y-71656360D01*
X106335088Y-71390780D01*
X106335097Y-71390766D01*
X106469038Y-71106127D01*
X106566244Y-70806958D01*
X106625190Y-70497955D01*
X106644942Y-70184000D01*
X106625190Y-69870044D01*
X106566244Y-69561041D01*
X106469038Y-69261872D01*
X106335097Y-68977233D01*
X106335095Y-68977230D01*
X106166540Y-68711631D01*
X106155745Y-68698583D01*
X104780766Y-70073562D01*
X104765021Y-69994402D01*
X104716022Y-69876110D01*
X104644888Y-69769649D01*
X104554351Y-69679112D01*
X104447890Y-69607978D01*
X104329598Y-69558979D01*
X104250434Y-69543232D01*
X105622638Y-68171029D01*
X105482216Y-68069006D01*
X105206550Y-67917459D01*
X104914062Y-67801655D01*
X104609384Y-67723427D01*
X104609379Y-67723426D01*
X104297282Y-67684000D01*
X103982718Y-67684000D01*
X103670620Y-67723426D01*
X103670615Y-67723427D01*
X103365937Y-67801655D01*
X103073449Y-67917459D01*
X102797786Y-68069005D01*
X102797783Y-68069007D01*
X102657360Y-68171029D01*
X104029563Y-69543232D01*
X103950402Y-69558979D01*
X103832110Y-69607978D01*
X103725649Y-69679112D01*
X103635112Y-69769649D01*
X103563978Y-69876110D01*
X103514979Y-69994402D01*
X103499232Y-70073563D01*
X102124252Y-68698583D01*
X102113460Y-68711630D01*
X101944904Y-68977230D01*
X101944902Y-68977233D01*
X101810961Y-69261872D01*
X101713755Y-69561041D01*
X101654809Y-69870044D01*
X101635057Y-70184000D01*
X101654809Y-70497955D01*
X101713755Y-70806958D01*
X101810961Y-71106127D01*
X101944902Y-71390766D01*
X101944904Y-71390769D01*
X102113461Y-71656372D01*
X102124252Y-71669415D01*
X103499232Y-70294434D01*
X103514979Y-70373598D01*
X103563978Y-70491890D01*
X103635112Y-70598351D01*
X103725649Y-70688888D01*
X103832110Y-70760022D01*
X103950402Y-70809021D01*
X104029562Y-70824766D01*
X102657360Y-72196969D01*
X102797783Y-72298993D01*
X103073451Y-72450541D01*
X103079613Y-72452981D01*
X103161235Y-72505677D01*
X103216478Y-72585598D01*
X103236931Y-72680576D01*
X103219481Y-72776151D01*
X103166785Y-72857773D01*
X103086864Y-72913016D01*
X102991886Y-72933469D01*
X102987963Y-72933500D01*
X102585593Y-72933500D01*
X102581710Y-72933600D01*
X101973687Y-72933600D01*
X101878399Y-72914646D01*
X101797617Y-72860670D01*
X101625579Y-72688632D01*
X101625569Y-72688623D01*
X101391538Y-72509046D01*
X101391528Y-72509040D01*
X101136067Y-72361549D01*
X101136056Y-72361544D01*
X100863518Y-72248655D01*
X100740129Y-72215593D01*
X100578573Y-72172305D01*
X100578568Y-72172304D01*
X100578571Y-72172304D01*
X100320698Y-72138354D01*
X100228699Y-72107124D01*
X100155654Y-72043065D01*
X100112684Y-71955929D01*
X100104200Y-71891484D01*
X100104200Y-62942200D01*
X100123154Y-62846912D01*
X100177130Y-62766130D01*
X100257912Y-62712154D01*
X100353200Y-62693200D01*
X101655636Y-62693200D01*
X101750924Y-62712154D01*
X101831706Y-62766130D01*
X101885682Y-62846912D01*
X101904636Y-62942200D01*
X101900990Y-62976638D01*
X101901383Y-62976679D01*
X101889500Y-63092988D01*
X101889500Y-66193006D01*
X101900001Y-66295800D01*
X101954729Y-66460956D01*
X101955186Y-66462334D01*
X102047288Y-66611656D01*
X102171344Y-66735712D01*
X102320666Y-66827814D01*
X102320669Y-66827815D01*
X102320667Y-66827815D01*
X102484310Y-66882040D01*
X102487203Y-66882999D01*
X102589991Y-66893500D01*
X105690008Y-66893499D01*
X105792797Y-66882999D01*
X105959334Y-66827814D01*
X106108656Y-66735712D01*
X106232712Y-66611656D01*
X106324814Y-66462334D01*
X106379999Y-66295797D01*
X106390500Y-66193009D01*
X106390499Y-63092992D01*
X106379999Y-62990203D01*
X106377289Y-62982026D01*
X106334156Y-62851858D01*
X106324814Y-62823666D01*
X106232712Y-62674344D01*
X106108656Y-62550288D01*
X105959334Y-62458186D01*
X105959332Y-62458185D01*
X105959330Y-62458184D01*
X105959332Y-62458184D01*
X105792802Y-62403002D01*
X105792798Y-62403001D01*
X105792797Y-62403001D01*
X105741403Y-62397750D01*
X105690011Y-62392500D01*
X105690009Y-62392500D01*
X105174187Y-62392500D01*
X105078899Y-62373546D01*
X104998117Y-62319570D01*
X104944141Y-62238788D01*
X104925187Y-62143500D01*
X104944141Y-62048212D01*
X104998117Y-61967431D01*
X105503247Y-61462299D01*
X105672357Y-61293188D01*
X105684217Y-61282080D01*
X105734758Y-61237758D01*
X105779080Y-61187216D01*
X105790190Y-61175355D01*
X105835571Y-61129976D01*
X105874633Y-61079067D01*
X105884938Y-61066510D01*
X105929273Y-61015957D01*
X105966624Y-60960056D01*
X105976103Y-60946829D01*
X106015154Y-60895938D01*
X106047238Y-60840365D01*
X106055822Y-60826560D01*
X106093172Y-60770665D01*
X106122905Y-60710370D01*
X106130581Y-60696010D01*
X106162652Y-60640463D01*
X106162653Y-60640462D01*
X106187210Y-60581173D01*
X106193914Y-60566378D01*
X106223652Y-60506077D01*
X106245255Y-60442436D01*
X106250990Y-60427196D01*
X106275544Y-60367920D01*
X106292151Y-60305937D01*
X106296875Y-60290368D01*
X106300935Y-60278410D01*
X106318481Y-60226722D01*
X106331597Y-60160776D01*
X106335292Y-60144933D01*
X106351895Y-60082973D01*
X106360269Y-60019361D01*
X106362916Y-60003324D01*
X106376034Y-59937380D01*
X106380429Y-59870323D01*
X106382026Y-59854113D01*
X106390401Y-59790503D01*
X106390401Y-59726338D01*
X106390934Y-59710052D01*
X106395329Y-59643000D01*
X106390934Y-59575945D01*
X106390401Y-59559660D01*
X106390401Y-59495496D01*
X106382026Y-59431887D01*
X106380428Y-59415666D01*
X106379281Y-59398170D01*
X106376034Y-59348620D01*
X106362920Y-59282694D01*
X106360269Y-59266635D01*
X106351895Y-59203027D01*
X106335290Y-59141059D01*
X106331598Y-59125226D01*
X106318481Y-59059278D01*
X106296871Y-58995619D01*
X106292145Y-58980038D01*
X106275546Y-58918088D01*
X106275544Y-58918080D01*
X106250993Y-58858810D01*
X106245260Y-58843580D01*
X106223652Y-58779923D01*
X106193924Y-58719641D01*
X106187204Y-58704812D01*
X106162653Y-58645538D01*
X106130576Y-58589980D01*
X106122896Y-58575611D01*
X106093174Y-58515340D01*
X106093173Y-58515339D01*
X106093172Y-58515336D01*
X106055822Y-58459439D01*
X106047234Y-58445628D01*
X106015154Y-58390062D01*
X105976107Y-58339174D01*
X105966620Y-58325935D01*
X105929270Y-58270038D01*
X105884967Y-58219521D01*
X105874629Y-58206925D01*
X105835571Y-58156024D01*
X105790193Y-58110645D01*
X105779056Y-58098754D01*
X105734765Y-58048250D01*
X105734758Y-58048242D01*
X105734748Y-58048233D01*
X105734746Y-58048231D01*
X105684236Y-58003934D01*
X105672347Y-57992799D01*
X105626980Y-57947432D01*
X105576070Y-57908367D01*
X105563479Y-57898033D01*
X105516102Y-57856485D01*
X105512957Y-57853727D01*
X105457070Y-57816384D01*
X105443829Y-57806895D01*
X105392940Y-57767847D01*
X105337390Y-57735775D01*
X105323556Y-57727172D01*
X105267670Y-57689831D01*
X105267666Y-57689829D01*
X105267665Y-57689828D01*
X105245648Y-57678970D01*
X105207374Y-57660095D01*
X105193008Y-57652416D01*
X105137463Y-57620347D01*
X105137455Y-57620343D01*
X105078193Y-57595796D01*
X105063355Y-57589073D01*
X105003078Y-57559348D01*
X104939435Y-57537744D01*
X104924197Y-57532009D01*
X104894448Y-57519686D01*
X104864921Y-57507456D01*
X104840218Y-57500837D01*
X104802952Y-57490851D01*
X104787375Y-57486126D01*
X104723721Y-57464518D01*
X104657796Y-57451405D01*
X104641945Y-57447709D01*
X104579973Y-57431105D01*
X104516369Y-57422730D01*
X104500305Y-57420078D01*
X104434382Y-57406966D01*
X104367316Y-57402569D01*
X104351108Y-57400972D01*
X104287502Y-57392599D01*
X104287499Y-57392599D01*
X104223340Y-57392599D01*
X104207055Y-57392066D01*
X104140000Y-57387671D01*
X104072945Y-57392066D01*
X104056660Y-57392599D01*
X103992495Y-57392599D01*
X103928890Y-57400972D01*
X103912683Y-57402569D01*
X103845617Y-57406966D01*
X103779695Y-57420078D01*
X103763633Y-57422730D01*
X103748339Y-57424743D01*
X103700026Y-57431104D01*
X103638067Y-57447706D01*
X103622207Y-57451404D01*
X103556272Y-57464520D01*
X103556271Y-57464520D01*
X103492628Y-57486124D01*
X103477043Y-57490852D01*
X103415075Y-57507457D01*
X103355809Y-57532005D01*
X103340570Y-57537741D01*
X103276925Y-57559347D01*
X103216640Y-57589075D01*
X103201808Y-57595795D01*
X103142532Y-57620349D01*
X103142529Y-57620350D01*
X103086981Y-57652421D01*
X103072618Y-57660099D01*
X103012334Y-57689829D01*
X102956449Y-57727169D01*
X102942620Y-57735768D01*
X102887069Y-57767841D01*
X102887055Y-57767850D01*
X102836161Y-57806901D01*
X102822927Y-57816384D01*
X102767055Y-57853718D01*
X102767037Y-57853731D01*
X102716512Y-57898040D01*
X102703922Y-57908372D01*
X102653028Y-57947424D01*
X102607651Y-57992801D01*
X102595762Y-58003936D01*
X102545251Y-58048233D01*
X102545238Y-58048246D01*
X102500942Y-58098755D01*
X102489817Y-58110634D01*
X102480992Y-58119460D01*
X102400213Y-58173441D01*
X102304926Y-58192400D01*
X99303341Y-58192400D01*
X99208053Y-58173446D01*
X99127272Y-58119471D01*
X99106555Y-58098754D01*
X99039235Y-58031434D01*
X98792356Y-57828825D01*
X98526806Y-57651391D01*
X98526804Y-57651390D01*
X98526788Y-57651380D01*
X98245145Y-57500839D01*
X98245142Y-57500837D01*
X97950088Y-57378623D01*
X97950081Y-57378620D01*
X97950076Y-57378618D01*
X97950067Y-57378615D01*
X97644468Y-57285913D01*
X97644463Y-57285912D01*
X97644460Y-57285911D01*
X97331223Y-57223604D01*
X97331217Y-57223603D01*
X97331215Y-57223603D01*
X97013387Y-57192300D01*
X96694013Y-57192300D01*
X96694012Y-57192300D01*
X96376184Y-57223603D01*
X96376180Y-57223603D01*
X96376177Y-57223604D01*
X96062940Y-57285911D01*
X96062937Y-57285911D01*
X96062931Y-57285913D01*
X95757332Y-57378615D01*
X95757311Y-57378623D01*
X95462257Y-57500837D01*
X95462254Y-57500839D01*
X95180611Y-57651380D01*
X95180590Y-57651393D01*
X94915046Y-57828823D01*
X94668168Y-58031431D01*
X94580128Y-58119471D01*
X94499346Y-58173447D01*
X94404059Y-58192400D01*
X94219841Y-58192400D01*
X94124553Y-58173446D01*
X94043772Y-58119471D01*
X94023055Y-58098754D01*
X93955735Y-58031434D01*
X93708855Y-57828825D01*
X93677549Y-57807907D01*
X93443309Y-57651392D01*
X93443298Y-57651386D01*
X93161645Y-57500839D01*
X93161642Y-57500837D01*
X92866588Y-57378623D01*
X92866581Y-57378620D01*
X92866576Y-57378618D01*
X92866567Y-57378615D01*
X92560968Y-57285913D01*
X92560961Y-57285911D01*
X92560959Y-57285911D01*
X92247722Y-57223604D01*
X92247716Y-57223603D01*
X92247714Y-57223603D01*
X91929886Y-57192300D01*
X91610513Y-57192300D01*
X91610512Y-57192300D01*
X91292684Y-57223603D01*
X91292680Y-57223603D01*
X91292677Y-57223604D01*
X90979440Y-57285911D01*
X90979437Y-57285911D01*
X90979431Y-57285913D01*
X90673832Y-57378615D01*
X90673811Y-57378623D01*
X90378757Y-57500837D01*
X90378754Y-57500839D01*
X90097111Y-57651380D01*
X90097080Y-57651399D01*
X89833173Y-57827736D01*
X89743414Y-57864916D01*
X89694837Y-57869700D01*
X89400964Y-57869700D01*
X89305676Y-57850746D01*
X89224894Y-57796770D01*
X89170918Y-57715988D01*
X89151964Y-57620700D01*
X89170918Y-57525412D01*
X89213757Y-57456522D01*
X89338778Y-57313964D01*
X89509960Y-57057772D01*
X89646238Y-56781427D01*
X89745280Y-56489659D01*
X89805391Y-56187460D01*
X89825543Y-55880000D01*
X89805391Y-55572540D01*
X89745280Y-55270341D01*
X89745278Y-55270336D01*
X89745278Y-55270333D01*
X89669241Y-55046339D01*
X89646238Y-54978573D01*
X89646234Y-54978566D01*
X89646232Y-54978559D01*
X89509965Y-54702239D01*
X89509964Y-54702238D01*
X89509960Y-54702229D01*
X89338778Y-54446036D01*
X89135620Y-54214380D01*
X88903964Y-54011222D01*
X88647772Y-53840040D01*
X88647767Y-53840037D01*
X88647761Y-53840034D01*
X88371440Y-53703767D01*
X88371428Y-53703762D01*
X88371427Y-53703762D01*
X88363836Y-53701185D01*
X88079666Y-53604721D01*
X88079659Y-53604720D01*
X87777470Y-53544610D01*
X87777458Y-53544608D01*
X87470000Y-53524457D01*
X87162541Y-53544608D01*
X87162529Y-53544610D01*
X86860340Y-53604720D01*
X86860333Y-53604721D01*
X86568578Y-53703760D01*
X86568559Y-53703767D01*
X86292239Y-53840034D01*
X86292222Y-53840044D01*
X86111471Y-53960818D01*
X86036036Y-54011222D01*
X85804380Y-54214380D01*
X85601222Y-54446036D01*
X85601220Y-54446038D01*
X85601219Y-54446040D01*
X85430044Y-54702222D01*
X85430034Y-54702239D01*
X85293767Y-54978559D01*
X85293760Y-54978578D01*
X85194721Y-55270333D01*
X85194720Y-55270340D01*
X85134610Y-55572529D01*
X85134608Y-55572541D01*
X85114457Y-55880000D01*
X85134608Y-56187458D01*
X85134610Y-56187470D01*
X85194720Y-56489659D01*
X85194721Y-56489666D01*
X85293760Y-56781421D01*
X85293767Y-56781440D01*
X85430034Y-57057761D01*
X85430037Y-57057767D01*
X85430040Y-57057772D01*
X85601222Y-57313964D01*
X85721754Y-57451404D01*
X85726243Y-57456522D01*
X85774821Y-57540661D01*
X85787503Y-57636984D01*
X85762358Y-57730829D01*
X85703214Y-57807907D01*
X85619075Y-57856485D01*
X85539036Y-57869700D01*
X70507618Y-57869700D01*
X70412330Y-57850746D01*
X70331548Y-57796770D01*
X70277572Y-57715988D01*
X70258618Y-57620700D01*
X70277572Y-57525412D01*
X70288020Y-57503322D01*
X70366547Y-57356406D01*
X70411961Y-57271444D01*
X70413362Y-57268063D01*
X70500464Y-57057778D01*
X70534180Y-56976381D01*
X70626889Y-56670760D01*
X70689196Y-56357523D01*
X70720500Y-56039687D01*
X70720500Y-52464850D01*
X70731222Y-52392568D01*
X70786889Y-52209060D01*
X70849196Y-51895823D01*
X70880500Y-51577987D01*
X70880500Y-51258613D01*
X70880500Y-49102000D01*
X101635057Y-49102000D01*
X101654809Y-49415955D01*
X101713755Y-49724958D01*
X101810961Y-50024127D01*
X101944902Y-50308766D01*
X101944904Y-50308769D01*
X102113461Y-50574372D01*
X102124252Y-50587415D01*
X103499232Y-49212434D01*
X103514979Y-49291598D01*
X103563978Y-49409890D01*
X103635112Y-49516351D01*
X103725649Y-49606888D01*
X103832110Y-49678022D01*
X103950402Y-49727021D01*
X104029562Y-49742766D01*
X102657360Y-51114969D01*
X102797783Y-51216993D01*
X103073451Y-51368541D01*
X103079613Y-51370981D01*
X103161235Y-51423677D01*
X103216478Y-51503598D01*
X103236931Y-51598576D01*
X103219481Y-51694151D01*
X103166785Y-51775773D01*
X103086864Y-51831016D01*
X102991886Y-51851469D01*
X102987963Y-51851500D01*
X102589993Y-51851500D01*
X102487199Y-51862001D01*
X102320667Y-51917185D01*
X102171346Y-52009286D01*
X102047286Y-52133346D01*
X101955184Y-52282668D01*
X101900002Y-52449197D01*
X101900002Y-52449199D01*
X101900001Y-52449203D01*
X101897375Y-52474900D01*
X101889500Y-52551988D01*
X101889500Y-55652006D01*
X101900001Y-55754800D01*
X101941489Y-55880000D01*
X101955186Y-55921334D01*
X102047288Y-56070656D01*
X102171344Y-56194712D01*
X102320666Y-56286814D01*
X102320669Y-56286815D01*
X102320667Y-56286815D01*
X102484310Y-56341040D01*
X102487203Y-56341999D01*
X102589991Y-56352500D01*
X105690008Y-56352499D01*
X105792797Y-56341999D01*
X105959334Y-56286814D01*
X106108656Y-56194712D01*
X106232712Y-56070656D01*
X106324814Y-55921334D01*
X106379999Y-55754797D01*
X106390500Y-55652009D01*
X106390499Y-52551992D01*
X106379999Y-52449203D01*
X106324814Y-52282666D01*
X106232712Y-52133344D01*
X106108656Y-52009288D01*
X105959334Y-51917186D01*
X105959332Y-51917185D01*
X105959330Y-51917184D01*
X105959332Y-51917184D01*
X105792802Y-51862002D01*
X105792798Y-51862001D01*
X105792797Y-51862001D01*
X105741403Y-51856750D01*
X105690011Y-51851500D01*
X105292039Y-51851500D01*
X105196751Y-51832546D01*
X105115969Y-51778570D01*
X105061993Y-51697788D01*
X105043039Y-51602500D01*
X105061993Y-51507212D01*
X105115969Y-51426430D01*
X105196751Y-51372454D01*
X105200382Y-51370983D01*
X105206551Y-51368540D01*
X105206552Y-51368540D01*
X105482212Y-51216994D01*
X105482214Y-51216993D01*
X105622638Y-51114968D01*
X104250436Y-49742766D01*
X104329598Y-49727021D01*
X104447890Y-49678022D01*
X104554351Y-49606888D01*
X104644888Y-49516351D01*
X104716022Y-49409890D01*
X104765021Y-49291598D01*
X104780767Y-49212436D01*
X106155746Y-50587415D01*
X106166531Y-50574381D01*
X106166546Y-50574360D01*
X106335088Y-50308780D01*
X106335097Y-50308766D01*
X106469038Y-50024127D01*
X106566244Y-49724958D01*
X106625190Y-49415955D01*
X106644942Y-49102000D01*
X106625190Y-48788044D01*
X106566244Y-48479041D01*
X106469038Y-48179872D01*
X106335097Y-47895233D01*
X106335095Y-47895230D01*
X106166540Y-47629631D01*
X106155745Y-47616583D01*
X104780766Y-48991562D01*
X104765021Y-48912402D01*
X104716022Y-48794110D01*
X104644888Y-48687649D01*
X104554351Y-48597112D01*
X104447890Y-48525978D01*
X104329598Y-48476979D01*
X104250434Y-48461232D01*
X105622638Y-47089029D01*
X105482216Y-46987006D01*
X105206550Y-46835459D01*
X104914062Y-46719655D01*
X104609384Y-46641427D01*
X104609379Y-46641426D01*
X104297282Y-46602000D01*
X103982718Y-46602000D01*
X103670620Y-46641426D01*
X103670615Y-46641427D01*
X103365937Y-46719655D01*
X103073449Y-46835459D01*
X102797786Y-46987005D01*
X102797783Y-46987007D01*
X102657360Y-47089029D01*
X104029563Y-48461232D01*
X103950402Y-48476979D01*
X103832110Y-48525978D01*
X103725649Y-48597112D01*
X103635112Y-48687649D01*
X103563978Y-48794110D01*
X103514979Y-48912402D01*
X103499232Y-48991563D01*
X102124252Y-47616583D01*
X102113460Y-47629630D01*
X101944904Y-47895230D01*
X101944902Y-47895233D01*
X101810961Y-48179872D01*
X101713755Y-48479041D01*
X101654809Y-48788044D01*
X101635057Y-49102000D01*
X70880500Y-49102000D01*
X70880500Y-38100000D01*
X85274457Y-38100000D01*
X85294608Y-38407458D01*
X85294610Y-38407470D01*
X85354720Y-38709659D01*
X85354721Y-38709666D01*
X85453760Y-39001421D01*
X85453767Y-39001440D01*
X85590034Y-39277761D01*
X85590037Y-39277767D01*
X85590040Y-39277772D01*
X85761222Y-39533964D01*
X85964380Y-39765620D01*
X86196036Y-39968778D01*
X86452228Y-40139960D01*
X86452237Y-40139964D01*
X86452238Y-40139965D01*
X86728559Y-40276232D01*
X86728566Y-40276234D01*
X86728573Y-40276238D01*
X86860122Y-40320893D01*
X87020333Y-40375278D01*
X87020336Y-40375278D01*
X87020341Y-40375280D01*
X87265082Y-40423962D01*
X87322529Y-40435389D01*
X87322534Y-40435389D01*
X87322540Y-40435391D01*
X87630000Y-40455543D01*
X87937460Y-40435391D01*
X88239659Y-40375280D01*
X88239664Y-40375278D01*
X88239666Y-40375278D01*
X88317344Y-40348909D01*
X88531427Y-40276238D01*
X88531436Y-40276233D01*
X88531440Y-40276232D01*
X88701639Y-40192299D01*
X88807772Y-40139960D01*
X89063964Y-39968778D01*
X89295620Y-39765620D01*
X89498778Y-39533964D01*
X89669960Y-39277772D01*
X89761903Y-39091330D01*
X89806232Y-39001440D01*
X89806233Y-39001436D01*
X89806238Y-39001427D01*
X89905280Y-38709659D01*
X89934850Y-38561000D01*
X101635057Y-38561000D01*
X101654809Y-38874955D01*
X101713755Y-39183958D01*
X101810961Y-39483127D01*
X101944902Y-39767766D01*
X101944904Y-39767769D01*
X102113461Y-40033372D01*
X102124252Y-40046415D01*
X103499232Y-38671434D01*
X103514979Y-38750598D01*
X103563978Y-38868890D01*
X103635112Y-38975351D01*
X103725649Y-39065888D01*
X103832110Y-39137022D01*
X103950402Y-39186021D01*
X104029562Y-39201766D01*
X102657360Y-40573969D01*
X102797783Y-40675993D01*
X103073451Y-40827541D01*
X103079613Y-40829981D01*
X103161235Y-40882677D01*
X103216478Y-40962598D01*
X103236931Y-41057576D01*
X103219481Y-41153151D01*
X103166785Y-41234773D01*
X103086864Y-41290016D01*
X102991886Y-41310469D01*
X102987963Y-41310500D01*
X102589993Y-41310500D01*
X102487199Y-41321001D01*
X102320667Y-41376185D01*
X102171346Y-41468286D01*
X102047286Y-41592346D01*
X101955184Y-41741668D01*
X101900002Y-41908197D01*
X101900001Y-41908204D01*
X101889500Y-42010988D01*
X101889500Y-45111006D01*
X101900001Y-45213800D01*
X101955185Y-45380332D01*
X102023305Y-45490774D01*
X102047288Y-45529656D01*
X102171344Y-45653712D01*
X102320666Y-45745814D01*
X102320669Y-45745815D01*
X102320667Y-45745815D01*
X102484310Y-45800040D01*
X102487203Y-45800999D01*
X102589991Y-45811500D01*
X105690008Y-45811499D01*
X105792797Y-45800999D01*
X105959334Y-45745814D01*
X106108656Y-45653712D01*
X106232712Y-45529656D01*
X106324814Y-45380334D01*
X106379999Y-45213797D01*
X106390500Y-45111009D01*
X106390499Y-42010992D01*
X106379999Y-41908203D01*
X106324814Y-41741666D01*
X106232712Y-41592344D01*
X106108656Y-41468288D01*
X105959334Y-41376186D01*
X105959332Y-41376185D01*
X105959330Y-41376184D01*
X105959332Y-41376184D01*
X105792802Y-41321002D01*
X105792798Y-41321001D01*
X105792797Y-41321001D01*
X105741403Y-41315750D01*
X105690011Y-41310500D01*
X105292039Y-41310500D01*
X105196751Y-41291546D01*
X105115969Y-41237570D01*
X105061993Y-41156788D01*
X105043039Y-41061500D01*
X105061993Y-40966212D01*
X105115969Y-40885430D01*
X105196751Y-40831454D01*
X105200382Y-40829983D01*
X105206551Y-40827540D01*
X105206552Y-40827540D01*
X105482212Y-40675994D01*
X105482214Y-40675993D01*
X105622638Y-40573968D01*
X104250436Y-39201766D01*
X104329598Y-39186021D01*
X104447890Y-39137022D01*
X104554351Y-39065888D01*
X104644888Y-38975351D01*
X104716022Y-38868890D01*
X104765021Y-38750598D01*
X104780767Y-38671436D01*
X106155746Y-40046415D01*
X106166531Y-40033381D01*
X106166546Y-40033360D01*
X106335088Y-39767780D01*
X106335097Y-39767766D01*
X106469038Y-39483127D01*
X106566244Y-39183958D01*
X106625190Y-38874955D01*
X106644942Y-38561000D01*
X106625190Y-38247044D01*
X106566244Y-37938041D01*
X106469038Y-37638872D01*
X106335097Y-37354233D01*
X106335095Y-37354230D01*
X106166540Y-37088631D01*
X106155745Y-37075583D01*
X104780766Y-38450562D01*
X104765021Y-38371402D01*
X104716022Y-38253110D01*
X104644888Y-38146649D01*
X104554351Y-38056112D01*
X104447890Y-37984978D01*
X104329598Y-37935979D01*
X104250434Y-37920232D01*
X105622638Y-36548029D01*
X105482216Y-36446006D01*
X105206550Y-36294459D01*
X104914062Y-36178655D01*
X104609384Y-36100427D01*
X104609379Y-36100426D01*
X104297282Y-36061000D01*
X103982718Y-36061000D01*
X103670620Y-36100426D01*
X103670615Y-36100427D01*
X103365937Y-36178655D01*
X103073449Y-36294459D01*
X102797786Y-36446005D01*
X102797783Y-36446007D01*
X102657360Y-36548029D01*
X104029563Y-37920232D01*
X103950402Y-37935979D01*
X103832110Y-37984978D01*
X103725649Y-38056112D01*
X103635112Y-38146649D01*
X103563978Y-38253110D01*
X103514979Y-38371402D01*
X103499232Y-38450563D01*
X102124252Y-37075583D01*
X102113460Y-37088630D01*
X101944904Y-37354230D01*
X101944902Y-37354233D01*
X101810961Y-37638872D01*
X101713755Y-37938041D01*
X101654809Y-38247044D01*
X101635057Y-38561000D01*
X89934850Y-38561000D01*
X89965391Y-38407460D01*
X89985543Y-38100000D01*
X89965391Y-37792540D01*
X89905280Y-37490341D01*
X89905278Y-37490336D01*
X89905278Y-37490333D01*
X89832954Y-37277277D01*
X89806238Y-37198573D01*
X89806234Y-37198566D01*
X89806232Y-37198559D01*
X89669965Y-36922239D01*
X89669964Y-36922238D01*
X89669960Y-36922229D01*
X89498778Y-36666036D01*
X89295620Y-36434380D01*
X89063964Y-36231222D01*
X88807772Y-36060040D01*
X88807767Y-36060037D01*
X88807761Y-36060034D01*
X88531440Y-35923767D01*
X88531428Y-35923762D01*
X88531427Y-35923762D01*
X88471499Y-35903419D01*
X88239666Y-35824721D01*
X88239659Y-35824720D01*
X87937470Y-35764610D01*
X87937458Y-35764608D01*
X87630000Y-35744457D01*
X87322541Y-35764608D01*
X87322529Y-35764610D01*
X87020340Y-35824720D01*
X87020333Y-35824721D01*
X86728578Y-35923760D01*
X86728559Y-35923767D01*
X86452239Y-36060034D01*
X86452222Y-36060044D01*
X86314934Y-36151777D01*
X86196036Y-36231222D01*
X85964380Y-36434380D01*
X85761222Y-36666036D01*
X85761220Y-36666038D01*
X85761219Y-36666040D01*
X85590044Y-36922222D01*
X85590034Y-36922239D01*
X85453767Y-37198559D01*
X85453760Y-37198578D01*
X85354721Y-37490333D01*
X85354720Y-37490340D01*
X85294610Y-37792529D01*
X85294608Y-37792541D01*
X85274457Y-38100000D01*
X70880500Y-38100000D01*
X70880500Y-37940313D01*
X70849196Y-37622477D01*
X70786889Y-37309240D01*
X70702271Y-37030291D01*
X70694184Y-37003632D01*
X70694183Y-37003631D01*
X70694180Y-37003619D01*
X70628240Y-36844427D01*
X70571962Y-36708557D01*
X70571960Y-36708554D01*
X70421419Y-36426911D01*
X70421412Y-36426900D01*
X70421409Y-36426894D01*
X70243975Y-36161344D01*
X70041366Y-35914465D01*
X69815535Y-35688634D01*
X69568656Y-35486025D01*
X69303106Y-35308591D01*
X69303104Y-35308590D01*
X69303088Y-35308580D01*
X69021445Y-35158039D01*
X69021442Y-35158037D01*
X68726388Y-35035823D01*
X68726381Y-35035820D01*
X68726376Y-35035818D01*
X68726367Y-35035815D01*
X68420768Y-34943113D01*
X68420763Y-34943112D01*
X68420760Y-34943111D01*
X68107523Y-34880804D01*
X68107517Y-34880803D01*
X68107515Y-34880803D01*
X67789687Y-34849500D01*
X67470313Y-34849500D01*
X67470312Y-34849500D01*
X67152484Y-34880803D01*
X67152480Y-34880803D01*
X67152477Y-34880804D01*
X66839240Y-34943111D01*
X66839237Y-34943111D01*
X66839231Y-34943113D01*
X66533632Y-35035815D01*
X66533611Y-35035823D01*
X66238557Y-35158037D01*
X66238554Y-35158039D01*
X65956911Y-35308580D01*
X65956890Y-35308593D01*
X65691346Y-35486023D01*
X65444468Y-35688631D01*
X65218631Y-35914468D01*
X65016023Y-36161346D01*
X64838593Y-36426890D01*
X64838580Y-36426911D01*
X64688039Y-36708554D01*
X64688037Y-36708557D01*
X64565823Y-37003611D01*
X64565815Y-37003632D01*
X64473113Y-37309231D01*
X64473111Y-37309237D01*
X64473111Y-37309240D01*
X64437090Y-37490333D01*
X64410803Y-37622484D01*
X64379500Y-37940312D01*
X64379500Y-50531748D01*
X64368778Y-50604029D01*
X64313113Y-50787530D01*
X64313111Y-50787539D01*
X64313111Y-50787540D01*
X64276210Y-50973056D01*
X64250803Y-51100784D01*
X64219500Y-51418612D01*
X64219500Y-56039687D01*
X64234768Y-56194712D01*
X64250804Y-56357523D01*
X64298359Y-56596597D01*
X64313113Y-56670768D01*
X64405815Y-56976367D01*
X64405823Y-56976388D01*
X64526638Y-57268063D01*
X64545592Y-57363352D01*
X64526638Y-57458640D01*
X64472661Y-57539421D01*
X64391880Y-57593397D01*
X64296591Y-57612351D01*
X64201303Y-57593397D01*
X64120522Y-57539421D01*
X63177693Y-56596592D01*
X62185535Y-55604434D01*
X61945852Y-55407730D01*
X61884220Y-55332631D01*
X61856017Y-55239659D01*
X61862366Y-55154411D01*
X61889598Y-55046339D01*
X61889601Y-55046321D01*
X61899999Y-54914202D01*
X61900000Y-54914190D01*
X61900000Y-54812501D01*
X61899999Y-54812500D01*
X60581960Y-54812500D01*
X60533382Y-54807715D01*
X60528192Y-54806682D01*
X60477528Y-54796604D01*
X60477520Y-54796603D01*
X60159687Y-54765300D01*
X59874000Y-54765300D01*
X59778712Y-54746346D01*
X59697930Y-54692370D01*
X59643954Y-54611588D01*
X59625000Y-54516300D01*
X59625000Y-52775001D01*
X60375000Y-52775001D01*
X60375000Y-54062499D01*
X60375001Y-54062500D01*
X61899998Y-54062500D01*
X61899999Y-54062499D01*
X61899999Y-53960818D01*
X61889599Y-53828665D01*
X61834622Y-53610482D01*
X61741570Y-53405624D01*
X61741568Y-53405620D01*
X61613435Y-53220670D01*
X61454329Y-53061564D01*
X61269379Y-52933431D01*
X61269375Y-52933429D01*
X61064517Y-52840377D01*
X60846334Y-52785400D01*
X60846321Y-52785398D01*
X60714202Y-52775000D01*
X60375001Y-52775000D01*
X60375000Y-52775001D01*
X59625000Y-52775001D01*
X59624999Y-52775000D01*
X59285817Y-52775000D01*
X59153665Y-52785400D01*
X59060040Y-52808992D01*
X58963009Y-52813895D01*
X58871488Y-52781292D01*
X58799409Y-52716148D01*
X58757747Y-52628379D01*
X58750200Y-52567539D01*
X58750200Y-50594935D01*
X58750199Y-50594922D01*
X58725747Y-50377909D01*
X58715611Y-50287948D01*
X58646868Y-49986764D01*
X58544835Y-49695171D01*
X58413542Y-49422539D01*
X58410798Y-49416840D01*
X58406431Y-49409890D01*
X58246435Y-49155257D01*
X58053820Y-48913726D01*
X57835374Y-48695280D01*
X57593843Y-48502665D01*
X57372875Y-48363822D01*
X57332259Y-48338301D01*
X57100149Y-48226523D01*
X57053929Y-48204265D01*
X56762336Y-48102232D01*
X56664042Y-48079797D01*
X56537986Y-48051025D01*
X56449305Y-48011342D01*
X56417330Y-47984342D01*
X55883428Y-47450441D01*
X55829453Y-47369660D01*
X55810499Y-47274372D01*
X55810499Y-47091968D01*
X55810498Y-47091956D01*
X55806984Y-47052431D01*
X55799886Y-46972582D01*
X55743909Y-46776951D01*
X55649698Y-46596593D01*
X55521109Y-46438891D01*
X55405745Y-46344824D01*
X55343874Y-46269919D01*
X55315377Y-46177037D01*
X55324593Y-46080321D01*
X55370120Y-45994493D01*
X55421298Y-45947167D01*
X55614329Y-45813435D01*
X55773435Y-45654329D01*
X55901568Y-45469379D01*
X55901570Y-45469375D01*
X55994622Y-45264517D01*
X56049599Y-45046334D01*
X56049601Y-45046321D01*
X56059999Y-44914202D01*
X56060000Y-44914190D01*
X56060000Y-44812501D01*
X56059999Y-44812500D01*
X52260002Y-44812500D01*
X52260001Y-44812501D01*
X52260001Y-44914181D01*
X52270400Y-45046334D01*
X52325377Y-45264517D01*
X52418429Y-45469375D01*
X52418431Y-45469379D01*
X52546564Y-45654329D01*
X52705670Y-45813435D01*
X52898701Y-45947167D01*
X52966234Y-46017012D01*
X53001898Y-46107385D01*
X53000264Y-46204526D01*
X52961579Y-46293647D01*
X52914254Y-46344825D01*
X52798893Y-46438889D01*
X52798889Y-46438893D01*
X52693120Y-46568609D01*
X52618213Y-46630481D01*
X52532304Y-46656838D01*
X52532475Y-46658136D01*
X52231911Y-46697706D01*
X51946949Y-46774060D01*
X51674400Y-46886953D01*
X51674396Y-46886955D01*
X51418910Y-47034459D01*
X51418905Y-47034462D01*
X51184863Y-47214049D01*
X50976249Y-47422663D01*
X50837349Y-47603682D01*
X50764304Y-47667740D01*
X50672305Y-47698970D01*
X50639804Y-47701100D01*
X49067717Y-47701100D01*
X48972429Y-47682146D01*
X48891647Y-47628170D01*
X48838822Y-47550120D01*
X48767322Y-47383154D01*
X48767316Y-47383143D01*
X48703981Y-47289567D01*
X48666267Y-47200031D01*
X48665689Y-47102878D01*
X48702333Y-47012898D01*
X48703981Y-47010433D01*
X48767316Y-46916856D01*
X48767316Y-46916854D01*
X48767321Y-46916848D01*
X48843556Y-46738821D01*
X48851932Y-46719264D01*
X48851932Y-46719263D01*
X48851934Y-46719259D01*
X48897624Y-46509226D01*
X48900500Y-46460948D01*
X48900500Y-45539052D01*
X48900500Y-45539043D01*
X48899254Y-45518141D01*
X48897624Y-45490774D01*
X48851934Y-45280741D01*
X48851933Y-45280738D01*
X48851932Y-45280735D01*
X48813001Y-45189824D01*
X48792914Y-45094768D01*
X48810732Y-44999261D01*
X48851529Y-44931300D01*
X48901659Y-44871842D01*
X48901665Y-44871833D01*
X49020118Y-44669977D01*
X49102760Y-44450991D01*
X49147207Y-44221178D01*
X49149998Y-44168623D01*
X49150000Y-44168579D01*
X49150000Y-44075001D01*
X49149999Y-44075000D01*
X45150002Y-44075000D01*
X45150001Y-44075001D01*
X45150001Y-44168591D01*
X45152794Y-44221191D01*
X45197239Y-44450992D01*
X45277091Y-44662583D01*
X45293002Y-44758426D01*
X45271024Y-44853063D01*
X45214504Y-44932085D01*
X45132045Y-44983463D01*
X45044128Y-44999500D01*
X42849499Y-44999500D01*
X42754211Y-44980546D01*
X42673429Y-44926570D01*
X42619453Y-44845788D01*
X42600499Y-44750500D01*
X42600499Y-44535791D01*
X42600499Y-44535784D01*
X42590096Y-44403588D01*
X42535096Y-44185317D01*
X42442007Y-43980374D01*
X42428444Y-43960797D01*
X52260000Y-43960797D01*
X52260000Y-44062499D01*
X52260001Y-44062500D01*
X53784999Y-44062500D01*
X53785000Y-44062499D01*
X53785000Y-42775001D01*
X54535000Y-42775001D01*
X54535000Y-44062499D01*
X54535001Y-44062500D01*
X56059998Y-44062500D01*
X56059999Y-44062499D01*
X56059999Y-43960818D01*
X56049599Y-43828665D01*
X55994622Y-43610482D01*
X55901570Y-43405624D01*
X55901568Y-43405620D01*
X55773435Y-43220670D01*
X55614329Y-43061564D01*
X55429379Y-42933431D01*
X55429375Y-42933429D01*
X55224517Y-42840377D01*
X55006334Y-42785400D01*
X55006321Y-42785398D01*
X54874202Y-42775000D01*
X54535001Y-42775000D01*
X54535000Y-42775001D01*
X53785000Y-42775001D01*
X53784999Y-42775000D01*
X53445817Y-42775000D01*
X53313665Y-42785400D01*
X53095482Y-42840377D01*
X52890624Y-42933429D01*
X52890620Y-42933431D01*
X52705670Y-43061564D01*
X52546564Y-43220670D01*
X52418431Y-43405620D01*
X52418429Y-43405624D01*
X52325377Y-43610482D01*
X52270400Y-43828665D01*
X52270398Y-43828678D01*
X52260000Y-43960797D01*
X42428444Y-43960797D01*
X42313819Y-43795346D01*
X42154654Y-43636181D01*
X42154650Y-43636178D01*
X42154649Y-43636177D01*
X41969631Y-43507996D01*
X41969629Y-43507995D01*
X41969626Y-43507993D01*
X41783758Y-43423568D01*
X41764686Y-43414905D01*
X41764684Y-43414904D01*
X41764683Y-43414904D01*
X41546412Y-43359904D01*
X41546411Y-43359903D01*
X41546408Y-43359903D01*
X41546405Y-43359902D01*
X41414222Y-43349500D01*
X40285791Y-43349500D01*
X40153587Y-43359904D01*
X39935311Y-43414905D01*
X39768501Y-43490674D01*
X39673905Y-43512824D01*
X39578033Y-43497087D01*
X39495481Y-43445860D01*
X39489456Y-43440035D01*
X39280841Y-43231420D01*
X45150000Y-43231420D01*
X45150000Y-43324999D01*
X45150001Y-43325000D01*
X46774999Y-43325000D01*
X46775000Y-43324999D01*
X46775000Y-41950001D01*
X47525000Y-41950001D01*
X47525000Y-43324999D01*
X47525001Y-43325000D01*
X49149998Y-43325000D01*
X49149999Y-43324999D01*
X49149999Y-43231426D01*
X49149998Y-43231408D01*
X49147205Y-43178808D01*
X49102760Y-42949007D01*
X49020118Y-42730022D01*
X48901665Y-42528166D01*
X48901654Y-42528151D01*
X48750794Y-42349221D01*
X48750778Y-42349205D01*
X48571848Y-42198345D01*
X48571833Y-42198334D01*
X48369977Y-42079881D01*
X48150991Y-41997239D01*
X47921175Y-41952792D01*
X47921182Y-41952792D01*
X47868623Y-41950001D01*
X47868580Y-41950000D01*
X47525001Y-41950000D01*
X47525000Y-41950001D01*
X46775000Y-41950001D01*
X46774999Y-41950000D01*
X46431427Y-41950000D01*
X46431407Y-41950001D01*
X46378808Y-41952794D01*
X46149007Y-41997239D01*
X45930022Y-42079881D01*
X45728166Y-42198334D01*
X45728151Y-42198345D01*
X45549221Y-42349205D01*
X45549205Y-42349221D01*
X45398345Y-42528151D01*
X45398334Y-42528166D01*
X45279881Y-42730022D01*
X45197239Y-42949008D01*
X45152792Y-43178821D01*
X45150001Y-43231376D01*
X45150000Y-43231420D01*
X39280841Y-43231420D01*
X37802429Y-41753008D01*
X37748453Y-41672226D01*
X37729499Y-41576938D01*
X37729499Y-40973968D01*
X37729498Y-40973956D01*
X37728950Y-40967797D01*
X37718886Y-40854582D01*
X37662909Y-40658951D01*
X37568698Y-40478593D01*
X37440109Y-40320891D01*
X37282407Y-40192302D01*
X37282402Y-40192299D01*
X37102053Y-40098093D01*
X37102052Y-40098092D01*
X37102049Y-40098091D01*
X36906418Y-40042114D01*
X36787037Y-40031500D01*
X36787036Y-40031500D01*
X36184060Y-40031500D01*
X36088772Y-40012546D01*
X36007990Y-39958570D01*
X31679786Y-35630366D01*
X31625810Y-35549584D01*
X31609922Y-35493248D01*
X31604209Y-35457174D01*
X31543384Y-35269975D01*
X31454024Y-35094595D01*
X31411323Y-35035823D01*
X31338330Y-34935357D01*
X31338328Y-34935354D01*
X31199146Y-34796172D01*
X31194096Y-34792503D01*
X31039910Y-34680479D01*
X31039907Y-34680477D01*
X31039905Y-34680476D01*
X30864525Y-34591116D01*
X30864524Y-34591115D01*
X30864523Y-34591115D01*
X30864517Y-34591113D01*
X30757428Y-34556318D01*
X30677326Y-34530291D01*
X30677324Y-34530290D01*
X30677322Y-34530290D01*
X30482928Y-34499501D01*
X30482919Y-34499500D01*
X30482917Y-34499500D01*
X30482913Y-34499500D01*
X19971077Y-34499500D01*
X19875789Y-34480546D01*
X19795007Y-34426570D01*
X19741031Y-34345788D01*
X19722077Y-34250500D01*
X19741031Y-34155212D01*
X19755437Y-34126000D01*
X19787771Y-34069995D01*
X19787779Y-34069979D01*
X19880576Y-33845944D01*
X19880584Y-33845921D01*
X19939780Y-33625000D01*
X18296752Y-33625000D01*
X18380095Y-33541657D01*
X18442630Y-33433343D01*
X18475000Y-33312535D01*
X18475000Y-33187465D01*
X18442630Y-33066657D01*
X18380095Y-32958343D01*
X18296751Y-32874999D01*
X18375000Y-32874999D01*
X18375001Y-32875000D01*
X19939780Y-32875000D01*
X19939780Y-32874999D01*
X19880584Y-32654078D01*
X19880576Y-32654055D01*
X19787779Y-32430020D01*
X19787771Y-32430004D01*
X19666524Y-32219999D01*
X19666518Y-32219989D01*
X19518893Y-32027599D01*
X19518884Y-32027589D01*
X19347410Y-31856115D01*
X19347400Y-31856106D01*
X19155010Y-31708481D01*
X19155000Y-31708475D01*
X18944995Y-31587228D01*
X18944979Y-31587220D01*
X18720944Y-31494423D01*
X18720935Y-31494420D01*
X18486686Y-31431653D01*
X18375000Y-31416949D01*
X18375000Y-32874999D01*
X18296751Y-32874999D01*
X18291657Y-32869905D01*
X18183343Y-32807370D01*
X18062535Y-32775000D01*
X17937465Y-32775000D01*
X17816657Y-32807370D01*
X17708343Y-32869905D01*
X17619905Y-32958343D01*
X17557370Y-33066657D01*
X17525000Y-33187465D01*
X17525000Y-33312535D01*
X17557370Y-33433343D01*
X17619905Y-33541657D01*
X17703248Y-33625000D01*
X16060219Y-33625000D01*
X16119415Y-33845921D01*
X16119423Y-33845944D01*
X16212220Y-34069979D01*
X16212228Y-34069995D01*
X16333475Y-34280000D01*
X16333481Y-34280010D01*
X16481106Y-34472400D01*
X16481122Y-34472418D01*
X16529851Y-34521146D01*
X16583828Y-34601927D01*
X16602783Y-34697215D01*
X16583830Y-34792503D01*
X16555229Y-34843574D01*
X16506135Y-34911146D01*
X16506131Y-34911153D01*
X16506130Y-34911155D01*
X16442613Y-35035815D01*
X16391757Y-35135625D01*
X16313909Y-35375217D01*
X16274500Y-35624028D01*
X16274500Y-35808131D01*
X16255546Y-35903419D01*
X16201570Y-35984201D01*
X16120788Y-36038177D01*
X16102449Y-36044943D01*
X16048682Y-36062413D01*
X15873291Y-36151777D01*
X15714057Y-36267469D01*
X15048170Y-36933356D01*
X14999387Y-37000500D01*
X14946401Y-37073430D01*
X14932475Y-37092597D01*
X14932473Y-37092598D01*
X14842219Y-37269733D01*
X14840092Y-37277277D01*
X14782290Y-37455173D01*
X14782290Y-37455176D01*
X14751501Y-37649571D01*
X14751500Y-37649587D01*
X12500500Y-37649587D01*
X12500500Y-32874999D01*
X16060219Y-32874999D01*
X16060220Y-32875000D01*
X17624999Y-32875000D01*
X17625000Y-32874999D01*
X17625000Y-31416949D01*
X17513313Y-31431653D01*
X17279064Y-31494420D01*
X17279055Y-31494423D01*
X17055020Y-31587220D01*
X17055004Y-31587228D01*
X16844999Y-31708475D01*
X16844989Y-31708481D01*
X16652599Y-31856106D01*
X16652589Y-31856115D01*
X16481115Y-32027589D01*
X16481106Y-32027599D01*
X16333481Y-32219989D01*
X16333475Y-32219999D01*
X16212228Y-32430004D01*
X16212220Y-32430020D01*
X16119423Y-32654055D01*
X16119415Y-32654078D01*
X16060219Y-32874999D01*
X12500500Y-32874999D01*
X12500500Y-28020000D01*
X101635057Y-28020000D01*
X101654809Y-28333955D01*
X101713755Y-28642958D01*
X101810961Y-28942127D01*
X101944902Y-29226766D01*
X101944904Y-29226769D01*
X102113461Y-29492372D01*
X102124252Y-29505415D01*
X103499232Y-28130434D01*
X103514979Y-28209598D01*
X103563978Y-28327890D01*
X103635112Y-28434351D01*
X103725649Y-28524888D01*
X103832110Y-28596022D01*
X103950402Y-28645021D01*
X104029562Y-28660766D01*
X102657360Y-30032969D01*
X102797783Y-30134993D01*
X103073451Y-30286541D01*
X103079613Y-30288981D01*
X103161235Y-30341677D01*
X103216478Y-30421598D01*
X103236931Y-30516576D01*
X103219481Y-30612151D01*
X103166785Y-30693773D01*
X103086864Y-30749016D01*
X102991886Y-30769469D01*
X102987963Y-30769500D01*
X102589993Y-30769500D01*
X102487199Y-30780001D01*
X102320667Y-30835185D01*
X102171346Y-30927286D01*
X102047286Y-31051346D01*
X101955184Y-31200668D01*
X101900002Y-31367197D01*
X101900001Y-31367204D01*
X101889500Y-31469988D01*
X101889500Y-34570006D01*
X101900001Y-34672800D01*
X101955185Y-34839331D01*
X101955186Y-34839334D01*
X102047288Y-34988656D01*
X102171344Y-35112712D01*
X102320666Y-35204814D01*
X102320669Y-35204815D01*
X102320667Y-35204815D01*
X102484310Y-35259040D01*
X102487203Y-35259999D01*
X102589991Y-35270500D01*
X105690008Y-35270499D01*
X105792797Y-35259999D01*
X105959334Y-35204814D01*
X106108656Y-35112712D01*
X106232712Y-34988656D01*
X106324814Y-34839334D01*
X106379999Y-34672797D01*
X106390500Y-34570009D01*
X106390499Y-31469992D01*
X106379999Y-31367203D01*
X106324814Y-31200666D01*
X106232712Y-31051344D01*
X106108656Y-30927288D01*
X105959334Y-30835186D01*
X105959332Y-30835185D01*
X105959330Y-30835184D01*
X105959332Y-30835184D01*
X105792802Y-30780002D01*
X105792798Y-30780001D01*
X105792797Y-30780001D01*
X105741403Y-30774750D01*
X105690011Y-30769500D01*
X105292039Y-30769500D01*
X105196751Y-30750546D01*
X105115969Y-30696570D01*
X105061993Y-30615788D01*
X105043039Y-30520500D01*
X105061993Y-30425212D01*
X105115969Y-30344430D01*
X105196751Y-30290454D01*
X105200382Y-30288983D01*
X105206551Y-30286540D01*
X105206552Y-30286540D01*
X105482212Y-30134994D01*
X105482214Y-30134993D01*
X105622638Y-30032968D01*
X104250436Y-28660766D01*
X104329598Y-28645021D01*
X104447890Y-28596022D01*
X104554351Y-28524888D01*
X104644888Y-28434351D01*
X104716022Y-28327890D01*
X104765021Y-28209598D01*
X104780767Y-28130436D01*
X106155746Y-29505415D01*
X106166531Y-29492381D01*
X106166546Y-29492360D01*
X106335088Y-29226780D01*
X106335097Y-29226766D01*
X106469038Y-28942127D01*
X106566244Y-28642958D01*
X106625190Y-28333955D01*
X106644942Y-28020000D01*
X106625190Y-27706044D01*
X106566244Y-27397041D01*
X106469038Y-27097872D01*
X106335097Y-26813233D01*
X106335095Y-26813230D01*
X106166540Y-26547631D01*
X106155745Y-26534583D01*
X104780766Y-27909562D01*
X104765021Y-27830402D01*
X104716022Y-27712110D01*
X104644888Y-27605649D01*
X104554351Y-27515112D01*
X104447890Y-27443978D01*
X104329598Y-27394979D01*
X104250434Y-27379232D01*
X105622638Y-26007029D01*
X105482216Y-25905006D01*
X105206550Y-25753459D01*
X104914062Y-25637655D01*
X104609384Y-25559427D01*
X104609379Y-25559426D01*
X104297282Y-25520000D01*
X103982718Y-25520000D01*
X103670620Y-25559426D01*
X103670615Y-25559427D01*
X103365937Y-25637655D01*
X103073449Y-25753459D01*
X102797786Y-25905005D01*
X102797783Y-25905007D01*
X102657360Y-26007029D01*
X104029563Y-27379232D01*
X103950402Y-27394979D01*
X103832110Y-27443978D01*
X103725649Y-27515112D01*
X103635112Y-27605649D01*
X103563978Y-27712110D01*
X103514979Y-27830402D01*
X103499232Y-27909563D01*
X102124252Y-26534583D01*
X102113460Y-26547630D01*
X101944904Y-26813230D01*
X101944902Y-26813233D01*
X101810961Y-27097872D01*
X101713755Y-27397041D01*
X101654809Y-27706044D01*
X101635057Y-28020000D01*
X12500500Y-28020000D01*
X12500500Y-19999999D01*
X14694951Y-19999999D01*
X14694951Y-20000000D01*
X14715137Y-20462361D01*
X14715138Y-20462366D01*
X14775546Y-20921208D01*
X14775547Y-20921213D01*
X14875713Y-21373037D01*
X15014885Y-21814435D01*
X15191985Y-22241994D01*
X15191992Y-22242009D01*
X15405693Y-22652526D01*
X15654356Y-23042849D01*
X15936082Y-23410002D01*
X15936092Y-23410013D01*
X15995174Y-23474492D01*
X18236345Y-21233320D01*
X18380076Y-21420635D01*
X18579365Y-21619924D01*
X18766676Y-21763653D01*
X16525506Y-24004824D01*
X16589982Y-24063905D01*
X16589988Y-24063910D01*
X16957150Y-24345643D01*
X17347473Y-24594306D01*
X17757990Y-24808007D01*
X17758005Y-24808014D01*
X18185564Y-24985114D01*
X18626962Y-25124286D01*
X19078786Y-25224452D01*
X19078791Y-25224453D01*
X19537633Y-25284861D01*
X19537638Y-25284862D01*
X20000000Y-25305049D01*
X20462361Y-25284862D01*
X20462366Y-25284861D01*
X20921208Y-25224453D01*
X20921213Y-25224452D01*
X21373037Y-25124286D01*
X21814435Y-24985114D01*
X22241994Y-24808014D01*
X22242009Y-24808007D01*
X22652526Y-24594306D01*
X23042843Y-24345646D01*
X23410026Y-24063897D01*
X23474492Y-24004824D01*
X21233322Y-21763654D01*
X21420635Y-21619924D01*
X21619924Y-21420635D01*
X21763654Y-21233322D01*
X24004824Y-23474492D01*
X24063897Y-23410026D01*
X24345646Y-23042843D01*
X24594306Y-22652526D01*
X24808007Y-22242009D01*
X24808014Y-22241994D01*
X24985114Y-21814435D01*
X25124286Y-21373037D01*
X25224452Y-20921213D01*
X25224453Y-20921208D01*
X25284861Y-20462366D01*
X25284862Y-20462361D01*
X25305049Y-20000000D01*
X25305049Y-19999999D01*
X44694951Y-19999999D01*
X44694951Y-20000000D01*
X44715137Y-20462361D01*
X44715138Y-20462366D01*
X44775546Y-20921208D01*
X44775547Y-20921213D01*
X44875713Y-21373037D01*
X45014885Y-21814435D01*
X45191985Y-22241994D01*
X45191992Y-22242009D01*
X45405693Y-22652526D01*
X45654356Y-23042849D01*
X45936082Y-23410002D01*
X45936092Y-23410013D01*
X45995174Y-23474492D01*
X48236345Y-21233320D01*
X48380076Y-21420635D01*
X48579365Y-21619924D01*
X48766676Y-21763653D01*
X46525506Y-24004824D01*
X46589982Y-24063905D01*
X46589988Y-24063910D01*
X46957150Y-24345643D01*
X47347473Y-24594306D01*
X47757990Y-24808007D01*
X47758005Y-24808014D01*
X48185564Y-24985114D01*
X48626962Y-25124286D01*
X49078786Y-25224452D01*
X49078791Y-25224453D01*
X49537633Y-25284861D01*
X49537638Y-25284862D01*
X50000000Y-25305049D01*
X50462361Y-25284862D01*
X50462366Y-25284861D01*
X50921208Y-25224453D01*
X50921213Y-25224452D01*
X51373037Y-25124286D01*
X51814435Y-24985114D01*
X52241994Y-24808014D01*
X52242009Y-24808007D01*
X52652526Y-24594306D01*
X53042843Y-24345646D01*
X53410026Y-24063897D01*
X53474492Y-24004824D01*
X51233322Y-21763654D01*
X51420635Y-21619924D01*
X51619924Y-21420635D01*
X51763654Y-21233322D01*
X54004824Y-23474492D01*
X54063897Y-23410026D01*
X54345646Y-23042843D01*
X54594306Y-22652526D01*
X54808007Y-22242009D01*
X54808014Y-22241994D01*
X54985114Y-21814435D01*
X55124286Y-21373037D01*
X55160433Y-21209988D01*
X65119500Y-21209988D01*
X65119500Y-24510006D01*
X65130001Y-24612800D01*
X65185185Y-24779331D01*
X65185186Y-24779334D01*
X65277288Y-24928656D01*
X65401344Y-25052712D01*
X65550666Y-25144814D01*
X65550669Y-25144815D01*
X65550667Y-25144815D01*
X65703291Y-25195389D01*
X65717203Y-25199999D01*
X65819991Y-25210500D01*
X69120008Y-25210499D01*
X69222797Y-25199999D01*
X69389334Y-25144814D01*
X69538656Y-25052712D01*
X69662712Y-24928656D01*
X69754814Y-24779334D01*
X69809999Y-24612797D01*
X69820500Y-24510009D01*
X69820499Y-22860000D01*
X85114457Y-22860000D01*
X85134608Y-23167458D01*
X85134610Y-23167470D01*
X85194720Y-23469659D01*
X85194721Y-23469666D01*
X85293760Y-23761421D01*
X85293767Y-23761440D01*
X85430034Y-24037761D01*
X85430037Y-24037767D01*
X85430040Y-24037772D01*
X85601222Y-24293964D01*
X85804380Y-24525620D01*
X86036036Y-24728778D01*
X86292228Y-24899960D01*
X86292237Y-24899964D01*
X86292238Y-24899965D01*
X86568559Y-25036232D01*
X86568566Y-25036234D01*
X86568573Y-25036238D01*
X86712559Y-25085114D01*
X86860333Y-25135278D01*
X86860336Y-25135278D01*
X86860341Y-25135280D01*
X87105082Y-25183962D01*
X87162529Y-25195389D01*
X87162534Y-25195389D01*
X87162540Y-25195391D01*
X87470000Y-25215543D01*
X87777460Y-25195391D01*
X88079659Y-25135280D01*
X88079664Y-25135278D01*
X88079666Y-25135278D01*
X88157344Y-25108909D01*
X88371427Y-25036238D01*
X88371436Y-25036233D01*
X88371440Y-25036232D01*
X88589588Y-24928653D01*
X88647772Y-24899960D01*
X88903964Y-24728778D01*
X89135620Y-24525620D01*
X89338778Y-24293964D01*
X89509960Y-24037772D01*
X89646238Y-23761427D01*
X89718909Y-23547344D01*
X89745278Y-23469666D01*
X89745278Y-23469664D01*
X89745280Y-23469659D01*
X89805391Y-23167460D01*
X89825543Y-22860000D01*
X89805391Y-22552540D01*
X89745280Y-22250341D01*
X89745278Y-22250336D01*
X89745278Y-22250333D01*
X89695114Y-22102559D01*
X89646238Y-21958573D01*
X89646234Y-21958566D01*
X89646232Y-21958559D01*
X89509965Y-21682239D01*
X89509964Y-21682238D01*
X89509960Y-21682229D01*
X89338778Y-21426036D01*
X89135620Y-21194380D01*
X88903964Y-20991222D01*
X88647772Y-20820040D01*
X88647767Y-20820037D01*
X88647761Y-20820034D01*
X88371440Y-20683767D01*
X88371428Y-20683762D01*
X88371427Y-20683762D01*
X88363836Y-20681185D01*
X88079666Y-20584721D01*
X88079659Y-20584720D01*
X87777470Y-20524610D01*
X87777458Y-20524608D01*
X87470000Y-20504457D01*
X87162541Y-20524608D01*
X87162529Y-20524610D01*
X86860340Y-20584720D01*
X86860333Y-20584721D01*
X86568578Y-20683760D01*
X86568559Y-20683767D01*
X86292239Y-20820034D01*
X86292222Y-20820044D01*
X86036040Y-20991219D01*
X86036036Y-20991222D01*
X85903793Y-21107197D01*
X85804381Y-21194379D01*
X85804379Y-21194381D01*
X85790688Y-21209993D01*
X85601222Y-21426036D01*
X85601220Y-21426038D01*
X85601219Y-21426040D01*
X85430044Y-21682222D01*
X85430034Y-21682239D01*
X85293767Y-21958559D01*
X85293760Y-21958578D01*
X85194721Y-22250333D01*
X85194720Y-22250340D01*
X85134610Y-22552529D01*
X85134608Y-22552541D01*
X85114457Y-22860000D01*
X69820499Y-22860000D01*
X69820499Y-21209992D01*
X69809999Y-21107203D01*
X69754814Y-20940666D01*
X69662712Y-20791344D01*
X69538656Y-20667288D01*
X69389334Y-20575186D01*
X69389332Y-20575185D01*
X69389330Y-20575184D01*
X69389332Y-20575184D01*
X69222802Y-20520002D01*
X69222798Y-20520001D01*
X69222797Y-20520001D01*
X69120009Y-20509500D01*
X69120005Y-20509500D01*
X65819993Y-20509500D01*
X65717199Y-20520001D01*
X65550667Y-20575185D01*
X65401346Y-20667286D01*
X65277286Y-20791346D01*
X65185184Y-20940668D01*
X65130002Y-21107197D01*
X65130001Y-21107204D01*
X65119500Y-21209988D01*
X55160433Y-21209988D01*
X55224452Y-20921213D01*
X55224453Y-20921208D01*
X55284861Y-20462366D01*
X55284862Y-20462361D01*
X55305049Y-20000000D01*
X55305049Y-19999999D01*
X55284862Y-19537638D01*
X55284861Y-19537633D01*
X55224453Y-19078791D01*
X55224452Y-19078786D01*
X55124286Y-18626962D01*
X54985114Y-18185564D01*
X54808014Y-17758005D01*
X54808007Y-17757991D01*
X54662774Y-17479000D01*
X101635057Y-17479000D01*
X101654809Y-17792955D01*
X101713755Y-18101958D01*
X101810961Y-18401127D01*
X101944902Y-18685766D01*
X101944904Y-18685769D01*
X102113461Y-18951372D01*
X102124252Y-18964415D01*
X103499232Y-17589434D01*
X103514979Y-17668598D01*
X103563978Y-17786890D01*
X103635112Y-17893351D01*
X103725649Y-17983888D01*
X103832110Y-18055022D01*
X103950402Y-18104021D01*
X104029562Y-18119766D01*
X102657360Y-19491969D01*
X102797783Y-19593993D01*
X103073451Y-19745541D01*
X103079613Y-19747981D01*
X103161235Y-19800677D01*
X103216478Y-19880598D01*
X103236931Y-19975576D01*
X103219481Y-20071151D01*
X103166785Y-20152773D01*
X103086864Y-20208016D01*
X102991886Y-20228469D01*
X102987963Y-20228500D01*
X102589993Y-20228500D01*
X102487199Y-20239001D01*
X102320667Y-20294185D01*
X102171346Y-20386286D01*
X102047286Y-20510346D01*
X101955184Y-20659668D01*
X101900002Y-20826197D01*
X101900001Y-20826204D01*
X101889500Y-20928988D01*
X101889500Y-24029006D01*
X101900001Y-24131800D01*
X101953736Y-24293959D01*
X101955186Y-24298334D01*
X102047288Y-24447656D01*
X102171344Y-24571712D01*
X102320666Y-24663814D01*
X102320669Y-24663815D01*
X102320667Y-24663815D01*
X102484310Y-24718040D01*
X102487203Y-24718999D01*
X102589991Y-24729500D01*
X105690008Y-24729499D01*
X105792797Y-24718999D01*
X105959334Y-24663814D01*
X106108656Y-24571712D01*
X106232712Y-24447656D01*
X106324814Y-24298334D01*
X106379999Y-24131797D01*
X106390500Y-24029009D01*
X106390499Y-20928992D01*
X106379999Y-20826203D01*
X106324814Y-20659666D01*
X106232712Y-20510344D01*
X106108656Y-20386288D01*
X105959334Y-20294186D01*
X105959332Y-20294185D01*
X105959330Y-20294184D01*
X105959332Y-20294184D01*
X105792802Y-20239002D01*
X105792798Y-20239001D01*
X105792797Y-20239001D01*
X105741403Y-20233750D01*
X105690011Y-20228500D01*
X105292039Y-20228500D01*
X105196751Y-20209546D01*
X105115969Y-20155570D01*
X105061993Y-20074788D01*
X105043039Y-19979500D01*
X105061993Y-19884212D01*
X105115969Y-19803430D01*
X105196751Y-19749454D01*
X105200382Y-19747983D01*
X105206551Y-19745540D01*
X105206552Y-19745540D01*
X105482212Y-19593994D01*
X105482214Y-19593993D01*
X105622638Y-19491968D01*
X104250436Y-18119766D01*
X104329598Y-18104021D01*
X104447890Y-18055022D01*
X104554351Y-17983888D01*
X104644888Y-17893351D01*
X104716022Y-17786890D01*
X104765021Y-17668598D01*
X104780767Y-17589436D01*
X106155746Y-18964415D01*
X106166531Y-18951381D01*
X106166546Y-18951360D01*
X106335088Y-18685780D01*
X106335097Y-18685766D01*
X106469038Y-18401127D01*
X106566244Y-18101958D01*
X106625190Y-17792955D01*
X106644942Y-17479000D01*
X106625190Y-17165044D01*
X106566244Y-16856041D01*
X106469038Y-16556872D01*
X106335097Y-16272233D01*
X106335095Y-16272230D01*
X106166540Y-16006631D01*
X106155745Y-15993583D01*
X104780766Y-17368562D01*
X104765021Y-17289402D01*
X104716022Y-17171110D01*
X104644888Y-17064649D01*
X104554351Y-16974112D01*
X104447890Y-16902978D01*
X104329598Y-16853979D01*
X104250434Y-16838232D01*
X105622638Y-15466029D01*
X105482216Y-15364006D01*
X105206550Y-15212459D01*
X104914062Y-15096655D01*
X104609384Y-15018427D01*
X104609379Y-15018426D01*
X104297282Y-14979000D01*
X103982718Y-14979000D01*
X103670620Y-15018426D01*
X103670615Y-15018427D01*
X103365937Y-15096655D01*
X103073449Y-15212459D01*
X102797786Y-15364005D01*
X102797783Y-15364007D01*
X102657360Y-15466029D01*
X104029563Y-16838232D01*
X103950402Y-16853979D01*
X103832110Y-16902978D01*
X103725649Y-16974112D01*
X103635112Y-17064649D01*
X103563978Y-17171110D01*
X103514979Y-17289402D01*
X103499232Y-17368563D01*
X102124252Y-15993583D01*
X102113460Y-16006630D01*
X101944904Y-16272230D01*
X101944902Y-16272233D01*
X101810961Y-16556872D01*
X101713755Y-16856041D01*
X101654809Y-17165044D01*
X101635057Y-17479000D01*
X54662774Y-17479000D01*
X54594307Y-17347477D01*
X54345640Y-16957147D01*
X54063910Y-16589988D01*
X54063905Y-16589982D01*
X54004823Y-16525506D01*
X51763653Y-18766676D01*
X51619924Y-18579365D01*
X51420635Y-18380076D01*
X51233320Y-18236345D01*
X53474492Y-15995174D01*
X53410013Y-15936092D01*
X53410002Y-15936082D01*
X53042849Y-15654356D01*
X52652526Y-15405693D01*
X52242009Y-15191992D01*
X52241994Y-15191985D01*
X51814435Y-15014885D01*
X51373037Y-14875713D01*
X50921213Y-14775547D01*
X50921208Y-14775546D01*
X50462366Y-14715138D01*
X50462361Y-14715137D01*
X50000000Y-14694951D01*
X49537638Y-14715137D01*
X49537633Y-14715138D01*
X49078791Y-14775546D01*
X49078786Y-14775547D01*
X48626962Y-14875713D01*
X48185564Y-15014885D01*
X47758005Y-15191985D01*
X47757991Y-15191992D01*
X47347477Y-15405692D01*
X46957153Y-15654355D01*
X46589974Y-15936101D01*
X46525506Y-15995174D01*
X48766677Y-18236345D01*
X48579365Y-18380076D01*
X48380076Y-18579365D01*
X48236345Y-18766677D01*
X45995174Y-16525506D01*
X45936101Y-16589974D01*
X45654355Y-16957153D01*
X45405692Y-17347477D01*
X45191992Y-17757991D01*
X45191985Y-17758005D01*
X45014885Y-18185564D01*
X44875713Y-18626962D01*
X44775547Y-19078786D01*
X44775546Y-19078791D01*
X44715138Y-19537633D01*
X44715137Y-19537638D01*
X44694951Y-19999999D01*
X25305049Y-19999999D01*
X25284862Y-19537638D01*
X25284861Y-19537633D01*
X25224453Y-19078791D01*
X25224452Y-19078786D01*
X25124286Y-18626962D01*
X24985114Y-18185564D01*
X24808014Y-17758005D01*
X24808007Y-17757991D01*
X24594307Y-17347477D01*
X24345640Y-16957147D01*
X24063910Y-16589988D01*
X24063905Y-16589982D01*
X24004823Y-16525506D01*
X21763653Y-18766676D01*
X21619924Y-18579365D01*
X21420635Y-18380076D01*
X21233320Y-18236345D01*
X23474492Y-15995174D01*
X23410013Y-15936092D01*
X23410002Y-15936082D01*
X23042849Y-15654356D01*
X22652526Y-15405693D01*
X22242009Y-15191992D01*
X22241994Y-15191985D01*
X21814435Y-15014885D01*
X21373037Y-14875713D01*
X20921213Y-14775547D01*
X20921208Y-14775546D01*
X20462366Y-14715138D01*
X20462361Y-14715137D01*
X20000000Y-14694951D01*
X19537638Y-14715137D01*
X19537633Y-14715138D01*
X19078791Y-14775546D01*
X19078786Y-14775547D01*
X18626962Y-14875713D01*
X18185564Y-15014885D01*
X17758005Y-15191985D01*
X17757991Y-15191992D01*
X17347477Y-15405692D01*
X16957153Y-15654355D01*
X16589974Y-15936101D01*
X16525506Y-15995174D01*
X18766677Y-18236345D01*
X18579365Y-18380076D01*
X18380076Y-18579365D01*
X18236345Y-18766677D01*
X15995174Y-16525506D01*
X15936101Y-16589974D01*
X15654355Y-16957153D01*
X15405692Y-17347477D01*
X15191992Y-17757991D01*
X15191985Y-17758005D01*
X15014885Y-18185564D01*
X14875713Y-18626962D01*
X14775547Y-19078786D01*
X14775546Y-19078791D01*
X14715138Y-19537633D01*
X14715137Y-19537638D01*
X14694951Y-19999999D01*
X12500500Y-19999999D01*
X12500500Y-12749500D01*
X12519454Y-12654212D01*
X12573430Y-12573430D01*
X12654212Y-12519454D01*
X12749500Y-12500500D01*
X111250500Y-12500500D01*
X111345788Y-12519454D01*
G37*
%TD.AperFunction*%
%TD*%
M02*
