%TF.GenerationSoftware,KiCad,Pcbnew,8.0.3*%
%TF.CreationDate,2024-11-03T20:36:31+01:00*%
%TF.ProjectId,weerstation-power,77656572-7374-4617-9469-6f6e2d706f77,rev?*%
%TF.SameCoordinates,Original*%
%TF.FileFunction,Soldermask,Bot*%
%TF.FilePolarity,Negative*%
%FSLAX46Y46*%
G04 Gerber Fmt 4.6, Leading zero omitted, Abs format (unit mm)*
G04 Created by KiCad (PCBNEW 8.0.3) date 2024-11-03 20:36:31*
%MOMM*%
%LPD*%
G01*
G04 APERTURE LIST*
G04 Aperture macros list*
%AMRoundRect*
0 Rectangle with rounded corners*
0 $1 Rounding radius*
0 $2 $3 $4 $5 $6 $7 $8 $9 X,Y pos of 4 corners*
0 Add a 4 corners polygon primitive as box body*
4,1,4,$2,$3,$4,$5,$6,$7,$8,$9,$2,$3,0*
0 Add four circle primitives for the rounded corners*
1,1,$1+$1,$2,$3*
1,1,$1+$1,$4,$5*
1,1,$1+$1,$6,$7*
1,1,$1+$1,$8,$9*
0 Add four rect primitives between the rounded corners*
20,1,$1+$1,$2,$3,$4,$5,0*
20,1,$1+$1,$4,$5,$6,$7,0*
20,1,$1+$1,$6,$7,$8,$9,0*
20,1,$1+$1,$8,$9,$2,$3,0*%
G04 Aperture macros list end*
%ADD10C,8.600000*%
%ADD11R,3.000000X3.000000*%
%ADD12C,3.000000*%
%ADD13C,1.200000*%
%ADD14RoundRect,0.250000X0.725000X-0.600000X0.725000X0.600000X-0.725000X0.600000X-0.725000X-0.600000X0*%
%ADD15O,1.950000X1.700000*%
%ADD16R,3.200000X3.200000*%
%ADD17O,3.200000X3.200000*%
%ADD18RoundRect,0.250000X0.650000X-0.412500X0.650000X0.412500X-0.650000X0.412500X-0.650000X-0.412500X0*%
%ADD19RoundRect,0.250000X0.412500X0.650000X-0.412500X0.650000X-0.412500X-0.650000X0.412500X-0.650000X0*%
%ADD20RoundRect,0.375000X0.625000X0.375000X-0.625000X0.375000X-0.625000X-0.375000X0.625000X-0.375000X0*%
%ADD21RoundRect,0.500000X0.500000X1.400000X-0.500000X1.400000X-0.500000X-1.400000X0.500000X-1.400000X0*%
G04 APERTURE END LIST*
D10*
%TO.C,H4*%
X20000000Y-100000000D03*
%TD*%
%TO.C,H3*%
X100000000Y-100000000D03*
%TD*%
%TO.C,H2*%
X50000000Y-20000000D03*
%TD*%
%TO.C,H1*%
X20000000Y-20000000D03*
%TD*%
D11*
%TO.C,J12*%
X39303500Y-100432500D03*
D12*
X34303500Y-100432500D03*
%TD*%
D13*
%TO.C,J1*%
X20000000Y-42350000D03*
D14*
X18000000Y-40750000D03*
D15*
X18000000Y-38250000D03*
X18000000Y-35750000D03*
X18000000Y-33250000D03*
%TD*%
D16*
%TO.C,D2*%
X67630000Y-38100000D03*
D17*
X87630000Y-38100000D03*
%TD*%
D11*
%TO.C,J10*%
X60432500Y-100432500D03*
D12*
X55432500Y-100432500D03*
%TD*%
D11*
%TO.C,J5*%
X104140000Y-43561000D03*
D12*
X104140000Y-38561000D03*
%TD*%
D13*
%TO.C,J2*%
X20000000Y-71100000D03*
D14*
X18000000Y-69500000D03*
D15*
X18000000Y-67000000D03*
X18000000Y-64500000D03*
X18000000Y-62000000D03*
%TD*%
D11*
%TO.C,J7*%
X104140000Y-64643000D03*
D12*
X104140000Y-59643000D03*
%TD*%
D11*
%TO.C,J9*%
X104140000Y-85744500D03*
D12*
X104140000Y-80744500D03*
%TD*%
D11*
%TO.C,J6*%
X104140000Y-54102000D03*
D12*
X104140000Y-49102000D03*
%TD*%
D16*
%TO.C,D4*%
X67630000Y-71120000D03*
D17*
X87630000Y-71120000D03*
%TD*%
D11*
%TO.C,J8*%
X104140000Y-75184000D03*
D12*
X104140000Y-70184000D03*
%TD*%
D11*
%TO.C,J11*%
X49844500Y-100432500D03*
D12*
X44844500Y-100432500D03*
%TD*%
D16*
%TO.C,D1*%
X67470000Y-22860000D03*
D17*
X87470000Y-22860000D03*
%TD*%
D11*
%TO.C,J4*%
X104140000Y-33020000D03*
D12*
X104140000Y-28020000D03*
%TD*%
D11*
%TO.C,J3*%
X104140000Y-22479000D03*
D12*
X104140000Y-17479000D03*
%TD*%
D16*
%TO.C,D3*%
X67470000Y-55880000D03*
D17*
X87470000Y-55880000D03*
%TD*%
D18*
%TO.C,C7*%
X60000000Y-57562500D03*
X60000000Y-54437500D03*
%TD*%
D19*
%TO.C,C2*%
X36316500Y-41682000D03*
X33191500Y-41682000D03*
%TD*%
%TO.C,C5*%
X37672500Y-62952000D03*
X34547500Y-62952000D03*
%TD*%
D20*
%TO.C,U1*%
X47150000Y-43700000D03*
X47150000Y-46000000D03*
D21*
X40850000Y-46000000D03*
D20*
X47150000Y-48300000D03*
%TD*%
D18*
%TO.C,C8*%
X52380000Y-57562500D03*
X52380000Y-54437500D03*
%TD*%
%TO.C,C4*%
X55160000Y-68022500D03*
X55160000Y-64897500D03*
%TD*%
D20*
%TO.C,U2*%
X48150000Y-63700000D03*
X48150000Y-66000000D03*
D21*
X41850000Y-66000000D03*
D20*
X48150000Y-68300000D03*
%TD*%
D19*
%TO.C,C6*%
X37672500Y-69810000D03*
X34547500Y-69810000D03*
%TD*%
%TO.C,C3*%
X36380000Y-48794000D03*
X33255000Y-48794000D03*
%TD*%
%TO.C,C10*%
X82550000Y-91948000D03*
X79425000Y-91948000D03*
%TD*%
D18*
%TO.C,C1*%
X54160000Y-47562500D03*
X54160000Y-44437500D03*
%TD*%
D19*
%TO.C,C9*%
X82550000Y-85550000D03*
X79425000Y-85550000D03*
%TD*%
M02*
