M48
; DRILL file {KiCad 8.0.3} date 2024-11-03T20:36:33+0100
; FORMAT={-:-/ absolute / inch / decimal}
; #@! TF.CreationDate,2024-11-03T20:36:33+01:00
; #@! TF.GenerationSoftware,Kicad,Pcbnew,8.0.3
; #@! TF.FileFunction,Plated,1,2,PTH
FMAT,2
INCH
; #@! TA.AperFunction,Plated,PTH,ComponentDrill
T1C0.0374
; #@! TA.AperFunction,Plated,PTH,ViaDrill
T2C0.0394
; #@! TA.AperFunction,Plated,PTH,ComponentDrill
T3C0.0512
; #@! TA.AperFunction,Plated,PTH,ViaDrill
T4C0.0591
; #@! TA.AperFunction,Plated,PTH,ComponentDrill
T5C0.0630
; #@! TA.AperFunction,Plated,PTH,ViaDrill
T6C0.0787
; #@! TA.AperFunction,Plated,PTH,ComponentDrill
T7C0.1693
%
G90
G05
T1
X0.7087Y-1.3091
X0.7087Y-1.4075
X0.7087Y-1.5059
X0.7087Y-1.6043
X0.7087Y-2.4409
X0.7087Y-2.5394
X0.7087Y-2.6378
X0.7087Y-2.7362
T2
X0.5552Y-2.13
X0.752Y-2.13
X1.03Y-2.13
T3
X1.3505Y-3.954
X1.5474Y-3.954
X1.7655Y-3.954
X1.9624Y-3.954
X2.1824Y-3.954
X2.3792Y-3.954
X4.1Y-0.6881
X4.1Y-0.885
X4.1Y-1.1031
X4.1Y-1.3
X4.1Y-1.5181
X4.1Y-1.715
X4.1Y-1.9331
X4.1Y-2.13
X4.1Y-2.3481
X4.1Y-2.545
X4.1Y-2.7631
X4.1Y-2.96
X4.1Y-3.1789
X4.1Y-3.3758
T4
X1.1024Y-1.2598
X1.1024Y-1.5748
T5
X2.6563Y-0.9
X2.6563Y-2.2
X2.6626Y-1.5
X2.6626Y-2.8
X3.4437Y-0.9
X3.4437Y-2.2
X3.45Y-1.5
X3.45Y-2.8
T6
X1.6065Y-2.0616
T7
X0.7874Y-0.7874
X0.7874Y-3.937
X1.9685Y-0.7874
X3.937Y-3.937
M30
