%TF.GenerationSoftware,KiCad,Pcbnew,8.0.3*%
%TF.CreationDate,2024-11-03T20:36:34+01:00*%
%TF.ProjectId,weerstation-power,77656572-7374-4617-9469-6f6e2d706f77,rev?*%
%TF.SameCoordinates,Original*%
%TF.FileFunction,Drillmap*%
%TF.FilePolarity,Positive*%
%FSLAX45Y45*%
G04 Gerber Fmt 4.5, Leading zero omitted, Abs format (unit mm)*
G04 Created by KiCad (PCBNEW 8.0.3) date 2024-11-03 20:36:34*
%MOMM*%
%LPD*%
G01*
G04 APERTURE LIST*
%ADD10C,0.050000*%
%ADD11C,0.200000*%
%ADD12C,0.100000*%
%ADD13C,0.130000*%
%ADD14C,0.150000*%
%ADD15C,0.160000*%
%ADD16C,0.430000*%
G04 APERTURE END LIST*
D10*
X1200000Y-1200000D02*
X11200000Y-1200000D01*
X11200000Y-11200000D01*
X1200000Y-11200000D01*
X1200000Y-1200000D01*
D11*
D12*
X1752500Y-3277500D02*
X1847500Y-3372500D01*
X1847500Y-3277500D02*
X1752500Y-3372500D01*
X1752500Y-3527500D02*
X1847500Y-3622500D01*
X1847500Y-3527500D02*
X1752500Y-3622500D01*
X1752500Y-3777500D02*
X1847500Y-3872500D01*
X1847500Y-3777500D02*
X1752500Y-3872500D01*
X1752500Y-4027500D02*
X1847500Y-4122500D01*
X1847500Y-4027500D02*
X1752500Y-4122500D01*
X1752500Y-6152500D02*
X1847500Y-6247500D01*
X1847500Y-6152500D02*
X1752500Y-6247500D01*
X1752500Y-6402500D02*
X1847500Y-6497500D01*
X1847500Y-6402500D02*
X1752500Y-6497500D01*
X1752500Y-6652500D02*
X1847500Y-6747500D01*
X1847500Y-6652500D02*
X1752500Y-6747500D01*
X1752500Y-6902500D02*
X1847500Y-6997500D01*
X1847500Y-6902500D02*
X1752500Y-6997500D01*
X1460200Y-5410200D02*
G75*
G02*
X1360200Y-5410200I-50000J0D01*
G01*
X1360200Y-5410200D02*
G75*
G02*
X1460200Y-5410200I50000J0D01*
G01*
X1960200Y-5410200D02*
G75*
G02*
X1860200Y-5410200I-50000J0D01*
G01*
X1860200Y-5410200D02*
G75*
G02*
X1960200Y-5410200I50000J0D01*
G01*
X2666200Y-5410200D02*
G75*
G02*
X2566200Y-5410200I-50000J0D01*
G01*
X2566200Y-5410200D02*
G75*
G02*
X2666200Y-5410200I50000J0D01*
G01*
D13*
X3430350Y-9978250D02*
X3430350Y-10108250D01*
X3365350Y-10043250D02*
X3495350Y-10043250D01*
X3930350Y-9978250D02*
X3930350Y-10108250D01*
X3865350Y-10043250D02*
X3995350Y-10043250D01*
X4484450Y-9978250D02*
X4484450Y-10108250D01*
X4419450Y-10043250D02*
X4549450Y-10043250D01*
X4984450Y-9978250D02*
X4984450Y-10108250D01*
X4919450Y-10043250D02*
X5049450Y-10043250D01*
X5543250Y-9978250D02*
X5543250Y-10108250D01*
X5478250Y-10043250D02*
X5608250Y-10043250D01*
X6043250Y-9978250D02*
X6043250Y-10108250D01*
X5978250Y-10043250D02*
X6108250Y-10043250D01*
X10414000Y-1682900D02*
X10414000Y-1812900D01*
X10349000Y-1747900D02*
X10479000Y-1747900D01*
X10414000Y-2182900D02*
X10414000Y-2312900D01*
X10349000Y-2247900D02*
X10479000Y-2247900D01*
X10414000Y-2737000D02*
X10414000Y-2867000D01*
X10349000Y-2802000D02*
X10479000Y-2802000D01*
X10414000Y-3237000D02*
X10414000Y-3367000D01*
X10349000Y-3302000D02*
X10479000Y-3302000D01*
X10414000Y-3791100D02*
X10414000Y-3921100D01*
X10349000Y-3856100D02*
X10479000Y-3856100D01*
X10414000Y-4291100D02*
X10414000Y-4421100D01*
X10349000Y-4356100D02*
X10479000Y-4356100D01*
X10414000Y-4845200D02*
X10414000Y-4975200D01*
X10349000Y-4910200D02*
X10479000Y-4910200D01*
X10414000Y-5345200D02*
X10414000Y-5475200D01*
X10349000Y-5410200D02*
X10479000Y-5410200D01*
X10414000Y-5899300D02*
X10414000Y-6029300D01*
X10349000Y-5964300D02*
X10479000Y-5964300D01*
X10414000Y-6399300D02*
X10414000Y-6529300D01*
X10349000Y-6464300D02*
X10479000Y-6464300D01*
X10414000Y-6953400D02*
X10414000Y-7083400D01*
X10349000Y-7018400D02*
X10479000Y-7018400D01*
X10414000Y-7453400D02*
X10414000Y-7583400D01*
X10349000Y-7518400D02*
X10479000Y-7518400D01*
X10414000Y-8009450D02*
X10414000Y-8139450D01*
X10349000Y-8074450D02*
X10479000Y-8074450D01*
X10414000Y-8509450D02*
X10414000Y-8639450D01*
X10349000Y-8574450D02*
X10479000Y-8574450D01*
D14*
X2853033Y-3253033D02*
X2853033Y-3146966D01*
X2746967Y-3146966D01*
X2746967Y-3253033D01*
X2853033Y-3253033D01*
X2853033Y-4053033D02*
X2853033Y-3946966D01*
X2746967Y-3946966D01*
X2746967Y-4053033D01*
X2853033Y-4053033D01*
D15*
X6747000Y-2366000D02*
X6827000Y-2286000D01*
X6747000Y-2206000D01*
X6667000Y-2286000D01*
X6747000Y-2366000D01*
X6747000Y-5668000D02*
X6827000Y-5588000D01*
X6747000Y-5508000D01*
X6667000Y-5588000D01*
X6747000Y-5668000D01*
X6763000Y-3890000D02*
X6843000Y-3810000D01*
X6763000Y-3730000D01*
X6683000Y-3810000D01*
X6763000Y-3890000D01*
X6763000Y-7192000D02*
X6843000Y-7112000D01*
X6763000Y-7032000D01*
X6683000Y-7112000D01*
X6763000Y-7192000D01*
X8747000Y-2366000D02*
X8827000Y-2286000D01*
X8747000Y-2206000D01*
X8667000Y-2286000D01*
X8747000Y-2366000D01*
X8747000Y-5668000D02*
X8827000Y-5588000D01*
X8747000Y-5508000D01*
X8667000Y-5588000D01*
X8747000Y-5668000D01*
X8763000Y-3890000D02*
X8843000Y-3810000D01*
X8763000Y-3730000D01*
X8683000Y-3810000D01*
X8763000Y-3890000D01*
X8763000Y-7192000D02*
X8843000Y-7112000D01*
X8763000Y-7032000D01*
X8683000Y-7112000D01*
X8763000Y-7192000D01*
D11*
X3980430Y-5136450D02*
X4180430Y-5336450D01*
X4180430Y-5136450D02*
X3980430Y-5336450D01*
X4180430Y-5236450D02*
G75*
G02*
X3980430Y-5236450I-100000J0D01*
G01*
X3980430Y-5236450D02*
G75*
G02*
X4180430Y-5236450I100000J0D01*
G01*
D16*
X1785000Y-1785000D02*
X2215000Y-2215000D01*
X2215000Y-1785000D02*
X1785000Y-2215000D01*
X2000000Y-1785000D02*
X2000000Y-2215000D01*
X1785000Y-2000000D02*
X2215000Y-2000000D01*
X1785000Y-9785000D02*
X2215000Y-10215000D01*
X2215000Y-9785000D02*
X1785000Y-10215000D01*
X2000000Y-9785000D02*
X2000000Y-10215000D01*
X1785000Y-10000000D02*
X2215000Y-10000000D01*
X4785000Y-1785000D02*
X5215000Y-2215000D01*
X5215000Y-1785000D02*
X4785000Y-2215000D01*
X5000000Y-1785000D02*
X5000000Y-2215000D01*
X4785000Y-2000000D02*
X5215000Y-2000000D01*
X9785000Y-9785000D02*
X10215000Y-10215000D01*
X10215000Y-9785000D02*
X9785000Y-10215000D01*
X10000000Y-9785000D02*
X10000000Y-10215000D01*
X9785000Y-10000000D02*
X10215000Y-10000000D01*
D11*
X1458277Y-11513984D02*
X1458277Y-11313984D01*
X1458277Y-11313984D02*
X1505896Y-11313984D01*
X1505896Y-11313984D02*
X1534467Y-11323508D01*
X1534467Y-11323508D02*
X1553515Y-11342555D01*
X1553515Y-11342555D02*
X1563039Y-11361603D01*
X1563039Y-11361603D02*
X1572562Y-11399698D01*
X1572562Y-11399698D02*
X1572562Y-11428269D01*
X1572562Y-11428269D02*
X1563039Y-11466365D01*
X1563039Y-11466365D02*
X1553515Y-11485412D01*
X1553515Y-11485412D02*
X1534467Y-11504460D01*
X1534467Y-11504460D02*
X1505896Y-11513984D01*
X1505896Y-11513984D02*
X1458277Y-11513984D01*
X1658277Y-11513984D02*
X1658277Y-11380650D01*
X1658277Y-11418746D02*
X1667801Y-11399698D01*
X1667801Y-11399698D02*
X1677324Y-11390174D01*
X1677324Y-11390174D02*
X1696372Y-11380650D01*
X1696372Y-11380650D02*
X1715420Y-11380650D01*
X1782086Y-11513984D02*
X1782086Y-11380650D01*
X1782086Y-11313984D02*
X1772562Y-11323508D01*
X1772562Y-11323508D02*
X1782086Y-11333031D01*
X1782086Y-11333031D02*
X1791610Y-11323508D01*
X1791610Y-11323508D02*
X1782086Y-11313984D01*
X1782086Y-11313984D02*
X1782086Y-11333031D01*
X1905896Y-11513984D02*
X1886848Y-11504460D01*
X1886848Y-11504460D02*
X1877324Y-11485412D01*
X1877324Y-11485412D02*
X1877324Y-11313984D01*
X2010658Y-11513984D02*
X1991610Y-11504460D01*
X1991610Y-11504460D02*
X1982086Y-11485412D01*
X1982086Y-11485412D02*
X1982086Y-11313984D01*
X2239229Y-11513984D02*
X2239229Y-11313984D01*
X2239229Y-11313984D02*
X2305896Y-11456841D01*
X2305896Y-11456841D02*
X2372563Y-11313984D01*
X2372563Y-11313984D02*
X2372563Y-11513984D01*
X2553515Y-11513984D02*
X2553515Y-11409222D01*
X2553515Y-11409222D02*
X2543991Y-11390174D01*
X2543991Y-11390174D02*
X2524944Y-11380650D01*
X2524944Y-11380650D02*
X2486848Y-11380650D01*
X2486848Y-11380650D02*
X2467801Y-11390174D01*
X2553515Y-11504460D02*
X2534467Y-11513984D01*
X2534467Y-11513984D02*
X2486848Y-11513984D01*
X2486848Y-11513984D02*
X2467801Y-11504460D01*
X2467801Y-11504460D02*
X2458277Y-11485412D01*
X2458277Y-11485412D02*
X2458277Y-11466365D01*
X2458277Y-11466365D02*
X2467801Y-11447317D01*
X2467801Y-11447317D02*
X2486848Y-11437793D01*
X2486848Y-11437793D02*
X2534467Y-11437793D01*
X2534467Y-11437793D02*
X2553515Y-11428269D01*
X2648753Y-11380650D02*
X2648753Y-11580650D01*
X2648753Y-11390174D02*
X2667801Y-11380650D01*
X2667801Y-11380650D02*
X2705896Y-11380650D01*
X2705896Y-11380650D02*
X2724944Y-11390174D01*
X2724944Y-11390174D02*
X2734467Y-11399698D01*
X2734467Y-11399698D02*
X2743991Y-11418746D01*
X2743991Y-11418746D02*
X2743991Y-11475888D01*
X2743991Y-11475888D02*
X2734467Y-11494936D01*
X2734467Y-11494936D02*
X2724944Y-11504460D01*
X2724944Y-11504460D02*
X2705896Y-11513984D01*
X2705896Y-11513984D02*
X2667801Y-11513984D01*
X2667801Y-11513984D02*
X2648753Y-11504460D01*
X2829705Y-11494936D02*
X2839229Y-11504460D01*
X2839229Y-11504460D02*
X2829705Y-11513984D01*
X2829705Y-11513984D02*
X2820182Y-11504460D01*
X2820182Y-11504460D02*
X2829705Y-11494936D01*
X2829705Y-11494936D02*
X2829705Y-11513984D01*
X2829705Y-11390174D02*
X2839229Y-11399698D01*
X2839229Y-11399698D02*
X2829705Y-11409222D01*
X2829705Y-11409222D02*
X2820182Y-11399698D01*
X2820182Y-11399698D02*
X2829705Y-11390174D01*
X2829705Y-11390174D02*
X2829705Y-11409222D01*
D12*
X1102500Y-11795000D02*
X1197500Y-11890000D01*
X1197500Y-11795000D02*
X1102500Y-11890000D01*
D11*
X1496372Y-11733984D02*
X1515420Y-11733984D01*
X1515420Y-11733984D02*
X1534467Y-11743508D01*
X1534467Y-11743508D02*
X1543991Y-11753031D01*
X1543991Y-11753031D02*
X1553515Y-11772079D01*
X1553515Y-11772079D02*
X1563039Y-11810174D01*
X1563039Y-11810174D02*
X1563039Y-11857793D01*
X1563039Y-11857793D02*
X1553515Y-11895888D01*
X1553515Y-11895888D02*
X1543991Y-11914936D01*
X1543991Y-11914936D02*
X1534467Y-11924460D01*
X1534467Y-11924460D02*
X1515420Y-11933984D01*
X1515420Y-11933984D02*
X1496372Y-11933984D01*
X1496372Y-11933984D02*
X1477324Y-11924460D01*
X1477324Y-11924460D02*
X1467801Y-11914936D01*
X1467801Y-11914936D02*
X1458277Y-11895888D01*
X1458277Y-11895888D02*
X1448753Y-11857793D01*
X1448753Y-11857793D02*
X1448753Y-11810174D01*
X1448753Y-11810174D02*
X1458277Y-11772079D01*
X1458277Y-11772079D02*
X1467801Y-11753031D01*
X1467801Y-11753031D02*
X1477324Y-11743508D01*
X1477324Y-11743508D02*
X1496372Y-11733984D01*
X1648753Y-11914936D02*
X1658277Y-11924460D01*
X1658277Y-11924460D02*
X1648753Y-11933984D01*
X1648753Y-11933984D02*
X1639229Y-11924460D01*
X1639229Y-11924460D02*
X1648753Y-11914936D01*
X1648753Y-11914936D02*
X1648753Y-11933984D01*
X1753515Y-11933984D02*
X1791610Y-11933984D01*
X1791610Y-11933984D02*
X1810658Y-11924460D01*
X1810658Y-11924460D02*
X1820182Y-11914936D01*
X1820182Y-11914936D02*
X1839229Y-11886365D01*
X1839229Y-11886365D02*
X1848753Y-11848269D01*
X1848753Y-11848269D02*
X1848753Y-11772079D01*
X1848753Y-11772079D02*
X1839229Y-11753031D01*
X1839229Y-11753031D02*
X1829705Y-11743508D01*
X1829705Y-11743508D02*
X1810658Y-11733984D01*
X1810658Y-11733984D02*
X1772562Y-11733984D01*
X1772562Y-11733984D02*
X1753515Y-11743508D01*
X1753515Y-11743508D02*
X1743991Y-11753031D01*
X1743991Y-11753031D02*
X1734467Y-11772079D01*
X1734467Y-11772079D02*
X1734467Y-11819698D01*
X1734467Y-11819698D02*
X1743991Y-11838746D01*
X1743991Y-11838746D02*
X1753515Y-11848269D01*
X1753515Y-11848269D02*
X1772562Y-11857793D01*
X1772562Y-11857793D02*
X1810658Y-11857793D01*
X1810658Y-11857793D02*
X1829705Y-11848269D01*
X1829705Y-11848269D02*
X1839229Y-11838746D01*
X1839229Y-11838746D02*
X1848753Y-11819698D01*
X2029705Y-11733984D02*
X1934467Y-11733984D01*
X1934467Y-11733984D02*
X1924943Y-11829222D01*
X1924943Y-11829222D02*
X1934467Y-11819698D01*
X1934467Y-11819698D02*
X1953515Y-11810174D01*
X1953515Y-11810174D02*
X2001134Y-11810174D01*
X2001134Y-11810174D02*
X2020182Y-11819698D01*
X2020182Y-11819698D02*
X2029705Y-11829222D01*
X2029705Y-11829222D02*
X2039229Y-11848269D01*
X2039229Y-11848269D02*
X2039229Y-11895888D01*
X2039229Y-11895888D02*
X2029705Y-11914936D01*
X2029705Y-11914936D02*
X2020182Y-11924460D01*
X2020182Y-11924460D02*
X2001134Y-11933984D01*
X2001134Y-11933984D02*
X1953515Y-11933984D01*
X1953515Y-11933984D02*
X1934467Y-11924460D01*
X1934467Y-11924460D02*
X1924943Y-11914936D01*
X2163039Y-11733984D02*
X2182086Y-11733984D01*
X2182086Y-11733984D02*
X2201134Y-11743508D01*
X2201134Y-11743508D02*
X2210658Y-11753031D01*
X2210658Y-11753031D02*
X2220182Y-11772079D01*
X2220182Y-11772079D02*
X2229705Y-11810174D01*
X2229705Y-11810174D02*
X2229705Y-11857793D01*
X2229705Y-11857793D02*
X2220182Y-11895888D01*
X2220182Y-11895888D02*
X2210658Y-11914936D01*
X2210658Y-11914936D02*
X2201134Y-11924460D01*
X2201134Y-11924460D02*
X2182086Y-11933984D01*
X2182086Y-11933984D02*
X2163039Y-11933984D01*
X2163039Y-11933984D02*
X2143991Y-11924460D01*
X2143991Y-11924460D02*
X2134467Y-11914936D01*
X2134467Y-11914936D02*
X2124944Y-11895888D01*
X2124944Y-11895888D02*
X2115420Y-11857793D01*
X2115420Y-11857793D02*
X2115420Y-11810174D01*
X2115420Y-11810174D02*
X2124944Y-11772079D01*
X2124944Y-11772079D02*
X2134467Y-11753031D01*
X2134467Y-11753031D02*
X2143991Y-11743508D01*
X2143991Y-11743508D02*
X2163039Y-11733984D01*
X2315420Y-11933984D02*
X2315420Y-11800650D01*
X2315420Y-11819698D02*
X2324944Y-11810174D01*
X2324944Y-11810174D02*
X2343991Y-11800650D01*
X2343991Y-11800650D02*
X2372563Y-11800650D01*
X2372563Y-11800650D02*
X2391610Y-11810174D01*
X2391610Y-11810174D02*
X2401134Y-11829222D01*
X2401134Y-11829222D02*
X2401134Y-11933984D01*
X2401134Y-11829222D02*
X2410658Y-11810174D01*
X2410658Y-11810174D02*
X2429705Y-11800650D01*
X2429705Y-11800650D02*
X2458277Y-11800650D01*
X2458277Y-11800650D02*
X2477325Y-11810174D01*
X2477325Y-11810174D02*
X2486848Y-11829222D01*
X2486848Y-11829222D02*
X2486848Y-11933984D01*
X2582086Y-11933984D02*
X2582086Y-11800650D01*
X2582086Y-11819698D02*
X2591610Y-11810174D01*
X2591610Y-11810174D02*
X2610658Y-11800650D01*
X2610658Y-11800650D02*
X2639229Y-11800650D01*
X2639229Y-11800650D02*
X2658277Y-11810174D01*
X2658277Y-11810174D02*
X2667801Y-11829222D01*
X2667801Y-11829222D02*
X2667801Y-11933984D01*
X2667801Y-11829222D02*
X2677325Y-11810174D01*
X2677325Y-11810174D02*
X2696372Y-11800650D01*
X2696372Y-11800650D02*
X2724944Y-11800650D01*
X2724944Y-11800650D02*
X2743991Y-11810174D01*
X2743991Y-11810174D02*
X2753515Y-11829222D01*
X2753515Y-11829222D02*
X2753515Y-11933984D01*
X3143991Y-11724460D02*
X2972563Y-11981603D01*
X3401134Y-11733984D02*
X3420182Y-11733984D01*
X3420182Y-11733984D02*
X3439229Y-11743508D01*
X3439229Y-11743508D02*
X3448753Y-11753031D01*
X3448753Y-11753031D02*
X3458277Y-11772079D01*
X3458277Y-11772079D02*
X3467801Y-11810174D01*
X3467801Y-11810174D02*
X3467801Y-11857793D01*
X3467801Y-11857793D02*
X3458277Y-11895888D01*
X3458277Y-11895888D02*
X3448753Y-11914936D01*
X3448753Y-11914936D02*
X3439229Y-11924460D01*
X3439229Y-11924460D02*
X3420182Y-11933984D01*
X3420182Y-11933984D02*
X3401134Y-11933984D01*
X3401134Y-11933984D02*
X3382086Y-11924460D01*
X3382086Y-11924460D02*
X3372563Y-11914936D01*
X3372563Y-11914936D02*
X3363039Y-11895888D01*
X3363039Y-11895888D02*
X3353515Y-11857793D01*
X3353515Y-11857793D02*
X3353515Y-11810174D01*
X3353515Y-11810174D02*
X3363039Y-11772079D01*
X3363039Y-11772079D02*
X3372563Y-11753031D01*
X3372563Y-11753031D02*
X3382086Y-11743508D01*
X3382086Y-11743508D02*
X3401134Y-11733984D01*
X3553515Y-11914936D02*
X3563039Y-11924460D01*
X3563039Y-11924460D02*
X3553515Y-11933984D01*
X3553515Y-11933984D02*
X3543991Y-11924460D01*
X3543991Y-11924460D02*
X3553515Y-11914936D01*
X3553515Y-11914936D02*
X3553515Y-11933984D01*
X3686848Y-11733984D02*
X3705896Y-11733984D01*
X3705896Y-11733984D02*
X3724944Y-11743508D01*
X3724944Y-11743508D02*
X3734467Y-11753031D01*
X3734467Y-11753031D02*
X3743991Y-11772079D01*
X3743991Y-11772079D02*
X3753515Y-11810174D01*
X3753515Y-11810174D02*
X3753515Y-11857793D01*
X3753515Y-11857793D02*
X3743991Y-11895888D01*
X3743991Y-11895888D02*
X3734467Y-11914936D01*
X3734467Y-11914936D02*
X3724944Y-11924460D01*
X3724944Y-11924460D02*
X3705896Y-11933984D01*
X3705896Y-11933984D02*
X3686848Y-11933984D01*
X3686848Y-11933984D02*
X3667801Y-11924460D01*
X3667801Y-11924460D02*
X3658277Y-11914936D01*
X3658277Y-11914936D02*
X3648753Y-11895888D01*
X3648753Y-11895888D02*
X3639229Y-11857793D01*
X3639229Y-11857793D02*
X3639229Y-11810174D01*
X3639229Y-11810174D02*
X3648753Y-11772079D01*
X3648753Y-11772079D02*
X3658277Y-11753031D01*
X3658277Y-11753031D02*
X3667801Y-11743508D01*
X3667801Y-11743508D02*
X3686848Y-11733984D01*
X3820182Y-11733984D02*
X3943991Y-11733984D01*
X3943991Y-11733984D02*
X3877325Y-11810174D01*
X3877325Y-11810174D02*
X3905896Y-11810174D01*
X3905896Y-11810174D02*
X3924944Y-11819698D01*
X3924944Y-11819698D02*
X3934467Y-11829222D01*
X3934467Y-11829222D02*
X3943991Y-11848269D01*
X3943991Y-11848269D02*
X3943991Y-11895888D01*
X3943991Y-11895888D02*
X3934467Y-11914936D01*
X3934467Y-11914936D02*
X3924944Y-11924460D01*
X3924944Y-11924460D02*
X3905896Y-11933984D01*
X3905896Y-11933984D02*
X3848753Y-11933984D01*
X3848753Y-11933984D02*
X3829706Y-11924460D01*
X3829706Y-11924460D02*
X3820182Y-11914936D01*
X4010658Y-11733984D02*
X4143991Y-11733984D01*
X4143991Y-11733984D02*
X4058277Y-11933984D01*
X4305896Y-11800650D02*
X4305896Y-11933984D01*
X4258277Y-11724460D02*
X4210658Y-11867317D01*
X4210658Y-11867317D02*
X4334468Y-11867317D01*
X4401134Y-11733984D02*
X4401134Y-11772079D01*
X4477325Y-11733984D02*
X4477325Y-11772079D01*
X4772563Y-12010174D02*
X4763039Y-12000650D01*
X4763039Y-12000650D02*
X4743991Y-11972079D01*
X4743991Y-11972079D02*
X4734468Y-11953031D01*
X4734468Y-11953031D02*
X4724944Y-11924460D01*
X4724944Y-11924460D02*
X4715420Y-11876841D01*
X4715420Y-11876841D02*
X4715420Y-11838746D01*
X4715420Y-11838746D02*
X4724944Y-11791127D01*
X4724944Y-11791127D02*
X4734468Y-11762555D01*
X4734468Y-11762555D02*
X4743991Y-11743508D01*
X4743991Y-11743508D02*
X4763039Y-11714936D01*
X4763039Y-11714936D02*
X4772563Y-11705412D01*
X4877325Y-11819698D02*
X4858277Y-11810174D01*
X4858277Y-11810174D02*
X4848753Y-11800650D01*
X4848753Y-11800650D02*
X4839230Y-11781603D01*
X4839230Y-11781603D02*
X4839230Y-11772079D01*
X4839230Y-11772079D02*
X4848753Y-11753031D01*
X4848753Y-11753031D02*
X4858277Y-11743508D01*
X4858277Y-11743508D02*
X4877325Y-11733984D01*
X4877325Y-11733984D02*
X4915420Y-11733984D01*
X4915420Y-11733984D02*
X4934468Y-11743508D01*
X4934468Y-11743508D02*
X4943991Y-11753031D01*
X4943991Y-11753031D02*
X4953515Y-11772079D01*
X4953515Y-11772079D02*
X4953515Y-11781603D01*
X4953515Y-11781603D02*
X4943991Y-11800650D01*
X4943991Y-11800650D02*
X4934468Y-11810174D01*
X4934468Y-11810174D02*
X4915420Y-11819698D01*
X4915420Y-11819698D02*
X4877325Y-11819698D01*
X4877325Y-11819698D02*
X4858277Y-11829222D01*
X4858277Y-11829222D02*
X4848753Y-11838746D01*
X4848753Y-11838746D02*
X4839230Y-11857793D01*
X4839230Y-11857793D02*
X4839230Y-11895888D01*
X4839230Y-11895888D02*
X4848753Y-11914936D01*
X4848753Y-11914936D02*
X4858277Y-11924460D01*
X4858277Y-11924460D02*
X4877325Y-11933984D01*
X4877325Y-11933984D02*
X4915420Y-11933984D01*
X4915420Y-11933984D02*
X4934468Y-11924460D01*
X4934468Y-11924460D02*
X4943991Y-11914936D01*
X4943991Y-11914936D02*
X4953515Y-11895888D01*
X4953515Y-11895888D02*
X4953515Y-11857793D01*
X4953515Y-11857793D02*
X4943991Y-11838746D01*
X4943991Y-11838746D02*
X4934468Y-11829222D01*
X4934468Y-11829222D02*
X4915420Y-11819698D01*
X5191611Y-11933984D02*
X5191611Y-11733984D01*
X5277325Y-11933984D02*
X5277325Y-11829222D01*
X5277325Y-11829222D02*
X5267801Y-11810174D01*
X5267801Y-11810174D02*
X5248753Y-11800650D01*
X5248753Y-11800650D02*
X5220182Y-11800650D01*
X5220182Y-11800650D02*
X5201134Y-11810174D01*
X5201134Y-11810174D02*
X5191611Y-11819698D01*
X5401134Y-11933984D02*
X5382087Y-11924460D01*
X5382087Y-11924460D02*
X5372563Y-11914936D01*
X5372563Y-11914936D02*
X5363039Y-11895888D01*
X5363039Y-11895888D02*
X5363039Y-11838746D01*
X5363039Y-11838746D02*
X5372563Y-11819698D01*
X5372563Y-11819698D02*
X5382087Y-11810174D01*
X5382087Y-11810174D02*
X5401134Y-11800650D01*
X5401134Y-11800650D02*
X5429706Y-11800650D01*
X5429706Y-11800650D02*
X5448753Y-11810174D01*
X5448753Y-11810174D02*
X5458277Y-11819698D01*
X5458277Y-11819698D02*
X5467801Y-11838746D01*
X5467801Y-11838746D02*
X5467801Y-11895888D01*
X5467801Y-11895888D02*
X5458277Y-11914936D01*
X5458277Y-11914936D02*
X5448753Y-11924460D01*
X5448753Y-11924460D02*
X5429706Y-11933984D01*
X5429706Y-11933984D02*
X5401134Y-11933984D01*
X5582087Y-11933984D02*
X5563039Y-11924460D01*
X5563039Y-11924460D02*
X5553515Y-11905412D01*
X5553515Y-11905412D02*
X5553515Y-11733984D01*
X5734468Y-11924460D02*
X5715420Y-11933984D01*
X5715420Y-11933984D02*
X5677325Y-11933984D01*
X5677325Y-11933984D02*
X5658277Y-11924460D01*
X5658277Y-11924460D02*
X5648753Y-11905412D01*
X5648753Y-11905412D02*
X5648753Y-11829222D01*
X5648753Y-11829222D02*
X5658277Y-11810174D01*
X5658277Y-11810174D02*
X5677325Y-11800650D01*
X5677325Y-11800650D02*
X5715420Y-11800650D01*
X5715420Y-11800650D02*
X5734468Y-11810174D01*
X5734468Y-11810174D02*
X5743991Y-11829222D01*
X5743991Y-11829222D02*
X5743991Y-11848269D01*
X5743991Y-11848269D02*
X5648753Y-11867317D01*
X5820182Y-11924460D02*
X5839230Y-11933984D01*
X5839230Y-11933984D02*
X5877325Y-11933984D01*
X5877325Y-11933984D02*
X5896372Y-11924460D01*
X5896372Y-11924460D02*
X5905896Y-11905412D01*
X5905896Y-11905412D02*
X5905896Y-11895888D01*
X5905896Y-11895888D02*
X5896372Y-11876841D01*
X5896372Y-11876841D02*
X5877325Y-11867317D01*
X5877325Y-11867317D02*
X5848753Y-11867317D01*
X5848753Y-11867317D02*
X5829706Y-11857793D01*
X5829706Y-11857793D02*
X5820182Y-11838746D01*
X5820182Y-11838746D02*
X5820182Y-11829222D01*
X5820182Y-11829222D02*
X5829706Y-11810174D01*
X5829706Y-11810174D02*
X5848753Y-11800650D01*
X5848753Y-11800650D02*
X5877325Y-11800650D01*
X5877325Y-11800650D02*
X5896372Y-11810174D01*
X5972563Y-12010174D02*
X5982087Y-12000650D01*
X5982087Y-12000650D02*
X6001134Y-11972079D01*
X6001134Y-11972079D02*
X6010658Y-11953031D01*
X6010658Y-11953031D02*
X6020182Y-11924460D01*
X6020182Y-11924460D02*
X6029706Y-11876841D01*
X6029706Y-11876841D02*
X6029706Y-11838746D01*
X6029706Y-11838746D02*
X6020182Y-11791127D01*
X6020182Y-11791127D02*
X6010658Y-11762555D01*
X6010658Y-11762555D02*
X6001134Y-11743508D01*
X6001134Y-11743508D02*
X5982087Y-11714936D01*
X5982087Y-11714936D02*
X5972563Y-11705412D01*
D12*
X1197500Y-12106500D02*
G75*
G02*
X1097500Y-12106500I-50000J0D01*
G01*
X1097500Y-12106500D02*
G75*
G02*
X1197500Y-12106500I50000J0D01*
G01*
D11*
X1563039Y-12197984D02*
X1448753Y-12197984D01*
X1505896Y-12197984D02*
X1505896Y-11997984D01*
X1505896Y-11997984D02*
X1486848Y-12026555D01*
X1486848Y-12026555D02*
X1467801Y-12045603D01*
X1467801Y-12045603D02*
X1448753Y-12055127D01*
X1648753Y-12178936D02*
X1658277Y-12188460D01*
X1658277Y-12188460D02*
X1648753Y-12197984D01*
X1648753Y-12197984D02*
X1639229Y-12188460D01*
X1639229Y-12188460D02*
X1648753Y-12178936D01*
X1648753Y-12178936D02*
X1648753Y-12197984D01*
X1782086Y-11997984D02*
X1801134Y-11997984D01*
X1801134Y-11997984D02*
X1820182Y-12007508D01*
X1820182Y-12007508D02*
X1829705Y-12017031D01*
X1829705Y-12017031D02*
X1839229Y-12036079D01*
X1839229Y-12036079D02*
X1848753Y-12074174D01*
X1848753Y-12074174D02*
X1848753Y-12121793D01*
X1848753Y-12121793D02*
X1839229Y-12159888D01*
X1839229Y-12159888D02*
X1829705Y-12178936D01*
X1829705Y-12178936D02*
X1820182Y-12188460D01*
X1820182Y-12188460D02*
X1801134Y-12197984D01*
X1801134Y-12197984D02*
X1782086Y-12197984D01*
X1782086Y-12197984D02*
X1763039Y-12188460D01*
X1763039Y-12188460D02*
X1753515Y-12178936D01*
X1753515Y-12178936D02*
X1743991Y-12159888D01*
X1743991Y-12159888D02*
X1734467Y-12121793D01*
X1734467Y-12121793D02*
X1734467Y-12074174D01*
X1734467Y-12074174D02*
X1743991Y-12036079D01*
X1743991Y-12036079D02*
X1753515Y-12017031D01*
X1753515Y-12017031D02*
X1763039Y-12007508D01*
X1763039Y-12007508D02*
X1782086Y-11997984D01*
X1972562Y-11997984D02*
X1991610Y-11997984D01*
X1991610Y-11997984D02*
X2010658Y-12007508D01*
X2010658Y-12007508D02*
X2020182Y-12017031D01*
X2020182Y-12017031D02*
X2029705Y-12036079D01*
X2029705Y-12036079D02*
X2039229Y-12074174D01*
X2039229Y-12074174D02*
X2039229Y-12121793D01*
X2039229Y-12121793D02*
X2029705Y-12159888D01*
X2029705Y-12159888D02*
X2020182Y-12178936D01*
X2020182Y-12178936D02*
X2010658Y-12188460D01*
X2010658Y-12188460D02*
X1991610Y-12197984D01*
X1991610Y-12197984D02*
X1972562Y-12197984D01*
X1972562Y-12197984D02*
X1953515Y-12188460D01*
X1953515Y-12188460D02*
X1943991Y-12178936D01*
X1943991Y-12178936D02*
X1934467Y-12159888D01*
X1934467Y-12159888D02*
X1924943Y-12121793D01*
X1924943Y-12121793D02*
X1924943Y-12074174D01*
X1924943Y-12074174D02*
X1934467Y-12036079D01*
X1934467Y-12036079D02*
X1943991Y-12017031D01*
X1943991Y-12017031D02*
X1953515Y-12007508D01*
X1953515Y-12007508D02*
X1972562Y-11997984D01*
X2163039Y-11997984D02*
X2182086Y-11997984D01*
X2182086Y-11997984D02*
X2201134Y-12007508D01*
X2201134Y-12007508D02*
X2210658Y-12017031D01*
X2210658Y-12017031D02*
X2220182Y-12036079D01*
X2220182Y-12036079D02*
X2229705Y-12074174D01*
X2229705Y-12074174D02*
X2229705Y-12121793D01*
X2229705Y-12121793D02*
X2220182Y-12159888D01*
X2220182Y-12159888D02*
X2210658Y-12178936D01*
X2210658Y-12178936D02*
X2201134Y-12188460D01*
X2201134Y-12188460D02*
X2182086Y-12197984D01*
X2182086Y-12197984D02*
X2163039Y-12197984D01*
X2163039Y-12197984D02*
X2143991Y-12188460D01*
X2143991Y-12188460D02*
X2134467Y-12178936D01*
X2134467Y-12178936D02*
X2124944Y-12159888D01*
X2124944Y-12159888D02*
X2115420Y-12121793D01*
X2115420Y-12121793D02*
X2115420Y-12074174D01*
X2115420Y-12074174D02*
X2124944Y-12036079D01*
X2124944Y-12036079D02*
X2134467Y-12017031D01*
X2134467Y-12017031D02*
X2143991Y-12007508D01*
X2143991Y-12007508D02*
X2163039Y-11997984D01*
X2315420Y-12197984D02*
X2315420Y-12064650D01*
X2315420Y-12083698D02*
X2324944Y-12074174D01*
X2324944Y-12074174D02*
X2343991Y-12064650D01*
X2343991Y-12064650D02*
X2372563Y-12064650D01*
X2372563Y-12064650D02*
X2391610Y-12074174D01*
X2391610Y-12074174D02*
X2401134Y-12093222D01*
X2401134Y-12093222D02*
X2401134Y-12197984D01*
X2401134Y-12093222D02*
X2410658Y-12074174D01*
X2410658Y-12074174D02*
X2429705Y-12064650D01*
X2429705Y-12064650D02*
X2458277Y-12064650D01*
X2458277Y-12064650D02*
X2477325Y-12074174D01*
X2477325Y-12074174D02*
X2486848Y-12093222D01*
X2486848Y-12093222D02*
X2486848Y-12197984D01*
X2582086Y-12197984D02*
X2582086Y-12064650D01*
X2582086Y-12083698D02*
X2591610Y-12074174D01*
X2591610Y-12074174D02*
X2610658Y-12064650D01*
X2610658Y-12064650D02*
X2639229Y-12064650D01*
X2639229Y-12064650D02*
X2658277Y-12074174D01*
X2658277Y-12074174D02*
X2667801Y-12093222D01*
X2667801Y-12093222D02*
X2667801Y-12197984D01*
X2667801Y-12093222D02*
X2677325Y-12074174D01*
X2677325Y-12074174D02*
X2696372Y-12064650D01*
X2696372Y-12064650D02*
X2724944Y-12064650D01*
X2724944Y-12064650D02*
X2743991Y-12074174D01*
X2743991Y-12074174D02*
X2753515Y-12093222D01*
X2753515Y-12093222D02*
X2753515Y-12197984D01*
X3143991Y-11988460D02*
X2972563Y-12245603D01*
X3401134Y-11997984D02*
X3420182Y-11997984D01*
X3420182Y-11997984D02*
X3439229Y-12007508D01*
X3439229Y-12007508D02*
X3448753Y-12017031D01*
X3448753Y-12017031D02*
X3458277Y-12036079D01*
X3458277Y-12036079D02*
X3467801Y-12074174D01*
X3467801Y-12074174D02*
X3467801Y-12121793D01*
X3467801Y-12121793D02*
X3458277Y-12159888D01*
X3458277Y-12159888D02*
X3448753Y-12178936D01*
X3448753Y-12178936D02*
X3439229Y-12188460D01*
X3439229Y-12188460D02*
X3420182Y-12197984D01*
X3420182Y-12197984D02*
X3401134Y-12197984D01*
X3401134Y-12197984D02*
X3382086Y-12188460D01*
X3382086Y-12188460D02*
X3372563Y-12178936D01*
X3372563Y-12178936D02*
X3363039Y-12159888D01*
X3363039Y-12159888D02*
X3353515Y-12121793D01*
X3353515Y-12121793D02*
X3353515Y-12074174D01*
X3353515Y-12074174D02*
X3363039Y-12036079D01*
X3363039Y-12036079D02*
X3372563Y-12017031D01*
X3372563Y-12017031D02*
X3382086Y-12007508D01*
X3382086Y-12007508D02*
X3401134Y-11997984D01*
X3553515Y-12178936D02*
X3563039Y-12188460D01*
X3563039Y-12188460D02*
X3553515Y-12197984D01*
X3553515Y-12197984D02*
X3543991Y-12188460D01*
X3543991Y-12188460D02*
X3553515Y-12178936D01*
X3553515Y-12178936D02*
X3553515Y-12197984D01*
X3686848Y-11997984D02*
X3705896Y-11997984D01*
X3705896Y-11997984D02*
X3724944Y-12007508D01*
X3724944Y-12007508D02*
X3734467Y-12017031D01*
X3734467Y-12017031D02*
X3743991Y-12036079D01*
X3743991Y-12036079D02*
X3753515Y-12074174D01*
X3753515Y-12074174D02*
X3753515Y-12121793D01*
X3753515Y-12121793D02*
X3743991Y-12159888D01*
X3743991Y-12159888D02*
X3734467Y-12178936D01*
X3734467Y-12178936D02*
X3724944Y-12188460D01*
X3724944Y-12188460D02*
X3705896Y-12197984D01*
X3705896Y-12197984D02*
X3686848Y-12197984D01*
X3686848Y-12197984D02*
X3667801Y-12188460D01*
X3667801Y-12188460D02*
X3658277Y-12178936D01*
X3658277Y-12178936D02*
X3648753Y-12159888D01*
X3648753Y-12159888D02*
X3639229Y-12121793D01*
X3639229Y-12121793D02*
X3639229Y-12074174D01*
X3639229Y-12074174D02*
X3648753Y-12036079D01*
X3648753Y-12036079D02*
X3658277Y-12017031D01*
X3658277Y-12017031D02*
X3667801Y-12007508D01*
X3667801Y-12007508D02*
X3686848Y-11997984D01*
X3820182Y-11997984D02*
X3943991Y-11997984D01*
X3943991Y-11997984D02*
X3877325Y-12074174D01*
X3877325Y-12074174D02*
X3905896Y-12074174D01*
X3905896Y-12074174D02*
X3924944Y-12083698D01*
X3924944Y-12083698D02*
X3934467Y-12093222D01*
X3934467Y-12093222D02*
X3943991Y-12112269D01*
X3943991Y-12112269D02*
X3943991Y-12159888D01*
X3943991Y-12159888D02*
X3934467Y-12178936D01*
X3934467Y-12178936D02*
X3924944Y-12188460D01*
X3924944Y-12188460D02*
X3905896Y-12197984D01*
X3905896Y-12197984D02*
X3848753Y-12197984D01*
X3848753Y-12197984D02*
X3829706Y-12188460D01*
X3829706Y-12188460D02*
X3820182Y-12178936D01*
X4039229Y-12197984D02*
X4077325Y-12197984D01*
X4077325Y-12197984D02*
X4096372Y-12188460D01*
X4096372Y-12188460D02*
X4105896Y-12178936D01*
X4105896Y-12178936D02*
X4124944Y-12150365D01*
X4124944Y-12150365D02*
X4134467Y-12112269D01*
X4134467Y-12112269D02*
X4134467Y-12036079D01*
X4134467Y-12036079D02*
X4124944Y-12017031D01*
X4124944Y-12017031D02*
X4115420Y-12007508D01*
X4115420Y-12007508D02*
X4096372Y-11997984D01*
X4096372Y-11997984D02*
X4058277Y-11997984D01*
X4058277Y-11997984D02*
X4039229Y-12007508D01*
X4039229Y-12007508D02*
X4029706Y-12017031D01*
X4029706Y-12017031D02*
X4020182Y-12036079D01*
X4020182Y-12036079D02*
X4020182Y-12083698D01*
X4020182Y-12083698D02*
X4029706Y-12102746D01*
X4029706Y-12102746D02*
X4039229Y-12112269D01*
X4039229Y-12112269D02*
X4058277Y-12121793D01*
X4058277Y-12121793D02*
X4096372Y-12121793D01*
X4096372Y-12121793D02*
X4115420Y-12112269D01*
X4115420Y-12112269D02*
X4124944Y-12102746D01*
X4124944Y-12102746D02*
X4134467Y-12083698D01*
X4305896Y-12064650D02*
X4305896Y-12197984D01*
X4258277Y-11988460D02*
X4210658Y-12131317D01*
X4210658Y-12131317D02*
X4334468Y-12131317D01*
X4401134Y-11997984D02*
X4401134Y-12036079D01*
X4477325Y-11997984D02*
X4477325Y-12036079D01*
X4772563Y-12274174D02*
X4763039Y-12264650D01*
X4763039Y-12264650D02*
X4743991Y-12236079D01*
X4743991Y-12236079D02*
X4734468Y-12217031D01*
X4734468Y-12217031D02*
X4724944Y-12188460D01*
X4724944Y-12188460D02*
X4715420Y-12140841D01*
X4715420Y-12140841D02*
X4715420Y-12102746D01*
X4715420Y-12102746D02*
X4724944Y-12055127D01*
X4724944Y-12055127D02*
X4734468Y-12026555D01*
X4734468Y-12026555D02*
X4743991Y-12007508D01*
X4743991Y-12007508D02*
X4763039Y-11978936D01*
X4763039Y-11978936D02*
X4772563Y-11969412D01*
X4829706Y-11997984D02*
X4953515Y-11997984D01*
X4953515Y-11997984D02*
X4886849Y-12074174D01*
X4886849Y-12074174D02*
X4915420Y-12074174D01*
X4915420Y-12074174D02*
X4934468Y-12083698D01*
X4934468Y-12083698D02*
X4943991Y-12093222D01*
X4943991Y-12093222D02*
X4953515Y-12112269D01*
X4953515Y-12112269D02*
X4953515Y-12159888D01*
X4953515Y-12159888D02*
X4943991Y-12178936D01*
X4943991Y-12178936D02*
X4934468Y-12188460D01*
X4934468Y-12188460D02*
X4915420Y-12197984D01*
X4915420Y-12197984D02*
X4858277Y-12197984D01*
X4858277Y-12197984D02*
X4839230Y-12188460D01*
X4839230Y-12188460D02*
X4829706Y-12178936D01*
X5191611Y-12197984D02*
X5191611Y-11997984D01*
X5277325Y-12197984D02*
X5277325Y-12093222D01*
X5277325Y-12093222D02*
X5267801Y-12074174D01*
X5267801Y-12074174D02*
X5248753Y-12064650D01*
X5248753Y-12064650D02*
X5220182Y-12064650D01*
X5220182Y-12064650D02*
X5201134Y-12074174D01*
X5201134Y-12074174D02*
X5191611Y-12083698D01*
X5401134Y-12197984D02*
X5382087Y-12188460D01*
X5382087Y-12188460D02*
X5372563Y-12178936D01*
X5372563Y-12178936D02*
X5363039Y-12159888D01*
X5363039Y-12159888D02*
X5363039Y-12102746D01*
X5363039Y-12102746D02*
X5372563Y-12083698D01*
X5372563Y-12083698D02*
X5382087Y-12074174D01*
X5382087Y-12074174D02*
X5401134Y-12064650D01*
X5401134Y-12064650D02*
X5429706Y-12064650D01*
X5429706Y-12064650D02*
X5448753Y-12074174D01*
X5448753Y-12074174D02*
X5458277Y-12083698D01*
X5458277Y-12083698D02*
X5467801Y-12102746D01*
X5467801Y-12102746D02*
X5467801Y-12159888D01*
X5467801Y-12159888D02*
X5458277Y-12178936D01*
X5458277Y-12178936D02*
X5448753Y-12188460D01*
X5448753Y-12188460D02*
X5429706Y-12197984D01*
X5429706Y-12197984D02*
X5401134Y-12197984D01*
X5582087Y-12197984D02*
X5563039Y-12188460D01*
X5563039Y-12188460D02*
X5553515Y-12169412D01*
X5553515Y-12169412D02*
X5553515Y-11997984D01*
X5734468Y-12188460D02*
X5715420Y-12197984D01*
X5715420Y-12197984D02*
X5677325Y-12197984D01*
X5677325Y-12197984D02*
X5658277Y-12188460D01*
X5658277Y-12188460D02*
X5648753Y-12169412D01*
X5648753Y-12169412D02*
X5648753Y-12093222D01*
X5648753Y-12093222D02*
X5658277Y-12074174D01*
X5658277Y-12074174D02*
X5677325Y-12064650D01*
X5677325Y-12064650D02*
X5715420Y-12064650D01*
X5715420Y-12064650D02*
X5734468Y-12074174D01*
X5734468Y-12074174D02*
X5743991Y-12093222D01*
X5743991Y-12093222D02*
X5743991Y-12112269D01*
X5743991Y-12112269D02*
X5648753Y-12131317D01*
X5820182Y-12188460D02*
X5839230Y-12197984D01*
X5839230Y-12197984D02*
X5877325Y-12197984D01*
X5877325Y-12197984D02*
X5896372Y-12188460D01*
X5896372Y-12188460D02*
X5905896Y-12169412D01*
X5905896Y-12169412D02*
X5905896Y-12159888D01*
X5905896Y-12159888D02*
X5896372Y-12140841D01*
X5896372Y-12140841D02*
X5877325Y-12131317D01*
X5877325Y-12131317D02*
X5848753Y-12131317D01*
X5848753Y-12131317D02*
X5829706Y-12121793D01*
X5829706Y-12121793D02*
X5820182Y-12102746D01*
X5820182Y-12102746D02*
X5820182Y-12093222D01*
X5820182Y-12093222D02*
X5829706Y-12074174D01*
X5829706Y-12074174D02*
X5848753Y-12064650D01*
X5848753Y-12064650D02*
X5877325Y-12064650D01*
X5877325Y-12064650D02*
X5896372Y-12074174D01*
X5972563Y-12274174D02*
X5982087Y-12264650D01*
X5982087Y-12264650D02*
X6001134Y-12236079D01*
X6001134Y-12236079D02*
X6010658Y-12217031D01*
X6010658Y-12217031D02*
X6020182Y-12188460D01*
X6020182Y-12188460D02*
X6029706Y-12140841D01*
X6029706Y-12140841D02*
X6029706Y-12102746D01*
X6029706Y-12102746D02*
X6020182Y-12055127D01*
X6020182Y-12055127D02*
X6010658Y-12026555D01*
X6010658Y-12026555D02*
X6001134Y-12007508D01*
X6001134Y-12007508D02*
X5982087Y-11978936D01*
X5982087Y-11978936D02*
X5972563Y-11969412D01*
D13*
X1132500Y-12305500D02*
X1132500Y-12435500D01*
X1067500Y-12370500D02*
X1197500Y-12370500D01*
D11*
X1563039Y-12461984D02*
X1448753Y-12461984D01*
X1505896Y-12461984D02*
X1505896Y-12261984D01*
X1505896Y-12261984D02*
X1486848Y-12290555D01*
X1486848Y-12290555D02*
X1467801Y-12309603D01*
X1467801Y-12309603D02*
X1448753Y-12319127D01*
X1648753Y-12442936D02*
X1658277Y-12452460D01*
X1658277Y-12452460D02*
X1648753Y-12461984D01*
X1648753Y-12461984D02*
X1639229Y-12452460D01*
X1639229Y-12452460D02*
X1648753Y-12442936D01*
X1648753Y-12442936D02*
X1648753Y-12461984D01*
X1724943Y-12261984D02*
X1848753Y-12261984D01*
X1848753Y-12261984D02*
X1782086Y-12338174D01*
X1782086Y-12338174D02*
X1810658Y-12338174D01*
X1810658Y-12338174D02*
X1829705Y-12347698D01*
X1829705Y-12347698D02*
X1839229Y-12357222D01*
X1839229Y-12357222D02*
X1848753Y-12376269D01*
X1848753Y-12376269D02*
X1848753Y-12423888D01*
X1848753Y-12423888D02*
X1839229Y-12442936D01*
X1839229Y-12442936D02*
X1829705Y-12452460D01*
X1829705Y-12452460D02*
X1810658Y-12461984D01*
X1810658Y-12461984D02*
X1753515Y-12461984D01*
X1753515Y-12461984D02*
X1734467Y-12452460D01*
X1734467Y-12452460D02*
X1724943Y-12442936D01*
X1972562Y-12261984D02*
X1991610Y-12261984D01*
X1991610Y-12261984D02*
X2010658Y-12271508D01*
X2010658Y-12271508D02*
X2020182Y-12281031D01*
X2020182Y-12281031D02*
X2029705Y-12300079D01*
X2029705Y-12300079D02*
X2039229Y-12338174D01*
X2039229Y-12338174D02*
X2039229Y-12385793D01*
X2039229Y-12385793D02*
X2029705Y-12423888D01*
X2029705Y-12423888D02*
X2020182Y-12442936D01*
X2020182Y-12442936D02*
X2010658Y-12452460D01*
X2010658Y-12452460D02*
X1991610Y-12461984D01*
X1991610Y-12461984D02*
X1972562Y-12461984D01*
X1972562Y-12461984D02*
X1953515Y-12452460D01*
X1953515Y-12452460D02*
X1943991Y-12442936D01*
X1943991Y-12442936D02*
X1934467Y-12423888D01*
X1934467Y-12423888D02*
X1924943Y-12385793D01*
X1924943Y-12385793D02*
X1924943Y-12338174D01*
X1924943Y-12338174D02*
X1934467Y-12300079D01*
X1934467Y-12300079D02*
X1943991Y-12281031D01*
X1943991Y-12281031D02*
X1953515Y-12271508D01*
X1953515Y-12271508D02*
X1972562Y-12261984D01*
X2163039Y-12261984D02*
X2182086Y-12261984D01*
X2182086Y-12261984D02*
X2201134Y-12271508D01*
X2201134Y-12271508D02*
X2210658Y-12281031D01*
X2210658Y-12281031D02*
X2220182Y-12300079D01*
X2220182Y-12300079D02*
X2229705Y-12338174D01*
X2229705Y-12338174D02*
X2229705Y-12385793D01*
X2229705Y-12385793D02*
X2220182Y-12423888D01*
X2220182Y-12423888D02*
X2210658Y-12442936D01*
X2210658Y-12442936D02*
X2201134Y-12452460D01*
X2201134Y-12452460D02*
X2182086Y-12461984D01*
X2182086Y-12461984D02*
X2163039Y-12461984D01*
X2163039Y-12461984D02*
X2143991Y-12452460D01*
X2143991Y-12452460D02*
X2134467Y-12442936D01*
X2134467Y-12442936D02*
X2124944Y-12423888D01*
X2124944Y-12423888D02*
X2115420Y-12385793D01*
X2115420Y-12385793D02*
X2115420Y-12338174D01*
X2115420Y-12338174D02*
X2124944Y-12300079D01*
X2124944Y-12300079D02*
X2134467Y-12281031D01*
X2134467Y-12281031D02*
X2143991Y-12271508D01*
X2143991Y-12271508D02*
X2163039Y-12261984D01*
X2315420Y-12461984D02*
X2315420Y-12328650D01*
X2315420Y-12347698D02*
X2324944Y-12338174D01*
X2324944Y-12338174D02*
X2343991Y-12328650D01*
X2343991Y-12328650D02*
X2372563Y-12328650D01*
X2372563Y-12328650D02*
X2391610Y-12338174D01*
X2391610Y-12338174D02*
X2401134Y-12357222D01*
X2401134Y-12357222D02*
X2401134Y-12461984D01*
X2401134Y-12357222D02*
X2410658Y-12338174D01*
X2410658Y-12338174D02*
X2429705Y-12328650D01*
X2429705Y-12328650D02*
X2458277Y-12328650D01*
X2458277Y-12328650D02*
X2477325Y-12338174D01*
X2477325Y-12338174D02*
X2486848Y-12357222D01*
X2486848Y-12357222D02*
X2486848Y-12461984D01*
X2582086Y-12461984D02*
X2582086Y-12328650D01*
X2582086Y-12347698D02*
X2591610Y-12338174D01*
X2591610Y-12338174D02*
X2610658Y-12328650D01*
X2610658Y-12328650D02*
X2639229Y-12328650D01*
X2639229Y-12328650D02*
X2658277Y-12338174D01*
X2658277Y-12338174D02*
X2667801Y-12357222D01*
X2667801Y-12357222D02*
X2667801Y-12461984D01*
X2667801Y-12357222D02*
X2677325Y-12338174D01*
X2677325Y-12338174D02*
X2696372Y-12328650D01*
X2696372Y-12328650D02*
X2724944Y-12328650D01*
X2724944Y-12328650D02*
X2743991Y-12338174D01*
X2743991Y-12338174D02*
X2753515Y-12357222D01*
X2753515Y-12357222D02*
X2753515Y-12461984D01*
X3143991Y-12252460D02*
X2972563Y-12509603D01*
X3401134Y-12261984D02*
X3420182Y-12261984D01*
X3420182Y-12261984D02*
X3439229Y-12271508D01*
X3439229Y-12271508D02*
X3448753Y-12281031D01*
X3448753Y-12281031D02*
X3458277Y-12300079D01*
X3458277Y-12300079D02*
X3467801Y-12338174D01*
X3467801Y-12338174D02*
X3467801Y-12385793D01*
X3467801Y-12385793D02*
X3458277Y-12423888D01*
X3458277Y-12423888D02*
X3448753Y-12442936D01*
X3448753Y-12442936D02*
X3439229Y-12452460D01*
X3439229Y-12452460D02*
X3420182Y-12461984D01*
X3420182Y-12461984D02*
X3401134Y-12461984D01*
X3401134Y-12461984D02*
X3382086Y-12452460D01*
X3382086Y-12452460D02*
X3372563Y-12442936D01*
X3372563Y-12442936D02*
X3363039Y-12423888D01*
X3363039Y-12423888D02*
X3353515Y-12385793D01*
X3353515Y-12385793D02*
X3353515Y-12338174D01*
X3353515Y-12338174D02*
X3363039Y-12300079D01*
X3363039Y-12300079D02*
X3372563Y-12281031D01*
X3372563Y-12281031D02*
X3382086Y-12271508D01*
X3382086Y-12271508D02*
X3401134Y-12261984D01*
X3553515Y-12442936D02*
X3563039Y-12452460D01*
X3563039Y-12452460D02*
X3553515Y-12461984D01*
X3553515Y-12461984D02*
X3543991Y-12452460D01*
X3543991Y-12452460D02*
X3553515Y-12442936D01*
X3553515Y-12442936D02*
X3553515Y-12461984D01*
X3686848Y-12261984D02*
X3705896Y-12261984D01*
X3705896Y-12261984D02*
X3724944Y-12271508D01*
X3724944Y-12271508D02*
X3734467Y-12281031D01*
X3734467Y-12281031D02*
X3743991Y-12300079D01*
X3743991Y-12300079D02*
X3753515Y-12338174D01*
X3753515Y-12338174D02*
X3753515Y-12385793D01*
X3753515Y-12385793D02*
X3743991Y-12423888D01*
X3743991Y-12423888D02*
X3734467Y-12442936D01*
X3734467Y-12442936D02*
X3724944Y-12452460D01*
X3724944Y-12452460D02*
X3705896Y-12461984D01*
X3705896Y-12461984D02*
X3686848Y-12461984D01*
X3686848Y-12461984D02*
X3667801Y-12452460D01*
X3667801Y-12452460D02*
X3658277Y-12442936D01*
X3658277Y-12442936D02*
X3648753Y-12423888D01*
X3648753Y-12423888D02*
X3639229Y-12385793D01*
X3639229Y-12385793D02*
X3639229Y-12338174D01*
X3639229Y-12338174D02*
X3648753Y-12300079D01*
X3648753Y-12300079D02*
X3658277Y-12281031D01*
X3658277Y-12281031D02*
X3667801Y-12271508D01*
X3667801Y-12271508D02*
X3686848Y-12261984D01*
X3934467Y-12261984D02*
X3839229Y-12261984D01*
X3839229Y-12261984D02*
X3829706Y-12357222D01*
X3829706Y-12357222D02*
X3839229Y-12347698D01*
X3839229Y-12347698D02*
X3858277Y-12338174D01*
X3858277Y-12338174D02*
X3905896Y-12338174D01*
X3905896Y-12338174D02*
X3924944Y-12347698D01*
X3924944Y-12347698D02*
X3934467Y-12357222D01*
X3934467Y-12357222D02*
X3943991Y-12376269D01*
X3943991Y-12376269D02*
X3943991Y-12423888D01*
X3943991Y-12423888D02*
X3934467Y-12442936D01*
X3934467Y-12442936D02*
X3924944Y-12452460D01*
X3924944Y-12452460D02*
X3905896Y-12461984D01*
X3905896Y-12461984D02*
X3858277Y-12461984D01*
X3858277Y-12461984D02*
X3839229Y-12452460D01*
X3839229Y-12452460D02*
X3829706Y-12442936D01*
X4134467Y-12461984D02*
X4020182Y-12461984D01*
X4077325Y-12461984D02*
X4077325Y-12261984D01*
X4077325Y-12261984D02*
X4058277Y-12290555D01*
X4058277Y-12290555D02*
X4039229Y-12309603D01*
X4039229Y-12309603D02*
X4020182Y-12319127D01*
X4210658Y-12281031D02*
X4220182Y-12271508D01*
X4220182Y-12271508D02*
X4239229Y-12261984D01*
X4239229Y-12261984D02*
X4286849Y-12261984D01*
X4286849Y-12261984D02*
X4305896Y-12271508D01*
X4305896Y-12271508D02*
X4315420Y-12281031D01*
X4315420Y-12281031D02*
X4324944Y-12300079D01*
X4324944Y-12300079D02*
X4324944Y-12319127D01*
X4324944Y-12319127D02*
X4315420Y-12347698D01*
X4315420Y-12347698D02*
X4201134Y-12461984D01*
X4201134Y-12461984D02*
X4324944Y-12461984D01*
X4401134Y-12261984D02*
X4401134Y-12300079D01*
X4477325Y-12261984D02*
X4477325Y-12300079D01*
X4772563Y-12538174D02*
X4763039Y-12528650D01*
X4763039Y-12528650D02*
X4743991Y-12500079D01*
X4743991Y-12500079D02*
X4734468Y-12481031D01*
X4734468Y-12481031D02*
X4724944Y-12452460D01*
X4724944Y-12452460D02*
X4715420Y-12404841D01*
X4715420Y-12404841D02*
X4715420Y-12366746D01*
X4715420Y-12366746D02*
X4724944Y-12319127D01*
X4724944Y-12319127D02*
X4734468Y-12290555D01*
X4734468Y-12290555D02*
X4743991Y-12271508D01*
X4743991Y-12271508D02*
X4763039Y-12242936D01*
X4763039Y-12242936D02*
X4772563Y-12233412D01*
X4839230Y-12281031D02*
X4848753Y-12271508D01*
X4848753Y-12271508D02*
X4867801Y-12261984D01*
X4867801Y-12261984D02*
X4915420Y-12261984D01*
X4915420Y-12261984D02*
X4934468Y-12271508D01*
X4934468Y-12271508D02*
X4943991Y-12281031D01*
X4943991Y-12281031D02*
X4953515Y-12300079D01*
X4953515Y-12300079D02*
X4953515Y-12319127D01*
X4953515Y-12319127D02*
X4943991Y-12347698D01*
X4943991Y-12347698D02*
X4829706Y-12461984D01*
X4829706Y-12461984D02*
X4953515Y-12461984D01*
X5077325Y-12261984D02*
X5096372Y-12261984D01*
X5096372Y-12261984D02*
X5115420Y-12271508D01*
X5115420Y-12271508D02*
X5124944Y-12281031D01*
X5124944Y-12281031D02*
X5134468Y-12300079D01*
X5134468Y-12300079D02*
X5143991Y-12338174D01*
X5143991Y-12338174D02*
X5143991Y-12385793D01*
X5143991Y-12385793D02*
X5134468Y-12423888D01*
X5134468Y-12423888D02*
X5124944Y-12442936D01*
X5124944Y-12442936D02*
X5115420Y-12452460D01*
X5115420Y-12452460D02*
X5096372Y-12461984D01*
X5096372Y-12461984D02*
X5077325Y-12461984D01*
X5077325Y-12461984D02*
X5058277Y-12452460D01*
X5058277Y-12452460D02*
X5048753Y-12442936D01*
X5048753Y-12442936D02*
X5039230Y-12423888D01*
X5039230Y-12423888D02*
X5029706Y-12385793D01*
X5029706Y-12385793D02*
X5029706Y-12338174D01*
X5029706Y-12338174D02*
X5039230Y-12300079D01*
X5039230Y-12300079D02*
X5048753Y-12281031D01*
X5048753Y-12281031D02*
X5058277Y-12271508D01*
X5058277Y-12271508D02*
X5077325Y-12261984D01*
X5382087Y-12461984D02*
X5382087Y-12261984D01*
X5467801Y-12461984D02*
X5467801Y-12357222D01*
X5467801Y-12357222D02*
X5458277Y-12338174D01*
X5458277Y-12338174D02*
X5439230Y-12328650D01*
X5439230Y-12328650D02*
X5410658Y-12328650D01*
X5410658Y-12328650D02*
X5391611Y-12338174D01*
X5391611Y-12338174D02*
X5382087Y-12347698D01*
X5591611Y-12461984D02*
X5572563Y-12452460D01*
X5572563Y-12452460D02*
X5563039Y-12442936D01*
X5563039Y-12442936D02*
X5553515Y-12423888D01*
X5553515Y-12423888D02*
X5553515Y-12366746D01*
X5553515Y-12366746D02*
X5563039Y-12347698D01*
X5563039Y-12347698D02*
X5572563Y-12338174D01*
X5572563Y-12338174D02*
X5591611Y-12328650D01*
X5591611Y-12328650D02*
X5620182Y-12328650D01*
X5620182Y-12328650D02*
X5639230Y-12338174D01*
X5639230Y-12338174D02*
X5648753Y-12347698D01*
X5648753Y-12347698D02*
X5658277Y-12366746D01*
X5658277Y-12366746D02*
X5658277Y-12423888D01*
X5658277Y-12423888D02*
X5648753Y-12442936D01*
X5648753Y-12442936D02*
X5639230Y-12452460D01*
X5639230Y-12452460D02*
X5620182Y-12461984D01*
X5620182Y-12461984D02*
X5591611Y-12461984D01*
X5772563Y-12461984D02*
X5753515Y-12452460D01*
X5753515Y-12452460D02*
X5743991Y-12433412D01*
X5743991Y-12433412D02*
X5743991Y-12261984D01*
X5924944Y-12452460D02*
X5905896Y-12461984D01*
X5905896Y-12461984D02*
X5867801Y-12461984D01*
X5867801Y-12461984D02*
X5848753Y-12452460D01*
X5848753Y-12452460D02*
X5839230Y-12433412D01*
X5839230Y-12433412D02*
X5839230Y-12357222D01*
X5839230Y-12357222D02*
X5848753Y-12338174D01*
X5848753Y-12338174D02*
X5867801Y-12328650D01*
X5867801Y-12328650D02*
X5905896Y-12328650D01*
X5905896Y-12328650D02*
X5924944Y-12338174D01*
X5924944Y-12338174D02*
X5934468Y-12357222D01*
X5934468Y-12357222D02*
X5934468Y-12376269D01*
X5934468Y-12376269D02*
X5839230Y-12395317D01*
X6010658Y-12452460D02*
X6029706Y-12461984D01*
X6029706Y-12461984D02*
X6067801Y-12461984D01*
X6067801Y-12461984D02*
X6086849Y-12452460D01*
X6086849Y-12452460D02*
X6096372Y-12433412D01*
X6096372Y-12433412D02*
X6096372Y-12423888D01*
X6096372Y-12423888D02*
X6086849Y-12404841D01*
X6086849Y-12404841D02*
X6067801Y-12395317D01*
X6067801Y-12395317D02*
X6039230Y-12395317D01*
X6039230Y-12395317D02*
X6020182Y-12385793D01*
X6020182Y-12385793D02*
X6010658Y-12366746D01*
X6010658Y-12366746D02*
X6010658Y-12357222D01*
X6010658Y-12357222D02*
X6020182Y-12338174D01*
X6020182Y-12338174D02*
X6039230Y-12328650D01*
X6039230Y-12328650D02*
X6067801Y-12328650D01*
X6067801Y-12328650D02*
X6086849Y-12338174D01*
X6163039Y-12538174D02*
X6172563Y-12528650D01*
X6172563Y-12528650D02*
X6191611Y-12500079D01*
X6191611Y-12500079D02*
X6201134Y-12481031D01*
X6201134Y-12481031D02*
X6210658Y-12452460D01*
X6210658Y-12452460D02*
X6220182Y-12404841D01*
X6220182Y-12404841D02*
X6220182Y-12366746D01*
X6220182Y-12366746D02*
X6210658Y-12319127D01*
X6210658Y-12319127D02*
X6201134Y-12290555D01*
X6201134Y-12290555D02*
X6191611Y-12271508D01*
X6191611Y-12271508D02*
X6172563Y-12242936D01*
X6172563Y-12242936D02*
X6163039Y-12233412D01*
D14*
X1175534Y-12687533D02*
X1175534Y-12581466D01*
X1069467Y-12581466D01*
X1069467Y-12687533D01*
X1175534Y-12687533D01*
D11*
X1563039Y-12725984D02*
X1448753Y-12725984D01*
X1505896Y-12725984D02*
X1505896Y-12525984D01*
X1505896Y-12525984D02*
X1486848Y-12554555D01*
X1486848Y-12554555D02*
X1467801Y-12573603D01*
X1467801Y-12573603D02*
X1448753Y-12583127D01*
X1648753Y-12706936D02*
X1658277Y-12716460D01*
X1658277Y-12716460D02*
X1648753Y-12725984D01*
X1648753Y-12725984D02*
X1639229Y-12716460D01*
X1639229Y-12716460D02*
X1648753Y-12706936D01*
X1648753Y-12706936D02*
X1648753Y-12725984D01*
X1839229Y-12525984D02*
X1743991Y-12525984D01*
X1743991Y-12525984D02*
X1734467Y-12621222D01*
X1734467Y-12621222D02*
X1743991Y-12611698D01*
X1743991Y-12611698D02*
X1763039Y-12602174D01*
X1763039Y-12602174D02*
X1810658Y-12602174D01*
X1810658Y-12602174D02*
X1829705Y-12611698D01*
X1829705Y-12611698D02*
X1839229Y-12621222D01*
X1839229Y-12621222D02*
X1848753Y-12640269D01*
X1848753Y-12640269D02*
X1848753Y-12687888D01*
X1848753Y-12687888D02*
X1839229Y-12706936D01*
X1839229Y-12706936D02*
X1829705Y-12716460D01*
X1829705Y-12716460D02*
X1810658Y-12725984D01*
X1810658Y-12725984D02*
X1763039Y-12725984D01*
X1763039Y-12725984D02*
X1743991Y-12716460D01*
X1743991Y-12716460D02*
X1734467Y-12706936D01*
X1972562Y-12525984D02*
X1991610Y-12525984D01*
X1991610Y-12525984D02*
X2010658Y-12535508D01*
X2010658Y-12535508D02*
X2020182Y-12545031D01*
X2020182Y-12545031D02*
X2029705Y-12564079D01*
X2029705Y-12564079D02*
X2039229Y-12602174D01*
X2039229Y-12602174D02*
X2039229Y-12649793D01*
X2039229Y-12649793D02*
X2029705Y-12687888D01*
X2029705Y-12687888D02*
X2020182Y-12706936D01*
X2020182Y-12706936D02*
X2010658Y-12716460D01*
X2010658Y-12716460D02*
X1991610Y-12725984D01*
X1991610Y-12725984D02*
X1972562Y-12725984D01*
X1972562Y-12725984D02*
X1953515Y-12716460D01*
X1953515Y-12716460D02*
X1943991Y-12706936D01*
X1943991Y-12706936D02*
X1934467Y-12687888D01*
X1934467Y-12687888D02*
X1924943Y-12649793D01*
X1924943Y-12649793D02*
X1924943Y-12602174D01*
X1924943Y-12602174D02*
X1934467Y-12564079D01*
X1934467Y-12564079D02*
X1943991Y-12545031D01*
X1943991Y-12545031D02*
X1953515Y-12535508D01*
X1953515Y-12535508D02*
X1972562Y-12525984D01*
X2163039Y-12525984D02*
X2182086Y-12525984D01*
X2182086Y-12525984D02*
X2201134Y-12535508D01*
X2201134Y-12535508D02*
X2210658Y-12545031D01*
X2210658Y-12545031D02*
X2220182Y-12564079D01*
X2220182Y-12564079D02*
X2229705Y-12602174D01*
X2229705Y-12602174D02*
X2229705Y-12649793D01*
X2229705Y-12649793D02*
X2220182Y-12687888D01*
X2220182Y-12687888D02*
X2210658Y-12706936D01*
X2210658Y-12706936D02*
X2201134Y-12716460D01*
X2201134Y-12716460D02*
X2182086Y-12725984D01*
X2182086Y-12725984D02*
X2163039Y-12725984D01*
X2163039Y-12725984D02*
X2143991Y-12716460D01*
X2143991Y-12716460D02*
X2134467Y-12706936D01*
X2134467Y-12706936D02*
X2124944Y-12687888D01*
X2124944Y-12687888D02*
X2115420Y-12649793D01*
X2115420Y-12649793D02*
X2115420Y-12602174D01*
X2115420Y-12602174D02*
X2124944Y-12564079D01*
X2124944Y-12564079D02*
X2134467Y-12545031D01*
X2134467Y-12545031D02*
X2143991Y-12535508D01*
X2143991Y-12535508D02*
X2163039Y-12525984D01*
X2315420Y-12725984D02*
X2315420Y-12592650D01*
X2315420Y-12611698D02*
X2324944Y-12602174D01*
X2324944Y-12602174D02*
X2343991Y-12592650D01*
X2343991Y-12592650D02*
X2372563Y-12592650D01*
X2372563Y-12592650D02*
X2391610Y-12602174D01*
X2391610Y-12602174D02*
X2401134Y-12621222D01*
X2401134Y-12621222D02*
X2401134Y-12725984D01*
X2401134Y-12621222D02*
X2410658Y-12602174D01*
X2410658Y-12602174D02*
X2429705Y-12592650D01*
X2429705Y-12592650D02*
X2458277Y-12592650D01*
X2458277Y-12592650D02*
X2477325Y-12602174D01*
X2477325Y-12602174D02*
X2486848Y-12621222D01*
X2486848Y-12621222D02*
X2486848Y-12725984D01*
X2582086Y-12725984D02*
X2582086Y-12592650D01*
X2582086Y-12611698D02*
X2591610Y-12602174D01*
X2591610Y-12602174D02*
X2610658Y-12592650D01*
X2610658Y-12592650D02*
X2639229Y-12592650D01*
X2639229Y-12592650D02*
X2658277Y-12602174D01*
X2658277Y-12602174D02*
X2667801Y-12621222D01*
X2667801Y-12621222D02*
X2667801Y-12725984D01*
X2667801Y-12621222D02*
X2677325Y-12602174D01*
X2677325Y-12602174D02*
X2696372Y-12592650D01*
X2696372Y-12592650D02*
X2724944Y-12592650D01*
X2724944Y-12592650D02*
X2743991Y-12602174D01*
X2743991Y-12602174D02*
X2753515Y-12621222D01*
X2753515Y-12621222D02*
X2753515Y-12725984D01*
X3143991Y-12516460D02*
X2972563Y-12773603D01*
X3401134Y-12525984D02*
X3420182Y-12525984D01*
X3420182Y-12525984D02*
X3439229Y-12535508D01*
X3439229Y-12535508D02*
X3448753Y-12545031D01*
X3448753Y-12545031D02*
X3458277Y-12564079D01*
X3458277Y-12564079D02*
X3467801Y-12602174D01*
X3467801Y-12602174D02*
X3467801Y-12649793D01*
X3467801Y-12649793D02*
X3458277Y-12687888D01*
X3458277Y-12687888D02*
X3448753Y-12706936D01*
X3448753Y-12706936D02*
X3439229Y-12716460D01*
X3439229Y-12716460D02*
X3420182Y-12725984D01*
X3420182Y-12725984D02*
X3401134Y-12725984D01*
X3401134Y-12725984D02*
X3382086Y-12716460D01*
X3382086Y-12716460D02*
X3372563Y-12706936D01*
X3372563Y-12706936D02*
X3363039Y-12687888D01*
X3363039Y-12687888D02*
X3353515Y-12649793D01*
X3353515Y-12649793D02*
X3353515Y-12602174D01*
X3353515Y-12602174D02*
X3363039Y-12564079D01*
X3363039Y-12564079D02*
X3372563Y-12545031D01*
X3372563Y-12545031D02*
X3382086Y-12535508D01*
X3382086Y-12535508D02*
X3401134Y-12525984D01*
X3553515Y-12706936D02*
X3563039Y-12716460D01*
X3563039Y-12716460D02*
X3553515Y-12725984D01*
X3553515Y-12725984D02*
X3543991Y-12716460D01*
X3543991Y-12716460D02*
X3553515Y-12706936D01*
X3553515Y-12706936D02*
X3553515Y-12725984D01*
X3686848Y-12525984D02*
X3705896Y-12525984D01*
X3705896Y-12525984D02*
X3724944Y-12535508D01*
X3724944Y-12535508D02*
X3734467Y-12545031D01*
X3734467Y-12545031D02*
X3743991Y-12564079D01*
X3743991Y-12564079D02*
X3753515Y-12602174D01*
X3753515Y-12602174D02*
X3753515Y-12649793D01*
X3753515Y-12649793D02*
X3743991Y-12687888D01*
X3743991Y-12687888D02*
X3734467Y-12706936D01*
X3734467Y-12706936D02*
X3724944Y-12716460D01*
X3724944Y-12716460D02*
X3705896Y-12725984D01*
X3705896Y-12725984D02*
X3686848Y-12725984D01*
X3686848Y-12725984D02*
X3667801Y-12716460D01*
X3667801Y-12716460D02*
X3658277Y-12706936D01*
X3658277Y-12706936D02*
X3648753Y-12687888D01*
X3648753Y-12687888D02*
X3639229Y-12649793D01*
X3639229Y-12649793D02*
X3639229Y-12602174D01*
X3639229Y-12602174D02*
X3648753Y-12564079D01*
X3648753Y-12564079D02*
X3658277Y-12545031D01*
X3658277Y-12545031D02*
X3667801Y-12535508D01*
X3667801Y-12535508D02*
X3686848Y-12525984D01*
X3934467Y-12525984D02*
X3839229Y-12525984D01*
X3839229Y-12525984D02*
X3829706Y-12621222D01*
X3829706Y-12621222D02*
X3839229Y-12611698D01*
X3839229Y-12611698D02*
X3858277Y-12602174D01*
X3858277Y-12602174D02*
X3905896Y-12602174D01*
X3905896Y-12602174D02*
X3924944Y-12611698D01*
X3924944Y-12611698D02*
X3934467Y-12621222D01*
X3934467Y-12621222D02*
X3943991Y-12640269D01*
X3943991Y-12640269D02*
X3943991Y-12687888D01*
X3943991Y-12687888D02*
X3934467Y-12706936D01*
X3934467Y-12706936D02*
X3924944Y-12716460D01*
X3924944Y-12716460D02*
X3905896Y-12725984D01*
X3905896Y-12725984D02*
X3858277Y-12725984D01*
X3858277Y-12725984D02*
X3839229Y-12716460D01*
X3839229Y-12716460D02*
X3829706Y-12706936D01*
X4039229Y-12725984D02*
X4077325Y-12725984D01*
X4077325Y-12725984D02*
X4096372Y-12716460D01*
X4096372Y-12716460D02*
X4105896Y-12706936D01*
X4105896Y-12706936D02*
X4124944Y-12678365D01*
X4124944Y-12678365D02*
X4134467Y-12640269D01*
X4134467Y-12640269D02*
X4134467Y-12564079D01*
X4134467Y-12564079D02*
X4124944Y-12545031D01*
X4124944Y-12545031D02*
X4115420Y-12535508D01*
X4115420Y-12535508D02*
X4096372Y-12525984D01*
X4096372Y-12525984D02*
X4058277Y-12525984D01*
X4058277Y-12525984D02*
X4039229Y-12535508D01*
X4039229Y-12535508D02*
X4029706Y-12545031D01*
X4029706Y-12545031D02*
X4020182Y-12564079D01*
X4020182Y-12564079D02*
X4020182Y-12611698D01*
X4020182Y-12611698D02*
X4029706Y-12630746D01*
X4029706Y-12630746D02*
X4039229Y-12640269D01*
X4039229Y-12640269D02*
X4058277Y-12649793D01*
X4058277Y-12649793D02*
X4096372Y-12649793D01*
X4096372Y-12649793D02*
X4115420Y-12640269D01*
X4115420Y-12640269D02*
X4124944Y-12630746D01*
X4124944Y-12630746D02*
X4134467Y-12611698D01*
X4324944Y-12725984D02*
X4210658Y-12725984D01*
X4267801Y-12725984D02*
X4267801Y-12525984D01*
X4267801Y-12525984D02*
X4248753Y-12554555D01*
X4248753Y-12554555D02*
X4229706Y-12573603D01*
X4229706Y-12573603D02*
X4210658Y-12583127D01*
X4401134Y-12525984D02*
X4401134Y-12564079D01*
X4477325Y-12525984D02*
X4477325Y-12564079D01*
X4772563Y-12802174D02*
X4763039Y-12792650D01*
X4763039Y-12792650D02*
X4743991Y-12764079D01*
X4743991Y-12764079D02*
X4734468Y-12745031D01*
X4734468Y-12745031D02*
X4724944Y-12716460D01*
X4724944Y-12716460D02*
X4715420Y-12668841D01*
X4715420Y-12668841D02*
X4715420Y-12630746D01*
X4715420Y-12630746D02*
X4724944Y-12583127D01*
X4724944Y-12583127D02*
X4734468Y-12554555D01*
X4734468Y-12554555D02*
X4743991Y-12535508D01*
X4743991Y-12535508D02*
X4763039Y-12506936D01*
X4763039Y-12506936D02*
X4772563Y-12497412D01*
X4839230Y-12545031D02*
X4848753Y-12535508D01*
X4848753Y-12535508D02*
X4867801Y-12525984D01*
X4867801Y-12525984D02*
X4915420Y-12525984D01*
X4915420Y-12525984D02*
X4934468Y-12535508D01*
X4934468Y-12535508D02*
X4943991Y-12545031D01*
X4943991Y-12545031D02*
X4953515Y-12564079D01*
X4953515Y-12564079D02*
X4953515Y-12583127D01*
X4953515Y-12583127D02*
X4943991Y-12611698D01*
X4943991Y-12611698D02*
X4829706Y-12725984D01*
X4829706Y-12725984D02*
X4953515Y-12725984D01*
X5191611Y-12725984D02*
X5191611Y-12525984D01*
X5277325Y-12725984D02*
X5277325Y-12621222D01*
X5277325Y-12621222D02*
X5267801Y-12602174D01*
X5267801Y-12602174D02*
X5248753Y-12592650D01*
X5248753Y-12592650D02*
X5220182Y-12592650D01*
X5220182Y-12592650D02*
X5201134Y-12602174D01*
X5201134Y-12602174D02*
X5191611Y-12611698D01*
X5401134Y-12725984D02*
X5382087Y-12716460D01*
X5382087Y-12716460D02*
X5372563Y-12706936D01*
X5372563Y-12706936D02*
X5363039Y-12687888D01*
X5363039Y-12687888D02*
X5363039Y-12630746D01*
X5363039Y-12630746D02*
X5372563Y-12611698D01*
X5372563Y-12611698D02*
X5382087Y-12602174D01*
X5382087Y-12602174D02*
X5401134Y-12592650D01*
X5401134Y-12592650D02*
X5429706Y-12592650D01*
X5429706Y-12592650D02*
X5448753Y-12602174D01*
X5448753Y-12602174D02*
X5458277Y-12611698D01*
X5458277Y-12611698D02*
X5467801Y-12630746D01*
X5467801Y-12630746D02*
X5467801Y-12687888D01*
X5467801Y-12687888D02*
X5458277Y-12706936D01*
X5458277Y-12706936D02*
X5448753Y-12716460D01*
X5448753Y-12716460D02*
X5429706Y-12725984D01*
X5429706Y-12725984D02*
X5401134Y-12725984D01*
X5582087Y-12725984D02*
X5563039Y-12716460D01*
X5563039Y-12716460D02*
X5553515Y-12697412D01*
X5553515Y-12697412D02*
X5553515Y-12525984D01*
X5734468Y-12716460D02*
X5715420Y-12725984D01*
X5715420Y-12725984D02*
X5677325Y-12725984D01*
X5677325Y-12725984D02*
X5658277Y-12716460D01*
X5658277Y-12716460D02*
X5648753Y-12697412D01*
X5648753Y-12697412D02*
X5648753Y-12621222D01*
X5648753Y-12621222D02*
X5658277Y-12602174D01*
X5658277Y-12602174D02*
X5677325Y-12592650D01*
X5677325Y-12592650D02*
X5715420Y-12592650D01*
X5715420Y-12592650D02*
X5734468Y-12602174D01*
X5734468Y-12602174D02*
X5743991Y-12621222D01*
X5743991Y-12621222D02*
X5743991Y-12640269D01*
X5743991Y-12640269D02*
X5648753Y-12659317D01*
X5820182Y-12716460D02*
X5839230Y-12725984D01*
X5839230Y-12725984D02*
X5877325Y-12725984D01*
X5877325Y-12725984D02*
X5896372Y-12716460D01*
X5896372Y-12716460D02*
X5905896Y-12697412D01*
X5905896Y-12697412D02*
X5905896Y-12687888D01*
X5905896Y-12687888D02*
X5896372Y-12668841D01*
X5896372Y-12668841D02*
X5877325Y-12659317D01*
X5877325Y-12659317D02*
X5848753Y-12659317D01*
X5848753Y-12659317D02*
X5829706Y-12649793D01*
X5829706Y-12649793D02*
X5820182Y-12630746D01*
X5820182Y-12630746D02*
X5820182Y-12621222D01*
X5820182Y-12621222D02*
X5829706Y-12602174D01*
X5829706Y-12602174D02*
X5848753Y-12592650D01*
X5848753Y-12592650D02*
X5877325Y-12592650D01*
X5877325Y-12592650D02*
X5896372Y-12602174D01*
X5972563Y-12802174D02*
X5982087Y-12792650D01*
X5982087Y-12792650D02*
X6001134Y-12764079D01*
X6001134Y-12764079D02*
X6010658Y-12745031D01*
X6010658Y-12745031D02*
X6020182Y-12716460D01*
X6020182Y-12716460D02*
X6029706Y-12668841D01*
X6029706Y-12668841D02*
X6029706Y-12630746D01*
X6029706Y-12630746D02*
X6020182Y-12583127D01*
X6020182Y-12583127D02*
X6010658Y-12554555D01*
X6010658Y-12554555D02*
X6001134Y-12535508D01*
X6001134Y-12535508D02*
X5982087Y-12506936D01*
X5982087Y-12506936D02*
X5972563Y-12497412D01*
D15*
X1117500Y-12984500D02*
X1197500Y-12904500D01*
X1117500Y-12824500D01*
X1037500Y-12904500D01*
X1117500Y-12984500D01*
D11*
X1563039Y-12995984D02*
X1448753Y-12995984D01*
X1505896Y-12995984D02*
X1505896Y-12795984D01*
X1505896Y-12795984D02*
X1486848Y-12824555D01*
X1486848Y-12824555D02*
X1467801Y-12843603D01*
X1467801Y-12843603D02*
X1448753Y-12853127D01*
X1648753Y-12976936D02*
X1658277Y-12986460D01*
X1658277Y-12986460D02*
X1648753Y-12995984D01*
X1648753Y-12995984D02*
X1639229Y-12986460D01*
X1639229Y-12986460D02*
X1648753Y-12976936D01*
X1648753Y-12976936D02*
X1648753Y-12995984D01*
X1829705Y-12795984D02*
X1791610Y-12795984D01*
X1791610Y-12795984D02*
X1772562Y-12805508D01*
X1772562Y-12805508D02*
X1763039Y-12815031D01*
X1763039Y-12815031D02*
X1743991Y-12843603D01*
X1743991Y-12843603D02*
X1734467Y-12881698D01*
X1734467Y-12881698D02*
X1734467Y-12957888D01*
X1734467Y-12957888D02*
X1743991Y-12976936D01*
X1743991Y-12976936D02*
X1753515Y-12986460D01*
X1753515Y-12986460D02*
X1772562Y-12995984D01*
X1772562Y-12995984D02*
X1810658Y-12995984D01*
X1810658Y-12995984D02*
X1829705Y-12986460D01*
X1829705Y-12986460D02*
X1839229Y-12976936D01*
X1839229Y-12976936D02*
X1848753Y-12957888D01*
X1848753Y-12957888D02*
X1848753Y-12910269D01*
X1848753Y-12910269D02*
X1839229Y-12891222D01*
X1839229Y-12891222D02*
X1829705Y-12881698D01*
X1829705Y-12881698D02*
X1810658Y-12872174D01*
X1810658Y-12872174D02*
X1772562Y-12872174D01*
X1772562Y-12872174D02*
X1753515Y-12881698D01*
X1753515Y-12881698D02*
X1743991Y-12891222D01*
X1743991Y-12891222D02*
X1734467Y-12910269D01*
X1972562Y-12795984D02*
X1991610Y-12795984D01*
X1991610Y-12795984D02*
X2010658Y-12805508D01*
X2010658Y-12805508D02*
X2020182Y-12815031D01*
X2020182Y-12815031D02*
X2029705Y-12834079D01*
X2029705Y-12834079D02*
X2039229Y-12872174D01*
X2039229Y-12872174D02*
X2039229Y-12919793D01*
X2039229Y-12919793D02*
X2029705Y-12957888D01*
X2029705Y-12957888D02*
X2020182Y-12976936D01*
X2020182Y-12976936D02*
X2010658Y-12986460D01*
X2010658Y-12986460D02*
X1991610Y-12995984D01*
X1991610Y-12995984D02*
X1972562Y-12995984D01*
X1972562Y-12995984D02*
X1953515Y-12986460D01*
X1953515Y-12986460D02*
X1943991Y-12976936D01*
X1943991Y-12976936D02*
X1934467Y-12957888D01*
X1934467Y-12957888D02*
X1924943Y-12919793D01*
X1924943Y-12919793D02*
X1924943Y-12872174D01*
X1924943Y-12872174D02*
X1934467Y-12834079D01*
X1934467Y-12834079D02*
X1943991Y-12815031D01*
X1943991Y-12815031D02*
X1953515Y-12805508D01*
X1953515Y-12805508D02*
X1972562Y-12795984D01*
X2163039Y-12795984D02*
X2182086Y-12795984D01*
X2182086Y-12795984D02*
X2201134Y-12805508D01*
X2201134Y-12805508D02*
X2210658Y-12815031D01*
X2210658Y-12815031D02*
X2220182Y-12834079D01*
X2220182Y-12834079D02*
X2229705Y-12872174D01*
X2229705Y-12872174D02*
X2229705Y-12919793D01*
X2229705Y-12919793D02*
X2220182Y-12957888D01*
X2220182Y-12957888D02*
X2210658Y-12976936D01*
X2210658Y-12976936D02*
X2201134Y-12986460D01*
X2201134Y-12986460D02*
X2182086Y-12995984D01*
X2182086Y-12995984D02*
X2163039Y-12995984D01*
X2163039Y-12995984D02*
X2143991Y-12986460D01*
X2143991Y-12986460D02*
X2134467Y-12976936D01*
X2134467Y-12976936D02*
X2124944Y-12957888D01*
X2124944Y-12957888D02*
X2115420Y-12919793D01*
X2115420Y-12919793D02*
X2115420Y-12872174D01*
X2115420Y-12872174D02*
X2124944Y-12834079D01*
X2124944Y-12834079D02*
X2134467Y-12815031D01*
X2134467Y-12815031D02*
X2143991Y-12805508D01*
X2143991Y-12805508D02*
X2163039Y-12795984D01*
X2315420Y-12995984D02*
X2315420Y-12862650D01*
X2315420Y-12881698D02*
X2324944Y-12872174D01*
X2324944Y-12872174D02*
X2343991Y-12862650D01*
X2343991Y-12862650D02*
X2372563Y-12862650D01*
X2372563Y-12862650D02*
X2391610Y-12872174D01*
X2391610Y-12872174D02*
X2401134Y-12891222D01*
X2401134Y-12891222D02*
X2401134Y-12995984D01*
X2401134Y-12891222D02*
X2410658Y-12872174D01*
X2410658Y-12872174D02*
X2429705Y-12862650D01*
X2429705Y-12862650D02*
X2458277Y-12862650D01*
X2458277Y-12862650D02*
X2477325Y-12872174D01*
X2477325Y-12872174D02*
X2486848Y-12891222D01*
X2486848Y-12891222D02*
X2486848Y-12995984D01*
X2582086Y-12995984D02*
X2582086Y-12862650D01*
X2582086Y-12881698D02*
X2591610Y-12872174D01*
X2591610Y-12872174D02*
X2610658Y-12862650D01*
X2610658Y-12862650D02*
X2639229Y-12862650D01*
X2639229Y-12862650D02*
X2658277Y-12872174D01*
X2658277Y-12872174D02*
X2667801Y-12891222D01*
X2667801Y-12891222D02*
X2667801Y-12995984D01*
X2667801Y-12891222D02*
X2677325Y-12872174D01*
X2677325Y-12872174D02*
X2696372Y-12862650D01*
X2696372Y-12862650D02*
X2724944Y-12862650D01*
X2724944Y-12862650D02*
X2743991Y-12872174D01*
X2743991Y-12872174D02*
X2753515Y-12891222D01*
X2753515Y-12891222D02*
X2753515Y-12995984D01*
X3143991Y-12786460D02*
X2972563Y-13043603D01*
X3401134Y-12795984D02*
X3420182Y-12795984D01*
X3420182Y-12795984D02*
X3439229Y-12805508D01*
X3439229Y-12805508D02*
X3448753Y-12815031D01*
X3448753Y-12815031D02*
X3458277Y-12834079D01*
X3458277Y-12834079D02*
X3467801Y-12872174D01*
X3467801Y-12872174D02*
X3467801Y-12919793D01*
X3467801Y-12919793D02*
X3458277Y-12957888D01*
X3458277Y-12957888D02*
X3448753Y-12976936D01*
X3448753Y-12976936D02*
X3439229Y-12986460D01*
X3439229Y-12986460D02*
X3420182Y-12995984D01*
X3420182Y-12995984D02*
X3401134Y-12995984D01*
X3401134Y-12995984D02*
X3382086Y-12986460D01*
X3382086Y-12986460D02*
X3372563Y-12976936D01*
X3372563Y-12976936D02*
X3363039Y-12957888D01*
X3363039Y-12957888D02*
X3353515Y-12919793D01*
X3353515Y-12919793D02*
X3353515Y-12872174D01*
X3353515Y-12872174D02*
X3363039Y-12834079D01*
X3363039Y-12834079D02*
X3372563Y-12815031D01*
X3372563Y-12815031D02*
X3382086Y-12805508D01*
X3382086Y-12805508D02*
X3401134Y-12795984D01*
X3553515Y-12976936D02*
X3563039Y-12986460D01*
X3563039Y-12986460D02*
X3553515Y-12995984D01*
X3553515Y-12995984D02*
X3543991Y-12986460D01*
X3543991Y-12986460D02*
X3553515Y-12976936D01*
X3553515Y-12976936D02*
X3553515Y-12995984D01*
X3686848Y-12795984D02*
X3705896Y-12795984D01*
X3705896Y-12795984D02*
X3724944Y-12805508D01*
X3724944Y-12805508D02*
X3734467Y-12815031D01*
X3734467Y-12815031D02*
X3743991Y-12834079D01*
X3743991Y-12834079D02*
X3753515Y-12872174D01*
X3753515Y-12872174D02*
X3753515Y-12919793D01*
X3753515Y-12919793D02*
X3743991Y-12957888D01*
X3743991Y-12957888D02*
X3734467Y-12976936D01*
X3734467Y-12976936D02*
X3724944Y-12986460D01*
X3724944Y-12986460D02*
X3705896Y-12995984D01*
X3705896Y-12995984D02*
X3686848Y-12995984D01*
X3686848Y-12995984D02*
X3667801Y-12986460D01*
X3667801Y-12986460D02*
X3658277Y-12976936D01*
X3658277Y-12976936D02*
X3648753Y-12957888D01*
X3648753Y-12957888D02*
X3639229Y-12919793D01*
X3639229Y-12919793D02*
X3639229Y-12872174D01*
X3639229Y-12872174D02*
X3648753Y-12834079D01*
X3648753Y-12834079D02*
X3658277Y-12815031D01*
X3658277Y-12815031D02*
X3667801Y-12805508D01*
X3667801Y-12805508D02*
X3686848Y-12795984D01*
X3924944Y-12795984D02*
X3886848Y-12795984D01*
X3886848Y-12795984D02*
X3867801Y-12805508D01*
X3867801Y-12805508D02*
X3858277Y-12815031D01*
X3858277Y-12815031D02*
X3839229Y-12843603D01*
X3839229Y-12843603D02*
X3829706Y-12881698D01*
X3829706Y-12881698D02*
X3829706Y-12957888D01*
X3829706Y-12957888D02*
X3839229Y-12976936D01*
X3839229Y-12976936D02*
X3848753Y-12986460D01*
X3848753Y-12986460D02*
X3867801Y-12995984D01*
X3867801Y-12995984D02*
X3905896Y-12995984D01*
X3905896Y-12995984D02*
X3924944Y-12986460D01*
X3924944Y-12986460D02*
X3934467Y-12976936D01*
X3934467Y-12976936D02*
X3943991Y-12957888D01*
X3943991Y-12957888D02*
X3943991Y-12910269D01*
X3943991Y-12910269D02*
X3934467Y-12891222D01*
X3934467Y-12891222D02*
X3924944Y-12881698D01*
X3924944Y-12881698D02*
X3905896Y-12872174D01*
X3905896Y-12872174D02*
X3867801Y-12872174D01*
X3867801Y-12872174D02*
X3848753Y-12881698D01*
X3848753Y-12881698D02*
X3839229Y-12891222D01*
X3839229Y-12891222D02*
X3829706Y-12910269D01*
X4010658Y-12795984D02*
X4134467Y-12795984D01*
X4134467Y-12795984D02*
X4067801Y-12872174D01*
X4067801Y-12872174D02*
X4096372Y-12872174D01*
X4096372Y-12872174D02*
X4115420Y-12881698D01*
X4115420Y-12881698D02*
X4124944Y-12891222D01*
X4124944Y-12891222D02*
X4134467Y-12910269D01*
X4134467Y-12910269D02*
X4134467Y-12957888D01*
X4134467Y-12957888D02*
X4124944Y-12976936D01*
X4124944Y-12976936D02*
X4115420Y-12986460D01*
X4115420Y-12986460D02*
X4096372Y-12995984D01*
X4096372Y-12995984D02*
X4039229Y-12995984D01*
X4039229Y-12995984D02*
X4020182Y-12986460D01*
X4020182Y-12986460D02*
X4010658Y-12976936D01*
X4258277Y-12795984D02*
X4277325Y-12795984D01*
X4277325Y-12795984D02*
X4296372Y-12805508D01*
X4296372Y-12805508D02*
X4305896Y-12815031D01*
X4305896Y-12815031D02*
X4315420Y-12834079D01*
X4315420Y-12834079D02*
X4324944Y-12872174D01*
X4324944Y-12872174D02*
X4324944Y-12919793D01*
X4324944Y-12919793D02*
X4315420Y-12957888D01*
X4315420Y-12957888D02*
X4305896Y-12976936D01*
X4305896Y-12976936D02*
X4296372Y-12986460D01*
X4296372Y-12986460D02*
X4277325Y-12995984D01*
X4277325Y-12995984D02*
X4258277Y-12995984D01*
X4258277Y-12995984D02*
X4239229Y-12986460D01*
X4239229Y-12986460D02*
X4229706Y-12976936D01*
X4229706Y-12976936D02*
X4220182Y-12957888D01*
X4220182Y-12957888D02*
X4210658Y-12919793D01*
X4210658Y-12919793D02*
X4210658Y-12872174D01*
X4210658Y-12872174D02*
X4220182Y-12834079D01*
X4220182Y-12834079D02*
X4229706Y-12815031D01*
X4229706Y-12815031D02*
X4239229Y-12805508D01*
X4239229Y-12805508D02*
X4258277Y-12795984D01*
X4401134Y-12795984D02*
X4401134Y-12834079D01*
X4477325Y-12795984D02*
X4477325Y-12834079D01*
X4772563Y-13072174D02*
X4763039Y-13062650D01*
X4763039Y-13062650D02*
X4743991Y-13034079D01*
X4743991Y-13034079D02*
X4734468Y-13015031D01*
X4734468Y-13015031D02*
X4724944Y-12986460D01*
X4724944Y-12986460D02*
X4715420Y-12938841D01*
X4715420Y-12938841D02*
X4715420Y-12900746D01*
X4715420Y-12900746D02*
X4724944Y-12853127D01*
X4724944Y-12853127D02*
X4734468Y-12824555D01*
X4734468Y-12824555D02*
X4743991Y-12805508D01*
X4743991Y-12805508D02*
X4763039Y-12776936D01*
X4763039Y-12776936D02*
X4772563Y-12767412D01*
X4877325Y-12881698D02*
X4858277Y-12872174D01*
X4858277Y-12872174D02*
X4848753Y-12862650D01*
X4848753Y-12862650D02*
X4839230Y-12843603D01*
X4839230Y-12843603D02*
X4839230Y-12834079D01*
X4839230Y-12834079D02*
X4848753Y-12815031D01*
X4848753Y-12815031D02*
X4858277Y-12805508D01*
X4858277Y-12805508D02*
X4877325Y-12795984D01*
X4877325Y-12795984D02*
X4915420Y-12795984D01*
X4915420Y-12795984D02*
X4934468Y-12805508D01*
X4934468Y-12805508D02*
X4943991Y-12815031D01*
X4943991Y-12815031D02*
X4953515Y-12834079D01*
X4953515Y-12834079D02*
X4953515Y-12843603D01*
X4953515Y-12843603D02*
X4943991Y-12862650D01*
X4943991Y-12862650D02*
X4934468Y-12872174D01*
X4934468Y-12872174D02*
X4915420Y-12881698D01*
X4915420Y-12881698D02*
X4877325Y-12881698D01*
X4877325Y-12881698D02*
X4858277Y-12891222D01*
X4858277Y-12891222D02*
X4848753Y-12900746D01*
X4848753Y-12900746D02*
X4839230Y-12919793D01*
X4839230Y-12919793D02*
X4839230Y-12957888D01*
X4839230Y-12957888D02*
X4848753Y-12976936D01*
X4848753Y-12976936D02*
X4858277Y-12986460D01*
X4858277Y-12986460D02*
X4877325Y-12995984D01*
X4877325Y-12995984D02*
X4915420Y-12995984D01*
X4915420Y-12995984D02*
X4934468Y-12986460D01*
X4934468Y-12986460D02*
X4943991Y-12976936D01*
X4943991Y-12976936D02*
X4953515Y-12957888D01*
X4953515Y-12957888D02*
X4953515Y-12919793D01*
X4953515Y-12919793D02*
X4943991Y-12900746D01*
X4943991Y-12900746D02*
X4934468Y-12891222D01*
X4934468Y-12891222D02*
X4915420Y-12881698D01*
X5191611Y-12995984D02*
X5191611Y-12795984D01*
X5277325Y-12995984D02*
X5277325Y-12891222D01*
X5277325Y-12891222D02*
X5267801Y-12872174D01*
X5267801Y-12872174D02*
X5248753Y-12862650D01*
X5248753Y-12862650D02*
X5220182Y-12862650D01*
X5220182Y-12862650D02*
X5201134Y-12872174D01*
X5201134Y-12872174D02*
X5191611Y-12881698D01*
X5401134Y-12995984D02*
X5382087Y-12986460D01*
X5382087Y-12986460D02*
X5372563Y-12976936D01*
X5372563Y-12976936D02*
X5363039Y-12957888D01*
X5363039Y-12957888D02*
X5363039Y-12900746D01*
X5363039Y-12900746D02*
X5372563Y-12881698D01*
X5372563Y-12881698D02*
X5382087Y-12872174D01*
X5382087Y-12872174D02*
X5401134Y-12862650D01*
X5401134Y-12862650D02*
X5429706Y-12862650D01*
X5429706Y-12862650D02*
X5448753Y-12872174D01*
X5448753Y-12872174D02*
X5458277Y-12881698D01*
X5458277Y-12881698D02*
X5467801Y-12900746D01*
X5467801Y-12900746D02*
X5467801Y-12957888D01*
X5467801Y-12957888D02*
X5458277Y-12976936D01*
X5458277Y-12976936D02*
X5448753Y-12986460D01*
X5448753Y-12986460D02*
X5429706Y-12995984D01*
X5429706Y-12995984D02*
X5401134Y-12995984D01*
X5582087Y-12995984D02*
X5563039Y-12986460D01*
X5563039Y-12986460D02*
X5553515Y-12967412D01*
X5553515Y-12967412D02*
X5553515Y-12795984D01*
X5734468Y-12986460D02*
X5715420Y-12995984D01*
X5715420Y-12995984D02*
X5677325Y-12995984D01*
X5677325Y-12995984D02*
X5658277Y-12986460D01*
X5658277Y-12986460D02*
X5648753Y-12967412D01*
X5648753Y-12967412D02*
X5648753Y-12891222D01*
X5648753Y-12891222D02*
X5658277Y-12872174D01*
X5658277Y-12872174D02*
X5677325Y-12862650D01*
X5677325Y-12862650D02*
X5715420Y-12862650D01*
X5715420Y-12862650D02*
X5734468Y-12872174D01*
X5734468Y-12872174D02*
X5743991Y-12891222D01*
X5743991Y-12891222D02*
X5743991Y-12910269D01*
X5743991Y-12910269D02*
X5648753Y-12929317D01*
X5820182Y-12986460D02*
X5839230Y-12995984D01*
X5839230Y-12995984D02*
X5877325Y-12995984D01*
X5877325Y-12995984D02*
X5896372Y-12986460D01*
X5896372Y-12986460D02*
X5905896Y-12967412D01*
X5905896Y-12967412D02*
X5905896Y-12957888D01*
X5905896Y-12957888D02*
X5896372Y-12938841D01*
X5896372Y-12938841D02*
X5877325Y-12929317D01*
X5877325Y-12929317D02*
X5848753Y-12929317D01*
X5848753Y-12929317D02*
X5829706Y-12919793D01*
X5829706Y-12919793D02*
X5820182Y-12900746D01*
X5820182Y-12900746D02*
X5820182Y-12891222D01*
X5820182Y-12891222D02*
X5829706Y-12872174D01*
X5829706Y-12872174D02*
X5848753Y-12862650D01*
X5848753Y-12862650D02*
X5877325Y-12862650D01*
X5877325Y-12862650D02*
X5896372Y-12872174D01*
X5972563Y-13072174D02*
X5982087Y-13062650D01*
X5982087Y-13062650D02*
X6001134Y-13034079D01*
X6001134Y-13034079D02*
X6010658Y-13015031D01*
X6010658Y-13015031D02*
X6020182Y-12986460D01*
X6020182Y-12986460D02*
X6029706Y-12938841D01*
X6029706Y-12938841D02*
X6029706Y-12900746D01*
X6029706Y-12900746D02*
X6020182Y-12853127D01*
X6020182Y-12853127D02*
X6010658Y-12824555D01*
X6010658Y-12824555D02*
X6001134Y-12805508D01*
X6001134Y-12805508D02*
X5982087Y-12776936D01*
X5982087Y-12776936D02*
X5972563Y-12767412D01*
X997500Y-13084500D02*
X1197500Y-13284500D01*
X1197500Y-13084500D02*
X997500Y-13284500D01*
X1197500Y-13184500D02*
G75*
G02*
X997500Y-13184500I-100000J0D01*
G01*
X997500Y-13184500D02*
G75*
G02*
X1197500Y-13184500I100000J0D01*
G01*
X1448753Y-13095031D02*
X1458277Y-13085508D01*
X1458277Y-13085508D02*
X1477324Y-13075984D01*
X1477324Y-13075984D02*
X1524943Y-13075984D01*
X1524943Y-13075984D02*
X1543991Y-13085508D01*
X1543991Y-13085508D02*
X1553515Y-13095031D01*
X1553515Y-13095031D02*
X1563039Y-13114079D01*
X1563039Y-13114079D02*
X1563039Y-13133127D01*
X1563039Y-13133127D02*
X1553515Y-13161698D01*
X1553515Y-13161698D02*
X1439229Y-13275984D01*
X1439229Y-13275984D02*
X1563039Y-13275984D01*
X1648753Y-13256936D02*
X1658277Y-13266460D01*
X1658277Y-13266460D02*
X1648753Y-13275984D01*
X1648753Y-13275984D02*
X1639229Y-13266460D01*
X1639229Y-13266460D02*
X1648753Y-13256936D01*
X1648753Y-13256936D02*
X1648753Y-13275984D01*
X1782086Y-13075984D02*
X1801134Y-13075984D01*
X1801134Y-13075984D02*
X1820182Y-13085508D01*
X1820182Y-13085508D02*
X1829705Y-13095031D01*
X1829705Y-13095031D02*
X1839229Y-13114079D01*
X1839229Y-13114079D02*
X1848753Y-13152174D01*
X1848753Y-13152174D02*
X1848753Y-13199793D01*
X1848753Y-13199793D02*
X1839229Y-13237888D01*
X1839229Y-13237888D02*
X1829705Y-13256936D01*
X1829705Y-13256936D02*
X1820182Y-13266460D01*
X1820182Y-13266460D02*
X1801134Y-13275984D01*
X1801134Y-13275984D02*
X1782086Y-13275984D01*
X1782086Y-13275984D02*
X1763039Y-13266460D01*
X1763039Y-13266460D02*
X1753515Y-13256936D01*
X1753515Y-13256936D02*
X1743991Y-13237888D01*
X1743991Y-13237888D02*
X1734467Y-13199793D01*
X1734467Y-13199793D02*
X1734467Y-13152174D01*
X1734467Y-13152174D02*
X1743991Y-13114079D01*
X1743991Y-13114079D02*
X1753515Y-13095031D01*
X1753515Y-13095031D02*
X1763039Y-13085508D01*
X1763039Y-13085508D02*
X1782086Y-13075984D01*
X1972562Y-13075984D02*
X1991610Y-13075984D01*
X1991610Y-13075984D02*
X2010658Y-13085508D01*
X2010658Y-13085508D02*
X2020182Y-13095031D01*
X2020182Y-13095031D02*
X2029705Y-13114079D01*
X2029705Y-13114079D02*
X2039229Y-13152174D01*
X2039229Y-13152174D02*
X2039229Y-13199793D01*
X2039229Y-13199793D02*
X2029705Y-13237888D01*
X2029705Y-13237888D02*
X2020182Y-13256936D01*
X2020182Y-13256936D02*
X2010658Y-13266460D01*
X2010658Y-13266460D02*
X1991610Y-13275984D01*
X1991610Y-13275984D02*
X1972562Y-13275984D01*
X1972562Y-13275984D02*
X1953515Y-13266460D01*
X1953515Y-13266460D02*
X1943991Y-13256936D01*
X1943991Y-13256936D02*
X1934467Y-13237888D01*
X1934467Y-13237888D02*
X1924943Y-13199793D01*
X1924943Y-13199793D02*
X1924943Y-13152174D01*
X1924943Y-13152174D02*
X1934467Y-13114079D01*
X1934467Y-13114079D02*
X1943991Y-13095031D01*
X1943991Y-13095031D02*
X1953515Y-13085508D01*
X1953515Y-13085508D02*
X1972562Y-13075984D01*
X2163039Y-13075984D02*
X2182086Y-13075984D01*
X2182086Y-13075984D02*
X2201134Y-13085508D01*
X2201134Y-13085508D02*
X2210658Y-13095031D01*
X2210658Y-13095031D02*
X2220182Y-13114079D01*
X2220182Y-13114079D02*
X2229705Y-13152174D01*
X2229705Y-13152174D02*
X2229705Y-13199793D01*
X2229705Y-13199793D02*
X2220182Y-13237888D01*
X2220182Y-13237888D02*
X2210658Y-13256936D01*
X2210658Y-13256936D02*
X2201134Y-13266460D01*
X2201134Y-13266460D02*
X2182086Y-13275984D01*
X2182086Y-13275984D02*
X2163039Y-13275984D01*
X2163039Y-13275984D02*
X2143991Y-13266460D01*
X2143991Y-13266460D02*
X2134467Y-13256936D01*
X2134467Y-13256936D02*
X2124944Y-13237888D01*
X2124944Y-13237888D02*
X2115420Y-13199793D01*
X2115420Y-13199793D02*
X2115420Y-13152174D01*
X2115420Y-13152174D02*
X2124944Y-13114079D01*
X2124944Y-13114079D02*
X2134467Y-13095031D01*
X2134467Y-13095031D02*
X2143991Y-13085508D01*
X2143991Y-13085508D02*
X2163039Y-13075984D01*
X2315420Y-13275984D02*
X2315420Y-13142650D01*
X2315420Y-13161698D02*
X2324944Y-13152174D01*
X2324944Y-13152174D02*
X2343991Y-13142650D01*
X2343991Y-13142650D02*
X2372563Y-13142650D01*
X2372563Y-13142650D02*
X2391610Y-13152174D01*
X2391610Y-13152174D02*
X2401134Y-13171222D01*
X2401134Y-13171222D02*
X2401134Y-13275984D01*
X2401134Y-13171222D02*
X2410658Y-13152174D01*
X2410658Y-13152174D02*
X2429705Y-13142650D01*
X2429705Y-13142650D02*
X2458277Y-13142650D01*
X2458277Y-13142650D02*
X2477325Y-13152174D01*
X2477325Y-13152174D02*
X2486848Y-13171222D01*
X2486848Y-13171222D02*
X2486848Y-13275984D01*
X2582086Y-13275984D02*
X2582086Y-13142650D01*
X2582086Y-13161698D02*
X2591610Y-13152174D01*
X2591610Y-13152174D02*
X2610658Y-13142650D01*
X2610658Y-13142650D02*
X2639229Y-13142650D01*
X2639229Y-13142650D02*
X2658277Y-13152174D01*
X2658277Y-13152174D02*
X2667801Y-13171222D01*
X2667801Y-13171222D02*
X2667801Y-13275984D01*
X2667801Y-13171222D02*
X2677325Y-13152174D01*
X2677325Y-13152174D02*
X2696372Y-13142650D01*
X2696372Y-13142650D02*
X2724944Y-13142650D01*
X2724944Y-13142650D02*
X2743991Y-13152174D01*
X2743991Y-13152174D02*
X2753515Y-13171222D01*
X2753515Y-13171222D02*
X2753515Y-13275984D01*
X3143991Y-13066460D02*
X2972563Y-13323603D01*
X3401134Y-13075984D02*
X3420182Y-13075984D01*
X3420182Y-13075984D02*
X3439229Y-13085508D01*
X3439229Y-13085508D02*
X3448753Y-13095031D01*
X3448753Y-13095031D02*
X3458277Y-13114079D01*
X3458277Y-13114079D02*
X3467801Y-13152174D01*
X3467801Y-13152174D02*
X3467801Y-13199793D01*
X3467801Y-13199793D02*
X3458277Y-13237888D01*
X3458277Y-13237888D02*
X3448753Y-13256936D01*
X3448753Y-13256936D02*
X3439229Y-13266460D01*
X3439229Y-13266460D02*
X3420182Y-13275984D01*
X3420182Y-13275984D02*
X3401134Y-13275984D01*
X3401134Y-13275984D02*
X3382086Y-13266460D01*
X3382086Y-13266460D02*
X3372563Y-13256936D01*
X3372563Y-13256936D02*
X3363039Y-13237888D01*
X3363039Y-13237888D02*
X3353515Y-13199793D01*
X3353515Y-13199793D02*
X3353515Y-13152174D01*
X3353515Y-13152174D02*
X3363039Y-13114079D01*
X3363039Y-13114079D02*
X3372563Y-13095031D01*
X3372563Y-13095031D02*
X3382086Y-13085508D01*
X3382086Y-13085508D02*
X3401134Y-13075984D01*
X3553515Y-13256936D02*
X3563039Y-13266460D01*
X3563039Y-13266460D02*
X3553515Y-13275984D01*
X3553515Y-13275984D02*
X3543991Y-13266460D01*
X3543991Y-13266460D02*
X3553515Y-13256936D01*
X3553515Y-13256936D02*
X3553515Y-13275984D01*
X3686848Y-13075984D02*
X3705896Y-13075984D01*
X3705896Y-13075984D02*
X3724944Y-13085508D01*
X3724944Y-13085508D02*
X3734467Y-13095031D01*
X3734467Y-13095031D02*
X3743991Y-13114079D01*
X3743991Y-13114079D02*
X3753515Y-13152174D01*
X3753515Y-13152174D02*
X3753515Y-13199793D01*
X3753515Y-13199793D02*
X3743991Y-13237888D01*
X3743991Y-13237888D02*
X3734467Y-13256936D01*
X3734467Y-13256936D02*
X3724944Y-13266460D01*
X3724944Y-13266460D02*
X3705896Y-13275984D01*
X3705896Y-13275984D02*
X3686848Y-13275984D01*
X3686848Y-13275984D02*
X3667801Y-13266460D01*
X3667801Y-13266460D02*
X3658277Y-13256936D01*
X3658277Y-13256936D02*
X3648753Y-13237888D01*
X3648753Y-13237888D02*
X3639229Y-13199793D01*
X3639229Y-13199793D02*
X3639229Y-13152174D01*
X3639229Y-13152174D02*
X3648753Y-13114079D01*
X3648753Y-13114079D02*
X3658277Y-13095031D01*
X3658277Y-13095031D02*
X3667801Y-13085508D01*
X3667801Y-13085508D02*
X3686848Y-13075984D01*
X3820182Y-13075984D02*
X3953515Y-13075984D01*
X3953515Y-13075984D02*
X3867801Y-13275984D01*
X4058277Y-13161698D02*
X4039229Y-13152174D01*
X4039229Y-13152174D02*
X4029706Y-13142650D01*
X4029706Y-13142650D02*
X4020182Y-13123603D01*
X4020182Y-13123603D02*
X4020182Y-13114079D01*
X4020182Y-13114079D02*
X4029706Y-13095031D01*
X4029706Y-13095031D02*
X4039229Y-13085508D01*
X4039229Y-13085508D02*
X4058277Y-13075984D01*
X4058277Y-13075984D02*
X4096372Y-13075984D01*
X4096372Y-13075984D02*
X4115420Y-13085508D01*
X4115420Y-13085508D02*
X4124944Y-13095031D01*
X4124944Y-13095031D02*
X4134467Y-13114079D01*
X4134467Y-13114079D02*
X4134467Y-13123603D01*
X4134467Y-13123603D02*
X4124944Y-13142650D01*
X4124944Y-13142650D02*
X4115420Y-13152174D01*
X4115420Y-13152174D02*
X4096372Y-13161698D01*
X4096372Y-13161698D02*
X4058277Y-13161698D01*
X4058277Y-13161698D02*
X4039229Y-13171222D01*
X4039229Y-13171222D02*
X4029706Y-13180746D01*
X4029706Y-13180746D02*
X4020182Y-13199793D01*
X4020182Y-13199793D02*
X4020182Y-13237888D01*
X4020182Y-13237888D02*
X4029706Y-13256936D01*
X4029706Y-13256936D02*
X4039229Y-13266460D01*
X4039229Y-13266460D02*
X4058277Y-13275984D01*
X4058277Y-13275984D02*
X4096372Y-13275984D01*
X4096372Y-13275984D02*
X4115420Y-13266460D01*
X4115420Y-13266460D02*
X4124944Y-13256936D01*
X4124944Y-13256936D02*
X4134467Y-13237888D01*
X4134467Y-13237888D02*
X4134467Y-13199793D01*
X4134467Y-13199793D02*
X4124944Y-13180746D01*
X4124944Y-13180746D02*
X4115420Y-13171222D01*
X4115420Y-13171222D02*
X4096372Y-13161698D01*
X4201134Y-13075984D02*
X4334468Y-13075984D01*
X4334468Y-13075984D02*
X4248753Y-13275984D01*
X4401134Y-13075984D02*
X4401134Y-13114079D01*
X4477325Y-13075984D02*
X4477325Y-13114079D01*
X4772563Y-13352174D02*
X4763039Y-13342650D01*
X4763039Y-13342650D02*
X4743991Y-13314079D01*
X4743991Y-13314079D02*
X4734468Y-13295031D01*
X4734468Y-13295031D02*
X4724944Y-13266460D01*
X4724944Y-13266460D02*
X4715420Y-13218841D01*
X4715420Y-13218841D02*
X4715420Y-13180746D01*
X4715420Y-13180746D02*
X4724944Y-13133127D01*
X4724944Y-13133127D02*
X4734468Y-13104555D01*
X4734468Y-13104555D02*
X4743991Y-13085508D01*
X4743991Y-13085508D02*
X4763039Y-13056936D01*
X4763039Y-13056936D02*
X4772563Y-13047412D01*
X4953515Y-13275984D02*
X4839230Y-13275984D01*
X4896372Y-13275984D02*
X4896372Y-13075984D01*
X4896372Y-13075984D02*
X4877325Y-13104555D01*
X4877325Y-13104555D02*
X4858277Y-13123603D01*
X4858277Y-13123603D02*
X4839230Y-13133127D01*
X5191611Y-13275984D02*
X5191611Y-13075984D01*
X5277325Y-13275984D02*
X5277325Y-13171222D01*
X5277325Y-13171222D02*
X5267801Y-13152174D01*
X5267801Y-13152174D02*
X5248753Y-13142650D01*
X5248753Y-13142650D02*
X5220182Y-13142650D01*
X5220182Y-13142650D02*
X5201134Y-13152174D01*
X5201134Y-13152174D02*
X5191611Y-13161698D01*
X5401134Y-13275984D02*
X5382087Y-13266460D01*
X5382087Y-13266460D02*
X5372563Y-13256936D01*
X5372563Y-13256936D02*
X5363039Y-13237888D01*
X5363039Y-13237888D02*
X5363039Y-13180746D01*
X5363039Y-13180746D02*
X5372563Y-13161698D01*
X5372563Y-13161698D02*
X5382087Y-13152174D01*
X5382087Y-13152174D02*
X5401134Y-13142650D01*
X5401134Y-13142650D02*
X5429706Y-13142650D01*
X5429706Y-13142650D02*
X5448753Y-13152174D01*
X5448753Y-13152174D02*
X5458277Y-13161698D01*
X5458277Y-13161698D02*
X5467801Y-13180746D01*
X5467801Y-13180746D02*
X5467801Y-13237888D01*
X5467801Y-13237888D02*
X5458277Y-13256936D01*
X5458277Y-13256936D02*
X5448753Y-13266460D01*
X5448753Y-13266460D02*
X5429706Y-13275984D01*
X5429706Y-13275984D02*
X5401134Y-13275984D01*
X5582087Y-13275984D02*
X5563039Y-13266460D01*
X5563039Y-13266460D02*
X5553515Y-13247412D01*
X5553515Y-13247412D02*
X5553515Y-13075984D01*
X5734468Y-13266460D02*
X5715420Y-13275984D01*
X5715420Y-13275984D02*
X5677325Y-13275984D01*
X5677325Y-13275984D02*
X5658277Y-13266460D01*
X5658277Y-13266460D02*
X5648753Y-13247412D01*
X5648753Y-13247412D02*
X5648753Y-13171222D01*
X5648753Y-13171222D02*
X5658277Y-13152174D01*
X5658277Y-13152174D02*
X5677325Y-13142650D01*
X5677325Y-13142650D02*
X5715420Y-13142650D01*
X5715420Y-13142650D02*
X5734468Y-13152174D01*
X5734468Y-13152174D02*
X5743991Y-13171222D01*
X5743991Y-13171222D02*
X5743991Y-13190269D01*
X5743991Y-13190269D02*
X5648753Y-13209317D01*
X5810658Y-13352174D02*
X5820182Y-13342650D01*
X5820182Y-13342650D02*
X5839230Y-13314079D01*
X5839230Y-13314079D02*
X5848753Y-13295031D01*
X5848753Y-13295031D02*
X5858277Y-13266460D01*
X5858277Y-13266460D02*
X5867801Y-13218841D01*
X5867801Y-13218841D02*
X5867801Y-13180746D01*
X5867801Y-13180746D02*
X5858277Y-13133127D01*
X5858277Y-13133127D02*
X5848753Y-13104555D01*
X5848753Y-13104555D02*
X5839230Y-13085508D01*
X5839230Y-13085508D02*
X5820182Y-13056936D01*
X5820182Y-13056936D02*
X5810658Y-13047412D01*
X997500Y-13404500D02*
X1197500Y-13604500D01*
X1197500Y-13404500D02*
X997500Y-13604500D01*
X1097500Y-13404500D02*
X1097500Y-13604500D01*
X997500Y-13504500D02*
X1197500Y-13504500D01*
X1543991Y-13462650D02*
X1543991Y-13595984D01*
X1496372Y-13386460D02*
X1448753Y-13529317D01*
X1448753Y-13529317D02*
X1572562Y-13529317D01*
X1648753Y-13576936D02*
X1658277Y-13586460D01*
X1658277Y-13586460D02*
X1648753Y-13595984D01*
X1648753Y-13595984D02*
X1639229Y-13586460D01*
X1639229Y-13586460D02*
X1648753Y-13576936D01*
X1648753Y-13576936D02*
X1648753Y-13595984D01*
X1724943Y-13395984D02*
X1848753Y-13395984D01*
X1848753Y-13395984D02*
X1782086Y-13472174D01*
X1782086Y-13472174D02*
X1810658Y-13472174D01*
X1810658Y-13472174D02*
X1829705Y-13481698D01*
X1829705Y-13481698D02*
X1839229Y-13491222D01*
X1839229Y-13491222D02*
X1848753Y-13510269D01*
X1848753Y-13510269D02*
X1848753Y-13557888D01*
X1848753Y-13557888D02*
X1839229Y-13576936D01*
X1839229Y-13576936D02*
X1829705Y-13586460D01*
X1829705Y-13586460D02*
X1810658Y-13595984D01*
X1810658Y-13595984D02*
X1753515Y-13595984D01*
X1753515Y-13595984D02*
X1734467Y-13586460D01*
X1734467Y-13586460D02*
X1724943Y-13576936D01*
X1972562Y-13395984D02*
X1991610Y-13395984D01*
X1991610Y-13395984D02*
X2010658Y-13405508D01*
X2010658Y-13405508D02*
X2020182Y-13415031D01*
X2020182Y-13415031D02*
X2029705Y-13434079D01*
X2029705Y-13434079D02*
X2039229Y-13472174D01*
X2039229Y-13472174D02*
X2039229Y-13519793D01*
X2039229Y-13519793D02*
X2029705Y-13557888D01*
X2029705Y-13557888D02*
X2020182Y-13576936D01*
X2020182Y-13576936D02*
X2010658Y-13586460D01*
X2010658Y-13586460D02*
X1991610Y-13595984D01*
X1991610Y-13595984D02*
X1972562Y-13595984D01*
X1972562Y-13595984D02*
X1953515Y-13586460D01*
X1953515Y-13586460D02*
X1943991Y-13576936D01*
X1943991Y-13576936D02*
X1934467Y-13557888D01*
X1934467Y-13557888D02*
X1924943Y-13519793D01*
X1924943Y-13519793D02*
X1924943Y-13472174D01*
X1924943Y-13472174D02*
X1934467Y-13434079D01*
X1934467Y-13434079D02*
X1943991Y-13415031D01*
X1943991Y-13415031D02*
X1953515Y-13405508D01*
X1953515Y-13405508D02*
X1972562Y-13395984D01*
X2163039Y-13395984D02*
X2182086Y-13395984D01*
X2182086Y-13395984D02*
X2201134Y-13405508D01*
X2201134Y-13405508D02*
X2210658Y-13415031D01*
X2210658Y-13415031D02*
X2220182Y-13434079D01*
X2220182Y-13434079D02*
X2229705Y-13472174D01*
X2229705Y-13472174D02*
X2229705Y-13519793D01*
X2229705Y-13519793D02*
X2220182Y-13557888D01*
X2220182Y-13557888D02*
X2210658Y-13576936D01*
X2210658Y-13576936D02*
X2201134Y-13586460D01*
X2201134Y-13586460D02*
X2182086Y-13595984D01*
X2182086Y-13595984D02*
X2163039Y-13595984D01*
X2163039Y-13595984D02*
X2143991Y-13586460D01*
X2143991Y-13586460D02*
X2134467Y-13576936D01*
X2134467Y-13576936D02*
X2124944Y-13557888D01*
X2124944Y-13557888D02*
X2115420Y-13519793D01*
X2115420Y-13519793D02*
X2115420Y-13472174D01*
X2115420Y-13472174D02*
X2124944Y-13434079D01*
X2124944Y-13434079D02*
X2134467Y-13415031D01*
X2134467Y-13415031D02*
X2143991Y-13405508D01*
X2143991Y-13405508D02*
X2163039Y-13395984D01*
X2315420Y-13595984D02*
X2315420Y-13462650D01*
X2315420Y-13481698D02*
X2324944Y-13472174D01*
X2324944Y-13472174D02*
X2343991Y-13462650D01*
X2343991Y-13462650D02*
X2372563Y-13462650D01*
X2372563Y-13462650D02*
X2391610Y-13472174D01*
X2391610Y-13472174D02*
X2401134Y-13491222D01*
X2401134Y-13491222D02*
X2401134Y-13595984D01*
X2401134Y-13491222D02*
X2410658Y-13472174D01*
X2410658Y-13472174D02*
X2429705Y-13462650D01*
X2429705Y-13462650D02*
X2458277Y-13462650D01*
X2458277Y-13462650D02*
X2477325Y-13472174D01*
X2477325Y-13472174D02*
X2486848Y-13491222D01*
X2486848Y-13491222D02*
X2486848Y-13595984D01*
X2582086Y-13595984D02*
X2582086Y-13462650D01*
X2582086Y-13481698D02*
X2591610Y-13472174D01*
X2591610Y-13472174D02*
X2610658Y-13462650D01*
X2610658Y-13462650D02*
X2639229Y-13462650D01*
X2639229Y-13462650D02*
X2658277Y-13472174D01*
X2658277Y-13472174D02*
X2667801Y-13491222D01*
X2667801Y-13491222D02*
X2667801Y-13595984D01*
X2667801Y-13491222D02*
X2677325Y-13472174D01*
X2677325Y-13472174D02*
X2696372Y-13462650D01*
X2696372Y-13462650D02*
X2724944Y-13462650D01*
X2724944Y-13462650D02*
X2743991Y-13472174D01*
X2743991Y-13472174D02*
X2753515Y-13491222D01*
X2753515Y-13491222D02*
X2753515Y-13595984D01*
X3143991Y-13386460D02*
X2972563Y-13643603D01*
X3401134Y-13395984D02*
X3420182Y-13395984D01*
X3420182Y-13395984D02*
X3439229Y-13405508D01*
X3439229Y-13405508D02*
X3448753Y-13415031D01*
X3448753Y-13415031D02*
X3458277Y-13434079D01*
X3458277Y-13434079D02*
X3467801Y-13472174D01*
X3467801Y-13472174D02*
X3467801Y-13519793D01*
X3467801Y-13519793D02*
X3458277Y-13557888D01*
X3458277Y-13557888D02*
X3448753Y-13576936D01*
X3448753Y-13576936D02*
X3439229Y-13586460D01*
X3439229Y-13586460D02*
X3420182Y-13595984D01*
X3420182Y-13595984D02*
X3401134Y-13595984D01*
X3401134Y-13595984D02*
X3382086Y-13586460D01*
X3382086Y-13586460D02*
X3372563Y-13576936D01*
X3372563Y-13576936D02*
X3363039Y-13557888D01*
X3363039Y-13557888D02*
X3353515Y-13519793D01*
X3353515Y-13519793D02*
X3353515Y-13472174D01*
X3353515Y-13472174D02*
X3363039Y-13434079D01*
X3363039Y-13434079D02*
X3372563Y-13415031D01*
X3372563Y-13415031D02*
X3382086Y-13405508D01*
X3382086Y-13405508D02*
X3401134Y-13395984D01*
X3553515Y-13576936D02*
X3563039Y-13586460D01*
X3563039Y-13586460D02*
X3553515Y-13595984D01*
X3553515Y-13595984D02*
X3543991Y-13586460D01*
X3543991Y-13586460D02*
X3553515Y-13576936D01*
X3553515Y-13576936D02*
X3553515Y-13595984D01*
X3753515Y-13595984D02*
X3639229Y-13595984D01*
X3696372Y-13595984D02*
X3696372Y-13395984D01*
X3696372Y-13395984D02*
X3677325Y-13424555D01*
X3677325Y-13424555D02*
X3658277Y-13443603D01*
X3658277Y-13443603D02*
X3639229Y-13453127D01*
X3924944Y-13395984D02*
X3886848Y-13395984D01*
X3886848Y-13395984D02*
X3867801Y-13405508D01*
X3867801Y-13405508D02*
X3858277Y-13415031D01*
X3858277Y-13415031D02*
X3839229Y-13443603D01*
X3839229Y-13443603D02*
X3829706Y-13481698D01*
X3829706Y-13481698D02*
X3829706Y-13557888D01*
X3829706Y-13557888D02*
X3839229Y-13576936D01*
X3839229Y-13576936D02*
X3848753Y-13586460D01*
X3848753Y-13586460D02*
X3867801Y-13595984D01*
X3867801Y-13595984D02*
X3905896Y-13595984D01*
X3905896Y-13595984D02*
X3924944Y-13586460D01*
X3924944Y-13586460D02*
X3934467Y-13576936D01*
X3934467Y-13576936D02*
X3943991Y-13557888D01*
X3943991Y-13557888D02*
X3943991Y-13510269D01*
X3943991Y-13510269D02*
X3934467Y-13491222D01*
X3934467Y-13491222D02*
X3924944Y-13481698D01*
X3924944Y-13481698D02*
X3905896Y-13472174D01*
X3905896Y-13472174D02*
X3867801Y-13472174D01*
X3867801Y-13472174D02*
X3848753Y-13481698D01*
X3848753Y-13481698D02*
X3839229Y-13491222D01*
X3839229Y-13491222D02*
X3829706Y-13510269D01*
X4039229Y-13595984D02*
X4077325Y-13595984D01*
X4077325Y-13595984D02*
X4096372Y-13586460D01*
X4096372Y-13586460D02*
X4105896Y-13576936D01*
X4105896Y-13576936D02*
X4124944Y-13548365D01*
X4124944Y-13548365D02*
X4134467Y-13510269D01*
X4134467Y-13510269D02*
X4134467Y-13434079D01*
X4134467Y-13434079D02*
X4124944Y-13415031D01*
X4124944Y-13415031D02*
X4115420Y-13405508D01*
X4115420Y-13405508D02*
X4096372Y-13395984D01*
X4096372Y-13395984D02*
X4058277Y-13395984D01*
X4058277Y-13395984D02*
X4039229Y-13405508D01*
X4039229Y-13405508D02*
X4029706Y-13415031D01*
X4029706Y-13415031D02*
X4020182Y-13434079D01*
X4020182Y-13434079D02*
X4020182Y-13481698D01*
X4020182Y-13481698D02*
X4029706Y-13500746D01*
X4029706Y-13500746D02*
X4039229Y-13510269D01*
X4039229Y-13510269D02*
X4058277Y-13519793D01*
X4058277Y-13519793D02*
X4096372Y-13519793D01*
X4096372Y-13519793D02*
X4115420Y-13510269D01*
X4115420Y-13510269D02*
X4124944Y-13500746D01*
X4124944Y-13500746D02*
X4134467Y-13481698D01*
X4201134Y-13395984D02*
X4324944Y-13395984D01*
X4324944Y-13395984D02*
X4258277Y-13472174D01*
X4258277Y-13472174D02*
X4286849Y-13472174D01*
X4286849Y-13472174D02*
X4305896Y-13481698D01*
X4305896Y-13481698D02*
X4315420Y-13491222D01*
X4315420Y-13491222D02*
X4324944Y-13510269D01*
X4324944Y-13510269D02*
X4324944Y-13557888D01*
X4324944Y-13557888D02*
X4315420Y-13576936D01*
X4315420Y-13576936D02*
X4305896Y-13586460D01*
X4305896Y-13586460D02*
X4286849Y-13595984D01*
X4286849Y-13595984D02*
X4229706Y-13595984D01*
X4229706Y-13595984D02*
X4210658Y-13586460D01*
X4210658Y-13586460D02*
X4201134Y-13576936D01*
X4401134Y-13395984D02*
X4401134Y-13434079D01*
X4477325Y-13395984D02*
X4477325Y-13434079D01*
X4772563Y-13672174D02*
X4763039Y-13662650D01*
X4763039Y-13662650D02*
X4743991Y-13634079D01*
X4743991Y-13634079D02*
X4734468Y-13615031D01*
X4734468Y-13615031D02*
X4724944Y-13586460D01*
X4724944Y-13586460D02*
X4715420Y-13538841D01*
X4715420Y-13538841D02*
X4715420Y-13500746D01*
X4715420Y-13500746D02*
X4724944Y-13453127D01*
X4724944Y-13453127D02*
X4734468Y-13424555D01*
X4734468Y-13424555D02*
X4743991Y-13405508D01*
X4743991Y-13405508D02*
X4763039Y-13376936D01*
X4763039Y-13376936D02*
X4772563Y-13367412D01*
X4934468Y-13462650D02*
X4934468Y-13595984D01*
X4886849Y-13386460D02*
X4839230Y-13529317D01*
X4839230Y-13529317D02*
X4963039Y-13529317D01*
X5191611Y-13595984D02*
X5191611Y-13395984D01*
X5277325Y-13595984D02*
X5277325Y-13491222D01*
X5277325Y-13491222D02*
X5267801Y-13472174D01*
X5267801Y-13472174D02*
X5248753Y-13462650D01*
X5248753Y-13462650D02*
X5220182Y-13462650D01*
X5220182Y-13462650D02*
X5201134Y-13472174D01*
X5201134Y-13472174D02*
X5191611Y-13481698D01*
X5401134Y-13595984D02*
X5382087Y-13586460D01*
X5382087Y-13586460D02*
X5372563Y-13576936D01*
X5372563Y-13576936D02*
X5363039Y-13557888D01*
X5363039Y-13557888D02*
X5363039Y-13500746D01*
X5363039Y-13500746D02*
X5372563Y-13481698D01*
X5372563Y-13481698D02*
X5382087Y-13472174D01*
X5382087Y-13472174D02*
X5401134Y-13462650D01*
X5401134Y-13462650D02*
X5429706Y-13462650D01*
X5429706Y-13462650D02*
X5448753Y-13472174D01*
X5448753Y-13472174D02*
X5458277Y-13481698D01*
X5458277Y-13481698D02*
X5467801Y-13500746D01*
X5467801Y-13500746D02*
X5467801Y-13557888D01*
X5467801Y-13557888D02*
X5458277Y-13576936D01*
X5458277Y-13576936D02*
X5448753Y-13586460D01*
X5448753Y-13586460D02*
X5429706Y-13595984D01*
X5429706Y-13595984D02*
X5401134Y-13595984D01*
X5582087Y-13595984D02*
X5563039Y-13586460D01*
X5563039Y-13586460D02*
X5553515Y-13567412D01*
X5553515Y-13567412D02*
X5553515Y-13395984D01*
X5734468Y-13586460D02*
X5715420Y-13595984D01*
X5715420Y-13595984D02*
X5677325Y-13595984D01*
X5677325Y-13595984D02*
X5658277Y-13586460D01*
X5658277Y-13586460D02*
X5648753Y-13567412D01*
X5648753Y-13567412D02*
X5648753Y-13491222D01*
X5648753Y-13491222D02*
X5658277Y-13472174D01*
X5658277Y-13472174D02*
X5677325Y-13462650D01*
X5677325Y-13462650D02*
X5715420Y-13462650D01*
X5715420Y-13462650D02*
X5734468Y-13472174D01*
X5734468Y-13472174D02*
X5743991Y-13491222D01*
X5743991Y-13491222D02*
X5743991Y-13510269D01*
X5743991Y-13510269D02*
X5648753Y-13529317D01*
X5820182Y-13586460D02*
X5839230Y-13595984D01*
X5839230Y-13595984D02*
X5877325Y-13595984D01*
X5877325Y-13595984D02*
X5896372Y-13586460D01*
X5896372Y-13586460D02*
X5905896Y-13567412D01*
X5905896Y-13567412D02*
X5905896Y-13557888D01*
X5905896Y-13557888D02*
X5896372Y-13538841D01*
X5896372Y-13538841D02*
X5877325Y-13529317D01*
X5877325Y-13529317D02*
X5848753Y-13529317D01*
X5848753Y-13529317D02*
X5829706Y-13519793D01*
X5829706Y-13519793D02*
X5820182Y-13500746D01*
X5820182Y-13500746D02*
X5820182Y-13491222D01*
X5820182Y-13491222D02*
X5829706Y-13472174D01*
X5829706Y-13472174D02*
X5848753Y-13462650D01*
X5848753Y-13462650D02*
X5877325Y-13462650D01*
X5877325Y-13462650D02*
X5896372Y-13472174D01*
X5972563Y-13672174D02*
X5982087Y-13662650D01*
X5982087Y-13662650D02*
X6001134Y-13634079D01*
X6001134Y-13634079D02*
X6010658Y-13615031D01*
X6010658Y-13615031D02*
X6020182Y-13586460D01*
X6020182Y-13586460D02*
X6029706Y-13538841D01*
X6029706Y-13538841D02*
X6029706Y-13500746D01*
X6029706Y-13500746D02*
X6020182Y-13453127D01*
X6020182Y-13453127D02*
X6010658Y-13424555D01*
X6010658Y-13424555D02*
X6001134Y-13405508D01*
X6001134Y-13405508D02*
X5982087Y-13376936D01*
X5982087Y-13376936D02*
X5972563Y-13367412D01*
M02*
