%TF.GenerationSoftware,KiCad,Pcbnew,8.0.3*%
%TF.CreationDate,2024-11-19T22:16:26+01:00*%
%TF.ProjectId,weerstation-main,77656572-7374-4617-9469-6f6e2d6d6169,rev?*%
%TF.SameCoordinates,Original*%
%TF.FileFunction,Drillmap*%
%TF.FilePolarity,Positive*%
%FSLAX45Y45*%
G04 Gerber Fmt 4.5, Leading zero omitted, Abs format (unit mm)*
G04 Created by KiCad (PCBNEW 8.0.3) date 2024-11-19 22:16:26*
%MOMM*%
%LPD*%
G01*
G04 APERTURE LIST*
%ADD10C,0.100000*%
%ADD11C,0.200000*%
%ADD12C,0.120000*%
%ADD13C,0.300000*%
G04 APERTURE END LIST*
D10*
X1350000Y-1270000D02*
X11350000Y-1270000D01*
X11350000Y-11270000D01*
X1350000Y-11270000D01*
X1350000Y-1270000D01*
D11*
D10*
X2545400Y-1377000D02*
X2585400Y-1417000D01*
X2585400Y-1377000D02*
X2545400Y-1417000D01*
X2545400Y-1317000D02*
X2545400Y-1477000D01*
X2585400Y-1477000D02*
G75*
G02*
X2545400Y-1477000I-20000J0D01*
G01*
X2585400Y-1477000D02*
X2585400Y-1317000D01*
X2585400Y-1317000D02*
G75*
G03*
X2545400Y-1317000I-20000J0D01*
G01*
X2545400Y-1707200D02*
X2585400Y-1747200D01*
X2585400Y-1707200D02*
X2545400Y-1747200D01*
X2545400Y-1647200D02*
X2545400Y-1807200D01*
X2585400Y-1807200D02*
G75*
G02*
X2545400Y-1807200I-20000J0D01*
G01*
X2585400Y-1807200D02*
X2585400Y-1647200D01*
X2585400Y-1647200D02*
G75*
G03*
X2545400Y-1647200I-20000J0D01*
G01*
X2545400Y-2005200D02*
X2585400Y-2045200D01*
X2585400Y-2005200D02*
X2545400Y-2045200D01*
X2545400Y-1945200D02*
X2545400Y-2105200D01*
X2585400Y-2105200D02*
G75*
G02*
X2545400Y-2105200I-20000J0D01*
G01*
X2585400Y-2105200D02*
X2585400Y-1945200D01*
X2585400Y-1945200D02*
G75*
G03*
X2545400Y-1945200I-20000J0D01*
G01*
X2697800Y-2215200D02*
X2737800Y-2255200D01*
X2737800Y-2215200D02*
X2697800Y-2255200D01*
X2637800Y-2255200D02*
X2797800Y-2255200D01*
X2797800Y-2215200D02*
G75*
G02*
X2797800Y-2255200I0J-20000D01*
G01*
X2797800Y-2215200D02*
X2637800Y-2215200D01*
X2637800Y-2215200D02*
G75*
G03*
X2637800Y-2255200I0J-20000D01*
G01*
X3053400Y-2215200D02*
X3093400Y-2255200D01*
X3093400Y-2215200D02*
X3053400Y-2255200D01*
X2993400Y-2255200D02*
X3153400Y-2255200D01*
X3153400Y-2215200D02*
G75*
G02*
X3153400Y-2255200I0J-20000D01*
G01*
X3153400Y-2215200D02*
X2993400Y-2215200D01*
X2993400Y-2215200D02*
G75*
G03*
X2993400Y-2255200I0J-20000D01*
G01*
X3409000Y-2215200D02*
X3449000Y-2255200D01*
X3449000Y-2215200D02*
X3409000Y-2255200D01*
X3349000Y-2255200D02*
X3509000Y-2255200D01*
X3509000Y-2215200D02*
G75*
G02*
X3509000Y-2255200I0J-20000D01*
G01*
X3509000Y-2215200D02*
X3349000Y-2215200D01*
X3349000Y-2215200D02*
G75*
G03*
X3349000Y-2255200I0J-20000D01*
G01*
X3739200Y-2215200D02*
X3779200Y-2255200D01*
X3779200Y-2215200D02*
X3739200Y-2255200D01*
X3679200Y-2255200D02*
X3839200Y-2255200D01*
X3839200Y-2215200D02*
G75*
G02*
X3839200Y-2255200I0J-20000D01*
G01*
X3839200Y-2215200D02*
X3679200Y-2215200D01*
X3679200Y-2215200D02*
G75*
G03*
X3679200Y-2255200I0J-20000D01*
G01*
X4094800Y-2215200D02*
X4134800Y-2255200D01*
X4134800Y-2215200D02*
X4094800Y-2255200D01*
X4034800Y-2255200D02*
X4194800Y-2255200D01*
X4194800Y-2215200D02*
G75*
G02*
X4194800Y-2255200I0J-20000D01*
G01*
X4194800Y-2215200D02*
X4034800Y-2215200D01*
X4034800Y-2215200D02*
G75*
G03*
X4034800Y-2255200I0J-20000D01*
G01*
X4399600Y-2215200D02*
X4439600Y-2255200D01*
X4439600Y-2215200D02*
X4399600Y-2255200D01*
X4339600Y-2255200D02*
X4499600Y-2255200D01*
X4499600Y-2215200D02*
G75*
G02*
X4499600Y-2255200I0J-20000D01*
G01*
X4499600Y-2215200D02*
X4339600Y-2215200D01*
X4339600Y-2215200D02*
G75*
G03*
X4339600Y-2255200I0J-20000D01*
G01*
X4475800Y-1377000D02*
X4515800Y-1417000D01*
X4515800Y-1377000D02*
X4475800Y-1417000D01*
X4475800Y-1317000D02*
X4475800Y-1477000D01*
X4515800Y-1477000D02*
G75*
G02*
X4475800Y-1477000I-20000J0D01*
G01*
X4515800Y-1477000D02*
X4515800Y-1317000D01*
X4515800Y-1317000D02*
G75*
G03*
X4475800Y-1317000I-20000J0D01*
G01*
X4475800Y-1681800D02*
X4515800Y-1721800D01*
X4515800Y-1681800D02*
X4475800Y-1721800D01*
X4475800Y-1621800D02*
X4475800Y-1781800D01*
X4515800Y-1781800D02*
G75*
G02*
X4475800Y-1781800I-20000J0D01*
G01*
X4515800Y-1781800D02*
X4515800Y-1621800D01*
X4515800Y-1621800D02*
G75*
G03*
X4475800Y-1621800I-20000J0D01*
G01*
X4475800Y-1986600D02*
X4515800Y-2026600D01*
X4515800Y-1986600D02*
X4475800Y-2026600D01*
X4475800Y-1926600D02*
X4475800Y-2086600D01*
X4515800Y-2086600D02*
G75*
G02*
X4475800Y-2086600I-20000J0D01*
G01*
X4515800Y-2086600D02*
X4515800Y-1926600D01*
X4515800Y-1926600D02*
G75*
G03*
X4475800Y-1926600I-20000J0D01*
G01*
D12*
X2194000Y-10595000D02*
G75*
G02*
X2074000Y-10595000I-60000J0D01*
G01*
X2074000Y-10595000D02*
G75*
G02*
X2194000Y-10595000I60000J0D01*
G01*
X3819200Y-10595000D02*
G75*
G02*
X3699200Y-10595000I-60000J0D01*
G01*
X3699200Y-10595000D02*
G75*
G02*
X3819200Y-10595000I60000J0D01*
G01*
X5488000Y-10595000D02*
G75*
G02*
X5368000Y-10595000I-60000J0D01*
G01*
X5368000Y-10595000D02*
G75*
G02*
X5488000Y-10595000I60000J0D01*
G01*
D13*
X2287360Y-1317580D02*
X2287360Y-1617580D01*
X2137360Y-1467580D02*
X2437360Y-1467580D01*
X2287360Y-6012580D02*
X2287360Y-6312580D01*
X2137360Y-6162580D02*
X2437360Y-6162580D01*
X4738360Y-1317580D02*
X4738360Y-1617580D01*
X4588360Y-1467580D02*
X4888360Y-1467580D01*
X4738360Y-6012580D02*
X4738360Y-6312580D01*
X4588360Y-6162580D02*
X4888360Y-6162580D01*
D11*
X1605777Y-11586484D02*
X1605777Y-11386484D01*
X1605777Y-11386484D02*
X1653396Y-11386484D01*
X1653396Y-11386484D02*
X1681967Y-11396008D01*
X1681967Y-11396008D02*
X1701015Y-11415055D01*
X1701015Y-11415055D02*
X1710539Y-11434103D01*
X1710539Y-11434103D02*
X1720062Y-11472198D01*
X1720062Y-11472198D02*
X1720062Y-11500769D01*
X1720062Y-11500769D02*
X1710539Y-11538865D01*
X1710539Y-11538865D02*
X1701015Y-11557912D01*
X1701015Y-11557912D02*
X1681967Y-11576960D01*
X1681967Y-11576960D02*
X1653396Y-11586484D01*
X1653396Y-11586484D02*
X1605777Y-11586484D01*
X1805777Y-11586484D02*
X1805777Y-11453150D01*
X1805777Y-11491246D02*
X1815301Y-11472198D01*
X1815301Y-11472198D02*
X1824824Y-11462674D01*
X1824824Y-11462674D02*
X1843872Y-11453150D01*
X1843872Y-11453150D02*
X1862920Y-11453150D01*
X1929586Y-11586484D02*
X1929586Y-11453150D01*
X1929586Y-11386484D02*
X1920062Y-11396008D01*
X1920062Y-11396008D02*
X1929586Y-11405531D01*
X1929586Y-11405531D02*
X1939110Y-11396008D01*
X1939110Y-11396008D02*
X1929586Y-11386484D01*
X1929586Y-11386484D02*
X1929586Y-11405531D01*
X2053396Y-11586484D02*
X2034348Y-11576960D01*
X2034348Y-11576960D02*
X2024824Y-11557912D01*
X2024824Y-11557912D02*
X2024824Y-11386484D01*
X2158158Y-11586484D02*
X2139110Y-11576960D01*
X2139110Y-11576960D02*
X2129586Y-11557912D01*
X2129586Y-11557912D02*
X2129586Y-11386484D01*
X2386729Y-11586484D02*
X2386729Y-11386484D01*
X2386729Y-11386484D02*
X2453396Y-11529341D01*
X2453396Y-11529341D02*
X2520063Y-11386484D01*
X2520063Y-11386484D02*
X2520063Y-11586484D01*
X2701015Y-11586484D02*
X2701015Y-11481722D01*
X2701015Y-11481722D02*
X2691491Y-11462674D01*
X2691491Y-11462674D02*
X2672444Y-11453150D01*
X2672444Y-11453150D02*
X2634348Y-11453150D01*
X2634348Y-11453150D02*
X2615301Y-11462674D01*
X2701015Y-11576960D02*
X2681967Y-11586484D01*
X2681967Y-11586484D02*
X2634348Y-11586484D01*
X2634348Y-11586484D02*
X2615301Y-11576960D01*
X2615301Y-11576960D02*
X2605777Y-11557912D01*
X2605777Y-11557912D02*
X2605777Y-11538865D01*
X2605777Y-11538865D02*
X2615301Y-11519817D01*
X2615301Y-11519817D02*
X2634348Y-11510293D01*
X2634348Y-11510293D02*
X2681967Y-11510293D01*
X2681967Y-11510293D02*
X2701015Y-11500769D01*
X2796253Y-11453150D02*
X2796253Y-11653150D01*
X2796253Y-11462674D02*
X2815301Y-11453150D01*
X2815301Y-11453150D02*
X2853396Y-11453150D01*
X2853396Y-11453150D02*
X2872443Y-11462674D01*
X2872443Y-11462674D02*
X2881967Y-11472198D01*
X2881967Y-11472198D02*
X2891491Y-11491246D01*
X2891491Y-11491246D02*
X2891491Y-11548388D01*
X2891491Y-11548388D02*
X2881967Y-11567436D01*
X2881967Y-11567436D02*
X2872443Y-11576960D01*
X2872443Y-11576960D02*
X2853396Y-11586484D01*
X2853396Y-11586484D02*
X2815301Y-11586484D01*
X2815301Y-11586484D02*
X2796253Y-11576960D01*
X2977205Y-11567436D02*
X2986729Y-11576960D01*
X2986729Y-11576960D02*
X2977205Y-11586484D01*
X2977205Y-11586484D02*
X2967682Y-11576960D01*
X2967682Y-11576960D02*
X2977205Y-11567436D01*
X2977205Y-11567436D02*
X2977205Y-11586484D01*
X2977205Y-11462674D02*
X2986729Y-11472198D01*
X2986729Y-11472198D02*
X2977205Y-11481722D01*
X2977205Y-11481722D02*
X2967682Y-11472198D01*
X2967682Y-11472198D02*
X2977205Y-11462674D01*
X2977205Y-11462674D02*
X2977205Y-11481722D01*
D10*
X1305000Y-11895000D02*
X1345000Y-11935000D01*
X1345000Y-11895000D02*
X1305000Y-11935000D01*
D11*
X1643872Y-11806484D02*
X1662920Y-11806484D01*
X1662920Y-11806484D02*
X1681967Y-11816008D01*
X1681967Y-11816008D02*
X1691491Y-11825531D01*
X1691491Y-11825531D02*
X1701015Y-11844579D01*
X1701015Y-11844579D02*
X1710539Y-11882674D01*
X1710539Y-11882674D02*
X1710539Y-11930293D01*
X1710539Y-11930293D02*
X1701015Y-11968388D01*
X1701015Y-11968388D02*
X1691491Y-11987436D01*
X1691491Y-11987436D02*
X1681967Y-11996960D01*
X1681967Y-11996960D02*
X1662920Y-12006484D01*
X1662920Y-12006484D02*
X1643872Y-12006484D01*
X1643872Y-12006484D02*
X1624824Y-11996960D01*
X1624824Y-11996960D02*
X1615301Y-11987436D01*
X1615301Y-11987436D02*
X1605777Y-11968388D01*
X1605777Y-11968388D02*
X1596253Y-11930293D01*
X1596253Y-11930293D02*
X1596253Y-11882674D01*
X1596253Y-11882674D02*
X1605777Y-11844579D01*
X1605777Y-11844579D02*
X1615301Y-11825531D01*
X1615301Y-11825531D02*
X1624824Y-11816008D01*
X1624824Y-11816008D02*
X1643872Y-11806484D01*
X1796253Y-11987436D02*
X1805777Y-11996960D01*
X1805777Y-11996960D02*
X1796253Y-12006484D01*
X1796253Y-12006484D02*
X1786729Y-11996960D01*
X1786729Y-11996960D02*
X1796253Y-11987436D01*
X1796253Y-11987436D02*
X1796253Y-12006484D01*
X1977205Y-11873150D02*
X1977205Y-12006484D01*
X1929586Y-11796960D02*
X1881967Y-11939817D01*
X1881967Y-11939817D02*
X2005777Y-11939817D01*
X2120063Y-11806484D02*
X2139110Y-11806484D01*
X2139110Y-11806484D02*
X2158158Y-11816008D01*
X2158158Y-11816008D02*
X2167682Y-11825531D01*
X2167682Y-11825531D02*
X2177205Y-11844579D01*
X2177205Y-11844579D02*
X2186729Y-11882674D01*
X2186729Y-11882674D02*
X2186729Y-11930293D01*
X2186729Y-11930293D02*
X2177205Y-11968388D01*
X2177205Y-11968388D02*
X2167682Y-11987436D01*
X2167682Y-11987436D02*
X2158158Y-11996960D01*
X2158158Y-11996960D02*
X2139110Y-12006484D01*
X2139110Y-12006484D02*
X2120063Y-12006484D01*
X2120063Y-12006484D02*
X2101015Y-11996960D01*
X2101015Y-11996960D02*
X2091491Y-11987436D01*
X2091491Y-11987436D02*
X2081967Y-11968388D01*
X2081967Y-11968388D02*
X2072443Y-11930293D01*
X2072443Y-11930293D02*
X2072443Y-11882674D01*
X2072443Y-11882674D02*
X2081967Y-11844579D01*
X2081967Y-11844579D02*
X2091491Y-11825531D01*
X2091491Y-11825531D02*
X2101015Y-11816008D01*
X2101015Y-11816008D02*
X2120063Y-11806484D01*
X2310539Y-11806484D02*
X2329586Y-11806484D01*
X2329586Y-11806484D02*
X2348634Y-11816008D01*
X2348634Y-11816008D02*
X2358158Y-11825531D01*
X2358158Y-11825531D02*
X2367682Y-11844579D01*
X2367682Y-11844579D02*
X2377205Y-11882674D01*
X2377205Y-11882674D02*
X2377205Y-11930293D01*
X2377205Y-11930293D02*
X2367682Y-11968388D01*
X2367682Y-11968388D02*
X2358158Y-11987436D01*
X2358158Y-11987436D02*
X2348634Y-11996960D01*
X2348634Y-11996960D02*
X2329586Y-12006484D01*
X2329586Y-12006484D02*
X2310539Y-12006484D01*
X2310539Y-12006484D02*
X2291491Y-11996960D01*
X2291491Y-11996960D02*
X2281967Y-11987436D01*
X2281967Y-11987436D02*
X2272444Y-11968388D01*
X2272444Y-11968388D02*
X2262920Y-11930293D01*
X2262920Y-11930293D02*
X2262920Y-11882674D01*
X2262920Y-11882674D02*
X2272444Y-11844579D01*
X2272444Y-11844579D02*
X2281967Y-11825531D01*
X2281967Y-11825531D02*
X2291491Y-11816008D01*
X2291491Y-11816008D02*
X2310539Y-11806484D01*
X2462920Y-12006484D02*
X2462920Y-11873150D01*
X2462920Y-11892198D02*
X2472444Y-11882674D01*
X2472444Y-11882674D02*
X2491491Y-11873150D01*
X2491491Y-11873150D02*
X2520063Y-11873150D01*
X2520063Y-11873150D02*
X2539110Y-11882674D01*
X2539110Y-11882674D02*
X2548634Y-11901722D01*
X2548634Y-11901722D02*
X2548634Y-12006484D01*
X2548634Y-11901722D02*
X2558158Y-11882674D01*
X2558158Y-11882674D02*
X2577205Y-11873150D01*
X2577205Y-11873150D02*
X2605777Y-11873150D01*
X2605777Y-11873150D02*
X2624825Y-11882674D01*
X2624825Y-11882674D02*
X2634348Y-11901722D01*
X2634348Y-11901722D02*
X2634348Y-12006484D01*
X2729586Y-12006484D02*
X2729586Y-11873150D01*
X2729586Y-11892198D02*
X2739110Y-11882674D01*
X2739110Y-11882674D02*
X2758158Y-11873150D01*
X2758158Y-11873150D02*
X2786729Y-11873150D01*
X2786729Y-11873150D02*
X2805777Y-11882674D01*
X2805777Y-11882674D02*
X2815301Y-11901722D01*
X2815301Y-11901722D02*
X2815301Y-12006484D01*
X2815301Y-11901722D02*
X2824824Y-11882674D01*
X2824824Y-11882674D02*
X2843872Y-11873150D01*
X2843872Y-11873150D02*
X2872443Y-11873150D01*
X2872443Y-11873150D02*
X2891491Y-11882674D01*
X2891491Y-11882674D02*
X2901015Y-11901722D01*
X2901015Y-11901722D02*
X2901015Y-12006484D01*
X3291491Y-11796960D02*
X3120063Y-12054103D01*
X3548634Y-11806484D02*
X3567682Y-11806484D01*
X3567682Y-11806484D02*
X3586729Y-11816008D01*
X3586729Y-11816008D02*
X3596253Y-11825531D01*
X3596253Y-11825531D02*
X3605777Y-11844579D01*
X3605777Y-11844579D02*
X3615301Y-11882674D01*
X3615301Y-11882674D02*
X3615301Y-11930293D01*
X3615301Y-11930293D02*
X3605777Y-11968388D01*
X3605777Y-11968388D02*
X3596253Y-11987436D01*
X3596253Y-11987436D02*
X3586729Y-11996960D01*
X3586729Y-11996960D02*
X3567682Y-12006484D01*
X3567682Y-12006484D02*
X3548634Y-12006484D01*
X3548634Y-12006484D02*
X3529586Y-11996960D01*
X3529586Y-11996960D02*
X3520063Y-11987436D01*
X3520063Y-11987436D02*
X3510539Y-11968388D01*
X3510539Y-11968388D02*
X3501015Y-11930293D01*
X3501015Y-11930293D02*
X3501015Y-11882674D01*
X3501015Y-11882674D02*
X3510539Y-11844579D01*
X3510539Y-11844579D02*
X3520063Y-11825531D01*
X3520063Y-11825531D02*
X3529586Y-11816008D01*
X3529586Y-11816008D02*
X3548634Y-11806484D01*
X3701015Y-11987436D02*
X3710539Y-11996960D01*
X3710539Y-11996960D02*
X3701015Y-12006484D01*
X3701015Y-12006484D02*
X3691491Y-11996960D01*
X3691491Y-11996960D02*
X3701015Y-11987436D01*
X3701015Y-11987436D02*
X3701015Y-12006484D01*
X3834348Y-11806484D02*
X3853396Y-11806484D01*
X3853396Y-11806484D02*
X3872444Y-11816008D01*
X3872444Y-11816008D02*
X3881967Y-11825531D01*
X3881967Y-11825531D02*
X3891491Y-11844579D01*
X3891491Y-11844579D02*
X3901015Y-11882674D01*
X3901015Y-11882674D02*
X3901015Y-11930293D01*
X3901015Y-11930293D02*
X3891491Y-11968388D01*
X3891491Y-11968388D02*
X3881967Y-11987436D01*
X3881967Y-11987436D02*
X3872444Y-11996960D01*
X3872444Y-11996960D02*
X3853396Y-12006484D01*
X3853396Y-12006484D02*
X3834348Y-12006484D01*
X3834348Y-12006484D02*
X3815301Y-11996960D01*
X3815301Y-11996960D02*
X3805777Y-11987436D01*
X3805777Y-11987436D02*
X3796253Y-11968388D01*
X3796253Y-11968388D02*
X3786729Y-11930293D01*
X3786729Y-11930293D02*
X3786729Y-11882674D01*
X3786729Y-11882674D02*
X3796253Y-11844579D01*
X3796253Y-11844579D02*
X3805777Y-11825531D01*
X3805777Y-11825531D02*
X3815301Y-11816008D01*
X3815301Y-11816008D02*
X3834348Y-11806484D01*
X4091491Y-12006484D02*
X3977206Y-12006484D01*
X4034348Y-12006484D02*
X4034348Y-11806484D01*
X4034348Y-11806484D02*
X4015301Y-11835055D01*
X4015301Y-11835055D02*
X3996253Y-11854103D01*
X3996253Y-11854103D02*
X3977206Y-11863627D01*
X4272444Y-11806484D02*
X4177206Y-11806484D01*
X4177206Y-11806484D02*
X4167682Y-11901722D01*
X4167682Y-11901722D02*
X4177206Y-11892198D01*
X4177206Y-11892198D02*
X4196253Y-11882674D01*
X4196253Y-11882674D02*
X4243872Y-11882674D01*
X4243872Y-11882674D02*
X4262920Y-11892198D01*
X4262920Y-11892198D02*
X4272444Y-11901722D01*
X4272444Y-11901722D02*
X4281968Y-11920769D01*
X4281968Y-11920769D02*
X4281968Y-11968388D01*
X4281968Y-11968388D02*
X4272444Y-11987436D01*
X4272444Y-11987436D02*
X4262920Y-11996960D01*
X4262920Y-11996960D02*
X4243872Y-12006484D01*
X4243872Y-12006484D02*
X4196253Y-12006484D01*
X4196253Y-12006484D02*
X4177206Y-11996960D01*
X4177206Y-11996960D02*
X4167682Y-11987436D01*
X4348634Y-11806484D02*
X4481968Y-11806484D01*
X4481968Y-11806484D02*
X4396253Y-12006484D01*
X4548634Y-11806484D02*
X4548634Y-11844579D01*
X4624825Y-11806484D02*
X4624825Y-11844579D01*
X4920063Y-12082674D02*
X4910539Y-12073150D01*
X4910539Y-12073150D02*
X4891491Y-12044579D01*
X4891491Y-12044579D02*
X4881968Y-12025531D01*
X4881968Y-12025531D02*
X4872444Y-11996960D01*
X4872444Y-11996960D02*
X4862920Y-11949341D01*
X4862920Y-11949341D02*
X4862920Y-11911246D01*
X4862920Y-11911246D02*
X4872444Y-11863627D01*
X4872444Y-11863627D02*
X4881968Y-11835055D01*
X4881968Y-11835055D02*
X4891491Y-11816008D01*
X4891491Y-11816008D02*
X4910539Y-11787436D01*
X4910539Y-11787436D02*
X4920063Y-11777912D01*
X5034349Y-11806484D02*
X5053396Y-11806484D01*
X5053396Y-11806484D02*
X5072444Y-11816008D01*
X5072444Y-11816008D02*
X5081968Y-11825531D01*
X5081968Y-11825531D02*
X5091491Y-11844579D01*
X5091491Y-11844579D02*
X5101015Y-11882674D01*
X5101015Y-11882674D02*
X5101015Y-11930293D01*
X5101015Y-11930293D02*
X5091491Y-11968388D01*
X5091491Y-11968388D02*
X5081968Y-11987436D01*
X5081968Y-11987436D02*
X5072444Y-11996960D01*
X5072444Y-11996960D02*
X5053396Y-12006484D01*
X5053396Y-12006484D02*
X5034349Y-12006484D01*
X5034349Y-12006484D02*
X5015301Y-11996960D01*
X5015301Y-11996960D02*
X5005777Y-11987436D01*
X5005777Y-11987436D02*
X4996253Y-11968388D01*
X4996253Y-11968388D02*
X4986730Y-11930293D01*
X4986730Y-11930293D02*
X4986730Y-11882674D01*
X4986730Y-11882674D02*
X4996253Y-11844579D01*
X4996253Y-11844579D02*
X5005777Y-11825531D01*
X5005777Y-11825531D02*
X5015301Y-11816008D01*
X5015301Y-11816008D02*
X5034349Y-11806484D01*
X5339111Y-12006484D02*
X5339111Y-11806484D01*
X5424825Y-12006484D02*
X5424825Y-11901722D01*
X5424825Y-11901722D02*
X5415301Y-11882674D01*
X5415301Y-11882674D02*
X5396253Y-11873150D01*
X5396253Y-11873150D02*
X5367682Y-11873150D01*
X5367682Y-11873150D02*
X5348634Y-11882674D01*
X5348634Y-11882674D02*
X5339111Y-11892198D01*
X5548634Y-12006484D02*
X5529587Y-11996960D01*
X5529587Y-11996960D02*
X5520063Y-11987436D01*
X5520063Y-11987436D02*
X5510539Y-11968388D01*
X5510539Y-11968388D02*
X5510539Y-11911246D01*
X5510539Y-11911246D02*
X5520063Y-11892198D01*
X5520063Y-11892198D02*
X5529587Y-11882674D01*
X5529587Y-11882674D02*
X5548634Y-11873150D01*
X5548634Y-11873150D02*
X5577206Y-11873150D01*
X5577206Y-11873150D02*
X5596253Y-11882674D01*
X5596253Y-11882674D02*
X5605777Y-11892198D01*
X5605777Y-11892198D02*
X5615301Y-11911246D01*
X5615301Y-11911246D02*
X5615301Y-11968388D01*
X5615301Y-11968388D02*
X5605777Y-11987436D01*
X5605777Y-11987436D02*
X5596253Y-11996960D01*
X5596253Y-11996960D02*
X5577206Y-12006484D01*
X5577206Y-12006484D02*
X5548634Y-12006484D01*
X5729587Y-12006484D02*
X5710539Y-11996960D01*
X5710539Y-11996960D02*
X5701015Y-11977912D01*
X5701015Y-11977912D02*
X5701015Y-11806484D01*
X5881968Y-11996960D02*
X5862920Y-12006484D01*
X5862920Y-12006484D02*
X5824825Y-12006484D01*
X5824825Y-12006484D02*
X5805777Y-11996960D01*
X5805777Y-11996960D02*
X5796253Y-11977912D01*
X5796253Y-11977912D02*
X5796253Y-11901722D01*
X5796253Y-11901722D02*
X5805777Y-11882674D01*
X5805777Y-11882674D02*
X5824825Y-11873150D01*
X5824825Y-11873150D02*
X5862920Y-11873150D01*
X5862920Y-11873150D02*
X5881968Y-11882674D01*
X5881968Y-11882674D02*
X5891491Y-11901722D01*
X5891491Y-11901722D02*
X5891491Y-11920769D01*
X5891491Y-11920769D02*
X5796253Y-11939817D01*
X5967682Y-11996960D02*
X5986730Y-12006484D01*
X5986730Y-12006484D02*
X6024825Y-12006484D01*
X6024825Y-12006484D02*
X6043872Y-11996960D01*
X6043872Y-11996960D02*
X6053396Y-11977912D01*
X6053396Y-11977912D02*
X6053396Y-11968388D01*
X6053396Y-11968388D02*
X6043872Y-11949341D01*
X6043872Y-11949341D02*
X6024825Y-11939817D01*
X6024825Y-11939817D02*
X5996253Y-11939817D01*
X5996253Y-11939817D02*
X5977206Y-11930293D01*
X5977206Y-11930293D02*
X5967682Y-11911246D01*
X5967682Y-11911246D02*
X5967682Y-11901722D01*
X5967682Y-11901722D02*
X5977206Y-11882674D01*
X5977206Y-11882674D02*
X5996253Y-11873150D01*
X5996253Y-11873150D02*
X6024825Y-11873150D01*
X6024825Y-11873150D02*
X6043872Y-11882674D01*
X6291492Y-11930293D02*
X6443873Y-11930293D01*
X6367682Y-12006484D02*
X6367682Y-11854103D01*
X6796253Y-12006484D02*
X6681968Y-12006484D01*
X6739111Y-12006484D02*
X6739111Y-11806484D01*
X6739111Y-11806484D02*
X6720063Y-11835055D01*
X6720063Y-11835055D02*
X6701015Y-11854103D01*
X6701015Y-11854103D02*
X6681968Y-11863627D01*
X6872444Y-11825531D02*
X6881968Y-11816008D01*
X6881968Y-11816008D02*
X6901015Y-11806484D01*
X6901015Y-11806484D02*
X6948634Y-11806484D01*
X6948634Y-11806484D02*
X6967682Y-11816008D01*
X6967682Y-11816008D02*
X6977206Y-11825531D01*
X6977206Y-11825531D02*
X6986730Y-11844579D01*
X6986730Y-11844579D02*
X6986730Y-11863627D01*
X6986730Y-11863627D02*
X6977206Y-11892198D01*
X6977206Y-11892198D02*
X6862920Y-12006484D01*
X6862920Y-12006484D02*
X6986730Y-12006484D01*
X7215301Y-11996960D02*
X7234349Y-12006484D01*
X7234349Y-12006484D02*
X7272444Y-12006484D01*
X7272444Y-12006484D02*
X7291492Y-11996960D01*
X7291492Y-11996960D02*
X7301015Y-11977912D01*
X7301015Y-11977912D02*
X7301015Y-11968388D01*
X7301015Y-11968388D02*
X7291492Y-11949341D01*
X7291492Y-11949341D02*
X7272444Y-11939817D01*
X7272444Y-11939817D02*
X7243873Y-11939817D01*
X7243873Y-11939817D02*
X7224825Y-11930293D01*
X7224825Y-11930293D02*
X7215301Y-11911246D01*
X7215301Y-11911246D02*
X7215301Y-11901722D01*
X7215301Y-11901722D02*
X7224825Y-11882674D01*
X7224825Y-11882674D02*
X7243873Y-11873150D01*
X7243873Y-11873150D02*
X7272444Y-11873150D01*
X7272444Y-11873150D02*
X7291492Y-11882674D01*
X7415301Y-12006484D02*
X7396254Y-11996960D01*
X7396254Y-11996960D02*
X7386730Y-11977912D01*
X7386730Y-11977912D02*
X7386730Y-11806484D01*
X7520063Y-12006484D02*
X7501015Y-11996960D01*
X7501015Y-11996960D02*
X7491492Y-11987436D01*
X7491492Y-11987436D02*
X7481968Y-11968388D01*
X7481968Y-11968388D02*
X7481968Y-11911246D01*
X7481968Y-11911246D02*
X7491492Y-11892198D01*
X7491492Y-11892198D02*
X7501015Y-11882674D01*
X7501015Y-11882674D02*
X7520063Y-11873150D01*
X7520063Y-11873150D02*
X7548635Y-11873150D01*
X7548635Y-11873150D02*
X7567682Y-11882674D01*
X7567682Y-11882674D02*
X7577206Y-11892198D01*
X7577206Y-11892198D02*
X7586730Y-11911246D01*
X7586730Y-11911246D02*
X7586730Y-11968388D01*
X7586730Y-11968388D02*
X7577206Y-11987436D01*
X7577206Y-11987436D02*
X7567682Y-11996960D01*
X7567682Y-11996960D02*
X7548635Y-12006484D01*
X7548635Y-12006484D02*
X7520063Y-12006484D01*
X7643873Y-11873150D02*
X7720063Y-11873150D01*
X7672444Y-11806484D02*
X7672444Y-11977912D01*
X7672444Y-11977912D02*
X7681968Y-11996960D01*
X7681968Y-11996960D02*
X7701015Y-12006484D01*
X7701015Y-12006484D02*
X7720063Y-12006484D01*
X7777206Y-11996960D02*
X7796254Y-12006484D01*
X7796254Y-12006484D02*
X7834349Y-12006484D01*
X7834349Y-12006484D02*
X7853396Y-11996960D01*
X7853396Y-11996960D02*
X7862920Y-11977912D01*
X7862920Y-11977912D02*
X7862920Y-11968388D01*
X7862920Y-11968388D02*
X7853396Y-11949341D01*
X7853396Y-11949341D02*
X7834349Y-11939817D01*
X7834349Y-11939817D02*
X7805777Y-11939817D01*
X7805777Y-11939817D02*
X7786730Y-11930293D01*
X7786730Y-11930293D02*
X7777206Y-11911246D01*
X7777206Y-11911246D02*
X7777206Y-11901722D01*
X7777206Y-11901722D02*
X7786730Y-11882674D01*
X7786730Y-11882674D02*
X7805777Y-11873150D01*
X7805777Y-11873150D02*
X7834349Y-11873150D01*
X7834349Y-11873150D02*
X7853396Y-11882674D01*
X7929587Y-12082674D02*
X7939111Y-12073150D01*
X7939111Y-12073150D02*
X7958158Y-12044579D01*
X7958158Y-12044579D02*
X7967682Y-12025531D01*
X7967682Y-12025531D02*
X7977206Y-11996960D01*
X7977206Y-11996960D02*
X7986730Y-11949341D01*
X7986730Y-11949341D02*
X7986730Y-11911246D01*
X7986730Y-11911246D02*
X7977206Y-11863627D01*
X7977206Y-11863627D02*
X7967682Y-11835055D01*
X7967682Y-11835055D02*
X7958158Y-11816008D01*
X7958158Y-11816008D02*
X7939111Y-11787436D01*
X7939111Y-11787436D02*
X7929587Y-11777912D01*
X8291492Y-12082674D02*
X8281968Y-12073150D01*
X8281968Y-12073150D02*
X8262920Y-12044579D01*
X8262920Y-12044579D02*
X8253396Y-12025531D01*
X8253396Y-12025531D02*
X8243873Y-11996960D01*
X8243873Y-11996960D02*
X8234349Y-11949341D01*
X8234349Y-11949341D02*
X8234349Y-11911246D01*
X8234349Y-11911246D02*
X8243873Y-11863627D01*
X8243873Y-11863627D02*
X8253396Y-11835055D01*
X8253396Y-11835055D02*
X8262920Y-11816008D01*
X8262920Y-11816008D02*
X8281968Y-11787436D01*
X8281968Y-11787436D02*
X8291492Y-11777912D01*
X8367682Y-11873150D02*
X8367682Y-12006484D01*
X8367682Y-11892198D02*
X8377206Y-11882674D01*
X8377206Y-11882674D02*
X8396254Y-11873150D01*
X8396254Y-11873150D02*
X8424825Y-11873150D01*
X8424825Y-11873150D02*
X8443873Y-11882674D01*
X8443873Y-11882674D02*
X8453397Y-11901722D01*
X8453397Y-11901722D02*
X8453397Y-12006484D01*
X8577206Y-12006484D02*
X8558158Y-11996960D01*
X8558158Y-11996960D02*
X8548635Y-11987436D01*
X8548635Y-11987436D02*
X8539111Y-11968388D01*
X8539111Y-11968388D02*
X8539111Y-11911246D01*
X8539111Y-11911246D02*
X8548635Y-11892198D01*
X8548635Y-11892198D02*
X8558158Y-11882674D01*
X8558158Y-11882674D02*
X8577206Y-11873150D01*
X8577206Y-11873150D02*
X8605778Y-11873150D01*
X8605778Y-11873150D02*
X8624825Y-11882674D01*
X8624825Y-11882674D02*
X8634349Y-11892198D01*
X8634349Y-11892198D02*
X8643873Y-11911246D01*
X8643873Y-11911246D02*
X8643873Y-11968388D01*
X8643873Y-11968388D02*
X8634349Y-11987436D01*
X8634349Y-11987436D02*
X8624825Y-11996960D01*
X8624825Y-11996960D02*
X8605778Y-12006484D01*
X8605778Y-12006484D02*
X8577206Y-12006484D01*
X8701016Y-11873150D02*
X8777206Y-11873150D01*
X8729587Y-11806484D02*
X8729587Y-11977912D01*
X8729587Y-11977912D02*
X8739111Y-11996960D01*
X8739111Y-11996960D02*
X8758158Y-12006484D01*
X8758158Y-12006484D02*
X8777206Y-12006484D01*
X8996254Y-11873150D02*
X8996254Y-12073150D01*
X8996254Y-11882674D02*
X9015301Y-11873150D01*
X9015301Y-11873150D02*
X9053397Y-11873150D01*
X9053397Y-11873150D02*
X9072444Y-11882674D01*
X9072444Y-11882674D02*
X9081968Y-11892198D01*
X9081968Y-11892198D02*
X9091492Y-11911246D01*
X9091492Y-11911246D02*
X9091492Y-11968388D01*
X9091492Y-11968388D02*
X9081968Y-11987436D01*
X9081968Y-11987436D02*
X9072444Y-11996960D01*
X9072444Y-11996960D02*
X9053397Y-12006484D01*
X9053397Y-12006484D02*
X9015301Y-12006484D01*
X9015301Y-12006484D02*
X8996254Y-11996960D01*
X9205778Y-12006484D02*
X9186730Y-11996960D01*
X9186730Y-11996960D02*
X9177206Y-11977912D01*
X9177206Y-11977912D02*
X9177206Y-11806484D01*
X9367682Y-12006484D02*
X9367682Y-11901722D01*
X9367682Y-11901722D02*
X9358159Y-11882674D01*
X9358159Y-11882674D02*
X9339111Y-11873150D01*
X9339111Y-11873150D02*
X9301016Y-11873150D01*
X9301016Y-11873150D02*
X9281968Y-11882674D01*
X9367682Y-11996960D02*
X9348635Y-12006484D01*
X9348635Y-12006484D02*
X9301016Y-12006484D01*
X9301016Y-12006484D02*
X9281968Y-11996960D01*
X9281968Y-11996960D02*
X9272444Y-11977912D01*
X9272444Y-11977912D02*
X9272444Y-11958865D01*
X9272444Y-11958865D02*
X9281968Y-11939817D01*
X9281968Y-11939817D02*
X9301016Y-11930293D01*
X9301016Y-11930293D02*
X9348635Y-11930293D01*
X9348635Y-11930293D02*
X9367682Y-11920769D01*
X9434349Y-11873150D02*
X9510539Y-11873150D01*
X9462920Y-11806484D02*
X9462920Y-11977912D01*
X9462920Y-11977912D02*
X9472444Y-11996960D01*
X9472444Y-11996960D02*
X9491492Y-12006484D01*
X9491492Y-12006484D02*
X9510539Y-12006484D01*
X9653397Y-11996960D02*
X9634349Y-12006484D01*
X9634349Y-12006484D02*
X9596254Y-12006484D01*
X9596254Y-12006484D02*
X9577206Y-11996960D01*
X9577206Y-11996960D02*
X9567682Y-11977912D01*
X9567682Y-11977912D02*
X9567682Y-11901722D01*
X9567682Y-11901722D02*
X9577206Y-11882674D01*
X9577206Y-11882674D02*
X9596254Y-11873150D01*
X9596254Y-11873150D02*
X9634349Y-11873150D01*
X9634349Y-11873150D02*
X9653397Y-11882674D01*
X9653397Y-11882674D02*
X9662920Y-11901722D01*
X9662920Y-11901722D02*
X9662920Y-11920769D01*
X9662920Y-11920769D02*
X9567682Y-11939817D01*
X9834349Y-12006484D02*
X9834349Y-11806484D01*
X9834349Y-11996960D02*
X9815301Y-12006484D01*
X9815301Y-12006484D02*
X9777206Y-12006484D01*
X9777206Y-12006484D02*
X9758159Y-11996960D01*
X9758159Y-11996960D02*
X9748635Y-11987436D01*
X9748635Y-11987436D02*
X9739111Y-11968388D01*
X9739111Y-11968388D02*
X9739111Y-11911246D01*
X9739111Y-11911246D02*
X9748635Y-11892198D01*
X9748635Y-11892198D02*
X9758159Y-11882674D01*
X9758159Y-11882674D02*
X9777206Y-11873150D01*
X9777206Y-11873150D02*
X9815301Y-11873150D01*
X9815301Y-11873150D02*
X9834349Y-11882674D01*
X9910540Y-12082674D02*
X9920063Y-12073150D01*
X9920063Y-12073150D02*
X9939111Y-12044579D01*
X9939111Y-12044579D02*
X9948635Y-12025531D01*
X9948635Y-12025531D02*
X9958159Y-11996960D01*
X9958159Y-11996960D02*
X9967682Y-11949341D01*
X9967682Y-11949341D02*
X9967682Y-11911246D01*
X9967682Y-11911246D02*
X9958159Y-11863627D01*
X9958159Y-11863627D02*
X9948635Y-11835055D01*
X9948635Y-11835055D02*
X9939111Y-11816008D01*
X9939111Y-11816008D02*
X9920063Y-11787436D01*
X9920063Y-11787436D02*
X9910540Y-11777912D01*
D12*
X1345000Y-12179000D02*
G75*
G02*
X1225000Y-12179000I-60000J0D01*
G01*
X1225000Y-12179000D02*
G75*
G02*
X1345000Y-12179000I60000J0D01*
G01*
D11*
X1710539Y-12270484D02*
X1596253Y-12270484D01*
X1653396Y-12270484D02*
X1653396Y-12070484D01*
X1653396Y-12070484D02*
X1634348Y-12099055D01*
X1634348Y-12099055D02*
X1615301Y-12118103D01*
X1615301Y-12118103D02*
X1596253Y-12127627D01*
X1796253Y-12251436D02*
X1805777Y-12260960D01*
X1805777Y-12260960D02*
X1796253Y-12270484D01*
X1796253Y-12270484D02*
X1786729Y-12260960D01*
X1786729Y-12260960D02*
X1796253Y-12251436D01*
X1796253Y-12251436D02*
X1796253Y-12270484D01*
X1881967Y-12089531D02*
X1891491Y-12080008D01*
X1891491Y-12080008D02*
X1910539Y-12070484D01*
X1910539Y-12070484D02*
X1958158Y-12070484D01*
X1958158Y-12070484D02*
X1977205Y-12080008D01*
X1977205Y-12080008D02*
X1986729Y-12089531D01*
X1986729Y-12089531D02*
X1996253Y-12108579D01*
X1996253Y-12108579D02*
X1996253Y-12127627D01*
X1996253Y-12127627D02*
X1986729Y-12156198D01*
X1986729Y-12156198D02*
X1872443Y-12270484D01*
X1872443Y-12270484D02*
X1996253Y-12270484D01*
X2120063Y-12070484D02*
X2139110Y-12070484D01*
X2139110Y-12070484D02*
X2158158Y-12080008D01*
X2158158Y-12080008D02*
X2167682Y-12089531D01*
X2167682Y-12089531D02*
X2177205Y-12108579D01*
X2177205Y-12108579D02*
X2186729Y-12146674D01*
X2186729Y-12146674D02*
X2186729Y-12194293D01*
X2186729Y-12194293D02*
X2177205Y-12232388D01*
X2177205Y-12232388D02*
X2167682Y-12251436D01*
X2167682Y-12251436D02*
X2158158Y-12260960D01*
X2158158Y-12260960D02*
X2139110Y-12270484D01*
X2139110Y-12270484D02*
X2120063Y-12270484D01*
X2120063Y-12270484D02*
X2101015Y-12260960D01*
X2101015Y-12260960D02*
X2091491Y-12251436D01*
X2091491Y-12251436D02*
X2081967Y-12232388D01*
X2081967Y-12232388D02*
X2072443Y-12194293D01*
X2072443Y-12194293D02*
X2072443Y-12146674D01*
X2072443Y-12146674D02*
X2081967Y-12108579D01*
X2081967Y-12108579D02*
X2091491Y-12089531D01*
X2091491Y-12089531D02*
X2101015Y-12080008D01*
X2101015Y-12080008D02*
X2120063Y-12070484D01*
X2310539Y-12070484D02*
X2329586Y-12070484D01*
X2329586Y-12070484D02*
X2348634Y-12080008D01*
X2348634Y-12080008D02*
X2358158Y-12089531D01*
X2358158Y-12089531D02*
X2367682Y-12108579D01*
X2367682Y-12108579D02*
X2377205Y-12146674D01*
X2377205Y-12146674D02*
X2377205Y-12194293D01*
X2377205Y-12194293D02*
X2367682Y-12232388D01*
X2367682Y-12232388D02*
X2358158Y-12251436D01*
X2358158Y-12251436D02*
X2348634Y-12260960D01*
X2348634Y-12260960D02*
X2329586Y-12270484D01*
X2329586Y-12270484D02*
X2310539Y-12270484D01*
X2310539Y-12270484D02*
X2291491Y-12260960D01*
X2291491Y-12260960D02*
X2281967Y-12251436D01*
X2281967Y-12251436D02*
X2272444Y-12232388D01*
X2272444Y-12232388D02*
X2262920Y-12194293D01*
X2262920Y-12194293D02*
X2262920Y-12146674D01*
X2262920Y-12146674D02*
X2272444Y-12108579D01*
X2272444Y-12108579D02*
X2281967Y-12089531D01*
X2281967Y-12089531D02*
X2291491Y-12080008D01*
X2291491Y-12080008D02*
X2310539Y-12070484D01*
X2462920Y-12270484D02*
X2462920Y-12137150D01*
X2462920Y-12156198D02*
X2472444Y-12146674D01*
X2472444Y-12146674D02*
X2491491Y-12137150D01*
X2491491Y-12137150D02*
X2520063Y-12137150D01*
X2520063Y-12137150D02*
X2539110Y-12146674D01*
X2539110Y-12146674D02*
X2548634Y-12165722D01*
X2548634Y-12165722D02*
X2548634Y-12270484D01*
X2548634Y-12165722D02*
X2558158Y-12146674D01*
X2558158Y-12146674D02*
X2577205Y-12137150D01*
X2577205Y-12137150D02*
X2605777Y-12137150D01*
X2605777Y-12137150D02*
X2624825Y-12146674D01*
X2624825Y-12146674D02*
X2634348Y-12165722D01*
X2634348Y-12165722D02*
X2634348Y-12270484D01*
X2729586Y-12270484D02*
X2729586Y-12137150D01*
X2729586Y-12156198D02*
X2739110Y-12146674D01*
X2739110Y-12146674D02*
X2758158Y-12137150D01*
X2758158Y-12137150D02*
X2786729Y-12137150D01*
X2786729Y-12137150D02*
X2805777Y-12146674D01*
X2805777Y-12146674D02*
X2815301Y-12165722D01*
X2815301Y-12165722D02*
X2815301Y-12270484D01*
X2815301Y-12165722D02*
X2824824Y-12146674D01*
X2824824Y-12146674D02*
X2843872Y-12137150D01*
X2843872Y-12137150D02*
X2872443Y-12137150D01*
X2872443Y-12137150D02*
X2891491Y-12146674D01*
X2891491Y-12146674D02*
X2901015Y-12165722D01*
X2901015Y-12165722D02*
X2901015Y-12270484D01*
X3291491Y-12060960D02*
X3120063Y-12318103D01*
X3548634Y-12070484D02*
X3567682Y-12070484D01*
X3567682Y-12070484D02*
X3586729Y-12080008D01*
X3586729Y-12080008D02*
X3596253Y-12089531D01*
X3596253Y-12089531D02*
X3605777Y-12108579D01*
X3605777Y-12108579D02*
X3615301Y-12146674D01*
X3615301Y-12146674D02*
X3615301Y-12194293D01*
X3615301Y-12194293D02*
X3605777Y-12232388D01*
X3605777Y-12232388D02*
X3596253Y-12251436D01*
X3596253Y-12251436D02*
X3586729Y-12260960D01*
X3586729Y-12260960D02*
X3567682Y-12270484D01*
X3567682Y-12270484D02*
X3548634Y-12270484D01*
X3548634Y-12270484D02*
X3529586Y-12260960D01*
X3529586Y-12260960D02*
X3520063Y-12251436D01*
X3520063Y-12251436D02*
X3510539Y-12232388D01*
X3510539Y-12232388D02*
X3501015Y-12194293D01*
X3501015Y-12194293D02*
X3501015Y-12146674D01*
X3501015Y-12146674D02*
X3510539Y-12108579D01*
X3510539Y-12108579D02*
X3520063Y-12089531D01*
X3520063Y-12089531D02*
X3529586Y-12080008D01*
X3529586Y-12080008D02*
X3548634Y-12070484D01*
X3701015Y-12251436D02*
X3710539Y-12260960D01*
X3710539Y-12260960D02*
X3701015Y-12270484D01*
X3701015Y-12270484D02*
X3691491Y-12260960D01*
X3691491Y-12260960D02*
X3701015Y-12251436D01*
X3701015Y-12251436D02*
X3701015Y-12270484D01*
X3834348Y-12070484D02*
X3853396Y-12070484D01*
X3853396Y-12070484D02*
X3872444Y-12080008D01*
X3872444Y-12080008D02*
X3881967Y-12089531D01*
X3881967Y-12089531D02*
X3891491Y-12108579D01*
X3891491Y-12108579D02*
X3901015Y-12146674D01*
X3901015Y-12146674D02*
X3901015Y-12194293D01*
X3901015Y-12194293D02*
X3891491Y-12232388D01*
X3891491Y-12232388D02*
X3881967Y-12251436D01*
X3881967Y-12251436D02*
X3872444Y-12260960D01*
X3872444Y-12260960D02*
X3853396Y-12270484D01*
X3853396Y-12270484D02*
X3834348Y-12270484D01*
X3834348Y-12270484D02*
X3815301Y-12260960D01*
X3815301Y-12260960D02*
X3805777Y-12251436D01*
X3805777Y-12251436D02*
X3796253Y-12232388D01*
X3796253Y-12232388D02*
X3786729Y-12194293D01*
X3786729Y-12194293D02*
X3786729Y-12146674D01*
X3786729Y-12146674D02*
X3796253Y-12108579D01*
X3796253Y-12108579D02*
X3805777Y-12089531D01*
X3805777Y-12089531D02*
X3815301Y-12080008D01*
X3815301Y-12080008D02*
X3834348Y-12070484D01*
X4072444Y-12137150D02*
X4072444Y-12270484D01*
X4024825Y-12060960D02*
X3977206Y-12203817D01*
X3977206Y-12203817D02*
X4101015Y-12203817D01*
X4158158Y-12070484D02*
X4291491Y-12070484D01*
X4291491Y-12070484D02*
X4205777Y-12270484D01*
X4358158Y-12089531D02*
X4367682Y-12080008D01*
X4367682Y-12080008D02*
X4386729Y-12070484D01*
X4386729Y-12070484D02*
X4434349Y-12070484D01*
X4434349Y-12070484D02*
X4453396Y-12080008D01*
X4453396Y-12080008D02*
X4462920Y-12089531D01*
X4462920Y-12089531D02*
X4472444Y-12108579D01*
X4472444Y-12108579D02*
X4472444Y-12127627D01*
X4472444Y-12127627D02*
X4462920Y-12156198D01*
X4462920Y-12156198D02*
X4348634Y-12270484D01*
X4348634Y-12270484D02*
X4472444Y-12270484D01*
X4548634Y-12070484D02*
X4548634Y-12108579D01*
X4624825Y-12070484D02*
X4624825Y-12108579D01*
X4920063Y-12346674D02*
X4910539Y-12337150D01*
X4910539Y-12337150D02*
X4891491Y-12308579D01*
X4891491Y-12308579D02*
X4881968Y-12289531D01*
X4881968Y-12289531D02*
X4872444Y-12260960D01*
X4872444Y-12260960D02*
X4862920Y-12213341D01*
X4862920Y-12213341D02*
X4862920Y-12175246D01*
X4862920Y-12175246D02*
X4872444Y-12127627D01*
X4872444Y-12127627D02*
X4881968Y-12099055D01*
X4881968Y-12099055D02*
X4891491Y-12080008D01*
X4891491Y-12080008D02*
X4910539Y-12051436D01*
X4910539Y-12051436D02*
X4920063Y-12041912D01*
X4977206Y-12070484D02*
X5101015Y-12070484D01*
X5101015Y-12070484D02*
X5034349Y-12146674D01*
X5034349Y-12146674D02*
X5062920Y-12146674D01*
X5062920Y-12146674D02*
X5081968Y-12156198D01*
X5081968Y-12156198D02*
X5091491Y-12165722D01*
X5091491Y-12165722D02*
X5101015Y-12184769D01*
X5101015Y-12184769D02*
X5101015Y-12232388D01*
X5101015Y-12232388D02*
X5091491Y-12251436D01*
X5091491Y-12251436D02*
X5081968Y-12260960D01*
X5081968Y-12260960D02*
X5062920Y-12270484D01*
X5062920Y-12270484D02*
X5005777Y-12270484D01*
X5005777Y-12270484D02*
X4986730Y-12260960D01*
X4986730Y-12260960D02*
X4977206Y-12251436D01*
X5339111Y-12270484D02*
X5339111Y-12070484D01*
X5424825Y-12270484D02*
X5424825Y-12165722D01*
X5424825Y-12165722D02*
X5415301Y-12146674D01*
X5415301Y-12146674D02*
X5396253Y-12137150D01*
X5396253Y-12137150D02*
X5367682Y-12137150D01*
X5367682Y-12137150D02*
X5348634Y-12146674D01*
X5348634Y-12146674D02*
X5339111Y-12156198D01*
X5548634Y-12270484D02*
X5529587Y-12260960D01*
X5529587Y-12260960D02*
X5520063Y-12251436D01*
X5520063Y-12251436D02*
X5510539Y-12232388D01*
X5510539Y-12232388D02*
X5510539Y-12175246D01*
X5510539Y-12175246D02*
X5520063Y-12156198D01*
X5520063Y-12156198D02*
X5529587Y-12146674D01*
X5529587Y-12146674D02*
X5548634Y-12137150D01*
X5548634Y-12137150D02*
X5577206Y-12137150D01*
X5577206Y-12137150D02*
X5596253Y-12146674D01*
X5596253Y-12146674D02*
X5605777Y-12156198D01*
X5605777Y-12156198D02*
X5615301Y-12175246D01*
X5615301Y-12175246D02*
X5615301Y-12232388D01*
X5615301Y-12232388D02*
X5605777Y-12251436D01*
X5605777Y-12251436D02*
X5596253Y-12260960D01*
X5596253Y-12260960D02*
X5577206Y-12270484D01*
X5577206Y-12270484D02*
X5548634Y-12270484D01*
X5729587Y-12270484D02*
X5710539Y-12260960D01*
X5710539Y-12260960D02*
X5701015Y-12241912D01*
X5701015Y-12241912D02*
X5701015Y-12070484D01*
X5881968Y-12260960D02*
X5862920Y-12270484D01*
X5862920Y-12270484D02*
X5824825Y-12270484D01*
X5824825Y-12270484D02*
X5805777Y-12260960D01*
X5805777Y-12260960D02*
X5796253Y-12241912D01*
X5796253Y-12241912D02*
X5796253Y-12165722D01*
X5796253Y-12165722D02*
X5805777Y-12146674D01*
X5805777Y-12146674D02*
X5824825Y-12137150D01*
X5824825Y-12137150D02*
X5862920Y-12137150D01*
X5862920Y-12137150D02*
X5881968Y-12146674D01*
X5881968Y-12146674D02*
X5891491Y-12165722D01*
X5891491Y-12165722D02*
X5891491Y-12184769D01*
X5891491Y-12184769D02*
X5796253Y-12203817D01*
X5967682Y-12260960D02*
X5986730Y-12270484D01*
X5986730Y-12270484D02*
X6024825Y-12270484D01*
X6024825Y-12270484D02*
X6043872Y-12260960D01*
X6043872Y-12260960D02*
X6053396Y-12241912D01*
X6053396Y-12241912D02*
X6053396Y-12232388D01*
X6053396Y-12232388D02*
X6043872Y-12213341D01*
X6043872Y-12213341D02*
X6024825Y-12203817D01*
X6024825Y-12203817D02*
X5996253Y-12203817D01*
X5996253Y-12203817D02*
X5977206Y-12194293D01*
X5977206Y-12194293D02*
X5967682Y-12175246D01*
X5967682Y-12175246D02*
X5967682Y-12165722D01*
X5967682Y-12165722D02*
X5977206Y-12146674D01*
X5977206Y-12146674D02*
X5996253Y-12137150D01*
X5996253Y-12137150D02*
X6024825Y-12137150D01*
X6024825Y-12137150D02*
X6043872Y-12146674D01*
X6120063Y-12346674D02*
X6129587Y-12337150D01*
X6129587Y-12337150D02*
X6148634Y-12308579D01*
X6148634Y-12308579D02*
X6158158Y-12289531D01*
X6158158Y-12289531D02*
X6167682Y-12260960D01*
X6167682Y-12260960D02*
X6177206Y-12213341D01*
X6177206Y-12213341D02*
X6177206Y-12175246D01*
X6177206Y-12175246D02*
X6167682Y-12127627D01*
X6167682Y-12127627D02*
X6158158Y-12099055D01*
X6158158Y-12099055D02*
X6148634Y-12080008D01*
X6148634Y-12080008D02*
X6129587Y-12051436D01*
X6129587Y-12051436D02*
X6120063Y-12041912D01*
X6481968Y-12346674D02*
X6472444Y-12337150D01*
X6472444Y-12337150D02*
X6453396Y-12308579D01*
X6453396Y-12308579D02*
X6443872Y-12289531D01*
X6443872Y-12289531D02*
X6434349Y-12260960D01*
X6434349Y-12260960D02*
X6424825Y-12213341D01*
X6424825Y-12213341D02*
X6424825Y-12175246D01*
X6424825Y-12175246D02*
X6434349Y-12127627D01*
X6434349Y-12127627D02*
X6443872Y-12099055D01*
X6443872Y-12099055D02*
X6453396Y-12080008D01*
X6453396Y-12080008D02*
X6472444Y-12051436D01*
X6472444Y-12051436D02*
X6481968Y-12041912D01*
X6558158Y-12137150D02*
X6558158Y-12270484D01*
X6558158Y-12156198D02*
X6567682Y-12146674D01*
X6567682Y-12146674D02*
X6586730Y-12137150D01*
X6586730Y-12137150D02*
X6615301Y-12137150D01*
X6615301Y-12137150D02*
X6634349Y-12146674D01*
X6634349Y-12146674D02*
X6643872Y-12165722D01*
X6643872Y-12165722D02*
X6643872Y-12270484D01*
X6767682Y-12270484D02*
X6748634Y-12260960D01*
X6748634Y-12260960D02*
X6739111Y-12251436D01*
X6739111Y-12251436D02*
X6729587Y-12232388D01*
X6729587Y-12232388D02*
X6729587Y-12175246D01*
X6729587Y-12175246D02*
X6739111Y-12156198D01*
X6739111Y-12156198D02*
X6748634Y-12146674D01*
X6748634Y-12146674D02*
X6767682Y-12137150D01*
X6767682Y-12137150D02*
X6796253Y-12137150D01*
X6796253Y-12137150D02*
X6815301Y-12146674D01*
X6815301Y-12146674D02*
X6824825Y-12156198D01*
X6824825Y-12156198D02*
X6834349Y-12175246D01*
X6834349Y-12175246D02*
X6834349Y-12232388D01*
X6834349Y-12232388D02*
X6824825Y-12251436D01*
X6824825Y-12251436D02*
X6815301Y-12260960D01*
X6815301Y-12260960D02*
X6796253Y-12270484D01*
X6796253Y-12270484D02*
X6767682Y-12270484D01*
X6891492Y-12137150D02*
X6967682Y-12137150D01*
X6920063Y-12070484D02*
X6920063Y-12241912D01*
X6920063Y-12241912D02*
X6929587Y-12260960D01*
X6929587Y-12260960D02*
X6948634Y-12270484D01*
X6948634Y-12270484D02*
X6967682Y-12270484D01*
X7186730Y-12137150D02*
X7186730Y-12337150D01*
X7186730Y-12146674D02*
X7205777Y-12137150D01*
X7205777Y-12137150D02*
X7243873Y-12137150D01*
X7243873Y-12137150D02*
X7262920Y-12146674D01*
X7262920Y-12146674D02*
X7272444Y-12156198D01*
X7272444Y-12156198D02*
X7281968Y-12175246D01*
X7281968Y-12175246D02*
X7281968Y-12232388D01*
X7281968Y-12232388D02*
X7272444Y-12251436D01*
X7272444Y-12251436D02*
X7262920Y-12260960D01*
X7262920Y-12260960D02*
X7243873Y-12270484D01*
X7243873Y-12270484D02*
X7205777Y-12270484D01*
X7205777Y-12270484D02*
X7186730Y-12260960D01*
X7396253Y-12270484D02*
X7377206Y-12260960D01*
X7377206Y-12260960D02*
X7367682Y-12241912D01*
X7367682Y-12241912D02*
X7367682Y-12070484D01*
X7558158Y-12270484D02*
X7558158Y-12165722D01*
X7558158Y-12165722D02*
X7548634Y-12146674D01*
X7548634Y-12146674D02*
X7529587Y-12137150D01*
X7529587Y-12137150D02*
X7491492Y-12137150D01*
X7491492Y-12137150D02*
X7472444Y-12146674D01*
X7558158Y-12260960D02*
X7539111Y-12270484D01*
X7539111Y-12270484D02*
X7491492Y-12270484D01*
X7491492Y-12270484D02*
X7472444Y-12260960D01*
X7472444Y-12260960D02*
X7462920Y-12241912D01*
X7462920Y-12241912D02*
X7462920Y-12222865D01*
X7462920Y-12222865D02*
X7472444Y-12203817D01*
X7472444Y-12203817D02*
X7491492Y-12194293D01*
X7491492Y-12194293D02*
X7539111Y-12194293D01*
X7539111Y-12194293D02*
X7558158Y-12184769D01*
X7624825Y-12137150D02*
X7701015Y-12137150D01*
X7653396Y-12070484D02*
X7653396Y-12241912D01*
X7653396Y-12241912D02*
X7662920Y-12260960D01*
X7662920Y-12260960D02*
X7681968Y-12270484D01*
X7681968Y-12270484D02*
X7701015Y-12270484D01*
X7843873Y-12260960D02*
X7824825Y-12270484D01*
X7824825Y-12270484D02*
X7786730Y-12270484D01*
X7786730Y-12270484D02*
X7767682Y-12260960D01*
X7767682Y-12260960D02*
X7758158Y-12241912D01*
X7758158Y-12241912D02*
X7758158Y-12165722D01*
X7758158Y-12165722D02*
X7767682Y-12146674D01*
X7767682Y-12146674D02*
X7786730Y-12137150D01*
X7786730Y-12137150D02*
X7824825Y-12137150D01*
X7824825Y-12137150D02*
X7843873Y-12146674D01*
X7843873Y-12146674D02*
X7853396Y-12165722D01*
X7853396Y-12165722D02*
X7853396Y-12184769D01*
X7853396Y-12184769D02*
X7758158Y-12203817D01*
X8024825Y-12270484D02*
X8024825Y-12070484D01*
X8024825Y-12260960D02*
X8005777Y-12270484D01*
X8005777Y-12270484D02*
X7967682Y-12270484D01*
X7967682Y-12270484D02*
X7948634Y-12260960D01*
X7948634Y-12260960D02*
X7939111Y-12251436D01*
X7939111Y-12251436D02*
X7929587Y-12232388D01*
X7929587Y-12232388D02*
X7929587Y-12175246D01*
X7929587Y-12175246D02*
X7939111Y-12156198D01*
X7939111Y-12156198D02*
X7948634Y-12146674D01*
X7948634Y-12146674D02*
X7967682Y-12137150D01*
X7967682Y-12137150D02*
X8005777Y-12137150D01*
X8005777Y-12137150D02*
X8024825Y-12146674D01*
X8101015Y-12346674D02*
X8110539Y-12337150D01*
X8110539Y-12337150D02*
X8129587Y-12308579D01*
X8129587Y-12308579D02*
X8139111Y-12289531D01*
X8139111Y-12289531D02*
X8148634Y-12260960D01*
X8148634Y-12260960D02*
X8158158Y-12213341D01*
X8158158Y-12213341D02*
X8158158Y-12175246D01*
X8158158Y-12175246D02*
X8148634Y-12127627D01*
X8148634Y-12127627D02*
X8139111Y-12099055D01*
X8139111Y-12099055D02*
X8129587Y-12080008D01*
X8129587Y-12080008D02*
X8110539Y-12051436D01*
X8110539Y-12051436D02*
X8101015Y-12041912D01*
X1245000Y-12343000D02*
X1245000Y-12543000D01*
X1145000Y-12443000D02*
X1345000Y-12443000D01*
X1586729Y-12334484D02*
X1710539Y-12334484D01*
X1710539Y-12334484D02*
X1643872Y-12410674D01*
X1643872Y-12410674D02*
X1672443Y-12410674D01*
X1672443Y-12410674D02*
X1691491Y-12420198D01*
X1691491Y-12420198D02*
X1701015Y-12429722D01*
X1701015Y-12429722D02*
X1710539Y-12448769D01*
X1710539Y-12448769D02*
X1710539Y-12496388D01*
X1710539Y-12496388D02*
X1701015Y-12515436D01*
X1701015Y-12515436D02*
X1691491Y-12524960D01*
X1691491Y-12524960D02*
X1672443Y-12534484D01*
X1672443Y-12534484D02*
X1615301Y-12534484D01*
X1615301Y-12534484D02*
X1596253Y-12524960D01*
X1596253Y-12524960D02*
X1586729Y-12515436D01*
X1796253Y-12515436D02*
X1805777Y-12524960D01*
X1805777Y-12524960D02*
X1796253Y-12534484D01*
X1796253Y-12534484D02*
X1786729Y-12524960D01*
X1786729Y-12524960D02*
X1796253Y-12515436D01*
X1796253Y-12515436D02*
X1796253Y-12534484D01*
X1929586Y-12334484D02*
X1948634Y-12334484D01*
X1948634Y-12334484D02*
X1967682Y-12344008D01*
X1967682Y-12344008D02*
X1977205Y-12353531D01*
X1977205Y-12353531D02*
X1986729Y-12372579D01*
X1986729Y-12372579D02*
X1996253Y-12410674D01*
X1996253Y-12410674D02*
X1996253Y-12458293D01*
X1996253Y-12458293D02*
X1986729Y-12496388D01*
X1986729Y-12496388D02*
X1977205Y-12515436D01*
X1977205Y-12515436D02*
X1967682Y-12524960D01*
X1967682Y-12524960D02*
X1948634Y-12534484D01*
X1948634Y-12534484D02*
X1929586Y-12534484D01*
X1929586Y-12534484D02*
X1910539Y-12524960D01*
X1910539Y-12524960D02*
X1901015Y-12515436D01*
X1901015Y-12515436D02*
X1891491Y-12496388D01*
X1891491Y-12496388D02*
X1881967Y-12458293D01*
X1881967Y-12458293D02*
X1881967Y-12410674D01*
X1881967Y-12410674D02*
X1891491Y-12372579D01*
X1891491Y-12372579D02*
X1901015Y-12353531D01*
X1901015Y-12353531D02*
X1910539Y-12344008D01*
X1910539Y-12344008D02*
X1929586Y-12334484D01*
X2120063Y-12334484D02*
X2139110Y-12334484D01*
X2139110Y-12334484D02*
X2158158Y-12344008D01*
X2158158Y-12344008D02*
X2167682Y-12353531D01*
X2167682Y-12353531D02*
X2177205Y-12372579D01*
X2177205Y-12372579D02*
X2186729Y-12410674D01*
X2186729Y-12410674D02*
X2186729Y-12458293D01*
X2186729Y-12458293D02*
X2177205Y-12496388D01*
X2177205Y-12496388D02*
X2167682Y-12515436D01*
X2167682Y-12515436D02*
X2158158Y-12524960D01*
X2158158Y-12524960D02*
X2139110Y-12534484D01*
X2139110Y-12534484D02*
X2120063Y-12534484D01*
X2120063Y-12534484D02*
X2101015Y-12524960D01*
X2101015Y-12524960D02*
X2091491Y-12515436D01*
X2091491Y-12515436D02*
X2081967Y-12496388D01*
X2081967Y-12496388D02*
X2072443Y-12458293D01*
X2072443Y-12458293D02*
X2072443Y-12410674D01*
X2072443Y-12410674D02*
X2081967Y-12372579D01*
X2081967Y-12372579D02*
X2091491Y-12353531D01*
X2091491Y-12353531D02*
X2101015Y-12344008D01*
X2101015Y-12344008D02*
X2120063Y-12334484D01*
X2310539Y-12334484D02*
X2329586Y-12334484D01*
X2329586Y-12334484D02*
X2348634Y-12344008D01*
X2348634Y-12344008D02*
X2358158Y-12353531D01*
X2358158Y-12353531D02*
X2367682Y-12372579D01*
X2367682Y-12372579D02*
X2377205Y-12410674D01*
X2377205Y-12410674D02*
X2377205Y-12458293D01*
X2377205Y-12458293D02*
X2367682Y-12496388D01*
X2367682Y-12496388D02*
X2358158Y-12515436D01*
X2358158Y-12515436D02*
X2348634Y-12524960D01*
X2348634Y-12524960D02*
X2329586Y-12534484D01*
X2329586Y-12534484D02*
X2310539Y-12534484D01*
X2310539Y-12534484D02*
X2291491Y-12524960D01*
X2291491Y-12524960D02*
X2281967Y-12515436D01*
X2281967Y-12515436D02*
X2272444Y-12496388D01*
X2272444Y-12496388D02*
X2262920Y-12458293D01*
X2262920Y-12458293D02*
X2262920Y-12410674D01*
X2262920Y-12410674D02*
X2272444Y-12372579D01*
X2272444Y-12372579D02*
X2281967Y-12353531D01*
X2281967Y-12353531D02*
X2291491Y-12344008D01*
X2291491Y-12344008D02*
X2310539Y-12334484D01*
X2462920Y-12534484D02*
X2462920Y-12401150D01*
X2462920Y-12420198D02*
X2472444Y-12410674D01*
X2472444Y-12410674D02*
X2491491Y-12401150D01*
X2491491Y-12401150D02*
X2520063Y-12401150D01*
X2520063Y-12401150D02*
X2539110Y-12410674D01*
X2539110Y-12410674D02*
X2548634Y-12429722D01*
X2548634Y-12429722D02*
X2548634Y-12534484D01*
X2548634Y-12429722D02*
X2558158Y-12410674D01*
X2558158Y-12410674D02*
X2577205Y-12401150D01*
X2577205Y-12401150D02*
X2605777Y-12401150D01*
X2605777Y-12401150D02*
X2624825Y-12410674D01*
X2624825Y-12410674D02*
X2634348Y-12429722D01*
X2634348Y-12429722D02*
X2634348Y-12534484D01*
X2729586Y-12534484D02*
X2729586Y-12401150D01*
X2729586Y-12420198D02*
X2739110Y-12410674D01*
X2739110Y-12410674D02*
X2758158Y-12401150D01*
X2758158Y-12401150D02*
X2786729Y-12401150D01*
X2786729Y-12401150D02*
X2805777Y-12410674D01*
X2805777Y-12410674D02*
X2815301Y-12429722D01*
X2815301Y-12429722D02*
X2815301Y-12534484D01*
X2815301Y-12429722D02*
X2824824Y-12410674D01*
X2824824Y-12410674D02*
X2843872Y-12401150D01*
X2843872Y-12401150D02*
X2872443Y-12401150D01*
X2872443Y-12401150D02*
X2891491Y-12410674D01*
X2891491Y-12410674D02*
X2901015Y-12429722D01*
X2901015Y-12429722D02*
X2901015Y-12534484D01*
X3291491Y-12324960D02*
X3120063Y-12582103D01*
X3548634Y-12334484D02*
X3567682Y-12334484D01*
X3567682Y-12334484D02*
X3586729Y-12344008D01*
X3586729Y-12344008D02*
X3596253Y-12353531D01*
X3596253Y-12353531D02*
X3605777Y-12372579D01*
X3605777Y-12372579D02*
X3615301Y-12410674D01*
X3615301Y-12410674D02*
X3615301Y-12458293D01*
X3615301Y-12458293D02*
X3605777Y-12496388D01*
X3605777Y-12496388D02*
X3596253Y-12515436D01*
X3596253Y-12515436D02*
X3586729Y-12524960D01*
X3586729Y-12524960D02*
X3567682Y-12534484D01*
X3567682Y-12534484D02*
X3548634Y-12534484D01*
X3548634Y-12534484D02*
X3529586Y-12524960D01*
X3529586Y-12524960D02*
X3520063Y-12515436D01*
X3520063Y-12515436D02*
X3510539Y-12496388D01*
X3510539Y-12496388D02*
X3501015Y-12458293D01*
X3501015Y-12458293D02*
X3501015Y-12410674D01*
X3501015Y-12410674D02*
X3510539Y-12372579D01*
X3510539Y-12372579D02*
X3520063Y-12353531D01*
X3520063Y-12353531D02*
X3529586Y-12344008D01*
X3529586Y-12344008D02*
X3548634Y-12334484D01*
X3701015Y-12515436D02*
X3710539Y-12524960D01*
X3710539Y-12524960D02*
X3701015Y-12534484D01*
X3701015Y-12534484D02*
X3691491Y-12524960D01*
X3691491Y-12524960D02*
X3701015Y-12515436D01*
X3701015Y-12515436D02*
X3701015Y-12534484D01*
X3901015Y-12534484D02*
X3786729Y-12534484D01*
X3843872Y-12534484D02*
X3843872Y-12334484D01*
X3843872Y-12334484D02*
X3824825Y-12363055D01*
X3824825Y-12363055D02*
X3805777Y-12382103D01*
X3805777Y-12382103D02*
X3786729Y-12391627D01*
X4091491Y-12534484D02*
X3977206Y-12534484D01*
X4034348Y-12534484D02*
X4034348Y-12334484D01*
X4034348Y-12334484D02*
X4015301Y-12363055D01*
X4015301Y-12363055D02*
X3996253Y-12382103D01*
X3996253Y-12382103D02*
X3977206Y-12391627D01*
X4205777Y-12420198D02*
X4186729Y-12410674D01*
X4186729Y-12410674D02*
X4177206Y-12401150D01*
X4177206Y-12401150D02*
X4167682Y-12382103D01*
X4167682Y-12382103D02*
X4167682Y-12372579D01*
X4167682Y-12372579D02*
X4177206Y-12353531D01*
X4177206Y-12353531D02*
X4186729Y-12344008D01*
X4186729Y-12344008D02*
X4205777Y-12334484D01*
X4205777Y-12334484D02*
X4243872Y-12334484D01*
X4243872Y-12334484D02*
X4262920Y-12344008D01*
X4262920Y-12344008D02*
X4272444Y-12353531D01*
X4272444Y-12353531D02*
X4281968Y-12372579D01*
X4281968Y-12372579D02*
X4281968Y-12382103D01*
X4281968Y-12382103D02*
X4272444Y-12401150D01*
X4272444Y-12401150D02*
X4262920Y-12410674D01*
X4262920Y-12410674D02*
X4243872Y-12420198D01*
X4243872Y-12420198D02*
X4205777Y-12420198D01*
X4205777Y-12420198D02*
X4186729Y-12429722D01*
X4186729Y-12429722D02*
X4177206Y-12439246D01*
X4177206Y-12439246D02*
X4167682Y-12458293D01*
X4167682Y-12458293D02*
X4167682Y-12496388D01*
X4167682Y-12496388D02*
X4177206Y-12515436D01*
X4177206Y-12515436D02*
X4186729Y-12524960D01*
X4186729Y-12524960D02*
X4205777Y-12534484D01*
X4205777Y-12534484D02*
X4243872Y-12534484D01*
X4243872Y-12534484D02*
X4262920Y-12524960D01*
X4262920Y-12524960D02*
X4272444Y-12515436D01*
X4272444Y-12515436D02*
X4281968Y-12496388D01*
X4281968Y-12496388D02*
X4281968Y-12458293D01*
X4281968Y-12458293D02*
X4272444Y-12439246D01*
X4272444Y-12439246D02*
X4262920Y-12429722D01*
X4262920Y-12429722D02*
X4243872Y-12420198D01*
X4472444Y-12534484D02*
X4358158Y-12534484D01*
X4415301Y-12534484D02*
X4415301Y-12334484D01*
X4415301Y-12334484D02*
X4396253Y-12363055D01*
X4396253Y-12363055D02*
X4377206Y-12382103D01*
X4377206Y-12382103D02*
X4358158Y-12391627D01*
X4548634Y-12334484D02*
X4548634Y-12372579D01*
X4624825Y-12334484D02*
X4624825Y-12372579D01*
X4920063Y-12610674D02*
X4910539Y-12601150D01*
X4910539Y-12601150D02*
X4891491Y-12572579D01*
X4891491Y-12572579D02*
X4881968Y-12553531D01*
X4881968Y-12553531D02*
X4872444Y-12524960D01*
X4872444Y-12524960D02*
X4862920Y-12477341D01*
X4862920Y-12477341D02*
X4862920Y-12439246D01*
X4862920Y-12439246D02*
X4872444Y-12391627D01*
X4872444Y-12391627D02*
X4881968Y-12363055D01*
X4881968Y-12363055D02*
X4891491Y-12344008D01*
X4891491Y-12344008D02*
X4910539Y-12315436D01*
X4910539Y-12315436D02*
X4920063Y-12305912D01*
X5081968Y-12401150D02*
X5081968Y-12534484D01*
X5034349Y-12324960D02*
X4986730Y-12467817D01*
X4986730Y-12467817D02*
X5110539Y-12467817D01*
X5339111Y-12534484D02*
X5339111Y-12334484D01*
X5424825Y-12534484D02*
X5424825Y-12429722D01*
X5424825Y-12429722D02*
X5415301Y-12410674D01*
X5415301Y-12410674D02*
X5396253Y-12401150D01*
X5396253Y-12401150D02*
X5367682Y-12401150D01*
X5367682Y-12401150D02*
X5348634Y-12410674D01*
X5348634Y-12410674D02*
X5339111Y-12420198D01*
X5548634Y-12534484D02*
X5529587Y-12524960D01*
X5529587Y-12524960D02*
X5520063Y-12515436D01*
X5520063Y-12515436D02*
X5510539Y-12496388D01*
X5510539Y-12496388D02*
X5510539Y-12439246D01*
X5510539Y-12439246D02*
X5520063Y-12420198D01*
X5520063Y-12420198D02*
X5529587Y-12410674D01*
X5529587Y-12410674D02*
X5548634Y-12401150D01*
X5548634Y-12401150D02*
X5577206Y-12401150D01*
X5577206Y-12401150D02*
X5596253Y-12410674D01*
X5596253Y-12410674D02*
X5605777Y-12420198D01*
X5605777Y-12420198D02*
X5615301Y-12439246D01*
X5615301Y-12439246D02*
X5615301Y-12496388D01*
X5615301Y-12496388D02*
X5605777Y-12515436D01*
X5605777Y-12515436D02*
X5596253Y-12524960D01*
X5596253Y-12524960D02*
X5577206Y-12534484D01*
X5577206Y-12534484D02*
X5548634Y-12534484D01*
X5729587Y-12534484D02*
X5710539Y-12524960D01*
X5710539Y-12524960D02*
X5701015Y-12505912D01*
X5701015Y-12505912D02*
X5701015Y-12334484D01*
X5881968Y-12524960D02*
X5862920Y-12534484D01*
X5862920Y-12534484D02*
X5824825Y-12534484D01*
X5824825Y-12534484D02*
X5805777Y-12524960D01*
X5805777Y-12524960D02*
X5796253Y-12505912D01*
X5796253Y-12505912D02*
X5796253Y-12429722D01*
X5796253Y-12429722D02*
X5805777Y-12410674D01*
X5805777Y-12410674D02*
X5824825Y-12401150D01*
X5824825Y-12401150D02*
X5862920Y-12401150D01*
X5862920Y-12401150D02*
X5881968Y-12410674D01*
X5881968Y-12410674D02*
X5891491Y-12429722D01*
X5891491Y-12429722D02*
X5891491Y-12448769D01*
X5891491Y-12448769D02*
X5796253Y-12467817D01*
X5967682Y-12524960D02*
X5986730Y-12534484D01*
X5986730Y-12534484D02*
X6024825Y-12534484D01*
X6024825Y-12534484D02*
X6043872Y-12524960D01*
X6043872Y-12524960D02*
X6053396Y-12505912D01*
X6053396Y-12505912D02*
X6053396Y-12496388D01*
X6053396Y-12496388D02*
X6043872Y-12477341D01*
X6043872Y-12477341D02*
X6024825Y-12467817D01*
X6024825Y-12467817D02*
X5996253Y-12467817D01*
X5996253Y-12467817D02*
X5977206Y-12458293D01*
X5977206Y-12458293D02*
X5967682Y-12439246D01*
X5967682Y-12439246D02*
X5967682Y-12429722D01*
X5967682Y-12429722D02*
X5977206Y-12410674D01*
X5977206Y-12410674D02*
X5996253Y-12401150D01*
X5996253Y-12401150D02*
X6024825Y-12401150D01*
X6024825Y-12401150D02*
X6043872Y-12410674D01*
X6120063Y-12610674D02*
X6129587Y-12601150D01*
X6129587Y-12601150D02*
X6148634Y-12572579D01*
X6148634Y-12572579D02*
X6158158Y-12553531D01*
X6158158Y-12553531D02*
X6167682Y-12524960D01*
X6167682Y-12524960D02*
X6177206Y-12477341D01*
X6177206Y-12477341D02*
X6177206Y-12439246D01*
X6177206Y-12439246D02*
X6167682Y-12391627D01*
X6167682Y-12391627D02*
X6158158Y-12363055D01*
X6158158Y-12363055D02*
X6148634Y-12344008D01*
X6148634Y-12344008D02*
X6129587Y-12315436D01*
X6129587Y-12315436D02*
X6120063Y-12305912D01*
X6481968Y-12610674D02*
X6472444Y-12601150D01*
X6472444Y-12601150D02*
X6453396Y-12572579D01*
X6453396Y-12572579D02*
X6443872Y-12553531D01*
X6443872Y-12553531D02*
X6434349Y-12524960D01*
X6434349Y-12524960D02*
X6424825Y-12477341D01*
X6424825Y-12477341D02*
X6424825Y-12439246D01*
X6424825Y-12439246D02*
X6434349Y-12391627D01*
X6434349Y-12391627D02*
X6443872Y-12363055D01*
X6443872Y-12363055D02*
X6453396Y-12344008D01*
X6453396Y-12344008D02*
X6472444Y-12315436D01*
X6472444Y-12315436D02*
X6481968Y-12305912D01*
X6558158Y-12401150D02*
X6558158Y-12534484D01*
X6558158Y-12420198D02*
X6567682Y-12410674D01*
X6567682Y-12410674D02*
X6586730Y-12401150D01*
X6586730Y-12401150D02*
X6615301Y-12401150D01*
X6615301Y-12401150D02*
X6634349Y-12410674D01*
X6634349Y-12410674D02*
X6643872Y-12429722D01*
X6643872Y-12429722D02*
X6643872Y-12534484D01*
X6767682Y-12534484D02*
X6748634Y-12524960D01*
X6748634Y-12524960D02*
X6739111Y-12515436D01*
X6739111Y-12515436D02*
X6729587Y-12496388D01*
X6729587Y-12496388D02*
X6729587Y-12439246D01*
X6729587Y-12439246D02*
X6739111Y-12420198D01*
X6739111Y-12420198D02*
X6748634Y-12410674D01*
X6748634Y-12410674D02*
X6767682Y-12401150D01*
X6767682Y-12401150D02*
X6796253Y-12401150D01*
X6796253Y-12401150D02*
X6815301Y-12410674D01*
X6815301Y-12410674D02*
X6824825Y-12420198D01*
X6824825Y-12420198D02*
X6834349Y-12439246D01*
X6834349Y-12439246D02*
X6834349Y-12496388D01*
X6834349Y-12496388D02*
X6824825Y-12515436D01*
X6824825Y-12515436D02*
X6815301Y-12524960D01*
X6815301Y-12524960D02*
X6796253Y-12534484D01*
X6796253Y-12534484D02*
X6767682Y-12534484D01*
X6891492Y-12401150D02*
X6967682Y-12401150D01*
X6920063Y-12334484D02*
X6920063Y-12505912D01*
X6920063Y-12505912D02*
X6929587Y-12524960D01*
X6929587Y-12524960D02*
X6948634Y-12534484D01*
X6948634Y-12534484D02*
X6967682Y-12534484D01*
X7186730Y-12401150D02*
X7186730Y-12601150D01*
X7186730Y-12410674D02*
X7205777Y-12401150D01*
X7205777Y-12401150D02*
X7243873Y-12401150D01*
X7243873Y-12401150D02*
X7262920Y-12410674D01*
X7262920Y-12410674D02*
X7272444Y-12420198D01*
X7272444Y-12420198D02*
X7281968Y-12439246D01*
X7281968Y-12439246D02*
X7281968Y-12496388D01*
X7281968Y-12496388D02*
X7272444Y-12515436D01*
X7272444Y-12515436D02*
X7262920Y-12524960D01*
X7262920Y-12524960D02*
X7243873Y-12534484D01*
X7243873Y-12534484D02*
X7205777Y-12534484D01*
X7205777Y-12534484D02*
X7186730Y-12524960D01*
X7396253Y-12534484D02*
X7377206Y-12524960D01*
X7377206Y-12524960D02*
X7367682Y-12505912D01*
X7367682Y-12505912D02*
X7367682Y-12334484D01*
X7558158Y-12534484D02*
X7558158Y-12429722D01*
X7558158Y-12429722D02*
X7548634Y-12410674D01*
X7548634Y-12410674D02*
X7529587Y-12401150D01*
X7529587Y-12401150D02*
X7491492Y-12401150D01*
X7491492Y-12401150D02*
X7472444Y-12410674D01*
X7558158Y-12524960D02*
X7539111Y-12534484D01*
X7539111Y-12534484D02*
X7491492Y-12534484D01*
X7491492Y-12534484D02*
X7472444Y-12524960D01*
X7472444Y-12524960D02*
X7462920Y-12505912D01*
X7462920Y-12505912D02*
X7462920Y-12486865D01*
X7462920Y-12486865D02*
X7472444Y-12467817D01*
X7472444Y-12467817D02*
X7491492Y-12458293D01*
X7491492Y-12458293D02*
X7539111Y-12458293D01*
X7539111Y-12458293D02*
X7558158Y-12448769D01*
X7624825Y-12401150D02*
X7701015Y-12401150D01*
X7653396Y-12334484D02*
X7653396Y-12505912D01*
X7653396Y-12505912D02*
X7662920Y-12524960D01*
X7662920Y-12524960D02*
X7681968Y-12534484D01*
X7681968Y-12534484D02*
X7701015Y-12534484D01*
X7843873Y-12524960D02*
X7824825Y-12534484D01*
X7824825Y-12534484D02*
X7786730Y-12534484D01*
X7786730Y-12534484D02*
X7767682Y-12524960D01*
X7767682Y-12524960D02*
X7758158Y-12505912D01*
X7758158Y-12505912D02*
X7758158Y-12429722D01*
X7758158Y-12429722D02*
X7767682Y-12410674D01*
X7767682Y-12410674D02*
X7786730Y-12401150D01*
X7786730Y-12401150D02*
X7824825Y-12401150D01*
X7824825Y-12401150D02*
X7843873Y-12410674D01*
X7843873Y-12410674D02*
X7853396Y-12429722D01*
X7853396Y-12429722D02*
X7853396Y-12448769D01*
X7853396Y-12448769D02*
X7758158Y-12467817D01*
X8024825Y-12534484D02*
X8024825Y-12334484D01*
X8024825Y-12524960D02*
X8005777Y-12534484D01*
X8005777Y-12534484D02*
X7967682Y-12534484D01*
X7967682Y-12534484D02*
X7948634Y-12524960D01*
X7948634Y-12524960D02*
X7939111Y-12515436D01*
X7939111Y-12515436D02*
X7929587Y-12496388D01*
X7929587Y-12496388D02*
X7929587Y-12439246D01*
X7929587Y-12439246D02*
X7939111Y-12420198D01*
X7939111Y-12420198D02*
X7948634Y-12410674D01*
X7948634Y-12410674D02*
X7967682Y-12401150D01*
X7967682Y-12401150D02*
X8005777Y-12401150D01*
X8005777Y-12401150D02*
X8024825Y-12410674D01*
X8101015Y-12610674D02*
X8110539Y-12601150D01*
X8110539Y-12601150D02*
X8129587Y-12572579D01*
X8129587Y-12572579D02*
X8139111Y-12553531D01*
X8139111Y-12553531D02*
X8148634Y-12524960D01*
X8148634Y-12524960D02*
X8158158Y-12477341D01*
X8158158Y-12477341D02*
X8158158Y-12439246D01*
X8158158Y-12439246D02*
X8148634Y-12391627D01*
X8148634Y-12391627D02*
X8139111Y-12363055D01*
X8139111Y-12363055D02*
X8129587Y-12344008D01*
X8129587Y-12344008D02*
X8110539Y-12315436D01*
X8110539Y-12315436D02*
X8101015Y-12305912D01*
M02*
