M48
; DRILL file {KiCad 8.0.3} date 2024-11-19T22:16:24+0100
; FORMAT={-:-/ absolute / inch / decimal}
; #@! TF.CreationDate,2024-11-19T22:16:24+01:00
; #@! TF.GenerationSoftware,Kicad,Pcbnew,8.0.3
; #@! TF.FileFunction,Plated,1,2,PTH
FMAT,2
INCH
; #@! TA.AperFunction,Plated,PTH,ViaDrill
T1C0.0157
; #@! TA.AperFunction,Plated,PTH,ComponentDrill
T2C0.0276
; #@! TA.AperFunction,Plated,PTH,ComponentDrill
T3C0.0374
; #@! TA.AperFunction,Plated,PTH,ComponentDrill
T4C0.0394
; #@! TA.AperFunction,Plated,PTH,ComponentDrill
T5C0.0402
; #@! TA.AperFunction,Plated,PTH,ComponentDrill
T6C0.0512
; #@! TA.AperFunction,Plated,PTH,ComponentDrill
T7C0.0984
%
G90
G05
T1
X0.6378Y-2.75
X0.68Y-0.71
X0.7Y-2.61
X0.72Y-1.17
X0.77Y-2.33
X1.0293Y-2.0581
X1.07Y-2.28
X1.1Y-4.0
X1.19Y-3.55
X1.2Y-2.71
X1.29Y-1.39
X1.3312Y-2.2492
X1.34Y-2.34
X1.35Y-4.24
X1.42Y-1.86
X1.43Y-1.64
X1.43Y-1.71
X1.43Y-1.79
X1.49Y-2.43
X1.49Y-3.29
X1.5Y-2.72
X1.6655Y-2.9995
X1.68Y-1.37
X1.71Y-1.81
X1.71Y-1.93
X1.71Y-2.01
X1.72Y-2.43
X1.72Y-2.71
X1.775Y-2.155
X1.78Y-3.78
X1.82Y-1.265
X1.86Y-3.58
X1.87Y-2.76
X1.87Y-3.02
X2.05Y-2.94
X2.051Y-2.2
X2.06Y-2.41
X2.09Y-0.91
X2.094Y-2.786
X2.1Y-2.5219
X2.135Y-1.837
X2.141Y-1.903
X2.17Y-1.26
X2.18Y-1.5
X2.18Y-1.56
X2.18Y-1.6
X2.204Y-1.898
X2.205Y-1.838
X2.22Y-2.04
X2.22Y-2.08
X2.32Y-2.78
X2.33Y-2.18
X2.33Y-2.29
X2.35Y-2.45
X2.38Y-1.52
X2.38Y-1.58
X2.39Y-2.04
X2.39Y-2.1
X2.4Y-0.97
X2.45Y-3.69
X2.48Y-1.17
X2.59Y-2.51
X2.6Y-1.96
X2.6Y-2.01
X2.6Y-2.06
X2.6Y-2.11
X2.6Y-2.9
X2.644Y-0.822
X2.67Y-1.19
X2.75Y-1.9
X2.75Y-1.95
X2.75Y-2.0
X2.75Y-2.05
X2.9Y-1.34
X2.96Y-1.11
X2.96Y-1.19
X2.96Y-1.26
X3.02Y-0.64
X3.04Y-4.18
X3.1Y-1.13
X3.1Y-1.19
X3.1Y-1.26
X3.1Y-2.14
X3.19Y-3.59
X3.29Y-4.21
X3.35Y-2.3
X3.3915Y-1.1285
X3.51Y-1.06
X3.51Y-1.22
X3.57Y-2.94
X3.65Y-3.6
X3.67Y-0.67
X3.77Y-2.69
X3.8Y-3.6
X3.81Y-3.38
X3.81Y-3.44
X3.89Y-0.98
X4.03Y-1.42
X4.03Y-3.44
X4.03Y-3.5
X4.16Y-2.61
X4.31Y-2.74
X4.32Y-0.96
T2
X4.1Y-3.05
X4.3Y-3.05
T3
X0.9031Y-4.25
X1.0016Y-4.25
X1.1Y-4.25
X1.543Y-4.25
X1.6414Y-4.25
X1.7398Y-4.25
X1.8383Y-4.25
X2.2Y-4.25
X2.2984Y-4.25
X2.3969Y-4.25
X2.4953Y-4.25
X2.5937Y-4.25
T4
X0.7Y-3.8
X0.725Y-3.55
X0.74Y-3.2
X0.8Y-3.8
X0.825Y-3.55
X0.84Y-3.2
X0.9Y-3.8
X0.925Y-3.55
X0.94Y-3.2
X1.0Y-3.8
X1.04Y-3.2
X1.1Y-3.8
X1.2Y-3.8
X1.3Y-3.8
X1.4Y-3.8
X2.1Y-2.7
X2.1Y-3.3
X2.2Y-2.7
X2.2Y-3.3
X2.25Y-0.6752
X2.25Y-0.7752
X2.25Y-0.8752
X2.25Y-0.9752
X2.25Y-1.0752
X2.3Y-2.7
X2.3Y-3.3
X2.4Y-2.7
X2.4Y-3.3
X2.475Y-1.775
X2.475Y-1.875
X2.475Y-1.975
X2.475Y-2.075
X2.475Y-2.175
X2.475Y-2.275
X2.5Y-0.6752
X2.5Y-0.7752
X2.5Y-0.8752
X2.5Y-0.9752
X2.5Y-2.7
X2.5Y-3.3
X2.6Y-2.7
X2.6Y-3.3
X2.7Y-2.7
X2.7Y-3.3
X2.8Y-2.7
X2.8Y-3.3
X2.82Y-0.66
X2.82Y-0.76
X2.82Y-0.86
X2.82Y-0.96
X2.82Y-1.06
X2.82Y-1.16
X2.82Y-1.26
X2.875Y-1.775
X2.875Y-1.875
X2.875Y-1.975
X2.875Y-2.075
X2.875Y-2.175
X2.875Y-2.275
X2.9Y-2.7
X2.9Y-3.3
X3.0Y-2.7
X3.0Y-3.3
X3.1Y-2.7
X3.1Y-3.3
X3.2Y-2.7
X3.2Y-3.3
X3.2Y-3.9
X3.2Y-4.3
X3.3Y-3.7
X3.3Y-4.1
X3.4Y-1.525
X3.4Y-1.7
X3.4Y-3.7
X3.4Y-3.9
X3.4Y-4.1
X3.4Y-4.3
X3.5Y-1.525
X3.5Y-1.7
X3.5Y-3.7
X3.5Y-3.9
X3.5Y-4.1
X3.5Y-4.3
X3.6Y-1.525
X3.6Y-1.7
X3.6Y-1.925
X3.6Y-2.075
X3.6Y-2.225
X3.6Y-2.375
X3.6Y-2.525
X3.6Y-3.7
X3.6Y-3.9
X3.6Y-4.1
X3.6Y-4.3
X3.7Y-1.525
X3.7Y-1.7
X3.7Y-1.925
X3.7Y-2.075
X3.7Y-2.225
X3.7Y-2.375
X3.7Y-2.525
X3.8Y-1.15
X3.8Y-1.3
X3.8Y-1.525
X3.8Y-1.7
X3.8Y-1.925
X3.8Y-2.075
X3.8Y-2.225
X3.8Y-2.375
X3.8Y-2.525
X3.8Y-2.875
X3.85Y-0.65
X3.9Y-1.15
X3.9Y-1.3
X3.9Y-1.525
X3.9Y-1.7
X3.9Y-1.925
X3.9Y-2.075
X3.9Y-2.225
X3.9Y-2.375
X3.9Y-2.525
X3.9Y-2.875
X3.9Y-3.9
X3.9Y-4.3
X3.95Y-0.65
X4.0Y-1.15
X4.0Y-1.3
X4.0Y-1.525
X4.0Y-1.7
X4.0Y-1.925
X4.0Y-2.075
X4.0Y-2.225
X4.0Y-2.375
X4.0Y-2.525
X4.0Y-2.875
X4.0Y-3.7
X4.0Y-4.1
X4.05Y-0.65
X4.1Y-1.15
X4.1Y-1.3
X4.1Y-1.525
X4.1Y-1.7
X4.1Y-1.925
X4.1Y-2.075
X4.1Y-2.225
X4.1Y-2.375
X4.1Y-2.525
X4.1Y-2.875
X4.1Y-3.7
X4.1Y-3.9
X4.1Y-4.1
X4.1Y-4.3
X4.15Y-0.65
X4.2Y-1.15
X4.2Y-1.3
X4.2Y-1.525
X4.2Y-1.7
X4.2Y-1.925
X4.2Y-2.075
X4.2Y-2.225
X4.2Y-2.375
X4.2Y-2.525
X4.2Y-2.875
X4.2Y-3.7
X4.2Y-3.9
X4.2Y-4.1
X4.2Y-4.3
X4.25Y-0.65
X4.3Y-1.15
X4.3Y-1.3
X4.3Y-1.525
X4.3Y-1.7
X4.3Y-1.925
X4.3Y-2.075
X4.3Y-2.225
X4.3Y-2.375
X4.3Y-2.525
X4.3Y-2.875
X4.3Y-3.7
X4.3Y-3.9
X4.3Y-4.1
X4.3Y-4.3
X4.35Y-0.65
T5
X0.884Y-0.7128
X0.884Y-0.8128
X0.884Y-0.9128
X0.884Y-1.0128
X0.884Y-1.1128
X0.884Y-1.2128
X0.884Y-1.3128
X0.884Y-1.4128
X0.884Y-1.5128
X0.884Y-1.6128
X0.884Y-1.7128
X0.884Y-1.8128
X0.884Y-1.9128
X0.884Y-2.0128
X0.884Y-2.1128
X1.884Y-0.7128
X1.884Y-0.8128
X1.884Y-0.9128
X1.884Y-1.0128
X1.884Y-1.1128
X1.884Y-1.2128
X1.884Y-1.3128
X1.884Y-1.4128
X1.884Y-1.5128
X1.884Y-1.6128
X1.884Y-1.7128
X1.884Y-1.8128
X1.884Y-1.9128
X1.884Y-2.0128
X1.884Y-2.1128
T6
X3.2Y-0.7527
X3.3969Y-0.7527
T7
X2.15Y-3.0
X3.15Y-3.0
M30
