%TF.GenerationSoftware,KiCad,Pcbnew,8.0.3*%
%TF.CreationDate,2024-11-19T22:16:25+01:00*%
%TF.ProjectId,weerstation-main,77656572-7374-4617-9469-6f6e2d6d6169,rev?*%
%TF.SameCoordinates,Original*%
%TF.FileFunction,Drillmap*%
%TF.FilePolarity,Positive*%
%FSLAX45Y45*%
G04 Gerber Fmt 4.5, Leading zero omitted, Abs format (unit mm)*
G04 Created by KiCad (PCBNEW 8.0.3) date 2024-11-19 22:16:25*
%MOMM*%
%LPD*%
G01*
G04 APERTURE LIST*
%ADD10C,0.100000*%
%ADD11C,0.200000*%
%ADD12C,0.102000*%
%ADD13C,0.130000*%
%ADD14C,0.250000*%
G04 APERTURE END LIST*
D10*
X1350000Y-1270000D02*
X11350000Y-1270000D01*
X11350000Y-11270000D01*
X1350000Y-11270000D01*
X1350000Y-1270000D01*
D11*
D10*
X1599900Y-6965000D02*
X1639900Y-7005000D01*
X1639900Y-6965000D02*
X1599900Y-7005000D01*
X1707200Y-1783400D02*
X1747200Y-1823400D01*
X1747200Y-1783400D02*
X1707200Y-1823400D01*
X1758000Y-6609400D02*
X1798000Y-6649400D01*
X1798000Y-6609400D02*
X1758000Y-6649400D01*
X1808800Y-2951800D02*
X1848800Y-2991800D01*
X1848800Y-2951800D02*
X1808800Y-2991800D01*
X1935800Y-5898200D02*
X1975800Y-5938200D01*
X1975800Y-5898200D02*
X1935800Y-5938200D01*
X2594350Y-5207670D02*
X2634350Y-5247670D01*
X2634350Y-5207670D02*
X2594350Y-5247670D01*
X2697800Y-5771200D02*
X2737800Y-5811200D01*
X2737800Y-5771200D02*
X2697800Y-5811200D01*
X2774000Y-10140000D02*
X2814000Y-10180000D01*
X2814000Y-10140000D02*
X2774000Y-10180000D01*
X3002600Y-8997000D02*
X3042600Y-9037000D01*
X3042600Y-8997000D02*
X3002600Y-9037000D01*
X3028000Y-6863400D02*
X3068000Y-6903400D01*
X3068000Y-6863400D02*
X3028000Y-6903400D01*
X3256600Y-3510600D02*
X3296600Y-3550600D01*
X3296600Y-3510600D02*
X3256600Y-3550600D01*
X3361320Y-5693080D02*
X3401320Y-5733080D01*
X3401320Y-5693080D02*
X3361320Y-5733080D01*
X3383600Y-5923600D02*
X3423600Y-5963600D01*
X3423600Y-5923600D02*
X3383600Y-5963600D01*
X3409000Y-10749600D02*
X3449000Y-10789600D01*
X3449000Y-10749600D02*
X3409000Y-10789600D01*
X3586800Y-4704400D02*
X3626800Y-4744400D01*
X3626800Y-4704400D02*
X3586800Y-4744400D01*
X3612200Y-4145600D02*
X3652200Y-4185600D01*
X3652200Y-4145600D02*
X3612200Y-4185600D01*
X3612200Y-4323400D02*
X3652200Y-4363400D01*
X3652200Y-4323400D02*
X3612200Y-4363400D01*
X3612200Y-4526600D02*
X3652200Y-4566600D01*
X3652200Y-4526600D02*
X3612200Y-4566600D01*
X3764600Y-6152200D02*
X3804600Y-6192200D01*
X3804600Y-6152200D02*
X3764600Y-6192200D01*
X3764600Y-8336600D02*
X3804600Y-8376600D01*
X3804600Y-8336600D02*
X3764600Y-8376600D01*
X3790000Y-6888800D02*
X3830000Y-6928800D01*
X3830000Y-6888800D02*
X3790000Y-6928800D01*
X4210430Y-7598790D02*
X4250430Y-7638790D01*
X4250430Y-7598790D02*
X4210430Y-7638790D01*
X4247200Y-3459800D02*
X4287200Y-3499800D01*
X4287200Y-3459800D02*
X4247200Y-3499800D01*
X4323400Y-4577400D02*
X4363400Y-4617400D01*
X4363400Y-4577400D02*
X4323400Y-4617400D01*
X4323400Y-4882200D02*
X4363400Y-4922200D01*
X4363400Y-4882200D02*
X4323400Y-4922200D01*
X4323400Y-5085400D02*
X4363400Y-5125400D01*
X4363400Y-5085400D02*
X4323400Y-5125400D01*
X4348800Y-6152200D02*
X4388800Y-6192200D01*
X4388800Y-6152200D02*
X4348800Y-6192200D01*
X4348800Y-6863400D02*
X4388800Y-6903400D01*
X4388800Y-6863400D02*
X4348800Y-6903400D01*
X4488500Y-5453700D02*
X4528500Y-5493700D01*
X4528500Y-5453700D02*
X4488500Y-5493700D01*
X4501200Y-9581200D02*
X4541200Y-9621200D01*
X4541200Y-9581200D02*
X4501200Y-9621200D01*
X4602800Y-3193100D02*
X4642800Y-3233100D01*
X4642800Y-3193100D02*
X4602800Y-3233100D01*
X4704400Y-9073200D02*
X4744400Y-9113200D01*
X4744400Y-9073200D02*
X4704400Y-9113200D01*
X4729800Y-6990400D02*
X4769800Y-7030400D01*
X4769800Y-6990400D02*
X4729800Y-7030400D01*
X4729800Y-7650800D02*
X4769800Y-7690800D01*
X4769800Y-7650800D02*
X4729800Y-7690800D01*
X5187000Y-7447600D02*
X5227000Y-7487600D01*
X5227000Y-7447600D02*
X5187000Y-7487600D01*
X5189540Y-5568000D02*
X5229540Y-5608000D01*
X5229540Y-5568000D02*
X5189540Y-5608000D01*
X5212400Y-6101400D02*
X5252400Y-6141400D01*
X5252400Y-6101400D02*
X5212400Y-6141400D01*
X5288600Y-2291400D02*
X5328600Y-2331400D01*
X5328600Y-2291400D02*
X5288600Y-2331400D01*
X5298760Y-7056440D02*
X5338760Y-7096440D01*
X5338760Y-7056440D02*
X5298760Y-7096440D01*
X5314000Y-6385730D02*
X5354000Y-6425730D01*
X5354000Y-6385730D02*
X5314000Y-6425730D01*
X5402900Y-4645980D02*
X5442900Y-4685980D01*
X5442900Y-4645980D02*
X5402900Y-4685980D01*
X5418140Y-4813620D02*
X5458140Y-4853620D01*
X5458140Y-4813620D02*
X5418140Y-4853620D01*
X5491800Y-3180400D02*
X5531800Y-3220400D01*
X5531800Y-3180400D02*
X5491800Y-3220400D01*
X5517200Y-3790000D02*
X5557200Y-3830000D01*
X5557200Y-3790000D02*
X5517200Y-3830000D01*
X5517200Y-3942400D02*
X5557200Y-3982400D01*
X5557200Y-3942400D02*
X5517200Y-3982400D01*
X5517200Y-4044000D02*
X5557200Y-4084000D01*
X5557200Y-4044000D02*
X5517200Y-4084000D01*
X5578160Y-4800920D02*
X5618160Y-4840920D01*
X5618160Y-4800920D02*
X5578160Y-4840920D01*
X5580700Y-4648520D02*
X5620700Y-4688520D01*
X5620700Y-4648520D02*
X5580700Y-4688520D01*
X5618800Y-5161600D02*
X5658800Y-5201600D01*
X5658800Y-5161600D02*
X5618800Y-5201600D01*
X5618800Y-5263200D02*
X5658800Y-5303200D01*
X5658800Y-5263200D02*
X5618800Y-5303200D01*
X5872800Y-7041200D02*
X5912800Y-7081200D01*
X5912800Y-7041200D02*
X5872800Y-7081200D01*
X5898200Y-5517200D02*
X5938200Y-5557200D01*
X5938200Y-5517200D02*
X5898200Y-5557200D01*
X5898200Y-5796600D02*
X5938200Y-5836600D01*
X5938200Y-5796600D02*
X5898200Y-5836600D01*
X5949000Y-6203000D02*
X5989000Y-6243000D01*
X5989000Y-6203000D02*
X5949000Y-6243000D01*
X6025200Y-3840800D02*
X6065200Y-3880800D01*
X6065200Y-3840800D02*
X6025200Y-3880800D01*
X6025200Y-3993200D02*
X6065200Y-4033200D01*
X6065200Y-3993200D02*
X6025200Y-4033200D01*
X6050600Y-5161600D02*
X6090600Y-5201600D01*
X6090600Y-5161600D02*
X6050600Y-5201600D01*
X6050600Y-5314000D02*
X6090600Y-5354000D01*
X6090600Y-5314000D02*
X6050600Y-5354000D01*
X6076000Y-2443800D02*
X6116000Y-2483800D01*
X6116000Y-2443800D02*
X6076000Y-2483800D01*
X6203000Y-9352600D02*
X6243000Y-9392600D01*
X6243000Y-9352600D02*
X6203000Y-9392600D01*
X6279200Y-2951800D02*
X6319200Y-2991800D01*
X6319200Y-2951800D02*
X6279200Y-2991800D01*
X6558600Y-6355400D02*
X6598600Y-6395400D01*
X6598600Y-6355400D02*
X6558600Y-6395400D01*
X6584000Y-4958400D02*
X6624000Y-4998400D01*
X6624000Y-4958400D02*
X6584000Y-4998400D01*
X6584000Y-5085400D02*
X6624000Y-5125400D01*
X6624000Y-5085400D02*
X6584000Y-5125400D01*
X6584000Y-5212400D02*
X6624000Y-5252400D01*
X6624000Y-5212400D02*
X6584000Y-5252400D01*
X6584000Y-5339400D02*
X6624000Y-5379400D01*
X6624000Y-5339400D02*
X6584000Y-5379400D01*
X6584000Y-7346000D02*
X6624000Y-7386000D01*
X6624000Y-7346000D02*
X6584000Y-7386000D01*
X6695760Y-2067880D02*
X6735760Y-2107880D01*
X6735760Y-2067880D02*
X6695760Y-2107880D01*
X6761800Y-3002600D02*
X6801800Y-3042600D01*
X6801800Y-3002600D02*
X6761800Y-3042600D01*
X6965000Y-4806000D02*
X7005000Y-4846000D01*
X7005000Y-4806000D02*
X6965000Y-4846000D01*
X6965000Y-4933000D02*
X7005000Y-4973000D01*
X7005000Y-4933000D02*
X6965000Y-4973000D01*
X6965000Y-5060000D02*
X7005000Y-5100000D01*
X7005000Y-5060000D02*
X6965000Y-5100000D01*
X6965000Y-5187000D02*
X7005000Y-5227000D01*
X7005000Y-5187000D02*
X6965000Y-5227000D01*
X7346000Y-3383600D02*
X7386000Y-3423600D01*
X7386000Y-3383600D02*
X7346000Y-3423600D01*
X7498400Y-2799400D02*
X7538400Y-2839400D01*
X7538400Y-2799400D02*
X7498400Y-2839400D01*
X7498400Y-3002600D02*
X7538400Y-3042600D01*
X7538400Y-3002600D02*
X7498400Y-3042600D01*
X7498400Y-3180400D02*
X7538400Y-3220400D01*
X7538400Y-3180400D02*
X7498400Y-3220400D01*
X7650800Y-1605600D02*
X7690800Y-1645600D01*
X7690800Y-1605600D02*
X7650800Y-1645600D01*
X7701600Y-10597200D02*
X7741600Y-10637200D01*
X7741600Y-10597200D02*
X7701600Y-10637200D01*
X7854000Y-2850200D02*
X7894000Y-2890200D01*
X7894000Y-2850200D02*
X7854000Y-2890200D01*
X7854000Y-3002600D02*
X7894000Y-3042600D01*
X7894000Y-3002600D02*
X7854000Y-3042600D01*
X7854000Y-3180400D02*
X7894000Y-3220400D01*
X7894000Y-3180400D02*
X7854000Y-3220400D01*
X7854000Y-5415600D02*
X7894000Y-5455600D01*
X7894000Y-5415600D02*
X7854000Y-5455600D01*
X8082600Y-9098600D02*
X8122600Y-9138600D01*
X8122600Y-9098600D02*
X8082600Y-9138600D01*
X8336600Y-10673400D02*
X8376600Y-10713400D01*
X8376600Y-10673400D02*
X8336600Y-10713400D01*
X8489000Y-5822000D02*
X8529000Y-5862000D01*
X8529000Y-5822000D02*
X8489000Y-5862000D01*
X8594450Y-2846350D02*
X8634450Y-2886350D01*
X8634450Y-2846350D02*
X8594450Y-2886350D01*
X8895400Y-2672400D02*
X8935400Y-2712400D01*
X8935400Y-2672400D02*
X8895400Y-2712400D01*
X8895400Y-3078800D02*
X8935400Y-3118800D01*
X8935400Y-3078800D02*
X8895400Y-3118800D01*
X9047800Y-7447600D02*
X9087800Y-7487600D01*
X9087800Y-7447600D02*
X9047800Y-7487600D01*
X9251000Y-9124000D02*
X9291000Y-9164000D01*
X9291000Y-9124000D02*
X9251000Y-9164000D01*
X9301800Y-1681800D02*
X9341800Y-1721800D01*
X9341800Y-1681800D02*
X9301800Y-1721800D01*
X9555800Y-6812600D02*
X9595800Y-6852600D01*
X9595800Y-6812600D02*
X9555800Y-6852600D01*
X9632000Y-9124000D02*
X9672000Y-9164000D01*
X9672000Y-9124000D02*
X9632000Y-9164000D01*
X9657400Y-8565200D02*
X9697400Y-8605200D01*
X9697400Y-8565200D02*
X9657400Y-8605200D01*
X9657400Y-8717600D02*
X9697400Y-8757600D01*
X9697400Y-8717600D02*
X9657400Y-8757600D01*
X9860600Y-2469200D02*
X9900600Y-2509200D01*
X9900600Y-2469200D02*
X9860600Y-2509200D01*
X10216200Y-3586800D02*
X10256200Y-3626800D01*
X10256200Y-3586800D02*
X10216200Y-3626800D01*
X10216200Y-8717600D02*
X10256200Y-8757600D01*
X10256200Y-8717600D02*
X10216200Y-8757600D01*
X10216200Y-8870000D02*
X10256200Y-8910000D01*
X10256200Y-8870000D02*
X10216200Y-8910000D01*
X10546400Y-6609400D02*
X10586400Y-6649400D01*
X10586400Y-6609400D02*
X10546400Y-6649400D01*
X10927400Y-6939600D02*
X10967400Y-6979600D01*
X10967400Y-6939600D02*
X10927400Y-6979600D01*
X10952800Y-2418400D02*
X10992800Y-2458400D01*
X10992800Y-2418400D02*
X10952800Y-2458400D01*
X10449000Y-7747000D02*
G75*
G02*
X10379000Y-7747000I-35000J0D01*
G01*
X10379000Y-7747000D02*
G75*
G02*
X10449000Y-7747000I35000J0D01*
G01*
X10957000Y-7747000D02*
G75*
G02*
X10887000Y-7747000I-35000J0D01*
G01*
X10887000Y-7747000D02*
G75*
G02*
X10957000Y-7747000I35000J0D01*
G01*
X2294000Y-10747500D02*
X2294000Y-10842500D01*
X2246500Y-10795000D02*
X2341500Y-10795000D01*
X2544000Y-10747500D02*
X2544000Y-10842500D01*
X2496500Y-10795000D02*
X2591500Y-10795000D01*
X2794000Y-10747500D02*
X2794000Y-10842500D01*
X2746500Y-10795000D02*
X2841500Y-10795000D01*
X3919200Y-10747500D02*
X3919200Y-10842500D01*
X3871700Y-10795000D02*
X3966700Y-10795000D01*
X4169200Y-10747500D02*
X4169200Y-10842500D01*
X4121700Y-10795000D02*
X4216700Y-10795000D01*
X4419200Y-10747500D02*
X4419200Y-10842500D01*
X4371700Y-10795000D02*
X4466700Y-10795000D01*
X4669200Y-10747500D02*
X4669200Y-10842500D01*
X4621700Y-10795000D02*
X4716700Y-10795000D01*
X5588000Y-10747500D02*
X5588000Y-10842500D01*
X5540500Y-10795000D02*
X5635500Y-10795000D01*
X5838000Y-10747500D02*
X5838000Y-10842500D01*
X5790500Y-10795000D02*
X5885500Y-10795000D01*
X6088000Y-10747500D02*
X6088000Y-10842500D01*
X6040500Y-10795000D02*
X6135500Y-10795000D01*
X6338000Y-10747500D02*
X6338000Y-10842500D01*
X6290500Y-10795000D02*
X6385500Y-10795000D01*
X6588000Y-10747500D02*
X6588000Y-10842500D01*
X6540500Y-10795000D02*
X6635500Y-10795000D01*
X1813356Y-9687356D02*
X1813356Y-9616644D01*
X1742644Y-9616644D01*
X1742644Y-9687356D01*
X1813356Y-9687356D01*
X1876856Y-9052356D02*
X1876856Y-8981644D01*
X1806144Y-8981644D01*
X1806144Y-9052356D01*
X1876856Y-9052356D01*
X1914956Y-8163356D02*
X1914956Y-8092644D01*
X1844244Y-8092644D01*
X1844244Y-8163356D01*
X1914956Y-8163356D01*
X2067356Y-9687356D02*
X2067356Y-9616644D01*
X1996644Y-9616644D01*
X1996644Y-9687356D01*
X2067356Y-9687356D01*
X2130856Y-9052356D02*
X2130856Y-8981644D01*
X2060144Y-8981644D01*
X2060144Y-9052356D01*
X2130856Y-9052356D01*
X2168956Y-8163356D02*
X2168956Y-8092644D01*
X2098244Y-8092644D01*
X2098244Y-8163356D01*
X2168956Y-8163356D01*
X2321356Y-9687356D02*
X2321356Y-9616644D01*
X2250644Y-9616644D01*
X2250644Y-9687356D01*
X2321356Y-9687356D01*
X2384856Y-9052356D02*
X2384856Y-8981644D01*
X2314144Y-8981644D01*
X2314144Y-9052356D01*
X2384856Y-9052356D01*
X2422956Y-8163356D02*
X2422956Y-8092644D01*
X2352244Y-8092644D01*
X2352244Y-8163356D01*
X2422956Y-8163356D01*
X2575356Y-9687356D02*
X2575356Y-9616644D01*
X2504644Y-9616644D01*
X2504644Y-9687356D01*
X2575356Y-9687356D01*
X2676956Y-8163356D02*
X2676956Y-8092644D01*
X2606244Y-8092644D01*
X2606244Y-8163356D01*
X2676956Y-8163356D01*
X2829356Y-9687356D02*
X2829356Y-9616644D01*
X2758644Y-9616644D01*
X2758644Y-9687356D01*
X2829356Y-9687356D01*
X3083356Y-9687356D02*
X3083356Y-9616644D01*
X3012644Y-9616644D01*
X3012644Y-9687356D01*
X3083356Y-9687356D01*
X3337356Y-9687356D02*
X3337356Y-9616644D01*
X3266644Y-9616644D01*
X3266644Y-9687356D01*
X3337356Y-9687356D01*
X3591356Y-9687356D02*
X3591356Y-9616644D01*
X3520644Y-9616644D01*
X3520644Y-9687356D01*
X3591356Y-9687356D01*
X5369356Y-6893356D02*
X5369356Y-6822644D01*
X5298644Y-6822644D01*
X5298644Y-6893356D01*
X5369356Y-6893356D01*
X5369356Y-8417356D02*
X5369356Y-8346644D01*
X5298644Y-8346644D01*
X5298644Y-8417356D01*
X5369356Y-8417356D01*
X5623356Y-6893356D02*
X5623356Y-6822644D01*
X5552644Y-6822644D01*
X5552644Y-6893356D01*
X5623356Y-6893356D01*
X5623356Y-8417356D02*
X5623356Y-8346644D01*
X5552644Y-8346644D01*
X5552644Y-8417356D01*
X5623356Y-8417356D01*
X5750356Y-1750356D02*
X5750356Y-1679644D01*
X5679644Y-1679644D01*
X5679644Y-1750356D01*
X5750356Y-1750356D01*
X5750356Y-2004356D02*
X5750356Y-1933644D01*
X5679644Y-1933644D01*
X5679644Y-2004356D01*
X5750356Y-2004356D01*
X5750356Y-2258356D02*
X5750356Y-2187644D01*
X5679644Y-2187644D01*
X5679644Y-2258356D01*
X5750356Y-2258356D01*
X5750356Y-2512356D02*
X5750356Y-2441644D01*
X5679644Y-2441644D01*
X5679644Y-2512356D01*
X5750356Y-2512356D01*
X5750356Y-2766356D02*
X5750356Y-2695644D01*
X5679644Y-2695644D01*
X5679644Y-2766356D01*
X5750356Y-2766356D01*
X5877356Y-6893356D02*
X5877356Y-6822644D01*
X5806644Y-6822644D01*
X5806644Y-6893356D01*
X5877356Y-6893356D01*
X5877356Y-8417356D02*
X5877356Y-8346644D01*
X5806644Y-8346644D01*
X5806644Y-8417356D01*
X5877356Y-8417356D01*
X6131356Y-6893356D02*
X6131356Y-6822644D01*
X6060644Y-6822644D01*
X6060644Y-6893356D01*
X6131356Y-6893356D01*
X6131356Y-8417356D02*
X6131356Y-8346644D01*
X6060644Y-8346644D01*
X6060644Y-8417356D01*
X6131356Y-8417356D01*
X6321856Y-4543856D02*
X6321856Y-4473144D01*
X6251144Y-4473144D01*
X6251144Y-4543856D01*
X6321856Y-4543856D01*
X6321856Y-4797856D02*
X6321856Y-4727144D01*
X6251144Y-4727144D01*
X6251144Y-4797856D01*
X6321856Y-4797856D01*
X6321856Y-5051856D02*
X6321856Y-4981144D01*
X6251144Y-4981144D01*
X6251144Y-5051856D01*
X6321856Y-5051856D01*
X6321856Y-5305856D02*
X6321856Y-5235144D01*
X6251144Y-5235144D01*
X6251144Y-5305856D01*
X6321856Y-5305856D01*
X6321856Y-5559856D02*
X6321856Y-5489144D01*
X6251144Y-5489144D01*
X6251144Y-5559856D01*
X6321856Y-5559856D01*
X6321856Y-5813856D02*
X6321856Y-5743144D01*
X6251144Y-5743144D01*
X6251144Y-5813856D01*
X6321856Y-5813856D01*
X6385356Y-1750356D02*
X6385356Y-1679644D01*
X6314644Y-1679644D01*
X6314644Y-1750356D01*
X6385356Y-1750356D01*
X6385356Y-2004356D02*
X6385356Y-1933644D01*
X6314644Y-1933644D01*
X6314644Y-2004356D01*
X6385356Y-2004356D01*
X6385356Y-2258356D02*
X6385356Y-2187644D01*
X6314644Y-2187644D01*
X6314644Y-2258356D01*
X6385356Y-2258356D01*
X6385356Y-2512356D02*
X6385356Y-2441644D01*
X6314644Y-2441644D01*
X6314644Y-2512356D01*
X6385356Y-2512356D01*
X6385356Y-6893356D02*
X6385356Y-6822644D01*
X6314644Y-6822644D01*
X6314644Y-6893356D01*
X6385356Y-6893356D01*
X6385356Y-8417356D02*
X6385356Y-8346644D01*
X6314644Y-8346644D01*
X6314644Y-8417356D01*
X6385356Y-8417356D01*
X6639356Y-6893356D02*
X6639356Y-6822644D01*
X6568644Y-6822644D01*
X6568644Y-6893356D01*
X6639356Y-6893356D01*
X6639356Y-8417356D02*
X6639356Y-8346644D01*
X6568644Y-8346644D01*
X6568644Y-8417356D01*
X6639356Y-8417356D01*
X6893356Y-6893356D02*
X6893356Y-6822644D01*
X6822644Y-6822644D01*
X6822644Y-6893356D01*
X6893356Y-6893356D01*
X6893356Y-8417356D02*
X6893356Y-8346644D01*
X6822644Y-8346644D01*
X6822644Y-8417356D01*
X6893356Y-8417356D01*
X7147356Y-6893356D02*
X7147356Y-6822644D01*
X7076644Y-6822644D01*
X7076644Y-6893356D01*
X7147356Y-6893356D01*
X7147356Y-8417356D02*
X7147356Y-8346644D01*
X7076644Y-8346644D01*
X7076644Y-8417356D01*
X7147356Y-8417356D01*
X7198156Y-1711756D02*
X7198156Y-1641044D01*
X7127444Y-1641044D01*
X7127444Y-1711756D01*
X7198156Y-1711756D01*
X7198156Y-1965756D02*
X7198156Y-1895044D01*
X7127444Y-1895044D01*
X7127444Y-1965756D01*
X7198156Y-1965756D01*
X7198156Y-2219756D02*
X7198156Y-2149044D01*
X7127444Y-2149044D01*
X7127444Y-2219756D01*
X7198156Y-2219756D01*
X7198156Y-2473756D02*
X7198156Y-2403044D01*
X7127444Y-2403044D01*
X7127444Y-2473756D01*
X7198156Y-2473756D01*
X7198156Y-2727756D02*
X7198156Y-2657044D01*
X7127444Y-2657044D01*
X7127444Y-2727756D01*
X7198156Y-2727756D01*
X7198156Y-2981756D02*
X7198156Y-2911044D01*
X7127444Y-2911044D01*
X7127444Y-2981756D01*
X7198156Y-2981756D01*
X7198156Y-3235756D02*
X7198156Y-3165044D01*
X7127444Y-3165044D01*
X7127444Y-3235756D01*
X7198156Y-3235756D01*
X7337856Y-4543856D02*
X7337856Y-4473144D01*
X7267144Y-4473144D01*
X7267144Y-4543856D01*
X7337856Y-4543856D01*
X7337856Y-4797856D02*
X7337856Y-4727144D01*
X7267144Y-4727144D01*
X7267144Y-4797856D01*
X7337856Y-4797856D01*
X7337856Y-5051856D02*
X7337856Y-4981144D01*
X7267144Y-4981144D01*
X7267144Y-5051856D01*
X7337856Y-5051856D01*
X7337856Y-5305856D02*
X7337856Y-5235144D01*
X7267144Y-5235144D01*
X7267144Y-5305856D01*
X7337856Y-5305856D01*
X7337856Y-5559856D02*
X7337856Y-5489144D01*
X7267144Y-5489144D01*
X7267144Y-5559856D01*
X7337856Y-5559856D01*
X7337856Y-5813856D02*
X7337856Y-5743144D01*
X7267144Y-5743144D01*
X7267144Y-5813856D01*
X7337856Y-5813856D01*
X7401356Y-6893356D02*
X7401356Y-6822644D01*
X7330644Y-6822644D01*
X7330644Y-6893356D01*
X7401356Y-6893356D01*
X7401356Y-8417356D02*
X7401356Y-8346644D01*
X7330644Y-8346644D01*
X7330644Y-8417356D01*
X7401356Y-8417356D01*
X7655356Y-6893356D02*
X7655356Y-6822644D01*
X7584644Y-6822644D01*
X7584644Y-6893356D01*
X7655356Y-6893356D01*
X7655356Y-8417356D02*
X7655356Y-8346644D01*
X7584644Y-8346644D01*
X7584644Y-8417356D01*
X7655356Y-8417356D01*
X7909356Y-6893356D02*
X7909356Y-6822644D01*
X7838644Y-6822644D01*
X7838644Y-6893356D01*
X7909356Y-6893356D01*
X7909356Y-8417356D02*
X7909356Y-8346644D01*
X7838644Y-8346644D01*
X7838644Y-8417356D01*
X7909356Y-8417356D01*
X8163356Y-6893356D02*
X8163356Y-6822644D01*
X8092644Y-6822644D01*
X8092644Y-6893356D01*
X8163356Y-6893356D01*
X8163356Y-8417356D02*
X8163356Y-8346644D01*
X8092644Y-8346644D01*
X8092644Y-8417356D01*
X8163356Y-8417356D01*
X8163356Y-9941356D02*
X8163356Y-9870644D01*
X8092644Y-9870644D01*
X8092644Y-9941356D01*
X8163356Y-9941356D01*
X8163356Y-10957356D02*
X8163356Y-10886644D01*
X8092644Y-10886644D01*
X8092644Y-10957356D01*
X8163356Y-10957356D01*
X8417356Y-9433356D02*
X8417356Y-9362644D01*
X8346644Y-9362644D01*
X8346644Y-9433356D01*
X8417356Y-9433356D01*
X8417356Y-10449356D02*
X8417356Y-10378644D01*
X8346644Y-10378644D01*
X8346644Y-10449356D01*
X8417356Y-10449356D01*
X8671356Y-3908856D02*
X8671356Y-3838144D01*
X8600644Y-3838144D01*
X8600644Y-3908856D01*
X8671356Y-3908856D01*
X8671356Y-4353356D02*
X8671356Y-4282644D01*
X8600644Y-4282644D01*
X8600644Y-4353356D01*
X8671356Y-4353356D01*
X8671356Y-9433356D02*
X8671356Y-9362644D01*
X8600644Y-9362644D01*
X8600644Y-9433356D01*
X8671356Y-9433356D01*
X8671356Y-9941356D02*
X8671356Y-9870644D01*
X8600644Y-9870644D01*
X8600644Y-9941356D01*
X8671356Y-9941356D01*
X8671356Y-10449356D02*
X8671356Y-10378644D01*
X8600644Y-10378644D01*
X8600644Y-10449356D01*
X8671356Y-10449356D01*
X8671356Y-10957356D02*
X8671356Y-10886644D01*
X8600644Y-10886644D01*
X8600644Y-10957356D01*
X8671356Y-10957356D01*
X8925356Y-3908856D02*
X8925356Y-3838144D01*
X8854644Y-3838144D01*
X8854644Y-3908856D01*
X8925356Y-3908856D01*
X8925356Y-4353356D02*
X8925356Y-4282644D01*
X8854644Y-4282644D01*
X8854644Y-4353356D01*
X8925356Y-4353356D01*
X8925356Y-9433356D02*
X8925356Y-9362644D01*
X8854644Y-9362644D01*
X8854644Y-9433356D01*
X8925356Y-9433356D01*
X8925356Y-9941356D02*
X8925356Y-9870644D01*
X8854644Y-9870644D01*
X8854644Y-9941356D01*
X8925356Y-9941356D01*
X8925356Y-10449356D02*
X8925356Y-10378644D01*
X8854644Y-10378644D01*
X8854644Y-10449356D01*
X8925356Y-10449356D01*
X8925356Y-10957356D02*
X8925356Y-10886644D01*
X8854644Y-10886644D01*
X8854644Y-10957356D01*
X8925356Y-10957356D01*
X9179356Y-3908856D02*
X9179356Y-3838144D01*
X9108644Y-3838144D01*
X9108644Y-3908856D01*
X9179356Y-3908856D01*
X9179356Y-4353356D02*
X9179356Y-4282644D01*
X9108644Y-4282644D01*
X9108644Y-4353356D01*
X9179356Y-4353356D01*
X9179356Y-4924856D02*
X9179356Y-4854144D01*
X9108644Y-4854144D01*
X9108644Y-4924856D01*
X9179356Y-4924856D01*
X9179356Y-5305856D02*
X9179356Y-5235144D01*
X9108644Y-5235144D01*
X9108644Y-5305856D01*
X9179356Y-5305856D01*
X9179356Y-5686856D02*
X9179356Y-5616144D01*
X9108644Y-5616144D01*
X9108644Y-5686856D01*
X9179356Y-5686856D01*
X9179356Y-6067856D02*
X9179356Y-5997144D01*
X9108644Y-5997144D01*
X9108644Y-6067856D01*
X9179356Y-6067856D01*
X9179356Y-6448856D02*
X9179356Y-6378144D01*
X9108644Y-6378144D01*
X9108644Y-6448856D01*
X9179356Y-6448856D01*
X9179356Y-9433356D02*
X9179356Y-9362644D01*
X9108644Y-9362644D01*
X9108644Y-9433356D01*
X9179356Y-9433356D01*
X9179356Y-9941356D02*
X9179356Y-9870644D01*
X9108644Y-9870644D01*
X9108644Y-9941356D01*
X9179356Y-9941356D01*
X9179356Y-10449356D02*
X9179356Y-10378644D01*
X9108644Y-10378644D01*
X9108644Y-10449356D01*
X9179356Y-10449356D01*
X9179356Y-10957356D02*
X9179356Y-10886644D01*
X9108644Y-10886644D01*
X9108644Y-10957356D01*
X9179356Y-10957356D01*
X9433356Y-3908856D02*
X9433356Y-3838144D01*
X9362644Y-3838144D01*
X9362644Y-3908856D01*
X9433356Y-3908856D01*
X9433356Y-4353356D02*
X9433356Y-4282644D01*
X9362644Y-4282644D01*
X9362644Y-4353356D01*
X9433356Y-4353356D01*
X9433356Y-4924856D02*
X9433356Y-4854144D01*
X9362644Y-4854144D01*
X9362644Y-4924856D01*
X9433356Y-4924856D01*
X9433356Y-5305856D02*
X9433356Y-5235144D01*
X9362644Y-5235144D01*
X9362644Y-5305856D01*
X9433356Y-5305856D01*
X9433356Y-5686856D02*
X9433356Y-5616144D01*
X9362644Y-5616144D01*
X9362644Y-5686856D01*
X9433356Y-5686856D01*
X9433356Y-6067856D02*
X9433356Y-5997144D01*
X9362644Y-5997144D01*
X9362644Y-6067856D01*
X9433356Y-6067856D01*
X9433356Y-6448856D02*
X9433356Y-6378144D01*
X9362644Y-6378144D01*
X9362644Y-6448856D01*
X9433356Y-6448856D01*
X9687356Y-2956356D02*
X9687356Y-2885644D01*
X9616644Y-2885644D01*
X9616644Y-2956356D01*
X9687356Y-2956356D01*
X9687356Y-3337356D02*
X9687356Y-3266644D01*
X9616644Y-3266644D01*
X9616644Y-3337356D01*
X9687356Y-3337356D01*
X9687356Y-3908856D02*
X9687356Y-3838144D01*
X9616644Y-3838144D01*
X9616644Y-3908856D01*
X9687356Y-3908856D01*
X9687356Y-4353356D02*
X9687356Y-4282644D01*
X9616644Y-4282644D01*
X9616644Y-4353356D01*
X9687356Y-4353356D01*
X9687356Y-4924856D02*
X9687356Y-4854144D01*
X9616644Y-4854144D01*
X9616644Y-4924856D01*
X9687356Y-4924856D01*
X9687356Y-5305856D02*
X9687356Y-5235144D01*
X9616644Y-5235144D01*
X9616644Y-5305856D01*
X9687356Y-5305856D01*
X9687356Y-5686856D02*
X9687356Y-5616144D01*
X9616644Y-5616144D01*
X9616644Y-5686856D01*
X9687356Y-5686856D01*
X9687356Y-6067856D02*
X9687356Y-5997144D01*
X9616644Y-5997144D01*
X9616644Y-6067856D01*
X9687356Y-6067856D01*
X9687356Y-6448856D02*
X9687356Y-6378144D01*
X9616644Y-6378144D01*
X9616644Y-6448856D01*
X9687356Y-6448856D01*
X9687356Y-7337856D02*
X9687356Y-7267144D01*
X9616644Y-7267144D01*
X9616644Y-7337856D01*
X9687356Y-7337856D01*
X9814356Y-1686356D02*
X9814356Y-1615644D01*
X9743644Y-1615644D01*
X9743644Y-1686356D01*
X9814356Y-1686356D01*
X9941356Y-2956356D02*
X9941356Y-2885644D01*
X9870644Y-2885644D01*
X9870644Y-2956356D01*
X9941356Y-2956356D01*
X9941356Y-3337356D02*
X9941356Y-3266644D01*
X9870644Y-3266644D01*
X9870644Y-3337356D01*
X9941356Y-3337356D01*
X9941356Y-3908856D02*
X9941356Y-3838144D01*
X9870644Y-3838144D01*
X9870644Y-3908856D01*
X9941356Y-3908856D01*
X9941356Y-4353356D02*
X9941356Y-4282644D01*
X9870644Y-4282644D01*
X9870644Y-4353356D01*
X9941356Y-4353356D01*
X9941356Y-4924856D02*
X9941356Y-4854144D01*
X9870644Y-4854144D01*
X9870644Y-4924856D01*
X9941356Y-4924856D01*
X9941356Y-5305856D02*
X9941356Y-5235144D01*
X9870644Y-5235144D01*
X9870644Y-5305856D01*
X9941356Y-5305856D01*
X9941356Y-5686856D02*
X9941356Y-5616144D01*
X9870644Y-5616144D01*
X9870644Y-5686856D01*
X9941356Y-5686856D01*
X9941356Y-6067856D02*
X9941356Y-5997144D01*
X9870644Y-5997144D01*
X9870644Y-6067856D01*
X9941356Y-6067856D01*
X9941356Y-6448856D02*
X9941356Y-6378144D01*
X9870644Y-6378144D01*
X9870644Y-6448856D01*
X9941356Y-6448856D01*
X9941356Y-7337856D02*
X9941356Y-7267144D01*
X9870644Y-7267144D01*
X9870644Y-7337856D01*
X9941356Y-7337856D01*
X9941356Y-9941356D02*
X9941356Y-9870644D01*
X9870644Y-9870644D01*
X9870644Y-9941356D01*
X9941356Y-9941356D01*
X9941356Y-10957356D02*
X9941356Y-10886644D01*
X9870644Y-10886644D01*
X9870644Y-10957356D01*
X9941356Y-10957356D01*
X10068356Y-1686356D02*
X10068356Y-1615644D01*
X9997644Y-1615644D01*
X9997644Y-1686356D01*
X10068356Y-1686356D01*
X10195356Y-2956356D02*
X10195356Y-2885644D01*
X10124644Y-2885644D01*
X10124644Y-2956356D01*
X10195356Y-2956356D01*
X10195356Y-3337356D02*
X10195356Y-3266644D01*
X10124644Y-3266644D01*
X10124644Y-3337356D01*
X10195356Y-3337356D01*
X10195356Y-3908856D02*
X10195356Y-3838144D01*
X10124644Y-3838144D01*
X10124644Y-3908856D01*
X10195356Y-3908856D01*
X10195356Y-4353356D02*
X10195356Y-4282644D01*
X10124644Y-4282644D01*
X10124644Y-4353356D01*
X10195356Y-4353356D01*
X10195356Y-4924856D02*
X10195356Y-4854144D01*
X10124644Y-4854144D01*
X10124644Y-4924856D01*
X10195356Y-4924856D01*
X10195356Y-5305856D02*
X10195356Y-5235144D01*
X10124644Y-5235144D01*
X10124644Y-5305856D01*
X10195356Y-5305856D01*
X10195356Y-5686856D02*
X10195356Y-5616144D01*
X10124644Y-5616144D01*
X10124644Y-5686856D01*
X10195356Y-5686856D01*
X10195356Y-6067856D02*
X10195356Y-5997144D01*
X10124644Y-5997144D01*
X10124644Y-6067856D01*
X10195356Y-6067856D01*
X10195356Y-6448856D02*
X10195356Y-6378144D01*
X10124644Y-6378144D01*
X10124644Y-6448856D01*
X10195356Y-6448856D01*
X10195356Y-7337856D02*
X10195356Y-7267144D01*
X10124644Y-7267144D01*
X10124644Y-7337856D01*
X10195356Y-7337856D01*
X10195356Y-9433356D02*
X10195356Y-9362644D01*
X10124644Y-9362644D01*
X10124644Y-9433356D01*
X10195356Y-9433356D01*
X10195356Y-10449356D02*
X10195356Y-10378644D01*
X10124644Y-10378644D01*
X10124644Y-10449356D01*
X10195356Y-10449356D01*
X10322356Y-1686356D02*
X10322356Y-1615644D01*
X10251644Y-1615644D01*
X10251644Y-1686356D01*
X10322356Y-1686356D01*
X10449356Y-2956356D02*
X10449356Y-2885644D01*
X10378644Y-2885644D01*
X10378644Y-2956356D01*
X10449356Y-2956356D01*
X10449356Y-3337356D02*
X10449356Y-3266644D01*
X10378644Y-3266644D01*
X10378644Y-3337356D01*
X10449356Y-3337356D01*
X10449356Y-3908856D02*
X10449356Y-3838144D01*
X10378644Y-3838144D01*
X10378644Y-3908856D01*
X10449356Y-3908856D01*
X10449356Y-4353356D02*
X10449356Y-4282644D01*
X10378644Y-4282644D01*
X10378644Y-4353356D01*
X10449356Y-4353356D01*
X10449356Y-4924856D02*
X10449356Y-4854144D01*
X10378644Y-4854144D01*
X10378644Y-4924856D01*
X10449356Y-4924856D01*
X10449356Y-5305856D02*
X10449356Y-5235144D01*
X10378644Y-5235144D01*
X10378644Y-5305856D01*
X10449356Y-5305856D01*
X10449356Y-5686856D02*
X10449356Y-5616144D01*
X10378644Y-5616144D01*
X10378644Y-5686856D01*
X10449356Y-5686856D01*
X10449356Y-6067856D02*
X10449356Y-5997144D01*
X10378644Y-5997144D01*
X10378644Y-6067856D01*
X10449356Y-6067856D01*
X10449356Y-6448856D02*
X10449356Y-6378144D01*
X10378644Y-6378144D01*
X10378644Y-6448856D01*
X10449356Y-6448856D01*
X10449356Y-7337856D02*
X10449356Y-7267144D01*
X10378644Y-7267144D01*
X10378644Y-7337856D01*
X10449356Y-7337856D01*
X10449356Y-9433356D02*
X10449356Y-9362644D01*
X10378644Y-9362644D01*
X10378644Y-9433356D01*
X10449356Y-9433356D01*
X10449356Y-9941356D02*
X10449356Y-9870644D01*
X10378644Y-9870644D01*
X10378644Y-9941356D01*
X10449356Y-9941356D01*
X10449356Y-10449356D02*
X10449356Y-10378644D01*
X10378644Y-10378644D01*
X10378644Y-10449356D01*
X10449356Y-10449356D01*
X10449356Y-10957356D02*
X10449356Y-10886644D01*
X10378644Y-10886644D01*
X10378644Y-10957356D01*
X10449356Y-10957356D01*
X10576356Y-1686356D02*
X10576356Y-1615644D01*
X10505644Y-1615644D01*
X10505644Y-1686356D01*
X10576356Y-1686356D01*
X10703356Y-2956356D02*
X10703356Y-2885644D01*
X10632644Y-2885644D01*
X10632644Y-2956356D01*
X10703356Y-2956356D01*
X10703356Y-3337356D02*
X10703356Y-3266644D01*
X10632644Y-3266644D01*
X10632644Y-3337356D01*
X10703356Y-3337356D01*
X10703356Y-3908856D02*
X10703356Y-3838144D01*
X10632644Y-3838144D01*
X10632644Y-3908856D01*
X10703356Y-3908856D01*
X10703356Y-4353356D02*
X10703356Y-4282644D01*
X10632644Y-4282644D01*
X10632644Y-4353356D01*
X10703356Y-4353356D01*
X10703356Y-4924856D02*
X10703356Y-4854144D01*
X10632644Y-4854144D01*
X10632644Y-4924856D01*
X10703356Y-4924856D01*
X10703356Y-5305856D02*
X10703356Y-5235144D01*
X10632644Y-5235144D01*
X10632644Y-5305856D01*
X10703356Y-5305856D01*
X10703356Y-5686856D02*
X10703356Y-5616144D01*
X10632644Y-5616144D01*
X10632644Y-5686856D01*
X10703356Y-5686856D01*
X10703356Y-6067856D02*
X10703356Y-5997144D01*
X10632644Y-5997144D01*
X10632644Y-6067856D01*
X10703356Y-6067856D01*
X10703356Y-6448856D02*
X10703356Y-6378144D01*
X10632644Y-6378144D01*
X10632644Y-6448856D01*
X10703356Y-6448856D01*
X10703356Y-7337856D02*
X10703356Y-7267144D01*
X10632644Y-7267144D01*
X10632644Y-7337856D01*
X10703356Y-7337856D01*
X10703356Y-9433356D02*
X10703356Y-9362644D01*
X10632644Y-9362644D01*
X10632644Y-9433356D01*
X10703356Y-9433356D01*
X10703356Y-9941356D02*
X10703356Y-9870644D01*
X10632644Y-9870644D01*
X10632644Y-9941356D01*
X10703356Y-9941356D01*
X10703356Y-10449356D02*
X10703356Y-10378644D01*
X10632644Y-10378644D01*
X10632644Y-10449356D01*
X10703356Y-10449356D01*
X10703356Y-10957356D02*
X10703356Y-10886644D01*
X10632644Y-10886644D01*
X10632644Y-10957356D01*
X10703356Y-10957356D01*
X10830356Y-1686356D02*
X10830356Y-1615644D01*
X10759644Y-1615644D01*
X10759644Y-1686356D01*
X10830356Y-1686356D01*
X10957356Y-2956356D02*
X10957356Y-2885644D01*
X10886644Y-2885644D01*
X10886644Y-2956356D01*
X10957356Y-2956356D01*
X10957356Y-3337356D02*
X10957356Y-3266644D01*
X10886644Y-3266644D01*
X10886644Y-3337356D01*
X10957356Y-3337356D01*
X10957356Y-3908856D02*
X10957356Y-3838144D01*
X10886644Y-3838144D01*
X10886644Y-3908856D01*
X10957356Y-3908856D01*
X10957356Y-4353356D02*
X10957356Y-4282644D01*
X10886644Y-4282644D01*
X10886644Y-4353356D01*
X10957356Y-4353356D01*
X10957356Y-4924856D02*
X10957356Y-4854144D01*
X10886644Y-4854144D01*
X10886644Y-4924856D01*
X10957356Y-4924856D01*
X10957356Y-5305856D02*
X10957356Y-5235144D01*
X10886644Y-5235144D01*
X10886644Y-5305856D01*
X10957356Y-5305856D01*
X10957356Y-5686856D02*
X10957356Y-5616144D01*
X10886644Y-5616144D01*
X10886644Y-5686856D01*
X10957356Y-5686856D01*
X10957356Y-6067856D02*
X10957356Y-5997144D01*
X10886644Y-5997144D01*
X10886644Y-6067856D01*
X10957356Y-6067856D01*
X10957356Y-6448856D02*
X10957356Y-6378144D01*
X10886644Y-6378144D01*
X10886644Y-6448856D01*
X10957356Y-6448856D01*
X10957356Y-7337856D02*
X10957356Y-7267144D01*
X10886644Y-7267144D01*
X10886644Y-7337856D01*
X10957356Y-7337856D01*
X10957356Y-9433356D02*
X10957356Y-9362644D01*
X10886644Y-9362644D01*
X10886644Y-9433356D01*
X10957356Y-9433356D01*
X10957356Y-9941356D02*
X10957356Y-9870644D01*
X10886644Y-9870644D01*
X10886644Y-9941356D01*
X10957356Y-9941356D01*
X10957356Y-10449356D02*
X10957356Y-10378644D01*
X10886644Y-10378644D01*
X10886644Y-10449356D01*
X10957356Y-10449356D01*
X10957356Y-10957356D02*
X10957356Y-10886644D01*
X10886644Y-10886644D01*
X10886644Y-10957356D01*
X10957356Y-10957356D01*
X11084356Y-1686356D02*
X11084356Y-1615644D01*
X11013644Y-1615644D01*
X11013644Y-1686356D01*
X11084356Y-1686356D01*
D12*
X2245360Y-1861580D02*
X2296360Y-1810580D01*
X2245360Y-1759580D01*
X2194360Y-1810580D01*
X2245360Y-1861580D01*
X2245360Y-2115580D02*
X2296360Y-2064580D01*
X2245360Y-2013580D01*
X2194360Y-2064580D01*
X2245360Y-2115580D01*
X2245360Y-2369580D02*
X2296360Y-2318580D01*
X2245360Y-2267580D01*
X2194360Y-2318580D01*
X2245360Y-2369580D01*
X2245360Y-2623580D02*
X2296360Y-2572580D01*
X2245360Y-2521580D01*
X2194360Y-2572580D01*
X2245360Y-2623580D01*
X2245360Y-2877580D02*
X2296360Y-2826580D01*
X2245360Y-2775580D01*
X2194360Y-2826580D01*
X2245360Y-2877580D01*
X2245360Y-3131580D02*
X2296360Y-3080580D01*
X2245360Y-3029580D01*
X2194360Y-3080580D01*
X2245360Y-3131580D01*
X2245360Y-3385580D02*
X2296360Y-3334580D01*
X2245360Y-3283580D01*
X2194360Y-3334580D01*
X2245360Y-3385580D01*
X2245360Y-3639580D02*
X2296360Y-3588580D01*
X2245360Y-3537580D01*
X2194360Y-3588580D01*
X2245360Y-3639580D01*
X2245360Y-3893580D02*
X2296360Y-3842580D01*
X2245360Y-3791580D01*
X2194360Y-3842580D01*
X2245360Y-3893580D01*
X2245360Y-4147580D02*
X2296360Y-4096580D01*
X2245360Y-4045580D01*
X2194360Y-4096580D01*
X2245360Y-4147580D01*
X2245360Y-4401580D02*
X2296360Y-4350580D01*
X2245360Y-4299580D01*
X2194360Y-4350580D01*
X2245360Y-4401580D01*
X2245360Y-4655580D02*
X2296360Y-4604580D01*
X2245360Y-4553580D01*
X2194360Y-4604580D01*
X2245360Y-4655580D01*
X2245360Y-4909580D02*
X2296360Y-4858580D01*
X2245360Y-4807580D01*
X2194360Y-4858580D01*
X2245360Y-4909580D01*
X2245360Y-5163580D02*
X2296360Y-5112580D01*
X2245360Y-5061580D01*
X2194360Y-5112580D01*
X2245360Y-5163580D01*
X2245360Y-5417580D02*
X2296360Y-5366580D01*
X2245360Y-5315580D01*
X2194360Y-5366580D01*
X2245360Y-5417580D01*
X4785360Y-1861580D02*
X4836360Y-1810580D01*
X4785360Y-1759580D01*
X4734360Y-1810580D01*
X4785360Y-1861580D01*
X4785360Y-2115580D02*
X4836360Y-2064580D01*
X4785360Y-2013580D01*
X4734360Y-2064580D01*
X4785360Y-2115580D01*
X4785360Y-2369580D02*
X4836360Y-2318580D01*
X4785360Y-2267580D01*
X4734360Y-2318580D01*
X4785360Y-2369580D01*
X4785360Y-2623580D02*
X4836360Y-2572580D01*
X4785360Y-2521580D01*
X4734360Y-2572580D01*
X4785360Y-2623580D01*
X4785360Y-2877580D02*
X4836360Y-2826580D01*
X4785360Y-2775580D01*
X4734360Y-2826580D01*
X4785360Y-2877580D01*
X4785360Y-3131580D02*
X4836360Y-3080580D01*
X4785360Y-3029580D01*
X4734360Y-3080580D01*
X4785360Y-3131580D01*
X4785360Y-3385580D02*
X4836360Y-3334580D01*
X4785360Y-3283580D01*
X4734360Y-3334580D01*
X4785360Y-3385580D01*
X4785360Y-3639580D02*
X4836360Y-3588580D01*
X4785360Y-3537580D01*
X4734360Y-3588580D01*
X4785360Y-3639580D01*
X4785360Y-3893580D02*
X4836360Y-3842580D01*
X4785360Y-3791580D01*
X4734360Y-3842580D01*
X4785360Y-3893580D01*
X4785360Y-4147580D02*
X4836360Y-4096580D01*
X4785360Y-4045580D01*
X4734360Y-4096580D01*
X4785360Y-4147580D01*
X4785360Y-4401580D02*
X4836360Y-4350580D01*
X4785360Y-4299580D01*
X4734360Y-4350580D01*
X4785360Y-4401580D01*
X4785360Y-4655580D02*
X4836360Y-4604580D01*
X4785360Y-4553580D01*
X4734360Y-4604580D01*
X4785360Y-4655580D01*
X4785360Y-4909580D02*
X4836360Y-4858580D01*
X4785360Y-4807580D01*
X4734360Y-4858580D01*
X4785360Y-4909580D01*
X4785360Y-5163580D02*
X4836360Y-5112580D01*
X4785360Y-5061580D01*
X4734360Y-5112580D01*
X4785360Y-5163580D01*
X4785360Y-5417580D02*
X4836360Y-5366580D01*
X4785360Y-5315580D01*
X4734360Y-5366580D01*
X4785360Y-5417580D01*
D13*
X8063000Y-1846750D02*
X8193000Y-1976750D01*
X8193000Y-1846750D02*
X8063000Y-1976750D01*
X8193000Y-1911750D02*
G75*
G02*
X8063000Y-1911750I-65000J0D01*
G01*
X8063000Y-1911750D02*
G75*
G02*
X8193000Y-1911750I65000J0D01*
G01*
X8563000Y-1846750D02*
X8693000Y-1976750D01*
X8693000Y-1846750D02*
X8563000Y-1976750D01*
X8693000Y-1911750D02*
G75*
G02*
X8563000Y-1911750I-65000J0D01*
G01*
X8563000Y-1911750D02*
G75*
G02*
X8693000Y-1911750I65000J0D01*
G01*
D14*
X5336000Y-7495000D02*
X5586000Y-7745000D01*
X5586000Y-7495000D02*
X5336000Y-7745000D01*
X5461000Y-7495000D02*
X5461000Y-7745000D01*
X5336000Y-7620000D02*
X5586000Y-7620000D01*
X7876000Y-7495000D02*
X8126000Y-7745000D01*
X8126000Y-7495000D02*
X7876000Y-7745000D01*
X8001000Y-7495000D02*
X8001000Y-7745000D01*
X7876000Y-7620000D02*
X8126000Y-7620000D01*
D11*
X1605777Y-11586484D02*
X1605777Y-11386484D01*
X1605777Y-11386484D02*
X1653396Y-11386484D01*
X1653396Y-11386484D02*
X1681967Y-11396008D01*
X1681967Y-11396008D02*
X1701015Y-11415055D01*
X1701015Y-11415055D02*
X1710539Y-11434103D01*
X1710539Y-11434103D02*
X1720062Y-11472198D01*
X1720062Y-11472198D02*
X1720062Y-11500769D01*
X1720062Y-11500769D02*
X1710539Y-11538865D01*
X1710539Y-11538865D02*
X1701015Y-11557912D01*
X1701015Y-11557912D02*
X1681967Y-11576960D01*
X1681967Y-11576960D02*
X1653396Y-11586484D01*
X1653396Y-11586484D02*
X1605777Y-11586484D01*
X1805777Y-11586484D02*
X1805777Y-11453150D01*
X1805777Y-11491246D02*
X1815301Y-11472198D01*
X1815301Y-11472198D02*
X1824824Y-11462674D01*
X1824824Y-11462674D02*
X1843872Y-11453150D01*
X1843872Y-11453150D02*
X1862920Y-11453150D01*
X1929586Y-11586484D02*
X1929586Y-11453150D01*
X1929586Y-11386484D02*
X1920062Y-11396008D01*
X1920062Y-11396008D02*
X1929586Y-11405531D01*
X1929586Y-11405531D02*
X1939110Y-11396008D01*
X1939110Y-11396008D02*
X1929586Y-11386484D01*
X1929586Y-11386484D02*
X1929586Y-11405531D01*
X2053396Y-11586484D02*
X2034348Y-11576960D01*
X2034348Y-11576960D02*
X2024824Y-11557912D01*
X2024824Y-11557912D02*
X2024824Y-11386484D01*
X2158158Y-11586484D02*
X2139110Y-11576960D01*
X2139110Y-11576960D02*
X2129586Y-11557912D01*
X2129586Y-11557912D02*
X2129586Y-11386484D01*
X2386729Y-11586484D02*
X2386729Y-11386484D01*
X2386729Y-11386484D02*
X2453396Y-11529341D01*
X2453396Y-11529341D02*
X2520063Y-11386484D01*
X2520063Y-11386484D02*
X2520063Y-11586484D01*
X2701015Y-11586484D02*
X2701015Y-11481722D01*
X2701015Y-11481722D02*
X2691491Y-11462674D01*
X2691491Y-11462674D02*
X2672444Y-11453150D01*
X2672444Y-11453150D02*
X2634348Y-11453150D01*
X2634348Y-11453150D02*
X2615301Y-11462674D01*
X2701015Y-11576960D02*
X2681967Y-11586484D01*
X2681967Y-11586484D02*
X2634348Y-11586484D01*
X2634348Y-11586484D02*
X2615301Y-11576960D01*
X2615301Y-11576960D02*
X2605777Y-11557912D01*
X2605777Y-11557912D02*
X2605777Y-11538865D01*
X2605777Y-11538865D02*
X2615301Y-11519817D01*
X2615301Y-11519817D02*
X2634348Y-11510293D01*
X2634348Y-11510293D02*
X2681967Y-11510293D01*
X2681967Y-11510293D02*
X2701015Y-11500769D01*
X2796253Y-11453150D02*
X2796253Y-11653150D01*
X2796253Y-11462674D02*
X2815301Y-11453150D01*
X2815301Y-11453150D02*
X2853396Y-11453150D01*
X2853396Y-11453150D02*
X2872443Y-11462674D01*
X2872443Y-11462674D02*
X2881967Y-11472198D01*
X2881967Y-11472198D02*
X2891491Y-11491246D01*
X2891491Y-11491246D02*
X2891491Y-11548388D01*
X2891491Y-11548388D02*
X2881967Y-11567436D01*
X2881967Y-11567436D02*
X2872443Y-11576960D01*
X2872443Y-11576960D02*
X2853396Y-11586484D01*
X2853396Y-11586484D02*
X2815301Y-11586484D01*
X2815301Y-11586484D02*
X2796253Y-11576960D01*
X2977205Y-11567436D02*
X2986729Y-11576960D01*
X2986729Y-11576960D02*
X2977205Y-11586484D01*
X2977205Y-11586484D02*
X2967682Y-11576960D01*
X2967682Y-11576960D02*
X2977205Y-11567436D01*
X2977205Y-11567436D02*
X2977205Y-11586484D01*
X2977205Y-11462674D02*
X2986729Y-11472198D01*
X2986729Y-11472198D02*
X2977205Y-11481722D01*
X2977205Y-11481722D02*
X2967682Y-11472198D01*
X2967682Y-11472198D02*
X2977205Y-11462674D01*
X2977205Y-11462674D02*
X2977205Y-11481722D01*
D10*
X1305000Y-11895000D02*
X1345000Y-11935000D01*
X1345000Y-11895000D02*
X1305000Y-11935000D01*
D11*
X1643872Y-11806484D02*
X1662920Y-11806484D01*
X1662920Y-11806484D02*
X1681967Y-11816008D01*
X1681967Y-11816008D02*
X1691491Y-11825531D01*
X1691491Y-11825531D02*
X1701015Y-11844579D01*
X1701015Y-11844579D02*
X1710539Y-11882674D01*
X1710539Y-11882674D02*
X1710539Y-11930293D01*
X1710539Y-11930293D02*
X1701015Y-11968388D01*
X1701015Y-11968388D02*
X1691491Y-11987436D01*
X1691491Y-11987436D02*
X1681967Y-11996960D01*
X1681967Y-11996960D02*
X1662920Y-12006484D01*
X1662920Y-12006484D02*
X1643872Y-12006484D01*
X1643872Y-12006484D02*
X1624824Y-11996960D01*
X1624824Y-11996960D02*
X1615301Y-11987436D01*
X1615301Y-11987436D02*
X1605777Y-11968388D01*
X1605777Y-11968388D02*
X1596253Y-11930293D01*
X1596253Y-11930293D02*
X1596253Y-11882674D01*
X1596253Y-11882674D02*
X1605777Y-11844579D01*
X1605777Y-11844579D02*
X1615301Y-11825531D01*
X1615301Y-11825531D02*
X1624824Y-11816008D01*
X1624824Y-11816008D02*
X1643872Y-11806484D01*
X1796253Y-11987436D02*
X1805777Y-11996960D01*
X1805777Y-11996960D02*
X1796253Y-12006484D01*
X1796253Y-12006484D02*
X1786729Y-11996960D01*
X1786729Y-11996960D02*
X1796253Y-11987436D01*
X1796253Y-11987436D02*
X1796253Y-12006484D01*
X1977205Y-11873150D02*
X1977205Y-12006484D01*
X1929586Y-11796960D02*
X1881967Y-11939817D01*
X1881967Y-11939817D02*
X2005777Y-11939817D01*
X2120063Y-11806484D02*
X2139110Y-11806484D01*
X2139110Y-11806484D02*
X2158158Y-11816008D01*
X2158158Y-11816008D02*
X2167682Y-11825531D01*
X2167682Y-11825531D02*
X2177205Y-11844579D01*
X2177205Y-11844579D02*
X2186729Y-11882674D01*
X2186729Y-11882674D02*
X2186729Y-11930293D01*
X2186729Y-11930293D02*
X2177205Y-11968388D01*
X2177205Y-11968388D02*
X2167682Y-11987436D01*
X2167682Y-11987436D02*
X2158158Y-11996960D01*
X2158158Y-11996960D02*
X2139110Y-12006484D01*
X2139110Y-12006484D02*
X2120063Y-12006484D01*
X2120063Y-12006484D02*
X2101015Y-11996960D01*
X2101015Y-11996960D02*
X2091491Y-11987436D01*
X2091491Y-11987436D02*
X2081967Y-11968388D01*
X2081967Y-11968388D02*
X2072443Y-11930293D01*
X2072443Y-11930293D02*
X2072443Y-11882674D01*
X2072443Y-11882674D02*
X2081967Y-11844579D01*
X2081967Y-11844579D02*
X2091491Y-11825531D01*
X2091491Y-11825531D02*
X2101015Y-11816008D01*
X2101015Y-11816008D02*
X2120063Y-11806484D01*
X2310539Y-11806484D02*
X2329586Y-11806484D01*
X2329586Y-11806484D02*
X2348634Y-11816008D01*
X2348634Y-11816008D02*
X2358158Y-11825531D01*
X2358158Y-11825531D02*
X2367682Y-11844579D01*
X2367682Y-11844579D02*
X2377205Y-11882674D01*
X2377205Y-11882674D02*
X2377205Y-11930293D01*
X2377205Y-11930293D02*
X2367682Y-11968388D01*
X2367682Y-11968388D02*
X2358158Y-11987436D01*
X2358158Y-11987436D02*
X2348634Y-11996960D01*
X2348634Y-11996960D02*
X2329586Y-12006484D01*
X2329586Y-12006484D02*
X2310539Y-12006484D01*
X2310539Y-12006484D02*
X2291491Y-11996960D01*
X2291491Y-11996960D02*
X2281967Y-11987436D01*
X2281967Y-11987436D02*
X2272444Y-11968388D01*
X2272444Y-11968388D02*
X2262920Y-11930293D01*
X2262920Y-11930293D02*
X2262920Y-11882674D01*
X2262920Y-11882674D02*
X2272444Y-11844579D01*
X2272444Y-11844579D02*
X2281967Y-11825531D01*
X2281967Y-11825531D02*
X2291491Y-11816008D01*
X2291491Y-11816008D02*
X2310539Y-11806484D01*
X2462920Y-12006484D02*
X2462920Y-11873150D01*
X2462920Y-11892198D02*
X2472444Y-11882674D01*
X2472444Y-11882674D02*
X2491491Y-11873150D01*
X2491491Y-11873150D02*
X2520063Y-11873150D01*
X2520063Y-11873150D02*
X2539110Y-11882674D01*
X2539110Y-11882674D02*
X2548634Y-11901722D01*
X2548634Y-11901722D02*
X2548634Y-12006484D01*
X2548634Y-11901722D02*
X2558158Y-11882674D01*
X2558158Y-11882674D02*
X2577205Y-11873150D01*
X2577205Y-11873150D02*
X2605777Y-11873150D01*
X2605777Y-11873150D02*
X2624825Y-11882674D01*
X2624825Y-11882674D02*
X2634348Y-11901722D01*
X2634348Y-11901722D02*
X2634348Y-12006484D01*
X2729586Y-12006484D02*
X2729586Y-11873150D01*
X2729586Y-11892198D02*
X2739110Y-11882674D01*
X2739110Y-11882674D02*
X2758158Y-11873150D01*
X2758158Y-11873150D02*
X2786729Y-11873150D01*
X2786729Y-11873150D02*
X2805777Y-11882674D01*
X2805777Y-11882674D02*
X2815301Y-11901722D01*
X2815301Y-11901722D02*
X2815301Y-12006484D01*
X2815301Y-11901722D02*
X2824824Y-11882674D01*
X2824824Y-11882674D02*
X2843872Y-11873150D01*
X2843872Y-11873150D02*
X2872443Y-11873150D01*
X2872443Y-11873150D02*
X2891491Y-11882674D01*
X2891491Y-11882674D02*
X2901015Y-11901722D01*
X2901015Y-11901722D02*
X2901015Y-12006484D01*
X3291491Y-11796960D02*
X3120063Y-12054103D01*
X3548634Y-11806484D02*
X3567682Y-11806484D01*
X3567682Y-11806484D02*
X3586729Y-11816008D01*
X3586729Y-11816008D02*
X3596253Y-11825531D01*
X3596253Y-11825531D02*
X3605777Y-11844579D01*
X3605777Y-11844579D02*
X3615301Y-11882674D01*
X3615301Y-11882674D02*
X3615301Y-11930293D01*
X3615301Y-11930293D02*
X3605777Y-11968388D01*
X3605777Y-11968388D02*
X3596253Y-11987436D01*
X3596253Y-11987436D02*
X3586729Y-11996960D01*
X3586729Y-11996960D02*
X3567682Y-12006484D01*
X3567682Y-12006484D02*
X3548634Y-12006484D01*
X3548634Y-12006484D02*
X3529586Y-11996960D01*
X3529586Y-11996960D02*
X3520063Y-11987436D01*
X3520063Y-11987436D02*
X3510539Y-11968388D01*
X3510539Y-11968388D02*
X3501015Y-11930293D01*
X3501015Y-11930293D02*
X3501015Y-11882674D01*
X3501015Y-11882674D02*
X3510539Y-11844579D01*
X3510539Y-11844579D02*
X3520063Y-11825531D01*
X3520063Y-11825531D02*
X3529586Y-11816008D01*
X3529586Y-11816008D02*
X3548634Y-11806484D01*
X3701015Y-11987436D02*
X3710539Y-11996960D01*
X3710539Y-11996960D02*
X3701015Y-12006484D01*
X3701015Y-12006484D02*
X3691491Y-11996960D01*
X3691491Y-11996960D02*
X3701015Y-11987436D01*
X3701015Y-11987436D02*
X3701015Y-12006484D01*
X3834348Y-11806484D02*
X3853396Y-11806484D01*
X3853396Y-11806484D02*
X3872444Y-11816008D01*
X3872444Y-11816008D02*
X3881967Y-11825531D01*
X3881967Y-11825531D02*
X3891491Y-11844579D01*
X3891491Y-11844579D02*
X3901015Y-11882674D01*
X3901015Y-11882674D02*
X3901015Y-11930293D01*
X3901015Y-11930293D02*
X3891491Y-11968388D01*
X3891491Y-11968388D02*
X3881967Y-11987436D01*
X3881967Y-11987436D02*
X3872444Y-11996960D01*
X3872444Y-11996960D02*
X3853396Y-12006484D01*
X3853396Y-12006484D02*
X3834348Y-12006484D01*
X3834348Y-12006484D02*
X3815301Y-11996960D01*
X3815301Y-11996960D02*
X3805777Y-11987436D01*
X3805777Y-11987436D02*
X3796253Y-11968388D01*
X3796253Y-11968388D02*
X3786729Y-11930293D01*
X3786729Y-11930293D02*
X3786729Y-11882674D01*
X3786729Y-11882674D02*
X3796253Y-11844579D01*
X3796253Y-11844579D02*
X3805777Y-11825531D01*
X3805777Y-11825531D02*
X3815301Y-11816008D01*
X3815301Y-11816008D02*
X3834348Y-11806484D01*
X4091491Y-12006484D02*
X3977206Y-12006484D01*
X4034348Y-12006484D02*
X4034348Y-11806484D01*
X4034348Y-11806484D02*
X4015301Y-11835055D01*
X4015301Y-11835055D02*
X3996253Y-11854103D01*
X3996253Y-11854103D02*
X3977206Y-11863627D01*
X4272444Y-11806484D02*
X4177206Y-11806484D01*
X4177206Y-11806484D02*
X4167682Y-11901722D01*
X4167682Y-11901722D02*
X4177206Y-11892198D01*
X4177206Y-11892198D02*
X4196253Y-11882674D01*
X4196253Y-11882674D02*
X4243872Y-11882674D01*
X4243872Y-11882674D02*
X4262920Y-11892198D01*
X4262920Y-11892198D02*
X4272444Y-11901722D01*
X4272444Y-11901722D02*
X4281968Y-11920769D01*
X4281968Y-11920769D02*
X4281968Y-11968388D01*
X4281968Y-11968388D02*
X4272444Y-11987436D01*
X4272444Y-11987436D02*
X4262920Y-11996960D01*
X4262920Y-11996960D02*
X4243872Y-12006484D01*
X4243872Y-12006484D02*
X4196253Y-12006484D01*
X4196253Y-12006484D02*
X4177206Y-11996960D01*
X4177206Y-11996960D02*
X4167682Y-11987436D01*
X4348634Y-11806484D02*
X4481968Y-11806484D01*
X4481968Y-11806484D02*
X4396253Y-12006484D01*
X4548634Y-11806484D02*
X4548634Y-11844579D01*
X4624825Y-11806484D02*
X4624825Y-11844579D01*
X4920063Y-12082674D02*
X4910539Y-12073150D01*
X4910539Y-12073150D02*
X4891491Y-12044579D01*
X4891491Y-12044579D02*
X4881968Y-12025531D01*
X4881968Y-12025531D02*
X4872444Y-11996960D01*
X4872444Y-11996960D02*
X4862920Y-11949341D01*
X4862920Y-11949341D02*
X4862920Y-11911246D01*
X4862920Y-11911246D02*
X4872444Y-11863627D01*
X4872444Y-11863627D02*
X4881968Y-11835055D01*
X4881968Y-11835055D02*
X4891491Y-11816008D01*
X4891491Y-11816008D02*
X4910539Y-11787436D01*
X4910539Y-11787436D02*
X4920063Y-11777912D01*
X5101015Y-12006484D02*
X4986730Y-12006484D01*
X5043872Y-12006484D02*
X5043872Y-11806484D01*
X5043872Y-11806484D02*
X5024825Y-11835055D01*
X5024825Y-11835055D02*
X5005777Y-11854103D01*
X5005777Y-11854103D02*
X4986730Y-11863627D01*
X5224825Y-11806484D02*
X5243872Y-11806484D01*
X5243872Y-11806484D02*
X5262920Y-11816008D01*
X5262920Y-11816008D02*
X5272444Y-11825531D01*
X5272444Y-11825531D02*
X5281968Y-11844579D01*
X5281968Y-11844579D02*
X5291491Y-11882674D01*
X5291491Y-11882674D02*
X5291491Y-11930293D01*
X5291491Y-11930293D02*
X5281968Y-11968388D01*
X5281968Y-11968388D02*
X5272444Y-11987436D01*
X5272444Y-11987436D02*
X5262920Y-11996960D01*
X5262920Y-11996960D02*
X5243872Y-12006484D01*
X5243872Y-12006484D02*
X5224825Y-12006484D01*
X5224825Y-12006484D02*
X5205777Y-11996960D01*
X5205777Y-11996960D02*
X5196253Y-11987436D01*
X5196253Y-11987436D02*
X5186730Y-11968388D01*
X5186730Y-11968388D02*
X5177206Y-11930293D01*
X5177206Y-11930293D02*
X5177206Y-11882674D01*
X5177206Y-11882674D02*
X5186730Y-11844579D01*
X5186730Y-11844579D02*
X5196253Y-11825531D01*
X5196253Y-11825531D02*
X5205777Y-11816008D01*
X5205777Y-11816008D02*
X5224825Y-11806484D01*
X5358158Y-11806484D02*
X5481968Y-11806484D01*
X5481968Y-11806484D02*
X5415301Y-11882674D01*
X5415301Y-11882674D02*
X5443872Y-11882674D01*
X5443872Y-11882674D02*
X5462920Y-11892198D01*
X5462920Y-11892198D02*
X5472444Y-11901722D01*
X5472444Y-11901722D02*
X5481968Y-11920769D01*
X5481968Y-11920769D02*
X5481968Y-11968388D01*
X5481968Y-11968388D02*
X5472444Y-11987436D01*
X5472444Y-11987436D02*
X5462920Y-11996960D01*
X5462920Y-11996960D02*
X5443872Y-12006484D01*
X5443872Y-12006484D02*
X5386730Y-12006484D01*
X5386730Y-12006484D02*
X5367682Y-11996960D01*
X5367682Y-11996960D02*
X5358158Y-11987436D01*
X5720063Y-12006484D02*
X5720063Y-11806484D01*
X5805777Y-12006484D02*
X5805777Y-11901722D01*
X5805777Y-11901722D02*
X5796253Y-11882674D01*
X5796253Y-11882674D02*
X5777206Y-11873150D01*
X5777206Y-11873150D02*
X5748634Y-11873150D01*
X5748634Y-11873150D02*
X5729587Y-11882674D01*
X5729587Y-11882674D02*
X5720063Y-11892198D01*
X5929587Y-12006484D02*
X5910539Y-11996960D01*
X5910539Y-11996960D02*
X5901015Y-11987436D01*
X5901015Y-11987436D02*
X5891491Y-11968388D01*
X5891491Y-11968388D02*
X5891491Y-11911246D01*
X5891491Y-11911246D02*
X5901015Y-11892198D01*
X5901015Y-11892198D02*
X5910539Y-11882674D01*
X5910539Y-11882674D02*
X5929587Y-11873150D01*
X5929587Y-11873150D02*
X5958158Y-11873150D01*
X5958158Y-11873150D02*
X5977206Y-11882674D01*
X5977206Y-11882674D02*
X5986730Y-11892198D01*
X5986730Y-11892198D02*
X5996253Y-11911246D01*
X5996253Y-11911246D02*
X5996253Y-11968388D01*
X5996253Y-11968388D02*
X5986730Y-11987436D01*
X5986730Y-11987436D02*
X5977206Y-11996960D01*
X5977206Y-11996960D02*
X5958158Y-12006484D01*
X5958158Y-12006484D02*
X5929587Y-12006484D01*
X6110539Y-12006484D02*
X6091491Y-11996960D01*
X6091491Y-11996960D02*
X6081968Y-11977912D01*
X6081968Y-11977912D02*
X6081968Y-11806484D01*
X6262920Y-11996960D02*
X6243872Y-12006484D01*
X6243872Y-12006484D02*
X6205777Y-12006484D01*
X6205777Y-12006484D02*
X6186730Y-11996960D01*
X6186730Y-11996960D02*
X6177206Y-11977912D01*
X6177206Y-11977912D02*
X6177206Y-11901722D01*
X6177206Y-11901722D02*
X6186730Y-11882674D01*
X6186730Y-11882674D02*
X6205777Y-11873150D01*
X6205777Y-11873150D02*
X6243872Y-11873150D01*
X6243872Y-11873150D02*
X6262920Y-11882674D01*
X6262920Y-11882674D02*
X6272444Y-11901722D01*
X6272444Y-11901722D02*
X6272444Y-11920769D01*
X6272444Y-11920769D02*
X6177206Y-11939817D01*
X6348634Y-11996960D02*
X6367682Y-12006484D01*
X6367682Y-12006484D02*
X6405777Y-12006484D01*
X6405777Y-12006484D02*
X6424825Y-11996960D01*
X6424825Y-11996960D02*
X6434349Y-11977912D01*
X6434349Y-11977912D02*
X6434349Y-11968388D01*
X6434349Y-11968388D02*
X6424825Y-11949341D01*
X6424825Y-11949341D02*
X6405777Y-11939817D01*
X6405777Y-11939817D02*
X6377206Y-11939817D01*
X6377206Y-11939817D02*
X6358158Y-11930293D01*
X6358158Y-11930293D02*
X6348634Y-11911246D01*
X6348634Y-11911246D02*
X6348634Y-11901722D01*
X6348634Y-11901722D02*
X6358158Y-11882674D01*
X6358158Y-11882674D02*
X6377206Y-11873150D01*
X6377206Y-11873150D02*
X6405777Y-11873150D01*
X6405777Y-11873150D02*
X6424825Y-11882674D01*
X6501015Y-12082674D02*
X6510539Y-12073150D01*
X6510539Y-12073150D02*
X6529587Y-12044579D01*
X6529587Y-12044579D02*
X6539111Y-12025531D01*
X6539111Y-12025531D02*
X6548634Y-11996960D01*
X6548634Y-11996960D02*
X6558158Y-11949341D01*
X6558158Y-11949341D02*
X6558158Y-11911246D01*
X6558158Y-11911246D02*
X6548634Y-11863627D01*
X6548634Y-11863627D02*
X6539111Y-11835055D01*
X6539111Y-11835055D02*
X6529587Y-11816008D01*
X6529587Y-11816008D02*
X6510539Y-11787436D01*
X6510539Y-11787436D02*
X6501015Y-11777912D01*
D10*
X1345000Y-12179000D02*
G75*
G02*
X1275000Y-12179000I-35000J0D01*
G01*
X1275000Y-12179000D02*
G75*
G02*
X1345000Y-12179000I35000J0D01*
G01*
D11*
X1643872Y-12070484D02*
X1662920Y-12070484D01*
X1662920Y-12070484D02*
X1681967Y-12080008D01*
X1681967Y-12080008D02*
X1691491Y-12089531D01*
X1691491Y-12089531D02*
X1701015Y-12108579D01*
X1701015Y-12108579D02*
X1710539Y-12146674D01*
X1710539Y-12146674D02*
X1710539Y-12194293D01*
X1710539Y-12194293D02*
X1701015Y-12232388D01*
X1701015Y-12232388D02*
X1691491Y-12251436D01*
X1691491Y-12251436D02*
X1681967Y-12260960D01*
X1681967Y-12260960D02*
X1662920Y-12270484D01*
X1662920Y-12270484D02*
X1643872Y-12270484D01*
X1643872Y-12270484D02*
X1624824Y-12260960D01*
X1624824Y-12260960D02*
X1615301Y-12251436D01*
X1615301Y-12251436D02*
X1605777Y-12232388D01*
X1605777Y-12232388D02*
X1596253Y-12194293D01*
X1596253Y-12194293D02*
X1596253Y-12146674D01*
X1596253Y-12146674D02*
X1605777Y-12108579D01*
X1605777Y-12108579D02*
X1615301Y-12089531D01*
X1615301Y-12089531D02*
X1624824Y-12080008D01*
X1624824Y-12080008D02*
X1643872Y-12070484D01*
X1796253Y-12251436D02*
X1805777Y-12260960D01*
X1805777Y-12260960D02*
X1796253Y-12270484D01*
X1796253Y-12270484D02*
X1786729Y-12260960D01*
X1786729Y-12260960D02*
X1796253Y-12251436D01*
X1796253Y-12251436D02*
X1796253Y-12270484D01*
X1872443Y-12070484D02*
X2005777Y-12070484D01*
X2005777Y-12070484D02*
X1920062Y-12270484D01*
X2120063Y-12070484D02*
X2139110Y-12070484D01*
X2139110Y-12070484D02*
X2158158Y-12080008D01*
X2158158Y-12080008D02*
X2167682Y-12089531D01*
X2167682Y-12089531D02*
X2177205Y-12108579D01*
X2177205Y-12108579D02*
X2186729Y-12146674D01*
X2186729Y-12146674D02*
X2186729Y-12194293D01*
X2186729Y-12194293D02*
X2177205Y-12232388D01*
X2177205Y-12232388D02*
X2167682Y-12251436D01*
X2167682Y-12251436D02*
X2158158Y-12260960D01*
X2158158Y-12260960D02*
X2139110Y-12270484D01*
X2139110Y-12270484D02*
X2120063Y-12270484D01*
X2120063Y-12270484D02*
X2101015Y-12260960D01*
X2101015Y-12260960D02*
X2091491Y-12251436D01*
X2091491Y-12251436D02*
X2081967Y-12232388D01*
X2081967Y-12232388D02*
X2072443Y-12194293D01*
X2072443Y-12194293D02*
X2072443Y-12146674D01*
X2072443Y-12146674D02*
X2081967Y-12108579D01*
X2081967Y-12108579D02*
X2091491Y-12089531D01*
X2091491Y-12089531D02*
X2101015Y-12080008D01*
X2101015Y-12080008D02*
X2120063Y-12070484D01*
X2310539Y-12070484D02*
X2329586Y-12070484D01*
X2329586Y-12070484D02*
X2348634Y-12080008D01*
X2348634Y-12080008D02*
X2358158Y-12089531D01*
X2358158Y-12089531D02*
X2367682Y-12108579D01*
X2367682Y-12108579D02*
X2377205Y-12146674D01*
X2377205Y-12146674D02*
X2377205Y-12194293D01*
X2377205Y-12194293D02*
X2367682Y-12232388D01*
X2367682Y-12232388D02*
X2358158Y-12251436D01*
X2358158Y-12251436D02*
X2348634Y-12260960D01*
X2348634Y-12260960D02*
X2329586Y-12270484D01*
X2329586Y-12270484D02*
X2310539Y-12270484D01*
X2310539Y-12270484D02*
X2291491Y-12260960D01*
X2291491Y-12260960D02*
X2281967Y-12251436D01*
X2281967Y-12251436D02*
X2272444Y-12232388D01*
X2272444Y-12232388D02*
X2262920Y-12194293D01*
X2262920Y-12194293D02*
X2262920Y-12146674D01*
X2262920Y-12146674D02*
X2272444Y-12108579D01*
X2272444Y-12108579D02*
X2281967Y-12089531D01*
X2281967Y-12089531D02*
X2291491Y-12080008D01*
X2291491Y-12080008D02*
X2310539Y-12070484D01*
X2462920Y-12270484D02*
X2462920Y-12137150D01*
X2462920Y-12156198D02*
X2472444Y-12146674D01*
X2472444Y-12146674D02*
X2491491Y-12137150D01*
X2491491Y-12137150D02*
X2520063Y-12137150D01*
X2520063Y-12137150D02*
X2539110Y-12146674D01*
X2539110Y-12146674D02*
X2548634Y-12165722D01*
X2548634Y-12165722D02*
X2548634Y-12270484D01*
X2548634Y-12165722D02*
X2558158Y-12146674D01*
X2558158Y-12146674D02*
X2577205Y-12137150D01*
X2577205Y-12137150D02*
X2605777Y-12137150D01*
X2605777Y-12137150D02*
X2624825Y-12146674D01*
X2624825Y-12146674D02*
X2634348Y-12165722D01*
X2634348Y-12165722D02*
X2634348Y-12270484D01*
X2729586Y-12270484D02*
X2729586Y-12137150D01*
X2729586Y-12156198D02*
X2739110Y-12146674D01*
X2739110Y-12146674D02*
X2758158Y-12137150D01*
X2758158Y-12137150D02*
X2786729Y-12137150D01*
X2786729Y-12137150D02*
X2805777Y-12146674D01*
X2805777Y-12146674D02*
X2815301Y-12165722D01*
X2815301Y-12165722D02*
X2815301Y-12270484D01*
X2815301Y-12165722D02*
X2824824Y-12146674D01*
X2824824Y-12146674D02*
X2843872Y-12137150D01*
X2843872Y-12137150D02*
X2872443Y-12137150D01*
X2872443Y-12137150D02*
X2891491Y-12146674D01*
X2891491Y-12146674D02*
X2901015Y-12165722D01*
X2901015Y-12165722D02*
X2901015Y-12270484D01*
X3291491Y-12060960D02*
X3120063Y-12318103D01*
X3548634Y-12070484D02*
X3567682Y-12070484D01*
X3567682Y-12070484D02*
X3586729Y-12080008D01*
X3586729Y-12080008D02*
X3596253Y-12089531D01*
X3596253Y-12089531D02*
X3605777Y-12108579D01*
X3605777Y-12108579D02*
X3615301Y-12146674D01*
X3615301Y-12146674D02*
X3615301Y-12194293D01*
X3615301Y-12194293D02*
X3605777Y-12232388D01*
X3605777Y-12232388D02*
X3596253Y-12251436D01*
X3596253Y-12251436D02*
X3586729Y-12260960D01*
X3586729Y-12260960D02*
X3567682Y-12270484D01*
X3567682Y-12270484D02*
X3548634Y-12270484D01*
X3548634Y-12270484D02*
X3529586Y-12260960D01*
X3529586Y-12260960D02*
X3520063Y-12251436D01*
X3520063Y-12251436D02*
X3510539Y-12232388D01*
X3510539Y-12232388D02*
X3501015Y-12194293D01*
X3501015Y-12194293D02*
X3501015Y-12146674D01*
X3501015Y-12146674D02*
X3510539Y-12108579D01*
X3510539Y-12108579D02*
X3520063Y-12089531D01*
X3520063Y-12089531D02*
X3529586Y-12080008D01*
X3529586Y-12080008D02*
X3548634Y-12070484D01*
X3701015Y-12251436D02*
X3710539Y-12260960D01*
X3710539Y-12260960D02*
X3701015Y-12270484D01*
X3701015Y-12270484D02*
X3691491Y-12260960D01*
X3691491Y-12260960D02*
X3701015Y-12251436D01*
X3701015Y-12251436D02*
X3701015Y-12270484D01*
X3834348Y-12070484D02*
X3853396Y-12070484D01*
X3853396Y-12070484D02*
X3872444Y-12080008D01*
X3872444Y-12080008D02*
X3881967Y-12089531D01*
X3881967Y-12089531D02*
X3891491Y-12108579D01*
X3891491Y-12108579D02*
X3901015Y-12146674D01*
X3901015Y-12146674D02*
X3901015Y-12194293D01*
X3901015Y-12194293D02*
X3891491Y-12232388D01*
X3891491Y-12232388D02*
X3881967Y-12251436D01*
X3881967Y-12251436D02*
X3872444Y-12260960D01*
X3872444Y-12260960D02*
X3853396Y-12270484D01*
X3853396Y-12270484D02*
X3834348Y-12270484D01*
X3834348Y-12270484D02*
X3815301Y-12260960D01*
X3815301Y-12260960D02*
X3805777Y-12251436D01*
X3805777Y-12251436D02*
X3796253Y-12232388D01*
X3796253Y-12232388D02*
X3786729Y-12194293D01*
X3786729Y-12194293D02*
X3786729Y-12146674D01*
X3786729Y-12146674D02*
X3796253Y-12108579D01*
X3796253Y-12108579D02*
X3805777Y-12089531D01*
X3805777Y-12089531D02*
X3815301Y-12080008D01*
X3815301Y-12080008D02*
X3834348Y-12070484D01*
X3977206Y-12089531D02*
X3986729Y-12080008D01*
X3986729Y-12080008D02*
X4005777Y-12070484D01*
X4005777Y-12070484D02*
X4053396Y-12070484D01*
X4053396Y-12070484D02*
X4072444Y-12080008D01*
X4072444Y-12080008D02*
X4081967Y-12089531D01*
X4081967Y-12089531D02*
X4091491Y-12108579D01*
X4091491Y-12108579D02*
X4091491Y-12127627D01*
X4091491Y-12127627D02*
X4081967Y-12156198D01*
X4081967Y-12156198D02*
X3967682Y-12270484D01*
X3967682Y-12270484D02*
X4091491Y-12270484D01*
X4158158Y-12070484D02*
X4291491Y-12070484D01*
X4291491Y-12070484D02*
X4205777Y-12270484D01*
X4453396Y-12070484D02*
X4415301Y-12070484D01*
X4415301Y-12070484D02*
X4396253Y-12080008D01*
X4396253Y-12080008D02*
X4386729Y-12089531D01*
X4386729Y-12089531D02*
X4367682Y-12118103D01*
X4367682Y-12118103D02*
X4358158Y-12156198D01*
X4358158Y-12156198D02*
X4358158Y-12232388D01*
X4358158Y-12232388D02*
X4367682Y-12251436D01*
X4367682Y-12251436D02*
X4377206Y-12260960D01*
X4377206Y-12260960D02*
X4396253Y-12270484D01*
X4396253Y-12270484D02*
X4434349Y-12270484D01*
X4434349Y-12270484D02*
X4453396Y-12260960D01*
X4453396Y-12260960D02*
X4462920Y-12251436D01*
X4462920Y-12251436D02*
X4472444Y-12232388D01*
X4472444Y-12232388D02*
X4472444Y-12184769D01*
X4472444Y-12184769D02*
X4462920Y-12165722D01*
X4462920Y-12165722D02*
X4453396Y-12156198D01*
X4453396Y-12156198D02*
X4434349Y-12146674D01*
X4434349Y-12146674D02*
X4396253Y-12146674D01*
X4396253Y-12146674D02*
X4377206Y-12156198D01*
X4377206Y-12156198D02*
X4367682Y-12165722D01*
X4367682Y-12165722D02*
X4358158Y-12184769D01*
X4548634Y-12070484D02*
X4548634Y-12108579D01*
X4624825Y-12070484D02*
X4624825Y-12108579D01*
X4920063Y-12346674D02*
X4910539Y-12337150D01*
X4910539Y-12337150D02*
X4891491Y-12308579D01*
X4891491Y-12308579D02*
X4881968Y-12289531D01*
X4881968Y-12289531D02*
X4872444Y-12260960D01*
X4872444Y-12260960D02*
X4862920Y-12213341D01*
X4862920Y-12213341D02*
X4862920Y-12175246D01*
X4862920Y-12175246D02*
X4872444Y-12127627D01*
X4872444Y-12127627D02*
X4881968Y-12099055D01*
X4881968Y-12099055D02*
X4891491Y-12080008D01*
X4891491Y-12080008D02*
X4910539Y-12051436D01*
X4910539Y-12051436D02*
X4920063Y-12041912D01*
X4986730Y-12089531D02*
X4996253Y-12080008D01*
X4996253Y-12080008D02*
X5015301Y-12070484D01*
X5015301Y-12070484D02*
X5062920Y-12070484D01*
X5062920Y-12070484D02*
X5081968Y-12080008D01*
X5081968Y-12080008D02*
X5091491Y-12089531D01*
X5091491Y-12089531D02*
X5101015Y-12108579D01*
X5101015Y-12108579D02*
X5101015Y-12127627D01*
X5101015Y-12127627D02*
X5091491Y-12156198D01*
X5091491Y-12156198D02*
X4977206Y-12270484D01*
X4977206Y-12270484D02*
X5101015Y-12270484D01*
X5339111Y-12270484D02*
X5339111Y-12070484D01*
X5424825Y-12270484D02*
X5424825Y-12165722D01*
X5424825Y-12165722D02*
X5415301Y-12146674D01*
X5415301Y-12146674D02*
X5396253Y-12137150D01*
X5396253Y-12137150D02*
X5367682Y-12137150D01*
X5367682Y-12137150D02*
X5348634Y-12146674D01*
X5348634Y-12146674D02*
X5339111Y-12156198D01*
X5548634Y-12270484D02*
X5529587Y-12260960D01*
X5529587Y-12260960D02*
X5520063Y-12251436D01*
X5520063Y-12251436D02*
X5510539Y-12232388D01*
X5510539Y-12232388D02*
X5510539Y-12175246D01*
X5510539Y-12175246D02*
X5520063Y-12156198D01*
X5520063Y-12156198D02*
X5529587Y-12146674D01*
X5529587Y-12146674D02*
X5548634Y-12137150D01*
X5548634Y-12137150D02*
X5577206Y-12137150D01*
X5577206Y-12137150D02*
X5596253Y-12146674D01*
X5596253Y-12146674D02*
X5605777Y-12156198D01*
X5605777Y-12156198D02*
X5615301Y-12175246D01*
X5615301Y-12175246D02*
X5615301Y-12232388D01*
X5615301Y-12232388D02*
X5605777Y-12251436D01*
X5605777Y-12251436D02*
X5596253Y-12260960D01*
X5596253Y-12260960D02*
X5577206Y-12270484D01*
X5577206Y-12270484D02*
X5548634Y-12270484D01*
X5729587Y-12270484D02*
X5710539Y-12260960D01*
X5710539Y-12260960D02*
X5701015Y-12241912D01*
X5701015Y-12241912D02*
X5701015Y-12070484D01*
X5881968Y-12260960D02*
X5862920Y-12270484D01*
X5862920Y-12270484D02*
X5824825Y-12270484D01*
X5824825Y-12270484D02*
X5805777Y-12260960D01*
X5805777Y-12260960D02*
X5796253Y-12241912D01*
X5796253Y-12241912D02*
X5796253Y-12165722D01*
X5796253Y-12165722D02*
X5805777Y-12146674D01*
X5805777Y-12146674D02*
X5824825Y-12137150D01*
X5824825Y-12137150D02*
X5862920Y-12137150D01*
X5862920Y-12137150D02*
X5881968Y-12146674D01*
X5881968Y-12146674D02*
X5891491Y-12165722D01*
X5891491Y-12165722D02*
X5891491Y-12184769D01*
X5891491Y-12184769D02*
X5796253Y-12203817D01*
X5967682Y-12260960D02*
X5986730Y-12270484D01*
X5986730Y-12270484D02*
X6024825Y-12270484D01*
X6024825Y-12270484D02*
X6043872Y-12260960D01*
X6043872Y-12260960D02*
X6053396Y-12241912D01*
X6053396Y-12241912D02*
X6053396Y-12232388D01*
X6053396Y-12232388D02*
X6043872Y-12213341D01*
X6043872Y-12213341D02*
X6024825Y-12203817D01*
X6024825Y-12203817D02*
X5996253Y-12203817D01*
X5996253Y-12203817D02*
X5977206Y-12194293D01*
X5977206Y-12194293D02*
X5967682Y-12175246D01*
X5967682Y-12175246D02*
X5967682Y-12165722D01*
X5967682Y-12165722D02*
X5977206Y-12146674D01*
X5977206Y-12146674D02*
X5996253Y-12137150D01*
X5996253Y-12137150D02*
X6024825Y-12137150D01*
X6024825Y-12137150D02*
X6043872Y-12146674D01*
X6120063Y-12346674D02*
X6129587Y-12337150D01*
X6129587Y-12337150D02*
X6148634Y-12308579D01*
X6148634Y-12308579D02*
X6158158Y-12289531D01*
X6158158Y-12289531D02*
X6167682Y-12260960D01*
X6167682Y-12260960D02*
X6177206Y-12213341D01*
X6177206Y-12213341D02*
X6177206Y-12175246D01*
X6177206Y-12175246D02*
X6167682Y-12127627D01*
X6167682Y-12127627D02*
X6158158Y-12099055D01*
X6158158Y-12099055D02*
X6148634Y-12080008D01*
X6148634Y-12080008D02*
X6129587Y-12051436D01*
X6129587Y-12051436D02*
X6120063Y-12041912D01*
D10*
X1297500Y-12395500D02*
X1297500Y-12490500D01*
X1250000Y-12443000D02*
X1345000Y-12443000D01*
D11*
X1643872Y-12334484D02*
X1662920Y-12334484D01*
X1662920Y-12334484D02*
X1681967Y-12344008D01*
X1681967Y-12344008D02*
X1691491Y-12353531D01*
X1691491Y-12353531D02*
X1701015Y-12372579D01*
X1701015Y-12372579D02*
X1710539Y-12410674D01*
X1710539Y-12410674D02*
X1710539Y-12458293D01*
X1710539Y-12458293D02*
X1701015Y-12496388D01*
X1701015Y-12496388D02*
X1691491Y-12515436D01*
X1691491Y-12515436D02*
X1681967Y-12524960D01*
X1681967Y-12524960D02*
X1662920Y-12534484D01*
X1662920Y-12534484D02*
X1643872Y-12534484D01*
X1643872Y-12534484D02*
X1624824Y-12524960D01*
X1624824Y-12524960D02*
X1615301Y-12515436D01*
X1615301Y-12515436D02*
X1605777Y-12496388D01*
X1605777Y-12496388D02*
X1596253Y-12458293D01*
X1596253Y-12458293D02*
X1596253Y-12410674D01*
X1596253Y-12410674D02*
X1605777Y-12372579D01*
X1605777Y-12372579D02*
X1615301Y-12353531D01*
X1615301Y-12353531D02*
X1624824Y-12344008D01*
X1624824Y-12344008D02*
X1643872Y-12334484D01*
X1796253Y-12515436D02*
X1805777Y-12524960D01*
X1805777Y-12524960D02*
X1796253Y-12534484D01*
X1796253Y-12534484D02*
X1786729Y-12524960D01*
X1786729Y-12524960D02*
X1796253Y-12515436D01*
X1796253Y-12515436D02*
X1796253Y-12534484D01*
X1901015Y-12534484D02*
X1939110Y-12534484D01*
X1939110Y-12534484D02*
X1958158Y-12524960D01*
X1958158Y-12524960D02*
X1967682Y-12515436D01*
X1967682Y-12515436D02*
X1986729Y-12486865D01*
X1986729Y-12486865D02*
X1996253Y-12448769D01*
X1996253Y-12448769D02*
X1996253Y-12372579D01*
X1996253Y-12372579D02*
X1986729Y-12353531D01*
X1986729Y-12353531D02*
X1977205Y-12344008D01*
X1977205Y-12344008D02*
X1958158Y-12334484D01*
X1958158Y-12334484D02*
X1920062Y-12334484D01*
X1920062Y-12334484D02*
X1901015Y-12344008D01*
X1901015Y-12344008D02*
X1891491Y-12353531D01*
X1891491Y-12353531D02*
X1881967Y-12372579D01*
X1881967Y-12372579D02*
X1881967Y-12420198D01*
X1881967Y-12420198D02*
X1891491Y-12439246D01*
X1891491Y-12439246D02*
X1901015Y-12448769D01*
X1901015Y-12448769D02*
X1920062Y-12458293D01*
X1920062Y-12458293D02*
X1958158Y-12458293D01*
X1958158Y-12458293D02*
X1977205Y-12448769D01*
X1977205Y-12448769D02*
X1986729Y-12439246D01*
X1986729Y-12439246D02*
X1996253Y-12420198D01*
X2177205Y-12334484D02*
X2081967Y-12334484D01*
X2081967Y-12334484D02*
X2072443Y-12429722D01*
X2072443Y-12429722D02*
X2081967Y-12420198D01*
X2081967Y-12420198D02*
X2101015Y-12410674D01*
X2101015Y-12410674D02*
X2148634Y-12410674D01*
X2148634Y-12410674D02*
X2167682Y-12420198D01*
X2167682Y-12420198D02*
X2177205Y-12429722D01*
X2177205Y-12429722D02*
X2186729Y-12448769D01*
X2186729Y-12448769D02*
X2186729Y-12496388D01*
X2186729Y-12496388D02*
X2177205Y-12515436D01*
X2177205Y-12515436D02*
X2167682Y-12524960D01*
X2167682Y-12524960D02*
X2148634Y-12534484D01*
X2148634Y-12534484D02*
X2101015Y-12534484D01*
X2101015Y-12534484D02*
X2081967Y-12524960D01*
X2081967Y-12524960D02*
X2072443Y-12515436D01*
X2310539Y-12334484D02*
X2329586Y-12334484D01*
X2329586Y-12334484D02*
X2348634Y-12344008D01*
X2348634Y-12344008D02*
X2358158Y-12353531D01*
X2358158Y-12353531D02*
X2367682Y-12372579D01*
X2367682Y-12372579D02*
X2377205Y-12410674D01*
X2377205Y-12410674D02*
X2377205Y-12458293D01*
X2377205Y-12458293D02*
X2367682Y-12496388D01*
X2367682Y-12496388D02*
X2358158Y-12515436D01*
X2358158Y-12515436D02*
X2348634Y-12524960D01*
X2348634Y-12524960D02*
X2329586Y-12534484D01*
X2329586Y-12534484D02*
X2310539Y-12534484D01*
X2310539Y-12534484D02*
X2291491Y-12524960D01*
X2291491Y-12524960D02*
X2281967Y-12515436D01*
X2281967Y-12515436D02*
X2272444Y-12496388D01*
X2272444Y-12496388D02*
X2262920Y-12458293D01*
X2262920Y-12458293D02*
X2262920Y-12410674D01*
X2262920Y-12410674D02*
X2272444Y-12372579D01*
X2272444Y-12372579D02*
X2281967Y-12353531D01*
X2281967Y-12353531D02*
X2291491Y-12344008D01*
X2291491Y-12344008D02*
X2310539Y-12334484D01*
X2462920Y-12534484D02*
X2462920Y-12401150D01*
X2462920Y-12420198D02*
X2472444Y-12410674D01*
X2472444Y-12410674D02*
X2491491Y-12401150D01*
X2491491Y-12401150D02*
X2520063Y-12401150D01*
X2520063Y-12401150D02*
X2539110Y-12410674D01*
X2539110Y-12410674D02*
X2548634Y-12429722D01*
X2548634Y-12429722D02*
X2548634Y-12534484D01*
X2548634Y-12429722D02*
X2558158Y-12410674D01*
X2558158Y-12410674D02*
X2577205Y-12401150D01*
X2577205Y-12401150D02*
X2605777Y-12401150D01*
X2605777Y-12401150D02*
X2624825Y-12410674D01*
X2624825Y-12410674D02*
X2634348Y-12429722D01*
X2634348Y-12429722D02*
X2634348Y-12534484D01*
X2729586Y-12534484D02*
X2729586Y-12401150D01*
X2729586Y-12420198D02*
X2739110Y-12410674D01*
X2739110Y-12410674D02*
X2758158Y-12401150D01*
X2758158Y-12401150D02*
X2786729Y-12401150D01*
X2786729Y-12401150D02*
X2805777Y-12410674D01*
X2805777Y-12410674D02*
X2815301Y-12429722D01*
X2815301Y-12429722D02*
X2815301Y-12534484D01*
X2815301Y-12429722D02*
X2824824Y-12410674D01*
X2824824Y-12410674D02*
X2843872Y-12401150D01*
X2843872Y-12401150D02*
X2872443Y-12401150D01*
X2872443Y-12401150D02*
X2891491Y-12410674D01*
X2891491Y-12410674D02*
X2901015Y-12429722D01*
X2901015Y-12429722D02*
X2901015Y-12534484D01*
X3291491Y-12324960D02*
X3120063Y-12582103D01*
X3548634Y-12334484D02*
X3567682Y-12334484D01*
X3567682Y-12334484D02*
X3586729Y-12344008D01*
X3586729Y-12344008D02*
X3596253Y-12353531D01*
X3596253Y-12353531D02*
X3605777Y-12372579D01*
X3605777Y-12372579D02*
X3615301Y-12410674D01*
X3615301Y-12410674D02*
X3615301Y-12458293D01*
X3615301Y-12458293D02*
X3605777Y-12496388D01*
X3605777Y-12496388D02*
X3596253Y-12515436D01*
X3596253Y-12515436D02*
X3586729Y-12524960D01*
X3586729Y-12524960D02*
X3567682Y-12534484D01*
X3567682Y-12534484D02*
X3548634Y-12534484D01*
X3548634Y-12534484D02*
X3529586Y-12524960D01*
X3529586Y-12524960D02*
X3520063Y-12515436D01*
X3520063Y-12515436D02*
X3510539Y-12496388D01*
X3510539Y-12496388D02*
X3501015Y-12458293D01*
X3501015Y-12458293D02*
X3501015Y-12410674D01*
X3501015Y-12410674D02*
X3510539Y-12372579D01*
X3510539Y-12372579D02*
X3520063Y-12353531D01*
X3520063Y-12353531D02*
X3529586Y-12344008D01*
X3529586Y-12344008D02*
X3548634Y-12334484D01*
X3701015Y-12515436D02*
X3710539Y-12524960D01*
X3710539Y-12524960D02*
X3701015Y-12534484D01*
X3701015Y-12534484D02*
X3691491Y-12524960D01*
X3691491Y-12524960D02*
X3701015Y-12515436D01*
X3701015Y-12515436D02*
X3701015Y-12534484D01*
X3834348Y-12334484D02*
X3853396Y-12334484D01*
X3853396Y-12334484D02*
X3872444Y-12344008D01*
X3872444Y-12344008D02*
X3881967Y-12353531D01*
X3881967Y-12353531D02*
X3891491Y-12372579D01*
X3891491Y-12372579D02*
X3901015Y-12410674D01*
X3901015Y-12410674D02*
X3901015Y-12458293D01*
X3901015Y-12458293D02*
X3891491Y-12496388D01*
X3891491Y-12496388D02*
X3881967Y-12515436D01*
X3881967Y-12515436D02*
X3872444Y-12524960D01*
X3872444Y-12524960D02*
X3853396Y-12534484D01*
X3853396Y-12534484D02*
X3834348Y-12534484D01*
X3834348Y-12534484D02*
X3815301Y-12524960D01*
X3815301Y-12524960D02*
X3805777Y-12515436D01*
X3805777Y-12515436D02*
X3796253Y-12496388D01*
X3796253Y-12496388D02*
X3786729Y-12458293D01*
X3786729Y-12458293D02*
X3786729Y-12410674D01*
X3786729Y-12410674D02*
X3796253Y-12372579D01*
X3796253Y-12372579D02*
X3805777Y-12353531D01*
X3805777Y-12353531D02*
X3815301Y-12344008D01*
X3815301Y-12344008D02*
X3834348Y-12334484D01*
X3967682Y-12334484D02*
X4091491Y-12334484D01*
X4091491Y-12334484D02*
X4024825Y-12410674D01*
X4024825Y-12410674D02*
X4053396Y-12410674D01*
X4053396Y-12410674D02*
X4072444Y-12420198D01*
X4072444Y-12420198D02*
X4081967Y-12429722D01*
X4081967Y-12429722D02*
X4091491Y-12448769D01*
X4091491Y-12448769D02*
X4091491Y-12496388D01*
X4091491Y-12496388D02*
X4081967Y-12515436D01*
X4081967Y-12515436D02*
X4072444Y-12524960D01*
X4072444Y-12524960D02*
X4053396Y-12534484D01*
X4053396Y-12534484D02*
X3996253Y-12534484D01*
X3996253Y-12534484D02*
X3977206Y-12524960D01*
X3977206Y-12524960D02*
X3967682Y-12515436D01*
X4158158Y-12334484D02*
X4291491Y-12334484D01*
X4291491Y-12334484D02*
X4205777Y-12534484D01*
X4453396Y-12401150D02*
X4453396Y-12534484D01*
X4405777Y-12324960D02*
X4358158Y-12467817D01*
X4358158Y-12467817D02*
X4481968Y-12467817D01*
X4548634Y-12334484D02*
X4548634Y-12372579D01*
X4624825Y-12334484D02*
X4624825Y-12372579D01*
X4920063Y-12610674D02*
X4910539Y-12601150D01*
X4910539Y-12601150D02*
X4891491Y-12572579D01*
X4891491Y-12572579D02*
X4881968Y-12553531D01*
X4881968Y-12553531D02*
X4872444Y-12524960D01*
X4872444Y-12524960D02*
X4862920Y-12477341D01*
X4862920Y-12477341D02*
X4862920Y-12439246D01*
X4862920Y-12439246D02*
X4872444Y-12391627D01*
X4872444Y-12391627D02*
X4881968Y-12363055D01*
X4881968Y-12363055D02*
X4891491Y-12344008D01*
X4891491Y-12344008D02*
X4910539Y-12315436D01*
X4910539Y-12315436D02*
X4920063Y-12305912D01*
X5101015Y-12534484D02*
X4986730Y-12534484D01*
X5043872Y-12534484D02*
X5043872Y-12334484D01*
X5043872Y-12334484D02*
X5024825Y-12363055D01*
X5024825Y-12363055D02*
X5005777Y-12382103D01*
X5005777Y-12382103D02*
X4986730Y-12391627D01*
X5177206Y-12353531D02*
X5186730Y-12344008D01*
X5186730Y-12344008D02*
X5205777Y-12334484D01*
X5205777Y-12334484D02*
X5253396Y-12334484D01*
X5253396Y-12334484D02*
X5272444Y-12344008D01*
X5272444Y-12344008D02*
X5281968Y-12353531D01*
X5281968Y-12353531D02*
X5291491Y-12372579D01*
X5291491Y-12372579D02*
X5291491Y-12391627D01*
X5291491Y-12391627D02*
X5281968Y-12420198D01*
X5281968Y-12420198D02*
X5167682Y-12534484D01*
X5167682Y-12534484D02*
X5291491Y-12534484D01*
X5529587Y-12534484D02*
X5529587Y-12334484D01*
X5615301Y-12534484D02*
X5615301Y-12429722D01*
X5615301Y-12429722D02*
X5605777Y-12410674D01*
X5605777Y-12410674D02*
X5586730Y-12401150D01*
X5586730Y-12401150D02*
X5558158Y-12401150D01*
X5558158Y-12401150D02*
X5539111Y-12410674D01*
X5539111Y-12410674D02*
X5529587Y-12420198D01*
X5739110Y-12534484D02*
X5720063Y-12524960D01*
X5720063Y-12524960D02*
X5710539Y-12515436D01*
X5710539Y-12515436D02*
X5701015Y-12496388D01*
X5701015Y-12496388D02*
X5701015Y-12439246D01*
X5701015Y-12439246D02*
X5710539Y-12420198D01*
X5710539Y-12420198D02*
X5720063Y-12410674D01*
X5720063Y-12410674D02*
X5739110Y-12401150D01*
X5739110Y-12401150D02*
X5767682Y-12401150D01*
X5767682Y-12401150D02*
X5786730Y-12410674D01*
X5786730Y-12410674D02*
X5796253Y-12420198D01*
X5796253Y-12420198D02*
X5805777Y-12439246D01*
X5805777Y-12439246D02*
X5805777Y-12496388D01*
X5805777Y-12496388D02*
X5796253Y-12515436D01*
X5796253Y-12515436D02*
X5786730Y-12524960D01*
X5786730Y-12524960D02*
X5767682Y-12534484D01*
X5767682Y-12534484D02*
X5739110Y-12534484D01*
X5920063Y-12534484D02*
X5901015Y-12524960D01*
X5901015Y-12524960D02*
X5891491Y-12505912D01*
X5891491Y-12505912D02*
X5891491Y-12334484D01*
X6072444Y-12524960D02*
X6053396Y-12534484D01*
X6053396Y-12534484D02*
X6015301Y-12534484D01*
X6015301Y-12534484D02*
X5996253Y-12524960D01*
X5996253Y-12524960D02*
X5986730Y-12505912D01*
X5986730Y-12505912D02*
X5986730Y-12429722D01*
X5986730Y-12429722D02*
X5996253Y-12410674D01*
X5996253Y-12410674D02*
X6015301Y-12401150D01*
X6015301Y-12401150D02*
X6053396Y-12401150D01*
X6053396Y-12401150D02*
X6072444Y-12410674D01*
X6072444Y-12410674D02*
X6081968Y-12429722D01*
X6081968Y-12429722D02*
X6081968Y-12448769D01*
X6081968Y-12448769D02*
X5986730Y-12467817D01*
X6158158Y-12524960D02*
X6177206Y-12534484D01*
X6177206Y-12534484D02*
X6215301Y-12534484D01*
X6215301Y-12534484D02*
X6234349Y-12524960D01*
X6234349Y-12524960D02*
X6243872Y-12505912D01*
X6243872Y-12505912D02*
X6243872Y-12496388D01*
X6243872Y-12496388D02*
X6234349Y-12477341D01*
X6234349Y-12477341D02*
X6215301Y-12467817D01*
X6215301Y-12467817D02*
X6186730Y-12467817D01*
X6186730Y-12467817D02*
X6167682Y-12458293D01*
X6167682Y-12458293D02*
X6158158Y-12439246D01*
X6158158Y-12439246D02*
X6158158Y-12429722D01*
X6158158Y-12429722D02*
X6167682Y-12410674D01*
X6167682Y-12410674D02*
X6186730Y-12401150D01*
X6186730Y-12401150D02*
X6215301Y-12401150D01*
X6215301Y-12401150D02*
X6234349Y-12410674D01*
X6310539Y-12610674D02*
X6320063Y-12601150D01*
X6320063Y-12601150D02*
X6339111Y-12572579D01*
X6339111Y-12572579D02*
X6348634Y-12553531D01*
X6348634Y-12553531D02*
X6358158Y-12524960D01*
X6358158Y-12524960D02*
X6367682Y-12477341D01*
X6367682Y-12477341D02*
X6367682Y-12439246D01*
X6367682Y-12439246D02*
X6358158Y-12391627D01*
X6358158Y-12391627D02*
X6348634Y-12363055D01*
X6348634Y-12363055D02*
X6339111Y-12344008D01*
X6339111Y-12344008D02*
X6320063Y-12315436D01*
X6320063Y-12315436D02*
X6310539Y-12305912D01*
D10*
X1330356Y-12742356D02*
X1330356Y-12671644D01*
X1259644Y-12671644D01*
X1259644Y-12742356D01*
X1330356Y-12742356D01*
D11*
X1710539Y-12798484D02*
X1596253Y-12798484D01*
X1653396Y-12798484D02*
X1653396Y-12598484D01*
X1653396Y-12598484D02*
X1634348Y-12627055D01*
X1634348Y-12627055D02*
X1615301Y-12646103D01*
X1615301Y-12646103D02*
X1596253Y-12655627D01*
X1796253Y-12779436D02*
X1805777Y-12788960D01*
X1805777Y-12788960D02*
X1796253Y-12798484D01*
X1796253Y-12798484D02*
X1786729Y-12788960D01*
X1786729Y-12788960D02*
X1796253Y-12779436D01*
X1796253Y-12779436D02*
X1796253Y-12798484D01*
X1929586Y-12598484D02*
X1948634Y-12598484D01*
X1948634Y-12598484D02*
X1967682Y-12608008D01*
X1967682Y-12608008D02*
X1977205Y-12617531D01*
X1977205Y-12617531D02*
X1986729Y-12636579D01*
X1986729Y-12636579D02*
X1996253Y-12674674D01*
X1996253Y-12674674D02*
X1996253Y-12722293D01*
X1996253Y-12722293D02*
X1986729Y-12760388D01*
X1986729Y-12760388D02*
X1977205Y-12779436D01*
X1977205Y-12779436D02*
X1967682Y-12788960D01*
X1967682Y-12788960D02*
X1948634Y-12798484D01*
X1948634Y-12798484D02*
X1929586Y-12798484D01*
X1929586Y-12798484D02*
X1910539Y-12788960D01*
X1910539Y-12788960D02*
X1901015Y-12779436D01*
X1901015Y-12779436D02*
X1891491Y-12760388D01*
X1891491Y-12760388D02*
X1881967Y-12722293D01*
X1881967Y-12722293D02*
X1881967Y-12674674D01*
X1881967Y-12674674D02*
X1891491Y-12636579D01*
X1891491Y-12636579D02*
X1901015Y-12617531D01*
X1901015Y-12617531D02*
X1910539Y-12608008D01*
X1910539Y-12608008D02*
X1929586Y-12598484D01*
X2120063Y-12598484D02*
X2139110Y-12598484D01*
X2139110Y-12598484D02*
X2158158Y-12608008D01*
X2158158Y-12608008D02*
X2167682Y-12617531D01*
X2167682Y-12617531D02*
X2177205Y-12636579D01*
X2177205Y-12636579D02*
X2186729Y-12674674D01*
X2186729Y-12674674D02*
X2186729Y-12722293D01*
X2186729Y-12722293D02*
X2177205Y-12760388D01*
X2177205Y-12760388D02*
X2167682Y-12779436D01*
X2167682Y-12779436D02*
X2158158Y-12788960D01*
X2158158Y-12788960D02*
X2139110Y-12798484D01*
X2139110Y-12798484D02*
X2120063Y-12798484D01*
X2120063Y-12798484D02*
X2101015Y-12788960D01*
X2101015Y-12788960D02*
X2091491Y-12779436D01*
X2091491Y-12779436D02*
X2081967Y-12760388D01*
X2081967Y-12760388D02*
X2072443Y-12722293D01*
X2072443Y-12722293D02*
X2072443Y-12674674D01*
X2072443Y-12674674D02*
X2081967Y-12636579D01*
X2081967Y-12636579D02*
X2091491Y-12617531D01*
X2091491Y-12617531D02*
X2101015Y-12608008D01*
X2101015Y-12608008D02*
X2120063Y-12598484D01*
X2310539Y-12598484D02*
X2329586Y-12598484D01*
X2329586Y-12598484D02*
X2348634Y-12608008D01*
X2348634Y-12608008D02*
X2358158Y-12617531D01*
X2358158Y-12617531D02*
X2367682Y-12636579D01*
X2367682Y-12636579D02*
X2377205Y-12674674D01*
X2377205Y-12674674D02*
X2377205Y-12722293D01*
X2377205Y-12722293D02*
X2367682Y-12760388D01*
X2367682Y-12760388D02*
X2358158Y-12779436D01*
X2358158Y-12779436D02*
X2348634Y-12788960D01*
X2348634Y-12788960D02*
X2329586Y-12798484D01*
X2329586Y-12798484D02*
X2310539Y-12798484D01*
X2310539Y-12798484D02*
X2291491Y-12788960D01*
X2291491Y-12788960D02*
X2281967Y-12779436D01*
X2281967Y-12779436D02*
X2272444Y-12760388D01*
X2272444Y-12760388D02*
X2262920Y-12722293D01*
X2262920Y-12722293D02*
X2262920Y-12674674D01*
X2262920Y-12674674D02*
X2272444Y-12636579D01*
X2272444Y-12636579D02*
X2281967Y-12617531D01*
X2281967Y-12617531D02*
X2291491Y-12608008D01*
X2291491Y-12608008D02*
X2310539Y-12598484D01*
X2462920Y-12798484D02*
X2462920Y-12665150D01*
X2462920Y-12684198D02*
X2472444Y-12674674D01*
X2472444Y-12674674D02*
X2491491Y-12665150D01*
X2491491Y-12665150D02*
X2520063Y-12665150D01*
X2520063Y-12665150D02*
X2539110Y-12674674D01*
X2539110Y-12674674D02*
X2548634Y-12693722D01*
X2548634Y-12693722D02*
X2548634Y-12798484D01*
X2548634Y-12693722D02*
X2558158Y-12674674D01*
X2558158Y-12674674D02*
X2577205Y-12665150D01*
X2577205Y-12665150D02*
X2605777Y-12665150D01*
X2605777Y-12665150D02*
X2624825Y-12674674D01*
X2624825Y-12674674D02*
X2634348Y-12693722D01*
X2634348Y-12693722D02*
X2634348Y-12798484D01*
X2729586Y-12798484D02*
X2729586Y-12665150D01*
X2729586Y-12684198D02*
X2739110Y-12674674D01*
X2739110Y-12674674D02*
X2758158Y-12665150D01*
X2758158Y-12665150D02*
X2786729Y-12665150D01*
X2786729Y-12665150D02*
X2805777Y-12674674D01*
X2805777Y-12674674D02*
X2815301Y-12693722D01*
X2815301Y-12693722D02*
X2815301Y-12798484D01*
X2815301Y-12693722D02*
X2824824Y-12674674D01*
X2824824Y-12674674D02*
X2843872Y-12665150D01*
X2843872Y-12665150D02*
X2872443Y-12665150D01*
X2872443Y-12665150D02*
X2891491Y-12674674D01*
X2891491Y-12674674D02*
X2901015Y-12693722D01*
X2901015Y-12693722D02*
X2901015Y-12798484D01*
X3291491Y-12588960D02*
X3120063Y-12846103D01*
X3548634Y-12598484D02*
X3567682Y-12598484D01*
X3567682Y-12598484D02*
X3586729Y-12608008D01*
X3586729Y-12608008D02*
X3596253Y-12617531D01*
X3596253Y-12617531D02*
X3605777Y-12636579D01*
X3605777Y-12636579D02*
X3615301Y-12674674D01*
X3615301Y-12674674D02*
X3615301Y-12722293D01*
X3615301Y-12722293D02*
X3605777Y-12760388D01*
X3605777Y-12760388D02*
X3596253Y-12779436D01*
X3596253Y-12779436D02*
X3586729Y-12788960D01*
X3586729Y-12788960D02*
X3567682Y-12798484D01*
X3567682Y-12798484D02*
X3548634Y-12798484D01*
X3548634Y-12798484D02*
X3529586Y-12788960D01*
X3529586Y-12788960D02*
X3520063Y-12779436D01*
X3520063Y-12779436D02*
X3510539Y-12760388D01*
X3510539Y-12760388D02*
X3501015Y-12722293D01*
X3501015Y-12722293D02*
X3501015Y-12674674D01*
X3501015Y-12674674D02*
X3510539Y-12636579D01*
X3510539Y-12636579D02*
X3520063Y-12617531D01*
X3520063Y-12617531D02*
X3529586Y-12608008D01*
X3529586Y-12608008D02*
X3548634Y-12598484D01*
X3701015Y-12779436D02*
X3710539Y-12788960D01*
X3710539Y-12788960D02*
X3701015Y-12798484D01*
X3701015Y-12798484D02*
X3691491Y-12788960D01*
X3691491Y-12788960D02*
X3701015Y-12779436D01*
X3701015Y-12779436D02*
X3701015Y-12798484D01*
X3834348Y-12598484D02*
X3853396Y-12598484D01*
X3853396Y-12598484D02*
X3872444Y-12608008D01*
X3872444Y-12608008D02*
X3881967Y-12617531D01*
X3881967Y-12617531D02*
X3891491Y-12636579D01*
X3891491Y-12636579D02*
X3901015Y-12674674D01*
X3901015Y-12674674D02*
X3901015Y-12722293D01*
X3901015Y-12722293D02*
X3891491Y-12760388D01*
X3891491Y-12760388D02*
X3881967Y-12779436D01*
X3881967Y-12779436D02*
X3872444Y-12788960D01*
X3872444Y-12788960D02*
X3853396Y-12798484D01*
X3853396Y-12798484D02*
X3834348Y-12798484D01*
X3834348Y-12798484D02*
X3815301Y-12788960D01*
X3815301Y-12788960D02*
X3805777Y-12779436D01*
X3805777Y-12779436D02*
X3796253Y-12760388D01*
X3796253Y-12760388D02*
X3786729Y-12722293D01*
X3786729Y-12722293D02*
X3786729Y-12674674D01*
X3786729Y-12674674D02*
X3796253Y-12636579D01*
X3796253Y-12636579D02*
X3805777Y-12617531D01*
X3805777Y-12617531D02*
X3815301Y-12608008D01*
X3815301Y-12608008D02*
X3834348Y-12598484D01*
X3967682Y-12598484D02*
X4091491Y-12598484D01*
X4091491Y-12598484D02*
X4024825Y-12674674D01*
X4024825Y-12674674D02*
X4053396Y-12674674D01*
X4053396Y-12674674D02*
X4072444Y-12684198D01*
X4072444Y-12684198D02*
X4081967Y-12693722D01*
X4081967Y-12693722D02*
X4091491Y-12712769D01*
X4091491Y-12712769D02*
X4091491Y-12760388D01*
X4091491Y-12760388D02*
X4081967Y-12779436D01*
X4081967Y-12779436D02*
X4072444Y-12788960D01*
X4072444Y-12788960D02*
X4053396Y-12798484D01*
X4053396Y-12798484D02*
X3996253Y-12798484D01*
X3996253Y-12798484D02*
X3977206Y-12788960D01*
X3977206Y-12788960D02*
X3967682Y-12779436D01*
X4186729Y-12798484D02*
X4224825Y-12798484D01*
X4224825Y-12798484D02*
X4243872Y-12788960D01*
X4243872Y-12788960D02*
X4253396Y-12779436D01*
X4253396Y-12779436D02*
X4272444Y-12750865D01*
X4272444Y-12750865D02*
X4281968Y-12712769D01*
X4281968Y-12712769D02*
X4281968Y-12636579D01*
X4281968Y-12636579D02*
X4272444Y-12617531D01*
X4272444Y-12617531D02*
X4262920Y-12608008D01*
X4262920Y-12608008D02*
X4243872Y-12598484D01*
X4243872Y-12598484D02*
X4205777Y-12598484D01*
X4205777Y-12598484D02*
X4186729Y-12608008D01*
X4186729Y-12608008D02*
X4177206Y-12617531D01*
X4177206Y-12617531D02*
X4167682Y-12636579D01*
X4167682Y-12636579D02*
X4167682Y-12684198D01*
X4167682Y-12684198D02*
X4177206Y-12703246D01*
X4177206Y-12703246D02*
X4186729Y-12712769D01*
X4186729Y-12712769D02*
X4205777Y-12722293D01*
X4205777Y-12722293D02*
X4243872Y-12722293D01*
X4243872Y-12722293D02*
X4262920Y-12712769D01*
X4262920Y-12712769D02*
X4272444Y-12703246D01*
X4272444Y-12703246D02*
X4281968Y-12684198D01*
X4453396Y-12665150D02*
X4453396Y-12798484D01*
X4405777Y-12588960D02*
X4358158Y-12731817D01*
X4358158Y-12731817D02*
X4481968Y-12731817D01*
X4548634Y-12598484D02*
X4548634Y-12636579D01*
X4624825Y-12598484D02*
X4624825Y-12636579D01*
X4920063Y-12874674D02*
X4910539Y-12865150D01*
X4910539Y-12865150D02*
X4891491Y-12836579D01*
X4891491Y-12836579D02*
X4881968Y-12817531D01*
X4881968Y-12817531D02*
X4872444Y-12788960D01*
X4872444Y-12788960D02*
X4862920Y-12741341D01*
X4862920Y-12741341D02*
X4862920Y-12703246D01*
X4862920Y-12703246D02*
X4872444Y-12655627D01*
X4872444Y-12655627D02*
X4881968Y-12627055D01*
X4881968Y-12627055D02*
X4891491Y-12608008D01*
X4891491Y-12608008D02*
X4910539Y-12579436D01*
X4910539Y-12579436D02*
X4920063Y-12569912D01*
X5101015Y-12798484D02*
X4986730Y-12798484D01*
X5043872Y-12798484D02*
X5043872Y-12598484D01*
X5043872Y-12598484D02*
X5024825Y-12627055D01*
X5024825Y-12627055D02*
X5005777Y-12646103D01*
X5005777Y-12646103D02*
X4986730Y-12655627D01*
X5215301Y-12684198D02*
X5196253Y-12674674D01*
X5196253Y-12674674D02*
X5186730Y-12665150D01*
X5186730Y-12665150D02*
X5177206Y-12646103D01*
X5177206Y-12646103D02*
X5177206Y-12636579D01*
X5177206Y-12636579D02*
X5186730Y-12617531D01*
X5186730Y-12617531D02*
X5196253Y-12608008D01*
X5196253Y-12608008D02*
X5215301Y-12598484D01*
X5215301Y-12598484D02*
X5253396Y-12598484D01*
X5253396Y-12598484D02*
X5272444Y-12608008D01*
X5272444Y-12608008D02*
X5281968Y-12617531D01*
X5281968Y-12617531D02*
X5291491Y-12636579D01*
X5291491Y-12636579D02*
X5291491Y-12646103D01*
X5291491Y-12646103D02*
X5281968Y-12665150D01*
X5281968Y-12665150D02*
X5272444Y-12674674D01*
X5272444Y-12674674D02*
X5253396Y-12684198D01*
X5253396Y-12684198D02*
X5215301Y-12684198D01*
X5215301Y-12684198D02*
X5196253Y-12693722D01*
X5196253Y-12693722D02*
X5186730Y-12703246D01*
X5186730Y-12703246D02*
X5177206Y-12722293D01*
X5177206Y-12722293D02*
X5177206Y-12760388D01*
X5177206Y-12760388D02*
X5186730Y-12779436D01*
X5186730Y-12779436D02*
X5196253Y-12788960D01*
X5196253Y-12788960D02*
X5215301Y-12798484D01*
X5215301Y-12798484D02*
X5253396Y-12798484D01*
X5253396Y-12798484D02*
X5272444Y-12788960D01*
X5272444Y-12788960D02*
X5281968Y-12779436D01*
X5281968Y-12779436D02*
X5291491Y-12760388D01*
X5291491Y-12760388D02*
X5291491Y-12722293D01*
X5291491Y-12722293D02*
X5281968Y-12703246D01*
X5281968Y-12703246D02*
X5272444Y-12693722D01*
X5272444Y-12693722D02*
X5253396Y-12684198D01*
X5358158Y-12598484D02*
X5481968Y-12598484D01*
X5481968Y-12598484D02*
X5415301Y-12674674D01*
X5415301Y-12674674D02*
X5443872Y-12674674D01*
X5443872Y-12674674D02*
X5462920Y-12684198D01*
X5462920Y-12684198D02*
X5472444Y-12693722D01*
X5472444Y-12693722D02*
X5481968Y-12712769D01*
X5481968Y-12712769D02*
X5481968Y-12760388D01*
X5481968Y-12760388D02*
X5472444Y-12779436D01*
X5472444Y-12779436D02*
X5462920Y-12788960D01*
X5462920Y-12788960D02*
X5443872Y-12798484D01*
X5443872Y-12798484D02*
X5386730Y-12798484D01*
X5386730Y-12798484D02*
X5367682Y-12788960D01*
X5367682Y-12788960D02*
X5358158Y-12779436D01*
X5720063Y-12798484D02*
X5720063Y-12598484D01*
X5805777Y-12798484D02*
X5805777Y-12693722D01*
X5805777Y-12693722D02*
X5796253Y-12674674D01*
X5796253Y-12674674D02*
X5777206Y-12665150D01*
X5777206Y-12665150D02*
X5748634Y-12665150D01*
X5748634Y-12665150D02*
X5729587Y-12674674D01*
X5729587Y-12674674D02*
X5720063Y-12684198D01*
X5929587Y-12798484D02*
X5910539Y-12788960D01*
X5910539Y-12788960D02*
X5901015Y-12779436D01*
X5901015Y-12779436D02*
X5891491Y-12760388D01*
X5891491Y-12760388D02*
X5891491Y-12703246D01*
X5891491Y-12703246D02*
X5901015Y-12684198D01*
X5901015Y-12684198D02*
X5910539Y-12674674D01*
X5910539Y-12674674D02*
X5929587Y-12665150D01*
X5929587Y-12665150D02*
X5958158Y-12665150D01*
X5958158Y-12665150D02*
X5977206Y-12674674D01*
X5977206Y-12674674D02*
X5986730Y-12684198D01*
X5986730Y-12684198D02*
X5996253Y-12703246D01*
X5996253Y-12703246D02*
X5996253Y-12760388D01*
X5996253Y-12760388D02*
X5986730Y-12779436D01*
X5986730Y-12779436D02*
X5977206Y-12788960D01*
X5977206Y-12788960D02*
X5958158Y-12798484D01*
X5958158Y-12798484D02*
X5929587Y-12798484D01*
X6110539Y-12798484D02*
X6091491Y-12788960D01*
X6091491Y-12788960D02*
X6081968Y-12769912D01*
X6081968Y-12769912D02*
X6081968Y-12598484D01*
X6262920Y-12788960D02*
X6243872Y-12798484D01*
X6243872Y-12798484D02*
X6205777Y-12798484D01*
X6205777Y-12798484D02*
X6186730Y-12788960D01*
X6186730Y-12788960D02*
X6177206Y-12769912D01*
X6177206Y-12769912D02*
X6177206Y-12693722D01*
X6177206Y-12693722D02*
X6186730Y-12674674D01*
X6186730Y-12674674D02*
X6205777Y-12665150D01*
X6205777Y-12665150D02*
X6243872Y-12665150D01*
X6243872Y-12665150D02*
X6262920Y-12674674D01*
X6262920Y-12674674D02*
X6272444Y-12693722D01*
X6272444Y-12693722D02*
X6272444Y-12712769D01*
X6272444Y-12712769D02*
X6177206Y-12731817D01*
X6348634Y-12788960D02*
X6367682Y-12798484D01*
X6367682Y-12798484D02*
X6405777Y-12798484D01*
X6405777Y-12798484D02*
X6424825Y-12788960D01*
X6424825Y-12788960D02*
X6434349Y-12769912D01*
X6434349Y-12769912D02*
X6434349Y-12760388D01*
X6434349Y-12760388D02*
X6424825Y-12741341D01*
X6424825Y-12741341D02*
X6405777Y-12731817D01*
X6405777Y-12731817D02*
X6377206Y-12731817D01*
X6377206Y-12731817D02*
X6358158Y-12722293D01*
X6358158Y-12722293D02*
X6348634Y-12703246D01*
X6348634Y-12703246D02*
X6348634Y-12693722D01*
X6348634Y-12693722D02*
X6358158Y-12674674D01*
X6358158Y-12674674D02*
X6377206Y-12665150D01*
X6377206Y-12665150D02*
X6405777Y-12665150D01*
X6405777Y-12665150D02*
X6424825Y-12674674D01*
X6501015Y-12874674D02*
X6510539Y-12865150D01*
X6510539Y-12865150D02*
X6529587Y-12836579D01*
X6529587Y-12836579D02*
X6539111Y-12817531D01*
X6539111Y-12817531D02*
X6548634Y-12788960D01*
X6548634Y-12788960D02*
X6558158Y-12741341D01*
X6558158Y-12741341D02*
X6558158Y-12703246D01*
X6558158Y-12703246D02*
X6548634Y-12655627D01*
X6548634Y-12655627D02*
X6539111Y-12627055D01*
X6539111Y-12627055D02*
X6529587Y-12608008D01*
X6529587Y-12608008D02*
X6510539Y-12579436D01*
X6510539Y-12579436D02*
X6501015Y-12569912D01*
D12*
X1294000Y-13022000D02*
X1345000Y-12971000D01*
X1294000Y-12920000D01*
X1243000Y-12971000D01*
X1294000Y-13022000D01*
D11*
X1710539Y-13062484D02*
X1596253Y-13062484D01*
X1653396Y-13062484D02*
X1653396Y-12862484D01*
X1653396Y-12862484D02*
X1634348Y-12891055D01*
X1634348Y-12891055D02*
X1615301Y-12910103D01*
X1615301Y-12910103D02*
X1596253Y-12919627D01*
X1796253Y-13043436D02*
X1805777Y-13052960D01*
X1805777Y-13052960D02*
X1796253Y-13062484D01*
X1796253Y-13062484D02*
X1786729Y-13052960D01*
X1786729Y-13052960D02*
X1796253Y-13043436D01*
X1796253Y-13043436D02*
X1796253Y-13062484D01*
X1929586Y-12862484D02*
X1948634Y-12862484D01*
X1948634Y-12862484D02*
X1967682Y-12872008D01*
X1967682Y-12872008D02*
X1977205Y-12881531D01*
X1977205Y-12881531D02*
X1986729Y-12900579D01*
X1986729Y-12900579D02*
X1996253Y-12938674D01*
X1996253Y-12938674D02*
X1996253Y-12986293D01*
X1996253Y-12986293D02*
X1986729Y-13024388D01*
X1986729Y-13024388D02*
X1977205Y-13043436D01*
X1977205Y-13043436D02*
X1967682Y-13052960D01*
X1967682Y-13052960D02*
X1948634Y-13062484D01*
X1948634Y-13062484D02*
X1929586Y-13062484D01*
X1929586Y-13062484D02*
X1910539Y-13052960D01*
X1910539Y-13052960D02*
X1901015Y-13043436D01*
X1901015Y-13043436D02*
X1891491Y-13024388D01*
X1891491Y-13024388D02*
X1881967Y-12986293D01*
X1881967Y-12986293D02*
X1881967Y-12938674D01*
X1881967Y-12938674D02*
X1891491Y-12900579D01*
X1891491Y-12900579D02*
X1901015Y-12881531D01*
X1901015Y-12881531D02*
X1910539Y-12872008D01*
X1910539Y-12872008D02*
X1929586Y-12862484D01*
X2072443Y-12881531D02*
X2081967Y-12872008D01*
X2081967Y-12872008D02*
X2101015Y-12862484D01*
X2101015Y-12862484D02*
X2148634Y-12862484D01*
X2148634Y-12862484D02*
X2167682Y-12872008D01*
X2167682Y-12872008D02*
X2177205Y-12881531D01*
X2177205Y-12881531D02*
X2186729Y-12900579D01*
X2186729Y-12900579D02*
X2186729Y-12919627D01*
X2186729Y-12919627D02*
X2177205Y-12948198D01*
X2177205Y-12948198D02*
X2062920Y-13062484D01*
X2062920Y-13062484D02*
X2186729Y-13062484D01*
X2310539Y-12862484D02*
X2329586Y-12862484D01*
X2329586Y-12862484D02*
X2348634Y-12872008D01*
X2348634Y-12872008D02*
X2358158Y-12881531D01*
X2358158Y-12881531D02*
X2367682Y-12900579D01*
X2367682Y-12900579D02*
X2377205Y-12938674D01*
X2377205Y-12938674D02*
X2377205Y-12986293D01*
X2377205Y-12986293D02*
X2367682Y-13024388D01*
X2367682Y-13024388D02*
X2358158Y-13043436D01*
X2358158Y-13043436D02*
X2348634Y-13052960D01*
X2348634Y-13052960D02*
X2329586Y-13062484D01*
X2329586Y-13062484D02*
X2310539Y-13062484D01*
X2310539Y-13062484D02*
X2291491Y-13052960D01*
X2291491Y-13052960D02*
X2281967Y-13043436D01*
X2281967Y-13043436D02*
X2272444Y-13024388D01*
X2272444Y-13024388D02*
X2262920Y-12986293D01*
X2262920Y-12986293D02*
X2262920Y-12938674D01*
X2262920Y-12938674D02*
X2272444Y-12900579D01*
X2272444Y-12900579D02*
X2281967Y-12881531D01*
X2281967Y-12881531D02*
X2291491Y-12872008D01*
X2291491Y-12872008D02*
X2310539Y-12862484D01*
X2462920Y-13062484D02*
X2462920Y-12929150D01*
X2462920Y-12948198D02*
X2472444Y-12938674D01*
X2472444Y-12938674D02*
X2491491Y-12929150D01*
X2491491Y-12929150D02*
X2520063Y-12929150D01*
X2520063Y-12929150D02*
X2539110Y-12938674D01*
X2539110Y-12938674D02*
X2548634Y-12957722D01*
X2548634Y-12957722D02*
X2548634Y-13062484D01*
X2548634Y-12957722D02*
X2558158Y-12938674D01*
X2558158Y-12938674D02*
X2577205Y-12929150D01*
X2577205Y-12929150D02*
X2605777Y-12929150D01*
X2605777Y-12929150D02*
X2624825Y-12938674D01*
X2624825Y-12938674D02*
X2634348Y-12957722D01*
X2634348Y-12957722D02*
X2634348Y-13062484D01*
X2729586Y-13062484D02*
X2729586Y-12929150D01*
X2729586Y-12948198D02*
X2739110Y-12938674D01*
X2739110Y-12938674D02*
X2758158Y-12929150D01*
X2758158Y-12929150D02*
X2786729Y-12929150D01*
X2786729Y-12929150D02*
X2805777Y-12938674D01*
X2805777Y-12938674D02*
X2815301Y-12957722D01*
X2815301Y-12957722D02*
X2815301Y-13062484D01*
X2815301Y-12957722D02*
X2824824Y-12938674D01*
X2824824Y-12938674D02*
X2843872Y-12929150D01*
X2843872Y-12929150D02*
X2872443Y-12929150D01*
X2872443Y-12929150D02*
X2891491Y-12938674D01*
X2891491Y-12938674D02*
X2901015Y-12957722D01*
X2901015Y-12957722D02*
X2901015Y-13062484D01*
X3291491Y-12852960D02*
X3120063Y-13110103D01*
X3548634Y-12862484D02*
X3567682Y-12862484D01*
X3567682Y-12862484D02*
X3586729Y-12872008D01*
X3586729Y-12872008D02*
X3596253Y-12881531D01*
X3596253Y-12881531D02*
X3605777Y-12900579D01*
X3605777Y-12900579D02*
X3615301Y-12938674D01*
X3615301Y-12938674D02*
X3615301Y-12986293D01*
X3615301Y-12986293D02*
X3605777Y-13024388D01*
X3605777Y-13024388D02*
X3596253Y-13043436D01*
X3596253Y-13043436D02*
X3586729Y-13052960D01*
X3586729Y-13052960D02*
X3567682Y-13062484D01*
X3567682Y-13062484D02*
X3548634Y-13062484D01*
X3548634Y-13062484D02*
X3529586Y-13052960D01*
X3529586Y-13052960D02*
X3520063Y-13043436D01*
X3520063Y-13043436D02*
X3510539Y-13024388D01*
X3510539Y-13024388D02*
X3501015Y-12986293D01*
X3501015Y-12986293D02*
X3501015Y-12938674D01*
X3501015Y-12938674D02*
X3510539Y-12900579D01*
X3510539Y-12900579D02*
X3520063Y-12881531D01*
X3520063Y-12881531D02*
X3529586Y-12872008D01*
X3529586Y-12872008D02*
X3548634Y-12862484D01*
X3701015Y-13043436D02*
X3710539Y-13052960D01*
X3710539Y-13052960D02*
X3701015Y-13062484D01*
X3701015Y-13062484D02*
X3691491Y-13052960D01*
X3691491Y-13052960D02*
X3701015Y-13043436D01*
X3701015Y-13043436D02*
X3701015Y-13062484D01*
X3834348Y-12862484D02*
X3853396Y-12862484D01*
X3853396Y-12862484D02*
X3872444Y-12872008D01*
X3872444Y-12872008D02*
X3881967Y-12881531D01*
X3881967Y-12881531D02*
X3891491Y-12900579D01*
X3891491Y-12900579D02*
X3901015Y-12938674D01*
X3901015Y-12938674D02*
X3901015Y-12986293D01*
X3901015Y-12986293D02*
X3891491Y-13024388D01*
X3891491Y-13024388D02*
X3881967Y-13043436D01*
X3881967Y-13043436D02*
X3872444Y-13052960D01*
X3872444Y-13052960D02*
X3853396Y-13062484D01*
X3853396Y-13062484D02*
X3834348Y-13062484D01*
X3834348Y-13062484D02*
X3815301Y-13052960D01*
X3815301Y-13052960D02*
X3805777Y-13043436D01*
X3805777Y-13043436D02*
X3796253Y-13024388D01*
X3796253Y-13024388D02*
X3786729Y-12986293D01*
X3786729Y-12986293D02*
X3786729Y-12938674D01*
X3786729Y-12938674D02*
X3796253Y-12900579D01*
X3796253Y-12900579D02*
X3805777Y-12881531D01*
X3805777Y-12881531D02*
X3815301Y-12872008D01*
X3815301Y-12872008D02*
X3834348Y-12862484D01*
X4072444Y-12929150D02*
X4072444Y-13062484D01*
X4024825Y-12852960D02*
X3977206Y-12995817D01*
X3977206Y-12995817D02*
X4101015Y-12995817D01*
X4215301Y-12862484D02*
X4234349Y-12862484D01*
X4234349Y-12862484D02*
X4253396Y-12872008D01*
X4253396Y-12872008D02*
X4262920Y-12881531D01*
X4262920Y-12881531D02*
X4272444Y-12900579D01*
X4272444Y-12900579D02*
X4281968Y-12938674D01*
X4281968Y-12938674D02*
X4281968Y-12986293D01*
X4281968Y-12986293D02*
X4272444Y-13024388D01*
X4272444Y-13024388D02*
X4262920Y-13043436D01*
X4262920Y-13043436D02*
X4253396Y-13052960D01*
X4253396Y-13052960D02*
X4234349Y-13062484D01*
X4234349Y-13062484D02*
X4215301Y-13062484D01*
X4215301Y-13062484D02*
X4196253Y-13052960D01*
X4196253Y-13052960D02*
X4186729Y-13043436D01*
X4186729Y-13043436D02*
X4177206Y-13024388D01*
X4177206Y-13024388D02*
X4167682Y-12986293D01*
X4167682Y-12986293D02*
X4167682Y-12938674D01*
X4167682Y-12938674D02*
X4177206Y-12900579D01*
X4177206Y-12900579D02*
X4186729Y-12881531D01*
X4186729Y-12881531D02*
X4196253Y-12872008D01*
X4196253Y-12872008D02*
X4215301Y-12862484D01*
X4358158Y-12881531D02*
X4367682Y-12872008D01*
X4367682Y-12872008D02*
X4386729Y-12862484D01*
X4386729Y-12862484D02*
X4434349Y-12862484D01*
X4434349Y-12862484D02*
X4453396Y-12872008D01*
X4453396Y-12872008D02*
X4462920Y-12881531D01*
X4462920Y-12881531D02*
X4472444Y-12900579D01*
X4472444Y-12900579D02*
X4472444Y-12919627D01*
X4472444Y-12919627D02*
X4462920Y-12948198D01*
X4462920Y-12948198D02*
X4348634Y-13062484D01*
X4348634Y-13062484D02*
X4472444Y-13062484D01*
X4548634Y-12862484D02*
X4548634Y-12900579D01*
X4624825Y-12862484D02*
X4624825Y-12900579D01*
X4920063Y-13138674D02*
X4910539Y-13129150D01*
X4910539Y-13129150D02*
X4891491Y-13100579D01*
X4891491Y-13100579D02*
X4881968Y-13081531D01*
X4881968Y-13081531D02*
X4872444Y-13052960D01*
X4872444Y-13052960D02*
X4862920Y-13005341D01*
X4862920Y-13005341D02*
X4862920Y-12967246D01*
X4862920Y-12967246D02*
X4872444Y-12919627D01*
X4872444Y-12919627D02*
X4881968Y-12891055D01*
X4881968Y-12891055D02*
X4891491Y-12872008D01*
X4891491Y-12872008D02*
X4910539Y-12843436D01*
X4910539Y-12843436D02*
X4920063Y-12833912D01*
X4977206Y-12862484D02*
X5101015Y-12862484D01*
X5101015Y-12862484D02*
X5034349Y-12938674D01*
X5034349Y-12938674D02*
X5062920Y-12938674D01*
X5062920Y-12938674D02*
X5081968Y-12948198D01*
X5081968Y-12948198D02*
X5091491Y-12957722D01*
X5091491Y-12957722D02*
X5101015Y-12976769D01*
X5101015Y-12976769D02*
X5101015Y-13024388D01*
X5101015Y-13024388D02*
X5091491Y-13043436D01*
X5091491Y-13043436D02*
X5081968Y-13052960D01*
X5081968Y-13052960D02*
X5062920Y-13062484D01*
X5062920Y-13062484D02*
X5005777Y-13062484D01*
X5005777Y-13062484D02*
X4986730Y-13052960D01*
X4986730Y-13052960D02*
X4977206Y-13043436D01*
X5224825Y-12862484D02*
X5243872Y-12862484D01*
X5243872Y-12862484D02*
X5262920Y-12872008D01*
X5262920Y-12872008D02*
X5272444Y-12881531D01*
X5272444Y-12881531D02*
X5281968Y-12900579D01*
X5281968Y-12900579D02*
X5291491Y-12938674D01*
X5291491Y-12938674D02*
X5291491Y-12986293D01*
X5291491Y-12986293D02*
X5281968Y-13024388D01*
X5281968Y-13024388D02*
X5272444Y-13043436D01*
X5272444Y-13043436D02*
X5262920Y-13052960D01*
X5262920Y-13052960D02*
X5243872Y-13062484D01*
X5243872Y-13062484D02*
X5224825Y-13062484D01*
X5224825Y-13062484D02*
X5205777Y-13052960D01*
X5205777Y-13052960D02*
X5196253Y-13043436D01*
X5196253Y-13043436D02*
X5186730Y-13024388D01*
X5186730Y-13024388D02*
X5177206Y-12986293D01*
X5177206Y-12986293D02*
X5177206Y-12938674D01*
X5177206Y-12938674D02*
X5186730Y-12900579D01*
X5186730Y-12900579D02*
X5196253Y-12881531D01*
X5196253Y-12881531D02*
X5205777Y-12872008D01*
X5205777Y-12872008D02*
X5224825Y-12862484D01*
X5529587Y-13062484D02*
X5529587Y-12862484D01*
X5615301Y-13062484D02*
X5615301Y-12957722D01*
X5615301Y-12957722D02*
X5605777Y-12938674D01*
X5605777Y-12938674D02*
X5586730Y-12929150D01*
X5586730Y-12929150D02*
X5558158Y-12929150D01*
X5558158Y-12929150D02*
X5539111Y-12938674D01*
X5539111Y-12938674D02*
X5529587Y-12948198D01*
X5739110Y-13062484D02*
X5720063Y-13052960D01*
X5720063Y-13052960D02*
X5710539Y-13043436D01*
X5710539Y-13043436D02*
X5701015Y-13024388D01*
X5701015Y-13024388D02*
X5701015Y-12967246D01*
X5701015Y-12967246D02*
X5710539Y-12948198D01*
X5710539Y-12948198D02*
X5720063Y-12938674D01*
X5720063Y-12938674D02*
X5739110Y-12929150D01*
X5739110Y-12929150D02*
X5767682Y-12929150D01*
X5767682Y-12929150D02*
X5786730Y-12938674D01*
X5786730Y-12938674D02*
X5796253Y-12948198D01*
X5796253Y-12948198D02*
X5805777Y-12967246D01*
X5805777Y-12967246D02*
X5805777Y-13024388D01*
X5805777Y-13024388D02*
X5796253Y-13043436D01*
X5796253Y-13043436D02*
X5786730Y-13052960D01*
X5786730Y-13052960D02*
X5767682Y-13062484D01*
X5767682Y-13062484D02*
X5739110Y-13062484D01*
X5920063Y-13062484D02*
X5901015Y-13052960D01*
X5901015Y-13052960D02*
X5891491Y-13033912D01*
X5891491Y-13033912D02*
X5891491Y-12862484D01*
X6072444Y-13052960D02*
X6053396Y-13062484D01*
X6053396Y-13062484D02*
X6015301Y-13062484D01*
X6015301Y-13062484D02*
X5996253Y-13052960D01*
X5996253Y-13052960D02*
X5986730Y-13033912D01*
X5986730Y-13033912D02*
X5986730Y-12957722D01*
X5986730Y-12957722D02*
X5996253Y-12938674D01*
X5996253Y-12938674D02*
X6015301Y-12929150D01*
X6015301Y-12929150D02*
X6053396Y-12929150D01*
X6053396Y-12929150D02*
X6072444Y-12938674D01*
X6072444Y-12938674D02*
X6081968Y-12957722D01*
X6081968Y-12957722D02*
X6081968Y-12976769D01*
X6081968Y-12976769D02*
X5986730Y-12995817D01*
X6158158Y-13052960D02*
X6177206Y-13062484D01*
X6177206Y-13062484D02*
X6215301Y-13062484D01*
X6215301Y-13062484D02*
X6234349Y-13052960D01*
X6234349Y-13052960D02*
X6243872Y-13033912D01*
X6243872Y-13033912D02*
X6243872Y-13024388D01*
X6243872Y-13024388D02*
X6234349Y-13005341D01*
X6234349Y-13005341D02*
X6215301Y-12995817D01*
X6215301Y-12995817D02*
X6186730Y-12995817D01*
X6186730Y-12995817D02*
X6167682Y-12986293D01*
X6167682Y-12986293D02*
X6158158Y-12967246D01*
X6158158Y-12967246D02*
X6158158Y-12957722D01*
X6158158Y-12957722D02*
X6167682Y-12938674D01*
X6167682Y-12938674D02*
X6186730Y-12929150D01*
X6186730Y-12929150D02*
X6215301Y-12929150D01*
X6215301Y-12929150D02*
X6234349Y-12938674D01*
X6310539Y-13138674D02*
X6320063Y-13129150D01*
X6320063Y-13129150D02*
X6339111Y-13100579D01*
X6339111Y-13100579D02*
X6348634Y-13081531D01*
X6348634Y-13081531D02*
X6358158Y-13052960D01*
X6358158Y-13052960D02*
X6367682Y-13005341D01*
X6367682Y-13005341D02*
X6367682Y-12967246D01*
X6367682Y-12967246D02*
X6358158Y-12919627D01*
X6358158Y-12919627D02*
X6348634Y-12891055D01*
X6348634Y-12891055D02*
X6339111Y-12872008D01*
X6339111Y-12872008D02*
X6320063Y-12843436D01*
X6320063Y-12843436D02*
X6310539Y-12833912D01*
D13*
X1215000Y-13170000D02*
X1345000Y-13300000D01*
X1345000Y-13170000D02*
X1215000Y-13300000D01*
X1345000Y-13235000D02*
G75*
G02*
X1215000Y-13235000I-65000J0D01*
G01*
X1215000Y-13235000D02*
G75*
G02*
X1345000Y-13235000I65000J0D01*
G01*
D11*
X1710539Y-13326484D02*
X1596253Y-13326484D01*
X1653396Y-13326484D02*
X1653396Y-13126484D01*
X1653396Y-13126484D02*
X1634348Y-13155055D01*
X1634348Y-13155055D02*
X1615301Y-13174103D01*
X1615301Y-13174103D02*
X1596253Y-13183627D01*
X1796253Y-13307436D02*
X1805777Y-13316960D01*
X1805777Y-13316960D02*
X1796253Y-13326484D01*
X1796253Y-13326484D02*
X1786729Y-13316960D01*
X1786729Y-13316960D02*
X1796253Y-13307436D01*
X1796253Y-13307436D02*
X1796253Y-13326484D01*
X1872443Y-13126484D02*
X1996253Y-13126484D01*
X1996253Y-13126484D02*
X1929586Y-13202674D01*
X1929586Y-13202674D02*
X1958158Y-13202674D01*
X1958158Y-13202674D02*
X1977205Y-13212198D01*
X1977205Y-13212198D02*
X1986729Y-13221722D01*
X1986729Y-13221722D02*
X1996253Y-13240769D01*
X1996253Y-13240769D02*
X1996253Y-13288388D01*
X1996253Y-13288388D02*
X1986729Y-13307436D01*
X1986729Y-13307436D02*
X1977205Y-13316960D01*
X1977205Y-13316960D02*
X1958158Y-13326484D01*
X1958158Y-13326484D02*
X1901015Y-13326484D01*
X1901015Y-13326484D02*
X1881967Y-13316960D01*
X1881967Y-13316960D02*
X1872443Y-13307436D01*
X2120063Y-13126484D02*
X2139110Y-13126484D01*
X2139110Y-13126484D02*
X2158158Y-13136008D01*
X2158158Y-13136008D02*
X2167682Y-13145531D01*
X2167682Y-13145531D02*
X2177205Y-13164579D01*
X2177205Y-13164579D02*
X2186729Y-13202674D01*
X2186729Y-13202674D02*
X2186729Y-13250293D01*
X2186729Y-13250293D02*
X2177205Y-13288388D01*
X2177205Y-13288388D02*
X2167682Y-13307436D01*
X2167682Y-13307436D02*
X2158158Y-13316960D01*
X2158158Y-13316960D02*
X2139110Y-13326484D01*
X2139110Y-13326484D02*
X2120063Y-13326484D01*
X2120063Y-13326484D02*
X2101015Y-13316960D01*
X2101015Y-13316960D02*
X2091491Y-13307436D01*
X2091491Y-13307436D02*
X2081967Y-13288388D01*
X2081967Y-13288388D02*
X2072443Y-13250293D01*
X2072443Y-13250293D02*
X2072443Y-13202674D01*
X2072443Y-13202674D02*
X2081967Y-13164579D01*
X2081967Y-13164579D02*
X2091491Y-13145531D01*
X2091491Y-13145531D02*
X2101015Y-13136008D01*
X2101015Y-13136008D02*
X2120063Y-13126484D01*
X2310539Y-13126484D02*
X2329586Y-13126484D01*
X2329586Y-13126484D02*
X2348634Y-13136008D01*
X2348634Y-13136008D02*
X2358158Y-13145531D01*
X2358158Y-13145531D02*
X2367682Y-13164579D01*
X2367682Y-13164579D02*
X2377205Y-13202674D01*
X2377205Y-13202674D02*
X2377205Y-13250293D01*
X2377205Y-13250293D02*
X2367682Y-13288388D01*
X2367682Y-13288388D02*
X2358158Y-13307436D01*
X2358158Y-13307436D02*
X2348634Y-13316960D01*
X2348634Y-13316960D02*
X2329586Y-13326484D01*
X2329586Y-13326484D02*
X2310539Y-13326484D01*
X2310539Y-13326484D02*
X2291491Y-13316960D01*
X2291491Y-13316960D02*
X2281967Y-13307436D01*
X2281967Y-13307436D02*
X2272444Y-13288388D01*
X2272444Y-13288388D02*
X2262920Y-13250293D01*
X2262920Y-13250293D02*
X2262920Y-13202674D01*
X2262920Y-13202674D02*
X2272444Y-13164579D01*
X2272444Y-13164579D02*
X2281967Y-13145531D01*
X2281967Y-13145531D02*
X2291491Y-13136008D01*
X2291491Y-13136008D02*
X2310539Y-13126484D01*
X2462920Y-13326484D02*
X2462920Y-13193150D01*
X2462920Y-13212198D02*
X2472444Y-13202674D01*
X2472444Y-13202674D02*
X2491491Y-13193150D01*
X2491491Y-13193150D02*
X2520063Y-13193150D01*
X2520063Y-13193150D02*
X2539110Y-13202674D01*
X2539110Y-13202674D02*
X2548634Y-13221722D01*
X2548634Y-13221722D02*
X2548634Y-13326484D01*
X2548634Y-13221722D02*
X2558158Y-13202674D01*
X2558158Y-13202674D02*
X2577205Y-13193150D01*
X2577205Y-13193150D02*
X2605777Y-13193150D01*
X2605777Y-13193150D02*
X2624825Y-13202674D01*
X2624825Y-13202674D02*
X2634348Y-13221722D01*
X2634348Y-13221722D02*
X2634348Y-13326484D01*
X2729586Y-13326484D02*
X2729586Y-13193150D01*
X2729586Y-13212198D02*
X2739110Y-13202674D01*
X2739110Y-13202674D02*
X2758158Y-13193150D01*
X2758158Y-13193150D02*
X2786729Y-13193150D01*
X2786729Y-13193150D02*
X2805777Y-13202674D01*
X2805777Y-13202674D02*
X2815301Y-13221722D01*
X2815301Y-13221722D02*
X2815301Y-13326484D01*
X2815301Y-13221722D02*
X2824824Y-13202674D01*
X2824824Y-13202674D02*
X2843872Y-13193150D01*
X2843872Y-13193150D02*
X2872443Y-13193150D01*
X2872443Y-13193150D02*
X2891491Y-13202674D01*
X2891491Y-13202674D02*
X2901015Y-13221722D01*
X2901015Y-13221722D02*
X2901015Y-13326484D01*
X3291491Y-13116960D02*
X3120063Y-13374103D01*
X3548634Y-13126484D02*
X3567682Y-13126484D01*
X3567682Y-13126484D02*
X3586729Y-13136008D01*
X3586729Y-13136008D02*
X3596253Y-13145531D01*
X3596253Y-13145531D02*
X3605777Y-13164579D01*
X3605777Y-13164579D02*
X3615301Y-13202674D01*
X3615301Y-13202674D02*
X3615301Y-13250293D01*
X3615301Y-13250293D02*
X3605777Y-13288388D01*
X3605777Y-13288388D02*
X3596253Y-13307436D01*
X3596253Y-13307436D02*
X3586729Y-13316960D01*
X3586729Y-13316960D02*
X3567682Y-13326484D01*
X3567682Y-13326484D02*
X3548634Y-13326484D01*
X3548634Y-13326484D02*
X3529586Y-13316960D01*
X3529586Y-13316960D02*
X3520063Y-13307436D01*
X3520063Y-13307436D02*
X3510539Y-13288388D01*
X3510539Y-13288388D02*
X3501015Y-13250293D01*
X3501015Y-13250293D02*
X3501015Y-13202674D01*
X3501015Y-13202674D02*
X3510539Y-13164579D01*
X3510539Y-13164579D02*
X3520063Y-13145531D01*
X3520063Y-13145531D02*
X3529586Y-13136008D01*
X3529586Y-13136008D02*
X3548634Y-13126484D01*
X3701015Y-13307436D02*
X3710539Y-13316960D01*
X3710539Y-13316960D02*
X3701015Y-13326484D01*
X3701015Y-13326484D02*
X3691491Y-13316960D01*
X3691491Y-13316960D02*
X3701015Y-13307436D01*
X3701015Y-13307436D02*
X3701015Y-13326484D01*
X3834348Y-13126484D02*
X3853396Y-13126484D01*
X3853396Y-13126484D02*
X3872444Y-13136008D01*
X3872444Y-13136008D02*
X3881967Y-13145531D01*
X3881967Y-13145531D02*
X3891491Y-13164579D01*
X3891491Y-13164579D02*
X3901015Y-13202674D01*
X3901015Y-13202674D02*
X3901015Y-13250293D01*
X3901015Y-13250293D02*
X3891491Y-13288388D01*
X3891491Y-13288388D02*
X3881967Y-13307436D01*
X3881967Y-13307436D02*
X3872444Y-13316960D01*
X3872444Y-13316960D02*
X3853396Y-13326484D01*
X3853396Y-13326484D02*
X3834348Y-13326484D01*
X3834348Y-13326484D02*
X3815301Y-13316960D01*
X3815301Y-13316960D02*
X3805777Y-13307436D01*
X3805777Y-13307436D02*
X3796253Y-13288388D01*
X3796253Y-13288388D02*
X3786729Y-13250293D01*
X3786729Y-13250293D02*
X3786729Y-13202674D01*
X3786729Y-13202674D02*
X3796253Y-13164579D01*
X3796253Y-13164579D02*
X3805777Y-13145531D01*
X3805777Y-13145531D02*
X3815301Y-13136008D01*
X3815301Y-13136008D02*
X3834348Y-13126484D01*
X4081967Y-13126484D02*
X3986729Y-13126484D01*
X3986729Y-13126484D02*
X3977206Y-13221722D01*
X3977206Y-13221722D02*
X3986729Y-13212198D01*
X3986729Y-13212198D02*
X4005777Y-13202674D01*
X4005777Y-13202674D02*
X4053396Y-13202674D01*
X4053396Y-13202674D02*
X4072444Y-13212198D01*
X4072444Y-13212198D02*
X4081967Y-13221722D01*
X4081967Y-13221722D02*
X4091491Y-13240769D01*
X4091491Y-13240769D02*
X4091491Y-13288388D01*
X4091491Y-13288388D02*
X4081967Y-13307436D01*
X4081967Y-13307436D02*
X4072444Y-13316960D01*
X4072444Y-13316960D02*
X4053396Y-13326484D01*
X4053396Y-13326484D02*
X4005777Y-13326484D01*
X4005777Y-13326484D02*
X3986729Y-13316960D01*
X3986729Y-13316960D02*
X3977206Y-13307436D01*
X4281968Y-13326484D02*
X4167682Y-13326484D01*
X4224825Y-13326484D02*
X4224825Y-13126484D01*
X4224825Y-13126484D02*
X4205777Y-13155055D01*
X4205777Y-13155055D02*
X4186729Y-13174103D01*
X4186729Y-13174103D02*
X4167682Y-13183627D01*
X4358158Y-13145531D02*
X4367682Y-13136008D01*
X4367682Y-13136008D02*
X4386729Y-13126484D01*
X4386729Y-13126484D02*
X4434349Y-13126484D01*
X4434349Y-13126484D02*
X4453396Y-13136008D01*
X4453396Y-13136008D02*
X4462920Y-13145531D01*
X4462920Y-13145531D02*
X4472444Y-13164579D01*
X4472444Y-13164579D02*
X4472444Y-13183627D01*
X4472444Y-13183627D02*
X4462920Y-13212198D01*
X4462920Y-13212198D02*
X4348634Y-13326484D01*
X4348634Y-13326484D02*
X4472444Y-13326484D01*
X4548634Y-13126484D02*
X4548634Y-13164579D01*
X4624825Y-13126484D02*
X4624825Y-13164579D01*
X4920063Y-13402674D02*
X4910539Y-13393150D01*
X4910539Y-13393150D02*
X4891491Y-13364579D01*
X4891491Y-13364579D02*
X4881968Y-13345531D01*
X4881968Y-13345531D02*
X4872444Y-13316960D01*
X4872444Y-13316960D02*
X4862920Y-13269341D01*
X4862920Y-13269341D02*
X4862920Y-13231246D01*
X4862920Y-13231246D02*
X4872444Y-13183627D01*
X4872444Y-13183627D02*
X4881968Y-13155055D01*
X4881968Y-13155055D02*
X4891491Y-13136008D01*
X4891491Y-13136008D02*
X4910539Y-13107436D01*
X4910539Y-13107436D02*
X4920063Y-13097912D01*
X4986730Y-13145531D02*
X4996253Y-13136008D01*
X4996253Y-13136008D02*
X5015301Y-13126484D01*
X5015301Y-13126484D02*
X5062920Y-13126484D01*
X5062920Y-13126484D02*
X5081968Y-13136008D01*
X5081968Y-13136008D02*
X5091491Y-13145531D01*
X5091491Y-13145531D02*
X5101015Y-13164579D01*
X5101015Y-13164579D02*
X5101015Y-13183627D01*
X5101015Y-13183627D02*
X5091491Y-13212198D01*
X5091491Y-13212198D02*
X4977206Y-13326484D01*
X4977206Y-13326484D02*
X5101015Y-13326484D01*
X5339111Y-13326484D02*
X5339111Y-13126484D01*
X5424825Y-13326484D02*
X5424825Y-13221722D01*
X5424825Y-13221722D02*
X5415301Y-13202674D01*
X5415301Y-13202674D02*
X5396253Y-13193150D01*
X5396253Y-13193150D02*
X5367682Y-13193150D01*
X5367682Y-13193150D02*
X5348634Y-13202674D01*
X5348634Y-13202674D02*
X5339111Y-13212198D01*
X5548634Y-13326484D02*
X5529587Y-13316960D01*
X5529587Y-13316960D02*
X5520063Y-13307436D01*
X5520063Y-13307436D02*
X5510539Y-13288388D01*
X5510539Y-13288388D02*
X5510539Y-13231246D01*
X5510539Y-13231246D02*
X5520063Y-13212198D01*
X5520063Y-13212198D02*
X5529587Y-13202674D01*
X5529587Y-13202674D02*
X5548634Y-13193150D01*
X5548634Y-13193150D02*
X5577206Y-13193150D01*
X5577206Y-13193150D02*
X5596253Y-13202674D01*
X5596253Y-13202674D02*
X5605777Y-13212198D01*
X5605777Y-13212198D02*
X5615301Y-13231246D01*
X5615301Y-13231246D02*
X5615301Y-13288388D01*
X5615301Y-13288388D02*
X5605777Y-13307436D01*
X5605777Y-13307436D02*
X5596253Y-13316960D01*
X5596253Y-13316960D02*
X5577206Y-13326484D01*
X5577206Y-13326484D02*
X5548634Y-13326484D01*
X5729587Y-13326484D02*
X5710539Y-13316960D01*
X5710539Y-13316960D02*
X5701015Y-13297912D01*
X5701015Y-13297912D02*
X5701015Y-13126484D01*
X5881968Y-13316960D02*
X5862920Y-13326484D01*
X5862920Y-13326484D02*
X5824825Y-13326484D01*
X5824825Y-13326484D02*
X5805777Y-13316960D01*
X5805777Y-13316960D02*
X5796253Y-13297912D01*
X5796253Y-13297912D02*
X5796253Y-13221722D01*
X5796253Y-13221722D02*
X5805777Y-13202674D01*
X5805777Y-13202674D02*
X5824825Y-13193150D01*
X5824825Y-13193150D02*
X5862920Y-13193150D01*
X5862920Y-13193150D02*
X5881968Y-13202674D01*
X5881968Y-13202674D02*
X5891491Y-13221722D01*
X5891491Y-13221722D02*
X5891491Y-13240769D01*
X5891491Y-13240769D02*
X5796253Y-13259817D01*
X5967682Y-13316960D02*
X5986730Y-13326484D01*
X5986730Y-13326484D02*
X6024825Y-13326484D01*
X6024825Y-13326484D02*
X6043872Y-13316960D01*
X6043872Y-13316960D02*
X6053396Y-13297912D01*
X6053396Y-13297912D02*
X6053396Y-13288388D01*
X6053396Y-13288388D02*
X6043872Y-13269341D01*
X6043872Y-13269341D02*
X6024825Y-13259817D01*
X6024825Y-13259817D02*
X5996253Y-13259817D01*
X5996253Y-13259817D02*
X5977206Y-13250293D01*
X5977206Y-13250293D02*
X5967682Y-13231246D01*
X5967682Y-13231246D02*
X5967682Y-13221722D01*
X5967682Y-13221722D02*
X5977206Y-13202674D01*
X5977206Y-13202674D02*
X5996253Y-13193150D01*
X5996253Y-13193150D02*
X6024825Y-13193150D01*
X6024825Y-13193150D02*
X6043872Y-13202674D01*
X6120063Y-13402674D02*
X6129587Y-13393150D01*
X6129587Y-13393150D02*
X6148634Y-13364579D01*
X6148634Y-13364579D02*
X6158158Y-13345531D01*
X6158158Y-13345531D02*
X6167682Y-13316960D01*
X6167682Y-13316960D02*
X6177206Y-13269341D01*
X6177206Y-13269341D02*
X6177206Y-13231246D01*
X6177206Y-13231246D02*
X6167682Y-13183627D01*
X6167682Y-13183627D02*
X6158158Y-13155055D01*
X6158158Y-13155055D02*
X6148634Y-13136008D01*
X6148634Y-13136008D02*
X6129587Y-13107436D01*
X6129587Y-13107436D02*
X6120063Y-13097912D01*
X1145000Y-13399000D02*
X1345000Y-13599000D01*
X1345000Y-13399000D02*
X1145000Y-13599000D01*
X1245000Y-13399000D02*
X1245000Y-13599000D01*
X1145000Y-13499000D02*
X1345000Y-13499000D01*
X1596253Y-13409531D02*
X1605777Y-13400008D01*
X1605777Y-13400008D02*
X1624824Y-13390484D01*
X1624824Y-13390484D02*
X1672443Y-13390484D01*
X1672443Y-13390484D02*
X1691491Y-13400008D01*
X1691491Y-13400008D02*
X1701015Y-13409531D01*
X1701015Y-13409531D02*
X1710539Y-13428579D01*
X1710539Y-13428579D02*
X1710539Y-13447627D01*
X1710539Y-13447627D02*
X1701015Y-13476198D01*
X1701015Y-13476198D02*
X1586729Y-13590484D01*
X1586729Y-13590484D02*
X1710539Y-13590484D01*
X1796253Y-13571436D02*
X1805777Y-13580960D01*
X1805777Y-13580960D02*
X1796253Y-13590484D01*
X1796253Y-13590484D02*
X1786729Y-13580960D01*
X1786729Y-13580960D02*
X1796253Y-13571436D01*
X1796253Y-13571436D02*
X1796253Y-13590484D01*
X1986729Y-13390484D02*
X1891491Y-13390484D01*
X1891491Y-13390484D02*
X1881967Y-13485722D01*
X1881967Y-13485722D02*
X1891491Y-13476198D01*
X1891491Y-13476198D02*
X1910539Y-13466674D01*
X1910539Y-13466674D02*
X1958158Y-13466674D01*
X1958158Y-13466674D02*
X1977205Y-13476198D01*
X1977205Y-13476198D02*
X1986729Y-13485722D01*
X1986729Y-13485722D02*
X1996253Y-13504769D01*
X1996253Y-13504769D02*
X1996253Y-13552388D01*
X1996253Y-13552388D02*
X1986729Y-13571436D01*
X1986729Y-13571436D02*
X1977205Y-13580960D01*
X1977205Y-13580960D02*
X1958158Y-13590484D01*
X1958158Y-13590484D02*
X1910539Y-13590484D01*
X1910539Y-13590484D02*
X1891491Y-13580960D01*
X1891491Y-13580960D02*
X1881967Y-13571436D01*
X2120063Y-13390484D02*
X2139110Y-13390484D01*
X2139110Y-13390484D02*
X2158158Y-13400008D01*
X2158158Y-13400008D02*
X2167682Y-13409531D01*
X2167682Y-13409531D02*
X2177205Y-13428579D01*
X2177205Y-13428579D02*
X2186729Y-13466674D01*
X2186729Y-13466674D02*
X2186729Y-13514293D01*
X2186729Y-13514293D02*
X2177205Y-13552388D01*
X2177205Y-13552388D02*
X2167682Y-13571436D01*
X2167682Y-13571436D02*
X2158158Y-13580960D01*
X2158158Y-13580960D02*
X2139110Y-13590484D01*
X2139110Y-13590484D02*
X2120063Y-13590484D01*
X2120063Y-13590484D02*
X2101015Y-13580960D01*
X2101015Y-13580960D02*
X2091491Y-13571436D01*
X2091491Y-13571436D02*
X2081967Y-13552388D01*
X2081967Y-13552388D02*
X2072443Y-13514293D01*
X2072443Y-13514293D02*
X2072443Y-13466674D01*
X2072443Y-13466674D02*
X2081967Y-13428579D01*
X2081967Y-13428579D02*
X2091491Y-13409531D01*
X2091491Y-13409531D02*
X2101015Y-13400008D01*
X2101015Y-13400008D02*
X2120063Y-13390484D01*
X2310539Y-13390484D02*
X2329586Y-13390484D01*
X2329586Y-13390484D02*
X2348634Y-13400008D01*
X2348634Y-13400008D02*
X2358158Y-13409531D01*
X2358158Y-13409531D02*
X2367682Y-13428579D01*
X2367682Y-13428579D02*
X2377205Y-13466674D01*
X2377205Y-13466674D02*
X2377205Y-13514293D01*
X2377205Y-13514293D02*
X2367682Y-13552388D01*
X2367682Y-13552388D02*
X2358158Y-13571436D01*
X2358158Y-13571436D02*
X2348634Y-13580960D01*
X2348634Y-13580960D02*
X2329586Y-13590484D01*
X2329586Y-13590484D02*
X2310539Y-13590484D01*
X2310539Y-13590484D02*
X2291491Y-13580960D01*
X2291491Y-13580960D02*
X2281967Y-13571436D01*
X2281967Y-13571436D02*
X2272444Y-13552388D01*
X2272444Y-13552388D02*
X2262920Y-13514293D01*
X2262920Y-13514293D02*
X2262920Y-13466674D01*
X2262920Y-13466674D02*
X2272444Y-13428579D01*
X2272444Y-13428579D02*
X2281967Y-13409531D01*
X2281967Y-13409531D02*
X2291491Y-13400008D01*
X2291491Y-13400008D02*
X2310539Y-13390484D01*
X2462920Y-13590484D02*
X2462920Y-13457150D01*
X2462920Y-13476198D02*
X2472444Y-13466674D01*
X2472444Y-13466674D02*
X2491491Y-13457150D01*
X2491491Y-13457150D02*
X2520063Y-13457150D01*
X2520063Y-13457150D02*
X2539110Y-13466674D01*
X2539110Y-13466674D02*
X2548634Y-13485722D01*
X2548634Y-13485722D02*
X2548634Y-13590484D01*
X2548634Y-13485722D02*
X2558158Y-13466674D01*
X2558158Y-13466674D02*
X2577205Y-13457150D01*
X2577205Y-13457150D02*
X2605777Y-13457150D01*
X2605777Y-13457150D02*
X2624825Y-13466674D01*
X2624825Y-13466674D02*
X2634348Y-13485722D01*
X2634348Y-13485722D02*
X2634348Y-13590484D01*
X2729586Y-13590484D02*
X2729586Y-13457150D01*
X2729586Y-13476198D02*
X2739110Y-13466674D01*
X2739110Y-13466674D02*
X2758158Y-13457150D01*
X2758158Y-13457150D02*
X2786729Y-13457150D01*
X2786729Y-13457150D02*
X2805777Y-13466674D01*
X2805777Y-13466674D02*
X2815301Y-13485722D01*
X2815301Y-13485722D02*
X2815301Y-13590484D01*
X2815301Y-13485722D02*
X2824824Y-13466674D01*
X2824824Y-13466674D02*
X2843872Y-13457150D01*
X2843872Y-13457150D02*
X2872443Y-13457150D01*
X2872443Y-13457150D02*
X2891491Y-13466674D01*
X2891491Y-13466674D02*
X2901015Y-13485722D01*
X2901015Y-13485722D02*
X2901015Y-13590484D01*
X3291491Y-13380960D02*
X3120063Y-13638103D01*
X3548634Y-13390484D02*
X3567682Y-13390484D01*
X3567682Y-13390484D02*
X3586729Y-13400008D01*
X3586729Y-13400008D02*
X3596253Y-13409531D01*
X3596253Y-13409531D02*
X3605777Y-13428579D01*
X3605777Y-13428579D02*
X3615301Y-13466674D01*
X3615301Y-13466674D02*
X3615301Y-13514293D01*
X3615301Y-13514293D02*
X3605777Y-13552388D01*
X3605777Y-13552388D02*
X3596253Y-13571436D01*
X3596253Y-13571436D02*
X3586729Y-13580960D01*
X3586729Y-13580960D02*
X3567682Y-13590484D01*
X3567682Y-13590484D02*
X3548634Y-13590484D01*
X3548634Y-13590484D02*
X3529586Y-13580960D01*
X3529586Y-13580960D02*
X3520063Y-13571436D01*
X3520063Y-13571436D02*
X3510539Y-13552388D01*
X3510539Y-13552388D02*
X3501015Y-13514293D01*
X3501015Y-13514293D02*
X3501015Y-13466674D01*
X3501015Y-13466674D02*
X3510539Y-13428579D01*
X3510539Y-13428579D02*
X3520063Y-13409531D01*
X3520063Y-13409531D02*
X3529586Y-13400008D01*
X3529586Y-13400008D02*
X3548634Y-13390484D01*
X3701015Y-13571436D02*
X3710539Y-13580960D01*
X3710539Y-13580960D02*
X3701015Y-13590484D01*
X3701015Y-13590484D02*
X3691491Y-13580960D01*
X3691491Y-13580960D02*
X3701015Y-13571436D01*
X3701015Y-13571436D02*
X3701015Y-13590484D01*
X3834348Y-13390484D02*
X3853396Y-13390484D01*
X3853396Y-13390484D02*
X3872444Y-13400008D01*
X3872444Y-13400008D02*
X3881967Y-13409531D01*
X3881967Y-13409531D02*
X3891491Y-13428579D01*
X3891491Y-13428579D02*
X3901015Y-13466674D01*
X3901015Y-13466674D02*
X3901015Y-13514293D01*
X3901015Y-13514293D02*
X3891491Y-13552388D01*
X3891491Y-13552388D02*
X3881967Y-13571436D01*
X3881967Y-13571436D02*
X3872444Y-13580960D01*
X3872444Y-13580960D02*
X3853396Y-13590484D01*
X3853396Y-13590484D02*
X3834348Y-13590484D01*
X3834348Y-13590484D02*
X3815301Y-13580960D01*
X3815301Y-13580960D02*
X3805777Y-13571436D01*
X3805777Y-13571436D02*
X3796253Y-13552388D01*
X3796253Y-13552388D02*
X3786729Y-13514293D01*
X3786729Y-13514293D02*
X3786729Y-13466674D01*
X3786729Y-13466674D02*
X3796253Y-13428579D01*
X3796253Y-13428579D02*
X3805777Y-13409531D01*
X3805777Y-13409531D02*
X3815301Y-13400008D01*
X3815301Y-13400008D02*
X3834348Y-13390484D01*
X3996253Y-13590484D02*
X4034348Y-13590484D01*
X4034348Y-13590484D02*
X4053396Y-13580960D01*
X4053396Y-13580960D02*
X4062920Y-13571436D01*
X4062920Y-13571436D02*
X4081967Y-13542865D01*
X4081967Y-13542865D02*
X4091491Y-13504769D01*
X4091491Y-13504769D02*
X4091491Y-13428579D01*
X4091491Y-13428579D02*
X4081967Y-13409531D01*
X4081967Y-13409531D02*
X4072444Y-13400008D01*
X4072444Y-13400008D02*
X4053396Y-13390484D01*
X4053396Y-13390484D02*
X4015301Y-13390484D01*
X4015301Y-13390484D02*
X3996253Y-13400008D01*
X3996253Y-13400008D02*
X3986729Y-13409531D01*
X3986729Y-13409531D02*
X3977206Y-13428579D01*
X3977206Y-13428579D02*
X3977206Y-13476198D01*
X3977206Y-13476198D02*
X3986729Y-13495246D01*
X3986729Y-13495246D02*
X3996253Y-13504769D01*
X3996253Y-13504769D02*
X4015301Y-13514293D01*
X4015301Y-13514293D02*
X4053396Y-13514293D01*
X4053396Y-13514293D02*
X4072444Y-13504769D01*
X4072444Y-13504769D02*
X4081967Y-13495246D01*
X4081967Y-13495246D02*
X4091491Y-13476198D01*
X4205777Y-13476198D02*
X4186729Y-13466674D01*
X4186729Y-13466674D02*
X4177206Y-13457150D01*
X4177206Y-13457150D02*
X4167682Y-13438103D01*
X4167682Y-13438103D02*
X4167682Y-13428579D01*
X4167682Y-13428579D02*
X4177206Y-13409531D01*
X4177206Y-13409531D02*
X4186729Y-13400008D01*
X4186729Y-13400008D02*
X4205777Y-13390484D01*
X4205777Y-13390484D02*
X4243872Y-13390484D01*
X4243872Y-13390484D02*
X4262920Y-13400008D01*
X4262920Y-13400008D02*
X4272444Y-13409531D01*
X4272444Y-13409531D02*
X4281968Y-13428579D01*
X4281968Y-13428579D02*
X4281968Y-13438103D01*
X4281968Y-13438103D02*
X4272444Y-13457150D01*
X4272444Y-13457150D02*
X4262920Y-13466674D01*
X4262920Y-13466674D02*
X4243872Y-13476198D01*
X4243872Y-13476198D02*
X4205777Y-13476198D01*
X4205777Y-13476198D02*
X4186729Y-13485722D01*
X4186729Y-13485722D02*
X4177206Y-13495246D01*
X4177206Y-13495246D02*
X4167682Y-13514293D01*
X4167682Y-13514293D02*
X4167682Y-13552388D01*
X4167682Y-13552388D02*
X4177206Y-13571436D01*
X4177206Y-13571436D02*
X4186729Y-13580960D01*
X4186729Y-13580960D02*
X4205777Y-13590484D01*
X4205777Y-13590484D02*
X4243872Y-13590484D01*
X4243872Y-13590484D02*
X4262920Y-13580960D01*
X4262920Y-13580960D02*
X4272444Y-13571436D01*
X4272444Y-13571436D02*
X4281968Y-13552388D01*
X4281968Y-13552388D02*
X4281968Y-13514293D01*
X4281968Y-13514293D02*
X4272444Y-13495246D01*
X4272444Y-13495246D02*
X4262920Y-13485722D01*
X4262920Y-13485722D02*
X4243872Y-13476198D01*
X4453396Y-13457150D02*
X4453396Y-13590484D01*
X4405777Y-13380960D02*
X4358158Y-13523817D01*
X4358158Y-13523817D02*
X4481968Y-13523817D01*
X4548634Y-13390484D02*
X4548634Y-13428579D01*
X4624825Y-13390484D02*
X4624825Y-13428579D01*
X4920063Y-13666674D02*
X4910539Y-13657150D01*
X4910539Y-13657150D02*
X4891491Y-13628579D01*
X4891491Y-13628579D02*
X4881968Y-13609531D01*
X4881968Y-13609531D02*
X4872444Y-13580960D01*
X4872444Y-13580960D02*
X4862920Y-13533341D01*
X4862920Y-13533341D02*
X4862920Y-13495246D01*
X4862920Y-13495246D02*
X4872444Y-13447627D01*
X4872444Y-13447627D02*
X4881968Y-13419055D01*
X4881968Y-13419055D02*
X4891491Y-13400008D01*
X4891491Y-13400008D02*
X4910539Y-13371436D01*
X4910539Y-13371436D02*
X4920063Y-13361912D01*
X4986730Y-13409531D02*
X4996253Y-13400008D01*
X4996253Y-13400008D02*
X5015301Y-13390484D01*
X5015301Y-13390484D02*
X5062920Y-13390484D01*
X5062920Y-13390484D02*
X5081968Y-13400008D01*
X5081968Y-13400008D02*
X5091491Y-13409531D01*
X5091491Y-13409531D02*
X5101015Y-13428579D01*
X5101015Y-13428579D02*
X5101015Y-13447627D01*
X5101015Y-13447627D02*
X5091491Y-13476198D01*
X5091491Y-13476198D02*
X4977206Y-13590484D01*
X4977206Y-13590484D02*
X5101015Y-13590484D01*
X5339111Y-13590484D02*
X5339111Y-13390484D01*
X5424825Y-13590484D02*
X5424825Y-13485722D01*
X5424825Y-13485722D02*
X5415301Y-13466674D01*
X5415301Y-13466674D02*
X5396253Y-13457150D01*
X5396253Y-13457150D02*
X5367682Y-13457150D01*
X5367682Y-13457150D02*
X5348634Y-13466674D01*
X5348634Y-13466674D02*
X5339111Y-13476198D01*
X5548634Y-13590484D02*
X5529587Y-13580960D01*
X5529587Y-13580960D02*
X5520063Y-13571436D01*
X5520063Y-13571436D02*
X5510539Y-13552388D01*
X5510539Y-13552388D02*
X5510539Y-13495246D01*
X5510539Y-13495246D02*
X5520063Y-13476198D01*
X5520063Y-13476198D02*
X5529587Y-13466674D01*
X5529587Y-13466674D02*
X5548634Y-13457150D01*
X5548634Y-13457150D02*
X5577206Y-13457150D01*
X5577206Y-13457150D02*
X5596253Y-13466674D01*
X5596253Y-13466674D02*
X5605777Y-13476198D01*
X5605777Y-13476198D02*
X5615301Y-13495246D01*
X5615301Y-13495246D02*
X5615301Y-13552388D01*
X5615301Y-13552388D02*
X5605777Y-13571436D01*
X5605777Y-13571436D02*
X5596253Y-13580960D01*
X5596253Y-13580960D02*
X5577206Y-13590484D01*
X5577206Y-13590484D02*
X5548634Y-13590484D01*
X5729587Y-13590484D02*
X5710539Y-13580960D01*
X5710539Y-13580960D02*
X5701015Y-13561912D01*
X5701015Y-13561912D02*
X5701015Y-13390484D01*
X5881968Y-13580960D02*
X5862920Y-13590484D01*
X5862920Y-13590484D02*
X5824825Y-13590484D01*
X5824825Y-13590484D02*
X5805777Y-13580960D01*
X5805777Y-13580960D02*
X5796253Y-13561912D01*
X5796253Y-13561912D02*
X5796253Y-13485722D01*
X5796253Y-13485722D02*
X5805777Y-13466674D01*
X5805777Y-13466674D02*
X5824825Y-13457150D01*
X5824825Y-13457150D02*
X5862920Y-13457150D01*
X5862920Y-13457150D02*
X5881968Y-13466674D01*
X5881968Y-13466674D02*
X5891491Y-13485722D01*
X5891491Y-13485722D02*
X5891491Y-13504769D01*
X5891491Y-13504769D02*
X5796253Y-13523817D01*
X5967682Y-13580960D02*
X5986730Y-13590484D01*
X5986730Y-13590484D02*
X6024825Y-13590484D01*
X6024825Y-13590484D02*
X6043872Y-13580960D01*
X6043872Y-13580960D02*
X6053396Y-13561912D01*
X6053396Y-13561912D02*
X6053396Y-13552388D01*
X6053396Y-13552388D02*
X6043872Y-13533341D01*
X6043872Y-13533341D02*
X6024825Y-13523817D01*
X6024825Y-13523817D02*
X5996253Y-13523817D01*
X5996253Y-13523817D02*
X5977206Y-13514293D01*
X5977206Y-13514293D02*
X5967682Y-13495246D01*
X5967682Y-13495246D02*
X5967682Y-13485722D01*
X5967682Y-13485722D02*
X5977206Y-13466674D01*
X5977206Y-13466674D02*
X5996253Y-13457150D01*
X5996253Y-13457150D02*
X6024825Y-13457150D01*
X6024825Y-13457150D02*
X6043872Y-13466674D01*
X6120063Y-13666674D02*
X6129587Y-13657150D01*
X6129587Y-13657150D02*
X6148634Y-13628579D01*
X6148634Y-13628579D02*
X6158158Y-13609531D01*
X6158158Y-13609531D02*
X6167682Y-13580960D01*
X6167682Y-13580960D02*
X6177206Y-13533341D01*
X6177206Y-13533341D02*
X6177206Y-13495246D01*
X6177206Y-13495246D02*
X6167682Y-13447627D01*
X6167682Y-13447627D02*
X6158158Y-13419055D01*
X6158158Y-13419055D02*
X6148634Y-13400008D01*
X6148634Y-13400008D02*
X6129587Y-13371436D01*
X6129587Y-13371436D02*
X6120063Y-13361912D01*
M02*
