M48
; DRILL file {KiCad 8.0.3} date 2024-11-19T22:16:24+0100
; FORMAT={-:-/ absolute / inch / decimal}
; #@! TF.CreationDate,2024-11-19T22:16:24+01:00
; #@! TF.GenerationSoftware,Kicad,Pcbnew,8.0.3
; #@! TF.FileFunction,NonPlated,1,2,NPTH
FMAT,2
INCH
; #@! TA.AperFunction,NonPlated,NPTH,ComponentDrill
T1C0.0157
; #@! TA.AperFunction,NonPlated,NPTH,ComponentDrill
T2C0.0472
; #@! TA.AperFunction,NonPlated,NPTH,ComponentDrill
T3C0.1181
%
G90
G05
T2
X0.8402Y-4.1713
X1.48Y-4.1713
X2.137Y-4.1713
T3
X0.9005Y-0.5778
X0.9005Y-2.4262
X1.8655Y-0.5778
X1.8655Y-2.4262
T1
G00X1.01Y-0.5185
M15
G01X1.01Y-0.5815
M16
G05
G00X1.01Y-0.6485
M15
G01X1.01Y-0.7115
M16
G05
G00X1.01Y-0.7658
M15
G01X1.01Y-0.8288
M16
G05
G00X1.0385Y-0.88
M15
G01X1.1015Y-0.88
M16
G05
G00X1.1785Y-0.88
M15
G01X1.2415Y-0.88
M16
G05
G00X1.3185Y-0.88
M15
G01X1.3815Y-0.88
M16
G05
G00X1.4485Y-0.88
M15
G01X1.5115Y-0.88
M16
G05
G00X1.5885Y-0.88
M15
G01X1.6515Y-0.88
M16
G05
G00X1.7085Y-0.88
M15
G01X1.7715Y-0.88
M16
G05
G00X1.77Y-0.5185
M15
G01X1.77Y-0.5815
M16
G05
G00X1.77Y-0.6385
M15
G01X1.77Y-0.7015
M16
G05
G00X1.77Y-0.7585
M15
G01X1.77Y-0.8215
M16
G05
M30
