%TF.GenerationSoftware,KiCad,Pcbnew,8.0.3*%
%TF.CreationDate,2024-11-19T22:25:56+01:00*%
%TF.ProjectId,weerstation-power,77656572-7374-4617-9469-6f6e2d706f77,rev?*%
%TF.SameCoordinates,Original*%
%TF.FileFunction,Drillmap*%
%TF.FilePolarity,Positive*%
%FSLAX45Y45*%
G04 Gerber Fmt 4.5, Leading zero omitted, Abs format (unit mm)*
G04 Created by KiCad (PCBNEW 8.0.3) date 2024-11-19 22:25:56*
%MOMM*%
%LPD*%
G01*
G04 APERTURE LIST*
%ADD10C,0.050000*%
%ADD11C,0.200000*%
%ADD12C,0.100000*%
%ADD13C,0.120000*%
%ADD14C,0.130000*%
%ADD15C,0.160000*%
%ADD16C,0.180000*%
%ADD17C,0.430000*%
G04 APERTURE END LIST*
D10*
X1200000Y-1200000D02*
X11200000Y-1200000D01*
X11200000Y-11200000D01*
X1200000Y-11200000D01*
X1200000Y-1200000D01*
D11*
D12*
X1478600Y-2809560D02*
X1518600Y-2849560D01*
X1518600Y-2809560D02*
X1478600Y-2849560D01*
X1768160Y-4658680D02*
X1808160Y-4698680D01*
X1808160Y-4658680D02*
X1768160Y-4698680D01*
X1808800Y-5288600D02*
X1848800Y-5328600D01*
X1848800Y-5288600D02*
X1808800Y-5328600D01*
X1808800Y-5415600D02*
X1848800Y-5455600D01*
X1848800Y-5415600D02*
X1808800Y-5455600D01*
X1808800Y-5568000D02*
X1848800Y-5608000D01*
X1848800Y-5568000D02*
X1808800Y-5608000D01*
X1808800Y-5745800D02*
X1848800Y-5785800D01*
X1848800Y-5745800D02*
X1808800Y-5785800D01*
X2012000Y-5288600D02*
X2052000Y-5328600D01*
X2052000Y-5288600D02*
X2012000Y-5328600D01*
X2012000Y-5415600D02*
X2052000Y-5455600D01*
X2052000Y-5415600D02*
X2012000Y-5455600D01*
X2012000Y-5568000D02*
X2052000Y-5608000D01*
X2052000Y-5568000D02*
X2012000Y-5608000D01*
X2012000Y-5745800D02*
X2052000Y-5785800D01*
X2052000Y-5745800D02*
X2012000Y-5785800D01*
X2494600Y-5288600D02*
X2534600Y-5328600D01*
X2534600Y-5288600D02*
X2494600Y-5328600D01*
X2494600Y-5441000D02*
X2534600Y-5481000D01*
X2534600Y-5441000D02*
X2494600Y-5481000D01*
X2494600Y-5593400D02*
X2534600Y-5633400D01*
X2534600Y-5593400D02*
X2494600Y-5633400D01*
X2494600Y-5745800D02*
X2534600Y-5785800D01*
X2534600Y-5745800D02*
X2494600Y-5785800D01*
X2530160Y-7920040D02*
X2570160Y-7960040D01*
X2570160Y-7920040D02*
X2530160Y-7960040D01*
X2697800Y-2951800D02*
X2737800Y-2991800D01*
X2737800Y-2951800D02*
X2697800Y-2991800D01*
X2697800Y-5288600D02*
X2737800Y-5328600D01*
X2737800Y-5288600D02*
X2697800Y-5328600D01*
X2697800Y-5441000D02*
X2737800Y-5481000D01*
X2737800Y-5441000D02*
X2697800Y-5481000D01*
X2697800Y-5593400D02*
X2737800Y-5633400D01*
X2737800Y-5593400D02*
X2697800Y-5633400D01*
X2697800Y-5745800D02*
X2737800Y-5785800D01*
X2737800Y-5745800D02*
X2697800Y-5785800D01*
X3129600Y-7701600D02*
X3169600Y-7741600D01*
X3169600Y-7701600D02*
X3129600Y-7741600D01*
X3434400Y-8006400D02*
X3474400Y-8046400D01*
X3474400Y-8006400D02*
X3434400Y-8046400D01*
X3485200Y-1890080D02*
X3525200Y-1930080D01*
X3525200Y-1890080D02*
X3485200Y-1930080D01*
X3993200Y-3078800D02*
X4033200Y-3118800D01*
X4033200Y-3078800D02*
X3993200Y-3118800D01*
X3993200Y-4171000D02*
X4033200Y-4211000D01*
X4033200Y-4171000D02*
X3993200Y-4211000D01*
X4145600Y-5949000D02*
X4185600Y-5989000D01*
X4185600Y-5949000D02*
X4145600Y-5989000D01*
X4145600Y-7295200D02*
X4185600Y-7335200D01*
X4185600Y-7295200D02*
X4145600Y-7335200D01*
X4348800Y-5949000D02*
X4388800Y-5989000D01*
X4388800Y-5949000D02*
X4348800Y-5989000D01*
X4348800Y-7295200D02*
X4388800Y-7335200D01*
X4388800Y-7295200D02*
X4348800Y-7335200D01*
X4526600Y-3078800D02*
X4566600Y-3118800D01*
X4566600Y-3078800D02*
X4526600Y-3118800D01*
X4552000Y-5949000D02*
X4592000Y-5989000D01*
X4592000Y-5949000D02*
X4552000Y-5989000D01*
X4552000Y-7295200D02*
X4592000Y-7335200D01*
X4592000Y-7295200D02*
X4552000Y-7335200D01*
X4729800Y-5949000D02*
X4769800Y-5989000D01*
X4769800Y-5949000D02*
X4729800Y-5989000D01*
X4729800Y-7295200D02*
X4769800Y-7335200D01*
X4769800Y-7295200D02*
X4729800Y-7335200D01*
X4882200Y-5949000D02*
X4922200Y-5989000D01*
X4922200Y-5949000D02*
X4882200Y-5989000D01*
X4882200Y-7295200D02*
X4922200Y-7335200D01*
X4922200Y-7295200D02*
X4882200Y-7335200D01*
X5573080Y-9230680D02*
X5613080Y-9270680D01*
X5613080Y-9230680D02*
X5573080Y-9270680D01*
X5644200Y-3078800D02*
X5684200Y-3118800D01*
X5684200Y-3078800D02*
X5644200Y-3118800D01*
X7696520Y-4719640D02*
X7736520Y-4759640D01*
X7736520Y-4719640D02*
X7696520Y-4759640D01*
X8077520Y-1458280D02*
X8117520Y-1498280D01*
X8117520Y-1458280D02*
X8077520Y-1498280D01*
X8402640Y-4679000D02*
X8442640Y-4719000D01*
X8442640Y-4679000D02*
X8402640Y-4719000D01*
X9682800Y-5471480D02*
X9722800Y-5511480D01*
X9722800Y-5471480D02*
X9682800Y-5511480D01*
X11039160Y-4917760D02*
X11079160Y-4957760D01*
X11079160Y-4917760D02*
X11039160Y-4957760D01*
X3052600Y-7442200D02*
G75*
G02*
X2992600Y-7442200I-30000J0D01*
G01*
X2992600Y-7442200D02*
G75*
G02*
X3052600Y-7442200I30000J0D01*
G01*
X3454400Y-8316600D02*
X3454400Y-8396600D01*
X3414400Y-8356600D02*
X3494400Y-8356600D01*
X5638800Y-6655440D02*
X5638800Y-6735440D01*
X5598800Y-6695440D02*
X5678800Y-6695440D01*
X5831840Y-6655440D02*
X5831840Y-6735440D01*
X5791840Y-6695440D02*
X5871840Y-6695440D01*
X1833588Y-3358588D02*
X1833588Y-3291412D01*
X1766412Y-3291412D01*
X1766412Y-3358588D01*
X1833588Y-3358588D01*
X1833588Y-3608588D02*
X1833588Y-3541412D01*
X1766412Y-3541412D01*
X1766412Y-3608588D01*
X1833588Y-3608588D01*
X1833588Y-3858588D02*
X1833588Y-3791412D01*
X1766412Y-3791412D01*
X1766412Y-3858588D01*
X1833588Y-3858588D01*
X1833588Y-4108588D02*
X1833588Y-4041412D01*
X1766412Y-4041412D01*
X1766412Y-4108588D01*
X1833588Y-4108588D01*
X1833588Y-6233588D02*
X1833588Y-6166412D01*
X1766412Y-6166412D01*
X1766412Y-6233588D01*
X1833588Y-6233588D01*
X1833588Y-6483588D02*
X1833588Y-6416412D01*
X1766412Y-6416412D01*
X1766412Y-6483588D01*
X1833588Y-6483588D01*
X1833588Y-6733588D02*
X1833588Y-6666412D01*
X1766412Y-6666412D01*
X1766412Y-6733588D01*
X1833588Y-6733588D01*
X1833588Y-6983588D02*
X1833588Y-6916412D01*
X1766412Y-6916412D01*
X1766412Y-6983588D01*
X1833588Y-6983588D01*
X4699000Y-4520400D02*
X4749000Y-4470400D01*
X4699000Y-4420400D01*
X4649000Y-4470400D01*
X4699000Y-4520400D01*
X4699000Y-4926800D02*
X4749000Y-4876800D01*
X4699000Y-4826800D01*
X4649000Y-4876800D01*
X4699000Y-4926800D01*
X5105400Y-4520400D02*
X5155400Y-4470400D01*
X5105400Y-4420400D01*
X5055400Y-4470400D01*
X5105400Y-4520400D01*
X5105400Y-4926800D02*
X5155400Y-4876800D01*
X5105400Y-4826800D01*
X5055400Y-4876800D01*
X5105400Y-4926800D01*
X6299200Y-5206200D02*
X6349200Y-5156200D01*
X6299200Y-5106200D01*
X6249200Y-5156200D01*
X6299200Y-5206200D01*
X6299200Y-6806400D02*
X6349200Y-6756400D01*
X6299200Y-6706400D01*
X6249200Y-6756400D01*
X6299200Y-6806400D01*
X6438900Y-8228800D02*
X6488900Y-8178800D01*
X6438900Y-8128800D01*
X6388900Y-8178800D01*
X6438900Y-8228800D01*
X6438900Y-8495500D02*
X6488900Y-8445500D01*
X6438900Y-8395500D01*
X6388900Y-8445500D01*
X6438900Y-8495500D01*
X6718300Y-8241500D02*
X6768300Y-8191500D01*
X6718300Y-8141500D01*
X6668300Y-8191500D01*
X6718300Y-8241500D01*
X3239300Y-3506000D02*
X3339300Y-3606000D01*
X3339300Y-3506000D02*
X3239300Y-3606000D01*
X3339300Y-3556000D02*
G75*
G02*
X3239300Y-3556000I-50000J0D01*
G01*
X3239300Y-3556000D02*
G75*
G02*
X3339300Y-3556000I50000J0D01*
G01*
X3391700Y-7671600D02*
X3491700Y-7771600D01*
X3491700Y-7671600D02*
X3391700Y-7771600D01*
X3491700Y-7721600D02*
G75*
G02*
X3391700Y-7721600I-50000J0D01*
G01*
X3391700Y-7721600D02*
G75*
G02*
X3491700Y-7721600I50000J0D01*
G01*
X3569500Y-3506000D02*
X3669500Y-3606000D01*
X3669500Y-3506000D02*
X3569500Y-3606000D01*
X3669500Y-3556000D02*
G75*
G02*
X3569500Y-3556000I-50000J0D01*
G01*
X3569500Y-3556000D02*
G75*
G02*
X3669500Y-3556000I50000J0D01*
G01*
X3721900Y-7671600D02*
X3821900Y-7771600D01*
X3821900Y-7671600D02*
X3721900Y-7771600D01*
X3821900Y-7721600D02*
G75*
G02*
X3721900Y-7721600I-50000J0D01*
G01*
X3721900Y-7721600D02*
G75*
G02*
X3821900Y-7721600I50000J0D01*
G01*
X5334800Y-4509300D02*
X5434800Y-4609300D01*
X5434800Y-4509300D02*
X5334800Y-4609300D01*
X5434800Y-4559300D02*
G75*
G02*
X5334800Y-4559300I-50000J0D01*
G01*
X5334800Y-4559300D02*
G75*
G02*
X5434800Y-4559300I50000J0D01*
G01*
X5334800Y-4839500D02*
X5434800Y-4939500D01*
X5434800Y-4839500D02*
X5334800Y-4939500D01*
X5434800Y-4889500D02*
G75*
G02*
X5334800Y-4889500I-50000J0D01*
G01*
X5334800Y-4889500D02*
G75*
G02*
X5434800Y-4889500I50000J0D01*
G01*
X5893600Y-4534700D02*
X5993600Y-4634700D01*
X5993600Y-4534700D02*
X5893600Y-4634700D01*
X5993600Y-4584700D02*
G75*
G02*
X5893600Y-4584700I-50000J0D01*
G01*
X5893600Y-4584700D02*
G75*
G02*
X5993600Y-4584700I50000J0D01*
G01*
X5893600Y-4864900D02*
X5993600Y-4964900D01*
X5993600Y-4864900D02*
X5893600Y-4964900D01*
X5993600Y-4914900D02*
G75*
G02*
X5893600Y-4914900I-50000J0D01*
G01*
X5893600Y-4914900D02*
G75*
G02*
X5993600Y-4914900I50000J0D01*
G01*
X5969800Y-7582700D02*
X6069800Y-7682700D01*
X6069800Y-7582700D02*
X5969800Y-7682700D01*
X6069800Y-7632700D02*
G75*
G02*
X5969800Y-7632700I-50000J0D01*
G01*
X5969800Y-7632700D02*
G75*
G02*
X6069800Y-7632700I50000J0D01*
G01*
X5969800Y-7912900D02*
X6069800Y-8012900D01*
X6069800Y-7912900D02*
X5969800Y-8012900D01*
X6069800Y-7962900D02*
G75*
G02*
X5969800Y-7962900I-50000J0D01*
G01*
X5969800Y-7962900D02*
G75*
G02*
X6069800Y-7962900I50000J0D01*
G01*
D13*
X3394400Y-8118800D02*
X3514400Y-8238800D01*
X3514400Y-8118800D02*
X3394400Y-8238800D01*
X3454400Y-8118800D02*
X3454400Y-8238800D01*
X3394400Y-8178800D02*
X3514400Y-8178800D01*
D14*
X3365350Y-9978250D02*
X3495350Y-10108250D01*
X3495350Y-9978250D02*
X3365350Y-10108250D01*
X3476312Y-10089212D02*
X3476312Y-9997288D01*
X3384388Y-9997288D01*
X3384388Y-10089212D01*
X3476312Y-10089212D01*
X3865350Y-9978250D02*
X3995350Y-10108250D01*
X3995350Y-9978250D02*
X3865350Y-10108250D01*
X3976312Y-10089212D02*
X3976312Y-9997288D01*
X3884388Y-9997288D01*
X3884388Y-10089212D01*
X3976312Y-10089212D01*
X4419450Y-9978250D02*
X4549450Y-10108250D01*
X4549450Y-9978250D02*
X4419450Y-10108250D01*
X4530412Y-10089212D02*
X4530412Y-9997288D01*
X4438488Y-9997288D01*
X4438488Y-10089212D01*
X4530412Y-10089212D01*
X4919450Y-9978250D02*
X5049450Y-10108250D01*
X5049450Y-9978250D02*
X4919450Y-10108250D01*
X5030412Y-10089212D02*
X5030412Y-9997288D01*
X4938488Y-9997288D01*
X4938488Y-10089212D01*
X5030412Y-10089212D01*
X5478250Y-9978250D02*
X5608250Y-10108250D01*
X5608250Y-9978250D02*
X5478250Y-10108250D01*
X5589212Y-10089212D02*
X5589212Y-9997288D01*
X5497288Y-9997288D01*
X5497288Y-10089212D01*
X5589212Y-10089212D01*
X5978250Y-9978250D02*
X6108250Y-10108250D01*
X6108250Y-9978250D02*
X5978250Y-10108250D01*
X6089212Y-10089212D02*
X6089212Y-9997288D01*
X5997288Y-9997288D01*
X5997288Y-10089212D01*
X6089212Y-10089212D01*
X10349000Y-1682900D02*
X10479000Y-1812900D01*
X10479000Y-1682900D02*
X10349000Y-1812900D01*
X10459962Y-1793862D02*
X10459962Y-1701938D01*
X10368038Y-1701938D01*
X10368038Y-1793862D01*
X10459962Y-1793862D01*
X10349000Y-2182900D02*
X10479000Y-2312900D01*
X10479000Y-2182900D02*
X10349000Y-2312900D01*
X10459962Y-2293862D02*
X10459962Y-2201938D01*
X10368038Y-2201938D01*
X10368038Y-2293862D01*
X10459962Y-2293862D01*
X10349000Y-2737000D02*
X10479000Y-2867000D01*
X10479000Y-2737000D02*
X10349000Y-2867000D01*
X10459962Y-2847962D02*
X10459962Y-2756038D01*
X10368038Y-2756038D01*
X10368038Y-2847962D01*
X10459962Y-2847962D01*
X10349000Y-3237000D02*
X10479000Y-3367000D01*
X10479000Y-3237000D02*
X10349000Y-3367000D01*
X10459962Y-3347962D02*
X10459962Y-3256038D01*
X10368038Y-3256038D01*
X10368038Y-3347962D01*
X10459962Y-3347962D01*
X10349000Y-3791100D02*
X10479000Y-3921100D01*
X10479000Y-3791100D02*
X10349000Y-3921100D01*
X10459962Y-3902062D02*
X10459962Y-3810138D01*
X10368038Y-3810138D01*
X10368038Y-3902062D01*
X10459962Y-3902062D01*
X10349000Y-4291100D02*
X10479000Y-4421100D01*
X10479000Y-4291100D02*
X10349000Y-4421100D01*
X10459962Y-4402062D02*
X10459962Y-4310138D01*
X10368038Y-4310138D01*
X10368038Y-4402062D01*
X10459962Y-4402062D01*
X10349000Y-4845200D02*
X10479000Y-4975200D01*
X10479000Y-4845200D02*
X10349000Y-4975200D01*
X10459962Y-4956162D02*
X10459962Y-4864238D01*
X10368038Y-4864238D01*
X10368038Y-4956162D01*
X10459962Y-4956162D01*
X10349000Y-5345200D02*
X10479000Y-5475200D01*
X10479000Y-5345200D02*
X10349000Y-5475200D01*
X10459962Y-5456162D02*
X10459962Y-5364238D01*
X10368038Y-5364238D01*
X10368038Y-5456162D01*
X10459962Y-5456162D01*
X10349000Y-5899300D02*
X10479000Y-6029300D01*
X10479000Y-5899300D02*
X10349000Y-6029300D01*
X10459962Y-6010262D02*
X10459962Y-5918338D01*
X10368038Y-5918338D01*
X10368038Y-6010262D01*
X10459962Y-6010262D01*
X10349000Y-6399300D02*
X10479000Y-6529300D01*
X10479000Y-6399300D02*
X10349000Y-6529300D01*
X10459962Y-6510262D02*
X10459962Y-6418338D01*
X10368038Y-6418338D01*
X10368038Y-6510262D01*
X10459962Y-6510262D01*
X10349000Y-6953400D02*
X10479000Y-7083400D01*
X10479000Y-6953400D02*
X10349000Y-7083400D01*
X10459962Y-7064362D02*
X10459962Y-6972438D01*
X10368038Y-6972438D01*
X10368038Y-7064362D01*
X10459962Y-7064362D01*
X10349000Y-7453400D02*
X10479000Y-7583400D01*
X10479000Y-7453400D02*
X10349000Y-7583400D01*
X10459962Y-7564362D02*
X10459962Y-7472438D01*
X10368038Y-7472438D01*
X10368038Y-7564362D01*
X10459962Y-7564362D01*
X10349000Y-8009450D02*
X10479000Y-8139450D01*
X10479000Y-8009450D02*
X10349000Y-8139450D01*
X10459962Y-8120412D02*
X10459962Y-8028488D01*
X10368038Y-8028488D01*
X10368038Y-8120412D01*
X10459962Y-8120412D01*
X10349000Y-8509450D02*
X10479000Y-8639450D01*
X10479000Y-8509450D02*
X10349000Y-8639450D01*
X10459962Y-8620412D02*
X10459962Y-8528488D01*
X10368038Y-8528488D01*
X10368038Y-8620412D01*
X10459962Y-8620412D01*
D15*
X4809500Y-4619000D02*
X4969500Y-4779000D01*
X4969500Y-4619000D02*
X4809500Y-4779000D01*
X4889500Y-4779000D02*
X4969500Y-4699000D01*
X4889500Y-4619000D01*
X4809500Y-4699000D01*
X4889500Y-4779000D01*
X6721600Y-7387600D02*
X6721600Y-7547600D01*
X6641600Y-7467600D02*
X6801600Y-7467600D01*
X6801600Y-7467600D02*
G75*
G02*
X6641600Y-7467600I-80000J0D01*
G01*
X6641600Y-7467600D02*
G75*
G02*
X6801600Y-7467600I80000J0D01*
G01*
X6737600Y-2180600D02*
X6737600Y-2340600D01*
X6657600Y-2260600D02*
X6817600Y-2260600D01*
X6817600Y-2260600D02*
G75*
G02*
X6657600Y-2260600I-80000J0D01*
G01*
X6657600Y-2260600D02*
G75*
G02*
X6817600Y-2260600I80000J0D01*
G01*
X6747000Y-5508000D02*
X6747000Y-5668000D01*
X6667000Y-5588000D02*
X6827000Y-5588000D01*
X6827000Y-5588000D02*
G75*
G02*
X6667000Y-5588000I-80000J0D01*
G01*
X6667000Y-5588000D02*
G75*
G02*
X6827000Y-5588000I80000J0D01*
G01*
X6763000Y-3730000D02*
X6763000Y-3890000D01*
X6683000Y-3810000D02*
X6843000Y-3810000D01*
X6843000Y-3810000D02*
G75*
G02*
X6683000Y-3810000I-80000J0D01*
G01*
X6683000Y-3810000D02*
G75*
G02*
X6843000Y-3810000I80000J0D01*
G01*
X8721600Y-7387600D02*
X8721600Y-7547600D01*
X8641600Y-7467600D02*
X8801600Y-7467600D01*
X8801600Y-7467600D02*
G75*
G02*
X8641600Y-7467600I-80000J0D01*
G01*
X8641600Y-7467600D02*
G75*
G02*
X8801600Y-7467600I80000J0D01*
G01*
X8737600Y-2180600D02*
X8737600Y-2340600D01*
X8657600Y-2260600D02*
X8817600Y-2260600D01*
X8817600Y-2260600D02*
G75*
G02*
X8657600Y-2260600I-80000J0D01*
G01*
X8657600Y-2260600D02*
G75*
G02*
X8817600Y-2260600I80000J0D01*
G01*
X8747000Y-5508000D02*
X8747000Y-5668000D01*
X8667000Y-5588000D02*
X8827000Y-5588000D01*
X8827000Y-5588000D02*
G75*
G02*
X8667000Y-5588000I-80000J0D01*
G01*
X8667000Y-5588000D02*
G75*
G02*
X8827000Y-5588000I80000J0D01*
G01*
X8763000Y-3730000D02*
X8763000Y-3890000D01*
X8683000Y-3810000D02*
X8843000Y-3810000D01*
X8843000Y-3810000D02*
G75*
G02*
X8683000Y-3810000I-80000J0D01*
G01*
X8683000Y-3810000D02*
G75*
G02*
X8843000Y-3810000I80000J0D01*
G01*
D16*
X6794640Y-8585340D02*
X6794640Y-8458060D01*
X6667360Y-8458060D01*
X6667360Y-8585340D01*
X6794640Y-8585340D01*
X6821000Y-8521700D02*
G75*
G02*
X6641000Y-8521700I-90000J0D01*
G01*
X6641000Y-8521700D02*
G75*
G02*
X6821000Y-8521700I90000J0D01*
G01*
D17*
X2000000Y-2215000D02*
X2215000Y-2000000D01*
X2000000Y-1785000D01*
X1785000Y-2000000D01*
X2000000Y-2215000D01*
X2215000Y-2000000D02*
G75*
G02*
X1785000Y-2000000I-215000J0D01*
G01*
X1785000Y-2000000D02*
G75*
G02*
X2215000Y-2000000I215000J0D01*
G01*
X2000000Y-10215000D02*
X2215000Y-10000000D01*
X2000000Y-9785000D01*
X1785000Y-10000000D01*
X2000000Y-10215000D01*
X2215000Y-10000000D02*
G75*
G02*
X1785000Y-10000000I-215000J0D01*
G01*
X1785000Y-10000000D02*
G75*
G02*
X2215000Y-10000000I215000J0D01*
G01*
X5000000Y-2215000D02*
X5215000Y-2000000D01*
X5000000Y-1785000D01*
X4785000Y-2000000D01*
X5000000Y-2215000D01*
X5215000Y-2000000D02*
G75*
G02*
X4785000Y-2000000I-215000J0D01*
G01*
X4785000Y-2000000D02*
G75*
G02*
X5215000Y-2000000I215000J0D01*
G01*
X10000000Y-10215000D02*
X10215000Y-10000000D01*
X10000000Y-9785000D01*
X9785000Y-10000000D01*
X10000000Y-10215000D01*
X10215000Y-10000000D02*
G75*
G02*
X9785000Y-10000000I-215000J0D01*
G01*
X9785000Y-10000000D02*
G75*
G02*
X10215000Y-10000000I215000J0D01*
G01*
D11*
X1458277Y-11513984D02*
X1458277Y-11313984D01*
X1458277Y-11313984D02*
X1505896Y-11313984D01*
X1505896Y-11313984D02*
X1534467Y-11323508D01*
X1534467Y-11323508D02*
X1553515Y-11342555D01*
X1553515Y-11342555D02*
X1563039Y-11361603D01*
X1563039Y-11361603D02*
X1572562Y-11399698D01*
X1572562Y-11399698D02*
X1572562Y-11428269D01*
X1572562Y-11428269D02*
X1563039Y-11466365D01*
X1563039Y-11466365D02*
X1553515Y-11485412D01*
X1553515Y-11485412D02*
X1534467Y-11504460D01*
X1534467Y-11504460D02*
X1505896Y-11513984D01*
X1505896Y-11513984D02*
X1458277Y-11513984D01*
X1658277Y-11513984D02*
X1658277Y-11380650D01*
X1658277Y-11418746D02*
X1667801Y-11399698D01*
X1667801Y-11399698D02*
X1677324Y-11390174D01*
X1677324Y-11390174D02*
X1696372Y-11380650D01*
X1696372Y-11380650D02*
X1715420Y-11380650D01*
X1782086Y-11513984D02*
X1782086Y-11380650D01*
X1782086Y-11313984D02*
X1772562Y-11323508D01*
X1772562Y-11323508D02*
X1782086Y-11333031D01*
X1782086Y-11333031D02*
X1791610Y-11323508D01*
X1791610Y-11323508D02*
X1782086Y-11313984D01*
X1782086Y-11313984D02*
X1782086Y-11333031D01*
X1905896Y-11513984D02*
X1886848Y-11504460D01*
X1886848Y-11504460D02*
X1877324Y-11485412D01*
X1877324Y-11485412D02*
X1877324Y-11313984D01*
X2010658Y-11513984D02*
X1991610Y-11504460D01*
X1991610Y-11504460D02*
X1982086Y-11485412D01*
X1982086Y-11485412D02*
X1982086Y-11313984D01*
X2239229Y-11513984D02*
X2239229Y-11313984D01*
X2239229Y-11313984D02*
X2305896Y-11456841D01*
X2305896Y-11456841D02*
X2372563Y-11313984D01*
X2372563Y-11313984D02*
X2372563Y-11513984D01*
X2553515Y-11513984D02*
X2553515Y-11409222D01*
X2553515Y-11409222D02*
X2543991Y-11390174D01*
X2543991Y-11390174D02*
X2524944Y-11380650D01*
X2524944Y-11380650D02*
X2486848Y-11380650D01*
X2486848Y-11380650D02*
X2467801Y-11390174D01*
X2553515Y-11504460D02*
X2534467Y-11513984D01*
X2534467Y-11513984D02*
X2486848Y-11513984D01*
X2486848Y-11513984D02*
X2467801Y-11504460D01*
X2467801Y-11504460D02*
X2458277Y-11485412D01*
X2458277Y-11485412D02*
X2458277Y-11466365D01*
X2458277Y-11466365D02*
X2467801Y-11447317D01*
X2467801Y-11447317D02*
X2486848Y-11437793D01*
X2486848Y-11437793D02*
X2534467Y-11437793D01*
X2534467Y-11437793D02*
X2553515Y-11428269D01*
X2648753Y-11380650D02*
X2648753Y-11580650D01*
X2648753Y-11390174D02*
X2667801Y-11380650D01*
X2667801Y-11380650D02*
X2705896Y-11380650D01*
X2705896Y-11380650D02*
X2724944Y-11390174D01*
X2724944Y-11390174D02*
X2734467Y-11399698D01*
X2734467Y-11399698D02*
X2743991Y-11418746D01*
X2743991Y-11418746D02*
X2743991Y-11475888D01*
X2743991Y-11475888D02*
X2734467Y-11494936D01*
X2734467Y-11494936D02*
X2724944Y-11504460D01*
X2724944Y-11504460D02*
X2705896Y-11513984D01*
X2705896Y-11513984D02*
X2667801Y-11513984D01*
X2667801Y-11513984D02*
X2648753Y-11504460D01*
X2829705Y-11494936D02*
X2839229Y-11504460D01*
X2839229Y-11504460D02*
X2829705Y-11513984D01*
X2829705Y-11513984D02*
X2820182Y-11504460D01*
X2820182Y-11504460D02*
X2829705Y-11494936D01*
X2829705Y-11494936D02*
X2829705Y-11513984D01*
X2829705Y-11390174D02*
X2839229Y-11399698D01*
X2839229Y-11399698D02*
X2829705Y-11409222D01*
X2829705Y-11409222D02*
X2820182Y-11399698D01*
X2820182Y-11399698D02*
X2829705Y-11390174D01*
X2829705Y-11390174D02*
X2829705Y-11409222D01*
D12*
X1157500Y-11822500D02*
X1197500Y-11862500D01*
X1197500Y-11822500D02*
X1157500Y-11862500D01*
D11*
X1496372Y-11733984D02*
X1515420Y-11733984D01*
X1515420Y-11733984D02*
X1534467Y-11743508D01*
X1534467Y-11743508D02*
X1543991Y-11753031D01*
X1543991Y-11753031D02*
X1553515Y-11772079D01*
X1553515Y-11772079D02*
X1563039Y-11810174D01*
X1563039Y-11810174D02*
X1563039Y-11857793D01*
X1563039Y-11857793D02*
X1553515Y-11895888D01*
X1553515Y-11895888D02*
X1543991Y-11914936D01*
X1543991Y-11914936D02*
X1534467Y-11924460D01*
X1534467Y-11924460D02*
X1515420Y-11933984D01*
X1515420Y-11933984D02*
X1496372Y-11933984D01*
X1496372Y-11933984D02*
X1477324Y-11924460D01*
X1477324Y-11924460D02*
X1467801Y-11914936D01*
X1467801Y-11914936D02*
X1458277Y-11895888D01*
X1458277Y-11895888D02*
X1448753Y-11857793D01*
X1448753Y-11857793D02*
X1448753Y-11810174D01*
X1448753Y-11810174D02*
X1458277Y-11772079D01*
X1458277Y-11772079D02*
X1467801Y-11753031D01*
X1467801Y-11753031D02*
X1477324Y-11743508D01*
X1477324Y-11743508D02*
X1496372Y-11733984D01*
X1648753Y-11914936D02*
X1658277Y-11924460D01*
X1658277Y-11924460D02*
X1648753Y-11933984D01*
X1648753Y-11933984D02*
X1639229Y-11924460D01*
X1639229Y-11924460D02*
X1648753Y-11914936D01*
X1648753Y-11914936D02*
X1648753Y-11933984D01*
X1829705Y-11800650D02*
X1829705Y-11933984D01*
X1782086Y-11724460D02*
X1734467Y-11867317D01*
X1734467Y-11867317D02*
X1858277Y-11867317D01*
X1972562Y-11733984D02*
X1991610Y-11733984D01*
X1991610Y-11733984D02*
X2010658Y-11743508D01*
X2010658Y-11743508D02*
X2020182Y-11753031D01*
X2020182Y-11753031D02*
X2029705Y-11772079D01*
X2029705Y-11772079D02*
X2039229Y-11810174D01*
X2039229Y-11810174D02*
X2039229Y-11857793D01*
X2039229Y-11857793D02*
X2029705Y-11895888D01*
X2029705Y-11895888D02*
X2020182Y-11914936D01*
X2020182Y-11914936D02*
X2010658Y-11924460D01*
X2010658Y-11924460D02*
X1991610Y-11933984D01*
X1991610Y-11933984D02*
X1972562Y-11933984D01*
X1972562Y-11933984D02*
X1953515Y-11924460D01*
X1953515Y-11924460D02*
X1943991Y-11914936D01*
X1943991Y-11914936D02*
X1934467Y-11895888D01*
X1934467Y-11895888D02*
X1924943Y-11857793D01*
X1924943Y-11857793D02*
X1924943Y-11810174D01*
X1924943Y-11810174D02*
X1934467Y-11772079D01*
X1934467Y-11772079D02*
X1943991Y-11753031D01*
X1943991Y-11753031D02*
X1953515Y-11743508D01*
X1953515Y-11743508D02*
X1972562Y-11733984D01*
X2163039Y-11733984D02*
X2182086Y-11733984D01*
X2182086Y-11733984D02*
X2201134Y-11743508D01*
X2201134Y-11743508D02*
X2210658Y-11753031D01*
X2210658Y-11753031D02*
X2220182Y-11772079D01*
X2220182Y-11772079D02*
X2229705Y-11810174D01*
X2229705Y-11810174D02*
X2229705Y-11857793D01*
X2229705Y-11857793D02*
X2220182Y-11895888D01*
X2220182Y-11895888D02*
X2210658Y-11914936D01*
X2210658Y-11914936D02*
X2201134Y-11924460D01*
X2201134Y-11924460D02*
X2182086Y-11933984D01*
X2182086Y-11933984D02*
X2163039Y-11933984D01*
X2163039Y-11933984D02*
X2143991Y-11924460D01*
X2143991Y-11924460D02*
X2134467Y-11914936D01*
X2134467Y-11914936D02*
X2124944Y-11895888D01*
X2124944Y-11895888D02*
X2115420Y-11857793D01*
X2115420Y-11857793D02*
X2115420Y-11810174D01*
X2115420Y-11810174D02*
X2124944Y-11772079D01*
X2124944Y-11772079D02*
X2134467Y-11753031D01*
X2134467Y-11753031D02*
X2143991Y-11743508D01*
X2143991Y-11743508D02*
X2163039Y-11733984D01*
X2315420Y-11933984D02*
X2315420Y-11800650D01*
X2315420Y-11819698D02*
X2324944Y-11810174D01*
X2324944Y-11810174D02*
X2343991Y-11800650D01*
X2343991Y-11800650D02*
X2372563Y-11800650D01*
X2372563Y-11800650D02*
X2391610Y-11810174D01*
X2391610Y-11810174D02*
X2401134Y-11829222D01*
X2401134Y-11829222D02*
X2401134Y-11933984D01*
X2401134Y-11829222D02*
X2410658Y-11810174D01*
X2410658Y-11810174D02*
X2429705Y-11800650D01*
X2429705Y-11800650D02*
X2458277Y-11800650D01*
X2458277Y-11800650D02*
X2477325Y-11810174D01*
X2477325Y-11810174D02*
X2486848Y-11829222D01*
X2486848Y-11829222D02*
X2486848Y-11933984D01*
X2582086Y-11933984D02*
X2582086Y-11800650D01*
X2582086Y-11819698D02*
X2591610Y-11810174D01*
X2591610Y-11810174D02*
X2610658Y-11800650D01*
X2610658Y-11800650D02*
X2639229Y-11800650D01*
X2639229Y-11800650D02*
X2658277Y-11810174D01*
X2658277Y-11810174D02*
X2667801Y-11829222D01*
X2667801Y-11829222D02*
X2667801Y-11933984D01*
X2667801Y-11829222D02*
X2677325Y-11810174D01*
X2677325Y-11810174D02*
X2696372Y-11800650D01*
X2696372Y-11800650D02*
X2724944Y-11800650D01*
X2724944Y-11800650D02*
X2743991Y-11810174D01*
X2743991Y-11810174D02*
X2753515Y-11829222D01*
X2753515Y-11829222D02*
X2753515Y-11933984D01*
X3143991Y-11724460D02*
X2972563Y-11981603D01*
X3401134Y-11733984D02*
X3420182Y-11733984D01*
X3420182Y-11733984D02*
X3439229Y-11743508D01*
X3439229Y-11743508D02*
X3448753Y-11753031D01*
X3448753Y-11753031D02*
X3458277Y-11772079D01*
X3458277Y-11772079D02*
X3467801Y-11810174D01*
X3467801Y-11810174D02*
X3467801Y-11857793D01*
X3467801Y-11857793D02*
X3458277Y-11895888D01*
X3458277Y-11895888D02*
X3448753Y-11914936D01*
X3448753Y-11914936D02*
X3439229Y-11924460D01*
X3439229Y-11924460D02*
X3420182Y-11933984D01*
X3420182Y-11933984D02*
X3401134Y-11933984D01*
X3401134Y-11933984D02*
X3382086Y-11924460D01*
X3382086Y-11924460D02*
X3372563Y-11914936D01*
X3372563Y-11914936D02*
X3363039Y-11895888D01*
X3363039Y-11895888D02*
X3353515Y-11857793D01*
X3353515Y-11857793D02*
X3353515Y-11810174D01*
X3353515Y-11810174D02*
X3363039Y-11772079D01*
X3363039Y-11772079D02*
X3372563Y-11753031D01*
X3372563Y-11753031D02*
X3382086Y-11743508D01*
X3382086Y-11743508D02*
X3401134Y-11733984D01*
X3553515Y-11914936D02*
X3563039Y-11924460D01*
X3563039Y-11924460D02*
X3553515Y-11933984D01*
X3553515Y-11933984D02*
X3543991Y-11924460D01*
X3543991Y-11924460D02*
X3553515Y-11914936D01*
X3553515Y-11914936D02*
X3553515Y-11933984D01*
X3686848Y-11733984D02*
X3705896Y-11733984D01*
X3705896Y-11733984D02*
X3724944Y-11743508D01*
X3724944Y-11743508D02*
X3734467Y-11753031D01*
X3734467Y-11753031D02*
X3743991Y-11772079D01*
X3743991Y-11772079D02*
X3753515Y-11810174D01*
X3753515Y-11810174D02*
X3753515Y-11857793D01*
X3753515Y-11857793D02*
X3743991Y-11895888D01*
X3743991Y-11895888D02*
X3734467Y-11914936D01*
X3734467Y-11914936D02*
X3724944Y-11924460D01*
X3724944Y-11924460D02*
X3705896Y-11933984D01*
X3705896Y-11933984D02*
X3686848Y-11933984D01*
X3686848Y-11933984D02*
X3667801Y-11924460D01*
X3667801Y-11924460D02*
X3658277Y-11914936D01*
X3658277Y-11914936D02*
X3648753Y-11895888D01*
X3648753Y-11895888D02*
X3639229Y-11857793D01*
X3639229Y-11857793D02*
X3639229Y-11810174D01*
X3639229Y-11810174D02*
X3648753Y-11772079D01*
X3648753Y-11772079D02*
X3658277Y-11753031D01*
X3658277Y-11753031D02*
X3667801Y-11743508D01*
X3667801Y-11743508D02*
X3686848Y-11733984D01*
X3943991Y-11933984D02*
X3829706Y-11933984D01*
X3886848Y-11933984D02*
X3886848Y-11733984D01*
X3886848Y-11733984D02*
X3867801Y-11762555D01*
X3867801Y-11762555D02*
X3848753Y-11781603D01*
X3848753Y-11781603D02*
X3829706Y-11791127D01*
X4124944Y-11733984D02*
X4029706Y-11733984D01*
X4029706Y-11733984D02*
X4020182Y-11829222D01*
X4020182Y-11829222D02*
X4029706Y-11819698D01*
X4029706Y-11819698D02*
X4048753Y-11810174D01*
X4048753Y-11810174D02*
X4096372Y-11810174D01*
X4096372Y-11810174D02*
X4115420Y-11819698D01*
X4115420Y-11819698D02*
X4124944Y-11829222D01*
X4124944Y-11829222D02*
X4134467Y-11848269D01*
X4134467Y-11848269D02*
X4134467Y-11895888D01*
X4134467Y-11895888D02*
X4124944Y-11914936D01*
X4124944Y-11914936D02*
X4115420Y-11924460D01*
X4115420Y-11924460D02*
X4096372Y-11933984D01*
X4096372Y-11933984D02*
X4048753Y-11933984D01*
X4048753Y-11933984D02*
X4029706Y-11924460D01*
X4029706Y-11924460D02*
X4020182Y-11914936D01*
X4201134Y-11733984D02*
X4334468Y-11733984D01*
X4334468Y-11733984D02*
X4248753Y-11933984D01*
X4401134Y-11733984D02*
X4401134Y-11772079D01*
X4477325Y-11733984D02*
X4477325Y-11772079D01*
X4772563Y-12010174D02*
X4763039Y-12000650D01*
X4763039Y-12000650D02*
X4743991Y-11972079D01*
X4743991Y-11972079D02*
X4734468Y-11953031D01*
X4734468Y-11953031D02*
X4724944Y-11924460D01*
X4724944Y-11924460D02*
X4715420Y-11876841D01*
X4715420Y-11876841D02*
X4715420Y-11838746D01*
X4715420Y-11838746D02*
X4724944Y-11791127D01*
X4724944Y-11791127D02*
X4734468Y-11762555D01*
X4734468Y-11762555D02*
X4743991Y-11743508D01*
X4743991Y-11743508D02*
X4763039Y-11714936D01*
X4763039Y-11714936D02*
X4772563Y-11705412D01*
X4934468Y-11800650D02*
X4934468Y-11933984D01*
X4886849Y-11724460D02*
X4839230Y-11867317D01*
X4839230Y-11867317D02*
X4963039Y-11867317D01*
X5020182Y-11733984D02*
X5143991Y-11733984D01*
X5143991Y-11733984D02*
X5077325Y-11810174D01*
X5077325Y-11810174D02*
X5105896Y-11810174D01*
X5105896Y-11810174D02*
X5124944Y-11819698D01*
X5124944Y-11819698D02*
X5134468Y-11829222D01*
X5134468Y-11829222D02*
X5143991Y-11848269D01*
X5143991Y-11848269D02*
X5143991Y-11895888D01*
X5143991Y-11895888D02*
X5134468Y-11914936D01*
X5134468Y-11914936D02*
X5124944Y-11924460D01*
X5124944Y-11924460D02*
X5105896Y-11933984D01*
X5105896Y-11933984D02*
X5048753Y-11933984D01*
X5048753Y-11933984D02*
X5029706Y-11924460D01*
X5029706Y-11924460D02*
X5020182Y-11914936D01*
X5382087Y-11933984D02*
X5382087Y-11733984D01*
X5467801Y-11933984D02*
X5467801Y-11829222D01*
X5467801Y-11829222D02*
X5458277Y-11810174D01*
X5458277Y-11810174D02*
X5439230Y-11800650D01*
X5439230Y-11800650D02*
X5410658Y-11800650D01*
X5410658Y-11800650D02*
X5391611Y-11810174D01*
X5391611Y-11810174D02*
X5382087Y-11819698D01*
X5591611Y-11933984D02*
X5572563Y-11924460D01*
X5572563Y-11924460D02*
X5563039Y-11914936D01*
X5563039Y-11914936D02*
X5553515Y-11895888D01*
X5553515Y-11895888D02*
X5553515Y-11838746D01*
X5553515Y-11838746D02*
X5563039Y-11819698D01*
X5563039Y-11819698D02*
X5572563Y-11810174D01*
X5572563Y-11810174D02*
X5591611Y-11800650D01*
X5591611Y-11800650D02*
X5620182Y-11800650D01*
X5620182Y-11800650D02*
X5639230Y-11810174D01*
X5639230Y-11810174D02*
X5648753Y-11819698D01*
X5648753Y-11819698D02*
X5658277Y-11838746D01*
X5658277Y-11838746D02*
X5658277Y-11895888D01*
X5658277Y-11895888D02*
X5648753Y-11914936D01*
X5648753Y-11914936D02*
X5639230Y-11924460D01*
X5639230Y-11924460D02*
X5620182Y-11933984D01*
X5620182Y-11933984D02*
X5591611Y-11933984D01*
X5772563Y-11933984D02*
X5753515Y-11924460D01*
X5753515Y-11924460D02*
X5743991Y-11905412D01*
X5743991Y-11905412D02*
X5743991Y-11733984D01*
X5924944Y-11924460D02*
X5905896Y-11933984D01*
X5905896Y-11933984D02*
X5867801Y-11933984D01*
X5867801Y-11933984D02*
X5848753Y-11924460D01*
X5848753Y-11924460D02*
X5839230Y-11905412D01*
X5839230Y-11905412D02*
X5839230Y-11829222D01*
X5839230Y-11829222D02*
X5848753Y-11810174D01*
X5848753Y-11810174D02*
X5867801Y-11800650D01*
X5867801Y-11800650D02*
X5905896Y-11800650D01*
X5905896Y-11800650D02*
X5924944Y-11810174D01*
X5924944Y-11810174D02*
X5934468Y-11829222D01*
X5934468Y-11829222D02*
X5934468Y-11848269D01*
X5934468Y-11848269D02*
X5839230Y-11867317D01*
X6010658Y-11924460D02*
X6029706Y-11933984D01*
X6029706Y-11933984D02*
X6067801Y-11933984D01*
X6067801Y-11933984D02*
X6086849Y-11924460D01*
X6086849Y-11924460D02*
X6096372Y-11905412D01*
X6096372Y-11905412D02*
X6096372Y-11895888D01*
X6096372Y-11895888D02*
X6086849Y-11876841D01*
X6086849Y-11876841D02*
X6067801Y-11867317D01*
X6067801Y-11867317D02*
X6039230Y-11867317D01*
X6039230Y-11867317D02*
X6020182Y-11857793D01*
X6020182Y-11857793D02*
X6010658Y-11838746D01*
X6010658Y-11838746D02*
X6010658Y-11829222D01*
X6010658Y-11829222D02*
X6020182Y-11810174D01*
X6020182Y-11810174D02*
X6039230Y-11800650D01*
X6039230Y-11800650D02*
X6067801Y-11800650D01*
X6067801Y-11800650D02*
X6086849Y-11810174D01*
X6163039Y-12010174D02*
X6172563Y-12000650D01*
X6172563Y-12000650D02*
X6191611Y-11972079D01*
X6191611Y-11972079D02*
X6201134Y-11953031D01*
X6201134Y-11953031D02*
X6210658Y-11924460D01*
X6210658Y-11924460D02*
X6220182Y-11876841D01*
X6220182Y-11876841D02*
X6220182Y-11838746D01*
X6220182Y-11838746D02*
X6210658Y-11791127D01*
X6210658Y-11791127D02*
X6201134Y-11762555D01*
X6201134Y-11762555D02*
X6191611Y-11743508D01*
X6191611Y-11743508D02*
X6172563Y-11714936D01*
X6172563Y-11714936D02*
X6163039Y-11705412D01*
D12*
X1197500Y-12106500D02*
G75*
G02*
X1137500Y-12106500I-30000J0D01*
G01*
X1137500Y-12106500D02*
G75*
G02*
X1197500Y-12106500I30000J0D01*
G01*
D11*
X1496372Y-11997984D02*
X1515420Y-11997984D01*
X1515420Y-11997984D02*
X1534467Y-12007508D01*
X1534467Y-12007508D02*
X1543991Y-12017031D01*
X1543991Y-12017031D02*
X1553515Y-12036079D01*
X1553515Y-12036079D02*
X1563039Y-12074174D01*
X1563039Y-12074174D02*
X1563039Y-12121793D01*
X1563039Y-12121793D02*
X1553515Y-12159888D01*
X1553515Y-12159888D02*
X1543991Y-12178936D01*
X1543991Y-12178936D02*
X1534467Y-12188460D01*
X1534467Y-12188460D02*
X1515420Y-12197984D01*
X1515420Y-12197984D02*
X1496372Y-12197984D01*
X1496372Y-12197984D02*
X1477324Y-12188460D01*
X1477324Y-12188460D02*
X1467801Y-12178936D01*
X1467801Y-12178936D02*
X1458277Y-12159888D01*
X1458277Y-12159888D02*
X1448753Y-12121793D01*
X1448753Y-12121793D02*
X1448753Y-12074174D01*
X1448753Y-12074174D02*
X1458277Y-12036079D01*
X1458277Y-12036079D02*
X1467801Y-12017031D01*
X1467801Y-12017031D02*
X1477324Y-12007508D01*
X1477324Y-12007508D02*
X1496372Y-11997984D01*
X1648753Y-12178936D02*
X1658277Y-12188460D01*
X1658277Y-12188460D02*
X1648753Y-12197984D01*
X1648753Y-12197984D02*
X1639229Y-12188460D01*
X1639229Y-12188460D02*
X1648753Y-12178936D01*
X1648753Y-12178936D02*
X1648753Y-12197984D01*
X1829705Y-11997984D02*
X1791610Y-11997984D01*
X1791610Y-11997984D02*
X1772562Y-12007508D01*
X1772562Y-12007508D02*
X1763039Y-12017031D01*
X1763039Y-12017031D02*
X1743991Y-12045603D01*
X1743991Y-12045603D02*
X1734467Y-12083698D01*
X1734467Y-12083698D02*
X1734467Y-12159888D01*
X1734467Y-12159888D02*
X1743991Y-12178936D01*
X1743991Y-12178936D02*
X1753515Y-12188460D01*
X1753515Y-12188460D02*
X1772562Y-12197984D01*
X1772562Y-12197984D02*
X1810658Y-12197984D01*
X1810658Y-12197984D02*
X1829705Y-12188460D01*
X1829705Y-12188460D02*
X1839229Y-12178936D01*
X1839229Y-12178936D02*
X1848753Y-12159888D01*
X1848753Y-12159888D02*
X1848753Y-12112269D01*
X1848753Y-12112269D02*
X1839229Y-12093222D01*
X1839229Y-12093222D02*
X1829705Y-12083698D01*
X1829705Y-12083698D02*
X1810658Y-12074174D01*
X1810658Y-12074174D02*
X1772562Y-12074174D01*
X1772562Y-12074174D02*
X1753515Y-12083698D01*
X1753515Y-12083698D02*
X1743991Y-12093222D01*
X1743991Y-12093222D02*
X1734467Y-12112269D01*
X1972562Y-11997984D02*
X1991610Y-11997984D01*
X1991610Y-11997984D02*
X2010658Y-12007508D01*
X2010658Y-12007508D02*
X2020182Y-12017031D01*
X2020182Y-12017031D02*
X2029705Y-12036079D01*
X2029705Y-12036079D02*
X2039229Y-12074174D01*
X2039229Y-12074174D02*
X2039229Y-12121793D01*
X2039229Y-12121793D02*
X2029705Y-12159888D01*
X2029705Y-12159888D02*
X2020182Y-12178936D01*
X2020182Y-12178936D02*
X2010658Y-12188460D01*
X2010658Y-12188460D02*
X1991610Y-12197984D01*
X1991610Y-12197984D02*
X1972562Y-12197984D01*
X1972562Y-12197984D02*
X1953515Y-12188460D01*
X1953515Y-12188460D02*
X1943991Y-12178936D01*
X1943991Y-12178936D02*
X1934467Y-12159888D01*
X1934467Y-12159888D02*
X1924943Y-12121793D01*
X1924943Y-12121793D02*
X1924943Y-12074174D01*
X1924943Y-12074174D02*
X1934467Y-12036079D01*
X1934467Y-12036079D02*
X1943991Y-12017031D01*
X1943991Y-12017031D02*
X1953515Y-12007508D01*
X1953515Y-12007508D02*
X1972562Y-11997984D01*
X2163039Y-11997984D02*
X2182086Y-11997984D01*
X2182086Y-11997984D02*
X2201134Y-12007508D01*
X2201134Y-12007508D02*
X2210658Y-12017031D01*
X2210658Y-12017031D02*
X2220182Y-12036079D01*
X2220182Y-12036079D02*
X2229705Y-12074174D01*
X2229705Y-12074174D02*
X2229705Y-12121793D01*
X2229705Y-12121793D02*
X2220182Y-12159888D01*
X2220182Y-12159888D02*
X2210658Y-12178936D01*
X2210658Y-12178936D02*
X2201134Y-12188460D01*
X2201134Y-12188460D02*
X2182086Y-12197984D01*
X2182086Y-12197984D02*
X2163039Y-12197984D01*
X2163039Y-12197984D02*
X2143991Y-12188460D01*
X2143991Y-12188460D02*
X2134467Y-12178936D01*
X2134467Y-12178936D02*
X2124944Y-12159888D01*
X2124944Y-12159888D02*
X2115420Y-12121793D01*
X2115420Y-12121793D02*
X2115420Y-12074174D01*
X2115420Y-12074174D02*
X2124944Y-12036079D01*
X2124944Y-12036079D02*
X2134467Y-12017031D01*
X2134467Y-12017031D02*
X2143991Y-12007508D01*
X2143991Y-12007508D02*
X2163039Y-11997984D01*
X2315420Y-12197984D02*
X2315420Y-12064650D01*
X2315420Y-12083698D02*
X2324944Y-12074174D01*
X2324944Y-12074174D02*
X2343991Y-12064650D01*
X2343991Y-12064650D02*
X2372563Y-12064650D01*
X2372563Y-12064650D02*
X2391610Y-12074174D01*
X2391610Y-12074174D02*
X2401134Y-12093222D01*
X2401134Y-12093222D02*
X2401134Y-12197984D01*
X2401134Y-12093222D02*
X2410658Y-12074174D01*
X2410658Y-12074174D02*
X2429705Y-12064650D01*
X2429705Y-12064650D02*
X2458277Y-12064650D01*
X2458277Y-12064650D02*
X2477325Y-12074174D01*
X2477325Y-12074174D02*
X2486848Y-12093222D01*
X2486848Y-12093222D02*
X2486848Y-12197984D01*
X2582086Y-12197984D02*
X2582086Y-12064650D01*
X2582086Y-12083698D02*
X2591610Y-12074174D01*
X2591610Y-12074174D02*
X2610658Y-12064650D01*
X2610658Y-12064650D02*
X2639229Y-12064650D01*
X2639229Y-12064650D02*
X2658277Y-12074174D01*
X2658277Y-12074174D02*
X2667801Y-12093222D01*
X2667801Y-12093222D02*
X2667801Y-12197984D01*
X2667801Y-12093222D02*
X2677325Y-12074174D01*
X2677325Y-12074174D02*
X2696372Y-12064650D01*
X2696372Y-12064650D02*
X2724944Y-12064650D01*
X2724944Y-12064650D02*
X2743991Y-12074174D01*
X2743991Y-12074174D02*
X2753515Y-12093222D01*
X2753515Y-12093222D02*
X2753515Y-12197984D01*
X3143991Y-11988460D02*
X2972563Y-12245603D01*
X3401134Y-11997984D02*
X3420182Y-11997984D01*
X3420182Y-11997984D02*
X3439229Y-12007508D01*
X3439229Y-12007508D02*
X3448753Y-12017031D01*
X3448753Y-12017031D02*
X3458277Y-12036079D01*
X3458277Y-12036079D02*
X3467801Y-12074174D01*
X3467801Y-12074174D02*
X3467801Y-12121793D01*
X3467801Y-12121793D02*
X3458277Y-12159888D01*
X3458277Y-12159888D02*
X3448753Y-12178936D01*
X3448753Y-12178936D02*
X3439229Y-12188460D01*
X3439229Y-12188460D02*
X3420182Y-12197984D01*
X3420182Y-12197984D02*
X3401134Y-12197984D01*
X3401134Y-12197984D02*
X3382086Y-12188460D01*
X3382086Y-12188460D02*
X3372563Y-12178936D01*
X3372563Y-12178936D02*
X3363039Y-12159888D01*
X3363039Y-12159888D02*
X3353515Y-12121793D01*
X3353515Y-12121793D02*
X3353515Y-12074174D01*
X3353515Y-12074174D02*
X3363039Y-12036079D01*
X3363039Y-12036079D02*
X3372563Y-12017031D01*
X3372563Y-12017031D02*
X3382086Y-12007508D01*
X3382086Y-12007508D02*
X3401134Y-11997984D01*
X3553515Y-12178936D02*
X3563039Y-12188460D01*
X3563039Y-12188460D02*
X3553515Y-12197984D01*
X3553515Y-12197984D02*
X3543991Y-12188460D01*
X3543991Y-12188460D02*
X3553515Y-12178936D01*
X3553515Y-12178936D02*
X3553515Y-12197984D01*
X3686848Y-11997984D02*
X3705896Y-11997984D01*
X3705896Y-11997984D02*
X3724944Y-12007508D01*
X3724944Y-12007508D02*
X3734467Y-12017031D01*
X3734467Y-12017031D02*
X3743991Y-12036079D01*
X3743991Y-12036079D02*
X3753515Y-12074174D01*
X3753515Y-12074174D02*
X3753515Y-12121793D01*
X3753515Y-12121793D02*
X3743991Y-12159888D01*
X3743991Y-12159888D02*
X3734467Y-12178936D01*
X3734467Y-12178936D02*
X3724944Y-12188460D01*
X3724944Y-12188460D02*
X3705896Y-12197984D01*
X3705896Y-12197984D02*
X3686848Y-12197984D01*
X3686848Y-12197984D02*
X3667801Y-12188460D01*
X3667801Y-12188460D02*
X3658277Y-12178936D01*
X3658277Y-12178936D02*
X3648753Y-12159888D01*
X3648753Y-12159888D02*
X3639229Y-12121793D01*
X3639229Y-12121793D02*
X3639229Y-12074174D01*
X3639229Y-12074174D02*
X3648753Y-12036079D01*
X3648753Y-12036079D02*
X3658277Y-12017031D01*
X3658277Y-12017031D02*
X3667801Y-12007508D01*
X3667801Y-12007508D02*
X3686848Y-11997984D01*
X3829706Y-12017031D02*
X3839229Y-12007508D01*
X3839229Y-12007508D02*
X3858277Y-11997984D01*
X3858277Y-11997984D02*
X3905896Y-11997984D01*
X3905896Y-11997984D02*
X3924944Y-12007508D01*
X3924944Y-12007508D02*
X3934467Y-12017031D01*
X3934467Y-12017031D02*
X3943991Y-12036079D01*
X3943991Y-12036079D02*
X3943991Y-12055127D01*
X3943991Y-12055127D02*
X3934467Y-12083698D01*
X3934467Y-12083698D02*
X3820182Y-12197984D01*
X3820182Y-12197984D02*
X3943991Y-12197984D01*
X4010658Y-11997984D02*
X4134467Y-11997984D01*
X4134467Y-11997984D02*
X4067801Y-12074174D01*
X4067801Y-12074174D02*
X4096372Y-12074174D01*
X4096372Y-12074174D02*
X4115420Y-12083698D01*
X4115420Y-12083698D02*
X4124944Y-12093222D01*
X4124944Y-12093222D02*
X4134467Y-12112269D01*
X4134467Y-12112269D02*
X4134467Y-12159888D01*
X4134467Y-12159888D02*
X4124944Y-12178936D01*
X4124944Y-12178936D02*
X4115420Y-12188460D01*
X4115420Y-12188460D02*
X4096372Y-12197984D01*
X4096372Y-12197984D02*
X4039229Y-12197984D01*
X4039229Y-12197984D02*
X4020182Y-12188460D01*
X4020182Y-12188460D02*
X4010658Y-12178936D01*
X4305896Y-11997984D02*
X4267801Y-11997984D01*
X4267801Y-11997984D02*
X4248753Y-12007508D01*
X4248753Y-12007508D02*
X4239229Y-12017031D01*
X4239229Y-12017031D02*
X4220182Y-12045603D01*
X4220182Y-12045603D02*
X4210658Y-12083698D01*
X4210658Y-12083698D02*
X4210658Y-12159888D01*
X4210658Y-12159888D02*
X4220182Y-12178936D01*
X4220182Y-12178936D02*
X4229706Y-12188460D01*
X4229706Y-12188460D02*
X4248753Y-12197984D01*
X4248753Y-12197984D02*
X4286849Y-12197984D01*
X4286849Y-12197984D02*
X4305896Y-12188460D01*
X4305896Y-12188460D02*
X4315420Y-12178936D01*
X4315420Y-12178936D02*
X4324944Y-12159888D01*
X4324944Y-12159888D02*
X4324944Y-12112269D01*
X4324944Y-12112269D02*
X4315420Y-12093222D01*
X4315420Y-12093222D02*
X4305896Y-12083698D01*
X4305896Y-12083698D02*
X4286849Y-12074174D01*
X4286849Y-12074174D02*
X4248753Y-12074174D01*
X4248753Y-12074174D02*
X4229706Y-12083698D01*
X4229706Y-12083698D02*
X4220182Y-12093222D01*
X4220182Y-12093222D02*
X4210658Y-12112269D01*
X4401134Y-11997984D02*
X4401134Y-12036079D01*
X4477325Y-11997984D02*
X4477325Y-12036079D01*
X4772563Y-12274174D02*
X4763039Y-12264650D01*
X4763039Y-12264650D02*
X4743991Y-12236079D01*
X4743991Y-12236079D02*
X4734468Y-12217031D01*
X4734468Y-12217031D02*
X4724944Y-12188460D01*
X4724944Y-12188460D02*
X4715420Y-12140841D01*
X4715420Y-12140841D02*
X4715420Y-12102746D01*
X4715420Y-12102746D02*
X4724944Y-12055127D01*
X4724944Y-12055127D02*
X4734468Y-12026555D01*
X4734468Y-12026555D02*
X4743991Y-12007508D01*
X4743991Y-12007508D02*
X4763039Y-11978936D01*
X4763039Y-11978936D02*
X4772563Y-11969412D01*
X4953515Y-12197984D02*
X4839230Y-12197984D01*
X4896372Y-12197984D02*
X4896372Y-11997984D01*
X4896372Y-11997984D02*
X4877325Y-12026555D01*
X4877325Y-12026555D02*
X4858277Y-12045603D01*
X4858277Y-12045603D02*
X4839230Y-12055127D01*
X5191611Y-12197984D02*
X5191611Y-11997984D01*
X5277325Y-12197984D02*
X5277325Y-12093222D01*
X5277325Y-12093222D02*
X5267801Y-12074174D01*
X5267801Y-12074174D02*
X5248753Y-12064650D01*
X5248753Y-12064650D02*
X5220182Y-12064650D01*
X5220182Y-12064650D02*
X5201134Y-12074174D01*
X5201134Y-12074174D02*
X5191611Y-12083698D01*
X5401134Y-12197984D02*
X5382087Y-12188460D01*
X5382087Y-12188460D02*
X5372563Y-12178936D01*
X5372563Y-12178936D02*
X5363039Y-12159888D01*
X5363039Y-12159888D02*
X5363039Y-12102746D01*
X5363039Y-12102746D02*
X5372563Y-12083698D01*
X5372563Y-12083698D02*
X5382087Y-12074174D01*
X5382087Y-12074174D02*
X5401134Y-12064650D01*
X5401134Y-12064650D02*
X5429706Y-12064650D01*
X5429706Y-12064650D02*
X5448753Y-12074174D01*
X5448753Y-12074174D02*
X5458277Y-12083698D01*
X5458277Y-12083698D02*
X5467801Y-12102746D01*
X5467801Y-12102746D02*
X5467801Y-12159888D01*
X5467801Y-12159888D02*
X5458277Y-12178936D01*
X5458277Y-12178936D02*
X5448753Y-12188460D01*
X5448753Y-12188460D02*
X5429706Y-12197984D01*
X5429706Y-12197984D02*
X5401134Y-12197984D01*
X5582087Y-12197984D02*
X5563039Y-12188460D01*
X5563039Y-12188460D02*
X5553515Y-12169412D01*
X5553515Y-12169412D02*
X5553515Y-11997984D01*
X5734468Y-12188460D02*
X5715420Y-12197984D01*
X5715420Y-12197984D02*
X5677325Y-12197984D01*
X5677325Y-12197984D02*
X5658277Y-12188460D01*
X5658277Y-12188460D02*
X5648753Y-12169412D01*
X5648753Y-12169412D02*
X5648753Y-12093222D01*
X5648753Y-12093222D02*
X5658277Y-12074174D01*
X5658277Y-12074174D02*
X5677325Y-12064650D01*
X5677325Y-12064650D02*
X5715420Y-12064650D01*
X5715420Y-12064650D02*
X5734468Y-12074174D01*
X5734468Y-12074174D02*
X5743991Y-12093222D01*
X5743991Y-12093222D02*
X5743991Y-12112269D01*
X5743991Y-12112269D02*
X5648753Y-12131317D01*
X5810658Y-12274174D02*
X5820182Y-12264650D01*
X5820182Y-12264650D02*
X5839230Y-12236079D01*
X5839230Y-12236079D02*
X5848753Y-12217031D01*
X5848753Y-12217031D02*
X5858277Y-12188460D01*
X5858277Y-12188460D02*
X5867801Y-12140841D01*
X5867801Y-12140841D02*
X5867801Y-12102746D01*
X5867801Y-12102746D02*
X5858277Y-12055127D01*
X5858277Y-12055127D02*
X5848753Y-12026555D01*
X5848753Y-12026555D02*
X5839230Y-12007508D01*
X5839230Y-12007508D02*
X5820182Y-11978936D01*
X5820182Y-11978936D02*
X5810658Y-11969412D01*
D12*
X1157500Y-12330500D02*
X1157500Y-12410500D01*
X1117500Y-12370500D02*
X1197500Y-12370500D01*
D11*
X1496372Y-12261984D02*
X1515420Y-12261984D01*
X1515420Y-12261984D02*
X1534467Y-12271508D01*
X1534467Y-12271508D02*
X1543991Y-12281031D01*
X1543991Y-12281031D02*
X1553515Y-12300079D01*
X1553515Y-12300079D02*
X1563039Y-12338174D01*
X1563039Y-12338174D02*
X1563039Y-12385793D01*
X1563039Y-12385793D02*
X1553515Y-12423888D01*
X1553515Y-12423888D02*
X1543991Y-12442936D01*
X1543991Y-12442936D02*
X1534467Y-12452460D01*
X1534467Y-12452460D02*
X1515420Y-12461984D01*
X1515420Y-12461984D02*
X1496372Y-12461984D01*
X1496372Y-12461984D02*
X1477324Y-12452460D01*
X1477324Y-12452460D02*
X1467801Y-12442936D01*
X1467801Y-12442936D02*
X1458277Y-12423888D01*
X1458277Y-12423888D02*
X1448753Y-12385793D01*
X1448753Y-12385793D02*
X1448753Y-12338174D01*
X1448753Y-12338174D02*
X1458277Y-12300079D01*
X1458277Y-12300079D02*
X1467801Y-12281031D01*
X1467801Y-12281031D02*
X1477324Y-12271508D01*
X1477324Y-12271508D02*
X1496372Y-12261984D01*
X1648753Y-12442936D02*
X1658277Y-12452460D01*
X1658277Y-12452460D02*
X1648753Y-12461984D01*
X1648753Y-12461984D02*
X1639229Y-12452460D01*
X1639229Y-12452460D02*
X1648753Y-12442936D01*
X1648753Y-12442936D02*
X1648753Y-12461984D01*
X1772562Y-12347698D02*
X1753515Y-12338174D01*
X1753515Y-12338174D02*
X1743991Y-12328650D01*
X1743991Y-12328650D02*
X1734467Y-12309603D01*
X1734467Y-12309603D02*
X1734467Y-12300079D01*
X1734467Y-12300079D02*
X1743991Y-12281031D01*
X1743991Y-12281031D02*
X1753515Y-12271508D01*
X1753515Y-12271508D02*
X1772562Y-12261984D01*
X1772562Y-12261984D02*
X1810658Y-12261984D01*
X1810658Y-12261984D02*
X1829705Y-12271508D01*
X1829705Y-12271508D02*
X1839229Y-12281031D01*
X1839229Y-12281031D02*
X1848753Y-12300079D01*
X1848753Y-12300079D02*
X1848753Y-12309603D01*
X1848753Y-12309603D02*
X1839229Y-12328650D01*
X1839229Y-12328650D02*
X1829705Y-12338174D01*
X1829705Y-12338174D02*
X1810658Y-12347698D01*
X1810658Y-12347698D02*
X1772562Y-12347698D01*
X1772562Y-12347698D02*
X1753515Y-12357222D01*
X1753515Y-12357222D02*
X1743991Y-12366746D01*
X1743991Y-12366746D02*
X1734467Y-12385793D01*
X1734467Y-12385793D02*
X1734467Y-12423888D01*
X1734467Y-12423888D02*
X1743991Y-12442936D01*
X1743991Y-12442936D02*
X1753515Y-12452460D01*
X1753515Y-12452460D02*
X1772562Y-12461984D01*
X1772562Y-12461984D02*
X1810658Y-12461984D01*
X1810658Y-12461984D02*
X1829705Y-12452460D01*
X1829705Y-12452460D02*
X1839229Y-12442936D01*
X1839229Y-12442936D02*
X1848753Y-12423888D01*
X1848753Y-12423888D02*
X1848753Y-12385793D01*
X1848753Y-12385793D02*
X1839229Y-12366746D01*
X1839229Y-12366746D02*
X1829705Y-12357222D01*
X1829705Y-12357222D02*
X1810658Y-12347698D01*
X1972562Y-12261984D02*
X1991610Y-12261984D01*
X1991610Y-12261984D02*
X2010658Y-12271508D01*
X2010658Y-12271508D02*
X2020182Y-12281031D01*
X2020182Y-12281031D02*
X2029705Y-12300079D01*
X2029705Y-12300079D02*
X2039229Y-12338174D01*
X2039229Y-12338174D02*
X2039229Y-12385793D01*
X2039229Y-12385793D02*
X2029705Y-12423888D01*
X2029705Y-12423888D02*
X2020182Y-12442936D01*
X2020182Y-12442936D02*
X2010658Y-12452460D01*
X2010658Y-12452460D02*
X1991610Y-12461984D01*
X1991610Y-12461984D02*
X1972562Y-12461984D01*
X1972562Y-12461984D02*
X1953515Y-12452460D01*
X1953515Y-12452460D02*
X1943991Y-12442936D01*
X1943991Y-12442936D02*
X1934467Y-12423888D01*
X1934467Y-12423888D02*
X1924943Y-12385793D01*
X1924943Y-12385793D02*
X1924943Y-12338174D01*
X1924943Y-12338174D02*
X1934467Y-12300079D01*
X1934467Y-12300079D02*
X1943991Y-12281031D01*
X1943991Y-12281031D02*
X1953515Y-12271508D01*
X1953515Y-12271508D02*
X1972562Y-12261984D01*
X2163039Y-12261984D02*
X2182086Y-12261984D01*
X2182086Y-12261984D02*
X2201134Y-12271508D01*
X2201134Y-12271508D02*
X2210658Y-12281031D01*
X2210658Y-12281031D02*
X2220182Y-12300079D01*
X2220182Y-12300079D02*
X2229705Y-12338174D01*
X2229705Y-12338174D02*
X2229705Y-12385793D01*
X2229705Y-12385793D02*
X2220182Y-12423888D01*
X2220182Y-12423888D02*
X2210658Y-12442936D01*
X2210658Y-12442936D02*
X2201134Y-12452460D01*
X2201134Y-12452460D02*
X2182086Y-12461984D01*
X2182086Y-12461984D02*
X2163039Y-12461984D01*
X2163039Y-12461984D02*
X2143991Y-12452460D01*
X2143991Y-12452460D02*
X2134467Y-12442936D01*
X2134467Y-12442936D02*
X2124944Y-12423888D01*
X2124944Y-12423888D02*
X2115420Y-12385793D01*
X2115420Y-12385793D02*
X2115420Y-12338174D01*
X2115420Y-12338174D02*
X2124944Y-12300079D01*
X2124944Y-12300079D02*
X2134467Y-12281031D01*
X2134467Y-12281031D02*
X2143991Y-12271508D01*
X2143991Y-12271508D02*
X2163039Y-12261984D01*
X2315420Y-12461984D02*
X2315420Y-12328650D01*
X2315420Y-12347698D02*
X2324944Y-12338174D01*
X2324944Y-12338174D02*
X2343991Y-12328650D01*
X2343991Y-12328650D02*
X2372563Y-12328650D01*
X2372563Y-12328650D02*
X2391610Y-12338174D01*
X2391610Y-12338174D02*
X2401134Y-12357222D01*
X2401134Y-12357222D02*
X2401134Y-12461984D01*
X2401134Y-12357222D02*
X2410658Y-12338174D01*
X2410658Y-12338174D02*
X2429705Y-12328650D01*
X2429705Y-12328650D02*
X2458277Y-12328650D01*
X2458277Y-12328650D02*
X2477325Y-12338174D01*
X2477325Y-12338174D02*
X2486848Y-12357222D01*
X2486848Y-12357222D02*
X2486848Y-12461984D01*
X2582086Y-12461984D02*
X2582086Y-12328650D01*
X2582086Y-12347698D02*
X2591610Y-12338174D01*
X2591610Y-12338174D02*
X2610658Y-12328650D01*
X2610658Y-12328650D02*
X2639229Y-12328650D01*
X2639229Y-12328650D02*
X2658277Y-12338174D01*
X2658277Y-12338174D02*
X2667801Y-12357222D01*
X2667801Y-12357222D02*
X2667801Y-12461984D01*
X2667801Y-12357222D02*
X2677325Y-12338174D01*
X2677325Y-12338174D02*
X2696372Y-12328650D01*
X2696372Y-12328650D02*
X2724944Y-12328650D01*
X2724944Y-12328650D02*
X2743991Y-12338174D01*
X2743991Y-12338174D02*
X2753515Y-12357222D01*
X2753515Y-12357222D02*
X2753515Y-12461984D01*
X3143991Y-12252460D02*
X2972563Y-12509603D01*
X3401134Y-12261984D02*
X3420182Y-12261984D01*
X3420182Y-12261984D02*
X3439229Y-12271508D01*
X3439229Y-12271508D02*
X3448753Y-12281031D01*
X3448753Y-12281031D02*
X3458277Y-12300079D01*
X3458277Y-12300079D02*
X3467801Y-12338174D01*
X3467801Y-12338174D02*
X3467801Y-12385793D01*
X3467801Y-12385793D02*
X3458277Y-12423888D01*
X3458277Y-12423888D02*
X3448753Y-12442936D01*
X3448753Y-12442936D02*
X3439229Y-12452460D01*
X3439229Y-12452460D02*
X3420182Y-12461984D01*
X3420182Y-12461984D02*
X3401134Y-12461984D01*
X3401134Y-12461984D02*
X3382086Y-12452460D01*
X3382086Y-12452460D02*
X3372563Y-12442936D01*
X3372563Y-12442936D02*
X3363039Y-12423888D01*
X3363039Y-12423888D02*
X3353515Y-12385793D01*
X3353515Y-12385793D02*
X3353515Y-12338174D01*
X3353515Y-12338174D02*
X3363039Y-12300079D01*
X3363039Y-12300079D02*
X3372563Y-12281031D01*
X3372563Y-12281031D02*
X3382086Y-12271508D01*
X3382086Y-12271508D02*
X3401134Y-12261984D01*
X3553515Y-12442936D02*
X3563039Y-12452460D01*
X3563039Y-12452460D02*
X3553515Y-12461984D01*
X3553515Y-12461984D02*
X3543991Y-12452460D01*
X3543991Y-12452460D02*
X3553515Y-12442936D01*
X3553515Y-12442936D02*
X3553515Y-12461984D01*
X3686848Y-12261984D02*
X3705896Y-12261984D01*
X3705896Y-12261984D02*
X3724944Y-12271508D01*
X3724944Y-12271508D02*
X3734467Y-12281031D01*
X3734467Y-12281031D02*
X3743991Y-12300079D01*
X3743991Y-12300079D02*
X3753515Y-12338174D01*
X3753515Y-12338174D02*
X3753515Y-12385793D01*
X3753515Y-12385793D02*
X3743991Y-12423888D01*
X3743991Y-12423888D02*
X3734467Y-12442936D01*
X3734467Y-12442936D02*
X3724944Y-12452460D01*
X3724944Y-12452460D02*
X3705896Y-12461984D01*
X3705896Y-12461984D02*
X3686848Y-12461984D01*
X3686848Y-12461984D02*
X3667801Y-12452460D01*
X3667801Y-12452460D02*
X3658277Y-12442936D01*
X3658277Y-12442936D02*
X3648753Y-12423888D01*
X3648753Y-12423888D02*
X3639229Y-12385793D01*
X3639229Y-12385793D02*
X3639229Y-12338174D01*
X3639229Y-12338174D02*
X3648753Y-12300079D01*
X3648753Y-12300079D02*
X3658277Y-12281031D01*
X3658277Y-12281031D02*
X3667801Y-12271508D01*
X3667801Y-12271508D02*
X3686848Y-12261984D01*
X3820182Y-12261984D02*
X3943991Y-12261984D01*
X3943991Y-12261984D02*
X3877325Y-12338174D01*
X3877325Y-12338174D02*
X3905896Y-12338174D01*
X3905896Y-12338174D02*
X3924944Y-12347698D01*
X3924944Y-12347698D02*
X3934467Y-12357222D01*
X3934467Y-12357222D02*
X3943991Y-12376269D01*
X3943991Y-12376269D02*
X3943991Y-12423888D01*
X3943991Y-12423888D02*
X3934467Y-12442936D01*
X3934467Y-12442936D02*
X3924944Y-12452460D01*
X3924944Y-12452460D02*
X3905896Y-12461984D01*
X3905896Y-12461984D02*
X3848753Y-12461984D01*
X3848753Y-12461984D02*
X3829706Y-12452460D01*
X3829706Y-12452460D02*
X3820182Y-12442936D01*
X4134467Y-12461984D02*
X4020182Y-12461984D01*
X4077325Y-12461984D02*
X4077325Y-12261984D01*
X4077325Y-12261984D02*
X4058277Y-12290555D01*
X4058277Y-12290555D02*
X4039229Y-12309603D01*
X4039229Y-12309603D02*
X4020182Y-12319127D01*
X4315420Y-12261984D02*
X4220182Y-12261984D01*
X4220182Y-12261984D02*
X4210658Y-12357222D01*
X4210658Y-12357222D02*
X4220182Y-12347698D01*
X4220182Y-12347698D02*
X4239229Y-12338174D01*
X4239229Y-12338174D02*
X4286849Y-12338174D01*
X4286849Y-12338174D02*
X4305896Y-12347698D01*
X4305896Y-12347698D02*
X4315420Y-12357222D01*
X4315420Y-12357222D02*
X4324944Y-12376269D01*
X4324944Y-12376269D02*
X4324944Y-12423888D01*
X4324944Y-12423888D02*
X4315420Y-12442936D01*
X4315420Y-12442936D02*
X4305896Y-12452460D01*
X4305896Y-12452460D02*
X4286849Y-12461984D01*
X4286849Y-12461984D02*
X4239229Y-12461984D01*
X4239229Y-12461984D02*
X4220182Y-12452460D01*
X4220182Y-12452460D02*
X4210658Y-12442936D01*
X4401134Y-12261984D02*
X4401134Y-12300079D01*
X4477325Y-12261984D02*
X4477325Y-12300079D01*
X4772563Y-12538174D02*
X4763039Y-12528650D01*
X4763039Y-12528650D02*
X4743991Y-12500079D01*
X4743991Y-12500079D02*
X4734468Y-12481031D01*
X4734468Y-12481031D02*
X4724944Y-12452460D01*
X4724944Y-12452460D02*
X4715420Y-12404841D01*
X4715420Y-12404841D02*
X4715420Y-12366746D01*
X4715420Y-12366746D02*
X4724944Y-12319127D01*
X4724944Y-12319127D02*
X4734468Y-12290555D01*
X4734468Y-12290555D02*
X4743991Y-12271508D01*
X4743991Y-12271508D02*
X4763039Y-12242936D01*
X4763039Y-12242936D02*
X4772563Y-12233412D01*
X4829706Y-12261984D02*
X4953515Y-12261984D01*
X4953515Y-12261984D02*
X4886849Y-12338174D01*
X4886849Y-12338174D02*
X4915420Y-12338174D01*
X4915420Y-12338174D02*
X4934468Y-12347698D01*
X4934468Y-12347698D02*
X4943991Y-12357222D01*
X4943991Y-12357222D02*
X4953515Y-12376269D01*
X4953515Y-12376269D02*
X4953515Y-12423888D01*
X4953515Y-12423888D02*
X4943991Y-12442936D01*
X4943991Y-12442936D02*
X4934468Y-12452460D01*
X4934468Y-12452460D02*
X4915420Y-12461984D01*
X4915420Y-12461984D02*
X4858277Y-12461984D01*
X4858277Y-12461984D02*
X4839230Y-12452460D01*
X4839230Y-12452460D02*
X4829706Y-12442936D01*
X5191611Y-12461984D02*
X5191611Y-12261984D01*
X5277325Y-12461984D02*
X5277325Y-12357222D01*
X5277325Y-12357222D02*
X5267801Y-12338174D01*
X5267801Y-12338174D02*
X5248753Y-12328650D01*
X5248753Y-12328650D02*
X5220182Y-12328650D01*
X5220182Y-12328650D02*
X5201134Y-12338174D01*
X5201134Y-12338174D02*
X5191611Y-12347698D01*
X5401134Y-12461984D02*
X5382087Y-12452460D01*
X5382087Y-12452460D02*
X5372563Y-12442936D01*
X5372563Y-12442936D02*
X5363039Y-12423888D01*
X5363039Y-12423888D02*
X5363039Y-12366746D01*
X5363039Y-12366746D02*
X5372563Y-12347698D01*
X5372563Y-12347698D02*
X5382087Y-12338174D01*
X5382087Y-12338174D02*
X5401134Y-12328650D01*
X5401134Y-12328650D02*
X5429706Y-12328650D01*
X5429706Y-12328650D02*
X5448753Y-12338174D01*
X5448753Y-12338174D02*
X5458277Y-12347698D01*
X5458277Y-12347698D02*
X5467801Y-12366746D01*
X5467801Y-12366746D02*
X5467801Y-12423888D01*
X5467801Y-12423888D02*
X5458277Y-12442936D01*
X5458277Y-12442936D02*
X5448753Y-12452460D01*
X5448753Y-12452460D02*
X5429706Y-12461984D01*
X5429706Y-12461984D02*
X5401134Y-12461984D01*
X5582087Y-12461984D02*
X5563039Y-12452460D01*
X5563039Y-12452460D02*
X5553515Y-12433412D01*
X5553515Y-12433412D02*
X5553515Y-12261984D01*
X5734468Y-12452460D02*
X5715420Y-12461984D01*
X5715420Y-12461984D02*
X5677325Y-12461984D01*
X5677325Y-12461984D02*
X5658277Y-12452460D01*
X5658277Y-12452460D02*
X5648753Y-12433412D01*
X5648753Y-12433412D02*
X5648753Y-12357222D01*
X5648753Y-12357222D02*
X5658277Y-12338174D01*
X5658277Y-12338174D02*
X5677325Y-12328650D01*
X5677325Y-12328650D02*
X5715420Y-12328650D01*
X5715420Y-12328650D02*
X5734468Y-12338174D01*
X5734468Y-12338174D02*
X5743991Y-12357222D01*
X5743991Y-12357222D02*
X5743991Y-12376269D01*
X5743991Y-12376269D02*
X5648753Y-12395317D01*
X5820182Y-12452460D02*
X5839230Y-12461984D01*
X5839230Y-12461984D02*
X5877325Y-12461984D01*
X5877325Y-12461984D02*
X5896372Y-12452460D01*
X5896372Y-12452460D02*
X5905896Y-12433412D01*
X5905896Y-12433412D02*
X5905896Y-12423888D01*
X5905896Y-12423888D02*
X5896372Y-12404841D01*
X5896372Y-12404841D02*
X5877325Y-12395317D01*
X5877325Y-12395317D02*
X5848753Y-12395317D01*
X5848753Y-12395317D02*
X5829706Y-12385793D01*
X5829706Y-12385793D02*
X5820182Y-12366746D01*
X5820182Y-12366746D02*
X5820182Y-12357222D01*
X5820182Y-12357222D02*
X5829706Y-12338174D01*
X5829706Y-12338174D02*
X5848753Y-12328650D01*
X5848753Y-12328650D02*
X5877325Y-12328650D01*
X5877325Y-12328650D02*
X5896372Y-12338174D01*
X5972563Y-12538174D02*
X5982087Y-12528650D01*
X5982087Y-12528650D02*
X6001134Y-12500079D01*
X6001134Y-12500079D02*
X6010658Y-12481031D01*
X6010658Y-12481031D02*
X6020182Y-12452460D01*
X6020182Y-12452460D02*
X6029706Y-12404841D01*
X6029706Y-12404841D02*
X6029706Y-12366746D01*
X6029706Y-12366746D02*
X6020182Y-12319127D01*
X6020182Y-12319127D02*
X6010658Y-12290555D01*
X6010658Y-12290555D02*
X6001134Y-12271508D01*
X6001134Y-12271508D02*
X5982087Y-12242936D01*
X5982087Y-12242936D02*
X5972563Y-12233412D01*
D12*
X1183588Y-12668088D02*
X1183588Y-12600912D01*
X1116412Y-12600912D01*
X1116412Y-12668088D01*
X1183588Y-12668088D01*
D11*
X1496372Y-12525984D02*
X1515420Y-12525984D01*
X1515420Y-12525984D02*
X1534467Y-12535508D01*
X1534467Y-12535508D02*
X1543991Y-12545031D01*
X1543991Y-12545031D02*
X1553515Y-12564079D01*
X1553515Y-12564079D02*
X1563039Y-12602174D01*
X1563039Y-12602174D02*
X1563039Y-12649793D01*
X1563039Y-12649793D02*
X1553515Y-12687888D01*
X1553515Y-12687888D02*
X1543991Y-12706936D01*
X1543991Y-12706936D02*
X1534467Y-12716460D01*
X1534467Y-12716460D02*
X1515420Y-12725984D01*
X1515420Y-12725984D02*
X1496372Y-12725984D01*
X1496372Y-12725984D02*
X1477324Y-12716460D01*
X1477324Y-12716460D02*
X1467801Y-12706936D01*
X1467801Y-12706936D02*
X1458277Y-12687888D01*
X1458277Y-12687888D02*
X1448753Y-12649793D01*
X1448753Y-12649793D02*
X1448753Y-12602174D01*
X1448753Y-12602174D02*
X1458277Y-12564079D01*
X1458277Y-12564079D02*
X1467801Y-12545031D01*
X1467801Y-12545031D02*
X1477324Y-12535508D01*
X1477324Y-12535508D02*
X1496372Y-12525984D01*
X1648753Y-12706936D02*
X1658277Y-12716460D01*
X1658277Y-12716460D02*
X1648753Y-12725984D01*
X1648753Y-12725984D02*
X1639229Y-12716460D01*
X1639229Y-12716460D02*
X1648753Y-12706936D01*
X1648753Y-12706936D02*
X1648753Y-12725984D01*
X1753515Y-12725984D02*
X1791610Y-12725984D01*
X1791610Y-12725984D02*
X1810658Y-12716460D01*
X1810658Y-12716460D02*
X1820182Y-12706936D01*
X1820182Y-12706936D02*
X1839229Y-12678365D01*
X1839229Y-12678365D02*
X1848753Y-12640269D01*
X1848753Y-12640269D02*
X1848753Y-12564079D01*
X1848753Y-12564079D02*
X1839229Y-12545031D01*
X1839229Y-12545031D02*
X1829705Y-12535508D01*
X1829705Y-12535508D02*
X1810658Y-12525984D01*
X1810658Y-12525984D02*
X1772562Y-12525984D01*
X1772562Y-12525984D02*
X1753515Y-12535508D01*
X1753515Y-12535508D02*
X1743991Y-12545031D01*
X1743991Y-12545031D02*
X1734467Y-12564079D01*
X1734467Y-12564079D02*
X1734467Y-12611698D01*
X1734467Y-12611698D02*
X1743991Y-12630746D01*
X1743991Y-12630746D02*
X1753515Y-12640269D01*
X1753515Y-12640269D02*
X1772562Y-12649793D01*
X1772562Y-12649793D02*
X1810658Y-12649793D01*
X1810658Y-12649793D02*
X1829705Y-12640269D01*
X1829705Y-12640269D02*
X1839229Y-12630746D01*
X1839229Y-12630746D02*
X1848753Y-12611698D01*
X2029705Y-12525984D02*
X1934467Y-12525984D01*
X1934467Y-12525984D02*
X1924943Y-12621222D01*
X1924943Y-12621222D02*
X1934467Y-12611698D01*
X1934467Y-12611698D02*
X1953515Y-12602174D01*
X1953515Y-12602174D02*
X2001134Y-12602174D01*
X2001134Y-12602174D02*
X2020182Y-12611698D01*
X2020182Y-12611698D02*
X2029705Y-12621222D01*
X2029705Y-12621222D02*
X2039229Y-12640269D01*
X2039229Y-12640269D02*
X2039229Y-12687888D01*
X2039229Y-12687888D02*
X2029705Y-12706936D01*
X2029705Y-12706936D02*
X2020182Y-12716460D01*
X2020182Y-12716460D02*
X2001134Y-12725984D01*
X2001134Y-12725984D02*
X1953515Y-12725984D01*
X1953515Y-12725984D02*
X1934467Y-12716460D01*
X1934467Y-12716460D02*
X1924943Y-12706936D01*
X2163039Y-12525984D02*
X2182086Y-12525984D01*
X2182086Y-12525984D02*
X2201134Y-12535508D01*
X2201134Y-12535508D02*
X2210658Y-12545031D01*
X2210658Y-12545031D02*
X2220182Y-12564079D01*
X2220182Y-12564079D02*
X2229705Y-12602174D01*
X2229705Y-12602174D02*
X2229705Y-12649793D01*
X2229705Y-12649793D02*
X2220182Y-12687888D01*
X2220182Y-12687888D02*
X2210658Y-12706936D01*
X2210658Y-12706936D02*
X2201134Y-12716460D01*
X2201134Y-12716460D02*
X2182086Y-12725984D01*
X2182086Y-12725984D02*
X2163039Y-12725984D01*
X2163039Y-12725984D02*
X2143991Y-12716460D01*
X2143991Y-12716460D02*
X2134467Y-12706936D01*
X2134467Y-12706936D02*
X2124944Y-12687888D01*
X2124944Y-12687888D02*
X2115420Y-12649793D01*
X2115420Y-12649793D02*
X2115420Y-12602174D01*
X2115420Y-12602174D02*
X2124944Y-12564079D01*
X2124944Y-12564079D02*
X2134467Y-12545031D01*
X2134467Y-12545031D02*
X2143991Y-12535508D01*
X2143991Y-12535508D02*
X2163039Y-12525984D01*
X2315420Y-12725984D02*
X2315420Y-12592650D01*
X2315420Y-12611698D02*
X2324944Y-12602174D01*
X2324944Y-12602174D02*
X2343991Y-12592650D01*
X2343991Y-12592650D02*
X2372563Y-12592650D01*
X2372563Y-12592650D02*
X2391610Y-12602174D01*
X2391610Y-12602174D02*
X2401134Y-12621222D01*
X2401134Y-12621222D02*
X2401134Y-12725984D01*
X2401134Y-12621222D02*
X2410658Y-12602174D01*
X2410658Y-12602174D02*
X2429705Y-12592650D01*
X2429705Y-12592650D02*
X2458277Y-12592650D01*
X2458277Y-12592650D02*
X2477325Y-12602174D01*
X2477325Y-12602174D02*
X2486848Y-12621222D01*
X2486848Y-12621222D02*
X2486848Y-12725984D01*
X2582086Y-12725984D02*
X2582086Y-12592650D01*
X2582086Y-12611698D02*
X2591610Y-12602174D01*
X2591610Y-12602174D02*
X2610658Y-12592650D01*
X2610658Y-12592650D02*
X2639229Y-12592650D01*
X2639229Y-12592650D02*
X2658277Y-12602174D01*
X2658277Y-12602174D02*
X2667801Y-12621222D01*
X2667801Y-12621222D02*
X2667801Y-12725984D01*
X2667801Y-12621222D02*
X2677325Y-12602174D01*
X2677325Y-12602174D02*
X2696372Y-12592650D01*
X2696372Y-12592650D02*
X2724944Y-12592650D01*
X2724944Y-12592650D02*
X2743991Y-12602174D01*
X2743991Y-12602174D02*
X2753515Y-12621222D01*
X2753515Y-12621222D02*
X2753515Y-12725984D01*
X3143991Y-12516460D02*
X2972563Y-12773603D01*
X3401134Y-12525984D02*
X3420182Y-12525984D01*
X3420182Y-12525984D02*
X3439229Y-12535508D01*
X3439229Y-12535508D02*
X3448753Y-12545031D01*
X3448753Y-12545031D02*
X3458277Y-12564079D01*
X3458277Y-12564079D02*
X3467801Y-12602174D01*
X3467801Y-12602174D02*
X3467801Y-12649793D01*
X3467801Y-12649793D02*
X3458277Y-12687888D01*
X3458277Y-12687888D02*
X3448753Y-12706936D01*
X3448753Y-12706936D02*
X3439229Y-12716460D01*
X3439229Y-12716460D02*
X3420182Y-12725984D01*
X3420182Y-12725984D02*
X3401134Y-12725984D01*
X3401134Y-12725984D02*
X3382086Y-12716460D01*
X3382086Y-12716460D02*
X3372563Y-12706936D01*
X3372563Y-12706936D02*
X3363039Y-12687888D01*
X3363039Y-12687888D02*
X3353515Y-12649793D01*
X3353515Y-12649793D02*
X3353515Y-12602174D01*
X3353515Y-12602174D02*
X3363039Y-12564079D01*
X3363039Y-12564079D02*
X3372563Y-12545031D01*
X3372563Y-12545031D02*
X3382086Y-12535508D01*
X3382086Y-12535508D02*
X3401134Y-12525984D01*
X3553515Y-12706936D02*
X3563039Y-12716460D01*
X3563039Y-12716460D02*
X3553515Y-12725984D01*
X3553515Y-12725984D02*
X3543991Y-12716460D01*
X3543991Y-12716460D02*
X3553515Y-12706936D01*
X3553515Y-12706936D02*
X3553515Y-12725984D01*
X3686848Y-12525984D02*
X3705896Y-12525984D01*
X3705896Y-12525984D02*
X3724944Y-12535508D01*
X3724944Y-12535508D02*
X3734467Y-12545031D01*
X3734467Y-12545031D02*
X3743991Y-12564079D01*
X3743991Y-12564079D02*
X3753515Y-12602174D01*
X3753515Y-12602174D02*
X3753515Y-12649793D01*
X3753515Y-12649793D02*
X3743991Y-12687888D01*
X3743991Y-12687888D02*
X3734467Y-12706936D01*
X3734467Y-12706936D02*
X3724944Y-12716460D01*
X3724944Y-12716460D02*
X3705896Y-12725984D01*
X3705896Y-12725984D02*
X3686848Y-12725984D01*
X3686848Y-12725984D02*
X3667801Y-12716460D01*
X3667801Y-12716460D02*
X3658277Y-12706936D01*
X3658277Y-12706936D02*
X3648753Y-12687888D01*
X3648753Y-12687888D02*
X3639229Y-12649793D01*
X3639229Y-12649793D02*
X3639229Y-12602174D01*
X3639229Y-12602174D02*
X3648753Y-12564079D01*
X3648753Y-12564079D02*
X3658277Y-12545031D01*
X3658277Y-12545031D02*
X3667801Y-12535508D01*
X3667801Y-12535508D02*
X3686848Y-12525984D01*
X3820182Y-12525984D02*
X3943991Y-12525984D01*
X3943991Y-12525984D02*
X3877325Y-12602174D01*
X3877325Y-12602174D02*
X3905896Y-12602174D01*
X3905896Y-12602174D02*
X3924944Y-12611698D01*
X3924944Y-12611698D02*
X3934467Y-12621222D01*
X3934467Y-12621222D02*
X3943991Y-12640269D01*
X3943991Y-12640269D02*
X3943991Y-12687888D01*
X3943991Y-12687888D02*
X3934467Y-12706936D01*
X3934467Y-12706936D02*
X3924944Y-12716460D01*
X3924944Y-12716460D02*
X3905896Y-12725984D01*
X3905896Y-12725984D02*
X3848753Y-12725984D01*
X3848753Y-12725984D02*
X3829706Y-12716460D01*
X3829706Y-12716460D02*
X3820182Y-12706936D01*
X4010658Y-12525984D02*
X4143991Y-12525984D01*
X4143991Y-12525984D02*
X4058277Y-12725984D01*
X4305896Y-12592650D02*
X4305896Y-12725984D01*
X4258277Y-12516460D02*
X4210658Y-12659317D01*
X4210658Y-12659317D02*
X4334468Y-12659317D01*
X4401134Y-12525984D02*
X4401134Y-12564079D01*
X4477325Y-12525984D02*
X4477325Y-12564079D01*
X4772563Y-12802174D02*
X4763039Y-12792650D01*
X4763039Y-12792650D02*
X4743991Y-12764079D01*
X4743991Y-12764079D02*
X4734468Y-12745031D01*
X4734468Y-12745031D02*
X4724944Y-12716460D01*
X4724944Y-12716460D02*
X4715420Y-12668841D01*
X4715420Y-12668841D02*
X4715420Y-12630746D01*
X4715420Y-12630746D02*
X4724944Y-12583127D01*
X4724944Y-12583127D02*
X4734468Y-12554555D01*
X4734468Y-12554555D02*
X4743991Y-12535508D01*
X4743991Y-12535508D02*
X4763039Y-12506936D01*
X4763039Y-12506936D02*
X4772563Y-12497412D01*
X4877325Y-12611698D02*
X4858277Y-12602174D01*
X4858277Y-12602174D02*
X4848753Y-12592650D01*
X4848753Y-12592650D02*
X4839230Y-12573603D01*
X4839230Y-12573603D02*
X4839230Y-12564079D01*
X4839230Y-12564079D02*
X4848753Y-12545031D01*
X4848753Y-12545031D02*
X4858277Y-12535508D01*
X4858277Y-12535508D02*
X4877325Y-12525984D01*
X4877325Y-12525984D02*
X4915420Y-12525984D01*
X4915420Y-12525984D02*
X4934468Y-12535508D01*
X4934468Y-12535508D02*
X4943991Y-12545031D01*
X4943991Y-12545031D02*
X4953515Y-12564079D01*
X4953515Y-12564079D02*
X4953515Y-12573603D01*
X4953515Y-12573603D02*
X4943991Y-12592650D01*
X4943991Y-12592650D02*
X4934468Y-12602174D01*
X4934468Y-12602174D02*
X4915420Y-12611698D01*
X4915420Y-12611698D02*
X4877325Y-12611698D01*
X4877325Y-12611698D02*
X4858277Y-12621222D01*
X4858277Y-12621222D02*
X4848753Y-12630746D01*
X4848753Y-12630746D02*
X4839230Y-12649793D01*
X4839230Y-12649793D02*
X4839230Y-12687888D01*
X4839230Y-12687888D02*
X4848753Y-12706936D01*
X4848753Y-12706936D02*
X4858277Y-12716460D01*
X4858277Y-12716460D02*
X4877325Y-12725984D01*
X4877325Y-12725984D02*
X4915420Y-12725984D01*
X4915420Y-12725984D02*
X4934468Y-12716460D01*
X4934468Y-12716460D02*
X4943991Y-12706936D01*
X4943991Y-12706936D02*
X4953515Y-12687888D01*
X4953515Y-12687888D02*
X4953515Y-12649793D01*
X4953515Y-12649793D02*
X4943991Y-12630746D01*
X4943991Y-12630746D02*
X4934468Y-12621222D01*
X4934468Y-12621222D02*
X4915420Y-12611698D01*
X5191611Y-12725984D02*
X5191611Y-12525984D01*
X5277325Y-12725984D02*
X5277325Y-12621222D01*
X5277325Y-12621222D02*
X5267801Y-12602174D01*
X5267801Y-12602174D02*
X5248753Y-12592650D01*
X5248753Y-12592650D02*
X5220182Y-12592650D01*
X5220182Y-12592650D02*
X5201134Y-12602174D01*
X5201134Y-12602174D02*
X5191611Y-12611698D01*
X5401134Y-12725984D02*
X5382087Y-12716460D01*
X5382087Y-12716460D02*
X5372563Y-12706936D01*
X5372563Y-12706936D02*
X5363039Y-12687888D01*
X5363039Y-12687888D02*
X5363039Y-12630746D01*
X5363039Y-12630746D02*
X5372563Y-12611698D01*
X5372563Y-12611698D02*
X5382087Y-12602174D01*
X5382087Y-12602174D02*
X5401134Y-12592650D01*
X5401134Y-12592650D02*
X5429706Y-12592650D01*
X5429706Y-12592650D02*
X5448753Y-12602174D01*
X5448753Y-12602174D02*
X5458277Y-12611698D01*
X5458277Y-12611698D02*
X5467801Y-12630746D01*
X5467801Y-12630746D02*
X5467801Y-12687888D01*
X5467801Y-12687888D02*
X5458277Y-12706936D01*
X5458277Y-12706936D02*
X5448753Y-12716460D01*
X5448753Y-12716460D02*
X5429706Y-12725984D01*
X5429706Y-12725984D02*
X5401134Y-12725984D01*
X5582087Y-12725984D02*
X5563039Y-12716460D01*
X5563039Y-12716460D02*
X5553515Y-12697412D01*
X5553515Y-12697412D02*
X5553515Y-12525984D01*
X5734468Y-12716460D02*
X5715420Y-12725984D01*
X5715420Y-12725984D02*
X5677325Y-12725984D01*
X5677325Y-12725984D02*
X5658277Y-12716460D01*
X5658277Y-12716460D02*
X5648753Y-12697412D01*
X5648753Y-12697412D02*
X5648753Y-12621222D01*
X5648753Y-12621222D02*
X5658277Y-12602174D01*
X5658277Y-12602174D02*
X5677325Y-12592650D01*
X5677325Y-12592650D02*
X5715420Y-12592650D01*
X5715420Y-12592650D02*
X5734468Y-12602174D01*
X5734468Y-12602174D02*
X5743991Y-12621222D01*
X5743991Y-12621222D02*
X5743991Y-12640269D01*
X5743991Y-12640269D02*
X5648753Y-12659317D01*
X5820182Y-12716460D02*
X5839230Y-12725984D01*
X5839230Y-12725984D02*
X5877325Y-12725984D01*
X5877325Y-12725984D02*
X5896372Y-12716460D01*
X5896372Y-12716460D02*
X5905896Y-12697412D01*
X5905896Y-12697412D02*
X5905896Y-12687888D01*
X5905896Y-12687888D02*
X5896372Y-12668841D01*
X5896372Y-12668841D02*
X5877325Y-12659317D01*
X5877325Y-12659317D02*
X5848753Y-12659317D01*
X5848753Y-12659317D02*
X5829706Y-12649793D01*
X5829706Y-12649793D02*
X5820182Y-12630746D01*
X5820182Y-12630746D02*
X5820182Y-12621222D01*
X5820182Y-12621222D02*
X5829706Y-12602174D01*
X5829706Y-12602174D02*
X5848753Y-12592650D01*
X5848753Y-12592650D02*
X5877325Y-12592650D01*
X5877325Y-12592650D02*
X5896372Y-12602174D01*
X5972563Y-12802174D02*
X5982087Y-12792650D01*
X5982087Y-12792650D02*
X6001134Y-12764079D01*
X6001134Y-12764079D02*
X6010658Y-12745031D01*
X6010658Y-12745031D02*
X6020182Y-12716460D01*
X6020182Y-12716460D02*
X6029706Y-12668841D01*
X6029706Y-12668841D02*
X6029706Y-12630746D01*
X6029706Y-12630746D02*
X6020182Y-12583127D01*
X6020182Y-12583127D02*
X6010658Y-12554555D01*
X6010658Y-12554555D02*
X6001134Y-12535508D01*
X6001134Y-12535508D02*
X5982087Y-12506936D01*
X5982087Y-12506936D02*
X5972563Y-12497412D01*
D12*
X1147500Y-12948500D02*
X1197500Y-12898500D01*
X1147500Y-12848500D01*
X1097500Y-12898500D01*
X1147500Y-12948500D01*
D11*
X1563039Y-12989984D02*
X1448753Y-12989984D01*
X1505896Y-12989984D02*
X1505896Y-12789984D01*
X1505896Y-12789984D02*
X1486848Y-12818555D01*
X1486848Y-12818555D02*
X1467801Y-12837603D01*
X1467801Y-12837603D02*
X1448753Y-12847127D01*
X1648753Y-12970936D02*
X1658277Y-12980460D01*
X1658277Y-12980460D02*
X1648753Y-12989984D01*
X1648753Y-12989984D02*
X1639229Y-12980460D01*
X1639229Y-12980460D02*
X1648753Y-12970936D01*
X1648753Y-12970936D02*
X1648753Y-12989984D01*
X1782086Y-12789984D02*
X1801134Y-12789984D01*
X1801134Y-12789984D02*
X1820182Y-12799508D01*
X1820182Y-12799508D02*
X1829705Y-12809031D01*
X1829705Y-12809031D02*
X1839229Y-12828079D01*
X1839229Y-12828079D02*
X1848753Y-12866174D01*
X1848753Y-12866174D02*
X1848753Y-12913793D01*
X1848753Y-12913793D02*
X1839229Y-12951888D01*
X1839229Y-12951888D02*
X1829705Y-12970936D01*
X1829705Y-12970936D02*
X1820182Y-12980460D01*
X1820182Y-12980460D02*
X1801134Y-12989984D01*
X1801134Y-12989984D02*
X1782086Y-12989984D01*
X1782086Y-12989984D02*
X1763039Y-12980460D01*
X1763039Y-12980460D02*
X1753515Y-12970936D01*
X1753515Y-12970936D02*
X1743991Y-12951888D01*
X1743991Y-12951888D02*
X1734467Y-12913793D01*
X1734467Y-12913793D02*
X1734467Y-12866174D01*
X1734467Y-12866174D02*
X1743991Y-12828079D01*
X1743991Y-12828079D02*
X1753515Y-12809031D01*
X1753515Y-12809031D02*
X1763039Y-12799508D01*
X1763039Y-12799508D02*
X1782086Y-12789984D01*
X1972562Y-12789984D02*
X1991610Y-12789984D01*
X1991610Y-12789984D02*
X2010658Y-12799508D01*
X2010658Y-12799508D02*
X2020182Y-12809031D01*
X2020182Y-12809031D02*
X2029705Y-12828079D01*
X2029705Y-12828079D02*
X2039229Y-12866174D01*
X2039229Y-12866174D02*
X2039229Y-12913793D01*
X2039229Y-12913793D02*
X2029705Y-12951888D01*
X2029705Y-12951888D02*
X2020182Y-12970936D01*
X2020182Y-12970936D02*
X2010658Y-12980460D01*
X2010658Y-12980460D02*
X1991610Y-12989984D01*
X1991610Y-12989984D02*
X1972562Y-12989984D01*
X1972562Y-12989984D02*
X1953515Y-12980460D01*
X1953515Y-12980460D02*
X1943991Y-12970936D01*
X1943991Y-12970936D02*
X1934467Y-12951888D01*
X1934467Y-12951888D02*
X1924943Y-12913793D01*
X1924943Y-12913793D02*
X1924943Y-12866174D01*
X1924943Y-12866174D02*
X1934467Y-12828079D01*
X1934467Y-12828079D02*
X1943991Y-12809031D01*
X1943991Y-12809031D02*
X1953515Y-12799508D01*
X1953515Y-12799508D02*
X1972562Y-12789984D01*
X2163039Y-12789984D02*
X2182086Y-12789984D01*
X2182086Y-12789984D02*
X2201134Y-12799508D01*
X2201134Y-12799508D02*
X2210658Y-12809031D01*
X2210658Y-12809031D02*
X2220182Y-12828079D01*
X2220182Y-12828079D02*
X2229705Y-12866174D01*
X2229705Y-12866174D02*
X2229705Y-12913793D01*
X2229705Y-12913793D02*
X2220182Y-12951888D01*
X2220182Y-12951888D02*
X2210658Y-12970936D01*
X2210658Y-12970936D02*
X2201134Y-12980460D01*
X2201134Y-12980460D02*
X2182086Y-12989984D01*
X2182086Y-12989984D02*
X2163039Y-12989984D01*
X2163039Y-12989984D02*
X2143991Y-12980460D01*
X2143991Y-12980460D02*
X2134467Y-12970936D01*
X2134467Y-12970936D02*
X2124944Y-12951888D01*
X2124944Y-12951888D02*
X2115420Y-12913793D01*
X2115420Y-12913793D02*
X2115420Y-12866174D01*
X2115420Y-12866174D02*
X2124944Y-12828079D01*
X2124944Y-12828079D02*
X2134467Y-12809031D01*
X2134467Y-12809031D02*
X2143991Y-12799508D01*
X2143991Y-12799508D02*
X2163039Y-12789984D01*
X2315420Y-12989984D02*
X2315420Y-12856650D01*
X2315420Y-12875698D02*
X2324944Y-12866174D01*
X2324944Y-12866174D02*
X2343991Y-12856650D01*
X2343991Y-12856650D02*
X2372563Y-12856650D01*
X2372563Y-12856650D02*
X2391610Y-12866174D01*
X2391610Y-12866174D02*
X2401134Y-12885222D01*
X2401134Y-12885222D02*
X2401134Y-12989984D01*
X2401134Y-12885222D02*
X2410658Y-12866174D01*
X2410658Y-12866174D02*
X2429705Y-12856650D01*
X2429705Y-12856650D02*
X2458277Y-12856650D01*
X2458277Y-12856650D02*
X2477325Y-12866174D01*
X2477325Y-12866174D02*
X2486848Y-12885222D01*
X2486848Y-12885222D02*
X2486848Y-12989984D01*
X2582086Y-12989984D02*
X2582086Y-12856650D01*
X2582086Y-12875698D02*
X2591610Y-12866174D01*
X2591610Y-12866174D02*
X2610658Y-12856650D01*
X2610658Y-12856650D02*
X2639229Y-12856650D01*
X2639229Y-12856650D02*
X2658277Y-12866174D01*
X2658277Y-12866174D02*
X2667801Y-12885222D01*
X2667801Y-12885222D02*
X2667801Y-12989984D01*
X2667801Y-12885222D02*
X2677325Y-12866174D01*
X2677325Y-12866174D02*
X2696372Y-12856650D01*
X2696372Y-12856650D02*
X2724944Y-12856650D01*
X2724944Y-12856650D02*
X2743991Y-12866174D01*
X2743991Y-12866174D02*
X2753515Y-12885222D01*
X2753515Y-12885222D02*
X2753515Y-12989984D01*
X3143991Y-12780460D02*
X2972563Y-13037603D01*
X3401134Y-12789984D02*
X3420182Y-12789984D01*
X3420182Y-12789984D02*
X3439229Y-12799508D01*
X3439229Y-12799508D02*
X3448753Y-12809031D01*
X3448753Y-12809031D02*
X3458277Y-12828079D01*
X3458277Y-12828079D02*
X3467801Y-12866174D01*
X3467801Y-12866174D02*
X3467801Y-12913793D01*
X3467801Y-12913793D02*
X3458277Y-12951888D01*
X3458277Y-12951888D02*
X3448753Y-12970936D01*
X3448753Y-12970936D02*
X3439229Y-12980460D01*
X3439229Y-12980460D02*
X3420182Y-12989984D01*
X3420182Y-12989984D02*
X3401134Y-12989984D01*
X3401134Y-12989984D02*
X3382086Y-12980460D01*
X3382086Y-12980460D02*
X3372563Y-12970936D01*
X3372563Y-12970936D02*
X3363039Y-12951888D01*
X3363039Y-12951888D02*
X3353515Y-12913793D01*
X3353515Y-12913793D02*
X3353515Y-12866174D01*
X3353515Y-12866174D02*
X3363039Y-12828079D01*
X3363039Y-12828079D02*
X3372563Y-12809031D01*
X3372563Y-12809031D02*
X3382086Y-12799508D01*
X3382086Y-12799508D02*
X3401134Y-12789984D01*
X3553515Y-12970936D02*
X3563039Y-12980460D01*
X3563039Y-12980460D02*
X3553515Y-12989984D01*
X3553515Y-12989984D02*
X3543991Y-12980460D01*
X3543991Y-12980460D02*
X3553515Y-12970936D01*
X3553515Y-12970936D02*
X3553515Y-12989984D01*
X3686848Y-12789984D02*
X3705896Y-12789984D01*
X3705896Y-12789984D02*
X3724944Y-12799508D01*
X3724944Y-12799508D02*
X3734467Y-12809031D01*
X3734467Y-12809031D02*
X3743991Y-12828079D01*
X3743991Y-12828079D02*
X3753515Y-12866174D01*
X3753515Y-12866174D02*
X3753515Y-12913793D01*
X3753515Y-12913793D02*
X3743991Y-12951888D01*
X3743991Y-12951888D02*
X3734467Y-12970936D01*
X3734467Y-12970936D02*
X3724944Y-12980460D01*
X3724944Y-12980460D02*
X3705896Y-12989984D01*
X3705896Y-12989984D02*
X3686848Y-12989984D01*
X3686848Y-12989984D02*
X3667801Y-12980460D01*
X3667801Y-12980460D02*
X3658277Y-12970936D01*
X3658277Y-12970936D02*
X3648753Y-12951888D01*
X3648753Y-12951888D02*
X3639229Y-12913793D01*
X3639229Y-12913793D02*
X3639229Y-12866174D01*
X3639229Y-12866174D02*
X3648753Y-12828079D01*
X3648753Y-12828079D02*
X3658277Y-12809031D01*
X3658277Y-12809031D02*
X3667801Y-12799508D01*
X3667801Y-12799508D02*
X3686848Y-12789984D01*
X3820182Y-12789984D02*
X3943991Y-12789984D01*
X3943991Y-12789984D02*
X3877325Y-12866174D01*
X3877325Y-12866174D02*
X3905896Y-12866174D01*
X3905896Y-12866174D02*
X3924944Y-12875698D01*
X3924944Y-12875698D02*
X3934467Y-12885222D01*
X3934467Y-12885222D02*
X3943991Y-12904269D01*
X3943991Y-12904269D02*
X3943991Y-12951888D01*
X3943991Y-12951888D02*
X3934467Y-12970936D01*
X3934467Y-12970936D02*
X3924944Y-12980460D01*
X3924944Y-12980460D02*
X3905896Y-12989984D01*
X3905896Y-12989984D02*
X3848753Y-12989984D01*
X3848753Y-12989984D02*
X3829706Y-12980460D01*
X3829706Y-12980460D02*
X3820182Y-12970936D01*
X4039229Y-12989984D02*
X4077325Y-12989984D01*
X4077325Y-12989984D02*
X4096372Y-12980460D01*
X4096372Y-12980460D02*
X4105896Y-12970936D01*
X4105896Y-12970936D02*
X4124944Y-12942365D01*
X4124944Y-12942365D02*
X4134467Y-12904269D01*
X4134467Y-12904269D02*
X4134467Y-12828079D01*
X4134467Y-12828079D02*
X4124944Y-12809031D01*
X4124944Y-12809031D02*
X4115420Y-12799508D01*
X4115420Y-12799508D02*
X4096372Y-12789984D01*
X4096372Y-12789984D02*
X4058277Y-12789984D01*
X4058277Y-12789984D02*
X4039229Y-12799508D01*
X4039229Y-12799508D02*
X4029706Y-12809031D01*
X4029706Y-12809031D02*
X4020182Y-12828079D01*
X4020182Y-12828079D02*
X4020182Y-12875698D01*
X4020182Y-12875698D02*
X4029706Y-12894746D01*
X4029706Y-12894746D02*
X4039229Y-12904269D01*
X4039229Y-12904269D02*
X4058277Y-12913793D01*
X4058277Y-12913793D02*
X4096372Y-12913793D01*
X4096372Y-12913793D02*
X4115420Y-12904269D01*
X4115420Y-12904269D02*
X4124944Y-12894746D01*
X4124944Y-12894746D02*
X4134467Y-12875698D01*
X4305896Y-12856650D02*
X4305896Y-12989984D01*
X4258277Y-12780460D02*
X4210658Y-12923317D01*
X4210658Y-12923317D02*
X4334468Y-12923317D01*
X4401134Y-12789984D02*
X4401134Y-12828079D01*
X4477325Y-12789984D02*
X4477325Y-12828079D01*
X4772563Y-13066174D02*
X4763039Y-13056650D01*
X4763039Y-13056650D02*
X4743991Y-13028079D01*
X4743991Y-13028079D02*
X4734468Y-13009031D01*
X4734468Y-13009031D02*
X4724944Y-12980460D01*
X4724944Y-12980460D02*
X4715420Y-12932841D01*
X4715420Y-12932841D02*
X4715420Y-12894746D01*
X4715420Y-12894746D02*
X4724944Y-12847127D01*
X4724944Y-12847127D02*
X4734468Y-12818555D01*
X4734468Y-12818555D02*
X4743991Y-12799508D01*
X4743991Y-12799508D02*
X4763039Y-12770936D01*
X4763039Y-12770936D02*
X4772563Y-12761412D01*
X4858277Y-12989984D02*
X4896372Y-12989984D01*
X4896372Y-12989984D02*
X4915420Y-12980460D01*
X4915420Y-12980460D02*
X4924944Y-12970936D01*
X4924944Y-12970936D02*
X4943991Y-12942365D01*
X4943991Y-12942365D02*
X4953515Y-12904269D01*
X4953515Y-12904269D02*
X4953515Y-12828079D01*
X4953515Y-12828079D02*
X4943991Y-12809031D01*
X4943991Y-12809031D02*
X4934468Y-12799508D01*
X4934468Y-12799508D02*
X4915420Y-12789984D01*
X4915420Y-12789984D02*
X4877325Y-12789984D01*
X4877325Y-12789984D02*
X4858277Y-12799508D01*
X4858277Y-12799508D02*
X4848753Y-12809031D01*
X4848753Y-12809031D02*
X4839230Y-12828079D01*
X4839230Y-12828079D02*
X4839230Y-12875698D01*
X4839230Y-12875698D02*
X4848753Y-12894746D01*
X4848753Y-12894746D02*
X4858277Y-12904269D01*
X4858277Y-12904269D02*
X4877325Y-12913793D01*
X4877325Y-12913793D02*
X4915420Y-12913793D01*
X4915420Y-12913793D02*
X4934468Y-12904269D01*
X4934468Y-12904269D02*
X4943991Y-12894746D01*
X4943991Y-12894746D02*
X4953515Y-12875698D01*
X5191611Y-12989984D02*
X5191611Y-12789984D01*
X5277325Y-12989984D02*
X5277325Y-12885222D01*
X5277325Y-12885222D02*
X5267801Y-12866174D01*
X5267801Y-12866174D02*
X5248753Y-12856650D01*
X5248753Y-12856650D02*
X5220182Y-12856650D01*
X5220182Y-12856650D02*
X5201134Y-12866174D01*
X5201134Y-12866174D02*
X5191611Y-12875698D01*
X5401134Y-12989984D02*
X5382087Y-12980460D01*
X5382087Y-12980460D02*
X5372563Y-12970936D01*
X5372563Y-12970936D02*
X5363039Y-12951888D01*
X5363039Y-12951888D02*
X5363039Y-12894746D01*
X5363039Y-12894746D02*
X5372563Y-12875698D01*
X5372563Y-12875698D02*
X5382087Y-12866174D01*
X5382087Y-12866174D02*
X5401134Y-12856650D01*
X5401134Y-12856650D02*
X5429706Y-12856650D01*
X5429706Y-12856650D02*
X5448753Y-12866174D01*
X5448753Y-12866174D02*
X5458277Y-12875698D01*
X5458277Y-12875698D02*
X5467801Y-12894746D01*
X5467801Y-12894746D02*
X5467801Y-12951888D01*
X5467801Y-12951888D02*
X5458277Y-12970936D01*
X5458277Y-12970936D02*
X5448753Y-12980460D01*
X5448753Y-12980460D02*
X5429706Y-12989984D01*
X5429706Y-12989984D02*
X5401134Y-12989984D01*
X5582087Y-12989984D02*
X5563039Y-12980460D01*
X5563039Y-12980460D02*
X5553515Y-12961412D01*
X5553515Y-12961412D02*
X5553515Y-12789984D01*
X5734468Y-12980460D02*
X5715420Y-12989984D01*
X5715420Y-12989984D02*
X5677325Y-12989984D01*
X5677325Y-12989984D02*
X5658277Y-12980460D01*
X5658277Y-12980460D02*
X5648753Y-12961412D01*
X5648753Y-12961412D02*
X5648753Y-12885222D01*
X5648753Y-12885222D02*
X5658277Y-12866174D01*
X5658277Y-12866174D02*
X5677325Y-12856650D01*
X5677325Y-12856650D02*
X5715420Y-12856650D01*
X5715420Y-12856650D02*
X5734468Y-12866174D01*
X5734468Y-12866174D02*
X5743991Y-12885222D01*
X5743991Y-12885222D02*
X5743991Y-12904269D01*
X5743991Y-12904269D02*
X5648753Y-12923317D01*
X5820182Y-12980460D02*
X5839230Y-12989984D01*
X5839230Y-12989984D02*
X5877325Y-12989984D01*
X5877325Y-12989984D02*
X5896372Y-12980460D01*
X5896372Y-12980460D02*
X5905896Y-12961412D01*
X5905896Y-12961412D02*
X5905896Y-12951888D01*
X5905896Y-12951888D02*
X5896372Y-12932841D01*
X5896372Y-12932841D02*
X5877325Y-12923317D01*
X5877325Y-12923317D02*
X5848753Y-12923317D01*
X5848753Y-12923317D02*
X5829706Y-12913793D01*
X5829706Y-12913793D02*
X5820182Y-12894746D01*
X5820182Y-12894746D02*
X5820182Y-12885222D01*
X5820182Y-12885222D02*
X5829706Y-12866174D01*
X5829706Y-12866174D02*
X5848753Y-12856650D01*
X5848753Y-12856650D02*
X5877325Y-12856650D01*
X5877325Y-12856650D02*
X5896372Y-12866174D01*
X5972563Y-13066174D02*
X5982087Y-13056650D01*
X5982087Y-13056650D02*
X6001134Y-13028079D01*
X6001134Y-13028079D02*
X6010658Y-13009031D01*
X6010658Y-13009031D02*
X6020182Y-12980460D01*
X6020182Y-12980460D02*
X6029706Y-12932841D01*
X6029706Y-12932841D02*
X6029706Y-12894746D01*
X6029706Y-12894746D02*
X6020182Y-12847127D01*
X6020182Y-12847127D02*
X6010658Y-12818555D01*
X6010658Y-12818555D02*
X6001134Y-12799508D01*
X6001134Y-12799508D02*
X5982087Y-12770936D01*
X5982087Y-12770936D02*
X5972563Y-12761412D01*
D12*
X1097500Y-13112500D02*
X1197500Y-13212500D01*
X1197500Y-13112500D02*
X1097500Y-13212500D01*
X1197500Y-13162500D02*
G75*
G02*
X1097500Y-13162500I-50000J0D01*
G01*
X1097500Y-13162500D02*
G75*
G02*
X1197500Y-13162500I50000J0D01*
G01*
D11*
X1563039Y-13253984D02*
X1448753Y-13253984D01*
X1505896Y-13253984D02*
X1505896Y-13053984D01*
X1505896Y-13053984D02*
X1486848Y-13082555D01*
X1486848Y-13082555D02*
X1467801Y-13101603D01*
X1467801Y-13101603D02*
X1448753Y-13111127D01*
X1648753Y-13234936D02*
X1658277Y-13244460D01*
X1658277Y-13244460D02*
X1648753Y-13253984D01*
X1648753Y-13253984D02*
X1639229Y-13244460D01*
X1639229Y-13244460D02*
X1648753Y-13234936D01*
X1648753Y-13234936D02*
X1648753Y-13253984D01*
X1782086Y-13053984D02*
X1801134Y-13053984D01*
X1801134Y-13053984D02*
X1820182Y-13063508D01*
X1820182Y-13063508D02*
X1829705Y-13073031D01*
X1829705Y-13073031D02*
X1839229Y-13092079D01*
X1839229Y-13092079D02*
X1848753Y-13130174D01*
X1848753Y-13130174D02*
X1848753Y-13177793D01*
X1848753Y-13177793D02*
X1839229Y-13215888D01*
X1839229Y-13215888D02*
X1829705Y-13234936D01*
X1829705Y-13234936D02*
X1820182Y-13244460D01*
X1820182Y-13244460D02*
X1801134Y-13253984D01*
X1801134Y-13253984D02*
X1782086Y-13253984D01*
X1782086Y-13253984D02*
X1763039Y-13244460D01*
X1763039Y-13244460D02*
X1753515Y-13234936D01*
X1753515Y-13234936D02*
X1743991Y-13215888D01*
X1743991Y-13215888D02*
X1734467Y-13177793D01*
X1734467Y-13177793D02*
X1734467Y-13130174D01*
X1734467Y-13130174D02*
X1743991Y-13092079D01*
X1743991Y-13092079D02*
X1753515Y-13073031D01*
X1753515Y-13073031D02*
X1763039Y-13063508D01*
X1763039Y-13063508D02*
X1782086Y-13053984D01*
X1972562Y-13053984D02*
X1991610Y-13053984D01*
X1991610Y-13053984D02*
X2010658Y-13063508D01*
X2010658Y-13063508D02*
X2020182Y-13073031D01*
X2020182Y-13073031D02*
X2029705Y-13092079D01*
X2029705Y-13092079D02*
X2039229Y-13130174D01*
X2039229Y-13130174D02*
X2039229Y-13177793D01*
X2039229Y-13177793D02*
X2029705Y-13215888D01*
X2029705Y-13215888D02*
X2020182Y-13234936D01*
X2020182Y-13234936D02*
X2010658Y-13244460D01*
X2010658Y-13244460D02*
X1991610Y-13253984D01*
X1991610Y-13253984D02*
X1972562Y-13253984D01*
X1972562Y-13253984D02*
X1953515Y-13244460D01*
X1953515Y-13244460D02*
X1943991Y-13234936D01*
X1943991Y-13234936D02*
X1934467Y-13215888D01*
X1934467Y-13215888D02*
X1924943Y-13177793D01*
X1924943Y-13177793D02*
X1924943Y-13130174D01*
X1924943Y-13130174D02*
X1934467Y-13092079D01*
X1934467Y-13092079D02*
X1943991Y-13073031D01*
X1943991Y-13073031D02*
X1953515Y-13063508D01*
X1953515Y-13063508D02*
X1972562Y-13053984D01*
X2163039Y-13053984D02*
X2182086Y-13053984D01*
X2182086Y-13053984D02*
X2201134Y-13063508D01*
X2201134Y-13063508D02*
X2210658Y-13073031D01*
X2210658Y-13073031D02*
X2220182Y-13092079D01*
X2220182Y-13092079D02*
X2229705Y-13130174D01*
X2229705Y-13130174D02*
X2229705Y-13177793D01*
X2229705Y-13177793D02*
X2220182Y-13215888D01*
X2220182Y-13215888D02*
X2210658Y-13234936D01*
X2210658Y-13234936D02*
X2201134Y-13244460D01*
X2201134Y-13244460D02*
X2182086Y-13253984D01*
X2182086Y-13253984D02*
X2163039Y-13253984D01*
X2163039Y-13253984D02*
X2143991Y-13244460D01*
X2143991Y-13244460D02*
X2134467Y-13234936D01*
X2134467Y-13234936D02*
X2124944Y-13215888D01*
X2124944Y-13215888D02*
X2115420Y-13177793D01*
X2115420Y-13177793D02*
X2115420Y-13130174D01*
X2115420Y-13130174D02*
X2124944Y-13092079D01*
X2124944Y-13092079D02*
X2134467Y-13073031D01*
X2134467Y-13073031D02*
X2143991Y-13063508D01*
X2143991Y-13063508D02*
X2163039Y-13053984D01*
X2315420Y-13253984D02*
X2315420Y-13120650D01*
X2315420Y-13139698D02*
X2324944Y-13130174D01*
X2324944Y-13130174D02*
X2343991Y-13120650D01*
X2343991Y-13120650D02*
X2372563Y-13120650D01*
X2372563Y-13120650D02*
X2391610Y-13130174D01*
X2391610Y-13130174D02*
X2401134Y-13149222D01*
X2401134Y-13149222D02*
X2401134Y-13253984D01*
X2401134Y-13149222D02*
X2410658Y-13130174D01*
X2410658Y-13130174D02*
X2429705Y-13120650D01*
X2429705Y-13120650D02*
X2458277Y-13120650D01*
X2458277Y-13120650D02*
X2477325Y-13130174D01*
X2477325Y-13130174D02*
X2486848Y-13149222D01*
X2486848Y-13149222D02*
X2486848Y-13253984D01*
X2582086Y-13253984D02*
X2582086Y-13120650D01*
X2582086Y-13139698D02*
X2591610Y-13130174D01*
X2591610Y-13130174D02*
X2610658Y-13120650D01*
X2610658Y-13120650D02*
X2639229Y-13120650D01*
X2639229Y-13120650D02*
X2658277Y-13130174D01*
X2658277Y-13130174D02*
X2667801Y-13149222D01*
X2667801Y-13149222D02*
X2667801Y-13253984D01*
X2667801Y-13149222D02*
X2677325Y-13130174D01*
X2677325Y-13130174D02*
X2696372Y-13120650D01*
X2696372Y-13120650D02*
X2724944Y-13120650D01*
X2724944Y-13120650D02*
X2743991Y-13130174D01*
X2743991Y-13130174D02*
X2753515Y-13149222D01*
X2753515Y-13149222D02*
X2753515Y-13253984D01*
X3143991Y-13044460D02*
X2972563Y-13301603D01*
X3401134Y-13053984D02*
X3420182Y-13053984D01*
X3420182Y-13053984D02*
X3439229Y-13063508D01*
X3439229Y-13063508D02*
X3448753Y-13073031D01*
X3448753Y-13073031D02*
X3458277Y-13092079D01*
X3458277Y-13092079D02*
X3467801Y-13130174D01*
X3467801Y-13130174D02*
X3467801Y-13177793D01*
X3467801Y-13177793D02*
X3458277Y-13215888D01*
X3458277Y-13215888D02*
X3448753Y-13234936D01*
X3448753Y-13234936D02*
X3439229Y-13244460D01*
X3439229Y-13244460D02*
X3420182Y-13253984D01*
X3420182Y-13253984D02*
X3401134Y-13253984D01*
X3401134Y-13253984D02*
X3382086Y-13244460D01*
X3382086Y-13244460D02*
X3372563Y-13234936D01*
X3372563Y-13234936D02*
X3363039Y-13215888D01*
X3363039Y-13215888D02*
X3353515Y-13177793D01*
X3353515Y-13177793D02*
X3353515Y-13130174D01*
X3353515Y-13130174D02*
X3363039Y-13092079D01*
X3363039Y-13092079D02*
X3372563Y-13073031D01*
X3372563Y-13073031D02*
X3382086Y-13063508D01*
X3382086Y-13063508D02*
X3401134Y-13053984D01*
X3553515Y-13234936D02*
X3563039Y-13244460D01*
X3563039Y-13244460D02*
X3553515Y-13253984D01*
X3553515Y-13253984D02*
X3543991Y-13244460D01*
X3543991Y-13244460D02*
X3553515Y-13234936D01*
X3553515Y-13234936D02*
X3553515Y-13253984D01*
X3686848Y-13053984D02*
X3705896Y-13053984D01*
X3705896Y-13053984D02*
X3724944Y-13063508D01*
X3724944Y-13063508D02*
X3734467Y-13073031D01*
X3734467Y-13073031D02*
X3743991Y-13092079D01*
X3743991Y-13092079D02*
X3753515Y-13130174D01*
X3753515Y-13130174D02*
X3753515Y-13177793D01*
X3753515Y-13177793D02*
X3743991Y-13215888D01*
X3743991Y-13215888D02*
X3734467Y-13234936D01*
X3734467Y-13234936D02*
X3724944Y-13244460D01*
X3724944Y-13244460D02*
X3705896Y-13253984D01*
X3705896Y-13253984D02*
X3686848Y-13253984D01*
X3686848Y-13253984D02*
X3667801Y-13244460D01*
X3667801Y-13244460D02*
X3658277Y-13234936D01*
X3658277Y-13234936D02*
X3648753Y-13215888D01*
X3648753Y-13215888D02*
X3639229Y-13177793D01*
X3639229Y-13177793D02*
X3639229Y-13130174D01*
X3639229Y-13130174D02*
X3648753Y-13092079D01*
X3648753Y-13092079D02*
X3658277Y-13073031D01*
X3658277Y-13073031D02*
X3667801Y-13063508D01*
X3667801Y-13063508D02*
X3686848Y-13053984D01*
X3820182Y-13053984D02*
X3943991Y-13053984D01*
X3943991Y-13053984D02*
X3877325Y-13130174D01*
X3877325Y-13130174D02*
X3905896Y-13130174D01*
X3905896Y-13130174D02*
X3924944Y-13139698D01*
X3924944Y-13139698D02*
X3934467Y-13149222D01*
X3934467Y-13149222D02*
X3943991Y-13168269D01*
X3943991Y-13168269D02*
X3943991Y-13215888D01*
X3943991Y-13215888D02*
X3934467Y-13234936D01*
X3934467Y-13234936D02*
X3924944Y-13244460D01*
X3924944Y-13244460D02*
X3905896Y-13253984D01*
X3905896Y-13253984D02*
X3848753Y-13253984D01*
X3848753Y-13253984D02*
X3829706Y-13244460D01*
X3829706Y-13244460D02*
X3820182Y-13234936D01*
X4039229Y-13253984D02*
X4077325Y-13253984D01*
X4077325Y-13253984D02*
X4096372Y-13244460D01*
X4096372Y-13244460D02*
X4105896Y-13234936D01*
X4105896Y-13234936D02*
X4124944Y-13206365D01*
X4124944Y-13206365D02*
X4134467Y-13168269D01*
X4134467Y-13168269D02*
X4134467Y-13092079D01*
X4134467Y-13092079D02*
X4124944Y-13073031D01*
X4124944Y-13073031D02*
X4115420Y-13063508D01*
X4115420Y-13063508D02*
X4096372Y-13053984D01*
X4096372Y-13053984D02*
X4058277Y-13053984D01*
X4058277Y-13053984D02*
X4039229Y-13063508D01*
X4039229Y-13063508D02*
X4029706Y-13073031D01*
X4029706Y-13073031D02*
X4020182Y-13092079D01*
X4020182Y-13092079D02*
X4020182Y-13139698D01*
X4020182Y-13139698D02*
X4029706Y-13158746D01*
X4029706Y-13158746D02*
X4039229Y-13168269D01*
X4039229Y-13168269D02*
X4058277Y-13177793D01*
X4058277Y-13177793D02*
X4096372Y-13177793D01*
X4096372Y-13177793D02*
X4115420Y-13168269D01*
X4115420Y-13168269D02*
X4124944Y-13158746D01*
X4124944Y-13158746D02*
X4134467Y-13139698D01*
X4305896Y-13120650D02*
X4305896Y-13253984D01*
X4258277Y-13044460D02*
X4210658Y-13187317D01*
X4210658Y-13187317D02*
X4334468Y-13187317D01*
X4401134Y-13053984D02*
X4401134Y-13092079D01*
X4477325Y-13053984D02*
X4477325Y-13092079D01*
X4772563Y-13330174D02*
X4763039Y-13320650D01*
X4763039Y-13320650D02*
X4743991Y-13292079D01*
X4743991Y-13292079D02*
X4734468Y-13273031D01*
X4734468Y-13273031D02*
X4724944Y-13244460D01*
X4724944Y-13244460D02*
X4715420Y-13196841D01*
X4715420Y-13196841D02*
X4715420Y-13158746D01*
X4715420Y-13158746D02*
X4724944Y-13111127D01*
X4724944Y-13111127D02*
X4734468Y-13082555D01*
X4734468Y-13082555D02*
X4743991Y-13063508D01*
X4743991Y-13063508D02*
X4763039Y-13034936D01*
X4763039Y-13034936D02*
X4772563Y-13025412D01*
X4953515Y-13253984D02*
X4839230Y-13253984D01*
X4896372Y-13253984D02*
X4896372Y-13053984D01*
X4896372Y-13053984D02*
X4877325Y-13082555D01*
X4877325Y-13082555D02*
X4858277Y-13101603D01*
X4858277Y-13101603D02*
X4839230Y-13111127D01*
X5077325Y-13053984D02*
X5096372Y-13053984D01*
X5096372Y-13053984D02*
X5115420Y-13063508D01*
X5115420Y-13063508D02*
X5124944Y-13073031D01*
X5124944Y-13073031D02*
X5134468Y-13092079D01*
X5134468Y-13092079D02*
X5143991Y-13130174D01*
X5143991Y-13130174D02*
X5143991Y-13177793D01*
X5143991Y-13177793D02*
X5134468Y-13215888D01*
X5134468Y-13215888D02*
X5124944Y-13234936D01*
X5124944Y-13234936D02*
X5115420Y-13244460D01*
X5115420Y-13244460D02*
X5096372Y-13253984D01*
X5096372Y-13253984D02*
X5077325Y-13253984D01*
X5077325Y-13253984D02*
X5058277Y-13244460D01*
X5058277Y-13244460D02*
X5048753Y-13234936D01*
X5048753Y-13234936D02*
X5039230Y-13215888D01*
X5039230Y-13215888D02*
X5029706Y-13177793D01*
X5029706Y-13177793D02*
X5029706Y-13130174D01*
X5029706Y-13130174D02*
X5039230Y-13092079D01*
X5039230Y-13092079D02*
X5048753Y-13073031D01*
X5048753Y-13073031D02*
X5058277Y-13063508D01*
X5058277Y-13063508D02*
X5077325Y-13053984D01*
X5382087Y-13253984D02*
X5382087Y-13053984D01*
X5467801Y-13253984D02*
X5467801Y-13149222D01*
X5467801Y-13149222D02*
X5458277Y-13130174D01*
X5458277Y-13130174D02*
X5439230Y-13120650D01*
X5439230Y-13120650D02*
X5410658Y-13120650D01*
X5410658Y-13120650D02*
X5391611Y-13130174D01*
X5391611Y-13130174D02*
X5382087Y-13139698D01*
X5591611Y-13253984D02*
X5572563Y-13244460D01*
X5572563Y-13244460D02*
X5563039Y-13234936D01*
X5563039Y-13234936D02*
X5553515Y-13215888D01*
X5553515Y-13215888D02*
X5553515Y-13158746D01*
X5553515Y-13158746D02*
X5563039Y-13139698D01*
X5563039Y-13139698D02*
X5572563Y-13130174D01*
X5572563Y-13130174D02*
X5591611Y-13120650D01*
X5591611Y-13120650D02*
X5620182Y-13120650D01*
X5620182Y-13120650D02*
X5639230Y-13130174D01*
X5639230Y-13130174D02*
X5648753Y-13139698D01*
X5648753Y-13139698D02*
X5658277Y-13158746D01*
X5658277Y-13158746D02*
X5658277Y-13215888D01*
X5658277Y-13215888D02*
X5648753Y-13234936D01*
X5648753Y-13234936D02*
X5639230Y-13244460D01*
X5639230Y-13244460D02*
X5620182Y-13253984D01*
X5620182Y-13253984D02*
X5591611Y-13253984D01*
X5772563Y-13253984D02*
X5753515Y-13244460D01*
X5753515Y-13244460D02*
X5743991Y-13225412D01*
X5743991Y-13225412D02*
X5743991Y-13053984D01*
X5924944Y-13244460D02*
X5905896Y-13253984D01*
X5905896Y-13253984D02*
X5867801Y-13253984D01*
X5867801Y-13253984D02*
X5848753Y-13244460D01*
X5848753Y-13244460D02*
X5839230Y-13225412D01*
X5839230Y-13225412D02*
X5839230Y-13149222D01*
X5839230Y-13149222D02*
X5848753Y-13130174D01*
X5848753Y-13130174D02*
X5867801Y-13120650D01*
X5867801Y-13120650D02*
X5905896Y-13120650D01*
X5905896Y-13120650D02*
X5924944Y-13130174D01*
X5924944Y-13130174D02*
X5934468Y-13149222D01*
X5934468Y-13149222D02*
X5934468Y-13168269D01*
X5934468Y-13168269D02*
X5839230Y-13187317D01*
X6010658Y-13244460D02*
X6029706Y-13253984D01*
X6029706Y-13253984D02*
X6067801Y-13253984D01*
X6067801Y-13253984D02*
X6086849Y-13244460D01*
X6086849Y-13244460D02*
X6096372Y-13225412D01*
X6096372Y-13225412D02*
X6096372Y-13215888D01*
X6096372Y-13215888D02*
X6086849Y-13196841D01*
X6086849Y-13196841D02*
X6067801Y-13187317D01*
X6067801Y-13187317D02*
X6039230Y-13187317D01*
X6039230Y-13187317D02*
X6020182Y-13177793D01*
X6020182Y-13177793D02*
X6010658Y-13158746D01*
X6010658Y-13158746D02*
X6010658Y-13149222D01*
X6010658Y-13149222D02*
X6020182Y-13130174D01*
X6020182Y-13130174D02*
X6039230Y-13120650D01*
X6039230Y-13120650D02*
X6067801Y-13120650D01*
X6067801Y-13120650D02*
X6086849Y-13130174D01*
X6163039Y-13330174D02*
X6172563Y-13320650D01*
X6172563Y-13320650D02*
X6191611Y-13292079D01*
X6191611Y-13292079D02*
X6201134Y-13273031D01*
X6201134Y-13273031D02*
X6210658Y-13244460D01*
X6210658Y-13244460D02*
X6220182Y-13196841D01*
X6220182Y-13196841D02*
X6220182Y-13158746D01*
X6220182Y-13158746D02*
X6210658Y-13111127D01*
X6210658Y-13111127D02*
X6201134Y-13082555D01*
X6201134Y-13082555D02*
X6191611Y-13063508D01*
X6191611Y-13063508D02*
X6172563Y-13034936D01*
X6172563Y-13034936D02*
X6163039Y-13025412D01*
D13*
X1077500Y-13366500D02*
X1197500Y-13486500D01*
X1197500Y-13366500D02*
X1077500Y-13486500D01*
X1137500Y-13366500D02*
X1137500Y-13486500D01*
X1077500Y-13426500D02*
X1197500Y-13426500D01*
D11*
X1563039Y-13517984D02*
X1448753Y-13517984D01*
X1505896Y-13517984D02*
X1505896Y-13317984D01*
X1505896Y-13317984D02*
X1486848Y-13346555D01*
X1486848Y-13346555D02*
X1467801Y-13365603D01*
X1467801Y-13365603D02*
X1448753Y-13375127D01*
X1648753Y-13498936D02*
X1658277Y-13508460D01*
X1658277Y-13508460D02*
X1648753Y-13517984D01*
X1648753Y-13517984D02*
X1639229Y-13508460D01*
X1639229Y-13508460D02*
X1648753Y-13498936D01*
X1648753Y-13498936D02*
X1648753Y-13517984D01*
X1734467Y-13337031D02*
X1743991Y-13327508D01*
X1743991Y-13327508D02*
X1763039Y-13317984D01*
X1763039Y-13317984D02*
X1810658Y-13317984D01*
X1810658Y-13317984D02*
X1829705Y-13327508D01*
X1829705Y-13327508D02*
X1839229Y-13337031D01*
X1839229Y-13337031D02*
X1848753Y-13356079D01*
X1848753Y-13356079D02*
X1848753Y-13375127D01*
X1848753Y-13375127D02*
X1839229Y-13403698D01*
X1839229Y-13403698D02*
X1724943Y-13517984D01*
X1724943Y-13517984D02*
X1848753Y-13517984D01*
X1972562Y-13317984D02*
X1991610Y-13317984D01*
X1991610Y-13317984D02*
X2010658Y-13327508D01*
X2010658Y-13327508D02*
X2020182Y-13337031D01*
X2020182Y-13337031D02*
X2029705Y-13356079D01*
X2029705Y-13356079D02*
X2039229Y-13394174D01*
X2039229Y-13394174D02*
X2039229Y-13441793D01*
X2039229Y-13441793D02*
X2029705Y-13479888D01*
X2029705Y-13479888D02*
X2020182Y-13498936D01*
X2020182Y-13498936D02*
X2010658Y-13508460D01*
X2010658Y-13508460D02*
X1991610Y-13517984D01*
X1991610Y-13517984D02*
X1972562Y-13517984D01*
X1972562Y-13517984D02*
X1953515Y-13508460D01*
X1953515Y-13508460D02*
X1943991Y-13498936D01*
X1943991Y-13498936D02*
X1934467Y-13479888D01*
X1934467Y-13479888D02*
X1924943Y-13441793D01*
X1924943Y-13441793D02*
X1924943Y-13394174D01*
X1924943Y-13394174D02*
X1934467Y-13356079D01*
X1934467Y-13356079D02*
X1943991Y-13337031D01*
X1943991Y-13337031D02*
X1953515Y-13327508D01*
X1953515Y-13327508D02*
X1972562Y-13317984D01*
X2163039Y-13317984D02*
X2182086Y-13317984D01*
X2182086Y-13317984D02*
X2201134Y-13327508D01*
X2201134Y-13327508D02*
X2210658Y-13337031D01*
X2210658Y-13337031D02*
X2220182Y-13356079D01*
X2220182Y-13356079D02*
X2229705Y-13394174D01*
X2229705Y-13394174D02*
X2229705Y-13441793D01*
X2229705Y-13441793D02*
X2220182Y-13479888D01*
X2220182Y-13479888D02*
X2210658Y-13498936D01*
X2210658Y-13498936D02*
X2201134Y-13508460D01*
X2201134Y-13508460D02*
X2182086Y-13517984D01*
X2182086Y-13517984D02*
X2163039Y-13517984D01*
X2163039Y-13517984D02*
X2143991Y-13508460D01*
X2143991Y-13508460D02*
X2134467Y-13498936D01*
X2134467Y-13498936D02*
X2124944Y-13479888D01*
X2124944Y-13479888D02*
X2115420Y-13441793D01*
X2115420Y-13441793D02*
X2115420Y-13394174D01*
X2115420Y-13394174D02*
X2124944Y-13356079D01*
X2124944Y-13356079D02*
X2134467Y-13337031D01*
X2134467Y-13337031D02*
X2143991Y-13327508D01*
X2143991Y-13327508D02*
X2163039Y-13317984D01*
X2315420Y-13517984D02*
X2315420Y-13384650D01*
X2315420Y-13403698D02*
X2324944Y-13394174D01*
X2324944Y-13394174D02*
X2343991Y-13384650D01*
X2343991Y-13384650D02*
X2372563Y-13384650D01*
X2372563Y-13384650D02*
X2391610Y-13394174D01*
X2391610Y-13394174D02*
X2401134Y-13413222D01*
X2401134Y-13413222D02*
X2401134Y-13517984D01*
X2401134Y-13413222D02*
X2410658Y-13394174D01*
X2410658Y-13394174D02*
X2429705Y-13384650D01*
X2429705Y-13384650D02*
X2458277Y-13384650D01*
X2458277Y-13384650D02*
X2477325Y-13394174D01*
X2477325Y-13394174D02*
X2486848Y-13413222D01*
X2486848Y-13413222D02*
X2486848Y-13517984D01*
X2582086Y-13517984D02*
X2582086Y-13384650D01*
X2582086Y-13403698D02*
X2591610Y-13394174D01*
X2591610Y-13394174D02*
X2610658Y-13384650D01*
X2610658Y-13384650D02*
X2639229Y-13384650D01*
X2639229Y-13384650D02*
X2658277Y-13394174D01*
X2658277Y-13394174D02*
X2667801Y-13413222D01*
X2667801Y-13413222D02*
X2667801Y-13517984D01*
X2667801Y-13413222D02*
X2677325Y-13394174D01*
X2677325Y-13394174D02*
X2696372Y-13384650D01*
X2696372Y-13384650D02*
X2724944Y-13384650D01*
X2724944Y-13384650D02*
X2743991Y-13394174D01*
X2743991Y-13394174D02*
X2753515Y-13413222D01*
X2753515Y-13413222D02*
X2753515Y-13517984D01*
X3143991Y-13308460D02*
X2972563Y-13565603D01*
X3401134Y-13317984D02*
X3420182Y-13317984D01*
X3420182Y-13317984D02*
X3439229Y-13327508D01*
X3439229Y-13327508D02*
X3448753Y-13337031D01*
X3448753Y-13337031D02*
X3458277Y-13356079D01*
X3458277Y-13356079D02*
X3467801Y-13394174D01*
X3467801Y-13394174D02*
X3467801Y-13441793D01*
X3467801Y-13441793D02*
X3458277Y-13479888D01*
X3458277Y-13479888D02*
X3448753Y-13498936D01*
X3448753Y-13498936D02*
X3439229Y-13508460D01*
X3439229Y-13508460D02*
X3420182Y-13517984D01*
X3420182Y-13517984D02*
X3401134Y-13517984D01*
X3401134Y-13517984D02*
X3382086Y-13508460D01*
X3382086Y-13508460D02*
X3372563Y-13498936D01*
X3372563Y-13498936D02*
X3363039Y-13479888D01*
X3363039Y-13479888D02*
X3353515Y-13441793D01*
X3353515Y-13441793D02*
X3353515Y-13394174D01*
X3353515Y-13394174D02*
X3363039Y-13356079D01*
X3363039Y-13356079D02*
X3372563Y-13337031D01*
X3372563Y-13337031D02*
X3382086Y-13327508D01*
X3382086Y-13327508D02*
X3401134Y-13317984D01*
X3553515Y-13498936D02*
X3563039Y-13508460D01*
X3563039Y-13508460D02*
X3553515Y-13517984D01*
X3553515Y-13517984D02*
X3543991Y-13508460D01*
X3543991Y-13508460D02*
X3553515Y-13498936D01*
X3553515Y-13498936D02*
X3553515Y-13517984D01*
X3686848Y-13317984D02*
X3705896Y-13317984D01*
X3705896Y-13317984D02*
X3724944Y-13327508D01*
X3724944Y-13327508D02*
X3734467Y-13337031D01*
X3734467Y-13337031D02*
X3743991Y-13356079D01*
X3743991Y-13356079D02*
X3753515Y-13394174D01*
X3753515Y-13394174D02*
X3753515Y-13441793D01*
X3753515Y-13441793D02*
X3743991Y-13479888D01*
X3743991Y-13479888D02*
X3734467Y-13498936D01*
X3734467Y-13498936D02*
X3724944Y-13508460D01*
X3724944Y-13508460D02*
X3705896Y-13517984D01*
X3705896Y-13517984D02*
X3686848Y-13517984D01*
X3686848Y-13517984D02*
X3667801Y-13508460D01*
X3667801Y-13508460D02*
X3658277Y-13498936D01*
X3658277Y-13498936D02*
X3648753Y-13479888D01*
X3648753Y-13479888D02*
X3639229Y-13441793D01*
X3639229Y-13441793D02*
X3639229Y-13394174D01*
X3639229Y-13394174D02*
X3648753Y-13356079D01*
X3648753Y-13356079D02*
X3658277Y-13337031D01*
X3658277Y-13337031D02*
X3667801Y-13327508D01*
X3667801Y-13327508D02*
X3686848Y-13317984D01*
X3924944Y-13384650D02*
X3924944Y-13517984D01*
X3877325Y-13308460D02*
X3829706Y-13451317D01*
X3829706Y-13451317D02*
X3953515Y-13451317D01*
X4010658Y-13317984D02*
X4143991Y-13317984D01*
X4143991Y-13317984D02*
X4058277Y-13517984D01*
X4210658Y-13337031D02*
X4220182Y-13327508D01*
X4220182Y-13327508D02*
X4239229Y-13317984D01*
X4239229Y-13317984D02*
X4286849Y-13317984D01*
X4286849Y-13317984D02*
X4305896Y-13327508D01*
X4305896Y-13327508D02*
X4315420Y-13337031D01*
X4315420Y-13337031D02*
X4324944Y-13356079D01*
X4324944Y-13356079D02*
X4324944Y-13375127D01*
X4324944Y-13375127D02*
X4315420Y-13403698D01*
X4315420Y-13403698D02*
X4201134Y-13517984D01*
X4201134Y-13517984D02*
X4324944Y-13517984D01*
X4401134Y-13317984D02*
X4401134Y-13356079D01*
X4477325Y-13317984D02*
X4477325Y-13356079D01*
X4772563Y-13594174D02*
X4763039Y-13584650D01*
X4763039Y-13584650D02*
X4743991Y-13556079D01*
X4743991Y-13556079D02*
X4734468Y-13537031D01*
X4734468Y-13537031D02*
X4724944Y-13508460D01*
X4724944Y-13508460D02*
X4715420Y-13460841D01*
X4715420Y-13460841D02*
X4715420Y-13422746D01*
X4715420Y-13422746D02*
X4724944Y-13375127D01*
X4724944Y-13375127D02*
X4734468Y-13346555D01*
X4734468Y-13346555D02*
X4743991Y-13327508D01*
X4743991Y-13327508D02*
X4763039Y-13298936D01*
X4763039Y-13298936D02*
X4772563Y-13289412D01*
X4953515Y-13517984D02*
X4839230Y-13517984D01*
X4896372Y-13517984D02*
X4896372Y-13317984D01*
X4896372Y-13317984D02*
X4877325Y-13346555D01*
X4877325Y-13346555D02*
X4858277Y-13365603D01*
X4858277Y-13365603D02*
X4839230Y-13375127D01*
X5191611Y-13517984D02*
X5191611Y-13317984D01*
X5277325Y-13517984D02*
X5277325Y-13413222D01*
X5277325Y-13413222D02*
X5267801Y-13394174D01*
X5267801Y-13394174D02*
X5248753Y-13384650D01*
X5248753Y-13384650D02*
X5220182Y-13384650D01*
X5220182Y-13384650D02*
X5201134Y-13394174D01*
X5201134Y-13394174D02*
X5191611Y-13403698D01*
X5401134Y-13517984D02*
X5382087Y-13508460D01*
X5382087Y-13508460D02*
X5372563Y-13498936D01*
X5372563Y-13498936D02*
X5363039Y-13479888D01*
X5363039Y-13479888D02*
X5363039Y-13422746D01*
X5363039Y-13422746D02*
X5372563Y-13403698D01*
X5372563Y-13403698D02*
X5382087Y-13394174D01*
X5382087Y-13394174D02*
X5401134Y-13384650D01*
X5401134Y-13384650D02*
X5429706Y-13384650D01*
X5429706Y-13384650D02*
X5448753Y-13394174D01*
X5448753Y-13394174D02*
X5458277Y-13403698D01*
X5458277Y-13403698D02*
X5467801Y-13422746D01*
X5467801Y-13422746D02*
X5467801Y-13479888D01*
X5467801Y-13479888D02*
X5458277Y-13498936D01*
X5458277Y-13498936D02*
X5448753Y-13508460D01*
X5448753Y-13508460D02*
X5429706Y-13517984D01*
X5429706Y-13517984D02*
X5401134Y-13517984D01*
X5582087Y-13517984D02*
X5563039Y-13508460D01*
X5563039Y-13508460D02*
X5553515Y-13489412D01*
X5553515Y-13489412D02*
X5553515Y-13317984D01*
X5734468Y-13508460D02*
X5715420Y-13517984D01*
X5715420Y-13517984D02*
X5677325Y-13517984D01*
X5677325Y-13517984D02*
X5658277Y-13508460D01*
X5658277Y-13508460D02*
X5648753Y-13489412D01*
X5648753Y-13489412D02*
X5648753Y-13413222D01*
X5648753Y-13413222D02*
X5658277Y-13394174D01*
X5658277Y-13394174D02*
X5677325Y-13384650D01*
X5677325Y-13384650D02*
X5715420Y-13384650D01*
X5715420Y-13384650D02*
X5734468Y-13394174D01*
X5734468Y-13394174D02*
X5743991Y-13413222D01*
X5743991Y-13413222D02*
X5743991Y-13432269D01*
X5743991Y-13432269D02*
X5648753Y-13451317D01*
X5810658Y-13594174D02*
X5820182Y-13584650D01*
X5820182Y-13584650D02*
X5839230Y-13556079D01*
X5839230Y-13556079D02*
X5848753Y-13537031D01*
X5848753Y-13537031D02*
X5858277Y-13508460D01*
X5858277Y-13508460D02*
X5867801Y-13460841D01*
X5867801Y-13460841D02*
X5867801Y-13422746D01*
X5867801Y-13422746D02*
X5858277Y-13375127D01*
X5858277Y-13375127D02*
X5848753Y-13346555D01*
X5848753Y-13346555D02*
X5839230Y-13327508D01*
X5839230Y-13327508D02*
X5820182Y-13298936D01*
X5820182Y-13298936D02*
X5810658Y-13289412D01*
D14*
X1067500Y-13625500D02*
X1197500Y-13755500D01*
X1197500Y-13625500D02*
X1067500Y-13755500D01*
X1178462Y-13736462D02*
X1178462Y-13644538D01*
X1086538Y-13644538D01*
X1086538Y-13736462D01*
X1178462Y-13736462D01*
D11*
X1563039Y-13781984D02*
X1448753Y-13781984D01*
X1505896Y-13781984D02*
X1505896Y-13581984D01*
X1505896Y-13581984D02*
X1486848Y-13610555D01*
X1486848Y-13610555D02*
X1467801Y-13629603D01*
X1467801Y-13629603D02*
X1448753Y-13639127D01*
X1648753Y-13762936D02*
X1658277Y-13772460D01*
X1658277Y-13772460D02*
X1648753Y-13781984D01*
X1648753Y-13781984D02*
X1639229Y-13772460D01*
X1639229Y-13772460D02*
X1648753Y-13762936D01*
X1648753Y-13762936D02*
X1648753Y-13781984D01*
X1724943Y-13581984D02*
X1848753Y-13581984D01*
X1848753Y-13581984D02*
X1782086Y-13658174D01*
X1782086Y-13658174D02*
X1810658Y-13658174D01*
X1810658Y-13658174D02*
X1829705Y-13667698D01*
X1829705Y-13667698D02*
X1839229Y-13677222D01*
X1839229Y-13677222D02*
X1848753Y-13696269D01*
X1848753Y-13696269D02*
X1848753Y-13743888D01*
X1848753Y-13743888D02*
X1839229Y-13762936D01*
X1839229Y-13762936D02*
X1829705Y-13772460D01*
X1829705Y-13772460D02*
X1810658Y-13781984D01*
X1810658Y-13781984D02*
X1753515Y-13781984D01*
X1753515Y-13781984D02*
X1734467Y-13772460D01*
X1734467Y-13772460D02*
X1724943Y-13762936D01*
X1972562Y-13581984D02*
X1991610Y-13581984D01*
X1991610Y-13581984D02*
X2010658Y-13591508D01*
X2010658Y-13591508D02*
X2020182Y-13601031D01*
X2020182Y-13601031D02*
X2029705Y-13620079D01*
X2029705Y-13620079D02*
X2039229Y-13658174D01*
X2039229Y-13658174D02*
X2039229Y-13705793D01*
X2039229Y-13705793D02*
X2029705Y-13743888D01*
X2029705Y-13743888D02*
X2020182Y-13762936D01*
X2020182Y-13762936D02*
X2010658Y-13772460D01*
X2010658Y-13772460D02*
X1991610Y-13781984D01*
X1991610Y-13781984D02*
X1972562Y-13781984D01*
X1972562Y-13781984D02*
X1953515Y-13772460D01*
X1953515Y-13772460D02*
X1943991Y-13762936D01*
X1943991Y-13762936D02*
X1934467Y-13743888D01*
X1934467Y-13743888D02*
X1924943Y-13705793D01*
X1924943Y-13705793D02*
X1924943Y-13658174D01*
X1924943Y-13658174D02*
X1934467Y-13620079D01*
X1934467Y-13620079D02*
X1943991Y-13601031D01*
X1943991Y-13601031D02*
X1953515Y-13591508D01*
X1953515Y-13591508D02*
X1972562Y-13581984D01*
X2163039Y-13581984D02*
X2182086Y-13581984D01*
X2182086Y-13581984D02*
X2201134Y-13591508D01*
X2201134Y-13591508D02*
X2210658Y-13601031D01*
X2210658Y-13601031D02*
X2220182Y-13620079D01*
X2220182Y-13620079D02*
X2229705Y-13658174D01*
X2229705Y-13658174D02*
X2229705Y-13705793D01*
X2229705Y-13705793D02*
X2220182Y-13743888D01*
X2220182Y-13743888D02*
X2210658Y-13762936D01*
X2210658Y-13762936D02*
X2201134Y-13772460D01*
X2201134Y-13772460D02*
X2182086Y-13781984D01*
X2182086Y-13781984D02*
X2163039Y-13781984D01*
X2163039Y-13781984D02*
X2143991Y-13772460D01*
X2143991Y-13772460D02*
X2134467Y-13762936D01*
X2134467Y-13762936D02*
X2124944Y-13743888D01*
X2124944Y-13743888D02*
X2115420Y-13705793D01*
X2115420Y-13705793D02*
X2115420Y-13658174D01*
X2115420Y-13658174D02*
X2124944Y-13620079D01*
X2124944Y-13620079D02*
X2134467Y-13601031D01*
X2134467Y-13601031D02*
X2143991Y-13591508D01*
X2143991Y-13591508D02*
X2163039Y-13581984D01*
X2315420Y-13781984D02*
X2315420Y-13648650D01*
X2315420Y-13667698D02*
X2324944Y-13658174D01*
X2324944Y-13658174D02*
X2343991Y-13648650D01*
X2343991Y-13648650D02*
X2372563Y-13648650D01*
X2372563Y-13648650D02*
X2391610Y-13658174D01*
X2391610Y-13658174D02*
X2401134Y-13677222D01*
X2401134Y-13677222D02*
X2401134Y-13781984D01*
X2401134Y-13677222D02*
X2410658Y-13658174D01*
X2410658Y-13658174D02*
X2429705Y-13648650D01*
X2429705Y-13648650D02*
X2458277Y-13648650D01*
X2458277Y-13648650D02*
X2477325Y-13658174D01*
X2477325Y-13658174D02*
X2486848Y-13677222D01*
X2486848Y-13677222D02*
X2486848Y-13781984D01*
X2582086Y-13781984D02*
X2582086Y-13648650D01*
X2582086Y-13667698D02*
X2591610Y-13658174D01*
X2591610Y-13658174D02*
X2610658Y-13648650D01*
X2610658Y-13648650D02*
X2639229Y-13648650D01*
X2639229Y-13648650D02*
X2658277Y-13658174D01*
X2658277Y-13658174D02*
X2667801Y-13677222D01*
X2667801Y-13677222D02*
X2667801Y-13781984D01*
X2667801Y-13677222D02*
X2677325Y-13658174D01*
X2677325Y-13658174D02*
X2696372Y-13648650D01*
X2696372Y-13648650D02*
X2724944Y-13648650D01*
X2724944Y-13648650D02*
X2743991Y-13658174D01*
X2743991Y-13658174D02*
X2753515Y-13677222D01*
X2753515Y-13677222D02*
X2753515Y-13781984D01*
X3143991Y-13572460D02*
X2972563Y-13829603D01*
X3401134Y-13581984D02*
X3420182Y-13581984D01*
X3420182Y-13581984D02*
X3439229Y-13591508D01*
X3439229Y-13591508D02*
X3448753Y-13601031D01*
X3448753Y-13601031D02*
X3458277Y-13620079D01*
X3458277Y-13620079D02*
X3467801Y-13658174D01*
X3467801Y-13658174D02*
X3467801Y-13705793D01*
X3467801Y-13705793D02*
X3458277Y-13743888D01*
X3458277Y-13743888D02*
X3448753Y-13762936D01*
X3448753Y-13762936D02*
X3439229Y-13772460D01*
X3439229Y-13772460D02*
X3420182Y-13781984D01*
X3420182Y-13781984D02*
X3401134Y-13781984D01*
X3401134Y-13781984D02*
X3382086Y-13772460D01*
X3382086Y-13772460D02*
X3372563Y-13762936D01*
X3372563Y-13762936D02*
X3363039Y-13743888D01*
X3363039Y-13743888D02*
X3353515Y-13705793D01*
X3353515Y-13705793D02*
X3353515Y-13658174D01*
X3353515Y-13658174D02*
X3363039Y-13620079D01*
X3363039Y-13620079D02*
X3372563Y-13601031D01*
X3372563Y-13601031D02*
X3382086Y-13591508D01*
X3382086Y-13591508D02*
X3401134Y-13581984D01*
X3553515Y-13762936D02*
X3563039Y-13772460D01*
X3563039Y-13772460D02*
X3553515Y-13781984D01*
X3553515Y-13781984D02*
X3543991Y-13772460D01*
X3543991Y-13772460D02*
X3553515Y-13762936D01*
X3553515Y-13762936D02*
X3553515Y-13781984D01*
X3686848Y-13581984D02*
X3705896Y-13581984D01*
X3705896Y-13581984D02*
X3724944Y-13591508D01*
X3724944Y-13591508D02*
X3734467Y-13601031D01*
X3734467Y-13601031D02*
X3743991Y-13620079D01*
X3743991Y-13620079D02*
X3753515Y-13658174D01*
X3753515Y-13658174D02*
X3753515Y-13705793D01*
X3753515Y-13705793D02*
X3743991Y-13743888D01*
X3743991Y-13743888D02*
X3734467Y-13762936D01*
X3734467Y-13762936D02*
X3724944Y-13772460D01*
X3724944Y-13772460D02*
X3705896Y-13781984D01*
X3705896Y-13781984D02*
X3686848Y-13781984D01*
X3686848Y-13781984D02*
X3667801Y-13772460D01*
X3667801Y-13772460D02*
X3658277Y-13762936D01*
X3658277Y-13762936D02*
X3648753Y-13743888D01*
X3648753Y-13743888D02*
X3639229Y-13705793D01*
X3639229Y-13705793D02*
X3639229Y-13658174D01*
X3639229Y-13658174D02*
X3648753Y-13620079D01*
X3648753Y-13620079D02*
X3658277Y-13601031D01*
X3658277Y-13601031D02*
X3667801Y-13591508D01*
X3667801Y-13591508D02*
X3686848Y-13581984D01*
X3934467Y-13581984D02*
X3839229Y-13581984D01*
X3839229Y-13581984D02*
X3829706Y-13677222D01*
X3829706Y-13677222D02*
X3839229Y-13667698D01*
X3839229Y-13667698D02*
X3858277Y-13658174D01*
X3858277Y-13658174D02*
X3905896Y-13658174D01*
X3905896Y-13658174D02*
X3924944Y-13667698D01*
X3924944Y-13667698D02*
X3934467Y-13677222D01*
X3934467Y-13677222D02*
X3943991Y-13696269D01*
X3943991Y-13696269D02*
X3943991Y-13743888D01*
X3943991Y-13743888D02*
X3934467Y-13762936D01*
X3934467Y-13762936D02*
X3924944Y-13772460D01*
X3924944Y-13772460D02*
X3905896Y-13781984D01*
X3905896Y-13781984D02*
X3858277Y-13781984D01*
X3858277Y-13781984D02*
X3839229Y-13772460D01*
X3839229Y-13772460D02*
X3829706Y-13762936D01*
X4134467Y-13781984D02*
X4020182Y-13781984D01*
X4077325Y-13781984D02*
X4077325Y-13581984D01*
X4077325Y-13581984D02*
X4058277Y-13610555D01*
X4058277Y-13610555D02*
X4039229Y-13629603D01*
X4039229Y-13629603D02*
X4020182Y-13639127D01*
X4210658Y-13601031D02*
X4220182Y-13591508D01*
X4220182Y-13591508D02*
X4239229Y-13581984D01*
X4239229Y-13581984D02*
X4286849Y-13581984D01*
X4286849Y-13581984D02*
X4305896Y-13591508D01*
X4305896Y-13591508D02*
X4315420Y-13601031D01*
X4315420Y-13601031D02*
X4324944Y-13620079D01*
X4324944Y-13620079D02*
X4324944Y-13639127D01*
X4324944Y-13639127D02*
X4315420Y-13667698D01*
X4315420Y-13667698D02*
X4201134Y-13781984D01*
X4201134Y-13781984D02*
X4324944Y-13781984D01*
X4401134Y-13581984D02*
X4401134Y-13620079D01*
X4477325Y-13581984D02*
X4477325Y-13620079D01*
X4772563Y-13858174D02*
X4763039Y-13848650D01*
X4763039Y-13848650D02*
X4743991Y-13820079D01*
X4743991Y-13820079D02*
X4734468Y-13801031D01*
X4734468Y-13801031D02*
X4724944Y-13772460D01*
X4724944Y-13772460D02*
X4715420Y-13724841D01*
X4715420Y-13724841D02*
X4715420Y-13686746D01*
X4715420Y-13686746D02*
X4724944Y-13639127D01*
X4724944Y-13639127D02*
X4734468Y-13610555D01*
X4734468Y-13610555D02*
X4743991Y-13591508D01*
X4743991Y-13591508D02*
X4763039Y-13562936D01*
X4763039Y-13562936D02*
X4772563Y-13553412D01*
X4839230Y-13601031D02*
X4848753Y-13591508D01*
X4848753Y-13591508D02*
X4867801Y-13581984D01*
X4867801Y-13581984D02*
X4915420Y-13581984D01*
X4915420Y-13581984D02*
X4934468Y-13591508D01*
X4934468Y-13591508D02*
X4943991Y-13601031D01*
X4943991Y-13601031D02*
X4953515Y-13620079D01*
X4953515Y-13620079D02*
X4953515Y-13639127D01*
X4953515Y-13639127D02*
X4943991Y-13667698D01*
X4943991Y-13667698D02*
X4829706Y-13781984D01*
X4829706Y-13781984D02*
X4953515Y-13781984D01*
X5077325Y-13581984D02*
X5096372Y-13581984D01*
X5096372Y-13581984D02*
X5115420Y-13591508D01*
X5115420Y-13591508D02*
X5124944Y-13601031D01*
X5124944Y-13601031D02*
X5134468Y-13620079D01*
X5134468Y-13620079D02*
X5143991Y-13658174D01*
X5143991Y-13658174D02*
X5143991Y-13705793D01*
X5143991Y-13705793D02*
X5134468Y-13743888D01*
X5134468Y-13743888D02*
X5124944Y-13762936D01*
X5124944Y-13762936D02*
X5115420Y-13772460D01*
X5115420Y-13772460D02*
X5096372Y-13781984D01*
X5096372Y-13781984D02*
X5077325Y-13781984D01*
X5077325Y-13781984D02*
X5058277Y-13772460D01*
X5058277Y-13772460D02*
X5048753Y-13762936D01*
X5048753Y-13762936D02*
X5039230Y-13743888D01*
X5039230Y-13743888D02*
X5029706Y-13705793D01*
X5029706Y-13705793D02*
X5029706Y-13658174D01*
X5029706Y-13658174D02*
X5039230Y-13620079D01*
X5039230Y-13620079D02*
X5048753Y-13601031D01*
X5048753Y-13601031D02*
X5058277Y-13591508D01*
X5058277Y-13591508D02*
X5077325Y-13581984D01*
X5382087Y-13781984D02*
X5382087Y-13581984D01*
X5467801Y-13781984D02*
X5467801Y-13677222D01*
X5467801Y-13677222D02*
X5458277Y-13658174D01*
X5458277Y-13658174D02*
X5439230Y-13648650D01*
X5439230Y-13648650D02*
X5410658Y-13648650D01*
X5410658Y-13648650D02*
X5391611Y-13658174D01*
X5391611Y-13658174D02*
X5382087Y-13667698D01*
X5591611Y-13781984D02*
X5572563Y-13772460D01*
X5572563Y-13772460D02*
X5563039Y-13762936D01*
X5563039Y-13762936D02*
X5553515Y-13743888D01*
X5553515Y-13743888D02*
X5553515Y-13686746D01*
X5553515Y-13686746D02*
X5563039Y-13667698D01*
X5563039Y-13667698D02*
X5572563Y-13658174D01*
X5572563Y-13658174D02*
X5591611Y-13648650D01*
X5591611Y-13648650D02*
X5620182Y-13648650D01*
X5620182Y-13648650D02*
X5639230Y-13658174D01*
X5639230Y-13658174D02*
X5648753Y-13667698D01*
X5648753Y-13667698D02*
X5658277Y-13686746D01*
X5658277Y-13686746D02*
X5658277Y-13743888D01*
X5658277Y-13743888D02*
X5648753Y-13762936D01*
X5648753Y-13762936D02*
X5639230Y-13772460D01*
X5639230Y-13772460D02*
X5620182Y-13781984D01*
X5620182Y-13781984D02*
X5591611Y-13781984D01*
X5772563Y-13781984D02*
X5753515Y-13772460D01*
X5753515Y-13772460D02*
X5743991Y-13753412D01*
X5743991Y-13753412D02*
X5743991Y-13581984D01*
X5924944Y-13772460D02*
X5905896Y-13781984D01*
X5905896Y-13781984D02*
X5867801Y-13781984D01*
X5867801Y-13781984D02*
X5848753Y-13772460D01*
X5848753Y-13772460D02*
X5839230Y-13753412D01*
X5839230Y-13753412D02*
X5839230Y-13677222D01*
X5839230Y-13677222D02*
X5848753Y-13658174D01*
X5848753Y-13658174D02*
X5867801Y-13648650D01*
X5867801Y-13648650D02*
X5905896Y-13648650D01*
X5905896Y-13648650D02*
X5924944Y-13658174D01*
X5924944Y-13658174D02*
X5934468Y-13677222D01*
X5934468Y-13677222D02*
X5934468Y-13696269D01*
X5934468Y-13696269D02*
X5839230Y-13715317D01*
X6010658Y-13772460D02*
X6029706Y-13781984D01*
X6029706Y-13781984D02*
X6067801Y-13781984D01*
X6067801Y-13781984D02*
X6086849Y-13772460D01*
X6086849Y-13772460D02*
X6096372Y-13753412D01*
X6096372Y-13753412D02*
X6096372Y-13743888D01*
X6096372Y-13743888D02*
X6086849Y-13724841D01*
X6086849Y-13724841D02*
X6067801Y-13715317D01*
X6067801Y-13715317D02*
X6039230Y-13715317D01*
X6039230Y-13715317D02*
X6020182Y-13705793D01*
X6020182Y-13705793D02*
X6010658Y-13686746D01*
X6010658Y-13686746D02*
X6010658Y-13677222D01*
X6010658Y-13677222D02*
X6020182Y-13658174D01*
X6020182Y-13658174D02*
X6039230Y-13648650D01*
X6039230Y-13648650D02*
X6067801Y-13648650D01*
X6067801Y-13648650D02*
X6086849Y-13658174D01*
X6163039Y-13858174D02*
X6172563Y-13848650D01*
X6172563Y-13848650D02*
X6191611Y-13820079D01*
X6191611Y-13820079D02*
X6201134Y-13801031D01*
X6201134Y-13801031D02*
X6210658Y-13772460D01*
X6210658Y-13772460D02*
X6220182Y-13724841D01*
X6220182Y-13724841D02*
X6220182Y-13686746D01*
X6220182Y-13686746D02*
X6210658Y-13639127D01*
X6210658Y-13639127D02*
X6201134Y-13610555D01*
X6201134Y-13610555D02*
X6191611Y-13591508D01*
X6191611Y-13591508D02*
X6172563Y-13562936D01*
X6172563Y-13562936D02*
X6163039Y-13553412D01*
D15*
X1037500Y-13874500D02*
X1197500Y-14034500D01*
X1197500Y-13874500D02*
X1037500Y-14034500D01*
X1117500Y-14034500D02*
X1197500Y-13954500D01*
X1117500Y-13874500D01*
X1037500Y-13954500D01*
X1117500Y-14034500D01*
D11*
X1563039Y-14045984D02*
X1448753Y-14045984D01*
X1505896Y-14045984D02*
X1505896Y-13845984D01*
X1505896Y-13845984D02*
X1486848Y-13874555D01*
X1486848Y-13874555D02*
X1467801Y-13893603D01*
X1467801Y-13893603D02*
X1448753Y-13903127D01*
X1648753Y-14026936D02*
X1658277Y-14036460D01*
X1658277Y-14036460D02*
X1648753Y-14045984D01*
X1648753Y-14045984D02*
X1639229Y-14036460D01*
X1639229Y-14036460D02*
X1648753Y-14026936D01*
X1648753Y-14026936D02*
X1648753Y-14045984D01*
X1829705Y-13845984D02*
X1791610Y-13845984D01*
X1791610Y-13845984D02*
X1772562Y-13855508D01*
X1772562Y-13855508D02*
X1763039Y-13865031D01*
X1763039Y-13865031D02*
X1743991Y-13893603D01*
X1743991Y-13893603D02*
X1734467Y-13931698D01*
X1734467Y-13931698D02*
X1734467Y-14007888D01*
X1734467Y-14007888D02*
X1743991Y-14026936D01*
X1743991Y-14026936D02*
X1753515Y-14036460D01*
X1753515Y-14036460D02*
X1772562Y-14045984D01*
X1772562Y-14045984D02*
X1810658Y-14045984D01*
X1810658Y-14045984D02*
X1829705Y-14036460D01*
X1829705Y-14036460D02*
X1839229Y-14026936D01*
X1839229Y-14026936D02*
X1848753Y-14007888D01*
X1848753Y-14007888D02*
X1848753Y-13960269D01*
X1848753Y-13960269D02*
X1839229Y-13941222D01*
X1839229Y-13941222D02*
X1829705Y-13931698D01*
X1829705Y-13931698D02*
X1810658Y-13922174D01*
X1810658Y-13922174D02*
X1772562Y-13922174D01*
X1772562Y-13922174D02*
X1753515Y-13931698D01*
X1753515Y-13931698D02*
X1743991Y-13941222D01*
X1743991Y-13941222D02*
X1734467Y-13960269D01*
X1972562Y-13845984D02*
X1991610Y-13845984D01*
X1991610Y-13845984D02*
X2010658Y-13855508D01*
X2010658Y-13855508D02*
X2020182Y-13865031D01*
X2020182Y-13865031D02*
X2029705Y-13884079D01*
X2029705Y-13884079D02*
X2039229Y-13922174D01*
X2039229Y-13922174D02*
X2039229Y-13969793D01*
X2039229Y-13969793D02*
X2029705Y-14007888D01*
X2029705Y-14007888D02*
X2020182Y-14026936D01*
X2020182Y-14026936D02*
X2010658Y-14036460D01*
X2010658Y-14036460D02*
X1991610Y-14045984D01*
X1991610Y-14045984D02*
X1972562Y-14045984D01*
X1972562Y-14045984D02*
X1953515Y-14036460D01*
X1953515Y-14036460D02*
X1943991Y-14026936D01*
X1943991Y-14026936D02*
X1934467Y-14007888D01*
X1934467Y-14007888D02*
X1924943Y-13969793D01*
X1924943Y-13969793D02*
X1924943Y-13922174D01*
X1924943Y-13922174D02*
X1934467Y-13884079D01*
X1934467Y-13884079D02*
X1943991Y-13865031D01*
X1943991Y-13865031D02*
X1953515Y-13855508D01*
X1953515Y-13855508D02*
X1972562Y-13845984D01*
X2163039Y-13845984D02*
X2182086Y-13845984D01*
X2182086Y-13845984D02*
X2201134Y-13855508D01*
X2201134Y-13855508D02*
X2210658Y-13865031D01*
X2210658Y-13865031D02*
X2220182Y-13884079D01*
X2220182Y-13884079D02*
X2229705Y-13922174D01*
X2229705Y-13922174D02*
X2229705Y-13969793D01*
X2229705Y-13969793D02*
X2220182Y-14007888D01*
X2220182Y-14007888D02*
X2210658Y-14026936D01*
X2210658Y-14026936D02*
X2201134Y-14036460D01*
X2201134Y-14036460D02*
X2182086Y-14045984D01*
X2182086Y-14045984D02*
X2163039Y-14045984D01*
X2163039Y-14045984D02*
X2143991Y-14036460D01*
X2143991Y-14036460D02*
X2134467Y-14026936D01*
X2134467Y-14026936D02*
X2124944Y-14007888D01*
X2124944Y-14007888D02*
X2115420Y-13969793D01*
X2115420Y-13969793D02*
X2115420Y-13922174D01*
X2115420Y-13922174D02*
X2124944Y-13884079D01*
X2124944Y-13884079D02*
X2134467Y-13865031D01*
X2134467Y-13865031D02*
X2143991Y-13855508D01*
X2143991Y-13855508D02*
X2163039Y-13845984D01*
X2315420Y-14045984D02*
X2315420Y-13912650D01*
X2315420Y-13931698D02*
X2324944Y-13922174D01*
X2324944Y-13922174D02*
X2343991Y-13912650D01*
X2343991Y-13912650D02*
X2372563Y-13912650D01*
X2372563Y-13912650D02*
X2391610Y-13922174D01*
X2391610Y-13922174D02*
X2401134Y-13941222D01*
X2401134Y-13941222D02*
X2401134Y-14045984D01*
X2401134Y-13941222D02*
X2410658Y-13922174D01*
X2410658Y-13922174D02*
X2429705Y-13912650D01*
X2429705Y-13912650D02*
X2458277Y-13912650D01*
X2458277Y-13912650D02*
X2477325Y-13922174D01*
X2477325Y-13922174D02*
X2486848Y-13941222D01*
X2486848Y-13941222D02*
X2486848Y-14045984D01*
X2582086Y-14045984D02*
X2582086Y-13912650D01*
X2582086Y-13931698D02*
X2591610Y-13922174D01*
X2591610Y-13922174D02*
X2610658Y-13912650D01*
X2610658Y-13912650D02*
X2639229Y-13912650D01*
X2639229Y-13912650D02*
X2658277Y-13922174D01*
X2658277Y-13922174D02*
X2667801Y-13941222D01*
X2667801Y-13941222D02*
X2667801Y-14045984D01*
X2667801Y-13941222D02*
X2677325Y-13922174D01*
X2677325Y-13922174D02*
X2696372Y-13912650D01*
X2696372Y-13912650D02*
X2724944Y-13912650D01*
X2724944Y-13912650D02*
X2743991Y-13922174D01*
X2743991Y-13922174D02*
X2753515Y-13941222D01*
X2753515Y-13941222D02*
X2753515Y-14045984D01*
X3143991Y-13836460D02*
X2972563Y-14093603D01*
X3401134Y-13845984D02*
X3420182Y-13845984D01*
X3420182Y-13845984D02*
X3439229Y-13855508D01*
X3439229Y-13855508D02*
X3448753Y-13865031D01*
X3448753Y-13865031D02*
X3458277Y-13884079D01*
X3458277Y-13884079D02*
X3467801Y-13922174D01*
X3467801Y-13922174D02*
X3467801Y-13969793D01*
X3467801Y-13969793D02*
X3458277Y-14007888D01*
X3458277Y-14007888D02*
X3448753Y-14026936D01*
X3448753Y-14026936D02*
X3439229Y-14036460D01*
X3439229Y-14036460D02*
X3420182Y-14045984D01*
X3420182Y-14045984D02*
X3401134Y-14045984D01*
X3401134Y-14045984D02*
X3382086Y-14036460D01*
X3382086Y-14036460D02*
X3372563Y-14026936D01*
X3372563Y-14026936D02*
X3363039Y-14007888D01*
X3363039Y-14007888D02*
X3353515Y-13969793D01*
X3353515Y-13969793D02*
X3353515Y-13922174D01*
X3353515Y-13922174D02*
X3363039Y-13884079D01*
X3363039Y-13884079D02*
X3372563Y-13865031D01*
X3372563Y-13865031D02*
X3382086Y-13855508D01*
X3382086Y-13855508D02*
X3401134Y-13845984D01*
X3553515Y-14026936D02*
X3563039Y-14036460D01*
X3563039Y-14036460D02*
X3553515Y-14045984D01*
X3553515Y-14045984D02*
X3543991Y-14036460D01*
X3543991Y-14036460D02*
X3553515Y-14026936D01*
X3553515Y-14026936D02*
X3553515Y-14045984D01*
X3686848Y-13845984D02*
X3705896Y-13845984D01*
X3705896Y-13845984D02*
X3724944Y-13855508D01*
X3724944Y-13855508D02*
X3734467Y-13865031D01*
X3734467Y-13865031D02*
X3743991Y-13884079D01*
X3743991Y-13884079D02*
X3753515Y-13922174D01*
X3753515Y-13922174D02*
X3753515Y-13969793D01*
X3753515Y-13969793D02*
X3743991Y-14007888D01*
X3743991Y-14007888D02*
X3734467Y-14026936D01*
X3734467Y-14026936D02*
X3724944Y-14036460D01*
X3724944Y-14036460D02*
X3705896Y-14045984D01*
X3705896Y-14045984D02*
X3686848Y-14045984D01*
X3686848Y-14045984D02*
X3667801Y-14036460D01*
X3667801Y-14036460D02*
X3658277Y-14026936D01*
X3658277Y-14026936D02*
X3648753Y-14007888D01*
X3648753Y-14007888D02*
X3639229Y-13969793D01*
X3639229Y-13969793D02*
X3639229Y-13922174D01*
X3639229Y-13922174D02*
X3648753Y-13884079D01*
X3648753Y-13884079D02*
X3658277Y-13865031D01*
X3658277Y-13865031D02*
X3667801Y-13855508D01*
X3667801Y-13855508D02*
X3686848Y-13845984D01*
X3924944Y-13845984D02*
X3886848Y-13845984D01*
X3886848Y-13845984D02*
X3867801Y-13855508D01*
X3867801Y-13855508D02*
X3858277Y-13865031D01*
X3858277Y-13865031D02*
X3839229Y-13893603D01*
X3839229Y-13893603D02*
X3829706Y-13931698D01*
X3829706Y-13931698D02*
X3829706Y-14007888D01*
X3829706Y-14007888D02*
X3839229Y-14026936D01*
X3839229Y-14026936D02*
X3848753Y-14036460D01*
X3848753Y-14036460D02*
X3867801Y-14045984D01*
X3867801Y-14045984D02*
X3905896Y-14045984D01*
X3905896Y-14045984D02*
X3924944Y-14036460D01*
X3924944Y-14036460D02*
X3934467Y-14026936D01*
X3934467Y-14026936D02*
X3943991Y-14007888D01*
X3943991Y-14007888D02*
X3943991Y-13960269D01*
X3943991Y-13960269D02*
X3934467Y-13941222D01*
X3934467Y-13941222D02*
X3924944Y-13931698D01*
X3924944Y-13931698D02*
X3905896Y-13922174D01*
X3905896Y-13922174D02*
X3867801Y-13922174D01*
X3867801Y-13922174D02*
X3848753Y-13931698D01*
X3848753Y-13931698D02*
X3839229Y-13941222D01*
X3839229Y-13941222D02*
X3829706Y-13960269D01*
X4010658Y-13845984D02*
X4134467Y-13845984D01*
X4134467Y-13845984D02*
X4067801Y-13922174D01*
X4067801Y-13922174D02*
X4096372Y-13922174D01*
X4096372Y-13922174D02*
X4115420Y-13931698D01*
X4115420Y-13931698D02*
X4124944Y-13941222D01*
X4124944Y-13941222D02*
X4134467Y-13960269D01*
X4134467Y-13960269D02*
X4134467Y-14007888D01*
X4134467Y-14007888D02*
X4124944Y-14026936D01*
X4124944Y-14026936D02*
X4115420Y-14036460D01*
X4115420Y-14036460D02*
X4096372Y-14045984D01*
X4096372Y-14045984D02*
X4039229Y-14045984D01*
X4039229Y-14045984D02*
X4020182Y-14036460D01*
X4020182Y-14036460D02*
X4010658Y-14026936D01*
X4258277Y-13845984D02*
X4277325Y-13845984D01*
X4277325Y-13845984D02*
X4296372Y-13855508D01*
X4296372Y-13855508D02*
X4305896Y-13865031D01*
X4305896Y-13865031D02*
X4315420Y-13884079D01*
X4315420Y-13884079D02*
X4324944Y-13922174D01*
X4324944Y-13922174D02*
X4324944Y-13969793D01*
X4324944Y-13969793D02*
X4315420Y-14007888D01*
X4315420Y-14007888D02*
X4305896Y-14026936D01*
X4305896Y-14026936D02*
X4296372Y-14036460D01*
X4296372Y-14036460D02*
X4277325Y-14045984D01*
X4277325Y-14045984D02*
X4258277Y-14045984D01*
X4258277Y-14045984D02*
X4239229Y-14036460D01*
X4239229Y-14036460D02*
X4229706Y-14026936D01*
X4229706Y-14026936D02*
X4220182Y-14007888D01*
X4220182Y-14007888D02*
X4210658Y-13969793D01*
X4210658Y-13969793D02*
X4210658Y-13922174D01*
X4210658Y-13922174D02*
X4220182Y-13884079D01*
X4220182Y-13884079D02*
X4229706Y-13865031D01*
X4229706Y-13865031D02*
X4239229Y-13855508D01*
X4239229Y-13855508D02*
X4258277Y-13845984D01*
X4401134Y-13845984D02*
X4401134Y-13884079D01*
X4477325Y-13845984D02*
X4477325Y-13884079D01*
X4772563Y-14122174D02*
X4763039Y-14112650D01*
X4763039Y-14112650D02*
X4743991Y-14084079D01*
X4743991Y-14084079D02*
X4734468Y-14065031D01*
X4734468Y-14065031D02*
X4724944Y-14036460D01*
X4724944Y-14036460D02*
X4715420Y-13988841D01*
X4715420Y-13988841D02*
X4715420Y-13950746D01*
X4715420Y-13950746D02*
X4724944Y-13903127D01*
X4724944Y-13903127D02*
X4734468Y-13874555D01*
X4734468Y-13874555D02*
X4743991Y-13855508D01*
X4743991Y-13855508D02*
X4763039Y-13826936D01*
X4763039Y-13826936D02*
X4772563Y-13817412D01*
X4953515Y-14045984D02*
X4839230Y-14045984D01*
X4896372Y-14045984D02*
X4896372Y-13845984D01*
X4896372Y-13845984D02*
X4877325Y-13874555D01*
X4877325Y-13874555D02*
X4858277Y-13893603D01*
X4858277Y-13893603D02*
X4839230Y-13903127D01*
X5191611Y-14045984D02*
X5191611Y-13845984D01*
X5277325Y-14045984D02*
X5277325Y-13941222D01*
X5277325Y-13941222D02*
X5267801Y-13922174D01*
X5267801Y-13922174D02*
X5248753Y-13912650D01*
X5248753Y-13912650D02*
X5220182Y-13912650D01*
X5220182Y-13912650D02*
X5201134Y-13922174D01*
X5201134Y-13922174D02*
X5191611Y-13931698D01*
X5401134Y-14045984D02*
X5382087Y-14036460D01*
X5382087Y-14036460D02*
X5372563Y-14026936D01*
X5372563Y-14026936D02*
X5363039Y-14007888D01*
X5363039Y-14007888D02*
X5363039Y-13950746D01*
X5363039Y-13950746D02*
X5372563Y-13931698D01*
X5372563Y-13931698D02*
X5382087Y-13922174D01*
X5382087Y-13922174D02*
X5401134Y-13912650D01*
X5401134Y-13912650D02*
X5429706Y-13912650D01*
X5429706Y-13912650D02*
X5448753Y-13922174D01*
X5448753Y-13922174D02*
X5458277Y-13931698D01*
X5458277Y-13931698D02*
X5467801Y-13950746D01*
X5467801Y-13950746D02*
X5467801Y-14007888D01*
X5467801Y-14007888D02*
X5458277Y-14026936D01*
X5458277Y-14026936D02*
X5448753Y-14036460D01*
X5448753Y-14036460D02*
X5429706Y-14045984D01*
X5429706Y-14045984D02*
X5401134Y-14045984D01*
X5582087Y-14045984D02*
X5563039Y-14036460D01*
X5563039Y-14036460D02*
X5553515Y-14017412D01*
X5553515Y-14017412D02*
X5553515Y-13845984D01*
X5734468Y-14036460D02*
X5715420Y-14045984D01*
X5715420Y-14045984D02*
X5677325Y-14045984D01*
X5677325Y-14045984D02*
X5658277Y-14036460D01*
X5658277Y-14036460D02*
X5648753Y-14017412D01*
X5648753Y-14017412D02*
X5648753Y-13941222D01*
X5648753Y-13941222D02*
X5658277Y-13922174D01*
X5658277Y-13922174D02*
X5677325Y-13912650D01*
X5677325Y-13912650D02*
X5715420Y-13912650D01*
X5715420Y-13912650D02*
X5734468Y-13922174D01*
X5734468Y-13922174D02*
X5743991Y-13941222D01*
X5743991Y-13941222D02*
X5743991Y-13960269D01*
X5743991Y-13960269D02*
X5648753Y-13979317D01*
X5810658Y-14122174D02*
X5820182Y-14112650D01*
X5820182Y-14112650D02*
X5839230Y-14084079D01*
X5839230Y-14084079D02*
X5848753Y-14065031D01*
X5848753Y-14065031D02*
X5858277Y-14036460D01*
X5858277Y-14036460D02*
X5867801Y-13988841D01*
X5867801Y-13988841D02*
X5867801Y-13950746D01*
X5867801Y-13950746D02*
X5858277Y-13903127D01*
X5858277Y-13903127D02*
X5848753Y-13874555D01*
X5848753Y-13874555D02*
X5839230Y-13855508D01*
X5839230Y-13855508D02*
X5820182Y-13826936D01*
X5820182Y-13826936D02*
X5810658Y-13817412D01*
D15*
X1117500Y-14154500D02*
X1117500Y-14314500D01*
X1037500Y-14234500D02*
X1197500Y-14234500D01*
X1197500Y-14234500D02*
G75*
G02*
X1037500Y-14234500I-80000J0D01*
G01*
X1037500Y-14234500D02*
G75*
G02*
X1197500Y-14234500I80000J0D01*
G01*
D11*
X1563039Y-14325984D02*
X1448753Y-14325984D01*
X1505896Y-14325984D02*
X1505896Y-14125984D01*
X1505896Y-14125984D02*
X1486848Y-14154555D01*
X1486848Y-14154555D02*
X1467801Y-14173603D01*
X1467801Y-14173603D02*
X1448753Y-14183127D01*
X1648753Y-14306936D02*
X1658277Y-14316460D01*
X1658277Y-14316460D02*
X1648753Y-14325984D01*
X1648753Y-14325984D02*
X1639229Y-14316460D01*
X1639229Y-14316460D02*
X1648753Y-14306936D01*
X1648753Y-14306936D02*
X1648753Y-14325984D01*
X1829705Y-14125984D02*
X1791610Y-14125984D01*
X1791610Y-14125984D02*
X1772562Y-14135508D01*
X1772562Y-14135508D02*
X1763039Y-14145031D01*
X1763039Y-14145031D02*
X1743991Y-14173603D01*
X1743991Y-14173603D02*
X1734467Y-14211698D01*
X1734467Y-14211698D02*
X1734467Y-14287888D01*
X1734467Y-14287888D02*
X1743991Y-14306936D01*
X1743991Y-14306936D02*
X1753515Y-14316460D01*
X1753515Y-14316460D02*
X1772562Y-14325984D01*
X1772562Y-14325984D02*
X1810658Y-14325984D01*
X1810658Y-14325984D02*
X1829705Y-14316460D01*
X1829705Y-14316460D02*
X1839229Y-14306936D01*
X1839229Y-14306936D02*
X1848753Y-14287888D01*
X1848753Y-14287888D02*
X1848753Y-14240269D01*
X1848753Y-14240269D02*
X1839229Y-14221222D01*
X1839229Y-14221222D02*
X1829705Y-14211698D01*
X1829705Y-14211698D02*
X1810658Y-14202174D01*
X1810658Y-14202174D02*
X1772562Y-14202174D01*
X1772562Y-14202174D02*
X1753515Y-14211698D01*
X1753515Y-14211698D02*
X1743991Y-14221222D01*
X1743991Y-14221222D02*
X1734467Y-14240269D01*
X1972562Y-14125984D02*
X1991610Y-14125984D01*
X1991610Y-14125984D02*
X2010658Y-14135508D01*
X2010658Y-14135508D02*
X2020182Y-14145031D01*
X2020182Y-14145031D02*
X2029705Y-14164079D01*
X2029705Y-14164079D02*
X2039229Y-14202174D01*
X2039229Y-14202174D02*
X2039229Y-14249793D01*
X2039229Y-14249793D02*
X2029705Y-14287888D01*
X2029705Y-14287888D02*
X2020182Y-14306936D01*
X2020182Y-14306936D02*
X2010658Y-14316460D01*
X2010658Y-14316460D02*
X1991610Y-14325984D01*
X1991610Y-14325984D02*
X1972562Y-14325984D01*
X1972562Y-14325984D02*
X1953515Y-14316460D01*
X1953515Y-14316460D02*
X1943991Y-14306936D01*
X1943991Y-14306936D02*
X1934467Y-14287888D01*
X1934467Y-14287888D02*
X1924943Y-14249793D01*
X1924943Y-14249793D02*
X1924943Y-14202174D01*
X1924943Y-14202174D02*
X1934467Y-14164079D01*
X1934467Y-14164079D02*
X1943991Y-14145031D01*
X1943991Y-14145031D02*
X1953515Y-14135508D01*
X1953515Y-14135508D02*
X1972562Y-14125984D01*
X2163039Y-14125984D02*
X2182086Y-14125984D01*
X2182086Y-14125984D02*
X2201134Y-14135508D01*
X2201134Y-14135508D02*
X2210658Y-14145031D01*
X2210658Y-14145031D02*
X2220182Y-14164079D01*
X2220182Y-14164079D02*
X2229705Y-14202174D01*
X2229705Y-14202174D02*
X2229705Y-14249793D01*
X2229705Y-14249793D02*
X2220182Y-14287888D01*
X2220182Y-14287888D02*
X2210658Y-14306936D01*
X2210658Y-14306936D02*
X2201134Y-14316460D01*
X2201134Y-14316460D02*
X2182086Y-14325984D01*
X2182086Y-14325984D02*
X2163039Y-14325984D01*
X2163039Y-14325984D02*
X2143991Y-14316460D01*
X2143991Y-14316460D02*
X2134467Y-14306936D01*
X2134467Y-14306936D02*
X2124944Y-14287888D01*
X2124944Y-14287888D02*
X2115420Y-14249793D01*
X2115420Y-14249793D02*
X2115420Y-14202174D01*
X2115420Y-14202174D02*
X2124944Y-14164079D01*
X2124944Y-14164079D02*
X2134467Y-14145031D01*
X2134467Y-14145031D02*
X2143991Y-14135508D01*
X2143991Y-14135508D02*
X2163039Y-14125984D01*
X2315420Y-14325984D02*
X2315420Y-14192650D01*
X2315420Y-14211698D02*
X2324944Y-14202174D01*
X2324944Y-14202174D02*
X2343991Y-14192650D01*
X2343991Y-14192650D02*
X2372563Y-14192650D01*
X2372563Y-14192650D02*
X2391610Y-14202174D01*
X2391610Y-14202174D02*
X2401134Y-14221222D01*
X2401134Y-14221222D02*
X2401134Y-14325984D01*
X2401134Y-14221222D02*
X2410658Y-14202174D01*
X2410658Y-14202174D02*
X2429705Y-14192650D01*
X2429705Y-14192650D02*
X2458277Y-14192650D01*
X2458277Y-14192650D02*
X2477325Y-14202174D01*
X2477325Y-14202174D02*
X2486848Y-14221222D01*
X2486848Y-14221222D02*
X2486848Y-14325984D01*
X2582086Y-14325984D02*
X2582086Y-14192650D01*
X2582086Y-14211698D02*
X2591610Y-14202174D01*
X2591610Y-14202174D02*
X2610658Y-14192650D01*
X2610658Y-14192650D02*
X2639229Y-14192650D01*
X2639229Y-14192650D02*
X2658277Y-14202174D01*
X2658277Y-14202174D02*
X2667801Y-14221222D01*
X2667801Y-14221222D02*
X2667801Y-14325984D01*
X2667801Y-14221222D02*
X2677325Y-14202174D01*
X2677325Y-14202174D02*
X2696372Y-14192650D01*
X2696372Y-14192650D02*
X2724944Y-14192650D01*
X2724944Y-14192650D02*
X2743991Y-14202174D01*
X2743991Y-14202174D02*
X2753515Y-14221222D01*
X2753515Y-14221222D02*
X2753515Y-14325984D01*
X3143991Y-14116460D02*
X2972563Y-14373603D01*
X3401134Y-14125984D02*
X3420182Y-14125984D01*
X3420182Y-14125984D02*
X3439229Y-14135508D01*
X3439229Y-14135508D02*
X3448753Y-14145031D01*
X3448753Y-14145031D02*
X3458277Y-14164079D01*
X3458277Y-14164079D02*
X3467801Y-14202174D01*
X3467801Y-14202174D02*
X3467801Y-14249793D01*
X3467801Y-14249793D02*
X3458277Y-14287888D01*
X3458277Y-14287888D02*
X3448753Y-14306936D01*
X3448753Y-14306936D02*
X3439229Y-14316460D01*
X3439229Y-14316460D02*
X3420182Y-14325984D01*
X3420182Y-14325984D02*
X3401134Y-14325984D01*
X3401134Y-14325984D02*
X3382086Y-14316460D01*
X3382086Y-14316460D02*
X3372563Y-14306936D01*
X3372563Y-14306936D02*
X3363039Y-14287888D01*
X3363039Y-14287888D02*
X3353515Y-14249793D01*
X3353515Y-14249793D02*
X3353515Y-14202174D01*
X3353515Y-14202174D02*
X3363039Y-14164079D01*
X3363039Y-14164079D02*
X3372563Y-14145031D01*
X3372563Y-14145031D02*
X3382086Y-14135508D01*
X3382086Y-14135508D02*
X3401134Y-14125984D01*
X3553515Y-14306936D02*
X3563039Y-14316460D01*
X3563039Y-14316460D02*
X3553515Y-14325984D01*
X3553515Y-14325984D02*
X3543991Y-14316460D01*
X3543991Y-14316460D02*
X3553515Y-14306936D01*
X3553515Y-14306936D02*
X3553515Y-14325984D01*
X3686848Y-14125984D02*
X3705896Y-14125984D01*
X3705896Y-14125984D02*
X3724944Y-14135508D01*
X3724944Y-14135508D02*
X3734467Y-14145031D01*
X3734467Y-14145031D02*
X3743991Y-14164079D01*
X3743991Y-14164079D02*
X3753515Y-14202174D01*
X3753515Y-14202174D02*
X3753515Y-14249793D01*
X3753515Y-14249793D02*
X3743991Y-14287888D01*
X3743991Y-14287888D02*
X3734467Y-14306936D01*
X3734467Y-14306936D02*
X3724944Y-14316460D01*
X3724944Y-14316460D02*
X3705896Y-14325984D01*
X3705896Y-14325984D02*
X3686848Y-14325984D01*
X3686848Y-14325984D02*
X3667801Y-14316460D01*
X3667801Y-14316460D02*
X3658277Y-14306936D01*
X3658277Y-14306936D02*
X3648753Y-14287888D01*
X3648753Y-14287888D02*
X3639229Y-14249793D01*
X3639229Y-14249793D02*
X3639229Y-14202174D01*
X3639229Y-14202174D02*
X3648753Y-14164079D01*
X3648753Y-14164079D02*
X3658277Y-14145031D01*
X3658277Y-14145031D02*
X3667801Y-14135508D01*
X3667801Y-14135508D02*
X3686848Y-14125984D01*
X3924944Y-14125984D02*
X3886848Y-14125984D01*
X3886848Y-14125984D02*
X3867801Y-14135508D01*
X3867801Y-14135508D02*
X3858277Y-14145031D01*
X3858277Y-14145031D02*
X3839229Y-14173603D01*
X3839229Y-14173603D02*
X3829706Y-14211698D01*
X3829706Y-14211698D02*
X3829706Y-14287888D01*
X3829706Y-14287888D02*
X3839229Y-14306936D01*
X3839229Y-14306936D02*
X3848753Y-14316460D01*
X3848753Y-14316460D02*
X3867801Y-14325984D01*
X3867801Y-14325984D02*
X3905896Y-14325984D01*
X3905896Y-14325984D02*
X3924944Y-14316460D01*
X3924944Y-14316460D02*
X3934467Y-14306936D01*
X3934467Y-14306936D02*
X3943991Y-14287888D01*
X3943991Y-14287888D02*
X3943991Y-14240269D01*
X3943991Y-14240269D02*
X3934467Y-14221222D01*
X3934467Y-14221222D02*
X3924944Y-14211698D01*
X3924944Y-14211698D02*
X3905896Y-14202174D01*
X3905896Y-14202174D02*
X3867801Y-14202174D01*
X3867801Y-14202174D02*
X3848753Y-14211698D01*
X3848753Y-14211698D02*
X3839229Y-14221222D01*
X3839229Y-14221222D02*
X3829706Y-14240269D01*
X4010658Y-14125984D02*
X4134467Y-14125984D01*
X4134467Y-14125984D02*
X4067801Y-14202174D01*
X4067801Y-14202174D02*
X4096372Y-14202174D01*
X4096372Y-14202174D02*
X4115420Y-14211698D01*
X4115420Y-14211698D02*
X4124944Y-14221222D01*
X4124944Y-14221222D02*
X4134467Y-14240269D01*
X4134467Y-14240269D02*
X4134467Y-14287888D01*
X4134467Y-14287888D02*
X4124944Y-14306936D01*
X4124944Y-14306936D02*
X4115420Y-14316460D01*
X4115420Y-14316460D02*
X4096372Y-14325984D01*
X4096372Y-14325984D02*
X4039229Y-14325984D01*
X4039229Y-14325984D02*
X4020182Y-14316460D01*
X4020182Y-14316460D02*
X4010658Y-14306936D01*
X4258277Y-14125984D02*
X4277325Y-14125984D01*
X4277325Y-14125984D02*
X4296372Y-14135508D01*
X4296372Y-14135508D02*
X4305896Y-14145031D01*
X4305896Y-14145031D02*
X4315420Y-14164079D01*
X4315420Y-14164079D02*
X4324944Y-14202174D01*
X4324944Y-14202174D02*
X4324944Y-14249793D01*
X4324944Y-14249793D02*
X4315420Y-14287888D01*
X4315420Y-14287888D02*
X4305896Y-14306936D01*
X4305896Y-14306936D02*
X4296372Y-14316460D01*
X4296372Y-14316460D02*
X4277325Y-14325984D01*
X4277325Y-14325984D02*
X4258277Y-14325984D01*
X4258277Y-14325984D02*
X4239229Y-14316460D01*
X4239229Y-14316460D02*
X4229706Y-14306936D01*
X4229706Y-14306936D02*
X4220182Y-14287888D01*
X4220182Y-14287888D02*
X4210658Y-14249793D01*
X4210658Y-14249793D02*
X4210658Y-14202174D01*
X4210658Y-14202174D02*
X4220182Y-14164079D01*
X4220182Y-14164079D02*
X4229706Y-14145031D01*
X4229706Y-14145031D02*
X4239229Y-14135508D01*
X4239229Y-14135508D02*
X4258277Y-14125984D01*
X4401134Y-14125984D02*
X4401134Y-14164079D01*
X4477325Y-14125984D02*
X4477325Y-14164079D01*
X4772563Y-14402174D02*
X4763039Y-14392650D01*
X4763039Y-14392650D02*
X4743991Y-14364079D01*
X4743991Y-14364079D02*
X4734468Y-14345031D01*
X4734468Y-14345031D02*
X4724944Y-14316460D01*
X4724944Y-14316460D02*
X4715420Y-14268841D01*
X4715420Y-14268841D02*
X4715420Y-14230746D01*
X4715420Y-14230746D02*
X4724944Y-14183127D01*
X4724944Y-14183127D02*
X4734468Y-14154555D01*
X4734468Y-14154555D02*
X4743991Y-14135508D01*
X4743991Y-14135508D02*
X4763039Y-14106936D01*
X4763039Y-14106936D02*
X4772563Y-14097412D01*
X4877325Y-14211698D02*
X4858277Y-14202174D01*
X4858277Y-14202174D02*
X4848753Y-14192650D01*
X4848753Y-14192650D02*
X4839230Y-14173603D01*
X4839230Y-14173603D02*
X4839230Y-14164079D01*
X4839230Y-14164079D02*
X4848753Y-14145031D01*
X4848753Y-14145031D02*
X4858277Y-14135508D01*
X4858277Y-14135508D02*
X4877325Y-14125984D01*
X4877325Y-14125984D02*
X4915420Y-14125984D01*
X4915420Y-14125984D02*
X4934468Y-14135508D01*
X4934468Y-14135508D02*
X4943991Y-14145031D01*
X4943991Y-14145031D02*
X4953515Y-14164079D01*
X4953515Y-14164079D02*
X4953515Y-14173603D01*
X4953515Y-14173603D02*
X4943991Y-14192650D01*
X4943991Y-14192650D02*
X4934468Y-14202174D01*
X4934468Y-14202174D02*
X4915420Y-14211698D01*
X4915420Y-14211698D02*
X4877325Y-14211698D01*
X4877325Y-14211698D02*
X4858277Y-14221222D01*
X4858277Y-14221222D02*
X4848753Y-14230746D01*
X4848753Y-14230746D02*
X4839230Y-14249793D01*
X4839230Y-14249793D02*
X4839230Y-14287888D01*
X4839230Y-14287888D02*
X4848753Y-14306936D01*
X4848753Y-14306936D02*
X4858277Y-14316460D01*
X4858277Y-14316460D02*
X4877325Y-14325984D01*
X4877325Y-14325984D02*
X4915420Y-14325984D01*
X4915420Y-14325984D02*
X4934468Y-14316460D01*
X4934468Y-14316460D02*
X4943991Y-14306936D01*
X4943991Y-14306936D02*
X4953515Y-14287888D01*
X4953515Y-14287888D02*
X4953515Y-14249793D01*
X4953515Y-14249793D02*
X4943991Y-14230746D01*
X4943991Y-14230746D02*
X4934468Y-14221222D01*
X4934468Y-14221222D02*
X4915420Y-14211698D01*
X5191611Y-14325984D02*
X5191611Y-14125984D01*
X5277325Y-14325984D02*
X5277325Y-14221222D01*
X5277325Y-14221222D02*
X5267801Y-14202174D01*
X5267801Y-14202174D02*
X5248753Y-14192650D01*
X5248753Y-14192650D02*
X5220182Y-14192650D01*
X5220182Y-14192650D02*
X5201134Y-14202174D01*
X5201134Y-14202174D02*
X5191611Y-14211698D01*
X5401134Y-14325984D02*
X5382087Y-14316460D01*
X5382087Y-14316460D02*
X5372563Y-14306936D01*
X5372563Y-14306936D02*
X5363039Y-14287888D01*
X5363039Y-14287888D02*
X5363039Y-14230746D01*
X5363039Y-14230746D02*
X5372563Y-14211698D01*
X5372563Y-14211698D02*
X5382087Y-14202174D01*
X5382087Y-14202174D02*
X5401134Y-14192650D01*
X5401134Y-14192650D02*
X5429706Y-14192650D01*
X5429706Y-14192650D02*
X5448753Y-14202174D01*
X5448753Y-14202174D02*
X5458277Y-14211698D01*
X5458277Y-14211698D02*
X5467801Y-14230746D01*
X5467801Y-14230746D02*
X5467801Y-14287888D01*
X5467801Y-14287888D02*
X5458277Y-14306936D01*
X5458277Y-14306936D02*
X5448753Y-14316460D01*
X5448753Y-14316460D02*
X5429706Y-14325984D01*
X5429706Y-14325984D02*
X5401134Y-14325984D01*
X5582087Y-14325984D02*
X5563039Y-14316460D01*
X5563039Y-14316460D02*
X5553515Y-14297412D01*
X5553515Y-14297412D02*
X5553515Y-14125984D01*
X5734468Y-14316460D02*
X5715420Y-14325984D01*
X5715420Y-14325984D02*
X5677325Y-14325984D01*
X5677325Y-14325984D02*
X5658277Y-14316460D01*
X5658277Y-14316460D02*
X5648753Y-14297412D01*
X5648753Y-14297412D02*
X5648753Y-14221222D01*
X5648753Y-14221222D02*
X5658277Y-14202174D01*
X5658277Y-14202174D02*
X5677325Y-14192650D01*
X5677325Y-14192650D02*
X5715420Y-14192650D01*
X5715420Y-14192650D02*
X5734468Y-14202174D01*
X5734468Y-14202174D02*
X5743991Y-14221222D01*
X5743991Y-14221222D02*
X5743991Y-14240269D01*
X5743991Y-14240269D02*
X5648753Y-14259317D01*
X5820182Y-14316460D02*
X5839230Y-14325984D01*
X5839230Y-14325984D02*
X5877325Y-14325984D01*
X5877325Y-14325984D02*
X5896372Y-14316460D01*
X5896372Y-14316460D02*
X5905896Y-14297412D01*
X5905896Y-14297412D02*
X5905896Y-14287888D01*
X5905896Y-14287888D02*
X5896372Y-14268841D01*
X5896372Y-14268841D02*
X5877325Y-14259317D01*
X5877325Y-14259317D02*
X5848753Y-14259317D01*
X5848753Y-14259317D02*
X5829706Y-14249793D01*
X5829706Y-14249793D02*
X5820182Y-14230746D01*
X5820182Y-14230746D02*
X5820182Y-14221222D01*
X5820182Y-14221222D02*
X5829706Y-14202174D01*
X5829706Y-14202174D02*
X5848753Y-14192650D01*
X5848753Y-14192650D02*
X5877325Y-14192650D01*
X5877325Y-14192650D02*
X5896372Y-14202174D01*
X5972563Y-14402174D02*
X5982087Y-14392650D01*
X5982087Y-14392650D02*
X6001134Y-14364079D01*
X6001134Y-14364079D02*
X6010658Y-14345031D01*
X6010658Y-14345031D02*
X6020182Y-14316460D01*
X6020182Y-14316460D02*
X6029706Y-14268841D01*
X6029706Y-14268841D02*
X6029706Y-14230746D01*
X6029706Y-14230746D02*
X6020182Y-14183127D01*
X6020182Y-14183127D02*
X6010658Y-14154555D01*
X6010658Y-14154555D02*
X6001134Y-14135508D01*
X6001134Y-14135508D02*
X5982087Y-14106936D01*
X5982087Y-14106936D02*
X5972563Y-14097412D01*
D16*
X1171140Y-14578140D02*
X1171140Y-14450860D01*
X1043860Y-14450860D01*
X1043860Y-14578140D01*
X1171140Y-14578140D01*
X1197500Y-14514500D02*
G75*
G02*
X1017500Y-14514500I-90000J0D01*
G01*
X1017500Y-14514500D02*
G75*
G02*
X1197500Y-14514500I90000J0D01*
G01*
D11*
X1563039Y-14605984D02*
X1448753Y-14605984D01*
X1505896Y-14605984D02*
X1505896Y-14405984D01*
X1505896Y-14405984D02*
X1486848Y-14434555D01*
X1486848Y-14434555D02*
X1467801Y-14453603D01*
X1467801Y-14453603D02*
X1448753Y-14463127D01*
X1648753Y-14586936D02*
X1658277Y-14596460D01*
X1658277Y-14596460D02*
X1648753Y-14605984D01*
X1648753Y-14605984D02*
X1639229Y-14596460D01*
X1639229Y-14596460D02*
X1648753Y-14586936D01*
X1648753Y-14586936D02*
X1648753Y-14605984D01*
X1772562Y-14491698D02*
X1753515Y-14482174D01*
X1753515Y-14482174D02*
X1743991Y-14472650D01*
X1743991Y-14472650D02*
X1734467Y-14453603D01*
X1734467Y-14453603D02*
X1734467Y-14444079D01*
X1734467Y-14444079D02*
X1743991Y-14425031D01*
X1743991Y-14425031D02*
X1753515Y-14415508D01*
X1753515Y-14415508D02*
X1772562Y-14405984D01*
X1772562Y-14405984D02*
X1810658Y-14405984D01*
X1810658Y-14405984D02*
X1829705Y-14415508D01*
X1829705Y-14415508D02*
X1839229Y-14425031D01*
X1839229Y-14425031D02*
X1848753Y-14444079D01*
X1848753Y-14444079D02*
X1848753Y-14453603D01*
X1848753Y-14453603D02*
X1839229Y-14472650D01*
X1839229Y-14472650D02*
X1829705Y-14482174D01*
X1829705Y-14482174D02*
X1810658Y-14491698D01*
X1810658Y-14491698D02*
X1772562Y-14491698D01*
X1772562Y-14491698D02*
X1753515Y-14501222D01*
X1753515Y-14501222D02*
X1743991Y-14510746D01*
X1743991Y-14510746D02*
X1734467Y-14529793D01*
X1734467Y-14529793D02*
X1734467Y-14567888D01*
X1734467Y-14567888D02*
X1743991Y-14586936D01*
X1743991Y-14586936D02*
X1753515Y-14596460D01*
X1753515Y-14596460D02*
X1772562Y-14605984D01*
X1772562Y-14605984D02*
X1810658Y-14605984D01*
X1810658Y-14605984D02*
X1829705Y-14596460D01*
X1829705Y-14596460D02*
X1839229Y-14586936D01*
X1839229Y-14586936D02*
X1848753Y-14567888D01*
X1848753Y-14567888D02*
X1848753Y-14529793D01*
X1848753Y-14529793D02*
X1839229Y-14510746D01*
X1839229Y-14510746D02*
X1829705Y-14501222D01*
X1829705Y-14501222D02*
X1810658Y-14491698D01*
X1972562Y-14405984D02*
X1991610Y-14405984D01*
X1991610Y-14405984D02*
X2010658Y-14415508D01*
X2010658Y-14415508D02*
X2020182Y-14425031D01*
X2020182Y-14425031D02*
X2029705Y-14444079D01*
X2029705Y-14444079D02*
X2039229Y-14482174D01*
X2039229Y-14482174D02*
X2039229Y-14529793D01*
X2039229Y-14529793D02*
X2029705Y-14567888D01*
X2029705Y-14567888D02*
X2020182Y-14586936D01*
X2020182Y-14586936D02*
X2010658Y-14596460D01*
X2010658Y-14596460D02*
X1991610Y-14605984D01*
X1991610Y-14605984D02*
X1972562Y-14605984D01*
X1972562Y-14605984D02*
X1953515Y-14596460D01*
X1953515Y-14596460D02*
X1943991Y-14586936D01*
X1943991Y-14586936D02*
X1934467Y-14567888D01*
X1934467Y-14567888D02*
X1924943Y-14529793D01*
X1924943Y-14529793D02*
X1924943Y-14482174D01*
X1924943Y-14482174D02*
X1934467Y-14444079D01*
X1934467Y-14444079D02*
X1943991Y-14425031D01*
X1943991Y-14425031D02*
X1953515Y-14415508D01*
X1953515Y-14415508D02*
X1972562Y-14405984D01*
X2163039Y-14405984D02*
X2182086Y-14405984D01*
X2182086Y-14405984D02*
X2201134Y-14415508D01*
X2201134Y-14415508D02*
X2210658Y-14425031D01*
X2210658Y-14425031D02*
X2220182Y-14444079D01*
X2220182Y-14444079D02*
X2229705Y-14482174D01*
X2229705Y-14482174D02*
X2229705Y-14529793D01*
X2229705Y-14529793D02*
X2220182Y-14567888D01*
X2220182Y-14567888D02*
X2210658Y-14586936D01*
X2210658Y-14586936D02*
X2201134Y-14596460D01*
X2201134Y-14596460D02*
X2182086Y-14605984D01*
X2182086Y-14605984D02*
X2163039Y-14605984D01*
X2163039Y-14605984D02*
X2143991Y-14596460D01*
X2143991Y-14596460D02*
X2134467Y-14586936D01*
X2134467Y-14586936D02*
X2124944Y-14567888D01*
X2124944Y-14567888D02*
X2115420Y-14529793D01*
X2115420Y-14529793D02*
X2115420Y-14482174D01*
X2115420Y-14482174D02*
X2124944Y-14444079D01*
X2124944Y-14444079D02*
X2134467Y-14425031D01*
X2134467Y-14425031D02*
X2143991Y-14415508D01*
X2143991Y-14415508D02*
X2163039Y-14405984D01*
X2315420Y-14605984D02*
X2315420Y-14472650D01*
X2315420Y-14491698D02*
X2324944Y-14482174D01*
X2324944Y-14482174D02*
X2343991Y-14472650D01*
X2343991Y-14472650D02*
X2372563Y-14472650D01*
X2372563Y-14472650D02*
X2391610Y-14482174D01*
X2391610Y-14482174D02*
X2401134Y-14501222D01*
X2401134Y-14501222D02*
X2401134Y-14605984D01*
X2401134Y-14501222D02*
X2410658Y-14482174D01*
X2410658Y-14482174D02*
X2429705Y-14472650D01*
X2429705Y-14472650D02*
X2458277Y-14472650D01*
X2458277Y-14472650D02*
X2477325Y-14482174D01*
X2477325Y-14482174D02*
X2486848Y-14501222D01*
X2486848Y-14501222D02*
X2486848Y-14605984D01*
X2582086Y-14605984D02*
X2582086Y-14472650D01*
X2582086Y-14491698D02*
X2591610Y-14482174D01*
X2591610Y-14482174D02*
X2610658Y-14472650D01*
X2610658Y-14472650D02*
X2639229Y-14472650D01*
X2639229Y-14472650D02*
X2658277Y-14482174D01*
X2658277Y-14482174D02*
X2667801Y-14501222D01*
X2667801Y-14501222D02*
X2667801Y-14605984D01*
X2667801Y-14501222D02*
X2677325Y-14482174D01*
X2677325Y-14482174D02*
X2696372Y-14472650D01*
X2696372Y-14472650D02*
X2724944Y-14472650D01*
X2724944Y-14472650D02*
X2743991Y-14482174D01*
X2743991Y-14482174D02*
X2753515Y-14501222D01*
X2753515Y-14501222D02*
X2753515Y-14605984D01*
X3143991Y-14396460D02*
X2972563Y-14653603D01*
X3401134Y-14405984D02*
X3420182Y-14405984D01*
X3420182Y-14405984D02*
X3439229Y-14415508D01*
X3439229Y-14415508D02*
X3448753Y-14425031D01*
X3448753Y-14425031D02*
X3458277Y-14444079D01*
X3458277Y-14444079D02*
X3467801Y-14482174D01*
X3467801Y-14482174D02*
X3467801Y-14529793D01*
X3467801Y-14529793D02*
X3458277Y-14567888D01*
X3458277Y-14567888D02*
X3448753Y-14586936D01*
X3448753Y-14586936D02*
X3439229Y-14596460D01*
X3439229Y-14596460D02*
X3420182Y-14605984D01*
X3420182Y-14605984D02*
X3401134Y-14605984D01*
X3401134Y-14605984D02*
X3382086Y-14596460D01*
X3382086Y-14596460D02*
X3372563Y-14586936D01*
X3372563Y-14586936D02*
X3363039Y-14567888D01*
X3363039Y-14567888D02*
X3353515Y-14529793D01*
X3353515Y-14529793D02*
X3353515Y-14482174D01*
X3353515Y-14482174D02*
X3363039Y-14444079D01*
X3363039Y-14444079D02*
X3372563Y-14425031D01*
X3372563Y-14425031D02*
X3382086Y-14415508D01*
X3382086Y-14415508D02*
X3401134Y-14405984D01*
X3553515Y-14586936D02*
X3563039Y-14596460D01*
X3563039Y-14596460D02*
X3553515Y-14605984D01*
X3553515Y-14605984D02*
X3543991Y-14596460D01*
X3543991Y-14596460D02*
X3553515Y-14586936D01*
X3553515Y-14586936D02*
X3553515Y-14605984D01*
X3686848Y-14405984D02*
X3705896Y-14405984D01*
X3705896Y-14405984D02*
X3724944Y-14415508D01*
X3724944Y-14415508D02*
X3734467Y-14425031D01*
X3734467Y-14425031D02*
X3743991Y-14444079D01*
X3743991Y-14444079D02*
X3753515Y-14482174D01*
X3753515Y-14482174D02*
X3753515Y-14529793D01*
X3753515Y-14529793D02*
X3743991Y-14567888D01*
X3743991Y-14567888D02*
X3734467Y-14586936D01*
X3734467Y-14586936D02*
X3724944Y-14596460D01*
X3724944Y-14596460D02*
X3705896Y-14605984D01*
X3705896Y-14605984D02*
X3686848Y-14605984D01*
X3686848Y-14605984D02*
X3667801Y-14596460D01*
X3667801Y-14596460D02*
X3658277Y-14586936D01*
X3658277Y-14586936D02*
X3648753Y-14567888D01*
X3648753Y-14567888D02*
X3639229Y-14529793D01*
X3639229Y-14529793D02*
X3639229Y-14482174D01*
X3639229Y-14482174D02*
X3648753Y-14444079D01*
X3648753Y-14444079D02*
X3658277Y-14425031D01*
X3658277Y-14425031D02*
X3667801Y-14415508D01*
X3667801Y-14415508D02*
X3686848Y-14405984D01*
X3820182Y-14405984D02*
X3953515Y-14405984D01*
X3953515Y-14405984D02*
X3867801Y-14605984D01*
X4067801Y-14405984D02*
X4086848Y-14405984D01*
X4086848Y-14405984D02*
X4105896Y-14415508D01*
X4105896Y-14415508D02*
X4115420Y-14425031D01*
X4115420Y-14425031D02*
X4124944Y-14444079D01*
X4124944Y-14444079D02*
X4134467Y-14482174D01*
X4134467Y-14482174D02*
X4134467Y-14529793D01*
X4134467Y-14529793D02*
X4124944Y-14567888D01*
X4124944Y-14567888D02*
X4115420Y-14586936D01*
X4115420Y-14586936D02*
X4105896Y-14596460D01*
X4105896Y-14596460D02*
X4086848Y-14605984D01*
X4086848Y-14605984D02*
X4067801Y-14605984D01*
X4067801Y-14605984D02*
X4048753Y-14596460D01*
X4048753Y-14596460D02*
X4039229Y-14586936D01*
X4039229Y-14586936D02*
X4029706Y-14567888D01*
X4029706Y-14567888D02*
X4020182Y-14529793D01*
X4020182Y-14529793D02*
X4020182Y-14482174D01*
X4020182Y-14482174D02*
X4029706Y-14444079D01*
X4029706Y-14444079D02*
X4039229Y-14425031D01*
X4039229Y-14425031D02*
X4048753Y-14415508D01*
X4048753Y-14415508D02*
X4067801Y-14405984D01*
X4229706Y-14605984D02*
X4267801Y-14605984D01*
X4267801Y-14605984D02*
X4286849Y-14596460D01*
X4286849Y-14596460D02*
X4296372Y-14586936D01*
X4296372Y-14586936D02*
X4315420Y-14558365D01*
X4315420Y-14558365D02*
X4324944Y-14520269D01*
X4324944Y-14520269D02*
X4324944Y-14444079D01*
X4324944Y-14444079D02*
X4315420Y-14425031D01*
X4315420Y-14425031D02*
X4305896Y-14415508D01*
X4305896Y-14415508D02*
X4286849Y-14405984D01*
X4286849Y-14405984D02*
X4248753Y-14405984D01*
X4248753Y-14405984D02*
X4229706Y-14415508D01*
X4229706Y-14415508D02*
X4220182Y-14425031D01*
X4220182Y-14425031D02*
X4210658Y-14444079D01*
X4210658Y-14444079D02*
X4210658Y-14491698D01*
X4210658Y-14491698D02*
X4220182Y-14510746D01*
X4220182Y-14510746D02*
X4229706Y-14520269D01*
X4229706Y-14520269D02*
X4248753Y-14529793D01*
X4248753Y-14529793D02*
X4286849Y-14529793D01*
X4286849Y-14529793D02*
X4305896Y-14520269D01*
X4305896Y-14520269D02*
X4315420Y-14510746D01*
X4315420Y-14510746D02*
X4324944Y-14491698D01*
X4401134Y-14405984D02*
X4401134Y-14444079D01*
X4477325Y-14405984D02*
X4477325Y-14444079D01*
X4772563Y-14682174D02*
X4763039Y-14672650D01*
X4763039Y-14672650D02*
X4743991Y-14644079D01*
X4743991Y-14644079D02*
X4734468Y-14625031D01*
X4734468Y-14625031D02*
X4724944Y-14596460D01*
X4724944Y-14596460D02*
X4715420Y-14548841D01*
X4715420Y-14548841D02*
X4715420Y-14510746D01*
X4715420Y-14510746D02*
X4724944Y-14463127D01*
X4724944Y-14463127D02*
X4734468Y-14434555D01*
X4734468Y-14434555D02*
X4743991Y-14415508D01*
X4743991Y-14415508D02*
X4763039Y-14386936D01*
X4763039Y-14386936D02*
X4772563Y-14377412D01*
X4953515Y-14605984D02*
X4839230Y-14605984D01*
X4896372Y-14605984D02*
X4896372Y-14405984D01*
X4896372Y-14405984D02*
X4877325Y-14434555D01*
X4877325Y-14434555D02*
X4858277Y-14453603D01*
X4858277Y-14453603D02*
X4839230Y-14463127D01*
X5191611Y-14605984D02*
X5191611Y-14405984D01*
X5277325Y-14605984D02*
X5277325Y-14501222D01*
X5277325Y-14501222D02*
X5267801Y-14482174D01*
X5267801Y-14482174D02*
X5248753Y-14472650D01*
X5248753Y-14472650D02*
X5220182Y-14472650D01*
X5220182Y-14472650D02*
X5201134Y-14482174D01*
X5201134Y-14482174D02*
X5191611Y-14491698D01*
X5401134Y-14605984D02*
X5382087Y-14596460D01*
X5382087Y-14596460D02*
X5372563Y-14586936D01*
X5372563Y-14586936D02*
X5363039Y-14567888D01*
X5363039Y-14567888D02*
X5363039Y-14510746D01*
X5363039Y-14510746D02*
X5372563Y-14491698D01*
X5372563Y-14491698D02*
X5382087Y-14482174D01*
X5382087Y-14482174D02*
X5401134Y-14472650D01*
X5401134Y-14472650D02*
X5429706Y-14472650D01*
X5429706Y-14472650D02*
X5448753Y-14482174D01*
X5448753Y-14482174D02*
X5458277Y-14491698D01*
X5458277Y-14491698D02*
X5467801Y-14510746D01*
X5467801Y-14510746D02*
X5467801Y-14567888D01*
X5467801Y-14567888D02*
X5458277Y-14586936D01*
X5458277Y-14586936D02*
X5448753Y-14596460D01*
X5448753Y-14596460D02*
X5429706Y-14605984D01*
X5429706Y-14605984D02*
X5401134Y-14605984D01*
X5582087Y-14605984D02*
X5563039Y-14596460D01*
X5563039Y-14596460D02*
X5553515Y-14577412D01*
X5553515Y-14577412D02*
X5553515Y-14405984D01*
X5734468Y-14596460D02*
X5715420Y-14605984D01*
X5715420Y-14605984D02*
X5677325Y-14605984D01*
X5677325Y-14605984D02*
X5658277Y-14596460D01*
X5658277Y-14596460D02*
X5648753Y-14577412D01*
X5648753Y-14577412D02*
X5648753Y-14501222D01*
X5648753Y-14501222D02*
X5658277Y-14482174D01*
X5658277Y-14482174D02*
X5677325Y-14472650D01*
X5677325Y-14472650D02*
X5715420Y-14472650D01*
X5715420Y-14472650D02*
X5734468Y-14482174D01*
X5734468Y-14482174D02*
X5743991Y-14501222D01*
X5743991Y-14501222D02*
X5743991Y-14520269D01*
X5743991Y-14520269D02*
X5648753Y-14539317D01*
X5810658Y-14682174D02*
X5820182Y-14672650D01*
X5820182Y-14672650D02*
X5839230Y-14644079D01*
X5839230Y-14644079D02*
X5848753Y-14625031D01*
X5848753Y-14625031D02*
X5858277Y-14596460D01*
X5858277Y-14596460D02*
X5867801Y-14548841D01*
X5867801Y-14548841D02*
X5867801Y-14510746D01*
X5867801Y-14510746D02*
X5858277Y-14463127D01*
X5858277Y-14463127D02*
X5848753Y-14434555D01*
X5848753Y-14434555D02*
X5839230Y-14415508D01*
X5839230Y-14415508D02*
X5820182Y-14386936D01*
X5820182Y-14386936D02*
X5810658Y-14377412D01*
X1097500Y-14914500D02*
X1197500Y-14814500D01*
X1097500Y-14714500D01*
X997500Y-14814500D01*
X1097500Y-14914500D01*
X1197500Y-14814500D02*
G75*
G02*
X997500Y-14814500I-100000J0D01*
G01*
X997500Y-14814500D02*
G75*
G02*
X1197500Y-14814500I100000J0D01*
G01*
X1543991Y-14772650D02*
X1543991Y-14905984D01*
X1496372Y-14696460D02*
X1448753Y-14839317D01*
X1448753Y-14839317D02*
X1572562Y-14839317D01*
X1648753Y-14886936D02*
X1658277Y-14896460D01*
X1658277Y-14896460D02*
X1648753Y-14905984D01*
X1648753Y-14905984D02*
X1639229Y-14896460D01*
X1639229Y-14896460D02*
X1648753Y-14886936D01*
X1648753Y-14886936D02*
X1648753Y-14905984D01*
X1724943Y-14705984D02*
X1848753Y-14705984D01*
X1848753Y-14705984D02*
X1782086Y-14782174D01*
X1782086Y-14782174D02*
X1810658Y-14782174D01*
X1810658Y-14782174D02*
X1829705Y-14791698D01*
X1829705Y-14791698D02*
X1839229Y-14801222D01*
X1839229Y-14801222D02*
X1848753Y-14820269D01*
X1848753Y-14820269D02*
X1848753Y-14867888D01*
X1848753Y-14867888D02*
X1839229Y-14886936D01*
X1839229Y-14886936D02*
X1829705Y-14896460D01*
X1829705Y-14896460D02*
X1810658Y-14905984D01*
X1810658Y-14905984D02*
X1753515Y-14905984D01*
X1753515Y-14905984D02*
X1734467Y-14896460D01*
X1734467Y-14896460D02*
X1724943Y-14886936D01*
X1972562Y-14705984D02*
X1991610Y-14705984D01*
X1991610Y-14705984D02*
X2010658Y-14715508D01*
X2010658Y-14715508D02*
X2020182Y-14725031D01*
X2020182Y-14725031D02*
X2029705Y-14744079D01*
X2029705Y-14744079D02*
X2039229Y-14782174D01*
X2039229Y-14782174D02*
X2039229Y-14829793D01*
X2039229Y-14829793D02*
X2029705Y-14867888D01*
X2029705Y-14867888D02*
X2020182Y-14886936D01*
X2020182Y-14886936D02*
X2010658Y-14896460D01*
X2010658Y-14896460D02*
X1991610Y-14905984D01*
X1991610Y-14905984D02*
X1972562Y-14905984D01*
X1972562Y-14905984D02*
X1953515Y-14896460D01*
X1953515Y-14896460D02*
X1943991Y-14886936D01*
X1943991Y-14886936D02*
X1934467Y-14867888D01*
X1934467Y-14867888D02*
X1924943Y-14829793D01*
X1924943Y-14829793D02*
X1924943Y-14782174D01*
X1924943Y-14782174D02*
X1934467Y-14744079D01*
X1934467Y-14744079D02*
X1943991Y-14725031D01*
X1943991Y-14725031D02*
X1953515Y-14715508D01*
X1953515Y-14715508D02*
X1972562Y-14705984D01*
X2163039Y-14705984D02*
X2182086Y-14705984D01*
X2182086Y-14705984D02*
X2201134Y-14715508D01*
X2201134Y-14715508D02*
X2210658Y-14725031D01*
X2210658Y-14725031D02*
X2220182Y-14744079D01*
X2220182Y-14744079D02*
X2229705Y-14782174D01*
X2229705Y-14782174D02*
X2229705Y-14829793D01*
X2229705Y-14829793D02*
X2220182Y-14867888D01*
X2220182Y-14867888D02*
X2210658Y-14886936D01*
X2210658Y-14886936D02*
X2201134Y-14896460D01*
X2201134Y-14896460D02*
X2182086Y-14905984D01*
X2182086Y-14905984D02*
X2163039Y-14905984D01*
X2163039Y-14905984D02*
X2143991Y-14896460D01*
X2143991Y-14896460D02*
X2134467Y-14886936D01*
X2134467Y-14886936D02*
X2124944Y-14867888D01*
X2124944Y-14867888D02*
X2115420Y-14829793D01*
X2115420Y-14829793D02*
X2115420Y-14782174D01*
X2115420Y-14782174D02*
X2124944Y-14744079D01*
X2124944Y-14744079D02*
X2134467Y-14725031D01*
X2134467Y-14725031D02*
X2143991Y-14715508D01*
X2143991Y-14715508D02*
X2163039Y-14705984D01*
X2315420Y-14905984D02*
X2315420Y-14772650D01*
X2315420Y-14791698D02*
X2324944Y-14782174D01*
X2324944Y-14782174D02*
X2343991Y-14772650D01*
X2343991Y-14772650D02*
X2372563Y-14772650D01*
X2372563Y-14772650D02*
X2391610Y-14782174D01*
X2391610Y-14782174D02*
X2401134Y-14801222D01*
X2401134Y-14801222D02*
X2401134Y-14905984D01*
X2401134Y-14801222D02*
X2410658Y-14782174D01*
X2410658Y-14782174D02*
X2429705Y-14772650D01*
X2429705Y-14772650D02*
X2458277Y-14772650D01*
X2458277Y-14772650D02*
X2477325Y-14782174D01*
X2477325Y-14782174D02*
X2486848Y-14801222D01*
X2486848Y-14801222D02*
X2486848Y-14905984D01*
X2582086Y-14905984D02*
X2582086Y-14772650D01*
X2582086Y-14791698D02*
X2591610Y-14782174D01*
X2591610Y-14782174D02*
X2610658Y-14772650D01*
X2610658Y-14772650D02*
X2639229Y-14772650D01*
X2639229Y-14772650D02*
X2658277Y-14782174D01*
X2658277Y-14782174D02*
X2667801Y-14801222D01*
X2667801Y-14801222D02*
X2667801Y-14905984D01*
X2667801Y-14801222D02*
X2677325Y-14782174D01*
X2677325Y-14782174D02*
X2696372Y-14772650D01*
X2696372Y-14772650D02*
X2724944Y-14772650D01*
X2724944Y-14772650D02*
X2743991Y-14782174D01*
X2743991Y-14782174D02*
X2753515Y-14801222D01*
X2753515Y-14801222D02*
X2753515Y-14905984D01*
X3143991Y-14696460D02*
X2972563Y-14953603D01*
X3401134Y-14705984D02*
X3420182Y-14705984D01*
X3420182Y-14705984D02*
X3439229Y-14715508D01*
X3439229Y-14715508D02*
X3448753Y-14725031D01*
X3448753Y-14725031D02*
X3458277Y-14744079D01*
X3458277Y-14744079D02*
X3467801Y-14782174D01*
X3467801Y-14782174D02*
X3467801Y-14829793D01*
X3467801Y-14829793D02*
X3458277Y-14867888D01*
X3458277Y-14867888D02*
X3448753Y-14886936D01*
X3448753Y-14886936D02*
X3439229Y-14896460D01*
X3439229Y-14896460D02*
X3420182Y-14905984D01*
X3420182Y-14905984D02*
X3401134Y-14905984D01*
X3401134Y-14905984D02*
X3382086Y-14896460D01*
X3382086Y-14896460D02*
X3372563Y-14886936D01*
X3372563Y-14886936D02*
X3363039Y-14867888D01*
X3363039Y-14867888D02*
X3353515Y-14829793D01*
X3353515Y-14829793D02*
X3353515Y-14782174D01*
X3353515Y-14782174D02*
X3363039Y-14744079D01*
X3363039Y-14744079D02*
X3372563Y-14725031D01*
X3372563Y-14725031D02*
X3382086Y-14715508D01*
X3382086Y-14715508D02*
X3401134Y-14705984D01*
X3553515Y-14886936D02*
X3563039Y-14896460D01*
X3563039Y-14896460D02*
X3553515Y-14905984D01*
X3553515Y-14905984D02*
X3543991Y-14896460D01*
X3543991Y-14896460D02*
X3553515Y-14886936D01*
X3553515Y-14886936D02*
X3553515Y-14905984D01*
X3753515Y-14905984D02*
X3639229Y-14905984D01*
X3696372Y-14905984D02*
X3696372Y-14705984D01*
X3696372Y-14705984D02*
X3677325Y-14734555D01*
X3677325Y-14734555D02*
X3658277Y-14753603D01*
X3658277Y-14753603D02*
X3639229Y-14763127D01*
X3924944Y-14705984D02*
X3886848Y-14705984D01*
X3886848Y-14705984D02*
X3867801Y-14715508D01*
X3867801Y-14715508D02*
X3858277Y-14725031D01*
X3858277Y-14725031D02*
X3839229Y-14753603D01*
X3839229Y-14753603D02*
X3829706Y-14791698D01*
X3829706Y-14791698D02*
X3829706Y-14867888D01*
X3829706Y-14867888D02*
X3839229Y-14886936D01*
X3839229Y-14886936D02*
X3848753Y-14896460D01*
X3848753Y-14896460D02*
X3867801Y-14905984D01*
X3867801Y-14905984D02*
X3905896Y-14905984D01*
X3905896Y-14905984D02*
X3924944Y-14896460D01*
X3924944Y-14896460D02*
X3934467Y-14886936D01*
X3934467Y-14886936D02*
X3943991Y-14867888D01*
X3943991Y-14867888D02*
X3943991Y-14820269D01*
X3943991Y-14820269D02*
X3934467Y-14801222D01*
X3934467Y-14801222D02*
X3924944Y-14791698D01*
X3924944Y-14791698D02*
X3905896Y-14782174D01*
X3905896Y-14782174D02*
X3867801Y-14782174D01*
X3867801Y-14782174D02*
X3848753Y-14791698D01*
X3848753Y-14791698D02*
X3839229Y-14801222D01*
X3839229Y-14801222D02*
X3829706Y-14820269D01*
X4039229Y-14905984D02*
X4077325Y-14905984D01*
X4077325Y-14905984D02*
X4096372Y-14896460D01*
X4096372Y-14896460D02*
X4105896Y-14886936D01*
X4105896Y-14886936D02*
X4124944Y-14858365D01*
X4124944Y-14858365D02*
X4134467Y-14820269D01*
X4134467Y-14820269D02*
X4134467Y-14744079D01*
X4134467Y-14744079D02*
X4124944Y-14725031D01*
X4124944Y-14725031D02*
X4115420Y-14715508D01*
X4115420Y-14715508D02*
X4096372Y-14705984D01*
X4096372Y-14705984D02*
X4058277Y-14705984D01*
X4058277Y-14705984D02*
X4039229Y-14715508D01*
X4039229Y-14715508D02*
X4029706Y-14725031D01*
X4029706Y-14725031D02*
X4020182Y-14744079D01*
X4020182Y-14744079D02*
X4020182Y-14791698D01*
X4020182Y-14791698D02*
X4029706Y-14810746D01*
X4029706Y-14810746D02*
X4039229Y-14820269D01*
X4039229Y-14820269D02*
X4058277Y-14829793D01*
X4058277Y-14829793D02*
X4096372Y-14829793D01*
X4096372Y-14829793D02*
X4115420Y-14820269D01*
X4115420Y-14820269D02*
X4124944Y-14810746D01*
X4124944Y-14810746D02*
X4134467Y-14791698D01*
X4201134Y-14705984D02*
X4324944Y-14705984D01*
X4324944Y-14705984D02*
X4258277Y-14782174D01*
X4258277Y-14782174D02*
X4286849Y-14782174D01*
X4286849Y-14782174D02*
X4305896Y-14791698D01*
X4305896Y-14791698D02*
X4315420Y-14801222D01*
X4315420Y-14801222D02*
X4324944Y-14820269D01*
X4324944Y-14820269D02*
X4324944Y-14867888D01*
X4324944Y-14867888D02*
X4315420Y-14886936D01*
X4315420Y-14886936D02*
X4305896Y-14896460D01*
X4305896Y-14896460D02*
X4286849Y-14905984D01*
X4286849Y-14905984D02*
X4229706Y-14905984D01*
X4229706Y-14905984D02*
X4210658Y-14896460D01*
X4210658Y-14896460D02*
X4201134Y-14886936D01*
X4401134Y-14705984D02*
X4401134Y-14744079D01*
X4477325Y-14705984D02*
X4477325Y-14744079D01*
X4772563Y-14982174D02*
X4763039Y-14972650D01*
X4763039Y-14972650D02*
X4743991Y-14944079D01*
X4743991Y-14944079D02*
X4734468Y-14925031D01*
X4734468Y-14925031D02*
X4724944Y-14896460D01*
X4724944Y-14896460D02*
X4715420Y-14848841D01*
X4715420Y-14848841D02*
X4715420Y-14810746D01*
X4715420Y-14810746D02*
X4724944Y-14763127D01*
X4724944Y-14763127D02*
X4734468Y-14734555D01*
X4734468Y-14734555D02*
X4743991Y-14715508D01*
X4743991Y-14715508D02*
X4763039Y-14686936D01*
X4763039Y-14686936D02*
X4772563Y-14677412D01*
X4934468Y-14772650D02*
X4934468Y-14905984D01*
X4886849Y-14696460D02*
X4839230Y-14839317D01*
X4839230Y-14839317D02*
X4963039Y-14839317D01*
X5191611Y-14905984D02*
X5191611Y-14705984D01*
X5277325Y-14905984D02*
X5277325Y-14801222D01*
X5277325Y-14801222D02*
X5267801Y-14782174D01*
X5267801Y-14782174D02*
X5248753Y-14772650D01*
X5248753Y-14772650D02*
X5220182Y-14772650D01*
X5220182Y-14772650D02*
X5201134Y-14782174D01*
X5201134Y-14782174D02*
X5191611Y-14791698D01*
X5401134Y-14905984D02*
X5382087Y-14896460D01*
X5382087Y-14896460D02*
X5372563Y-14886936D01*
X5372563Y-14886936D02*
X5363039Y-14867888D01*
X5363039Y-14867888D02*
X5363039Y-14810746D01*
X5363039Y-14810746D02*
X5372563Y-14791698D01*
X5372563Y-14791698D02*
X5382087Y-14782174D01*
X5382087Y-14782174D02*
X5401134Y-14772650D01*
X5401134Y-14772650D02*
X5429706Y-14772650D01*
X5429706Y-14772650D02*
X5448753Y-14782174D01*
X5448753Y-14782174D02*
X5458277Y-14791698D01*
X5458277Y-14791698D02*
X5467801Y-14810746D01*
X5467801Y-14810746D02*
X5467801Y-14867888D01*
X5467801Y-14867888D02*
X5458277Y-14886936D01*
X5458277Y-14886936D02*
X5448753Y-14896460D01*
X5448753Y-14896460D02*
X5429706Y-14905984D01*
X5429706Y-14905984D02*
X5401134Y-14905984D01*
X5582087Y-14905984D02*
X5563039Y-14896460D01*
X5563039Y-14896460D02*
X5553515Y-14877412D01*
X5553515Y-14877412D02*
X5553515Y-14705984D01*
X5734468Y-14896460D02*
X5715420Y-14905984D01*
X5715420Y-14905984D02*
X5677325Y-14905984D01*
X5677325Y-14905984D02*
X5658277Y-14896460D01*
X5658277Y-14896460D02*
X5648753Y-14877412D01*
X5648753Y-14877412D02*
X5648753Y-14801222D01*
X5648753Y-14801222D02*
X5658277Y-14782174D01*
X5658277Y-14782174D02*
X5677325Y-14772650D01*
X5677325Y-14772650D02*
X5715420Y-14772650D01*
X5715420Y-14772650D02*
X5734468Y-14782174D01*
X5734468Y-14782174D02*
X5743991Y-14801222D01*
X5743991Y-14801222D02*
X5743991Y-14820269D01*
X5743991Y-14820269D02*
X5648753Y-14839317D01*
X5820182Y-14896460D02*
X5839230Y-14905984D01*
X5839230Y-14905984D02*
X5877325Y-14905984D01*
X5877325Y-14905984D02*
X5896372Y-14896460D01*
X5896372Y-14896460D02*
X5905896Y-14877412D01*
X5905896Y-14877412D02*
X5905896Y-14867888D01*
X5905896Y-14867888D02*
X5896372Y-14848841D01*
X5896372Y-14848841D02*
X5877325Y-14839317D01*
X5877325Y-14839317D02*
X5848753Y-14839317D01*
X5848753Y-14839317D02*
X5829706Y-14829793D01*
X5829706Y-14829793D02*
X5820182Y-14810746D01*
X5820182Y-14810746D02*
X5820182Y-14801222D01*
X5820182Y-14801222D02*
X5829706Y-14782174D01*
X5829706Y-14782174D02*
X5848753Y-14772650D01*
X5848753Y-14772650D02*
X5877325Y-14772650D01*
X5877325Y-14772650D02*
X5896372Y-14782174D01*
X5972563Y-14982174D02*
X5982087Y-14972650D01*
X5982087Y-14972650D02*
X6001134Y-14944079D01*
X6001134Y-14944079D02*
X6010658Y-14925031D01*
X6010658Y-14925031D02*
X6020182Y-14896460D01*
X6020182Y-14896460D02*
X6029706Y-14848841D01*
X6029706Y-14848841D02*
X6029706Y-14810746D01*
X6029706Y-14810746D02*
X6020182Y-14763127D01*
X6020182Y-14763127D02*
X6010658Y-14734555D01*
X6010658Y-14734555D02*
X6001134Y-14715508D01*
X6001134Y-14715508D02*
X5982087Y-14686936D01*
X5982087Y-14686936D02*
X5972563Y-14677412D01*
M02*
