%TF.GenerationSoftware,KiCad,Pcbnew,8.0.3*%
%TF.CreationDate,2024-11-19T22:25:58+01:00*%
%TF.ProjectId,weerstation-power,77656572-7374-4617-9469-6f6e2d706f77,rev?*%
%TF.SameCoordinates,Original*%
%TF.FileFunction,Legend,Bot*%
%TF.FilePolarity,Positive*%
%FSLAX46Y46*%
G04 Gerber Fmt 4.6, Leading zero omitted, Abs format (unit mm)*
G04 Created by KiCad (PCBNEW 8.0.3) date 2024-11-19 22:25:58*
%MOMM*%
%LPD*%
G01*
G04 APERTURE LIST*
%ADD10C,0.150000*%
%ADD11C,0.120000*%
G04 APERTURE END LIST*
D10*
X58309009Y-77644666D02*
X58309009Y-77311333D01*
X58832819Y-77311333D02*
X57832819Y-77311333D01*
X57832819Y-77311333D02*
X57832819Y-77787523D01*
X57832819Y-78073238D02*
X57832819Y-78692285D01*
X57832819Y-78692285D02*
X58213771Y-78358952D01*
X58213771Y-78358952D02*
X58213771Y-78501809D01*
X58213771Y-78501809D02*
X58261390Y-78597047D01*
X58261390Y-78597047D02*
X58309009Y-78644666D01*
X58309009Y-78644666D02*
X58404247Y-78692285D01*
X58404247Y-78692285D02*
X58642342Y-78692285D01*
X58642342Y-78692285D02*
X58737580Y-78644666D01*
X58737580Y-78644666D02*
X58785200Y-78597047D01*
X58785200Y-78597047D02*
X58832819Y-78501809D01*
X58832819Y-78501809D02*
X58832819Y-78216095D01*
X58832819Y-78216095D02*
X58785200Y-78120857D01*
X58785200Y-78120857D02*
X58737580Y-78073238D01*
X60618666Y-57327580D02*
X60666285Y-57375200D01*
X60666285Y-57375200D02*
X60809142Y-57422819D01*
X60809142Y-57422819D02*
X60904380Y-57422819D01*
X60904380Y-57422819D02*
X61047237Y-57375200D01*
X61047237Y-57375200D02*
X61142475Y-57279961D01*
X61142475Y-57279961D02*
X61190094Y-57184723D01*
X61190094Y-57184723D02*
X61237713Y-56994247D01*
X61237713Y-56994247D02*
X61237713Y-56851390D01*
X61237713Y-56851390D02*
X61190094Y-56660914D01*
X61190094Y-56660914D02*
X61142475Y-56565676D01*
X61142475Y-56565676D02*
X61047237Y-56470438D01*
X61047237Y-56470438D02*
X60904380Y-56422819D01*
X60904380Y-56422819D02*
X60809142Y-56422819D01*
X60809142Y-56422819D02*
X60666285Y-56470438D01*
X60666285Y-56470438D02*
X60618666Y-56518057D01*
X60285332Y-56422819D02*
X59618666Y-56422819D01*
X59618666Y-56422819D02*
X60047237Y-57422819D01*
X61380571Y-53722819D02*
X61951999Y-53722819D01*
X61666285Y-53722819D02*
X61666285Y-52722819D01*
X61666285Y-52722819D02*
X61761523Y-52865676D01*
X61761523Y-52865676D02*
X61856761Y-52960914D01*
X61856761Y-52960914D02*
X61951999Y-53008533D01*
X60761523Y-52722819D02*
X60666285Y-52722819D01*
X60666285Y-52722819D02*
X60571047Y-52770438D01*
X60571047Y-52770438D02*
X60523428Y-52818057D01*
X60523428Y-52818057D02*
X60475809Y-52913295D01*
X60475809Y-52913295D02*
X60428190Y-53103771D01*
X60428190Y-53103771D02*
X60428190Y-53341866D01*
X60428190Y-53341866D02*
X60475809Y-53532342D01*
X60475809Y-53532342D02*
X60523428Y-53627580D01*
X60523428Y-53627580D02*
X60571047Y-53675200D01*
X60571047Y-53675200D02*
X60666285Y-53722819D01*
X60666285Y-53722819D02*
X60761523Y-53722819D01*
X60761523Y-53722819D02*
X60856761Y-53675200D01*
X60856761Y-53675200D02*
X60904380Y-53627580D01*
X60904380Y-53627580D02*
X60951999Y-53532342D01*
X60951999Y-53532342D02*
X60999618Y-53341866D01*
X60999618Y-53341866D02*
X60999618Y-53103771D01*
X60999618Y-53103771D02*
X60951999Y-52913295D01*
X60951999Y-52913295D02*
X60904380Y-52818057D01*
X60904380Y-52818057D02*
X60856761Y-52770438D01*
X60856761Y-52770438D02*
X60761523Y-52722819D01*
X59571047Y-53056152D02*
X59571047Y-53722819D01*
X59999618Y-53056152D02*
X59999618Y-53579961D01*
X59999618Y-53579961D02*
X59951999Y-53675200D01*
X59951999Y-53675200D02*
X59856761Y-53722819D01*
X59856761Y-53722819D02*
X59713904Y-53722819D01*
X59713904Y-53722819D02*
X59618666Y-53675200D01*
X59618666Y-53675200D02*
X59571047Y-53627580D01*
X59237713Y-53056152D02*
X58856761Y-53056152D01*
X59094856Y-53722819D02*
X59094856Y-52865676D01*
X59094856Y-52865676D02*
X59047237Y-52770438D01*
X59047237Y-52770438D02*
X58951999Y-52722819D01*
X58951999Y-52722819D02*
X58856761Y-52722819D01*
X34920666Y-40191580D02*
X34968285Y-40239200D01*
X34968285Y-40239200D02*
X35111142Y-40286819D01*
X35111142Y-40286819D02*
X35206380Y-40286819D01*
X35206380Y-40286819D02*
X35349237Y-40239200D01*
X35349237Y-40239200D02*
X35444475Y-40143961D01*
X35444475Y-40143961D02*
X35492094Y-40048723D01*
X35492094Y-40048723D02*
X35539713Y-39858247D01*
X35539713Y-39858247D02*
X35539713Y-39715390D01*
X35539713Y-39715390D02*
X35492094Y-39524914D01*
X35492094Y-39524914D02*
X35444475Y-39429676D01*
X35444475Y-39429676D02*
X35349237Y-39334438D01*
X35349237Y-39334438D02*
X35206380Y-39286819D01*
X35206380Y-39286819D02*
X35111142Y-39286819D01*
X35111142Y-39286819D02*
X34968285Y-39334438D01*
X34968285Y-39334438D02*
X34920666Y-39382057D01*
X34539713Y-39382057D02*
X34492094Y-39334438D01*
X34492094Y-39334438D02*
X34396856Y-39286819D01*
X34396856Y-39286819D02*
X34158761Y-39286819D01*
X34158761Y-39286819D02*
X34063523Y-39334438D01*
X34063523Y-39334438D02*
X34015904Y-39382057D01*
X34015904Y-39382057D02*
X33968285Y-39477295D01*
X33968285Y-39477295D02*
X33968285Y-39572533D01*
X33968285Y-39572533D02*
X34015904Y-39715390D01*
X34015904Y-39715390D02*
X34587332Y-40286819D01*
X34587332Y-40286819D02*
X33968285Y-40286819D01*
X35682571Y-43986819D02*
X36253999Y-43986819D01*
X35968285Y-43986819D02*
X35968285Y-42986819D01*
X35968285Y-42986819D02*
X36063523Y-43129676D01*
X36063523Y-43129676D02*
X36158761Y-43224914D01*
X36158761Y-43224914D02*
X36253999Y-43272533D01*
X35063523Y-42986819D02*
X34968285Y-42986819D01*
X34968285Y-42986819D02*
X34873047Y-43034438D01*
X34873047Y-43034438D02*
X34825428Y-43082057D01*
X34825428Y-43082057D02*
X34777809Y-43177295D01*
X34777809Y-43177295D02*
X34730190Y-43367771D01*
X34730190Y-43367771D02*
X34730190Y-43605866D01*
X34730190Y-43605866D02*
X34777809Y-43796342D01*
X34777809Y-43796342D02*
X34825428Y-43891580D01*
X34825428Y-43891580D02*
X34873047Y-43939200D01*
X34873047Y-43939200D02*
X34968285Y-43986819D01*
X34968285Y-43986819D02*
X35063523Y-43986819D01*
X35063523Y-43986819D02*
X35158761Y-43939200D01*
X35158761Y-43939200D02*
X35206380Y-43891580D01*
X35206380Y-43891580D02*
X35253999Y-43796342D01*
X35253999Y-43796342D02*
X35301618Y-43605866D01*
X35301618Y-43605866D02*
X35301618Y-43367771D01*
X35301618Y-43367771D02*
X35253999Y-43177295D01*
X35253999Y-43177295D02*
X35206380Y-43082057D01*
X35206380Y-43082057D02*
X35158761Y-43034438D01*
X35158761Y-43034438D02*
X35063523Y-42986819D01*
X33873047Y-43320152D02*
X33873047Y-43986819D01*
X34301618Y-43320152D02*
X34301618Y-43843961D01*
X34301618Y-43843961D02*
X34253999Y-43939200D01*
X34253999Y-43939200D02*
X34158761Y-43986819D01*
X34158761Y-43986819D02*
X34015904Y-43986819D01*
X34015904Y-43986819D02*
X33920666Y-43939200D01*
X33920666Y-43939200D02*
X33873047Y-43891580D01*
X33539713Y-43320152D02*
X33158761Y-43320152D01*
X33396856Y-43986819D02*
X33396856Y-43129676D01*
X33396856Y-43129676D02*
X33349237Y-43034438D01*
X33349237Y-43034438D02*
X33253999Y-42986819D01*
X33253999Y-42986819D02*
X33158761Y-42986819D01*
X35980666Y-69375580D02*
X36028285Y-69423200D01*
X36028285Y-69423200D02*
X36171142Y-69470819D01*
X36171142Y-69470819D02*
X36266380Y-69470819D01*
X36266380Y-69470819D02*
X36409237Y-69423200D01*
X36409237Y-69423200D02*
X36504475Y-69327961D01*
X36504475Y-69327961D02*
X36552094Y-69232723D01*
X36552094Y-69232723D02*
X36599713Y-69042247D01*
X36599713Y-69042247D02*
X36599713Y-68899390D01*
X36599713Y-68899390D02*
X36552094Y-68708914D01*
X36552094Y-68708914D02*
X36504475Y-68613676D01*
X36504475Y-68613676D02*
X36409237Y-68518438D01*
X36409237Y-68518438D02*
X36266380Y-68470819D01*
X36266380Y-68470819D02*
X36171142Y-68470819D01*
X36171142Y-68470819D02*
X36028285Y-68518438D01*
X36028285Y-68518438D02*
X35980666Y-68566057D01*
X35075904Y-68470819D02*
X35552094Y-68470819D01*
X35552094Y-68470819D02*
X35599713Y-68947009D01*
X35599713Y-68947009D02*
X35552094Y-68899390D01*
X35552094Y-68899390D02*
X35456856Y-68851771D01*
X35456856Y-68851771D02*
X35218761Y-68851771D01*
X35218761Y-68851771D02*
X35123523Y-68899390D01*
X35123523Y-68899390D02*
X35075904Y-68947009D01*
X35075904Y-68947009D02*
X35028285Y-69042247D01*
X35028285Y-69042247D02*
X35028285Y-69280342D01*
X35028285Y-69280342D02*
X35075904Y-69375580D01*
X35075904Y-69375580D02*
X35123523Y-69423200D01*
X35123523Y-69423200D02*
X35218761Y-69470819D01*
X35218761Y-69470819D02*
X35456856Y-69470819D01*
X35456856Y-69470819D02*
X35552094Y-69423200D01*
X35552094Y-69423200D02*
X35599713Y-69375580D01*
X36742571Y-73170819D02*
X37313999Y-73170819D01*
X37028285Y-73170819D02*
X37028285Y-72170819D01*
X37028285Y-72170819D02*
X37123523Y-72313676D01*
X37123523Y-72313676D02*
X37218761Y-72408914D01*
X37218761Y-72408914D02*
X37313999Y-72456533D01*
X36123523Y-72170819D02*
X36028285Y-72170819D01*
X36028285Y-72170819D02*
X35933047Y-72218438D01*
X35933047Y-72218438D02*
X35885428Y-72266057D01*
X35885428Y-72266057D02*
X35837809Y-72361295D01*
X35837809Y-72361295D02*
X35790190Y-72551771D01*
X35790190Y-72551771D02*
X35790190Y-72789866D01*
X35790190Y-72789866D02*
X35837809Y-72980342D01*
X35837809Y-72980342D02*
X35885428Y-73075580D01*
X35885428Y-73075580D02*
X35933047Y-73123200D01*
X35933047Y-73123200D02*
X36028285Y-73170819D01*
X36028285Y-73170819D02*
X36123523Y-73170819D01*
X36123523Y-73170819D02*
X36218761Y-73123200D01*
X36218761Y-73123200D02*
X36266380Y-73075580D01*
X36266380Y-73075580D02*
X36313999Y-72980342D01*
X36313999Y-72980342D02*
X36361618Y-72789866D01*
X36361618Y-72789866D02*
X36361618Y-72551771D01*
X36361618Y-72551771D02*
X36313999Y-72361295D01*
X36313999Y-72361295D02*
X36266380Y-72266057D01*
X36266380Y-72266057D02*
X36218761Y-72218438D01*
X36218761Y-72218438D02*
X36123523Y-72170819D01*
X34933047Y-72504152D02*
X34933047Y-73170819D01*
X35361618Y-72504152D02*
X35361618Y-73027961D01*
X35361618Y-73027961D02*
X35313999Y-73123200D01*
X35313999Y-73123200D02*
X35218761Y-73170819D01*
X35218761Y-73170819D02*
X35075904Y-73170819D01*
X35075904Y-73170819D02*
X34980666Y-73123200D01*
X34980666Y-73123200D02*
X34933047Y-73075580D01*
X34599713Y-72504152D02*
X34218761Y-72504152D01*
X34456856Y-73170819D02*
X34456856Y-72313676D01*
X34456856Y-72313676D02*
X34409237Y-72218438D01*
X34409237Y-72218438D02*
X34313999Y-72170819D01*
X34313999Y-72170819D02*
X34218761Y-72170819D01*
X47141904Y-33068819D02*
X47141904Y-33878342D01*
X47141904Y-33878342D02*
X47094285Y-33973580D01*
X47094285Y-33973580D02*
X47046666Y-34021200D01*
X47046666Y-34021200D02*
X46951428Y-34068819D01*
X46951428Y-34068819D02*
X46760952Y-34068819D01*
X46760952Y-34068819D02*
X46665714Y-34021200D01*
X46665714Y-34021200D02*
X46618095Y-33973580D01*
X46618095Y-33973580D02*
X46570476Y-33878342D01*
X46570476Y-33878342D02*
X46570476Y-33068819D01*
X45570476Y-34068819D02*
X46141904Y-34068819D01*
X45856190Y-34068819D02*
X45856190Y-33068819D01*
X45856190Y-33068819D02*
X45951428Y-33211676D01*
X45951428Y-33211676D02*
X46046666Y-33306914D01*
X46046666Y-33306914D02*
X46141904Y-33354533D01*
X51855666Y-53373580D02*
X51903285Y-53421200D01*
X51903285Y-53421200D02*
X52046142Y-53468819D01*
X52046142Y-53468819D02*
X52141380Y-53468819D01*
X52141380Y-53468819D02*
X52284237Y-53421200D01*
X52284237Y-53421200D02*
X52379475Y-53325961D01*
X52379475Y-53325961D02*
X52427094Y-53230723D01*
X52427094Y-53230723D02*
X52474713Y-53040247D01*
X52474713Y-53040247D02*
X52474713Y-52897390D01*
X52474713Y-52897390D02*
X52427094Y-52706914D01*
X52427094Y-52706914D02*
X52379475Y-52611676D01*
X52379475Y-52611676D02*
X52284237Y-52516438D01*
X52284237Y-52516438D02*
X52141380Y-52468819D01*
X52141380Y-52468819D02*
X52046142Y-52468819D01*
X52046142Y-52468819D02*
X51903285Y-52516438D01*
X51903285Y-52516438D02*
X51855666Y-52564057D01*
X51284237Y-52897390D02*
X51379475Y-52849771D01*
X51379475Y-52849771D02*
X51427094Y-52802152D01*
X51427094Y-52802152D02*
X51474713Y-52706914D01*
X51474713Y-52706914D02*
X51474713Y-52659295D01*
X51474713Y-52659295D02*
X51427094Y-52564057D01*
X51427094Y-52564057D02*
X51379475Y-52516438D01*
X51379475Y-52516438D02*
X51284237Y-52468819D01*
X51284237Y-52468819D02*
X51093761Y-52468819D01*
X51093761Y-52468819D02*
X50998523Y-52516438D01*
X50998523Y-52516438D02*
X50950904Y-52564057D01*
X50950904Y-52564057D02*
X50903285Y-52659295D01*
X50903285Y-52659295D02*
X50903285Y-52706914D01*
X50903285Y-52706914D02*
X50950904Y-52802152D01*
X50950904Y-52802152D02*
X50998523Y-52849771D01*
X50998523Y-52849771D02*
X51093761Y-52897390D01*
X51093761Y-52897390D02*
X51284237Y-52897390D01*
X51284237Y-52897390D02*
X51379475Y-52945009D01*
X51379475Y-52945009D02*
X51427094Y-52992628D01*
X51427094Y-52992628D02*
X51474713Y-53087866D01*
X51474713Y-53087866D02*
X51474713Y-53278342D01*
X51474713Y-53278342D02*
X51427094Y-53373580D01*
X51427094Y-53373580D02*
X51379475Y-53421200D01*
X51379475Y-53421200D02*
X51284237Y-53468819D01*
X51284237Y-53468819D02*
X51093761Y-53468819D01*
X51093761Y-53468819D02*
X50998523Y-53421200D01*
X50998523Y-53421200D02*
X50950904Y-53373580D01*
X50950904Y-53373580D02*
X50903285Y-53278342D01*
X50903285Y-53278342D02*
X50903285Y-53087866D01*
X50903285Y-53087866D02*
X50950904Y-52992628D01*
X50950904Y-52992628D02*
X50998523Y-52945009D01*
X50998523Y-52945009D02*
X51093761Y-52897390D01*
X53093762Y-57168819D02*
X53665190Y-57168819D01*
X53379476Y-57168819D02*
X53379476Y-56168819D01*
X53379476Y-56168819D02*
X53474714Y-56311676D01*
X53474714Y-56311676D02*
X53569952Y-56406914D01*
X53569952Y-56406914D02*
X53665190Y-56454533D01*
X52474714Y-56168819D02*
X52379476Y-56168819D01*
X52379476Y-56168819D02*
X52284238Y-56216438D01*
X52284238Y-56216438D02*
X52236619Y-56264057D01*
X52236619Y-56264057D02*
X52189000Y-56359295D01*
X52189000Y-56359295D02*
X52141381Y-56549771D01*
X52141381Y-56549771D02*
X52141381Y-56787866D01*
X52141381Y-56787866D02*
X52189000Y-56978342D01*
X52189000Y-56978342D02*
X52236619Y-57073580D01*
X52236619Y-57073580D02*
X52284238Y-57121200D01*
X52284238Y-57121200D02*
X52379476Y-57168819D01*
X52379476Y-57168819D02*
X52474714Y-57168819D01*
X52474714Y-57168819D02*
X52569952Y-57121200D01*
X52569952Y-57121200D02*
X52617571Y-57073580D01*
X52617571Y-57073580D02*
X52665190Y-56978342D01*
X52665190Y-56978342D02*
X52712809Y-56787866D01*
X52712809Y-56787866D02*
X52712809Y-56549771D01*
X52712809Y-56549771D02*
X52665190Y-56359295D01*
X52665190Y-56359295D02*
X52617571Y-56264057D01*
X52617571Y-56264057D02*
X52569952Y-56216438D01*
X52569952Y-56216438D02*
X52474714Y-56168819D01*
X51522333Y-56168819D02*
X51427095Y-56168819D01*
X51427095Y-56168819D02*
X51331857Y-56216438D01*
X51331857Y-56216438D02*
X51284238Y-56264057D01*
X51284238Y-56264057D02*
X51236619Y-56359295D01*
X51236619Y-56359295D02*
X51189000Y-56549771D01*
X51189000Y-56549771D02*
X51189000Y-56787866D01*
X51189000Y-56787866D02*
X51236619Y-56978342D01*
X51236619Y-56978342D02*
X51284238Y-57073580D01*
X51284238Y-57073580D02*
X51331857Y-57121200D01*
X51331857Y-57121200D02*
X51427095Y-57168819D01*
X51427095Y-57168819D02*
X51522333Y-57168819D01*
X51522333Y-57168819D02*
X51617571Y-57121200D01*
X51617571Y-57121200D02*
X51665190Y-57073580D01*
X51665190Y-57073580D02*
X51712809Y-56978342D01*
X51712809Y-56978342D02*
X51760428Y-56787866D01*
X51760428Y-56787866D02*
X51760428Y-56549771D01*
X51760428Y-56549771D02*
X51712809Y-56359295D01*
X51712809Y-56359295D02*
X51665190Y-56264057D01*
X51665190Y-56264057D02*
X51617571Y-56216438D01*
X51617571Y-56216438D02*
X51522333Y-56168819D01*
X50760428Y-56502152D02*
X50760428Y-57168819D01*
X50760428Y-56597390D02*
X50712809Y-56549771D01*
X50712809Y-56549771D02*
X50617571Y-56502152D01*
X50617571Y-56502152D02*
X50474714Y-56502152D01*
X50474714Y-56502152D02*
X50379476Y-56549771D01*
X50379476Y-56549771D02*
X50331857Y-56645009D01*
X50331857Y-56645009D02*
X50331857Y-57168819D01*
X49998523Y-56502152D02*
X49617571Y-56502152D01*
X49855666Y-57168819D02*
X49855666Y-56311676D01*
X49855666Y-56311676D02*
X49808047Y-56216438D01*
X49808047Y-56216438D02*
X49712809Y-56168819D01*
X49712809Y-56168819D02*
X49617571Y-56168819D01*
X57547009Y-47164666D02*
X57547009Y-46831333D01*
X58070819Y-46831333D02*
X57070819Y-46831333D01*
X57070819Y-46831333D02*
X57070819Y-47307523D01*
X58070819Y-48212285D02*
X58070819Y-47640857D01*
X58070819Y-47926571D02*
X57070819Y-47926571D01*
X57070819Y-47926571D02*
X57213676Y-47831333D01*
X57213676Y-47831333D02*
X57308914Y-47736095D01*
X57308914Y-47736095D02*
X57356533Y-47640857D01*
X36401333Y-75327009D02*
X36734666Y-75327009D01*
X36734666Y-75850819D02*
X36734666Y-74850819D01*
X36734666Y-74850819D02*
X36258476Y-74850819D01*
X35401333Y-74850819D02*
X35877523Y-74850819D01*
X35877523Y-74850819D02*
X35925142Y-75327009D01*
X35925142Y-75327009D02*
X35877523Y-75279390D01*
X35877523Y-75279390D02*
X35782285Y-75231771D01*
X35782285Y-75231771D02*
X35544190Y-75231771D01*
X35544190Y-75231771D02*
X35448952Y-75279390D01*
X35448952Y-75279390D02*
X35401333Y-75327009D01*
X35401333Y-75327009D02*
X35353714Y-75422247D01*
X35353714Y-75422247D02*
X35353714Y-75660342D01*
X35353714Y-75660342D02*
X35401333Y-75755580D01*
X35401333Y-75755580D02*
X35448952Y-75803200D01*
X35448952Y-75803200D02*
X35544190Y-75850819D01*
X35544190Y-75850819D02*
X35782285Y-75850819D01*
X35782285Y-75850819D02*
X35877523Y-75803200D01*
X35877523Y-75803200D02*
X35925142Y-75755580D01*
X55295580Y-65111333D02*
X55343200Y-65063714D01*
X55343200Y-65063714D02*
X55390819Y-64920857D01*
X55390819Y-64920857D02*
X55390819Y-64825619D01*
X55390819Y-64825619D02*
X55343200Y-64682762D01*
X55343200Y-64682762D02*
X55247961Y-64587524D01*
X55247961Y-64587524D02*
X55152723Y-64539905D01*
X55152723Y-64539905D02*
X54962247Y-64492286D01*
X54962247Y-64492286D02*
X54819390Y-64492286D01*
X54819390Y-64492286D02*
X54628914Y-64539905D01*
X54628914Y-64539905D02*
X54533676Y-64587524D01*
X54533676Y-64587524D02*
X54438438Y-64682762D01*
X54438438Y-64682762D02*
X54390819Y-64825619D01*
X54390819Y-64825619D02*
X54390819Y-64920857D01*
X54390819Y-64920857D02*
X54438438Y-65063714D01*
X54438438Y-65063714D02*
X54486057Y-65111333D01*
X54724152Y-65968476D02*
X55390819Y-65968476D01*
X54343200Y-65730381D02*
X55057485Y-65492286D01*
X55057485Y-65492286D02*
X55057485Y-66111333D01*
X51690819Y-63873237D02*
X51690819Y-63301809D01*
X51690819Y-63587523D02*
X50690819Y-63587523D01*
X50690819Y-63587523D02*
X50833676Y-63492285D01*
X50833676Y-63492285D02*
X50928914Y-63397047D01*
X50928914Y-63397047D02*
X50976533Y-63301809D01*
X50690819Y-64492285D02*
X50690819Y-64587523D01*
X50690819Y-64587523D02*
X50738438Y-64682761D01*
X50738438Y-64682761D02*
X50786057Y-64730380D01*
X50786057Y-64730380D02*
X50881295Y-64777999D01*
X50881295Y-64777999D02*
X51071771Y-64825618D01*
X51071771Y-64825618D02*
X51309866Y-64825618D01*
X51309866Y-64825618D02*
X51500342Y-64777999D01*
X51500342Y-64777999D02*
X51595580Y-64730380D01*
X51595580Y-64730380D02*
X51643200Y-64682761D01*
X51643200Y-64682761D02*
X51690819Y-64587523D01*
X51690819Y-64587523D02*
X51690819Y-64492285D01*
X51690819Y-64492285D02*
X51643200Y-64397047D01*
X51643200Y-64397047D02*
X51595580Y-64349428D01*
X51595580Y-64349428D02*
X51500342Y-64301809D01*
X51500342Y-64301809D02*
X51309866Y-64254190D01*
X51309866Y-64254190D02*
X51071771Y-64254190D01*
X51071771Y-64254190D02*
X50881295Y-64301809D01*
X50881295Y-64301809D02*
X50786057Y-64349428D01*
X50786057Y-64349428D02*
X50738438Y-64397047D01*
X50738438Y-64397047D02*
X50690819Y-64492285D01*
X50690819Y-65444666D02*
X50690819Y-65539904D01*
X50690819Y-65539904D02*
X50738438Y-65635142D01*
X50738438Y-65635142D02*
X50786057Y-65682761D01*
X50786057Y-65682761D02*
X50881295Y-65730380D01*
X50881295Y-65730380D02*
X51071771Y-65777999D01*
X51071771Y-65777999D02*
X51309866Y-65777999D01*
X51309866Y-65777999D02*
X51500342Y-65730380D01*
X51500342Y-65730380D02*
X51595580Y-65682761D01*
X51595580Y-65682761D02*
X51643200Y-65635142D01*
X51643200Y-65635142D02*
X51690819Y-65539904D01*
X51690819Y-65539904D02*
X51690819Y-65444666D01*
X51690819Y-65444666D02*
X51643200Y-65349428D01*
X51643200Y-65349428D02*
X51595580Y-65301809D01*
X51595580Y-65301809D02*
X51500342Y-65254190D01*
X51500342Y-65254190D02*
X51309866Y-65206571D01*
X51309866Y-65206571D02*
X51071771Y-65206571D01*
X51071771Y-65206571D02*
X50881295Y-65254190D01*
X50881295Y-65254190D02*
X50786057Y-65301809D01*
X50786057Y-65301809D02*
X50738438Y-65349428D01*
X50738438Y-65349428D02*
X50690819Y-65444666D01*
X51024152Y-66206571D02*
X51690819Y-66206571D01*
X51119390Y-66206571D02*
X51071771Y-66254190D01*
X51071771Y-66254190D02*
X51024152Y-66349428D01*
X51024152Y-66349428D02*
X51024152Y-66492285D01*
X51024152Y-66492285D02*
X51071771Y-66587523D01*
X51071771Y-66587523D02*
X51167009Y-66635142D01*
X51167009Y-66635142D02*
X51690819Y-66635142D01*
X51024152Y-66968476D02*
X51024152Y-67349428D01*
X51690819Y-67111333D02*
X50833676Y-67111333D01*
X50833676Y-67111333D02*
X50738438Y-67158952D01*
X50738438Y-67158952D02*
X50690819Y-67254190D01*
X50690819Y-67254190D02*
X50690819Y-67349428D01*
X45761904Y-60954819D02*
X45761904Y-61764342D01*
X45761904Y-61764342D02*
X45714285Y-61859580D01*
X45714285Y-61859580D02*
X45666666Y-61907200D01*
X45666666Y-61907200D02*
X45571428Y-61954819D01*
X45571428Y-61954819D02*
X45380952Y-61954819D01*
X45380952Y-61954819D02*
X45285714Y-61907200D01*
X45285714Y-61907200D02*
X45238095Y-61859580D01*
X45238095Y-61859580D02*
X45190476Y-61764342D01*
X45190476Y-61764342D02*
X45190476Y-60954819D01*
X44761904Y-61050057D02*
X44714285Y-61002438D01*
X44714285Y-61002438D02*
X44619047Y-60954819D01*
X44619047Y-60954819D02*
X44380952Y-60954819D01*
X44380952Y-60954819D02*
X44285714Y-61002438D01*
X44285714Y-61002438D02*
X44238095Y-61050057D01*
X44238095Y-61050057D02*
X44190476Y-61145295D01*
X44190476Y-61145295D02*
X44190476Y-61240533D01*
X44190476Y-61240533D02*
X44238095Y-61383390D01*
X44238095Y-61383390D02*
X44809523Y-61954819D01*
X44809523Y-61954819D02*
X44190476Y-61954819D01*
X36234666Y-62009580D02*
X36282285Y-62057200D01*
X36282285Y-62057200D02*
X36425142Y-62104819D01*
X36425142Y-62104819D02*
X36520380Y-62104819D01*
X36520380Y-62104819D02*
X36663237Y-62057200D01*
X36663237Y-62057200D02*
X36758475Y-61961961D01*
X36758475Y-61961961D02*
X36806094Y-61866723D01*
X36806094Y-61866723D02*
X36853713Y-61676247D01*
X36853713Y-61676247D02*
X36853713Y-61533390D01*
X36853713Y-61533390D02*
X36806094Y-61342914D01*
X36806094Y-61342914D02*
X36758475Y-61247676D01*
X36758475Y-61247676D02*
X36663237Y-61152438D01*
X36663237Y-61152438D02*
X36520380Y-61104819D01*
X36520380Y-61104819D02*
X36425142Y-61104819D01*
X36425142Y-61104819D02*
X36282285Y-61152438D01*
X36282285Y-61152438D02*
X36234666Y-61200057D01*
X35377523Y-61104819D02*
X35567999Y-61104819D01*
X35567999Y-61104819D02*
X35663237Y-61152438D01*
X35663237Y-61152438D02*
X35710856Y-61200057D01*
X35710856Y-61200057D02*
X35806094Y-61342914D01*
X35806094Y-61342914D02*
X35853713Y-61533390D01*
X35853713Y-61533390D02*
X35853713Y-61914342D01*
X35853713Y-61914342D02*
X35806094Y-62009580D01*
X35806094Y-62009580D02*
X35758475Y-62057200D01*
X35758475Y-62057200D02*
X35663237Y-62104819D01*
X35663237Y-62104819D02*
X35472761Y-62104819D01*
X35472761Y-62104819D02*
X35377523Y-62057200D01*
X35377523Y-62057200D02*
X35329904Y-62009580D01*
X35329904Y-62009580D02*
X35282285Y-61914342D01*
X35282285Y-61914342D02*
X35282285Y-61676247D01*
X35282285Y-61676247D02*
X35329904Y-61581009D01*
X35329904Y-61581009D02*
X35377523Y-61533390D01*
X35377523Y-61533390D02*
X35472761Y-61485771D01*
X35472761Y-61485771D02*
X35663237Y-61485771D01*
X35663237Y-61485771D02*
X35758475Y-61533390D01*
X35758475Y-61533390D02*
X35806094Y-61581009D01*
X35806094Y-61581009D02*
X35853713Y-61676247D01*
X37472762Y-65804819D02*
X38044190Y-65804819D01*
X37758476Y-65804819D02*
X37758476Y-64804819D01*
X37758476Y-64804819D02*
X37853714Y-64947676D01*
X37853714Y-64947676D02*
X37948952Y-65042914D01*
X37948952Y-65042914D02*
X38044190Y-65090533D01*
X36853714Y-64804819D02*
X36758476Y-64804819D01*
X36758476Y-64804819D02*
X36663238Y-64852438D01*
X36663238Y-64852438D02*
X36615619Y-64900057D01*
X36615619Y-64900057D02*
X36568000Y-64995295D01*
X36568000Y-64995295D02*
X36520381Y-65185771D01*
X36520381Y-65185771D02*
X36520381Y-65423866D01*
X36520381Y-65423866D02*
X36568000Y-65614342D01*
X36568000Y-65614342D02*
X36615619Y-65709580D01*
X36615619Y-65709580D02*
X36663238Y-65757200D01*
X36663238Y-65757200D02*
X36758476Y-65804819D01*
X36758476Y-65804819D02*
X36853714Y-65804819D01*
X36853714Y-65804819D02*
X36948952Y-65757200D01*
X36948952Y-65757200D02*
X36996571Y-65709580D01*
X36996571Y-65709580D02*
X37044190Y-65614342D01*
X37044190Y-65614342D02*
X37091809Y-65423866D01*
X37091809Y-65423866D02*
X37091809Y-65185771D01*
X37091809Y-65185771D02*
X37044190Y-64995295D01*
X37044190Y-64995295D02*
X36996571Y-64900057D01*
X36996571Y-64900057D02*
X36948952Y-64852438D01*
X36948952Y-64852438D02*
X36853714Y-64804819D01*
X35901333Y-64804819D02*
X35806095Y-64804819D01*
X35806095Y-64804819D02*
X35710857Y-64852438D01*
X35710857Y-64852438D02*
X35663238Y-64900057D01*
X35663238Y-64900057D02*
X35615619Y-64995295D01*
X35615619Y-64995295D02*
X35568000Y-65185771D01*
X35568000Y-65185771D02*
X35568000Y-65423866D01*
X35568000Y-65423866D02*
X35615619Y-65614342D01*
X35615619Y-65614342D02*
X35663238Y-65709580D01*
X35663238Y-65709580D02*
X35710857Y-65757200D01*
X35710857Y-65757200D02*
X35806095Y-65804819D01*
X35806095Y-65804819D02*
X35901333Y-65804819D01*
X35901333Y-65804819D02*
X35996571Y-65757200D01*
X35996571Y-65757200D02*
X36044190Y-65709580D01*
X36044190Y-65709580D02*
X36091809Y-65614342D01*
X36091809Y-65614342D02*
X36139428Y-65423866D01*
X36139428Y-65423866D02*
X36139428Y-65185771D01*
X36139428Y-65185771D02*
X36091809Y-64995295D01*
X36091809Y-64995295D02*
X36044190Y-64900057D01*
X36044190Y-64900057D02*
X35996571Y-64852438D01*
X35996571Y-64852438D02*
X35901333Y-64804819D01*
X35139428Y-65138152D02*
X35139428Y-65804819D01*
X35139428Y-65233390D02*
X35091809Y-65185771D01*
X35091809Y-65185771D02*
X34996571Y-65138152D01*
X34996571Y-65138152D02*
X34853714Y-65138152D01*
X34853714Y-65138152D02*
X34758476Y-65185771D01*
X34758476Y-65185771D02*
X34710857Y-65281009D01*
X34710857Y-65281009D02*
X34710857Y-65804819D01*
X34377523Y-65138152D02*
X33996571Y-65138152D01*
X34234666Y-65804819D02*
X34234666Y-64947676D01*
X34234666Y-64947676D02*
X34187047Y-64852438D01*
X34187047Y-64852438D02*
X34091809Y-64804819D01*
X34091809Y-64804819D02*
X33996571Y-64804819D01*
X34984166Y-47303580D02*
X35031785Y-47351200D01*
X35031785Y-47351200D02*
X35174642Y-47398819D01*
X35174642Y-47398819D02*
X35269880Y-47398819D01*
X35269880Y-47398819D02*
X35412737Y-47351200D01*
X35412737Y-47351200D02*
X35507975Y-47255961D01*
X35507975Y-47255961D02*
X35555594Y-47160723D01*
X35555594Y-47160723D02*
X35603213Y-46970247D01*
X35603213Y-46970247D02*
X35603213Y-46827390D01*
X35603213Y-46827390D02*
X35555594Y-46636914D01*
X35555594Y-46636914D02*
X35507975Y-46541676D01*
X35507975Y-46541676D02*
X35412737Y-46446438D01*
X35412737Y-46446438D02*
X35269880Y-46398819D01*
X35269880Y-46398819D02*
X35174642Y-46398819D01*
X35174642Y-46398819D02*
X35031785Y-46446438D01*
X35031785Y-46446438D02*
X34984166Y-46494057D01*
X34650832Y-46398819D02*
X34031785Y-46398819D01*
X34031785Y-46398819D02*
X34365118Y-46779771D01*
X34365118Y-46779771D02*
X34222261Y-46779771D01*
X34222261Y-46779771D02*
X34127023Y-46827390D01*
X34127023Y-46827390D02*
X34079404Y-46875009D01*
X34079404Y-46875009D02*
X34031785Y-46970247D01*
X34031785Y-46970247D02*
X34031785Y-47208342D01*
X34031785Y-47208342D02*
X34079404Y-47303580D01*
X34079404Y-47303580D02*
X34127023Y-47351200D01*
X34127023Y-47351200D02*
X34222261Y-47398819D01*
X34222261Y-47398819D02*
X34507975Y-47398819D01*
X34507975Y-47398819D02*
X34603213Y-47351200D01*
X34603213Y-47351200D02*
X34650832Y-47303580D01*
X36222262Y-51098819D02*
X36793690Y-51098819D01*
X36507976Y-51098819D02*
X36507976Y-50098819D01*
X36507976Y-50098819D02*
X36603214Y-50241676D01*
X36603214Y-50241676D02*
X36698452Y-50336914D01*
X36698452Y-50336914D02*
X36793690Y-50384533D01*
X35603214Y-50098819D02*
X35507976Y-50098819D01*
X35507976Y-50098819D02*
X35412738Y-50146438D01*
X35412738Y-50146438D02*
X35365119Y-50194057D01*
X35365119Y-50194057D02*
X35317500Y-50289295D01*
X35317500Y-50289295D02*
X35269881Y-50479771D01*
X35269881Y-50479771D02*
X35269881Y-50717866D01*
X35269881Y-50717866D02*
X35317500Y-50908342D01*
X35317500Y-50908342D02*
X35365119Y-51003580D01*
X35365119Y-51003580D02*
X35412738Y-51051200D01*
X35412738Y-51051200D02*
X35507976Y-51098819D01*
X35507976Y-51098819D02*
X35603214Y-51098819D01*
X35603214Y-51098819D02*
X35698452Y-51051200D01*
X35698452Y-51051200D02*
X35746071Y-51003580D01*
X35746071Y-51003580D02*
X35793690Y-50908342D01*
X35793690Y-50908342D02*
X35841309Y-50717866D01*
X35841309Y-50717866D02*
X35841309Y-50479771D01*
X35841309Y-50479771D02*
X35793690Y-50289295D01*
X35793690Y-50289295D02*
X35746071Y-50194057D01*
X35746071Y-50194057D02*
X35698452Y-50146438D01*
X35698452Y-50146438D02*
X35603214Y-50098819D01*
X34650833Y-50098819D02*
X34555595Y-50098819D01*
X34555595Y-50098819D02*
X34460357Y-50146438D01*
X34460357Y-50146438D02*
X34412738Y-50194057D01*
X34412738Y-50194057D02*
X34365119Y-50289295D01*
X34365119Y-50289295D02*
X34317500Y-50479771D01*
X34317500Y-50479771D02*
X34317500Y-50717866D01*
X34317500Y-50717866D02*
X34365119Y-50908342D01*
X34365119Y-50908342D02*
X34412738Y-51003580D01*
X34412738Y-51003580D02*
X34460357Y-51051200D01*
X34460357Y-51051200D02*
X34555595Y-51098819D01*
X34555595Y-51098819D02*
X34650833Y-51098819D01*
X34650833Y-51098819D02*
X34746071Y-51051200D01*
X34746071Y-51051200D02*
X34793690Y-51003580D01*
X34793690Y-51003580D02*
X34841309Y-50908342D01*
X34841309Y-50908342D02*
X34888928Y-50717866D01*
X34888928Y-50717866D02*
X34888928Y-50479771D01*
X34888928Y-50479771D02*
X34841309Y-50289295D01*
X34841309Y-50289295D02*
X34793690Y-50194057D01*
X34793690Y-50194057D02*
X34746071Y-50146438D01*
X34746071Y-50146438D02*
X34650833Y-50098819D01*
X33888928Y-50432152D02*
X33888928Y-51098819D01*
X33888928Y-50527390D02*
X33841309Y-50479771D01*
X33841309Y-50479771D02*
X33746071Y-50432152D01*
X33746071Y-50432152D02*
X33603214Y-50432152D01*
X33603214Y-50432152D02*
X33507976Y-50479771D01*
X33507976Y-50479771D02*
X33460357Y-50575009D01*
X33460357Y-50575009D02*
X33460357Y-51098819D01*
X33127023Y-50432152D02*
X32746071Y-50432152D01*
X32984166Y-51098819D02*
X32984166Y-50241676D01*
X32984166Y-50241676D02*
X32936547Y-50146438D01*
X32936547Y-50146438D02*
X32841309Y-50098819D01*
X32841309Y-50098819D02*
X32746071Y-50098819D01*
X81630357Y-90457580D02*
X81677976Y-90505200D01*
X81677976Y-90505200D02*
X81820833Y-90552819D01*
X81820833Y-90552819D02*
X81916071Y-90552819D01*
X81916071Y-90552819D02*
X82058928Y-90505200D01*
X82058928Y-90505200D02*
X82154166Y-90409961D01*
X82154166Y-90409961D02*
X82201785Y-90314723D01*
X82201785Y-90314723D02*
X82249404Y-90124247D01*
X82249404Y-90124247D02*
X82249404Y-89981390D01*
X82249404Y-89981390D02*
X82201785Y-89790914D01*
X82201785Y-89790914D02*
X82154166Y-89695676D01*
X82154166Y-89695676D02*
X82058928Y-89600438D01*
X82058928Y-89600438D02*
X81916071Y-89552819D01*
X81916071Y-89552819D02*
X81820833Y-89552819D01*
X81820833Y-89552819D02*
X81677976Y-89600438D01*
X81677976Y-89600438D02*
X81630357Y-89648057D01*
X80677976Y-90552819D02*
X81249404Y-90552819D01*
X80963690Y-90552819D02*
X80963690Y-89552819D01*
X80963690Y-89552819D02*
X81058928Y-89695676D01*
X81058928Y-89695676D02*
X81154166Y-89790914D01*
X81154166Y-89790914D02*
X81249404Y-89838533D01*
X80058928Y-89552819D02*
X79963690Y-89552819D01*
X79963690Y-89552819D02*
X79868452Y-89600438D01*
X79868452Y-89600438D02*
X79820833Y-89648057D01*
X79820833Y-89648057D02*
X79773214Y-89743295D01*
X79773214Y-89743295D02*
X79725595Y-89933771D01*
X79725595Y-89933771D02*
X79725595Y-90171866D01*
X79725595Y-90171866D02*
X79773214Y-90362342D01*
X79773214Y-90362342D02*
X79820833Y-90457580D01*
X79820833Y-90457580D02*
X79868452Y-90505200D01*
X79868452Y-90505200D02*
X79963690Y-90552819D01*
X79963690Y-90552819D02*
X80058928Y-90552819D01*
X80058928Y-90552819D02*
X80154166Y-90505200D01*
X80154166Y-90505200D02*
X80201785Y-90457580D01*
X80201785Y-90457580D02*
X80249404Y-90362342D01*
X80249404Y-90362342D02*
X80297023Y-90171866D01*
X80297023Y-90171866D02*
X80297023Y-89933771D01*
X80297023Y-89933771D02*
X80249404Y-89743295D01*
X80249404Y-89743295D02*
X80201785Y-89648057D01*
X80201785Y-89648057D02*
X80154166Y-89600438D01*
X80154166Y-89600438D02*
X80058928Y-89552819D01*
X82392262Y-94252819D02*
X82963690Y-94252819D01*
X82677976Y-94252819D02*
X82677976Y-93252819D01*
X82677976Y-93252819D02*
X82773214Y-93395676D01*
X82773214Y-93395676D02*
X82868452Y-93490914D01*
X82868452Y-93490914D02*
X82963690Y-93538533D01*
X81773214Y-93252819D02*
X81677976Y-93252819D01*
X81677976Y-93252819D02*
X81582738Y-93300438D01*
X81582738Y-93300438D02*
X81535119Y-93348057D01*
X81535119Y-93348057D02*
X81487500Y-93443295D01*
X81487500Y-93443295D02*
X81439881Y-93633771D01*
X81439881Y-93633771D02*
X81439881Y-93871866D01*
X81439881Y-93871866D02*
X81487500Y-94062342D01*
X81487500Y-94062342D02*
X81535119Y-94157580D01*
X81535119Y-94157580D02*
X81582738Y-94205200D01*
X81582738Y-94205200D02*
X81677976Y-94252819D01*
X81677976Y-94252819D02*
X81773214Y-94252819D01*
X81773214Y-94252819D02*
X81868452Y-94205200D01*
X81868452Y-94205200D02*
X81916071Y-94157580D01*
X81916071Y-94157580D02*
X81963690Y-94062342D01*
X81963690Y-94062342D02*
X82011309Y-93871866D01*
X82011309Y-93871866D02*
X82011309Y-93633771D01*
X82011309Y-93633771D02*
X81963690Y-93443295D01*
X81963690Y-93443295D02*
X81916071Y-93348057D01*
X81916071Y-93348057D02*
X81868452Y-93300438D01*
X81868452Y-93300438D02*
X81773214Y-93252819D01*
X80820833Y-93252819D02*
X80725595Y-93252819D01*
X80725595Y-93252819D02*
X80630357Y-93300438D01*
X80630357Y-93300438D02*
X80582738Y-93348057D01*
X80582738Y-93348057D02*
X80535119Y-93443295D01*
X80535119Y-93443295D02*
X80487500Y-93633771D01*
X80487500Y-93633771D02*
X80487500Y-93871866D01*
X80487500Y-93871866D02*
X80535119Y-94062342D01*
X80535119Y-94062342D02*
X80582738Y-94157580D01*
X80582738Y-94157580D02*
X80630357Y-94205200D01*
X80630357Y-94205200D02*
X80725595Y-94252819D01*
X80725595Y-94252819D02*
X80820833Y-94252819D01*
X80820833Y-94252819D02*
X80916071Y-94205200D01*
X80916071Y-94205200D02*
X80963690Y-94157580D01*
X80963690Y-94157580D02*
X81011309Y-94062342D01*
X81011309Y-94062342D02*
X81058928Y-93871866D01*
X81058928Y-93871866D02*
X81058928Y-93633771D01*
X81058928Y-93633771D02*
X81011309Y-93443295D01*
X81011309Y-93443295D02*
X80963690Y-93348057D01*
X80963690Y-93348057D02*
X80916071Y-93300438D01*
X80916071Y-93300438D02*
X80820833Y-93252819D01*
X80058928Y-93586152D02*
X80058928Y-94252819D01*
X80058928Y-93681390D02*
X80011309Y-93633771D01*
X80011309Y-93633771D02*
X79916071Y-93586152D01*
X79916071Y-93586152D02*
X79773214Y-93586152D01*
X79773214Y-93586152D02*
X79677976Y-93633771D01*
X79677976Y-93633771D02*
X79630357Y-93729009D01*
X79630357Y-93729009D02*
X79630357Y-94252819D01*
X79297023Y-93586152D02*
X78916071Y-93586152D01*
X79154166Y-94252819D02*
X79154166Y-93395676D01*
X79154166Y-93395676D02*
X79106547Y-93300438D01*
X79106547Y-93300438D02*
X79011309Y-93252819D01*
X79011309Y-93252819D02*
X78916071Y-93252819D01*
X58724580Y-36663333D02*
X58772200Y-36615714D01*
X58772200Y-36615714D02*
X58819819Y-36472857D01*
X58819819Y-36472857D02*
X58819819Y-36377619D01*
X58819819Y-36377619D02*
X58772200Y-36234762D01*
X58772200Y-36234762D02*
X58676961Y-36139524D01*
X58676961Y-36139524D02*
X58581723Y-36091905D01*
X58581723Y-36091905D02*
X58391247Y-36044286D01*
X58391247Y-36044286D02*
X58248390Y-36044286D01*
X58248390Y-36044286D02*
X58057914Y-36091905D01*
X58057914Y-36091905D02*
X57962676Y-36139524D01*
X57962676Y-36139524D02*
X57867438Y-36234762D01*
X57867438Y-36234762D02*
X57819819Y-36377619D01*
X57819819Y-36377619D02*
X57819819Y-36472857D01*
X57819819Y-36472857D02*
X57867438Y-36615714D01*
X57867438Y-36615714D02*
X57915057Y-36663333D01*
X58819819Y-37615714D02*
X58819819Y-37044286D01*
X58819819Y-37330000D02*
X57819819Y-37330000D01*
X57819819Y-37330000D02*
X57962676Y-37234762D01*
X57962676Y-37234762D02*
X58057914Y-37139524D01*
X58057914Y-37139524D02*
X58105533Y-37044286D01*
X55119819Y-35425237D02*
X55119819Y-34853809D01*
X55119819Y-35139523D02*
X54119819Y-35139523D01*
X54119819Y-35139523D02*
X54262676Y-35044285D01*
X54262676Y-35044285D02*
X54357914Y-34949047D01*
X54357914Y-34949047D02*
X54405533Y-34853809D01*
X54119819Y-36044285D02*
X54119819Y-36139523D01*
X54119819Y-36139523D02*
X54167438Y-36234761D01*
X54167438Y-36234761D02*
X54215057Y-36282380D01*
X54215057Y-36282380D02*
X54310295Y-36329999D01*
X54310295Y-36329999D02*
X54500771Y-36377618D01*
X54500771Y-36377618D02*
X54738866Y-36377618D01*
X54738866Y-36377618D02*
X54929342Y-36329999D01*
X54929342Y-36329999D02*
X55024580Y-36282380D01*
X55024580Y-36282380D02*
X55072200Y-36234761D01*
X55072200Y-36234761D02*
X55119819Y-36139523D01*
X55119819Y-36139523D02*
X55119819Y-36044285D01*
X55119819Y-36044285D02*
X55072200Y-35949047D01*
X55072200Y-35949047D02*
X55024580Y-35901428D01*
X55024580Y-35901428D02*
X54929342Y-35853809D01*
X54929342Y-35853809D02*
X54738866Y-35806190D01*
X54738866Y-35806190D02*
X54500771Y-35806190D01*
X54500771Y-35806190D02*
X54310295Y-35853809D01*
X54310295Y-35853809D02*
X54215057Y-35901428D01*
X54215057Y-35901428D02*
X54167438Y-35949047D01*
X54167438Y-35949047D02*
X54119819Y-36044285D01*
X54119819Y-36996666D02*
X54119819Y-37091904D01*
X54119819Y-37091904D02*
X54167438Y-37187142D01*
X54167438Y-37187142D02*
X54215057Y-37234761D01*
X54215057Y-37234761D02*
X54310295Y-37282380D01*
X54310295Y-37282380D02*
X54500771Y-37329999D01*
X54500771Y-37329999D02*
X54738866Y-37329999D01*
X54738866Y-37329999D02*
X54929342Y-37282380D01*
X54929342Y-37282380D02*
X55024580Y-37234761D01*
X55024580Y-37234761D02*
X55072200Y-37187142D01*
X55072200Y-37187142D02*
X55119819Y-37091904D01*
X55119819Y-37091904D02*
X55119819Y-36996666D01*
X55119819Y-36996666D02*
X55072200Y-36901428D01*
X55072200Y-36901428D02*
X55024580Y-36853809D01*
X55024580Y-36853809D02*
X54929342Y-36806190D01*
X54929342Y-36806190D02*
X54738866Y-36758571D01*
X54738866Y-36758571D02*
X54500771Y-36758571D01*
X54500771Y-36758571D02*
X54310295Y-36806190D01*
X54310295Y-36806190D02*
X54215057Y-36853809D01*
X54215057Y-36853809D02*
X54167438Y-36901428D01*
X54167438Y-36901428D02*
X54119819Y-36996666D01*
X54453152Y-37758571D02*
X55119819Y-37758571D01*
X54548390Y-37758571D02*
X54500771Y-37806190D01*
X54500771Y-37806190D02*
X54453152Y-37901428D01*
X54453152Y-37901428D02*
X54453152Y-38044285D01*
X54453152Y-38044285D02*
X54500771Y-38139523D01*
X54500771Y-38139523D02*
X54596009Y-38187142D01*
X54596009Y-38187142D02*
X55119819Y-38187142D01*
X54453152Y-38520476D02*
X54453152Y-38901428D01*
X55119819Y-38663333D02*
X54262676Y-38663333D01*
X54262676Y-38663333D02*
X54167438Y-38710952D01*
X54167438Y-38710952D02*
X54119819Y-38806190D01*
X54119819Y-38806190D02*
X54119819Y-38901428D01*
X34877333Y-33671009D02*
X35210666Y-33671009D01*
X35210666Y-34194819D02*
X35210666Y-33194819D01*
X35210666Y-33194819D02*
X34734476Y-33194819D01*
X33924952Y-33528152D02*
X33924952Y-34194819D01*
X34163047Y-33147200D02*
X34401142Y-33861485D01*
X34401142Y-33861485D02*
X33782095Y-33861485D01*
X81154166Y-84059580D02*
X81201785Y-84107200D01*
X81201785Y-84107200D02*
X81344642Y-84154819D01*
X81344642Y-84154819D02*
X81439880Y-84154819D01*
X81439880Y-84154819D02*
X81582737Y-84107200D01*
X81582737Y-84107200D02*
X81677975Y-84011961D01*
X81677975Y-84011961D02*
X81725594Y-83916723D01*
X81725594Y-83916723D02*
X81773213Y-83726247D01*
X81773213Y-83726247D02*
X81773213Y-83583390D01*
X81773213Y-83583390D02*
X81725594Y-83392914D01*
X81725594Y-83392914D02*
X81677975Y-83297676D01*
X81677975Y-83297676D02*
X81582737Y-83202438D01*
X81582737Y-83202438D02*
X81439880Y-83154819D01*
X81439880Y-83154819D02*
X81344642Y-83154819D01*
X81344642Y-83154819D02*
X81201785Y-83202438D01*
X81201785Y-83202438D02*
X81154166Y-83250057D01*
X80677975Y-84154819D02*
X80487499Y-84154819D01*
X80487499Y-84154819D02*
X80392261Y-84107200D01*
X80392261Y-84107200D02*
X80344642Y-84059580D01*
X80344642Y-84059580D02*
X80249404Y-83916723D01*
X80249404Y-83916723D02*
X80201785Y-83726247D01*
X80201785Y-83726247D02*
X80201785Y-83345295D01*
X80201785Y-83345295D02*
X80249404Y-83250057D01*
X80249404Y-83250057D02*
X80297023Y-83202438D01*
X80297023Y-83202438D02*
X80392261Y-83154819D01*
X80392261Y-83154819D02*
X80582737Y-83154819D01*
X80582737Y-83154819D02*
X80677975Y-83202438D01*
X80677975Y-83202438D02*
X80725594Y-83250057D01*
X80725594Y-83250057D02*
X80773213Y-83345295D01*
X80773213Y-83345295D02*
X80773213Y-83583390D01*
X80773213Y-83583390D02*
X80725594Y-83678628D01*
X80725594Y-83678628D02*
X80677975Y-83726247D01*
X80677975Y-83726247D02*
X80582737Y-83773866D01*
X80582737Y-83773866D02*
X80392261Y-83773866D01*
X80392261Y-83773866D02*
X80297023Y-83726247D01*
X80297023Y-83726247D02*
X80249404Y-83678628D01*
X80249404Y-83678628D02*
X80201785Y-83583390D01*
X81916071Y-87854819D02*
X82487499Y-87854819D01*
X82201785Y-87854819D02*
X82201785Y-86854819D01*
X82201785Y-86854819D02*
X82297023Y-86997676D01*
X82297023Y-86997676D02*
X82392261Y-87092914D01*
X82392261Y-87092914D02*
X82487499Y-87140533D01*
X81297023Y-86854819D02*
X81201785Y-86854819D01*
X81201785Y-86854819D02*
X81106547Y-86902438D01*
X81106547Y-86902438D02*
X81058928Y-86950057D01*
X81058928Y-86950057D02*
X81011309Y-87045295D01*
X81011309Y-87045295D02*
X80963690Y-87235771D01*
X80963690Y-87235771D02*
X80963690Y-87473866D01*
X80963690Y-87473866D02*
X81011309Y-87664342D01*
X81011309Y-87664342D02*
X81058928Y-87759580D01*
X81058928Y-87759580D02*
X81106547Y-87807200D01*
X81106547Y-87807200D02*
X81201785Y-87854819D01*
X81201785Y-87854819D02*
X81297023Y-87854819D01*
X81297023Y-87854819D02*
X81392261Y-87807200D01*
X81392261Y-87807200D02*
X81439880Y-87759580D01*
X81439880Y-87759580D02*
X81487499Y-87664342D01*
X81487499Y-87664342D02*
X81535118Y-87473866D01*
X81535118Y-87473866D02*
X81535118Y-87235771D01*
X81535118Y-87235771D02*
X81487499Y-87045295D01*
X81487499Y-87045295D02*
X81439880Y-86950057D01*
X81439880Y-86950057D02*
X81392261Y-86902438D01*
X81392261Y-86902438D02*
X81297023Y-86854819D01*
X80106547Y-87188152D02*
X80106547Y-87854819D01*
X80535118Y-87188152D02*
X80535118Y-87711961D01*
X80535118Y-87711961D02*
X80487499Y-87807200D01*
X80487499Y-87807200D02*
X80392261Y-87854819D01*
X80392261Y-87854819D02*
X80249404Y-87854819D01*
X80249404Y-87854819D02*
X80154166Y-87807200D01*
X80154166Y-87807200D02*
X80106547Y-87759580D01*
X79773213Y-87188152D02*
X79392261Y-87188152D01*
X79630356Y-87854819D02*
X79630356Y-86997676D01*
X79630356Y-86997676D02*
X79582737Y-86902438D01*
X79582737Y-86902438D02*
X79487499Y-86854819D01*
X79487499Y-86854819D02*
X79392261Y-86854819D01*
X55599009Y-46910666D02*
X55599009Y-46577333D01*
X56122819Y-46577333D02*
X55122819Y-46577333D01*
X55122819Y-46577333D02*
X55122819Y-47053523D01*
X55218057Y-47386857D02*
X55170438Y-47434476D01*
X55170438Y-47434476D02*
X55122819Y-47529714D01*
X55122819Y-47529714D02*
X55122819Y-47767809D01*
X55122819Y-47767809D02*
X55170438Y-47863047D01*
X55170438Y-47863047D02*
X55218057Y-47910666D01*
X55218057Y-47910666D02*
X55313295Y-47958285D01*
X55313295Y-47958285D02*
X55408533Y-47958285D01*
X55408533Y-47958285D02*
X55551390Y-47910666D01*
X55551390Y-47910666D02*
X56122819Y-47339238D01*
X56122819Y-47339238D02*
X56122819Y-47958285D01*
D11*
%TO.C,F3*%
X59288000Y-78580064D02*
X59288000Y-77375936D01*
X61108000Y-78580064D02*
X61108000Y-77375936D01*
%TO.C,C7*%
X61163252Y-54208000D02*
X59740748Y-54208000D01*
X61163252Y-56028000D02*
X59740748Y-56028000D01*
%TO.C,C2*%
X34042748Y-40772000D02*
X35465252Y-40772000D01*
X34042748Y-42592000D02*
X35465252Y-42592000D01*
%TO.C,C5*%
X35102748Y-69956000D02*
X36525252Y-69956000D01*
X35102748Y-71776000D02*
X36525252Y-71776000D01*
%TO.C,U1*%
X44470000Y-34704000D02*
X48230000Y-34704000D01*
X44470000Y-35964000D02*
X44470000Y-34704000D01*
X44470000Y-40264000D02*
X44470000Y-41524000D01*
X44470000Y-41524000D02*
X48230000Y-41524000D01*
X49510000Y-34804000D02*
X49270000Y-34474000D01*
X49750000Y-34474000D01*
X49510000Y-34804000D01*
G36*
X49510000Y-34804000D02*
G01*
X49270000Y-34474000D01*
X49750000Y-34474000D01*
X49510000Y-34804000D01*
G37*
%TO.C,C8*%
X50977748Y-53954000D02*
X52400252Y-53954000D01*
X50977748Y-55774000D02*
X52400252Y-55774000D01*
%TO.C,F1*%
X58526000Y-48100064D02*
X58526000Y-46895936D01*
X60346000Y-48100064D02*
X60346000Y-46895936D01*
%TO.C,F5*%
X35465936Y-76306000D02*
X36670064Y-76306000D01*
X35465936Y-78126000D02*
X36670064Y-78126000D01*
%TO.C,C4*%
X52176000Y-64566748D02*
X52176000Y-65989252D01*
X53996000Y-64566748D02*
X53996000Y-65989252D01*
%TO.C,U2*%
X43090000Y-62590000D02*
X46850000Y-62590000D01*
X43090000Y-63850000D02*
X43090000Y-62590000D01*
X43090000Y-68150000D02*
X43090000Y-69410000D01*
X43090000Y-69410000D02*
X46850000Y-69410000D01*
X48130000Y-62690000D02*
X47890000Y-62360000D01*
X48370000Y-62360000D01*
X48130000Y-62690000D01*
G36*
X48130000Y-62690000D02*
G01*
X47890000Y-62360000D01*
X48370000Y-62360000D01*
X48130000Y-62690000D01*
G37*
%TO.C,C6*%
X35356748Y-62590000D02*
X36779252Y-62590000D01*
X35356748Y-64410000D02*
X36779252Y-64410000D01*
%TO.C,C3*%
X34106248Y-47884000D02*
X35528752Y-47884000D01*
X34106248Y-49704000D02*
X35528752Y-49704000D01*
%TO.C,C10*%
X80276248Y-91038000D02*
X81698752Y-91038000D01*
X80276248Y-92858000D02*
X81698752Y-92858000D01*
%TO.C,C1*%
X55605000Y-36118748D02*
X55605000Y-37541252D01*
X57425000Y-36118748D02*
X57425000Y-37541252D01*
%TO.C,F4*%
X33941936Y-34650000D02*
X35146064Y-34650000D01*
X33941936Y-36470000D02*
X35146064Y-36470000D01*
%TO.C,C9*%
X80276248Y-84640000D02*
X81698752Y-84640000D01*
X80276248Y-86460000D02*
X81698752Y-86460000D01*
%TO.C,F2*%
X52938000Y-46641936D02*
X52938000Y-47846064D01*
X54758000Y-46641936D02*
X54758000Y-47846064D01*
%TD*%
M02*
