M48
; DRILL file {KiCad 8.0.3} date 2024-11-19T22:25:55+0100
; FORMAT={-:-/ absolute / inch / decimal}
; #@! TF.CreationDate,2024-11-19T22:25:55+01:00
; #@! TF.GenerationSoftware,Kicad,Pcbnew,8.0.3
; #@! TF.FileFunction,Plated,1,2,PTH
FMAT,2
INCH
; #@! TA.AperFunction,Plated,PTH,ViaDrill
T1C0.0157
; #@! TA.AperFunction,Plated,PTH,ViaDrill
T2C0.0236
; #@! TA.AperFunction,Plated,PTH,ViaDrill
T3C0.0315
; #@! TA.AperFunction,Plated,PTH,ComponentDrill
T4C0.0374
; #@! TA.AperFunction,Plated,PTH,ViaDrill
T5C0.0394
; #@! TA.AperFunction,Plated,PTH,ComponentDrill
T6C0.0394
; #@! TA.AperFunction,Plated,PTH,ViaDrill
T7C0.0472
; #@! TA.AperFunction,Plated,PTH,ComponentDrill
T8C0.0512
; #@! TA.AperFunction,Plated,PTH,ViaDrill
T9C0.0630
; #@! TA.AperFunction,Plated,PTH,ComponentDrill
T10C0.0630
; #@! TA.AperFunction,Plated,PTH,ViaDrill
T11C0.0709
; #@! TA.AperFunction,Plated,PTH,ComponentDrill
T12C0.1693
%
G90
G05
T1
X0.59Y-1.114
X0.704Y-1.842
X0.72Y-2.09
X0.72Y-2.14
X0.72Y-2.2
X0.72Y-2.27
X0.8Y-2.09
X0.8Y-2.14
X0.8Y-2.2
X0.8Y-2.27
X0.99Y-2.09
X0.99Y-2.15
X0.99Y-2.21
X0.99Y-2.27
X1.004Y-3.126
X1.07Y-1.17
X1.07Y-2.09
X1.07Y-2.15
X1.07Y-2.21
X1.07Y-2.27
X1.24Y-3.04
X1.36Y-3.16
X1.38Y-0.752
X1.58Y-1.22
X1.58Y-1.65
X1.64Y-2.35
X1.64Y-2.88
X1.72Y-2.35
X1.72Y-2.88
X1.79Y-1.22
X1.8Y-2.35
X1.8Y-2.88
X1.87Y-2.35
X1.87Y-2.88
X1.93Y-2.35
X1.93Y-2.88
X2.202Y-3.642
X2.23Y-1.22
X3.038Y-1.866
X3.188Y-0.582
X3.316Y-1.85
X3.82Y-2.162
X4.354Y-1.944
T2
X1.19Y-2.93
T3
X1.36Y-3.29
X2.22Y-2.636
X2.296Y-2.636
T4
X0.7087Y-1.3091
X0.7087Y-1.4075
X0.7087Y-1.5059
X0.7087Y-1.6043
X0.7087Y-2.4409
X0.7087Y-2.5394
X0.7087Y-2.6378
X0.7087Y-2.7362
T5
X1.85Y-1.76
X1.85Y-1.92
X2.01Y-1.76
X2.01Y-1.92
X2.48Y-2.03
X2.48Y-2.66
X2.535Y-3.22
X2.535Y-3.325
X2.645Y-3.225
T6
X1.295Y-1.4
X1.355Y-3.04
X1.425Y-1.4
X1.485Y-3.04
X2.12Y-1.795
X2.12Y-1.925
X2.34Y-1.805
X2.34Y-1.935
X2.37Y-3.005
X2.37Y-3.135
T7
X1.36Y-3.22
T8
X1.3505Y-3.954
X1.5474Y-3.954
X1.7655Y-3.954
X1.9624Y-3.954
X2.1824Y-3.954
X2.3792Y-3.954
X4.1Y-0.6881
X4.1Y-0.885
X4.1Y-1.1031
X4.1Y-1.3
X4.1Y-1.5181
X4.1Y-1.715
X4.1Y-1.9331
X4.1Y-2.13
X4.1Y-2.3481
X4.1Y-2.545
X4.1Y-2.7631
X4.1Y-2.96
X4.1Y-3.1789
X4.1Y-3.3758
T9
X1.925Y-1.85
T10
X2.6463Y-2.94
X2.6526Y-0.89
X2.6563Y-2.2
X2.6626Y-1.5
X3.4337Y-2.94
X3.44Y-0.89
X3.4437Y-2.2
X3.45Y-1.5
T11
X2.65Y-3.355
T12
X0.7874Y-0.7874
X0.7874Y-3.937
X1.9685Y-0.7874
X3.937Y-3.937
M30
