%TF.GenerationSoftware,KiCad,Pcbnew,8.0.3*%
%TF.CreationDate,2024-11-19T22:25:56+01:00*%
%TF.ProjectId,weerstation-power,77656572-7374-4617-9469-6f6e2d706f77,rev?*%
%TF.SameCoordinates,Original*%
%TF.FileFunction,Drillmap*%
%TF.FilePolarity,Positive*%
%FSLAX45Y45*%
G04 Gerber Fmt 4.5, Leading zero omitted, Abs format (unit mm)*
G04 Created by KiCad (PCBNEW 8.0.3) date 2024-11-19 22:25:56*
%MOMM*%
%LPD*%
G01*
G04 APERTURE LIST*
%ADD10C,0.050000*%
%ADD11C,0.200000*%
%ADD12C,0.120000*%
G04 APERTURE END LIST*
D10*
X1200000Y-1200000D02*
X11200000Y-1200000D01*
X11200000Y-11200000D01*
X1200000Y-11200000D01*
X1200000Y-1200000D01*
D11*
D12*
X1940000Y-4175000D02*
X2060000Y-4295000D01*
X2060000Y-4175000D02*
X1940000Y-4295000D01*
X1940000Y-7050000D02*
X2060000Y-7170000D01*
X2060000Y-7050000D02*
X1940000Y-7170000D01*
D11*
X1458277Y-11513984D02*
X1458277Y-11313984D01*
X1458277Y-11313984D02*
X1505896Y-11313984D01*
X1505896Y-11313984D02*
X1534467Y-11323508D01*
X1534467Y-11323508D02*
X1553515Y-11342555D01*
X1553515Y-11342555D02*
X1563039Y-11361603D01*
X1563039Y-11361603D02*
X1572562Y-11399698D01*
X1572562Y-11399698D02*
X1572562Y-11428269D01*
X1572562Y-11428269D02*
X1563039Y-11466365D01*
X1563039Y-11466365D02*
X1553515Y-11485412D01*
X1553515Y-11485412D02*
X1534467Y-11504460D01*
X1534467Y-11504460D02*
X1505896Y-11513984D01*
X1505896Y-11513984D02*
X1458277Y-11513984D01*
X1658277Y-11513984D02*
X1658277Y-11380650D01*
X1658277Y-11418746D02*
X1667801Y-11399698D01*
X1667801Y-11399698D02*
X1677324Y-11390174D01*
X1677324Y-11390174D02*
X1696372Y-11380650D01*
X1696372Y-11380650D02*
X1715420Y-11380650D01*
X1782086Y-11513984D02*
X1782086Y-11380650D01*
X1782086Y-11313984D02*
X1772562Y-11323508D01*
X1772562Y-11323508D02*
X1782086Y-11333031D01*
X1782086Y-11333031D02*
X1791610Y-11323508D01*
X1791610Y-11323508D02*
X1782086Y-11313984D01*
X1782086Y-11313984D02*
X1782086Y-11333031D01*
X1905896Y-11513984D02*
X1886848Y-11504460D01*
X1886848Y-11504460D02*
X1877324Y-11485412D01*
X1877324Y-11485412D02*
X1877324Y-11313984D01*
X2010658Y-11513984D02*
X1991610Y-11504460D01*
X1991610Y-11504460D02*
X1982086Y-11485412D01*
X1982086Y-11485412D02*
X1982086Y-11313984D01*
X2239229Y-11513984D02*
X2239229Y-11313984D01*
X2239229Y-11313984D02*
X2305896Y-11456841D01*
X2305896Y-11456841D02*
X2372563Y-11313984D01*
X2372563Y-11313984D02*
X2372563Y-11513984D01*
X2553515Y-11513984D02*
X2553515Y-11409222D01*
X2553515Y-11409222D02*
X2543991Y-11390174D01*
X2543991Y-11390174D02*
X2524944Y-11380650D01*
X2524944Y-11380650D02*
X2486848Y-11380650D01*
X2486848Y-11380650D02*
X2467801Y-11390174D01*
X2553515Y-11504460D02*
X2534467Y-11513984D01*
X2534467Y-11513984D02*
X2486848Y-11513984D01*
X2486848Y-11513984D02*
X2467801Y-11504460D01*
X2467801Y-11504460D02*
X2458277Y-11485412D01*
X2458277Y-11485412D02*
X2458277Y-11466365D01*
X2458277Y-11466365D02*
X2467801Y-11447317D01*
X2467801Y-11447317D02*
X2486848Y-11437793D01*
X2486848Y-11437793D02*
X2534467Y-11437793D01*
X2534467Y-11437793D02*
X2553515Y-11428269D01*
X2648753Y-11380650D02*
X2648753Y-11580650D01*
X2648753Y-11390174D02*
X2667801Y-11380650D01*
X2667801Y-11380650D02*
X2705896Y-11380650D01*
X2705896Y-11380650D02*
X2724944Y-11390174D01*
X2724944Y-11390174D02*
X2734467Y-11399698D01*
X2734467Y-11399698D02*
X2743991Y-11418746D01*
X2743991Y-11418746D02*
X2743991Y-11475888D01*
X2743991Y-11475888D02*
X2734467Y-11494936D01*
X2734467Y-11494936D02*
X2724944Y-11504460D01*
X2724944Y-11504460D02*
X2705896Y-11513984D01*
X2705896Y-11513984D02*
X2667801Y-11513984D01*
X2667801Y-11513984D02*
X2648753Y-11504460D01*
X2829705Y-11494936D02*
X2839229Y-11504460D01*
X2839229Y-11504460D02*
X2829705Y-11513984D01*
X2829705Y-11513984D02*
X2820182Y-11504460D01*
X2820182Y-11504460D02*
X2829705Y-11494936D01*
X2829705Y-11494936D02*
X2829705Y-11513984D01*
X2829705Y-11390174D02*
X2839229Y-11399698D01*
X2839229Y-11399698D02*
X2829705Y-11409222D01*
X2829705Y-11409222D02*
X2820182Y-11399698D01*
X2820182Y-11399698D02*
X2829705Y-11390174D01*
X2829705Y-11390174D02*
X2829705Y-11409222D01*
D12*
X1077500Y-11782500D02*
X1197500Y-11902500D01*
X1197500Y-11782500D02*
X1077500Y-11902500D01*
D11*
X1563039Y-11933984D02*
X1448753Y-11933984D01*
X1505896Y-11933984D02*
X1505896Y-11733984D01*
X1505896Y-11733984D02*
X1486848Y-11762555D01*
X1486848Y-11762555D02*
X1467801Y-11781603D01*
X1467801Y-11781603D02*
X1448753Y-11791127D01*
X1648753Y-11914936D02*
X1658277Y-11924460D01*
X1658277Y-11924460D02*
X1648753Y-11933984D01*
X1648753Y-11933984D02*
X1639229Y-11924460D01*
X1639229Y-11924460D02*
X1648753Y-11914936D01*
X1648753Y-11914936D02*
X1648753Y-11933984D01*
X1734467Y-11753031D02*
X1743991Y-11743508D01*
X1743991Y-11743508D02*
X1763039Y-11733984D01*
X1763039Y-11733984D02*
X1810658Y-11733984D01*
X1810658Y-11733984D02*
X1829705Y-11743508D01*
X1829705Y-11743508D02*
X1839229Y-11753031D01*
X1839229Y-11753031D02*
X1848753Y-11772079D01*
X1848753Y-11772079D02*
X1848753Y-11791127D01*
X1848753Y-11791127D02*
X1839229Y-11819698D01*
X1839229Y-11819698D02*
X1724943Y-11933984D01*
X1724943Y-11933984D02*
X1848753Y-11933984D01*
X1972562Y-11733984D02*
X1991610Y-11733984D01*
X1991610Y-11733984D02*
X2010658Y-11743508D01*
X2010658Y-11743508D02*
X2020182Y-11753031D01*
X2020182Y-11753031D02*
X2029705Y-11772079D01*
X2029705Y-11772079D02*
X2039229Y-11810174D01*
X2039229Y-11810174D02*
X2039229Y-11857793D01*
X2039229Y-11857793D02*
X2029705Y-11895888D01*
X2029705Y-11895888D02*
X2020182Y-11914936D01*
X2020182Y-11914936D02*
X2010658Y-11924460D01*
X2010658Y-11924460D02*
X1991610Y-11933984D01*
X1991610Y-11933984D02*
X1972562Y-11933984D01*
X1972562Y-11933984D02*
X1953515Y-11924460D01*
X1953515Y-11924460D02*
X1943991Y-11914936D01*
X1943991Y-11914936D02*
X1934467Y-11895888D01*
X1934467Y-11895888D02*
X1924943Y-11857793D01*
X1924943Y-11857793D02*
X1924943Y-11810174D01*
X1924943Y-11810174D02*
X1934467Y-11772079D01*
X1934467Y-11772079D02*
X1943991Y-11753031D01*
X1943991Y-11753031D02*
X1953515Y-11743508D01*
X1953515Y-11743508D02*
X1972562Y-11733984D01*
X2163039Y-11733984D02*
X2182086Y-11733984D01*
X2182086Y-11733984D02*
X2201134Y-11743508D01*
X2201134Y-11743508D02*
X2210658Y-11753031D01*
X2210658Y-11753031D02*
X2220182Y-11772079D01*
X2220182Y-11772079D02*
X2229705Y-11810174D01*
X2229705Y-11810174D02*
X2229705Y-11857793D01*
X2229705Y-11857793D02*
X2220182Y-11895888D01*
X2220182Y-11895888D02*
X2210658Y-11914936D01*
X2210658Y-11914936D02*
X2201134Y-11924460D01*
X2201134Y-11924460D02*
X2182086Y-11933984D01*
X2182086Y-11933984D02*
X2163039Y-11933984D01*
X2163039Y-11933984D02*
X2143991Y-11924460D01*
X2143991Y-11924460D02*
X2134467Y-11914936D01*
X2134467Y-11914936D02*
X2124944Y-11895888D01*
X2124944Y-11895888D02*
X2115420Y-11857793D01*
X2115420Y-11857793D02*
X2115420Y-11810174D01*
X2115420Y-11810174D02*
X2124944Y-11772079D01*
X2124944Y-11772079D02*
X2134467Y-11753031D01*
X2134467Y-11753031D02*
X2143991Y-11743508D01*
X2143991Y-11743508D02*
X2163039Y-11733984D01*
X2315420Y-11933984D02*
X2315420Y-11800650D01*
X2315420Y-11819698D02*
X2324944Y-11810174D01*
X2324944Y-11810174D02*
X2343991Y-11800650D01*
X2343991Y-11800650D02*
X2372563Y-11800650D01*
X2372563Y-11800650D02*
X2391610Y-11810174D01*
X2391610Y-11810174D02*
X2401134Y-11829222D01*
X2401134Y-11829222D02*
X2401134Y-11933984D01*
X2401134Y-11829222D02*
X2410658Y-11810174D01*
X2410658Y-11810174D02*
X2429705Y-11800650D01*
X2429705Y-11800650D02*
X2458277Y-11800650D01*
X2458277Y-11800650D02*
X2477325Y-11810174D01*
X2477325Y-11810174D02*
X2486848Y-11829222D01*
X2486848Y-11829222D02*
X2486848Y-11933984D01*
X2582086Y-11933984D02*
X2582086Y-11800650D01*
X2582086Y-11819698D02*
X2591610Y-11810174D01*
X2591610Y-11810174D02*
X2610658Y-11800650D01*
X2610658Y-11800650D02*
X2639229Y-11800650D01*
X2639229Y-11800650D02*
X2658277Y-11810174D01*
X2658277Y-11810174D02*
X2667801Y-11829222D01*
X2667801Y-11829222D02*
X2667801Y-11933984D01*
X2667801Y-11829222D02*
X2677325Y-11810174D01*
X2677325Y-11810174D02*
X2696372Y-11800650D01*
X2696372Y-11800650D02*
X2724944Y-11800650D01*
X2724944Y-11800650D02*
X2743991Y-11810174D01*
X2743991Y-11810174D02*
X2753515Y-11829222D01*
X2753515Y-11829222D02*
X2753515Y-11933984D01*
X3143991Y-11724460D02*
X2972563Y-11981603D01*
X3401134Y-11733984D02*
X3420182Y-11733984D01*
X3420182Y-11733984D02*
X3439229Y-11743508D01*
X3439229Y-11743508D02*
X3448753Y-11753031D01*
X3448753Y-11753031D02*
X3458277Y-11772079D01*
X3458277Y-11772079D02*
X3467801Y-11810174D01*
X3467801Y-11810174D02*
X3467801Y-11857793D01*
X3467801Y-11857793D02*
X3458277Y-11895888D01*
X3458277Y-11895888D02*
X3448753Y-11914936D01*
X3448753Y-11914936D02*
X3439229Y-11924460D01*
X3439229Y-11924460D02*
X3420182Y-11933984D01*
X3420182Y-11933984D02*
X3401134Y-11933984D01*
X3401134Y-11933984D02*
X3382086Y-11924460D01*
X3382086Y-11924460D02*
X3372563Y-11914936D01*
X3372563Y-11914936D02*
X3363039Y-11895888D01*
X3363039Y-11895888D02*
X3353515Y-11857793D01*
X3353515Y-11857793D02*
X3353515Y-11810174D01*
X3353515Y-11810174D02*
X3363039Y-11772079D01*
X3363039Y-11772079D02*
X3372563Y-11753031D01*
X3372563Y-11753031D02*
X3382086Y-11743508D01*
X3382086Y-11743508D02*
X3401134Y-11733984D01*
X3553515Y-11914936D02*
X3563039Y-11924460D01*
X3563039Y-11924460D02*
X3553515Y-11933984D01*
X3553515Y-11933984D02*
X3543991Y-11924460D01*
X3543991Y-11924460D02*
X3553515Y-11914936D01*
X3553515Y-11914936D02*
X3553515Y-11933984D01*
X3686848Y-11733984D02*
X3705896Y-11733984D01*
X3705896Y-11733984D02*
X3724944Y-11743508D01*
X3724944Y-11743508D02*
X3734467Y-11753031D01*
X3734467Y-11753031D02*
X3743991Y-11772079D01*
X3743991Y-11772079D02*
X3753515Y-11810174D01*
X3753515Y-11810174D02*
X3753515Y-11857793D01*
X3753515Y-11857793D02*
X3743991Y-11895888D01*
X3743991Y-11895888D02*
X3734467Y-11914936D01*
X3734467Y-11914936D02*
X3724944Y-11924460D01*
X3724944Y-11924460D02*
X3705896Y-11933984D01*
X3705896Y-11933984D02*
X3686848Y-11933984D01*
X3686848Y-11933984D02*
X3667801Y-11924460D01*
X3667801Y-11924460D02*
X3658277Y-11914936D01*
X3658277Y-11914936D02*
X3648753Y-11895888D01*
X3648753Y-11895888D02*
X3639229Y-11857793D01*
X3639229Y-11857793D02*
X3639229Y-11810174D01*
X3639229Y-11810174D02*
X3648753Y-11772079D01*
X3648753Y-11772079D02*
X3658277Y-11753031D01*
X3658277Y-11753031D02*
X3667801Y-11743508D01*
X3667801Y-11743508D02*
X3686848Y-11733984D01*
X3924944Y-11800650D02*
X3924944Y-11933984D01*
X3877325Y-11724460D02*
X3829706Y-11867317D01*
X3829706Y-11867317D02*
X3953515Y-11867317D01*
X4010658Y-11733984D02*
X4143991Y-11733984D01*
X4143991Y-11733984D02*
X4058277Y-11933984D01*
X4210658Y-11753031D02*
X4220182Y-11743508D01*
X4220182Y-11743508D02*
X4239229Y-11733984D01*
X4239229Y-11733984D02*
X4286849Y-11733984D01*
X4286849Y-11733984D02*
X4305896Y-11743508D01*
X4305896Y-11743508D02*
X4315420Y-11753031D01*
X4315420Y-11753031D02*
X4324944Y-11772079D01*
X4324944Y-11772079D02*
X4324944Y-11791127D01*
X4324944Y-11791127D02*
X4315420Y-11819698D01*
X4315420Y-11819698D02*
X4201134Y-11933984D01*
X4201134Y-11933984D02*
X4324944Y-11933984D01*
X4401134Y-11733984D02*
X4401134Y-11772079D01*
X4477325Y-11733984D02*
X4477325Y-11772079D01*
X4772563Y-12010174D02*
X4763039Y-12000650D01*
X4763039Y-12000650D02*
X4743991Y-11972079D01*
X4743991Y-11972079D02*
X4734468Y-11953031D01*
X4734468Y-11953031D02*
X4724944Y-11924460D01*
X4724944Y-11924460D02*
X4715420Y-11876841D01*
X4715420Y-11876841D02*
X4715420Y-11838746D01*
X4715420Y-11838746D02*
X4724944Y-11791127D01*
X4724944Y-11791127D02*
X4734468Y-11762555D01*
X4734468Y-11762555D02*
X4743991Y-11743508D01*
X4743991Y-11743508D02*
X4763039Y-11714936D01*
X4763039Y-11714936D02*
X4772563Y-11705412D01*
X4839230Y-11753031D02*
X4848753Y-11743508D01*
X4848753Y-11743508D02*
X4867801Y-11733984D01*
X4867801Y-11733984D02*
X4915420Y-11733984D01*
X4915420Y-11733984D02*
X4934468Y-11743508D01*
X4934468Y-11743508D02*
X4943991Y-11753031D01*
X4943991Y-11753031D02*
X4953515Y-11772079D01*
X4953515Y-11772079D02*
X4953515Y-11791127D01*
X4953515Y-11791127D02*
X4943991Y-11819698D01*
X4943991Y-11819698D02*
X4829706Y-11933984D01*
X4829706Y-11933984D02*
X4953515Y-11933984D01*
X5191611Y-11933984D02*
X5191611Y-11733984D01*
X5277325Y-11933984D02*
X5277325Y-11829222D01*
X5277325Y-11829222D02*
X5267801Y-11810174D01*
X5267801Y-11810174D02*
X5248753Y-11800650D01*
X5248753Y-11800650D02*
X5220182Y-11800650D01*
X5220182Y-11800650D02*
X5201134Y-11810174D01*
X5201134Y-11810174D02*
X5191611Y-11819698D01*
X5401134Y-11933984D02*
X5382087Y-11924460D01*
X5382087Y-11924460D02*
X5372563Y-11914936D01*
X5372563Y-11914936D02*
X5363039Y-11895888D01*
X5363039Y-11895888D02*
X5363039Y-11838746D01*
X5363039Y-11838746D02*
X5372563Y-11819698D01*
X5372563Y-11819698D02*
X5382087Y-11810174D01*
X5382087Y-11810174D02*
X5401134Y-11800650D01*
X5401134Y-11800650D02*
X5429706Y-11800650D01*
X5429706Y-11800650D02*
X5448753Y-11810174D01*
X5448753Y-11810174D02*
X5458277Y-11819698D01*
X5458277Y-11819698D02*
X5467801Y-11838746D01*
X5467801Y-11838746D02*
X5467801Y-11895888D01*
X5467801Y-11895888D02*
X5458277Y-11914936D01*
X5458277Y-11914936D02*
X5448753Y-11924460D01*
X5448753Y-11924460D02*
X5429706Y-11933984D01*
X5429706Y-11933984D02*
X5401134Y-11933984D01*
X5582087Y-11933984D02*
X5563039Y-11924460D01*
X5563039Y-11924460D02*
X5553515Y-11905412D01*
X5553515Y-11905412D02*
X5553515Y-11733984D01*
X5734468Y-11924460D02*
X5715420Y-11933984D01*
X5715420Y-11933984D02*
X5677325Y-11933984D01*
X5677325Y-11933984D02*
X5658277Y-11924460D01*
X5658277Y-11924460D02*
X5648753Y-11905412D01*
X5648753Y-11905412D02*
X5648753Y-11829222D01*
X5648753Y-11829222D02*
X5658277Y-11810174D01*
X5658277Y-11810174D02*
X5677325Y-11800650D01*
X5677325Y-11800650D02*
X5715420Y-11800650D01*
X5715420Y-11800650D02*
X5734468Y-11810174D01*
X5734468Y-11810174D02*
X5743991Y-11829222D01*
X5743991Y-11829222D02*
X5743991Y-11848269D01*
X5743991Y-11848269D02*
X5648753Y-11867317D01*
X5820182Y-11924460D02*
X5839230Y-11933984D01*
X5839230Y-11933984D02*
X5877325Y-11933984D01*
X5877325Y-11933984D02*
X5896372Y-11924460D01*
X5896372Y-11924460D02*
X5905896Y-11905412D01*
X5905896Y-11905412D02*
X5905896Y-11895888D01*
X5905896Y-11895888D02*
X5896372Y-11876841D01*
X5896372Y-11876841D02*
X5877325Y-11867317D01*
X5877325Y-11867317D02*
X5848753Y-11867317D01*
X5848753Y-11867317D02*
X5829706Y-11857793D01*
X5829706Y-11857793D02*
X5820182Y-11838746D01*
X5820182Y-11838746D02*
X5820182Y-11829222D01*
X5820182Y-11829222D02*
X5829706Y-11810174D01*
X5829706Y-11810174D02*
X5848753Y-11800650D01*
X5848753Y-11800650D02*
X5877325Y-11800650D01*
X5877325Y-11800650D02*
X5896372Y-11810174D01*
X5972563Y-12010174D02*
X5982087Y-12000650D01*
X5982087Y-12000650D02*
X6001134Y-11972079D01*
X6001134Y-11972079D02*
X6010658Y-11953031D01*
X6010658Y-11953031D02*
X6020182Y-11924460D01*
X6020182Y-11924460D02*
X6029706Y-11876841D01*
X6029706Y-11876841D02*
X6029706Y-11838746D01*
X6029706Y-11838746D02*
X6020182Y-11791127D01*
X6020182Y-11791127D02*
X6010658Y-11762555D01*
X6010658Y-11762555D02*
X6001134Y-11743508D01*
X6001134Y-11743508D02*
X5982087Y-11714936D01*
X5982087Y-11714936D02*
X5972563Y-11705412D01*
X6334468Y-12010174D02*
X6324944Y-12000650D01*
X6324944Y-12000650D02*
X6305896Y-11972079D01*
X6305896Y-11972079D02*
X6296372Y-11953031D01*
X6296372Y-11953031D02*
X6286849Y-11924460D01*
X6286849Y-11924460D02*
X6277325Y-11876841D01*
X6277325Y-11876841D02*
X6277325Y-11838746D01*
X6277325Y-11838746D02*
X6286849Y-11791127D01*
X6286849Y-11791127D02*
X6296372Y-11762555D01*
X6296372Y-11762555D02*
X6305896Y-11743508D01*
X6305896Y-11743508D02*
X6324944Y-11714936D01*
X6324944Y-11714936D02*
X6334468Y-11705412D01*
X6410658Y-11800650D02*
X6410658Y-11933984D01*
X6410658Y-11819698D02*
X6420182Y-11810174D01*
X6420182Y-11810174D02*
X6439230Y-11800650D01*
X6439230Y-11800650D02*
X6467801Y-11800650D01*
X6467801Y-11800650D02*
X6486849Y-11810174D01*
X6486849Y-11810174D02*
X6496372Y-11829222D01*
X6496372Y-11829222D02*
X6496372Y-11933984D01*
X6620182Y-11933984D02*
X6601134Y-11924460D01*
X6601134Y-11924460D02*
X6591611Y-11914936D01*
X6591611Y-11914936D02*
X6582087Y-11895888D01*
X6582087Y-11895888D02*
X6582087Y-11838746D01*
X6582087Y-11838746D02*
X6591611Y-11819698D01*
X6591611Y-11819698D02*
X6601134Y-11810174D01*
X6601134Y-11810174D02*
X6620182Y-11800650D01*
X6620182Y-11800650D02*
X6648753Y-11800650D01*
X6648753Y-11800650D02*
X6667801Y-11810174D01*
X6667801Y-11810174D02*
X6677325Y-11819698D01*
X6677325Y-11819698D02*
X6686849Y-11838746D01*
X6686849Y-11838746D02*
X6686849Y-11895888D01*
X6686849Y-11895888D02*
X6677325Y-11914936D01*
X6677325Y-11914936D02*
X6667801Y-11924460D01*
X6667801Y-11924460D02*
X6648753Y-11933984D01*
X6648753Y-11933984D02*
X6620182Y-11933984D01*
X6743992Y-11800650D02*
X6820182Y-11800650D01*
X6772563Y-11733984D02*
X6772563Y-11905412D01*
X6772563Y-11905412D02*
X6782087Y-11924460D01*
X6782087Y-11924460D02*
X6801134Y-11933984D01*
X6801134Y-11933984D02*
X6820182Y-11933984D01*
X7039230Y-11800650D02*
X7039230Y-12000650D01*
X7039230Y-11810174D02*
X7058277Y-11800650D01*
X7058277Y-11800650D02*
X7096373Y-11800650D01*
X7096373Y-11800650D02*
X7115420Y-11810174D01*
X7115420Y-11810174D02*
X7124944Y-11819698D01*
X7124944Y-11819698D02*
X7134468Y-11838746D01*
X7134468Y-11838746D02*
X7134468Y-11895888D01*
X7134468Y-11895888D02*
X7124944Y-11914936D01*
X7124944Y-11914936D02*
X7115420Y-11924460D01*
X7115420Y-11924460D02*
X7096373Y-11933984D01*
X7096373Y-11933984D02*
X7058277Y-11933984D01*
X7058277Y-11933984D02*
X7039230Y-11924460D01*
X7248753Y-11933984D02*
X7229706Y-11924460D01*
X7229706Y-11924460D02*
X7220182Y-11905412D01*
X7220182Y-11905412D02*
X7220182Y-11733984D01*
X7410658Y-11933984D02*
X7410658Y-11829222D01*
X7410658Y-11829222D02*
X7401134Y-11810174D01*
X7401134Y-11810174D02*
X7382087Y-11800650D01*
X7382087Y-11800650D02*
X7343992Y-11800650D01*
X7343992Y-11800650D02*
X7324944Y-11810174D01*
X7410658Y-11924460D02*
X7391611Y-11933984D01*
X7391611Y-11933984D02*
X7343992Y-11933984D01*
X7343992Y-11933984D02*
X7324944Y-11924460D01*
X7324944Y-11924460D02*
X7315420Y-11905412D01*
X7315420Y-11905412D02*
X7315420Y-11886365D01*
X7315420Y-11886365D02*
X7324944Y-11867317D01*
X7324944Y-11867317D02*
X7343992Y-11857793D01*
X7343992Y-11857793D02*
X7391611Y-11857793D01*
X7391611Y-11857793D02*
X7410658Y-11848269D01*
X7477325Y-11800650D02*
X7553515Y-11800650D01*
X7505896Y-11733984D02*
X7505896Y-11905412D01*
X7505896Y-11905412D02*
X7515420Y-11924460D01*
X7515420Y-11924460D02*
X7534468Y-11933984D01*
X7534468Y-11933984D02*
X7553515Y-11933984D01*
X7696373Y-11924460D02*
X7677325Y-11933984D01*
X7677325Y-11933984D02*
X7639230Y-11933984D01*
X7639230Y-11933984D02*
X7620182Y-11924460D01*
X7620182Y-11924460D02*
X7610658Y-11905412D01*
X7610658Y-11905412D02*
X7610658Y-11829222D01*
X7610658Y-11829222D02*
X7620182Y-11810174D01*
X7620182Y-11810174D02*
X7639230Y-11800650D01*
X7639230Y-11800650D02*
X7677325Y-11800650D01*
X7677325Y-11800650D02*
X7696373Y-11810174D01*
X7696373Y-11810174D02*
X7705896Y-11829222D01*
X7705896Y-11829222D02*
X7705896Y-11848269D01*
X7705896Y-11848269D02*
X7610658Y-11867317D01*
X7877325Y-11933984D02*
X7877325Y-11733984D01*
X7877325Y-11924460D02*
X7858277Y-11933984D01*
X7858277Y-11933984D02*
X7820182Y-11933984D01*
X7820182Y-11933984D02*
X7801134Y-11924460D01*
X7801134Y-11924460D02*
X7791611Y-11914936D01*
X7791611Y-11914936D02*
X7782087Y-11895888D01*
X7782087Y-11895888D02*
X7782087Y-11838746D01*
X7782087Y-11838746D02*
X7791611Y-11819698D01*
X7791611Y-11819698D02*
X7801134Y-11810174D01*
X7801134Y-11810174D02*
X7820182Y-11800650D01*
X7820182Y-11800650D02*
X7858277Y-11800650D01*
X7858277Y-11800650D02*
X7877325Y-11810174D01*
X7953515Y-12010174D02*
X7963039Y-12000650D01*
X7963039Y-12000650D02*
X7982087Y-11972079D01*
X7982087Y-11972079D02*
X7991611Y-11953031D01*
X7991611Y-11953031D02*
X8001134Y-11924460D01*
X8001134Y-11924460D02*
X8010658Y-11876841D01*
X8010658Y-11876841D02*
X8010658Y-11838746D01*
X8010658Y-11838746D02*
X8001134Y-11791127D01*
X8001134Y-11791127D02*
X7991611Y-11762555D01*
X7991611Y-11762555D02*
X7982087Y-11743508D01*
X7982087Y-11743508D02*
X7963039Y-11714936D01*
X7963039Y-11714936D02*
X7953515Y-11705412D01*
M02*
