%TF.GenerationSoftware,KiCad,Pcbnew,8.0.3*%
%TF.CreationDate,2024-11-19T22:25:58+01:00*%
%TF.ProjectId,weerstation-power,77656572-7374-4617-9469-6f6e2d706f77,rev?*%
%TF.SameCoordinates,Original*%
%TF.FileFunction,Copper,L1,Top*%
%TF.FilePolarity,Positive*%
%FSLAX46Y46*%
G04 Gerber Fmt 4.6, Leading zero omitted, Abs format (unit mm)*
G04 Created by KiCad (PCBNEW 8.0.3) date 2024-11-19 22:25:58*
%MOMM*%
%LPD*%
G01*
G04 APERTURE LIST*
G04 Aperture macros list*
%AMRoundRect*
0 Rectangle with rounded corners*
0 $1 Rounding radius*
0 $2 $3 $4 $5 $6 $7 $8 $9 X,Y pos of 4 corners*
0 Add a 4 corners polygon primitive as box body*
4,1,4,$2,$3,$4,$5,$6,$7,$8,$9,$2,$3,0*
0 Add four circle primitives for the rounded corners*
1,1,$1+$1,$2,$3*
1,1,$1+$1,$4,$5*
1,1,$1+$1,$6,$7*
1,1,$1+$1,$8,$9*
0 Add four rect primitives between the rounded corners*
20,1,$1+$1,$2,$3,$4,$5,0*
20,1,$1+$1,$4,$5,$6,$7,0*
20,1,$1+$1,$6,$7,$8,$9,0*
20,1,$1+$1,$8,$9,$2,$3,0*%
G04 Aperture macros list end*
%TA.AperFunction,ComponentPad*%
%ADD10C,8.600000*%
%TD*%
%TA.AperFunction,ComponentPad*%
%ADD11R,3.000000X3.000000*%
%TD*%
%TA.AperFunction,ComponentPad*%
%ADD12C,3.000000*%
%TD*%
%TA.AperFunction,ComponentPad*%
%ADD13RoundRect,0.250000X0.725000X-0.600000X0.725000X0.600000X-0.725000X0.600000X-0.725000X-0.600000X0*%
%TD*%
%TA.AperFunction,ComponentPad*%
%ADD14O,1.950000X1.700000*%
%TD*%
%TA.AperFunction,ComponentPad*%
%ADD15R,3.200000X3.200000*%
%TD*%
%TA.AperFunction,ComponentPad*%
%ADD16O,3.200000X3.200000*%
%TD*%
%TA.AperFunction,ComponentPad*%
%ADD17RoundRect,0.307018X-0.567982X0.592982X-0.567982X-0.592982X0.567982X-0.592982X0.567982X0.592982X0*%
%TD*%
%TA.AperFunction,ComponentPad*%
%ADD18RoundRect,0.280702X-0.594298X0.519298X-0.594298X-0.519298X0.594298X-0.519298X0.594298X0.519298X0*%
%TD*%
%TA.AperFunction,ComponentPad*%
%ADD19RoundRect,0.307018X0.592982X0.567982X-0.592982X0.567982X-0.592982X-0.567982X0.592982X-0.567982X0*%
%TD*%
%TA.AperFunction,ComponentPad*%
%ADD20RoundRect,0.280702X0.519298X0.594298X-0.519298X0.594298X-0.519298X-0.594298X0.519298X-0.594298X0*%
%TD*%
%TA.AperFunction,ComponentPad*%
%ADD21RoundRect,0.307018X0.567982X-0.592982X0.567982X0.592982X-0.567982X0.592982X-0.567982X-0.592982X0*%
%TD*%
%TA.AperFunction,ComponentPad*%
%ADD22RoundRect,0.280702X0.594298X-0.519298X0.594298X0.519298X-0.594298X0.519298X-0.594298X-0.519298X0*%
%TD*%
%TA.AperFunction,ViaPad*%
%ADD23C,0.800000*%
%TD*%
%TA.AperFunction,ViaPad*%
%ADD24C,1.500000*%
%TD*%
%TA.AperFunction,ViaPad*%
%ADD25C,1.400000*%
%TD*%
%TA.AperFunction,ViaPad*%
%ADD26C,2.000000*%
%TD*%
%TA.AperFunction,ViaPad*%
%ADD27C,1.000000*%
%TD*%
%TA.AperFunction,ViaPad*%
%ADD28C,1.600000*%
%TD*%
%TA.AperFunction,ViaPad*%
%ADD29C,3.000000*%
%TD*%
%TA.AperFunction,Conductor*%
%ADD30C,0.250000*%
%TD*%
%TA.AperFunction,Conductor*%
%ADD31C,2.000000*%
%TD*%
%TA.AperFunction,Conductor*%
%ADD32C,4.000000*%
%TD*%
%TA.AperFunction,Conductor*%
%ADD33C,5.000000*%
%TD*%
G04 APERTURE END LIST*
D10*
%TO.P,H1,1,1*%
%TO.N,GND*%
X20000000Y-20000000D03*
%TD*%
D11*
%TO.P,J12,1,Pin_1*%
%TO.N,+5VL*%
X39303500Y-100432500D03*
D12*
%TO.P,J12,2,Pin_2*%
%TO.N,GND*%
X34303500Y-100432500D03*
%TD*%
D13*
%TO.P,J1,1,Pin_1*%
%TO.N,+12L*%
X18000000Y-40750000D03*
D14*
%TO.P,J1,2,Pin_2*%
%TO.N,+5V*%
X18000000Y-38250000D03*
%TO.P,J1,3,Pin_3*%
%TO.N,+3.3V*%
X18000000Y-35750000D03*
%TO.P,J1,4,Pin_4*%
%TO.N,GND*%
X18000000Y-33250000D03*
%TD*%
D15*
%TO.P,D2,1,K*%
%TO.N,VDD*%
X67630000Y-38100000D03*
D16*
%TO.P,D2,2,A*%
%TO.N,+BATT*%
X87630000Y-38100000D03*
%TD*%
D11*
%TO.P,J10,1,Pin_1*%
%TO.N,+5V*%
X60432500Y-100432500D03*
D12*
%TO.P,J10,2,Pin_2*%
%TO.N,GND*%
X55432500Y-100432500D03*
%TD*%
D11*
%TO.P,J5,1,Pin_1*%
%TO.N,VDC*%
X104140000Y-43561000D03*
D12*
%TO.P,J5,2,Pin_2*%
%TO.N,GND*%
X104140000Y-38561000D03*
%TD*%
D10*
%TO.P,H3,1,1*%
%TO.N,GND*%
X100000000Y-100000000D03*
%TD*%
D13*
%TO.P,J2,1,Pin_1*%
%TO.N,+12L*%
X18000000Y-69500000D03*
D14*
%TO.P,J2,2,Pin_2*%
%TO.N,+5V*%
X18000000Y-67000000D03*
%TO.P,J2,3,Pin_3*%
%TO.N,+3.3V*%
X18000000Y-64500000D03*
%TO.P,J2,4,Pin_4*%
%TO.N,GND*%
X18000000Y-62000000D03*
%TD*%
D11*
%TO.P,J7,1,Pin_1*%
%TO.N,VDD*%
X104140000Y-64643000D03*
D12*
%TO.P,J7,2,Pin_2*%
%TO.N,VBUS*%
X104140000Y-59643000D03*
%TD*%
D10*
%TO.P,H2,1,1*%
%TO.N,GND*%
X50000000Y-20000000D03*
%TD*%
D11*
%TO.P,J9,1,Pin_1*%
%TO.N,+5VP*%
X104140000Y-85744500D03*
D12*
%TO.P,J9,2,Pin_2*%
%TO.N,GND*%
X104140000Y-80744500D03*
%TD*%
D11*
%TO.P,J6,1,Pin_1*%
%TO.N,VDD*%
X104140000Y-54102000D03*
D12*
%TO.P,J6,2,Pin_2*%
%TO.N,GND*%
X104140000Y-49102000D03*
%TD*%
D15*
%TO.P,D4,1,K*%
%TO.N,Net-(D4-K)*%
X67216000Y-74676000D03*
D16*
%TO.P,D4,2,A*%
%TO.N,+5VP*%
X87216000Y-74676000D03*
%TD*%
D10*
%TO.P,H4,1,1*%
%TO.N,GND*%
X20000000Y-100000000D03*
%TD*%
D11*
%TO.P,J8,1,Pin_1*%
%TO.N,VBUS*%
X104140000Y-75184000D03*
D12*
%TO.P,J8,2,Pin_2*%
%TO.N,GND*%
X104140000Y-70184000D03*
%TD*%
D11*
%TO.P,J11,1,Pin_1*%
%TO.N,+3.3V*%
X49844500Y-100432500D03*
D12*
%TO.P,J11,2,Pin_2*%
%TO.N,GND*%
X44844500Y-100432500D03*
%TD*%
D15*
%TO.P,D1,1,K*%
%TO.N,+BATT*%
X67376000Y-22606000D03*
D16*
%TO.P,D1,2,A*%
%TO.N,+VDC*%
X87376000Y-22606000D03*
%TD*%
D11*
%TO.P,J4,1,Pin_1*%
%TO.N,+BATT*%
X104140000Y-33020000D03*
D12*
%TO.P,J4,2,Pin_2*%
%TO.N,GND*%
X104140000Y-28020000D03*
%TD*%
D11*
%TO.P,J3,1,Pin_1*%
%TO.N,+VDC*%
X104140000Y-22479000D03*
D12*
%TO.P,J3,2,Pin_2*%
%TO.N,GND*%
X104140000Y-17479000D03*
%TD*%
D15*
%TO.P,D3,1,K*%
%TO.N,VDD*%
X67470000Y-55880000D03*
D16*
%TO.P,D3,2,A*%
%TO.N,VDC*%
X87470000Y-55880000D03*
%TD*%
D17*
%TO.P,F3,1*%
%TO.N,Net-(D4-K)*%
X60198000Y-76527000D03*
D18*
%TO.P,F3,2*%
%TO.N,+5VL*%
X60198000Y-79429000D03*
%TD*%
D17*
%TO.P,F1,1*%
%TO.N,+12L*%
X59436000Y-46047000D03*
D18*
%TO.P,F1,2*%
%TO.N,VBUS*%
X59436000Y-48949000D03*
%TD*%
D19*
%TO.P,F5,1*%
%TO.N,Net-(U2-VO)*%
X37519000Y-77216000D03*
D20*
%TO.P,F5,2*%
%TO.N,+5V*%
X34617000Y-77216000D03*
%TD*%
D19*
%TO.P,F4,1*%
%TO.N,Net-(U1-VO)*%
X35995000Y-35560000D03*
D20*
%TO.P,F4,2*%
%TO.N,+3.3V*%
X33093000Y-35560000D03*
%TD*%
D21*
%TO.P,F2,1*%
%TO.N,VBUS*%
X53848000Y-48695000D03*
D22*
%TO.P,F2,2*%
%TO.N,+12L*%
X53848000Y-45793000D03*
%TD*%
D23*
%TO.N,GND*%
X80975200Y-14782800D03*
X14986000Y-28295600D03*
X17881600Y-46786800D03*
X55930800Y-92506800D03*
X110591600Y-49377600D03*
X97028000Y-54914800D03*
X77165200Y-47396400D03*
X35052000Y-19100800D03*
X25501600Y-79400400D03*
X84226400Y-46990000D03*
X20320000Y-53086000D03*
X27178000Y-57658000D03*
X45720000Y-73152000D03*
X56642000Y-30988000D03*
X20320000Y-54356000D03*
X49022000Y-59690000D03*
X40132000Y-30988000D03*
X20320000Y-55880000D03*
X27178000Y-53086000D03*
X41656000Y-73152000D03*
X25146000Y-53086000D03*
X18288000Y-57658000D03*
X18288000Y-54356000D03*
X25146000Y-57658000D03*
X18288000Y-53086000D03*
X25146000Y-54610000D03*
X18288000Y-55880000D03*
X27178000Y-56134000D03*
X47498000Y-73152000D03*
X25146000Y-56134000D03*
X47498000Y-59690000D03*
X43688000Y-73152000D03*
D24*
X62992000Y-51562000D03*
D23*
X43688000Y-59690000D03*
X49022000Y-73152000D03*
X45466000Y-30988000D03*
X20320000Y-57658000D03*
X45720000Y-59690000D03*
X27178000Y-29718000D03*
X40132000Y-41910000D03*
D24*
X62992000Y-67564000D03*
D23*
X27178000Y-54610000D03*
X41656000Y-59690000D03*
D25*
%TO.N,+12L*%
X56388000Y-66954400D03*
X58318400Y-66954400D03*
X46990000Y-48768000D03*
D26*
X48895000Y-46990000D03*
D25*
X51054000Y-44704000D03*
X46990000Y-44704000D03*
X51054000Y-48768000D03*
D23*
%TO.N,+5V*%
X34544000Y-80264000D03*
X31496000Y-77216000D03*
D27*
X34544000Y-83566000D03*
X30226000Y-74422000D03*
D28*
X34544000Y-81788000D03*
D24*
%TO.N,+5VL*%
X64389000Y-84455000D03*
X67183000Y-81915000D03*
D29*
X67310000Y-85217000D03*
D24*
X64389000Y-81788000D03*
%TD*%
D30*
%TO.N,+12L*%
X18000000Y-40750000D02*
X18034000Y-40784000D01*
D31*
%TO.N,+3.3V*%
X49784000Y-100372000D02*
X49844500Y-100432500D01*
D30*
%TO.N,+5V*%
X60452000Y-100413000D02*
X60432500Y-100432500D01*
D32*
X53086000Y-81788000D02*
X32258000Y-81788000D01*
X60452000Y-100413000D02*
X60452000Y-89154000D01*
X30226000Y-79756000D02*
X30226000Y-74422000D01*
X32258000Y-81788000D02*
X30226000Y-79756000D01*
X60452000Y-89154000D02*
X53086000Y-81788000D01*
D33*
%TO.N,+BATT*%
X67455045Y-22606000D02*
X67376000Y-22606000D01*
D30*
%TO.N,VDD*%
X67630000Y-55720000D02*
X67470000Y-55880000D01*
%TD*%
%TA.AperFunction,Conductor*%
%TO.N,GND*%
G36*
X28702000Y-58420000D02*
G01*
X21336000Y-58420000D01*
X21336000Y-62738000D01*
X19257502Y-62738000D01*
X19279620Y-62707557D01*
X19376096Y-62518215D01*
X19382014Y-62500001D01*
X19382014Y-62500000D01*
X17624000Y-62500000D01*
X17556961Y-62480315D01*
X17511206Y-62427511D01*
X17500000Y-62376000D01*
X17500000Y-61937465D01*
X17525000Y-61937465D01*
X17525000Y-62062535D01*
X17557370Y-62183343D01*
X17619905Y-62291657D01*
X17708343Y-62380095D01*
X17816657Y-62442630D01*
X17937465Y-62475000D01*
X18062535Y-62475000D01*
X18183343Y-62442630D01*
X18291657Y-62380095D01*
X18380095Y-62291657D01*
X18442630Y-62183343D01*
X18475000Y-62062535D01*
X18475000Y-61937465D01*
X18442630Y-61816657D01*
X18380095Y-61708343D01*
X18291657Y-61619905D01*
X18183343Y-61557370D01*
X18062535Y-61525000D01*
X17937465Y-61525000D01*
X17816657Y-61557370D01*
X17708343Y-61619905D01*
X17619905Y-61708343D01*
X17557370Y-61816657D01*
X17525000Y-61937465D01*
X17500000Y-61937465D01*
X17500000Y-61500000D01*
X18500000Y-61500000D01*
X19382014Y-61500000D01*
X19382014Y-61499998D01*
X19376096Y-61481784D01*
X19279620Y-61292442D01*
X19154727Y-61120540D01*
X19154723Y-61120535D01*
X19004464Y-60970276D01*
X19004459Y-60970272D01*
X18832557Y-60845379D01*
X18643222Y-60748907D01*
X18500000Y-60702371D01*
X18500000Y-61500000D01*
X17500000Y-61500000D01*
X17500000Y-60702371D01*
X17499999Y-60702371D01*
X17356777Y-60748907D01*
X17167442Y-60845379D01*
X17018000Y-60953954D01*
X17018000Y-52324000D01*
X28702000Y-52324000D01*
X28702000Y-58420000D01*
G37*
%TD.AperFunction*%
%TD*%
%TA.AperFunction,Conductor*%
%TO.N,GND*%
G36*
X49784000Y-74930000D02*
G01*
X40640000Y-74930000D01*
X40640000Y-58674000D01*
X49784000Y-58674000D01*
X49784000Y-74930000D01*
G37*
%TD.AperFunction*%
%TD*%
%TA.AperFunction,Conductor*%
%TO.N,VDC*%
G36*
X108397749Y-41167685D02*
G01*
X108443504Y-41220489D01*
X108454668Y-41275246D01*
X108356720Y-45015625D01*
X108353682Y-45039844D01*
X108082663Y-46233065D01*
X108048619Y-46294079D01*
X107986992Y-46327002D01*
X107961743Y-46329600D01*
X102057199Y-46329600D01*
X88894905Y-59491893D01*
X88833582Y-59525378D01*
X88806350Y-59528209D01*
X82927126Y-59486749D01*
X82860227Y-59466592D01*
X82814845Y-59413467D01*
X82804000Y-59362752D01*
X82804000Y-52629362D01*
X82823685Y-52562323D01*
X82840319Y-52541681D01*
X84545681Y-50836319D01*
X84607004Y-50802834D01*
X84633362Y-50800000D01*
X89154000Y-50800000D01*
X91437176Y-48516824D01*
X91443003Y-48511361D01*
X99786888Y-41178856D01*
X99850240Y-41149388D01*
X99868742Y-41148000D01*
X108330710Y-41148000D01*
X108397749Y-41167685D01*
G37*
%TD.AperFunction*%
%TD*%
%TA.AperFunction,Conductor*%
%TO.N,+BATT*%
G36*
X77485677Y-17545685D02*
G01*
X77506319Y-17562319D01*
X77687681Y-17743681D01*
X77721166Y-17805004D01*
X77724000Y-17831362D01*
X77724000Y-23876000D01*
X84328000Y-30480000D01*
X103654286Y-30480000D01*
X103669827Y-30480978D01*
X103982670Y-30520499D01*
X103982679Y-30520499D01*
X103982682Y-30520500D01*
X103982684Y-30520500D01*
X104297316Y-30520500D01*
X104297318Y-30520500D01*
X104297321Y-30520499D01*
X104297329Y-30520499D01*
X104610173Y-30480978D01*
X104625714Y-30480000D01*
X108334000Y-30480000D01*
X108401039Y-30499685D01*
X108446794Y-30552489D01*
X108458000Y-30604000D01*
X108458000Y-38484000D01*
X108438315Y-38551039D01*
X108385511Y-38596794D01*
X108334000Y-38608000D01*
X106764845Y-38608000D01*
X106697806Y-38588315D01*
X106652051Y-38535511D01*
X106641090Y-38491786D01*
X106625689Y-38246995D01*
X106625688Y-38246988D01*
X106625688Y-38246985D01*
X106566731Y-37937921D01*
X106469503Y-37638685D01*
X106335537Y-37353993D01*
X106166947Y-37088337D01*
X106166945Y-37088334D01*
X105966393Y-36845909D01*
X105966391Y-36845907D01*
X105737031Y-36630523D01*
X105737021Y-36630515D01*
X105482495Y-36445591D01*
X105482488Y-36445586D01*
X105482484Y-36445584D01*
X105206766Y-36294006D01*
X105206763Y-36294004D01*
X105206758Y-36294002D01*
X105206757Y-36294001D01*
X104914228Y-36178181D01*
X104914225Y-36178180D01*
X104609476Y-36099934D01*
X104609463Y-36099932D01*
X104297329Y-36060500D01*
X104297318Y-36060500D01*
X103982682Y-36060500D01*
X103982670Y-36060500D01*
X103670536Y-36099932D01*
X103670523Y-36099934D01*
X103365774Y-36178180D01*
X103365771Y-36178181D01*
X103073242Y-36294001D01*
X103073241Y-36294002D01*
X102797516Y-36445584D01*
X102797504Y-36445591D01*
X102542978Y-36630515D01*
X102542968Y-36630523D01*
X102313608Y-36845907D01*
X102313606Y-36845909D01*
X102113054Y-37088334D01*
X102113051Y-37088338D01*
X101944464Y-37353990D01*
X101944461Y-37353996D01*
X101810499Y-37638678D01*
X101810497Y-37638683D01*
X101713270Y-37937916D01*
X101654311Y-38246988D01*
X101654310Y-38246995D01*
X101638910Y-38491786D01*
X101615055Y-38557457D01*
X101559483Y-38599806D01*
X101515155Y-38608000D01*
X95249999Y-38608000D01*
X94996000Y-38861999D01*
X94996000Y-41401438D01*
X94976315Y-41468477D01*
X94959681Y-41489119D01*
X93559119Y-42889681D01*
X93497796Y-42923166D01*
X93471438Y-42926000D01*
X82347362Y-42926000D01*
X82280323Y-42906315D01*
X82259681Y-42889681D01*
X77760319Y-38390319D01*
X77726834Y-38328996D01*
X77724000Y-38302638D01*
X77724000Y-33121600D01*
X73558400Y-28956000D01*
X66599362Y-28956000D01*
X66532323Y-28936315D01*
X66511681Y-28919681D01*
X64298319Y-26706319D01*
X64264834Y-26644996D01*
X64262000Y-26618638D01*
X64262000Y-17650000D01*
X64281685Y-17582961D01*
X64334489Y-17537206D01*
X64386000Y-17526000D01*
X77418638Y-17526000D01*
X77485677Y-17545685D01*
G37*
%TD.AperFunction*%
%TD*%
%TA.AperFunction,Conductor*%
%TO.N,+3.3V*%
G36*
X16005602Y-33547685D02*
G01*
X16051357Y-33600489D01*
X16058334Y-33619898D01*
X16079650Y-33699445D01*
X16118946Y-33846102D01*
X16211773Y-34070205D01*
X16211776Y-34070212D01*
X16333064Y-34280289D01*
X16333066Y-34280292D01*
X16333067Y-34280293D01*
X16480733Y-34472736D01*
X16480739Y-34472743D01*
X16652256Y-34644260D01*
X16652263Y-34644266D01*
X16785905Y-34746813D01*
X16827108Y-34803241D01*
X16831263Y-34872987D01*
X16810737Y-34918074D01*
X16720379Y-35042442D01*
X16623903Y-35231784D01*
X16617985Y-35249998D01*
X16617986Y-35250000D01*
X18376000Y-35250000D01*
X18443039Y-35269685D01*
X18488794Y-35322489D01*
X18500000Y-35374000D01*
X18500000Y-36126000D01*
X18480315Y-36193039D01*
X18427511Y-36238794D01*
X18376000Y-36250000D01*
X16617986Y-36250000D01*
X16617985Y-36250001D01*
X16623903Y-36268215D01*
X16720379Y-36457557D01*
X16810737Y-36581925D01*
X16834217Y-36647731D01*
X16818391Y-36715785D01*
X16785906Y-36753186D01*
X16652256Y-36855739D01*
X16480739Y-37027256D01*
X16480733Y-37027263D01*
X16333067Y-37219706D01*
X16211777Y-37429785D01*
X16211773Y-37429794D01*
X16118947Y-37653895D01*
X16056161Y-37888214D01*
X16024500Y-38128711D01*
X16024500Y-38230000D01*
X16004815Y-38297039D01*
X15952011Y-38342794D01*
X15900500Y-38354000D01*
X15494000Y-38354000D01*
X15494000Y-39012708D01*
X15474315Y-39079747D01*
X15473062Y-39081659D01*
X15387693Y-39209261D01*
X15387690Y-39209268D01*
X15310916Y-39397671D01*
X15310914Y-39397677D01*
X15291233Y-39464706D01*
X15271082Y-39545597D01*
X15251678Y-39736412D01*
X15250500Y-39748000D01*
X15250500Y-44076571D01*
X15269639Y-44271817D01*
X15278989Y-44319053D01*
X15296569Y-44393056D01*
X15296572Y-44393064D01*
X15370599Y-44582559D01*
X15370600Y-44582560D01*
X15474053Y-44742162D01*
X15493999Y-44809124D01*
X15494000Y-44809608D01*
X15494000Y-62992000D01*
X16242534Y-62992000D01*
X16309573Y-63011685D01*
X16340910Y-63040514D01*
X16480733Y-63222736D01*
X16480739Y-63222743D01*
X16652256Y-63394260D01*
X16652263Y-63394266D01*
X16785905Y-63496813D01*
X16827108Y-63553241D01*
X16831263Y-63622987D01*
X16810737Y-63668074D01*
X16720379Y-63792442D01*
X16623903Y-63981784D01*
X16617985Y-63999998D01*
X16617986Y-64000000D01*
X18376000Y-64000000D01*
X18443039Y-64019685D01*
X18488794Y-64072489D01*
X18500000Y-64124000D01*
X18500000Y-64876000D01*
X18480315Y-64943039D01*
X18427511Y-64988794D01*
X18376000Y-65000000D01*
X16617986Y-65000000D01*
X16617985Y-65000001D01*
X16623903Y-65018215D01*
X16720379Y-65207557D01*
X16810737Y-65331925D01*
X16834217Y-65397731D01*
X16818391Y-65465785D01*
X16785906Y-65503186D01*
X16652256Y-65605739D01*
X16480739Y-65777256D01*
X16480733Y-65777263D01*
X16333067Y-65969706D01*
X16211777Y-66179785D01*
X16211774Y-66179791D01*
X16196176Y-66217451D01*
X16152335Y-66271855D01*
X16086042Y-66293921D01*
X16081614Y-66294000D01*
X15494000Y-66294000D01*
X15494000Y-67273657D01*
X15474315Y-67340696D01*
X15457178Y-67361839D01*
X15344621Y-67473114D01*
X15344620Y-67473115D01*
X15228590Y-67640238D01*
X15148581Y-67827289D01*
X15127740Y-67893986D01*
X15106201Y-67974509D01*
X15106200Y-67974511D01*
X15082133Y-68176518D01*
X15082132Y-68176529D01*
X15067303Y-69036638D01*
X15060691Y-69420134D01*
X15048407Y-70132652D01*
X15048407Y-70132653D01*
X14998824Y-73008552D01*
X14998678Y-73028783D01*
X15019851Y-73231134D01*
X15019851Y-73231140D01*
X15031034Y-73284762D01*
X15031042Y-73284795D01*
X15057374Y-73384942D01*
X15138463Y-73571524D01*
X15138467Y-73571531D01*
X15188163Y-73642234D01*
X15255457Y-73737974D01*
X15301212Y-73790778D01*
X15351906Y-73840318D01*
X15420319Y-73907174D01*
X15420322Y-73907176D01*
X15420325Y-73907179D01*
X15438951Y-73919640D01*
X15483725Y-73973278D01*
X15494000Y-74022702D01*
X15494000Y-78994000D01*
X15494001Y-78994001D01*
X31241999Y-86868000D01*
X31242000Y-86868000D01*
X52207231Y-86868000D01*
X52274270Y-86887685D01*
X52292040Y-86901537D01*
X53300809Y-87847258D01*
X53336253Y-87907470D01*
X53340000Y-87937721D01*
X53340000Y-99027106D01*
X53320697Y-99093548D01*
X53236964Y-99225490D01*
X53236961Y-99225496D01*
X53102999Y-99510178D01*
X53102997Y-99510183D01*
X53005770Y-99809416D01*
X52946811Y-100118488D01*
X52946810Y-100118495D01*
X52927056Y-100432494D01*
X52927056Y-100432505D01*
X52946810Y-100746504D01*
X52946811Y-100746511D01*
X52946812Y-100746515D01*
X52996792Y-101008522D01*
X53005770Y-101055583D01*
X53102997Y-101354816D01*
X53102999Y-101354821D01*
X53236961Y-101639503D01*
X53236964Y-101639509D01*
X53320697Y-101771451D01*
X53340000Y-101837893D01*
X53340000Y-104778000D01*
X53320315Y-104845039D01*
X53267511Y-104890794D01*
X53216000Y-104902000D01*
X47549362Y-104902000D01*
X47482323Y-104882315D01*
X47461681Y-104865681D01*
X46772319Y-104176319D01*
X46738834Y-104114996D01*
X46736000Y-104088638D01*
X46736000Y-102113531D01*
X46755685Y-102046492D01*
X46764448Y-102034501D01*
X46809251Y-101980344D01*
X47844500Y-101980344D01*
X47850901Y-102039872D01*
X47850903Y-102039879D01*
X47901145Y-102174586D01*
X47901149Y-102174593D01*
X47987309Y-102289687D01*
X47987312Y-102289690D01*
X48102406Y-102375850D01*
X48102413Y-102375854D01*
X48237120Y-102426096D01*
X48237127Y-102426098D01*
X48296655Y-102432499D01*
X48296672Y-102432500D01*
X49344500Y-102432500D01*
X50344500Y-102432500D01*
X51392328Y-102432500D01*
X51392344Y-102432499D01*
X51451872Y-102426098D01*
X51451879Y-102426096D01*
X51586586Y-102375854D01*
X51586593Y-102375850D01*
X51701687Y-102289690D01*
X51701690Y-102289687D01*
X51787850Y-102174593D01*
X51787854Y-102174586D01*
X51838096Y-102039879D01*
X51838098Y-102039872D01*
X51844499Y-101980344D01*
X51844500Y-101980327D01*
X51844500Y-100932500D01*
X50344500Y-100932500D01*
X50344500Y-102432500D01*
X49344500Y-102432500D01*
X49344500Y-100932500D01*
X47844500Y-100932500D01*
X47844500Y-101980344D01*
X46809251Y-101980344D01*
X46871447Y-101905163D01*
X47040037Y-101639507D01*
X47174003Y-101354815D01*
X47271231Y-101055579D01*
X47330188Y-100746515D01*
X47330189Y-100746504D01*
X47349944Y-100432505D01*
X47349944Y-100432494D01*
X47345917Y-100368481D01*
X49194500Y-100368481D01*
X49194500Y-100496519D01*
X49219479Y-100622098D01*
X49268478Y-100740390D01*
X49339612Y-100846851D01*
X49430149Y-100937388D01*
X49536610Y-101008522D01*
X49654902Y-101057521D01*
X49780481Y-101082500D01*
X49908519Y-101082500D01*
X50034098Y-101057521D01*
X50152390Y-101008522D01*
X50258851Y-100937388D01*
X50349388Y-100846851D01*
X50420522Y-100740390D01*
X50469521Y-100622098D01*
X50494500Y-100496519D01*
X50494500Y-100368481D01*
X50469521Y-100242902D01*
X50420522Y-100124610D01*
X50349388Y-100018149D01*
X50263739Y-99932500D01*
X50344500Y-99932500D01*
X51844500Y-99932500D01*
X51844500Y-98884672D01*
X51844499Y-98884655D01*
X51838098Y-98825127D01*
X51838096Y-98825120D01*
X51787854Y-98690413D01*
X51787850Y-98690406D01*
X51701690Y-98575312D01*
X51701687Y-98575309D01*
X51586593Y-98489149D01*
X51586586Y-98489145D01*
X51451879Y-98438903D01*
X51451872Y-98438901D01*
X51392344Y-98432500D01*
X50344500Y-98432500D01*
X50344500Y-99932500D01*
X50263739Y-99932500D01*
X50258851Y-99927612D01*
X50152390Y-99856478D01*
X50034098Y-99807479D01*
X49908519Y-99782500D01*
X49780481Y-99782500D01*
X49654902Y-99807479D01*
X49536610Y-99856478D01*
X49430149Y-99927612D01*
X49339612Y-100018149D01*
X49268478Y-100124610D01*
X49219479Y-100242902D01*
X49194500Y-100368481D01*
X47345917Y-100368481D01*
X47330189Y-100118495D01*
X47330188Y-100118488D01*
X47330188Y-100118485D01*
X47271231Y-99809421D01*
X47174003Y-99510185D01*
X47040037Y-99225493D01*
X47004914Y-99170148D01*
X46871448Y-98959838D01*
X46871446Y-98959835D01*
X46809252Y-98884655D01*
X47844500Y-98884655D01*
X47844500Y-99932500D01*
X49344500Y-99932500D01*
X49344500Y-98432500D01*
X48296655Y-98432500D01*
X48237127Y-98438901D01*
X48237120Y-98438903D01*
X48102413Y-98489145D01*
X48102406Y-98489149D01*
X47987312Y-98575309D01*
X47987309Y-98575312D01*
X47901149Y-98690406D01*
X47901145Y-98690413D01*
X47850903Y-98825120D01*
X47850901Y-98825127D01*
X47844500Y-98884655D01*
X46809252Y-98884655D01*
X46764456Y-98830506D01*
X46736891Y-98766304D01*
X46736000Y-98751466D01*
X46736000Y-93218000D01*
X46228000Y-92710000D01*
X20625362Y-92710000D01*
X20558323Y-92690315D01*
X20537681Y-92673681D01*
X12536819Y-84672819D01*
X12503334Y-84611496D01*
X12500500Y-84585138D01*
X12500500Y-64437465D01*
X17525000Y-64437465D01*
X17525000Y-64562535D01*
X17557370Y-64683343D01*
X17619905Y-64791657D01*
X17708343Y-64880095D01*
X17816657Y-64942630D01*
X17937465Y-64975000D01*
X18062535Y-64975000D01*
X18183343Y-64942630D01*
X18291657Y-64880095D01*
X18380095Y-64791657D01*
X18442630Y-64683343D01*
X18475000Y-64562535D01*
X18475000Y-64437465D01*
X18442630Y-64316657D01*
X18380095Y-64208343D01*
X18291657Y-64119905D01*
X18183343Y-64057370D01*
X18062535Y-64025000D01*
X17937465Y-64025000D01*
X17816657Y-64057370D01*
X17708343Y-64119905D01*
X17619905Y-64208343D01*
X17557370Y-64316657D01*
X17525000Y-64437465D01*
X12500500Y-64437465D01*
X12500500Y-35687465D01*
X17525000Y-35687465D01*
X17525000Y-35812535D01*
X17557370Y-35933343D01*
X17619905Y-36041657D01*
X17708343Y-36130095D01*
X17816657Y-36192630D01*
X17937465Y-36225000D01*
X18062535Y-36225000D01*
X18183343Y-36192630D01*
X18291657Y-36130095D01*
X18380095Y-36041657D01*
X18442630Y-35933343D01*
X18475000Y-35812535D01*
X18475000Y-35687465D01*
X18442630Y-35566657D01*
X18380095Y-35458343D01*
X18291657Y-35369905D01*
X18183343Y-35307370D01*
X18062535Y-35275000D01*
X17937465Y-35275000D01*
X17816657Y-35307370D01*
X17708343Y-35369905D01*
X17619905Y-35458343D01*
X17557370Y-35566657D01*
X17525000Y-35687465D01*
X12500500Y-35687465D01*
X12500500Y-33652000D01*
X12520185Y-33584961D01*
X12572989Y-33539206D01*
X12624500Y-33528000D01*
X15938563Y-33528000D01*
X16005602Y-33547685D01*
G37*
%TD.AperFunction*%
%TD*%
%TA.AperFunction,Conductor*%
%TO.N,VDD*%
G36*
X74619039Y-33293685D02*
G01*
X74664794Y-33346489D01*
X74676000Y-33398000D01*
X74676000Y-57912000D01*
X77216000Y-60452000D01*
X98826688Y-60604400D01*
X98852582Y-59642994D01*
X101634556Y-59642994D01*
X101634556Y-59643005D01*
X101654310Y-59957004D01*
X101654311Y-59957011D01*
X101713270Y-60266083D01*
X101810497Y-60565316D01*
X101810499Y-60565321D01*
X101944461Y-60850003D01*
X101944464Y-60850009D01*
X102113051Y-61115661D01*
X102113054Y-61115665D01*
X102313606Y-61358090D01*
X102313608Y-61358092D01*
X102542968Y-61573476D01*
X102542978Y-61573484D01*
X102797504Y-61758408D01*
X102797509Y-61758410D01*
X102797516Y-61758416D01*
X103073234Y-61909994D01*
X103073239Y-61909996D01*
X103073241Y-61909997D01*
X103073242Y-61909998D01*
X103365771Y-62025818D01*
X103365774Y-62025819D01*
X103670523Y-62104065D01*
X103670527Y-62104066D01*
X103736010Y-62112338D01*
X103982670Y-62143499D01*
X103982679Y-62143499D01*
X103982682Y-62143500D01*
X103982684Y-62143500D01*
X104297316Y-62143500D01*
X104297318Y-62143500D01*
X104297321Y-62143499D01*
X104297329Y-62143499D01*
X104483593Y-62119968D01*
X104609473Y-62104066D01*
X104914225Y-62025819D01*
X104914228Y-62025818D01*
X105206757Y-61909998D01*
X105206758Y-61909997D01*
X105206756Y-61909997D01*
X105206766Y-61909994D01*
X105482484Y-61758416D01*
X105737030Y-61573478D01*
X105966390Y-61358094D01*
X106166947Y-61115663D01*
X106335537Y-60850007D01*
X106469503Y-60565315D01*
X106566731Y-60266079D01*
X106625688Y-59957015D01*
X106645444Y-59643000D01*
X106625688Y-59328985D01*
X106566731Y-59019921D01*
X106469503Y-58720685D01*
X106335537Y-58435993D01*
X106259358Y-58315954D01*
X106166948Y-58170338D01*
X106166945Y-58170334D01*
X105966393Y-57927909D01*
X105966391Y-57927907D01*
X105737031Y-57712523D01*
X105737021Y-57712515D01*
X105482495Y-57527591D01*
X105482488Y-57527586D01*
X105482484Y-57527584D01*
X105206766Y-57376006D01*
X105206763Y-57376004D01*
X105206758Y-57376002D01*
X105206757Y-57376001D01*
X104914228Y-57260181D01*
X104914225Y-57260180D01*
X104609476Y-57181934D01*
X104609463Y-57181932D01*
X104297329Y-57142500D01*
X104297318Y-57142500D01*
X103982682Y-57142500D01*
X103982670Y-57142500D01*
X103670536Y-57181932D01*
X103670523Y-57181934D01*
X103365774Y-57260180D01*
X103365771Y-57260181D01*
X103073242Y-57376001D01*
X103073241Y-57376002D01*
X102797516Y-57527584D01*
X102797504Y-57527591D01*
X102542978Y-57712515D01*
X102542968Y-57712523D01*
X102313608Y-57927907D01*
X102313606Y-57927909D01*
X102113054Y-58170334D01*
X102113051Y-58170338D01*
X101944464Y-58435990D01*
X101944461Y-58435996D01*
X101810499Y-58720678D01*
X101810497Y-58720683D01*
X101713270Y-59019916D01*
X101654311Y-59328988D01*
X101654310Y-59328995D01*
X101634556Y-59642994D01*
X98852582Y-59642994D01*
X99038021Y-52757853D01*
X99059503Y-52691371D01*
X99071226Y-52676695D01*
X99899248Y-51787600D01*
X99977952Y-51703091D01*
X100038046Y-51667447D01*
X100068694Y-51663600D01*
X108080000Y-51663600D01*
X108147039Y-51683285D01*
X108192794Y-51736089D01*
X108204000Y-51787600D01*
X108204000Y-67258638D01*
X108184315Y-67325677D01*
X108167681Y-67346319D01*
X108087919Y-67426081D01*
X108026596Y-67459566D01*
X108000238Y-67462400D01*
X94622512Y-67462400D01*
X94572461Y-67451850D01*
X91948000Y-66294000D01*
X65402000Y-66294000D01*
X65334961Y-66274315D01*
X65289206Y-66221511D01*
X65278000Y-66170000D01*
X65278000Y-33398000D01*
X65297685Y-33330961D01*
X65350489Y-33285206D01*
X65402000Y-33274000D01*
X74552000Y-33274000D01*
X74619039Y-33293685D01*
G37*
%TD.AperFunction*%
%TD*%
%TA.AperFunction,Conductor*%
%TO.N,+5VP*%
G36*
X94002061Y-69850597D02*
G01*
X94178941Y-69868018D01*
X94202769Y-69872757D01*
X94367001Y-69922576D01*
X94389453Y-69931877D01*
X94540798Y-70012772D01*
X94561010Y-70026277D01*
X94693666Y-70135145D01*
X94710854Y-70152333D01*
X94819722Y-70284989D01*
X94833227Y-70305201D01*
X94914121Y-70456543D01*
X94923424Y-70479001D01*
X94973240Y-70643224D01*
X94977982Y-70667065D01*
X94995403Y-70843938D01*
X94996000Y-70856092D01*
X94996000Y-76962000D01*
X95288892Y-77254892D01*
X95288897Y-77254898D01*
X101103901Y-83069902D01*
X101103906Y-83069906D01*
X101396800Y-83362800D01*
X107451907Y-83362800D01*
X107464061Y-83363397D01*
X107640941Y-83380818D01*
X107664769Y-83385557D01*
X107829001Y-83435376D01*
X107851453Y-83444677D01*
X108002798Y-83525572D01*
X108023010Y-83539077D01*
X108155666Y-83647945D01*
X108172854Y-83665133D01*
X108281722Y-83797789D01*
X108295227Y-83818001D01*
X108376121Y-83969343D01*
X108385424Y-83991801D01*
X108435240Y-84156024D01*
X108439982Y-84179865D01*
X108457403Y-84356738D01*
X108458000Y-84368892D01*
X108458000Y-89671907D01*
X108457403Y-89684061D01*
X108439982Y-89860934D01*
X108435240Y-89884775D01*
X108385424Y-90048998D01*
X108376121Y-90071456D01*
X108295227Y-90222798D01*
X108281722Y-90243010D01*
X108172854Y-90375666D01*
X108155666Y-90392854D01*
X108023010Y-90501722D01*
X108002798Y-90515227D01*
X107851456Y-90596121D01*
X107828998Y-90605424D01*
X107664775Y-90655240D01*
X107640934Y-90659982D01*
X107464061Y-90677403D01*
X107451907Y-90678000D01*
X93384307Y-90678000D01*
X93372153Y-90677403D01*
X93195278Y-90659982D01*
X93171437Y-90655240D01*
X93007214Y-90605424D01*
X92984756Y-90596121D01*
X92833414Y-90515227D01*
X92813202Y-90501722D01*
X92675813Y-90388969D01*
X92666797Y-90380797D01*
X89578344Y-87292344D01*
X102140000Y-87292344D01*
X102146401Y-87351872D01*
X102146403Y-87351879D01*
X102196645Y-87486586D01*
X102196649Y-87486593D01*
X102282809Y-87601687D01*
X102282812Y-87601690D01*
X102397906Y-87687850D01*
X102397913Y-87687854D01*
X102532620Y-87738096D01*
X102532627Y-87738098D01*
X102592155Y-87744499D01*
X102592172Y-87744500D01*
X103640000Y-87744500D01*
X104640000Y-87744500D01*
X105687828Y-87744500D01*
X105687844Y-87744499D01*
X105747372Y-87738098D01*
X105747379Y-87738096D01*
X105882086Y-87687854D01*
X105882093Y-87687850D01*
X105997187Y-87601690D01*
X105997190Y-87601687D01*
X106083350Y-87486593D01*
X106083354Y-87486586D01*
X106133596Y-87351879D01*
X106133598Y-87351872D01*
X106139999Y-87292344D01*
X106140000Y-87292327D01*
X106140000Y-86244500D01*
X104640000Y-86244500D01*
X104640000Y-87744500D01*
X103640000Y-87744500D01*
X103640000Y-86244500D01*
X102140000Y-86244500D01*
X102140000Y-87292344D01*
X89578344Y-87292344D01*
X87966481Y-85680481D01*
X103490000Y-85680481D01*
X103490000Y-85808519D01*
X103514979Y-85934098D01*
X103563978Y-86052390D01*
X103635112Y-86158851D01*
X103725649Y-86249388D01*
X103832110Y-86320522D01*
X103950402Y-86369521D01*
X104075981Y-86394500D01*
X104204019Y-86394500D01*
X104329598Y-86369521D01*
X104447890Y-86320522D01*
X104554351Y-86249388D01*
X104644888Y-86158851D01*
X104716022Y-86052390D01*
X104765021Y-85934098D01*
X104790000Y-85808519D01*
X104790000Y-85680481D01*
X104765021Y-85554902D01*
X104716022Y-85436610D01*
X104644888Y-85330149D01*
X104559239Y-85244500D01*
X104640000Y-85244500D01*
X106140000Y-85244500D01*
X106140000Y-84196672D01*
X106139999Y-84196655D01*
X106133598Y-84137127D01*
X106133596Y-84137120D01*
X106083354Y-84002413D01*
X106083350Y-84002406D01*
X105997190Y-83887312D01*
X105997187Y-83887309D01*
X105882093Y-83801149D01*
X105882086Y-83801145D01*
X105747379Y-83750903D01*
X105747372Y-83750901D01*
X105687844Y-83744500D01*
X104640000Y-83744500D01*
X104640000Y-85244500D01*
X104559239Y-85244500D01*
X104554351Y-85239612D01*
X104447890Y-85168478D01*
X104329598Y-85119479D01*
X104204019Y-85094500D01*
X104075981Y-85094500D01*
X103950402Y-85119479D01*
X103832110Y-85168478D01*
X103725649Y-85239612D01*
X103635112Y-85330149D01*
X103563978Y-85436610D01*
X103514979Y-85554902D01*
X103490000Y-85680481D01*
X87966481Y-85680481D01*
X86482655Y-84196655D01*
X102140000Y-84196655D01*
X102140000Y-85244500D01*
X103640000Y-85244500D01*
X103640000Y-83744500D01*
X102592155Y-83744500D01*
X102532627Y-83750901D01*
X102532620Y-83750903D01*
X102397913Y-83801145D01*
X102397906Y-83801149D01*
X102282812Y-83887309D01*
X102282809Y-83887312D01*
X102196649Y-84002406D01*
X102196645Y-84002413D01*
X102146403Y-84137120D01*
X102146401Y-84137127D01*
X102140000Y-84196655D01*
X86482655Y-84196655D01*
X82085202Y-79799202D01*
X82077030Y-79790186D01*
X81964277Y-79652797D01*
X81950772Y-79632585D01*
X81869878Y-79481243D01*
X81860575Y-79458785D01*
X81810757Y-79294556D01*
X81806018Y-79270728D01*
X81788597Y-79093847D01*
X81788000Y-79081693D01*
X81788000Y-74175999D01*
X85175039Y-74175999D01*
X85175040Y-74176000D01*
X86587937Y-74176000D01*
X86507049Y-74297058D01*
X86446743Y-74442649D01*
X86416000Y-74597207D01*
X86416000Y-74754793D01*
X86446743Y-74909351D01*
X86507049Y-75054942D01*
X86587937Y-75176000D01*
X85175039Y-75176000D01*
X85189145Y-75243885D01*
X85189150Y-75243902D01*
X85285355Y-75514595D01*
X85417527Y-75769676D01*
X85583204Y-76004385D01*
X85583204Y-76004386D01*
X85779288Y-76214341D01*
X86002135Y-76395641D01*
X86002146Y-76395648D01*
X86247607Y-76544917D01*
X86511109Y-76659371D01*
X86511107Y-76659371D01*
X86716000Y-76716778D01*
X86716000Y-75304062D01*
X86837058Y-75384951D01*
X86982649Y-75445257D01*
X87137207Y-75476000D01*
X87294793Y-75476000D01*
X87449351Y-75445257D01*
X87594942Y-75384951D01*
X87716000Y-75304062D01*
X87716000Y-76716777D01*
X87920891Y-76659371D01*
X88184392Y-76544917D01*
X88429853Y-76395648D01*
X88429864Y-76395641D01*
X88652711Y-76214341D01*
X88848795Y-76004386D01*
X88848795Y-76004385D01*
X89014472Y-75769676D01*
X89146644Y-75514595D01*
X89242849Y-75243902D01*
X89242854Y-75243885D01*
X89256961Y-75176000D01*
X87844063Y-75176000D01*
X87924951Y-75054942D01*
X87985257Y-74909351D01*
X88016000Y-74754793D01*
X88016000Y-74597207D01*
X87985257Y-74442649D01*
X87924951Y-74297058D01*
X87844063Y-74176000D01*
X89256960Y-74176000D01*
X89256960Y-74175999D01*
X89242854Y-74108114D01*
X89242849Y-74108097D01*
X89146644Y-73837404D01*
X89014472Y-73582323D01*
X88848795Y-73347614D01*
X88848795Y-73347613D01*
X88652711Y-73137658D01*
X88429864Y-72956358D01*
X88429853Y-72956351D01*
X88184392Y-72807082D01*
X87920894Y-72692629D01*
X87716000Y-72635220D01*
X87716000Y-74047937D01*
X87594942Y-73967049D01*
X87449351Y-73906743D01*
X87294793Y-73876000D01*
X87137207Y-73876000D01*
X86982649Y-73906743D01*
X86837058Y-73967049D01*
X86716000Y-74047937D01*
X86716000Y-72635220D01*
X86511105Y-72692629D01*
X86247607Y-72807082D01*
X86002146Y-72956351D01*
X86002135Y-72956358D01*
X85779288Y-73137658D01*
X85583204Y-73347613D01*
X85583204Y-73347614D01*
X85417527Y-73582323D01*
X85285355Y-73837404D01*
X85189150Y-74108097D01*
X85189145Y-74108114D01*
X85175039Y-74175999D01*
X81788000Y-74175999D01*
X81788000Y-70856092D01*
X81788597Y-70843938D01*
X81806018Y-70667056D01*
X81810757Y-70643232D01*
X81860577Y-70478994D01*
X81869875Y-70456549D01*
X81950775Y-70305195D01*
X81964272Y-70284995D01*
X82073149Y-70152328D01*
X82090328Y-70135149D01*
X82222995Y-70026272D01*
X82243195Y-70012775D01*
X82394549Y-69931875D01*
X82416994Y-69922577D01*
X82581232Y-69872757D01*
X82605056Y-69868018D01*
X82781939Y-69850597D01*
X82794093Y-69850000D01*
X93989907Y-69850000D01*
X94002061Y-69850597D01*
G37*
%TD.AperFunction*%
%TD*%
%TA.AperFunction,Conductor*%
%TO.N,+VDC*%
G36*
X101989535Y-18853692D02*
G01*
X102055362Y-18877100D01*
X102087280Y-18911053D01*
X102113048Y-18951657D01*
X102113054Y-18951665D01*
X102313606Y-19194090D01*
X102313608Y-19194092D01*
X102542968Y-19409476D01*
X102542978Y-19409484D01*
X102797504Y-19594408D01*
X102797509Y-19594410D01*
X102797516Y-19594416D01*
X103073234Y-19745994D01*
X103073239Y-19745996D01*
X103073241Y-19745997D01*
X103073242Y-19745998D01*
X103365771Y-19861818D01*
X103365774Y-19861819D01*
X103670523Y-19940065D01*
X103670527Y-19940066D01*
X103736010Y-19948338D01*
X103982670Y-19979499D01*
X103982679Y-19979499D01*
X103982682Y-19979500D01*
X103982684Y-19979500D01*
X104297316Y-19979500D01*
X104297318Y-19979500D01*
X104297321Y-19979499D01*
X104297329Y-19979499D01*
X104483593Y-19955968D01*
X104609473Y-19940066D01*
X104914225Y-19861819D01*
X104914228Y-19861818D01*
X105206757Y-19745998D01*
X105206758Y-19745997D01*
X105206756Y-19745997D01*
X105206766Y-19745994D01*
X105482484Y-19594416D01*
X105737030Y-19409478D01*
X105966390Y-19194094D01*
X106019149Y-19130318D01*
X106077049Y-19091211D01*
X106121639Y-19085554D01*
X108086949Y-19195832D01*
X108152778Y-19219240D01*
X108195503Y-19274525D01*
X108204000Y-19319636D01*
X108204000Y-25083252D01*
X108184315Y-25150291D01*
X108131511Y-25196046D01*
X108090892Y-25206773D01*
X104412081Y-25531157D01*
X104385648Y-25530658D01*
X104297329Y-25519500D01*
X104297318Y-25519500D01*
X103982682Y-25519500D01*
X103982670Y-25519500D01*
X103670527Y-25558933D01*
X103670516Y-25558935D01*
X103457257Y-25613691D01*
X103437312Y-25617108D01*
X82989692Y-27420105D01*
X82921182Y-27406385D01*
X82870966Y-27357804D01*
X82854800Y-27296584D01*
X82854800Y-17911152D01*
X82874485Y-17844113D01*
X82927289Y-17798358D01*
X82985744Y-17787347D01*
X101989535Y-18853692D01*
G37*
%TD.AperFunction*%
%TD*%
%TA.AperFunction,Conductor*%
%TO.N,+12L*%
G36*
X16563110Y-39643685D02*
G01*
X16608865Y-39696489D01*
X16618809Y-39765647D01*
X16601609Y-39813097D01*
X16590646Y-39830869D01*
X16590641Y-39830880D01*
X16535494Y-39997302D01*
X16535493Y-39997309D01*
X16525000Y-40100013D01*
X16525000Y-40250000D01*
X19474999Y-40250000D01*
X19474999Y-40100028D01*
X19474998Y-40100013D01*
X19464505Y-39997302D01*
X19409358Y-39830880D01*
X19409353Y-39830869D01*
X19398391Y-39813097D01*
X19379950Y-39745705D01*
X19400872Y-39679041D01*
X19454514Y-39634271D01*
X19503929Y-39624000D01*
X24514000Y-39624000D01*
X24581039Y-39643685D01*
X24626794Y-39696489D01*
X24638000Y-39748000D01*
X24638000Y-43180000D01*
X24637999Y-43180000D01*
X25509250Y-43200500D01*
X46228000Y-43688000D01*
X52708868Y-43688000D01*
X52775907Y-43707685D01*
X52821662Y-43760489D01*
X52832865Y-43811128D01*
X52838013Y-44543462D01*
X52818800Y-44610639D01*
X52779992Y-44649326D01*
X52763862Y-44659461D01*
X52639462Y-44783861D01*
X52545862Y-44932825D01*
X52487756Y-45098885D01*
X52473000Y-45229854D01*
X52473000Y-45293000D01*
X52843283Y-45293000D01*
X52850312Y-46293000D01*
X52473001Y-46293000D01*
X52473001Y-46356146D01*
X52487756Y-46487115D01*
X52545863Y-46653175D01*
X52643121Y-46807961D01*
X52662121Y-46875198D01*
X52641753Y-46942033D01*
X52609251Y-46975507D01*
X52436358Y-47096569D01*
X52436347Y-47096578D01*
X52274575Y-47258350D01*
X52143348Y-47445761D01*
X52046660Y-47653110D01*
X52046656Y-47653119D01*
X51987446Y-47874097D01*
X51987444Y-47874107D01*
X51972500Y-48044923D01*
X51972500Y-49345073D01*
X51972501Y-49345077D01*
X51987445Y-49515895D01*
X51987445Y-49515899D01*
X52046656Y-49736880D01*
X52046658Y-49736884D01*
X52046659Y-49736888D01*
X52143348Y-49944239D01*
X52274575Y-50131649D01*
X52436351Y-50293425D01*
X52436357Y-50293429D01*
X52436358Y-50293430D01*
X52474911Y-50320426D01*
X52518536Y-50375003D01*
X52525728Y-50444502D01*
X52494205Y-50506856D01*
X52433975Y-50542269D01*
X52403787Y-50546000D01*
X52324000Y-50546000D01*
X52324000Y-55143400D01*
X54102000Y-56388000D01*
X58833344Y-59699941D01*
X59129109Y-59906976D01*
X59172742Y-59961547D01*
X59182000Y-60008561D01*
X59182000Y-69036638D01*
X59162315Y-69103677D01*
X59145681Y-69124319D01*
X58964319Y-69305681D01*
X58902996Y-69339166D01*
X58876638Y-69342000D01*
X54226000Y-69342000D01*
X54158961Y-69322315D01*
X54113206Y-69269511D01*
X54102000Y-69218000D01*
X54102000Y-62484000D01*
X51816000Y-61468000D01*
X51815998Y-61468000D01*
X50913500Y-61468000D01*
X50846461Y-61448315D01*
X50800706Y-61395511D01*
X50789500Y-61344000D01*
X50789500Y-58674011D01*
X50789499Y-58673998D01*
X50777905Y-58521739D01*
X50726910Y-58324785D01*
X50637312Y-58142127D01*
X50637310Y-58142124D01*
X50512779Y-57981243D01*
X50512777Y-57981242D01*
X50358412Y-57848723D01*
X50358407Y-57848720D01*
X50180531Y-57749991D01*
X50180516Y-57749984D01*
X49986407Y-57689082D01*
X49784001Y-57668500D01*
X49784000Y-57668500D01*
X40640000Y-57668500D01*
X40639987Y-57668500D01*
X40487737Y-57680095D01*
X40487726Y-57680097D01*
X40290788Y-57731088D01*
X40108128Y-57820687D01*
X40108124Y-57820689D01*
X39947243Y-57945220D01*
X39947242Y-57945222D01*
X39814723Y-58099587D01*
X39814720Y-58099592D01*
X39715991Y-58277468D01*
X39715984Y-58277483D01*
X39655082Y-58471592D01*
X39634500Y-58673998D01*
X39634500Y-61344000D01*
X39614815Y-61411039D01*
X39562011Y-61456794D01*
X39510500Y-61468000D01*
X35814001Y-61468000D01*
X35814000Y-61468000D01*
X35813999Y-61468000D01*
X35813998Y-61468001D01*
X34317835Y-64460329D01*
X34317835Y-72769534D01*
X34298150Y-72836573D01*
X34245346Y-72882328D01*
X34199943Y-72893383D01*
X32923454Y-72956335D01*
X32855526Y-72939977D01*
X32812352Y-72898458D01*
X32676946Y-72682961D01*
X32466825Y-72419477D01*
X32228523Y-72181175D01*
X31965039Y-71971054D01*
X31679686Y-71791754D01*
X31679683Y-71791752D01*
X31376054Y-71645532D01*
X31057965Y-71534227D01*
X31057953Y-71534223D01*
X30729397Y-71459233D01*
X30729381Y-71459231D01*
X30394508Y-71421500D01*
X30394504Y-71421500D01*
X30057496Y-71421500D01*
X30057491Y-71421500D01*
X29722618Y-71459231D01*
X29722602Y-71459233D01*
X29394046Y-71534223D01*
X29394034Y-71534227D01*
X29075945Y-71645532D01*
X28772316Y-71791752D01*
X28486962Y-71971053D01*
X28223477Y-72181174D01*
X27985174Y-72419477D01*
X27775053Y-72682962D01*
X27595756Y-72968309D01*
X27541101Y-73081802D01*
X27494278Y-73133662D01*
X27429381Y-73152000D01*
X24638000Y-73152000D01*
X16128157Y-73152000D01*
X16061118Y-73132315D01*
X16015363Y-73079511D01*
X16004175Y-73025862D01*
X16053758Y-70149986D01*
X16525001Y-70149986D01*
X16535494Y-70252697D01*
X16590641Y-70419119D01*
X16590643Y-70419124D01*
X16682684Y-70568345D01*
X16806654Y-70692315D01*
X16955875Y-70784356D01*
X16955880Y-70784358D01*
X17122302Y-70839505D01*
X17122309Y-70839506D01*
X17225019Y-70849999D01*
X17499999Y-70849999D01*
X18500000Y-70849999D01*
X18774972Y-70849999D01*
X18774986Y-70849998D01*
X18877695Y-70839506D01*
X19004139Y-70797606D01*
X19073968Y-70795204D01*
X19134010Y-70830935D01*
X19165203Y-70893456D01*
X19164762Y-70939502D01*
X19149500Y-71016234D01*
X19149500Y-71183771D01*
X19182182Y-71348074D01*
X19182184Y-71348082D01*
X19246295Y-71502860D01*
X19339373Y-71642162D01*
X19457837Y-71760626D01*
X19504421Y-71791752D01*
X19597137Y-71853703D01*
X19751918Y-71917816D01*
X19916228Y-71950499D01*
X19916232Y-71950500D01*
X19916233Y-71950500D01*
X20083768Y-71950500D01*
X20083769Y-71950499D01*
X20248082Y-71917816D01*
X20402863Y-71853703D01*
X20542162Y-71760626D01*
X20660626Y-71642162D01*
X20753703Y-71502863D01*
X20817816Y-71348082D01*
X20850500Y-71183767D01*
X20850500Y-71016233D01*
X20817816Y-70851918D01*
X20753703Y-70697137D01*
X20667647Y-70568345D01*
X20660626Y-70557837D01*
X20542162Y-70439373D01*
X20402860Y-70346295D01*
X20248082Y-70282184D01*
X20248074Y-70282182D01*
X20083771Y-70249500D01*
X20083767Y-70249500D01*
X19916233Y-70249500D01*
X19916228Y-70249500D01*
X19751925Y-70282182D01*
X19751917Y-70282184D01*
X19640584Y-70328300D01*
X19571114Y-70335769D01*
X19508635Y-70304494D01*
X19472983Y-70244405D01*
X19469773Y-70201135D01*
X19474999Y-70149983D01*
X19475000Y-70149973D01*
X19475000Y-70000000D01*
X18500000Y-70000000D01*
X18500000Y-70849999D01*
X17499999Y-70849999D01*
X17500000Y-70849998D01*
X17500000Y-70000000D01*
X16525001Y-70000000D01*
X16525001Y-70149986D01*
X16053758Y-70149986D01*
X16066042Y-69437465D01*
X17525000Y-69437465D01*
X17525000Y-69562535D01*
X17557370Y-69683343D01*
X17619905Y-69791657D01*
X17708343Y-69880095D01*
X17816657Y-69942630D01*
X17937465Y-69975000D01*
X18062535Y-69975000D01*
X18183343Y-69942630D01*
X18291657Y-69880095D01*
X18380095Y-69791657D01*
X18442630Y-69683343D01*
X18475000Y-69562535D01*
X18475000Y-69437465D01*
X18442630Y-69316657D01*
X18380095Y-69208343D01*
X18291657Y-69119905D01*
X18183343Y-69057370D01*
X18062535Y-69025000D01*
X17937465Y-69025000D01*
X17816657Y-69057370D01*
X17708343Y-69119905D01*
X17619905Y-69208343D01*
X17557370Y-69316657D01*
X17525000Y-69437465D01*
X16066042Y-69437465D01*
X16087483Y-68193862D01*
X16108321Y-68127172D01*
X16161906Y-68082334D01*
X16211465Y-68072000D01*
X16303920Y-68072000D01*
X16370959Y-68091685D01*
X16402296Y-68120514D01*
X16480733Y-68222736D01*
X16480739Y-68222743D01*
X16616012Y-68358016D01*
X16649497Y-68419339D01*
X16644513Y-68489031D01*
X16633870Y-68510793D01*
X16590645Y-68580871D01*
X16590641Y-68580880D01*
X16535494Y-68747302D01*
X16535493Y-68747309D01*
X16525000Y-68850013D01*
X16525000Y-69000000D01*
X19474999Y-69000000D01*
X19474999Y-68850028D01*
X19474998Y-68850013D01*
X19464505Y-68747302D01*
X19409358Y-68580880D01*
X19409353Y-68580869D01*
X19366130Y-68510794D01*
X19347689Y-68443402D01*
X19368611Y-68376738D01*
X19383982Y-68358020D01*
X19519265Y-68222738D01*
X19597704Y-68120513D01*
X19654131Y-68079311D01*
X19696080Y-68072000D01*
X24172289Y-68072000D01*
X24380947Y-59810868D01*
X24402318Y-59744348D01*
X24456260Y-59699941D01*
X24504907Y-59690000D01*
X30226000Y-59690000D01*
X30226000Y-51308000D01*
X20445050Y-51308000D01*
X20378011Y-51288315D01*
X20332256Y-51235511D01*
X20321054Y-51182955D01*
X20378656Y-44350920D01*
X20167553Y-44342987D01*
X16375344Y-44200484D01*
X16309091Y-44178295D01*
X16265351Y-44123811D01*
X16256000Y-44076571D01*
X16256000Y-41399986D01*
X16525001Y-41399986D01*
X16535494Y-41502697D01*
X16590641Y-41669119D01*
X16590643Y-41669124D01*
X16682684Y-41818345D01*
X16806654Y-41942315D01*
X16955875Y-42034356D01*
X16955880Y-42034358D01*
X17122302Y-42089505D01*
X17122309Y-42089506D01*
X17225019Y-42099999D01*
X17499999Y-42099999D01*
X18500000Y-42099999D01*
X18774972Y-42099999D01*
X18774986Y-42099998D01*
X18877695Y-42089506D01*
X19004139Y-42047606D01*
X19073968Y-42045204D01*
X19134010Y-42080935D01*
X19165203Y-42143456D01*
X19164762Y-42189502D01*
X19149500Y-42266234D01*
X19149500Y-42433771D01*
X19182182Y-42598074D01*
X19182184Y-42598082D01*
X19246295Y-42752860D01*
X19339373Y-42892162D01*
X19457837Y-43010626D01*
X19550494Y-43072537D01*
X19597137Y-43103703D01*
X19751918Y-43167816D01*
X19916228Y-43200499D01*
X19916232Y-43200500D01*
X19916233Y-43200500D01*
X20083768Y-43200500D01*
X20083769Y-43200499D01*
X20248082Y-43167816D01*
X20402863Y-43103703D01*
X20542162Y-43010626D01*
X20660626Y-42892162D01*
X20753703Y-42752863D01*
X20817816Y-42598082D01*
X20850500Y-42433767D01*
X20850500Y-42266233D01*
X20817816Y-42101918D01*
X20753703Y-41947137D01*
X20667647Y-41818345D01*
X20660626Y-41807837D01*
X20542162Y-41689373D01*
X20402860Y-41596295D01*
X20248082Y-41532184D01*
X20248074Y-41532182D01*
X20083771Y-41499500D01*
X20083767Y-41499500D01*
X19916233Y-41499500D01*
X19916228Y-41499500D01*
X19751925Y-41532182D01*
X19751917Y-41532184D01*
X19640584Y-41578300D01*
X19571114Y-41585769D01*
X19508635Y-41554494D01*
X19472983Y-41494405D01*
X19469773Y-41451135D01*
X19474999Y-41399983D01*
X19475000Y-41399973D01*
X19475000Y-41250000D01*
X18500000Y-41250000D01*
X18500000Y-42099999D01*
X17499999Y-42099999D01*
X17500000Y-42099998D01*
X17500000Y-41250000D01*
X16525001Y-41250000D01*
X16525001Y-41399986D01*
X16256000Y-41399986D01*
X16256000Y-40687465D01*
X17525000Y-40687465D01*
X17525000Y-40812535D01*
X17557370Y-40933343D01*
X17619905Y-41041657D01*
X17708343Y-41130095D01*
X17816657Y-41192630D01*
X17937465Y-41225000D01*
X18062535Y-41225000D01*
X18183343Y-41192630D01*
X18291657Y-41130095D01*
X18380095Y-41041657D01*
X18442630Y-40933343D01*
X18475000Y-40812535D01*
X18475000Y-40687465D01*
X18442630Y-40566657D01*
X18380095Y-40458343D01*
X18291657Y-40369905D01*
X18183343Y-40307370D01*
X18062535Y-40275000D01*
X17937465Y-40275000D01*
X17816657Y-40307370D01*
X17708343Y-40369905D01*
X17619905Y-40458343D01*
X17557370Y-40566657D01*
X17525000Y-40687465D01*
X16256000Y-40687465D01*
X16256000Y-39748000D01*
X16275685Y-39680961D01*
X16328489Y-39635206D01*
X16380000Y-39624000D01*
X16496071Y-39624000D01*
X16563110Y-39643685D01*
G37*
%TD.AperFunction*%
%TD*%
%TA.AperFunction,Conductor*%
%TO.N,+5VL*%
G36*
X75199677Y-78505685D02*
G01*
X75220319Y-78522319D01*
X77179681Y-80481681D01*
X77213166Y-80543004D01*
X77216000Y-80569362D01*
X77216000Y-111375500D01*
X77196315Y-111442539D01*
X77143511Y-111488294D01*
X77092000Y-111499500D01*
X36192000Y-111499500D01*
X36124961Y-111479815D01*
X36079206Y-111427011D01*
X36068000Y-111375500D01*
X36068000Y-102259371D01*
X36087685Y-102192332D01*
X36107112Y-102168983D01*
X36129890Y-102147594D01*
X36268252Y-101980344D01*
X37303500Y-101980344D01*
X37309901Y-102039872D01*
X37309903Y-102039879D01*
X37360145Y-102174586D01*
X37360149Y-102174593D01*
X37446309Y-102289687D01*
X37446312Y-102289690D01*
X37561406Y-102375850D01*
X37561413Y-102375854D01*
X37696120Y-102426096D01*
X37696127Y-102426098D01*
X37755655Y-102432499D01*
X37755672Y-102432500D01*
X38803500Y-102432500D01*
X39803500Y-102432500D01*
X40851328Y-102432500D01*
X40851344Y-102432499D01*
X40910872Y-102426098D01*
X40910879Y-102426096D01*
X41045586Y-102375854D01*
X41045593Y-102375850D01*
X41160687Y-102289690D01*
X41160690Y-102289687D01*
X41246850Y-102174593D01*
X41246854Y-102174586D01*
X41297096Y-102039879D01*
X41297098Y-102039872D01*
X41303499Y-101980344D01*
X41303500Y-101980327D01*
X41303500Y-100932500D01*
X39803500Y-100932500D01*
X39803500Y-102432500D01*
X38803500Y-102432500D01*
X38803500Y-100932500D01*
X37303500Y-100932500D01*
X37303500Y-101980344D01*
X36268252Y-101980344D01*
X36330447Y-101905163D01*
X36499037Y-101639507D01*
X36633003Y-101354815D01*
X36730231Y-101055579D01*
X36789188Y-100746515D01*
X36789189Y-100746504D01*
X36808944Y-100432505D01*
X36808944Y-100432494D01*
X36804917Y-100368481D01*
X38653500Y-100368481D01*
X38653500Y-100496519D01*
X38678479Y-100622098D01*
X38727478Y-100740390D01*
X38798612Y-100846851D01*
X38889149Y-100937388D01*
X38995610Y-101008522D01*
X39113902Y-101057521D01*
X39239481Y-101082500D01*
X39367519Y-101082500D01*
X39493098Y-101057521D01*
X39611390Y-101008522D01*
X39717851Y-100937388D01*
X39808388Y-100846851D01*
X39879522Y-100740390D01*
X39928521Y-100622098D01*
X39953500Y-100496519D01*
X39953500Y-100368481D01*
X39928521Y-100242902D01*
X39879522Y-100124610D01*
X39808388Y-100018149D01*
X39722739Y-99932500D01*
X39803500Y-99932500D01*
X41303500Y-99932500D01*
X41303500Y-98884672D01*
X41303499Y-98884655D01*
X41297098Y-98825127D01*
X41297096Y-98825120D01*
X41246854Y-98690413D01*
X41246850Y-98690406D01*
X41160690Y-98575312D01*
X41160687Y-98575309D01*
X41045593Y-98489149D01*
X41045586Y-98489145D01*
X40910879Y-98438903D01*
X40910872Y-98438901D01*
X40851344Y-98432500D01*
X39803500Y-98432500D01*
X39803500Y-99932500D01*
X39722739Y-99932500D01*
X39717851Y-99927612D01*
X39611390Y-99856478D01*
X39493098Y-99807479D01*
X39367519Y-99782500D01*
X39239481Y-99782500D01*
X39113902Y-99807479D01*
X38995610Y-99856478D01*
X38889149Y-99927612D01*
X38798612Y-100018149D01*
X38727478Y-100124610D01*
X38678479Y-100242902D01*
X38653500Y-100368481D01*
X36804917Y-100368481D01*
X36789189Y-100118495D01*
X36789188Y-100118488D01*
X36789188Y-100118485D01*
X36730231Y-99809421D01*
X36633003Y-99510185D01*
X36499037Y-99225493D01*
X36330447Y-98959837D01*
X36330445Y-98959834D01*
X36268251Y-98884655D01*
X37303500Y-98884655D01*
X37303500Y-99932500D01*
X38803500Y-99932500D01*
X38803500Y-98432500D01*
X37755655Y-98432500D01*
X37696127Y-98438901D01*
X37696120Y-98438903D01*
X37561413Y-98489145D01*
X37561406Y-98489149D01*
X37446312Y-98575309D01*
X37446309Y-98575312D01*
X37360149Y-98690406D01*
X37360145Y-98690413D01*
X37309903Y-98825120D01*
X37309901Y-98825127D01*
X37303500Y-98884655D01*
X36268251Y-98884655D01*
X36129895Y-98717412D01*
X36129894Y-98717411D01*
X36129890Y-98717406D01*
X36107113Y-98696017D01*
X36071721Y-98635776D01*
X36068000Y-98605627D01*
X36068000Y-96644000D01*
X36087685Y-96576961D01*
X36140489Y-96531206D01*
X36192000Y-96520000D01*
X42802000Y-96520000D01*
X42869039Y-96539685D01*
X42914794Y-96592489D01*
X42926000Y-96644000D01*
X42926000Y-98784103D01*
X42906315Y-98851142D01*
X42897544Y-98863143D01*
X42817553Y-98959835D01*
X42817551Y-98959838D01*
X42648964Y-99225490D01*
X42648961Y-99225496D01*
X42514999Y-99510178D01*
X42514997Y-99510183D01*
X42417770Y-99809416D01*
X42358811Y-100118488D01*
X42358810Y-100118495D01*
X42339056Y-100432494D01*
X42339056Y-100432505D01*
X42358810Y-100746504D01*
X42358811Y-100746511D01*
X42358812Y-100746515D01*
X42408792Y-101008522D01*
X42417770Y-101055583D01*
X42514997Y-101354816D01*
X42514999Y-101354821D01*
X42648961Y-101639503D01*
X42648964Y-101639509D01*
X42817549Y-101905158D01*
X42817552Y-101905162D01*
X42817553Y-101905163D01*
X42897543Y-102001855D01*
X42925109Y-102066055D01*
X42926000Y-102080894D01*
X42926000Y-105664000D01*
X43434000Y-106172000D01*
X67564000Y-106172000D01*
X67564000Y-89154000D01*
X62783616Y-85254213D01*
X62744113Y-85196583D01*
X62738000Y-85158130D01*
X62738000Y-78610000D01*
X62757685Y-78542961D01*
X62810489Y-78497206D01*
X62862000Y-78486000D01*
X75132638Y-78486000D01*
X75199677Y-78505685D01*
G37*
%TD.AperFunction*%
%TD*%
%TA.AperFunction,Conductor*%
%TO.N,GND*%
G36*
X12705703Y-86264141D02*
G01*
X12712181Y-86270173D01*
X19826685Y-93384677D01*
X19826703Y-93384693D01*
X19906774Y-93456616D01*
X19927403Y-93473239D01*
X19927412Y-93473246D01*
X20086626Y-93578308D01*
X20275033Y-93655083D01*
X20275040Y-93655085D01*
X20275039Y-93655085D01*
X20290049Y-93659492D01*
X20342072Y-93674768D01*
X20422956Y-93694917D01*
X20557893Y-93708639D01*
X20625361Y-93715500D01*
X20625362Y-93715500D01*
X45606500Y-93715500D01*
X45673539Y-93735185D01*
X45719294Y-93787989D01*
X45730500Y-93839500D01*
X45730500Y-98449781D01*
X45710815Y-98516820D01*
X45658011Y-98562575D01*
X45588853Y-98572519D01*
X45563167Y-98565963D01*
X45409397Y-98508610D01*
X45129862Y-98447800D01*
X44844501Y-98427391D01*
X44844499Y-98427391D01*
X44559137Y-98447800D01*
X44279602Y-98508610D01*
X44098833Y-98576033D01*
X44029142Y-98581017D01*
X43967819Y-98547532D01*
X43934334Y-98486209D01*
X43931500Y-98459851D01*
X43931500Y-96644010D01*
X43931433Y-96632420D01*
X43931433Y-96632412D01*
X43908519Y-96430257D01*
X43897313Y-96378746D01*
X43872784Y-96287062D01*
X43791692Y-96100473D01*
X43791691Y-96100471D01*
X43791689Y-96100468D01*
X43674705Y-95934033D01*
X43674704Y-95934032D01*
X43674700Y-95934026D01*
X43628945Y-95881222D01*
X43509832Y-95764821D01*
X43509830Y-95764819D01*
X43340738Y-95651693D01*
X43340731Y-95651690D01*
X43152328Y-95574916D01*
X43152322Y-95574914D01*
X43085293Y-95555233D01*
X43085295Y-95555233D01*
X43085290Y-95555232D01*
X43004406Y-95535083D01*
X43004402Y-95535082D01*
X43004403Y-95535082D01*
X42802001Y-95514500D01*
X42802000Y-95514500D01*
X36192000Y-95514500D01*
X36191347Y-95514503D01*
X36180420Y-95514566D01*
X36180406Y-95514567D01*
X35978254Y-95537481D01*
X35926753Y-95548685D01*
X35835058Y-95573217D01*
X35648475Y-95654306D01*
X35648468Y-95654310D01*
X35482033Y-95771294D01*
X35482020Y-95771305D01*
X35429225Y-95817052D01*
X35312819Y-95936169D01*
X35199693Y-96105261D01*
X35199690Y-96105268D01*
X35122916Y-96293671D01*
X35122914Y-96293677D01*
X35103233Y-96360706D01*
X35083082Y-96441597D01*
X35062500Y-96643998D01*
X35062500Y-98402412D01*
X35042815Y-98469451D01*
X34990011Y-98515206D01*
X34920853Y-98525150D01*
X34895168Y-98518594D01*
X34868402Y-98508611D01*
X34868398Y-98508610D01*
X34588862Y-98447800D01*
X34303501Y-98427391D01*
X34303499Y-98427391D01*
X34018137Y-98447800D01*
X33738604Y-98508609D01*
X33470541Y-98608591D01*
X33219461Y-98745691D01*
X33219453Y-98745696D01*
X33076936Y-98852382D01*
X34056011Y-99831458D01*
X33995610Y-99856478D01*
X33889149Y-99927612D01*
X33798612Y-100018149D01*
X33727478Y-100124610D01*
X33702458Y-100185011D01*
X32723383Y-99205936D01*
X32723382Y-99205937D01*
X32616696Y-99348453D01*
X32616691Y-99348461D01*
X32479591Y-99599541D01*
X32379609Y-99867604D01*
X32318800Y-100147137D01*
X32298391Y-100432498D01*
X32298391Y-100432501D01*
X32318800Y-100717862D01*
X32379609Y-100997395D01*
X32479591Y-101265458D01*
X32616691Y-101516538D01*
X32616696Y-101516546D01*
X32723382Y-101659061D01*
X32723383Y-101659062D01*
X33702458Y-100679987D01*
X33727478Y-100740390D01*
X33798612Y-100846851D01*
X33889149Y-100937388D01*
X33995610Y-101008522D01*
X34056010Y-101033540D01*
X33076936Y-102012615D01*
X33219460Y-102119307D01*
X33219461Y-102119308D01*
X33470542Y-102256408D01*
X33470541Y-102256408D01*
X33738604Y-102356390D01*
X34018137Y-102417199D01*
X34303499Y-102437609D01*
X34303501Y-102437609D01*
X34588862Y-102417199D01*
X34868398Y-102356389D01*
X34895164Y-102346406D01*
X34964855Y-102341420D01*
X35026179Y-102374904D01*
X35059666Y-102436226D01*
X35062500Y-102462587D01*
X35062500Y-111375500D01*
X35042815Y-111442539D01*
X34990011Y-111488294D01*
X34938500Y-111499500D01*
X12624500Y-111499500D01*
X12557461Y-111479815D01*
X12511706Y-111427011D01*
X12500500Y-111375500D01*
X12500500Y-99999996D01*
X15195162Y-99999996D01*
X15195162Y-100000003D01*
X15214504Y-100430692D01*
X15214505Y-100430701D01*
X15272378Y-100857938D01*
X15368313Y-101278258D01*
X15501542Y-101688296D01*
X15501545Y-101688304D01*
X15670985Y-102084730D01*
X15670989Y-102084738D01*
X15875294Y-102464399D01*
X16112799Y-102824207D01*
X16112800Y-102824208D01*
X16381608Y-103161282D01*
X16432223Y-103214221D01*
X18313097Y-101333347D01*
X18380076Y-101420635D01*
X18579365Y-101619924D01*
X18666651Y-101686901D01*
X16786877Y-103566675D01*
X17004227Y-103756569D01*
X17004244Y-103756582D01*
X17353024Y-104009986D01*
X17723140Y-104231120D01*
X17723146Y-104231123D01*
X18111569Y-104418178D01*
X18111583Y-104418184D01*
X18515209Y-104569667D01*
X18515234Y-104569675D01*
X18930816Y-104684369D01*
X19355023Y-104761351D01*
X19784435Y-104799999D01*
X19784438Y-104800000D01*
X20215562Y-104800000D01*
X20215564Y-104799999D01*
X20644976Y-104761351D01*
X21069183Y-104684369D01*
X21484765Y-104569675D01*
X21484790Y-104569667D01*
X21888416Y-104418184D01*
X21888430Y-104418178D01*
X22276853Y-104231123D01*
X22276859Y-104231120D01*
X22646975Y-104009986D01*
X22995755Y-103756582D01*
X22995772Y-103756569D01*
X23213121Y-103566675D01*
X21333348Y-101686901D01*
X21420635Y-101619924D01*
X21619924Y-101420635D01*
X21686901Y-101333348D01*
X23567775Y-103214222D01*
X23567776Y-103214222D01*
X23618386Y-103161289D01*
X23618386Y-103161288D01*
X23887199Y-102824208D01*
X23887200Y-102824207D01*
X24124705Y-102464399D01*
X24329010Y-102084738D01*
X24329014Y-102084730D01*
X24498454Y-101688304D01*
X24498457Y-101688296D01*
X24631686Y-101278258D01*
X24727621Y-100857938D01*
X24785494Y-100430701D01*
X24785495Y-100430692D01*
X24804838Y-100000003D01*
X24804838Y-99999996D01*
X24785495Y-99569307D01*
X24785494Y-99569298D01*
X24727621Y-99142061D01*
X24631686Y-98721741D01*
X24498457Y-98311703D01*
X24498454Y-98311695D01*
X24329014Y-97915269D01*
X24329010Y-97915261D01*
X24124705Y-97535600D01*
X23887200Y-97175792D01*
X23887199Y-97175791D01*
X23618391Y-96838717D01*
X23567774Y-96785776D01*
X21686900Y-98666650D01*
X21619924Y-98579365D01*
X21420635Y-98380076D01*
X21333346Y-98313097D01*
X23213121Y-96433323D01*
X22995772Y-96243430D01*
X22995755Y-96243417D01*
X22646975Y-95990013D01*
X22276859Y-95768879D01*
X22276853Y-95768876D01*
X21888430Y-95581821D01*
X21888416Y-95581815D01*
X21484790Y-95430332D01*
X21484765Y-95430324D01*
X21069183Y-95315630D01*
X20644976Y-95238648D01*
X20215564Y-95200000D01*
X19784435Y-95200000D01*
X19355023Y-95238648D01*
X18930816Y-95315630D01*
X18515234Y-95430324D01*
X18515209Y-95430332D01*
X18111583Y-95581815D01*
X18111569Y-95581821D01*
X17723146Y-95768876D01*
X17723140Y-95768879D01*
X17353024Y-95990013D01*
X17004235Y-96243423D01*
X16786877Y-96433322D01*
X16786877Y-96433323D01*
X18666652Y-98313098D01*
X18579365Y-98380076D01*
X18380076Y-98579365D01*
X18313098Y-98666651D01*
X16432223Y-96785777D01*
X16381624Y-96838699D01*
X16381612Y-96838712D01*
X16112800Y-97175791D01*
X16112799Y-97175792D01*
X15875294Y-97535600D01*
X15670989Y-97915261D01*
X15670985Y-97915269D01*
X15501545Y-98311695D01*
X15501542Y-98311703D01*
X15368313Y-98721741D01*
X15272378Y-99142061D01*
X15214505Y-99569298D01*
X15214504Y-99569307D01*
X15195162Y-99999996D01*
X12500500Y-99999996D01*
X12500500Y-86357854D01*
X12520185Y-86290815D01*
X12572989Y-86245060D01*
X12642147Y-86235116D01*
X12705703Y-86264141D01*
G37*
%TD.AperFunction*%
%TA.AperFunction,Conductor*%
G36*
X102860650Y-47354785D02*
G01*
X102906405Y-47407589D01*
X102917295Y-47467947D01*
X102913437Y-47521884D01*
X103892512Y-48500958D01*
X103832110Y-48525978D01*
X103725649Y-48597112D01*
X103635112Y-48687649D01*
X103563978Y-48794110D01*
X103538958Y-48854511D01*
X102559883Y-47875436D01*
X102559882Y-47875437D01*
X102453196Y-48017953D01*
X102453191Y-48017961D01*
X102316091Y-48269041D01*
X102216109Y-48537104D01*
X102155300Y-48816637D01*
X102134891Y-49101998D01*
X102134891Y-49102001D01*
X102155300Y-49387362D01*
X102216109Y-49666895D01*
X102316091Y-49934958D01*
X102453191Y-50186038D01*
X102453196Y-50186046D01*
X102559882Y-50328561D01*
X102559883Y-50328562D01*
X103538958Y-49349487D01*
X103563978Y-49409890D01*
X103635112Y-49516351D01*
X103725649Y-49606888D01*
X103832110Y-49678022D01*
X103892511Y-49703041D01*
X102973773Y-50621781D01*
X102912450Y-50655266D01*
X102886092Y-50658100D01*
X100068689Y-50658100D01*
X99943490Y-50665926D01*
X99943468Y-50665928D01*
X99920563Y-50668803D01*
X99912816Y-50669776D01*
X99912747Y-50669784D01*
X99912666Y-50669795D01*
X99912665Y-50669794D01*
X99907713Y-50670428D01*
X99709677Y-50717076D01*
X99709674Y-50717077D01*
X99525089Y-50802631D01*
X99464997Y-50838275D01*
X99395143Y-50883722D01*
X99395141Y-50883724D01*
X99242132Y-51017816D01*
X99147399Y-51119538D01*
X99147398Y-51119537D01*
X99147397Y-51119540D01*
X98335424Y-51991400D01*
X98285598Y-52049145D01*
X98273875Y-52063821D01*
X98184532Y-52195936D01*
X98118587Y-52346068D01*
X98102709Y-52382215D01*
X98081227Y-52448697D01*
X98058910Y-52529001D01*
X98058909Y-52529005D01*
X98032885Y-52730775D01*
X98032885Y-52730779D01*
X97851363Y-59470457D01*
X97829881Y-59536942D01*
X97775864Y-59581258D01*
X97726534Y-59591115D01*
X90566650Y-59540623D01*
X90499751Y-59520466D01*
X90454369Y-59467341D01*
X90444914Y-59398114D01*
X90474386Y-59334764D01*
X90479827Y-59328961D01*
X102437372Y-47371419D01*
X102498695Y-47337934D01*
X102525053Y-47335100D01*
X102793611Y-47335100D01*
X102860650Y-47354785D01*
G37*
%TD.AperFunction*%
%TA.AperFunction,Conductor*%
G36*
X111442539Y-12520185D02*
G01*
X111488294Y-12572989D01*
X111499500Y-12624500D01*
X111499500Y-111375500D01*
X111479815Y-111442539D01*
X111427011Y-111488294D01*
X111375500Y-111499500D01*
X78345500Y-111499500D01*
X78278461Y-111479815D01*
X78232706Y-111427011D01*
X78221500Y-111375500D01*
X78221500Y-99999996D01*
X95195162Y-99999996D01*
X95195162Y-100000003D01*
X95214504Y-100430692D01*
X95214505Y-100430701D01*
X95272378Y-100857938D01*
X95368313Y-101278258D01*
X95501542Y-101688296D01*
X95501545Y-101688304D01*
X95670985Y-102084730D01*
X95670989Y-102084738D01*
X95875294Y-102464399D01*
X96112799Y-102824207D01*
X96112800Y-102824208D01*
X96381608Y-103161282D01*
X96432223Y-103214221D01*
X98313097Y-101333347D01*
X98380076Y-101420635D01*
X98579365Y-101619924D01*
X98666651Y-101686901D01*
X96786877Y-103566675D01*
X97004227Y-103756569D01*
X97004244Y-103756582D01*
X97353024Y-104009986D01*
X97723140Y-104231120D01*
X97723146Y-104231123D01*
X98111569Y-104418178D01*
X98111583Y-104418184D01*
X98515209Y-104569667D01*
X98515234Y-104569675D01*
X98930816Y-104684369D01*
X99355023Y-104761351D01*
X99784435Y-104799999D01*
X99784438Y-104800000D01*
X100215562Y-104800000D01*
X100215564Y-104799999D01*
X100644976Y-104761351D01*
X101069183Y-104684369D01*
X101484765Y-104569675D01*
X101484790Y-104569667D01*
X101888416Y-104418184D01*
X101888430Y-104418178D01*
X102276853Y-104231123D01*
X102276859Y-104231120D01*
X102646975Y-104009986D01*
X102995755Y-103756582D01*
X102995772Y-103756569D01*
X103213121Y-103566675D01*
X101333348Y-101686901D01*
X101420635Y-101619924D01*
X101619924Y-101420635D01*
X101686901Y-101333348D01*
X103567775Y-103214222D01*
X103567776Y-103214222D01*
X103618386Y-103161289D01*
X103618386Y-103161288D01*
X103887199Y-102824208D01*
X103887200Y-102824207D01*
X104124705Y-102464399D01*
X104329010Y-102084738D01*
X104329014Y-102084730D01*
X104498454Y-101688304D01*
X104498457Y-101688296D01*
X104631686Y-101278258D01*
X104727621Y-100857938D01*
X104785494Y-100430701D01*
X104785495Y-100430692D01*
X104804838Y-100000003D01*
X104804838Y-99999996D01*
X104785495Y-99569307D01*
X104785494Y-99569298D01*
X104727621Y-99142061D01*
X104631686Y-98721741D01*
X104498457Y-98311703D01*
X104498454Y-98311695D01*
X104329014Y-97915269D01*
X104329010Y-97915261D01*
X104124705Y-97535600D01*
X103887200Y-97175792D01*
X103887199Y-97175791D01*
X103618391Y-96838717D01*
X103567774Y-96785776D01*
X101686900Y-98666650D01*
X101619924Y-98579365D01*
X101420635Y-98380076D01*
X101333346Y-98313097D01*
X103213121Y-96433323D01*
X102995772Y-96243430D01*
X102995755Y-96243417D01*
X102646975Y-95990013D01*
X102276859Y-95768879D01*
X102276853Y-95768876D01*
X101888430Y-95581821D01*
X101888416Y-95581815D01*
X101484790Y-95430332D01*
X101484765Y-95430324D01*
X101069183Y-95315630D01*
X100644976Y-95238648D01*
X100215564Y-95200000D01*
X99784435Y-95200000D01*
X99355023Y-95238648D01*
X98930816Y-95315630D01*
X98515234Y-95430324D01*
X98515209Y-95430332D01*
X98111583Y-95581815D01*
X98111569Y-95581821D01*
X97723146Y-95768876D01*
X97723140Y-95768879D01*
X97353024Y-95990013D01*
X97004235Y-96243423D01*
X96786877Y-96433322D01*
X96786877Y-96433323D01*
X98666652Y-98313098D01*
X98579365Y-98380076D01*
X98380076Y-98579365D01*
X98313098Y-98666651D01*
X96432223Y-96785777D01*
X96381624Y-96838699D01*
X96381612Y-96838712D01*
X96112800Y-97175791D01*
X96112799Y-97175792D01*
X95875294Y-97535600D01*
X95670989Y-97915261D01*
X95670985Y-97915269D01*
X95501545Y-98311695D01*
X95501542Y-98311703D01*
X95368313Y-98721741D01*
X95272378Y-99142061D01*
X95214505Y-99569298D01*
X95214504Y-99569307D01*
X95195162Y-99999996D01*
X78221500Y-99999996D01*
X78221500Y-80569359D01*
X78218329Y-80510213D01*
X78215738Y-80461871D01*
X78212904Y-80435513D01*
X78174610Y-80248629D01*
X78120241Y-80119479D01*
X78095674Y-80061122D01*
X78095672Y-80061118D01*
X78062187Y-79999795D01*
X78062184Y-79999790D01*
X78019250Y-79928369D01*
X78019242Y-79928358D01*
X77950126Y-79843594D01*
X77890677Y-79770685D01*
X75931315Y-77811323D01*
X75922049Y-77803000D01*
X75851225Y-77739383D01*
X75830596Y-77722760D01*
X75830584Y-77722751D01*
X75671378Y-77617694D01*
X75671376Y-77617693D01*
X75671374Y-77617692D01*
X75482967Y-77540917D01*
X75482964Y-77540916D01*
X75482959Y-77540914D01*
X75482960Y-77540914D01*
X75415931Y-77521233D01*
X75415933Y-77521233D01*
X75415928Y-77521232D01*
X75335044Y-77501083D01*
X75335040Y-77501082D01*
X75335041Y-77501082D01*
X75132639Y-77480500D01*
X75132638Y-77480500D01*
X69127488Y-77480500D01*
X69060449Y-77460815D01*
X69014694Y-77408011D01*
X69004750Y-77338853D01*
X69033775Y-77275297D01*
X69092553Y-77237523D01*
X69093333Y-77237296D01*
X69189049Y-77209909D01*
X69369407Y-77115698D01*
X69527109Y-76987109D01*
X69655698Y-76829407D01*
X69749909Y-76649049D01*
X69805886Y-76453418D01*
X69816500Y-76334037D01*
X69816499Y-73017964D01*
X69805886Y-72898582D01*
X69749909Y-72702951D01*
X69655698Y-72522593D01*
X69603684Y-72458803D01*
X69527109Y-72364890D01*
X69369409Y-72236304D01*
X69369410Y-72236304D01*
X69369407Y-72236302D01*
X69189049Y-72142091D01*
X69189048Y-72142090D01*
X69189045Y-72142089D01*
X69069522Y-72107890D01*
X68993418Y-72086114D01*
X68993415Y-72086113D01*
X68993413Y-72086113D01*
X68927102Y-72080217D01*
X68874037Y-72075500D01*
X68874032Y-72075500D01*
X65557971Y-72075500D01*
X65557965Y-72075500D01*
X65557964Y-72075501D01*
X65546316Y-72076536D01*
X65438584Y-72086113D01*
X65242954Y-72142089D01*
X65152940Y-72189109D01*
X65062593Y-72236302D01*
X65062591Y-72236303D01*
X65062590Y-72236304D01*
X64904890Y-72364890D01*
X64776304Y-72522590D01*
X64682089Y-72702954D01*
X64626114Y-72898583D01*
X64626113Y-72898586D01*
X64615500Y-73017966D01*
X64615500Y-76334028D01*
X64615501Y-76334034D01*
X64626113Y-76453415D01*
X64682089Y-76649045D01*
X64682090Y-76649048D01*
X64682091Y-76649049D01*
X64776302Y-76829407D01*
X64802401Y-76861415D01*
X64904890Y-76987109D01*
X64990661Y-77057045D01*
X65062593Y-77115698D01*
X65242951Y-77209909D01*
X65338623Y-77237284D01*
X65397661Y-77274651D01*
X65427125Y-77338005D01*
X65417660Y-77407230D01*
X65372271Y-77460349D01*
X65305369Y-77480497D01*
X65304512Y-77480500D01*
X62862000Y-77480500D01*
X62861347Y-77480503D01*
X62850420Y-77480566D01*
X62850406Y-77480567D01*
X62648254Y-77503481D01*
X62596753Y-77514685D01*
X62505058Y-77539217D01*
X62318475Y-77620306D01*
X62318474Y-77620306D01*
X62187239Y-77712549D01*
X62121073Y-77734994D01*
X62053275Y-77718105D01*
X62005371Y-77667242D01*
X61992570Y-77598555D01*
X61998157Y-77574176D01*
X61997940Y-77574118D01*
X62028424Y-77460349D01*
X62058555Y-77347897D01*
X62073500Y-77177075D01*
X62073499Y-75876926D01*
X62058555Y-75706103D01*
X61999341Y-75485112D01*
X61902652Y-75277761D01*
X61771425Y-75090351D01*
X61609649Y-74928575D01*
X61422239Y-74797348D01*
X61214888Y-74700659D01*
X61214884Y-74700658D01*
X61214880Y-74700656D01*
X60993902Y-74641446D01*
X60993892Y-74641444D01*
X60823076Y-74626500D01*
X59572926Y-74626500D01*
X59572922Y-74626501D01*
X59436267Y-74638456D01*
X59402103Y-74641445D01*
X59402100Y-74641445D01*
X59181119Y-74700656D01*
X59181110Y-74700660D01*
X58973761Y-74797348D01*
X58786350Y-74928575D01*
X58624575Y-75090350D01*
X58493348Y-75277761D01*
X58422609Y-75429463D01*
X58396660Y-75485110D01*
X58396656Y-75485119D01*
X58337446Y-75706097D01*
X58337444Y-75706107D01*
X58322500Y-75876923D01*
X58322500Y-77177073D01*
X58322501Y-77177077D01*
X58337445Y-77347895D01*
X58337445Y-77347899D01*
X58396656Y-77568880D01*
X58396658Y-77568884D01*
X58396659Y-77568888D01*
X58493348Y-77776239D01*
X58613524Y-77947866D01*
X58635851Y-78014072D01*
X58618841Y-78081840D01*
X58613524Y-78090113D01*
X58489912Y-78266649D01*
X58489910Y-78266653D01*
X58395168Y-78469829D01*
X58395164Y-78469838D01*
X58337146Y-78686368D01*
X58337144Y-78686378D01*
X58322500Y-78853762D01*
X58322500Y-80004237D01*
X58337144Y-80171621D01*
X58337146Y-80171631D01*
X58395164Y-80388161D01*
X58395166Y-80388165D01*
X58395167Y-80388169D01*
X58452070Y-80510198D01*
X58489910Y-80591346D01*
X58618495Y-80774986D01*
X58777013Y-80933504D01*
X58960649Y-81062087D01*
X58960651Y-81062088D01*
X58960654Y-81062090D01*
X59163831Y-81156833D01*
X59380374Y-81214855D01*
X59547762Y-81229499D01*
X59547763Y-81229500D01*
X59547764Y-81229500D01*
X60848237Y-81229500D01*
X60848237Y-81229499D01*
X61015626Y-81214855D01*
X61232169Y-81156833D01*
X61435346Y-81062090D01*
X61537378Y-80990646D01*
X61603582Y-80968320D01*
X61671350Y-80985330D01*
X61719163Y-81036278D01*
X61732500Y-81092222D01*
X61732500Y-85158130D01*
X61744970Y-85315995D01*
X61744971Y-85316006D01*
X61744971Y-85316007D01*
X61751081Y-85354444D01*
X61757773Y-85391938D01*
X61757774Y-85391941D01*
X61817289Y-85586491D01*
X61914749Y-85765078D01*
X61914752Y-85765082D01*
X61914754Y-85765086D01*
X61954251Y-85822708D01*
X62004176Y-85889433D01*
X62004182Y-85889440D01*
X62004186Y-85889445D01*
X62004192Y-85889451D01*
X62147998Y-86033326D01*
X62148013Y-86033340D01*
X66512885Y-89594156D01*
X66552387Y-89651784D01*
X66558500Y-89690237D01*
X66558500Y-105042500D01*
X66538815Y-105109539D01*
X66486011Y-105155294D01*
X66434500Y-105166500D01*
X54437238Y-105166500D01*
X54370199Y-105146815D01*
X54324444Y-105094011D01*
X54314500Y-105024853D01*
X54316915Y-105012527D01*
X54324917Y-104980406D01*
X54345500Y-104778000D01*
X54345500Y-102326681D01*
X54365185Y-102259642D01*
X54417989Y-102213887D01*
X54487147Y-102203943D01*
X54528927Y-102217849D01*
X54599542Y-102256408D01*
X54599541Y-102256408D01*
X54867604Y-102356390D01*
X55147137Y-102417199D01*
X55432499Y-102437609D01*
X55432501Y-102437609D01*
X55717862Y-102417199D01*
X55997395Y-102356390D01*
X56265458Y-102256408D01*
X56516547Y-102119303D01*
X56659061Y-102012616D01*
X56659062Y-102012615D01*
X55679988Y-101033541D01*
X55740390Y-101008522D01*
X55846851Y-100937388D01*
X55937388Y-100846851D01*
X56008522Y-100740390D01*
X56033541Y-100679988D01*
X57012615Y-101659062D01*
X57012616Y-101659061D01*
X57119303Y-101516547D01*
X57256408Y-101265457D01*
X57256410Y-101265453D01*
X57305427Y-101134034D01*
X57347298Y-101078100D01*
X57412763Y-101053683D01*
X57481036Y-101068535D01*
X57530441Y-101117940D01*
X57542500Y-101149775D01*
X57564223Y-101244953D01*
X57564227Y-101244965D01*
X57675532Y-101563054D01*
X57821752Y-101866683D01*
X57921467Y-102025379D01*
X57939986Y-102080367D01*
X57942613Y-102109915D01*
X57945301Y-102119307D01*
X57998591Y-102305549D01*
X58092802Y-102485907D01*
X58092804Y-102485909D01*
X58221390Y-102643609D01*
X58315303Y-102720184D01*
X58379093Y-102772198D01*
X58559451Y-102866409D01*
X58755082Y-102922386D01*
X58784628Y-102925012D01*
X58839620Y-102943531D01*
X58910688Y-102988186D01*
X58998303Y-103043240D01*
X58998310Y-103043243D01*
X58998314Y-103043246D01*
X59301949Y-103189469D01*
X59540848Y-103273063D01*
X59620034Y-103300772D01*
X59620046Y-103300776D01*
X59948606Y-103375767D01*
X60283492Y-103413499D01*
X60283493Y-103413500D01*
X60283496Y-103413500D01*
X60620507Y-103413500D01*
X60620507Y-103413499D01*
X60955394Y-103375767D01*
X61283954Y-103300776D01*
X61602051Y-103189469D01*
X61905686Y-103043246D01*
X62073173Y-102938005D01*
X62105031Y-102923784D01*
X62109916Y-102922386D01*
X62109918Y-102922386D01*
X62305549Y-102866409D01*
X62485907Y-102772198D01*
X62643609Y-102643609D01*
X62772198Y-102485907D01*
X62866409Y-102305549D01*
X62911664Y-102147383D01*
X62925881Y-102115534D01*
X63082246Y-101866686D01*
X63228469Y-101563051D01*
X63339776Y-101244954D01*
X63414767Y-100916394D01*
X63452500Y-100581504D01*
X63452500Y-88985496D01*
X63414767Y-88650606D01*
X63339776Y-88322046D01*
X63228469Y-88003949D01*
X63082246Y-87700314D01*
X62902946Y-87414961D01*
X62692825Y-87151477D01*
X62454523Y-86913175D01*
X55088524Y-79547176D01*
X55088519Y-79547171D01*
X55043046Y-79510909D01*
X55043045Y-79510908D01*
X55017676Y-79490677D01*
X54825039Y-79337054D01*
X54550236Y-79164383D01*
X54539683Y-79157752D01*
X54236054Y-79011532D01*
X53917965Y-78900227D01*
X53917953Y-78900223D01*
X53589397Y-78825233D01*
X53589381Y-78825231D01*
X53254509Y-78787500D01*
X53254505Y-78787500D01*
X53254504Y-78787500D01*
X39243698Y-78787500D01*
X39176659Y-78767815D01*
X39130904Y-78715011D01*
X39120960Y-78645853D01*
X39142122Y-78592378D01*
X39248652Y-78440239D01*
X39345341Y-78232888D01*
X39404555Y-78011897D01*
X39419500Y-77841075D01*
X39419499Y-76590926D01*
X39404555Y-76420103D01*
X39345341Y-76199112D01*
X39248652Y-75991761D01*
X39117425Y-75804351D01*
X38955649Y-75642575D01*
X38768239Y-75511348D01*
X38560888Y-75414659D01*
X38560884Y-75414658D01*
X38560880Y-75414656D01*
X38339902Y-75355446D01*
X38339892Y-75355444D01*
X38169076Y-75340500D01*
X36868926Y-75340500D01*
X36868922Y-75340501D01*
X36732267Y-75352456D01*
X36698103Y-75355445D01*
X36698100Y-75355445D01*
X36477119Y-75414656D01*
X36477112Y-75414658D01*
X36477112Y-75414659D01*
X36325394Y-75485406D01*
X36269761Y-75511348D01*
X36098133Y-75631524D01*
X36031927Y-75653851D01*
X35964159Y-75636841D01*
X35955886Y-75631524D01*
X35779350Y-75507912D01*
X35779346Y-75507910D01*
X35731086Y-75485406D01*
X35576169Y-75413167D01*
X35576165Y-75413166D01*
X35576161Y-75413164D01*
X35359631Y-75355146D01*
X35359621Y-75355144D01*
X35192237Y-75340500D01*
X35192236Y-75340500D01*
X34041764Y-75340500D01*
X34041763Y-75340500D01*
X33874378Y-75355144D01*
X33874368Y-75355146D01*
X33657838Y-75413164D01*
X33657831Y-75413166D01*
X33657831Y-75413167D01*
X33654629Y-75414660D01*
X33454653Y-75507910D01*
X33454649Y-75507912D01*
X33421623Y-75531038D01*
X33355417Y-75553365D01*
X33287649Y-75536355D01*
X33239837Y-75485406D01*
X33226500Y-75429463D01*
X33226500Y-74253492D01*
X33226499Y-74253491D01*
X33222101Y-74214461D01*
X33207067Y-74081025D01*
X33219121Y-74012204D01*
X33266470Y-73960825D01*
X33324177Y-73943293D01*
X34249471Y-73897662D01*
X34437819Y-73870340D01*
X34483222Y-73859285D01*
X34550773Y-73840318D01*
X34737362Y-73759226D01*
X34903809Y-73642234D01*
X34956613Y-73596479D01*
X35073014Y-73477366D01*
X35186143Y-73308270D01*
X35262918Y-73119863D01*
X35282603Y-73052824D01*
X35302752Y-72971940D01*
X35323335Y-72769534D01*
X35323335Y-64726966D01*
X35336426Y-64671512D01*
X35482827Y-64378711D01*
X36401159Y-62542045D01*
X36448746Y-62490887D01*
X36512068Y-62473500D01*
X39510490Y-62473500D01*
X39510500Y-62473500D01*
X39522088Y-62473433D01*
X39724243Y-62450519D01*
X39775754Y-62439313D01*
X39867438Y-62414784D01*
X40054027Y-62333692D01*
X40220474Y-62216700D01*
X40273278Y-62170945D01*
X40389679Y-62051832D01*
X40502808Y-61882736D01*
X40579583Y-61694329D01*
X40599268Y-61627290D01*
X40619417Y-61546406D01*
X40640000Y-61344000D01*
X40640000Y-74930000D01*
X49784000Y-74930000D01*
X49784000Y-70856107D01*
X80782500Y-70856107D01*
X80782500Y-79081677D01*
X80783711Y-79131030D01*
X80784308Y-79143187D01*
X80787938Y-79192398D01*
X80805358Y-79369269D01*
X80805360Y-79369289D01*
X80819832Y-79466860D01*
X80819833Y-79466864D01*
X80824572Y-79490692D01*
X80838718Y-79547171D01*
X80848553Y-79586437D01*
X80898370Y-79750663D01*
X80931626Y-79843602D01*
X80940917Y-79866032D01*
X80940934Y-79866072D01*
X80970400Y-79928369D01*
X80983106Y-79955232D01*
X80983111Y-79955241D01*
X81063996Y-80106568D01*
X81064000Y-80106574D01*
X81114725Y-80191204D01*
X81128230Y-80211416D01*
X81187017Y-80290682D01*
X81187026Y-80290693D01*
X81187032Y-80290701D01*
X81299758Y-80428057D01*
X81332036Y-80465475D01*
X81340176Y-80474455D01*
X81340191Y-80474471D01*
X81374206Y-80510198D01*
X91955801Y-91091793D01*
X91968459Y-91103844D01*
X91991543Y-91125822D01*
X92000523Y-91133962D01*
X92037941Y-91166240D01*
X92175297Y-91278966D01*
X92175302Y-91278969D01*
X92175317Y-91278982D01*
X92254583Y-91337769D01*
X92274795Y-91351274D01*
X92359422Y-91401997D01*
X92359430Y-91402002D01*
X92409872Y-91428963D01*
X92510767Y-91482893D01*
X92510797Y-91482907D01*
X92599926Y-91525064D01*
X92599945Y-91525072D01*
X92622397Y-91534373D01*
X92622402Y-91534374D01*
X92622405Y-91534376D01*
X92715335Y-91567628D01*
X92879558Y-91617444D01*
X92975284Y-91641422D01*
X92975302Y-91641425D01*
X92975318Y-91641429D01*
X92979863Y-91642332D01*
X92999125Y-91646164D01*
X93096720Y-91660640D01*
X93273595Y-91678061D01*
X93322823Y-91681692D01*
X93334977Y-91682289D01*
X93384307Y-91683500D01*
X93384322Y-91683500D01*
X107451892Y-91683500D01*
X107451907Y-91683500D01*
X107501237Y-91682289D01*
X107513391Y-91681692D01*
X107562620Y-91678061D01*
X107739493Y-91660640D01*
X107837087Y-91646164D01*
X107860928Y-91641422D01*
X107956654Y-91617444D01*
X108120877Y-91567628D01*
X108213807Y-91534376D01*
X108236265Y-91525073D01*
X108236276Y-91525067D01*
X108236285Y-91525064D01*
X108272795Y-91507794D01*
X108325445Y-91482893D01*
X108476787Y-91401999D01*
X108561417Y-91351274D01*
X108581629Y-91337769D01*
X108660893Y-91278984D01*
X108793549Y-91170116D01*
X108866662Y-91103850D01*
X108883850Y-91086662D01*
X108950116Y-91013549D01*
X109058984Y-90880893D01*
X109117769Y-90801629D01*
X109131274Y-90781417D01*
X109181999Y-90696787D01*
X109262893Y-90545445D01*
X109305073Y-90456265D01*
X109314376Y-90433807D01*
X109347628Y-90340877D01*
X109397444Y-90176654D01*
X109421422Y-90080928D01*
X109426164Y-90057087D01*
X109440640Y-89959493D01*
X109458061Y-89782620D01*
X109461692Y-89733391D01*
X109462289Y-89721237D01*
X109463500Y-89671907D01*
X109463500Y-84368892D01*
X109462289Y-84319562D01*
X109461692Y-84307408D01*
X109458061Y-84258179D01*
X109440640Y-84081306D01*
X109426164Y-83983712D01*
X109421422Y-83959871D01*
X109397444Y-83864145D01*
X109347628Y-83699922D01*
X109314376Y-83606992D01*
X109305073Y-83584534D01*
X109305071Y-83584530D01*
X109305064Y-83584513D01*
X109262907Y-83495384D01*
X109262893Y-83495354D01*
X109181999Y-83344012D01*
X109131274Y-83259382D01*
X109117769Y-83239170D01*
X109058984Y-83159906D01*
X108950116Y-83027250D01*
X108883850Y-82954137D01*
X108866662Y-82936949D01*
X108793549Y-82870683D01*
X108660893Y-82761815D01*
X108581629Y-82703030D01*
X108561417Y-82689525D01*
X108476785Y-82638799D01*
X108325440Y-82557904D01*
X108236279Y-82515732D01*
X108236272Y-82515729D01*
X108213838Y-82506435D01*
X108213815Y-82506426D01*
X108120867Y-82473167D01*
X107956650Y-82423353D01*
X107932713Y-82417357D01*
X107860905Y-82399372D01*
X107837077Y-82394633D01*
X107837072Y-82394632D01*
X107837075Y-82394632D01*
X107739502Y-82380160D01*
X107739482Y-82380158D01*
X107562612Y-82362738D01*
X107513401Y-82359108D01*
X107501244Y-82358511D01*
X107485541Y-82358125D01*
X107451907Y-82357300D01*
X107451892Y-82357300D01*
X105450608Y-82357300D01*
X105383569Y-82337615D01*
X105362927Y-82320981D01*
X104387488Y-81345541D01*
X104447890Y-81320522D01*
X104554351Y-81249388D01*
X104644888Y-81158851D01*
X104716022Y-81052390D01*
X104741041Y-80991988D01*
X105720115Y-81971062D01*
X105720116Y-81971061D01*
X105826803Y-81828547D01*
X105963908Y-81577458D01*
X106063890Y-81309395D01*
X106124699Y-81029862D01*
X106145109Y-80744501D01*
X106145109Y-80744498D01*
X106124699Y-80459137D01*
X106063890Y-80179604D01*
X105963908Y-79911541D01*
X105826808Y-79660461D01*
X105826807Y-79660460D01*
X105720115Y-79517936D01*
X104741041Y-80497010D01*
X104716022Y-80436610D01*
X104644888Y-80330149D01*
X104554351Y-80239612D01*
X104447890Y-80168478D01*
X104387488Y-80143458D01*
X105366562Y-79164383D01*
X105366561Y-79164382D01*
X105224046Y-79057696D01*
X105224038Y-79057691D01*
X104972957Y-78920591D01*
X104972958Y-78920591D01*
X104704895Y-78820609D01*
X104425362Y-78759800D01*
X104140001Y-78739391D01*
X104139999Y-78739391D01*
X103854637Y-78759800D01*
X103575104Y-78820609D01*
X103307041Y-78920591D01*
X103055961Y-79057691D01*
X103055953Y-79057696D01*
X102913437Y-79164382D01*
X102913436Y-79164383D01*
X103892512Y-80143458D01*
X103832110Y-80168478D01*
X103725649Y-80239612D01*
X103635112Y-80330149D01*
X103563978Y-80436610D01*
X103538958Y-80497011D01*
X102559883Y-79517936D01*
X102559882Y-79517937D01*
X102453196Y-79660453D01*
X102453191Y-79660461D01*
X102316091Y-79911541D01*
X102216109Y-80179604D01*
X102155300Y-80459137D01*
X102134891Y-80744498D01*
X102134891Y-80744501D01*
X102155300Y-81029862D01*
X102216109Y-81309395D01*
X102316091Y-81577458D01*
X102453191Y-81828538D01*
X102453196Y-81828546D01*
X102559882Y-81971061D01*
X102559883Y-81971062D01*
X103538958Y-80991987D01*
X103563978Y-81052390D01*
X103635112Y-81158851D01*
X103725649Y-81249388D01*
X103832110Y-81320522D01*
X103892511Y-81345541D01*
X102917071Y-82320981D01*
X102855748Y-82354466D01*
X102829390Y-82357300D01*
X101864653Y-82357300D01*
X101797614Y-82337615D01*
X101776972Y-82320981D01*
X96037819Y-76581828D01*
X96004334Y-76520505D01*
X96001500Y-76494147D01*
X96001500Y-73625966D01*
X101639500Y-73625966D01*
X101639500Y-76742028D01*
X101639501Y-76742034D01*
X101650113Y-76861415D01*
X101706089Y-77057045D01*
X101706090Y-77057048D01*
X101706091Y-77057049D01*
X101800302Y-77237407D01*
X101831197Y-77275297D01*
X101928890Y-77395109D01*
X102009473Y-77460815D01*
X102086593Y-77523698D01*
X102266951Y-77617909D01*
X102462582Y-77673886D01*
X102581963Y-77684500D01*
X105698036Y-77684499D01*
X105817418Y-77673886D01*
X106013049Y-77617909D01*
X106193407Y-77523698D01*
X106351109Y-77395109D01*
X106479698Y-77237407D01*
X106573909Y-77057049D01*
X106629886Y-76861418D01*
X106640500Y-76742037D01*
X106640499Y-73625964D01*
X106629886Y-73506582D01*
X106573909Y-73310951D01*
X106479698Y-73130593D01*
X106387862Y-73017965D01*
X106351109Y-72972890D01*
X106193409Y-72844304D01*
X106193410Y-72844304D01*
X106193407Y-72844302D01*
X106013049Y-72750091D01*
X106013048Y-72750090D01*
X106013045Y-72750089D01*
X105895829Y-72716550D01*
X105817418Y-72694114D01*
X105817415Y-72694113D01*
X105817413Y-72694113D01*
X105751102Y-72688217D01*
X105698037Y-72683500D01*
X105698032Y-72683500D01*
X102581971Y-72683500D01*
X102581965Y-72683500D01*
X102581964Y-72683501D01*
X102570316Y-72684536D01*
X102462584Y-72694113D01*
X102266954Y-72750089D01*
X102229729Y-72769534D01*
X102086593Y-72844302D01*
X102086591Y-72844303D01*
X102086590Y-72844304D01*
X101928890Y-72972890D01*
X101800304Y-73130590D01*
X101706089Y-73310954D01*
X101650114Y-73506583D01*
X101650113Y-73506586D01*
X101639500Y-73625966D01*
X96001500Y-73625966D01*
X96001500Y-70856107D01*
X96001500Y-70856092D01*
X96000289Y-70806762D01*
X95999692Y-70794608D01*
X95996061Y-70745379D01*
X95978640Y-70568506D01*
X95964164Y-70470912D01*
X95959422Y-70447071D01*
X95935444Y-70351345D01*
X95885628Y-70187122D01*
X95852376Y-70094192D01*
X95852367Y-70094171D01*
X95843072Y-70071732D01*
X95843064Y-70071713D01*
X95800907Y-69982584D01*
X95800901Y-69982571D01*
X95800893Y-69982554D01*
X95746963Y-69881659D01*
X95720002Y-69831217D01*
X95719997Y-69831209D01*
X95719540Y-69830446D01*
X95669274Y-69746582D01*
X95655769Y-69726370D01*
X95596984Y-69647106D01*
X95488116Y-69514450D01*
X95421850Y-69441337D01*
X95404662Y-69424149D01*
X95331549Y-69357883D01*
X95198893Y-69249015D01*
X95119629Y-69190230D01*
X95099417Y-69176725D01*
X95014785Y-69125999D01*
X94863440Y-69045104D01*
X94774279Y-69002932D01*
X94774272Y-69002929D01*
X94751838Y-68993635D01*
X94751815Y-68993626D01*
X94658867Y-68960367D01*
X94494650Y-68910553D01*
X94470713Y-68904557D01*
X94398905Y-68886572D01*
X94375077Y-68881833D01*
X94375072Y-68881832D01*
X94375075Y-68881832D01*
X94277502Y-68867360D01*
X94277482Y-68867358D01*
X94100612Y-68849938D01*
X94051401Y-68846308D01*
X94039244Y-68845711D01*
X94023541Y-68845325D01*
X93989907Y-68844500D01*
X82794093Y-68844500D01*
X82761921Y-68845289D01*
X82744755Y-68845711D01*
X82732598Y-68846308D01*
X82683388Y-68849938D01*
X82506527Y-68867357D01*
X82506483Y-68867362D01*
X82408899Y-68881836D01*
X82389950Y-68885606D01*
X82385064Y-68886578D01*
X82385059Y-68886579D01*
X82385055Y-68886580D01*
X82336643Y-68898706D01*
X82289356Y-68910552D01*
X82289353Y-68910553D01*
X82289352Y-68910553D01*
X82125119Y-68960371D01*
X82032182Y-68993625D01*
X82032145Y-68993640D01*
X82009744Y-69002920D01*
X82009721Y-69002930D01*
X81920571Y-69045097D01*
X81920566Y-69045099D01*
X81920561Y-69045102D01*
X81836475Y-69090046D01*
X81769199Y-69126006D01*
X81684575Y-69176728D01*
X81664387Y-69190216D01*
X81585107Y-69249014D01*
X81585099Y-69249021D01*
X81452453Y-69357880D01*
X81452450Y-69357882D01*
X81379334Y-69424150D01*
X81362150Y-69441334D01*
X81295882Y-69514450D01*
X81295880Y-69514453D01*
X81187021Y-69647099D01*
X81187014Y-69647107D01*
X81128216Y-69726387D01*
X81114728Y-69746575D01*
X81064006Y-69831199D01*
X81061816Y-69835296D01*
X80984058Y-69980774D01*
X80983097Y-69982571D01*
X80940930Y-70071721D01*
X80940920Y-70071744D01*
X80931640Y-70094145D01*
X80931625Y-70094182D01*
X80898371Y-70187119D01*
X80848553Y-70351352D01*
X80848553Y-70351353D01*
X80824580Y-70447055D01*
X80819836Y-70470899D01*
X80805362Y-70568483D01*
X80805357Y-70568527D01*
X80787938Y-70745387D01*
X80784308Y-70794597D01*
X80783711Y-70806754D01*
X80782500Y-70856107D01*
X49784000Y-70856107D01*
X49784000Y-61343989D01*
X49784066Y-61355579D01*
X49784067Y-61355593D01*
X49806981Y-61557743D01*
X49818187Y-61609254D01*
X49838150Y-61683873D01*
X49842717Y-61700941D01*
X49923806Y-61887524D01*
X49923810Y-61887531D01*
X50039293Y-62051830D01*
X50040800Y-62053974D01*
X50086555Y-62106778D01*
X50158936Y-62177511D01*
X50205669Y-62223180D01*
X50344602Y-62316129D01*
X50374764Y-62336308D01*
X50563171Y-62413083D01*
X50563177Y-62413085D01*
X50578187Y-62417492D01*
X50630210Y-62432768D01*
X50711094Y-62452917D01*
X50846031Y-62466639D01*
X50913499Y-62473500D01*
X50913500Y-62473500D01*
X51576303Y-62473500D01*
X51626663Y-62484186D01*
X53022862Y-63104719D01*
X53076128Y-63149934D01*
X53096494Y-63216769D01*
X53096500Y-63218031D01*
X53096500Y-69217989D01*
X53096566Y-69229579D01*
X53096567Y-69229593D01*
X53119481Y-69431745D01*
X53121567Y-69441332D01*
X53130687Y-69483254D01*
X53150946Y-69558979D01*
X53155217Y-69574941D01*
X53236306Y-69761524D01*
X53236310Y-69761531D01*
X53353294Y-69927966D01*
X53353300Y-69927974D01*
X53399055Y-69980778D01*
X53515063Y-70094145D01*
X53518169Y-70097180D01*
X53647938Y-70183998D01*
X53687264Y-70210308D01*
X53875671Y-70287083D01*
X53875677Y-70287085D01*
X53890687Y-70291492D01*
X53942710Y-70306768D01*
X54023594Y-70326917D01*
X54141470Y-70338904D01*
X54225999Y-70347500D01*
X54226000Y-70347500D01*
X58876640Y-70347500D01*
X58887387Y-70346923D01*
X58984129Y-70341738D01*
X59010487Y-70338904D01*
X59197371Y-70300610D01*
X59384882Y-70221672D01*
X59446205Y-70188187D01*
X59517638Y-70145245D01*
X59675315Y-70016677D01*
X59856677Y-69835315D01*
X59928612Y-69755230D01*
X59945246Y-69734588D01*
X60050308Y-69575374D01*
X60127083Y-69386967D01*
X60146768Y-69319928D01*
X60166917Y-69239044D01*
X60187500Y-69036638D01*
X60187500Y-60008561D01*
X60168554Y-59814289D01*
X60159296Y-59767275D01*
X60142052Y-59694213D01*
X60068397Y-59504564D01*
X59958073Y-59333625D01*
X59958072Y-59333623D01*
X59914432Y-59279044D01*
X59859740Y-59216173D01*
X59859737Y-59216170D01*
X59705728Y-59083241D01*
X59483252Y-58927508D01*
X59409959Y-58876203D01*
X59409960Y-58876203D01*
X54678616Y-55564262D01*
X53382391Y-54656903D01*
X53338758Y-54602332D01*
X53329500Y-54555318D01*
X53329500Y-51093730D01*
X53349064Y-51026877D01*
X53391551Y-50960508D01*
X53423074Y-50898154D01*
X53464777Y-50795290D01*
X53485646Y-50743813D01*
X53485646Y-50743812D01*
X53485648Y-50743808D01*
X53495638Y-50694752D01*
X53528305Y-50632991D01*
X53589178Y-50598694D01*
X53617144Y-50595499D01*
X54473074Y-50595499D01*
X54643897Y-50580555D01*
X54864888Y-50521341D01*
X55072239Y-50424652D01*
X55259649Y-50293425D01*
X55421425Y-50131649D01*
X55552652Y-49944239D01*
X55649341Y-49736888D01*
X55708555Y-49515897D01*
X55723500Y-49345075D01*
X55723499Y-48044926D01*
X55708555Y-47874103D01*
X55649341Y-47653112D01*
X55552652Y-47445761D01*
X55432476Y-47274133D01*
X55410148Y-47207927D01*
X55427158Y-47140160D01*
X55432458Y-47131910D01*
X55556090Y-46955346D01*
X55650833Y-46752169D01*
X55708855Y-46535626D01*
X55723500Y-46368236D01*
X55723500Y-45396923D01*
X57560500Y-45396923D01*
X57560500Y-46697073D01*
X57560501Y-46697077D01*
X57575445Y-46867895D01*
X57575445Y-46867899D01*
X57634656Y-47088880D01*
X57634658Y-47088884D01*
X57634659Y-47088888D01*
X57731348Y-47296239D01*
X57851524Y-47467866D01*
X57873851Y-47534072D01*
X57856841Y-47601840D01*
X57851524Y-47610113D01*
X57727912Y-47786649D01*
X57727910Y-47786653D01*
X57633168Y-47989829D01*
X57633164Y-47989838D01*
X57575146Y-48206368D01*
X57575144Y-48206378D01*
X57560500Y-48373762D01*
X57560500Y-49524237D01*
X57575144Y-49691621D01*
X57575146Y-49691631D01*
X57633164Y-49908161D01*
X57633166Y-49908165D01*
X57633167Y-49908169D01*
X57727910Y-50111346D01*
X57727912Y-50111350D01*
X57856495Y-50294986D01*
X58015013Y-50453504D01*
X58198649Y-50582087D01*
X58198651Y-50582088D01*
X58198654Y-50582090D01*
X58401831Y-50676833D01*
X58401837Y-50676834D01*
X58401838Y-50676835D01*
X58408735Y-50678683D01*
X58618374Y-50734855D01*
X58785762Y-50749499D01*
X58785763Y-50749500D01*
X58785764Y-50749500D01*
X60086237Y-50749500D01*
X60086237Y-50749499D01*
X60253626Y-50734855D01*
X60470169Y-50676833D01*
X60673346Y-50582090D01*
X60856985Y-50453505D01*
X61015505Y-50294985D01*
X61144090Y-50111346D01*
X61238833Y-49908169D01*
X61296855Y-49691626D01*
X61311500Y-49524236D01*
X61311500Y-48373764D01*
X61296855Y-48206374D01*
X61238833Y-47989831D01*
X61144090Y-47786654D01*
X61144088Y-47786651D01*
X61144087Y-47786649D01*
X61020475Y-47610113D01*
X60998148Y-47543907D01*
X61015158Y-47476140D01*
X61020476Y-47467866D01*
X61140652Y-47296239D01*
X61237341Y-47088888D01*
X61296555Y-46867897D01*
X61311500Y-46697075D01*
X61311499Y-45396926D01*
X61296555Y-45226103D01*
X61237341Y-45005112D01*
X61140652Y-44797761D01*
X61009425Y-44610351D01*
X60847649Y-44448575D01*
X60660239Y-44317348D01*
X60452888Y-44220659D01*
X60452884Y-44220658D01*
X60452880Y-44220656D01*
X60231902Y-44161446D01*
X60231892Y-44161444D01*
X60061076Y-44146500D01*
X58810926Y-44146500D01*
X58810922Y-44146501D01*
X58674267Y-44158456D01*
X58640103Y-44161445D01*
X58640100Y-44161445D01*
X58419119Y-44220656D01*
X58419110Y-44220660D01*
X58211761Y-44317348D01*
X58024350Y-44448575D01*
X57862575Y-44610350D01*
X57731348Y-44797761D01*
X57634660Y-45005110D01*
X57634656Y-45005119D01*
X57575446Y-45226097D01*
X57575444Y-45226107D01*
X57560500Y-45396923D01*
X55723500Y-45396923D01*
X55723500Y-45217764D01*
X55708855Y-45050374D01*
X55650833Y-44833831D01*
X55556090Y-44630654D01*
X55556088Y-44630651D01*
X55556087Y-44630649D01*
X55427504Y-44447013D01*
X55268986Y-44288495D01*
X55085350Y-44159912D01*
X55085346Y-44159910D01*
X55056588Y-44146500D01*
X54882169Y-44065167D01*
X54882165Y-44065166D01*
X54882161Y-44065164D01*
X54665631Y-44007146D01*
X54665621Y-44007144D01*
X54498237Y-43992500D01*
X54498236Y-43992500D01*
X53962796Y-43992500D01*
X53895757Y-43972815D01*
X53850002Y-43920011D01*
X53838799Y-43869372D01*
X53838340Y-43804060D01*
X53838251Y-43796003D01*
X53814626Y-43593930D01*
X53803423Y-43543291D01*
X53779652Y-43455062D01*
X53698560Y-43268473D01*
X53698559Y-43268471D01*
X53698557Y-43268468D01*
X53581573Y-43102033D01*
X53581572Y-43102032D01*
X53581568Y-43102026D01*
X53535813Y-43049222D01*
X53416700Y-42932821D01*
X53416698Y-42932819D01*
X53247606Y-42819693D01*
X53247599Y-42819690D01*
X53059196Y-42742916D01*
X53059190Y-42742914D01*
X52992161Y-42723233D01*
X52992163Y-42723233D01*
X52992158Y-42723232D01*
X52911274Y-42703083D01*
X52911270Y-42703082D01*
X52911271Y-42703082D01*
X52708869Y-42682500D01*
X52708868Y-42682500D01*
X46241309Y-42682500D01*
X46238392Y-42682466D01*
X25764583Y-42200729D01*
X25698025Y-42179473D01*
X25653525Y-42125607D01*
X25643500Y-42076763D01*
X25643500Y-39748010D01*
X25643433Y-39736420D01*
X25643433Y-39736412D01*
X25620519Y-39534257D01*
X25609313Y-39482746D01*
X25584784Y-39391062D01*
X25503692Y-39204473D01*
X25503691Y-39204471D01*
X25503689Y-39204468D01*
X25386705Y-39038033D01*
X25386704Y-39038032D01*
X25386700Y-39038026D01*
X25340945Y-38985222D01*
X25221832Y-38868821D01*
X25221830Y-38868819D01*
X25052738Y-38755693D01*
X25052731Y-38755690D01*
X24864328Y-38678916D01*
X24864322Y-38678914D01*
X24797293Y-38659233D01*
X24797295Y-38659233D01*
X24797290Y-38659232D01*
X24716406Y-38639083D01*
X24716402Y-38639082D01*
X24716403Y-38639082D01*
X24514001Y-38618500D01*
X24514000Y-38618500D01*
X20084349Y-38618500D01*
X20017310Y-38598815D01*
X19971555Y-38546011D01*
X19961410Y-38478315D01*
X19975500Y-38371288D01*
X19975500Y-38128711D01*
X19956577Y-37984978D01*
X19943838Y-37888211D01*
X19881054Y-37653900D01*
X19788224Y-37429788D01*
X19666936Y-37219711D01*
X19556266Y-37075483D01*
X19531074Y-37010317D01*
X19545112Y-36941873D01*
X19556261Y-36924523D01*
X19666936Y-36780289D01*
X19788224Y-36570212D01*
X19881054Y-36346100D01*
X19943838Y-36111789D01*
X19975500Y-35871288D01*
X19975500Y-35628712D01*
X19943838Y-35388211D01*
X19881054Y-35153900D01*
X19788224Y-34929788D01*
X19776662Y-34909762D01*
X31292500Y-34909762D01*
X31292500Y-36210237D01*
X31307144Y-36377621D01*
X31307146Y-36377631D01*
X31365164Y-36594161D01*
X31365166Y-36594165D01*
X31365167Y-36594169D01*
X31451956Y-36780289D01*
X31459910Y-36797346D01*
X31459912Y-36797350D01*
X31588495Y-36980986D01*
X31747013Y-37139504D01*
X31930649Y-37268087D01*
X31930651Y-37268088D01*
X31930654Y-37268090D01*
X32133831Y-37362833D01*
X32350374Y-37420855D01*
X32517762Y-37435499D01*
X32517763Y-37435500D01*
X32517764Y-37435500D01*
X33668237Y-37435500D01*
X33668237Y-37435499D01*
X33835626Y-37420855D01*
X34052169Y-37362833D01*
X34255346Y-37268090D01*
X34431889Y-37144473D01*
X34498091Y-37122148D01*
X34565859Y-37139158D01*
X34574133Y-37144476D01*
X34661434Y-37205605D01*
X34745761Y-37264652D01*
X34953112Y-37361341D01*
X34953118Y-37361342D01*
X34953119Y-37361343D01*
X35006309Y-37375595D01*
X35174103Y-37420555D01*
X35344925Y-37435500D01*
X36645074Y-37435499D01*
X36815897Y-37420555D01*
X37036888Y-37361341D01*
X37244239Y-37264652D01*
X37431649Y-37133425D01*
X37593425Y-36971649D01*
X37724652Y-36784239D01*
X37821341Y-36576888D01*
X37880555Y-36355897D01*
X37895500Y-36185075D01*
X37895499Y-34934926D01*
X37880555Y-34764103D01*
X37821341Y-34543112D01*
X37724652Y-34335761D01*
X37593425Y-34148351D01*
X37431649Y-33986575D01*
X37244239Y-33855348D01*
X37036888Y-33758659D01*
X37036884Y-33758658D01*
X37036880Y-33758656D01*
X36815902Y-33699446D01*
X36815892Y-33699444D01*
X36645076Y-33684500D01*
X35344926Y-33684500D01*
X35344922Y-33684501D01*
X35208267Y-33696456D01*
X35174103Y-33699445D01*
X35174100Y-33699445D01*
X34953119Y-33758656D01*
X34953110Y-33758660D01*
X34745761Y-33855348D01*
X34574133Y-33975524D01*
X34507927Y-33997851D01*
X34440159Y-33980841D01*
X34431886Y-33975524D01*
X34255350Y-33851912D01*
X34255346Y-33851910D01*
X34052169Y-33757167D01*
X34052165Y-33757166D01*
X34052161Y-33757164D01*
X33835631Y-33699146D01*
X33835621Y-33699144D01*
X33668237Y-33684500D01*
X33668236Y-33684500D01*
X32517764Y-33684500D01*
X32517763Y-33684500D01*
X32350378Y-33699144D01*
X32350368Y-33699146D01*
X32133838Y-33757164D01*
X32133831Y-33757166D01*
X32133831Y-33757167D01*
X32130629Y-33758660D01*
X31930653Y-33851910D01*
X31930649Y-33851912D01*
X31747013Y-33980495D01*
X31588495Y-34139013D01*
X31459912Y-34322649D01*
X31459910Y-34322653D01*
X31365168Y-34525829D01*
X31365164Y-34525838D01*
X31307146Y-34742368D01*
X31307144Y-34742378D01*
X31292500Y-34909762D01*
X19776662Y-34909762D01*
X19666936Y-34719711D01*
X19606018Y-34640321D01*
X19519266Y-34527263D01*
X19519260Y-34527256D01*
X19347743Y-34355739D01*
X19347736Y-34355733D01*
X19214094Y-34253186D01*
X19172891Y-34196758D01*
X19168736Y-34127012D01*
X19189262Y-34081924D01*
X19279622Y-33957554D01*
X19376095Y-33768217D01*
X19441757Y-33566129D01*
X19441757Y-33566126D01*
X19452231Y-33500000D01*
X18404146Y-33500000D01*
X18442630Y-33433343D01*
X18475000Y-33312535D01*
X18475000Y-33187465D01*
X18442630Y-33066657D01*
X18404146Y-33000000D01*
X19452231Y-33000000D01*
X19441757Y-32933873D01*
X19441757Y-32933870D01*
X19376095Y-32731782D01*
X19279620Y-32542442D01*
X19154727Y-32370540D01*
X19154723Y-32370535D01*
X19004464Y-32220276D01*
X19004459Y-32220272D01*
X18832557Y-32095379D01*
X18643217Y-31998904D01*
X18441128Y-31933242D01*
X18250000Y-31902969D01*
X18250000Y-32845854D01*
X18183343Y-32807370D01*
X18062535Y-32775000D01*
X17937465Y-32775000D01*
X17816657Y-32807370D01*
X17750000Y-32845854D01*
X17750000Y-31902969D01*
X17558872Y-31933242D01*
X17558869Y-31933242D01*
X17356782Y-31998904D01*
X17167442Y-32095379D01*
X16995540Y-32220272D01*
X16995535Y-32220276D01*
X16845276Y-32370535D01*
X16845272Y-32370540D01*
X16720379Y-32542442D01*
X16677416Y-32626761D01*
X16629441Y-32677557D01*
X16561620Y-32694352D01*
X16497980Y-32673528D01*
X16477301Y-32659693D01*
X16477294Y-32659690D01*
X16288891Y-32582916D01*
X16288885Y-32582914D01*
X16221856Y-32563233D01*
X16221858Y-32563233D01*
X16221853Y-32563232D01*
X16140969Y-32543083D01*
X16140965Y-32543082D01*
X16140966Y-32543082D01*
X15938564Y-32522500D01*
X15938563Y-32522500D01*
X12624500Y-32522500D01*
X12557461Y-32502815D01*
X12511706Y-32450011D01*
X12500500Y-32398500D01*
X12500500Y-19999996D01*
X15195162Y-19999996D01*
X15195162Y-20000003D01*
X15214504Y-20430692D01*
X15214505Y-20430701D01*
X15272378Y-20857938D01*
X15368313Y-21278258D01*
X15501542Y-21688296D01*
X15501545Y-21688304D01*
X15670985Y-22084730D01*
X15670989Y-22084738D01*
X15875294Y-22464399D01*
X16112799Y-22824207D01*
X16112800Y-22824208D01*
X16381608Y-23161282D01*
X16432223Y-23214221D01*
X18313097Y-21333347D01*
X18380076Y-21420635D01*
X18579365Y-21619924D01*
X18666651Y-21686901D01*
X16786877Y-23566675D01*
X17004227Y-23756569D01*
X17004244Y-23756582D01*
X17353024Y-24009986D01*
X17723140Y-24231120D01*
X17723146Y-24231123D01*
X18111569Y-24418178D01*
X18111583Y-24418184D01*
X18515209Y-24569667D01*
X18515234Y-24569675D01*
X18930816Y-24684369D01*
X19355023Y-24761351D01*
X19784435Y-24799999D01*
X19784438Y-24800000D01*
X20215562Y-24800000D01*
X20215564Y-24799999D01*
X20644976Y-24761351D01*
X21069183Y-24684369D01*
X21484765Y-24569675D01*
X21484790Y-24569667D01*
X21888416Y-24418184D01*
X21888430Y-24418178D01*
X22276853Y-24231123D01*
X22276859Y-24231120D01*
X22646975Y-24009986D01*
X22995755Y-23756582D01*
X22995772Y-23756569D01*
X23213121Y-23566675D01*
X21333348Y-21686901D01*
X21420635Y-21619924D01*
X21619924Y-21420635D01*
X21686901Y-21333348D01*
X23567775Y-23214222D01*
X23567776Y-23214222D01*
X23618386Y-23161289D01*
X23618386Y-23161288D01*
X23887199Y-22824208D01*
X23887200Y-22824207D01*
X24124705Y-22464399D01*
X24329010Y-22084738D01*
X24329014Y-22084730D01*
X24498454Y-21688304D01*
X24498457Y-21688296D01*
X24631686Y-21278258D01*
X24727621Y-20857938D01*
X24785494Y-20430701D01*
X24785495Y-20430692D01*
X24804838Y-20000003D01*
X24804838Y-19999996D01*
X45195162Y-19999996D01*
X45195162Y-20000003D01*
X45214504Y-20430692D01*
X45214505Y-20430701D01*
X45272378Y-20857938D01*
X45368313Y-21278258D01*
X45501542Y-21688296D01*
X45501545Y-21688304D01*
X45670985Y-22084730D01*
X45670989Y-22084738D01*
X45875294Y-22464399D01*
X46112799Y-22824207D01*
X46112800Y-22824208D01*
X46381608Y-23161282D01*
X46432223Y-23214221D01*
X48313097Y-21333347D01*
X48380076Y-21420635D01*
X48579365Y-21619924D01*
X48666651Y-21686901D01*
X46786877Y-23566675D01*
X47004227Y-23756569D01*
X47004244Y-23756582D01*
X47353024Y-24009986D01*
X47723140Y-24231120D01*
X47723146Y-24231123D01*
X48111569Y-24418178D01*
X48111583Y-24418184D01*
X48515209Y-24569667D01*
X48515234Y-24569675D01*
X48930816Y-24684369D01*
X49355023Y-24761351D01*
X49784435Y-24799999D01*
X49784438Y-24800000D01*
X50215562Y-24800000D01*
X50215564Y-24799999D01*
X50644976Y-24761351D01*
X51069183Y-24684369D01*
X51484765Y-24569675D01*
X51484790Y-24569667D01*
X51888416Y-24418184D01*
X51888430Y-24418178D01*
X52276853Y-24231123D01*
X52276859Y-24231120D01*
X52646975Y-24009986D01*
X52995755Y-23756582D01*
X52995772Y-23756569D01*
X53213121Y-23566675D01*
X51333348Y-21686901D01*
X51420635Y-21619924D01*
X51619924Y-21420635D01*
X51686901Y-21333348D01*
X53567775Y-23214222D01*
X53567776Y-23214222D01*
X53618386Y-23161289D01*
X53618386Y-23161288D01*
X53887199Y-22824208D01*
X53887200Y-22824207D01*
X54124705Y-22464399D01*
X54329010Y-22084738D01*
X54329014Y-22084730D01*
X54498454Y-21688304D01*
X54498457Y-21688296D01*
X54631686Y-21278258D01*
X54727621Y-20857938D01*
X54785494Y-20430701D01*
X54785495Y-20430692D01*
X54804838Y-20000003D01*
X54804838Y-19999996D01*
X54785495Y-19569307D01*
X54785494Y-19569298D01*
X54727621Y-19142061D01*
X54631686Y-18721741D01*
X54498457Y-18311703D01*
X54498454Y-18311695D01*
X54329014Y-17915269D01*
X54329010Y-17915261D01*
X54186265Y-17649998D01*
X63256500Y-17649998D01*
X63256500Y-26618640D01*
X63262261Y-26726111D01*
X63262263Y-26726142D01*
X63265095Y-26752484D01*
X63303389Y-26939369D01*
X63382325Y-27126877D01*
X63415815Y-27188209D01*
X63458749Y-27259630D01*
X63458755Y-27259638D01*
X63587323Y-27417315D01*
X65800685Y-29630677D01*
X65800703Y-29630693D01*
X65880774Y-29702616D01*
X65901403Y-29719239D01*
X65901415Y-29719248D01*
X65909860Y-29724821D01*
X66060626Y-29824308D01*
X66249033Y-29901083D01*
X66249040Y-29901085D01*
X66249039Y-29901085D01*
X66264049Y-29905492D01*
X66316072Y-29920768D01*
X66396956Y-29940917D01*
X66531893Y-29954639D01*
X66599361Y-29961500D01*
X66599362Y-29961500D01*
X73090546Y-29961500D01*
X73157585Y-29981185D01*
X73178227Y-29997819D01*
X76682181Y-33501773D01*
X76715666Y-33563096D01*
X76718500Y-33589454D01*
X76718500Y-38302640D01*
X76724261Y-38410111D01*
X76724263Y-38410142D01*
X76727095Y-38436484D01*
X76765389Y-38623369D01*
X76844325Y-38810877D01*
X76877815Y-38872209D01*
X76920749Y-38943630D01*
X76920757Y-38943641D01*
X76985251Y-39022736D01*
X77049323Y-39101315D01*
X81548685Y-43600677D01*
X81548703Y-43600693D01*
X81628774Y-43672616D01*
X81649403Y-43689239D01*
X81649415Y-43689248D01*
X81775098Y-43772184D01*
X81808626Y-43794308D01*
X81997033Y-43871083D01*
X81997040Y-43871085D01*
X81997039Y-43871085D01*
X82012049Y-43875492D01*
X82064072Y-43890768D01*
X82144956Y-43910917D01*
X82262832Y-43922904D01*
X82347361Y-43931500D01*
X82347362Y-43931500D01*
X93471440Y-43931500D01*
X93482187Y-43930923D01*
X93578929Y-43925738D01*
X93605287Y-43922904D01*
X93792171Y-43884610D01*
X93979682Y-43805672D01*
X94041005Y-43772187D01*
X94112438Y-43729245D01*
X94270115Y-43600677D01*
X95670677Y-42200115D01*
X95742612Y-42120030D01*
X95759246Y-42099388D01*
X95864308Y-41940174D01*
X95941083Y-41751767D01*
X95960768Y-41684728D01*
X95980917Y-41603844D01*
X96001500Y-41401438D01*
X96001500Y-39737500D01*
X96021185Y-39670461D01*
X96073989Y-39624706D01*
X96125500Y-39613500D01*
X101515159Y-39613500D01*
X101605529Y-39605217D01*
X101697925Y-39596749D01*
X101742253Y-39588555D01*
X101804159Y-39575082D01*
X101995473Y-39505865D01*
X102168936Y-39399554D01*
X102168938Y-39399551D01*
X102170332Y-39398698D01*
X102237777Y-39380450D01*
X102304381Y-39401563D01*
X102343960Y-39444995D01*
X102453191Y-39645038D01*
X102453196Y-39645046D01*
X102559882Y-39787561D01*
X102559883Y-39787562D01*
X103538957Y-38808487D01*
X103563978Y-38868890D01*
X103635112Y-38975351D01*
X103725649Y-39065888D01*
X103832110Y-39137022D01*
X103892511Y-39162041D01*
X102948372Y-40106181D01*
X102887049Y-40139666D01*
X102860691Y-40142500D01*
X99868740Y-40142500D01*
X99793528Y-40145317D01*
X99775030Y-40146704D01*
X99618369Y-40170988D01*
X99426179Y-40237686D01*
X99426164Y-40237692D01*
X99362826Y-40267153D01*
X99288774Y-40305407D01*
X99123135Y-40423565D01*
X90779289Y-47756036D01*
X90755265Y-47777843D01*
X90749483Y-47783264D01*
X90726156Y-47805851D01*
X88773827Y-49758181D01*
X88712504Y-49791666D01*
X88686146Y-49794500D01*
X84633360Y-49794500D01*
X84525888Y-49800261D01*
X84525879Y-49800261D01*
X84525871Y-49800262D01*
X84525868Y-49800262D01*
X84525857Y-49800263D01*
X84499515Y-49803095D01*
X84312630Y-49841389D01*
X84125122Y-49920325D01*
X84063790Y-49953815D01*
X83992369Y-49996749D01*
X83992358Y-49996757D01*
X83834682Y-50125325D01*
X82129336Y-51830671D01*
X82129306Y-51830703D01*
X82057383Y-51910774D01*
X82040760Y-51931403D01*
X82040751Y-51931415D01*
X81935694Y-52090621D01*
X81935693Y-52090623D01*
X81858914Y-52279040D01*
X81839233Y-52346068D01*
X81819082Y-52426959D01*
X81798500Y-52629360D01*
X81798500Y-59353912D01*
X81778815Y-59420951D01*
X81726011Y-59466706D01*
X81673626Y-59477909D01*
X77686273Y-59449790D01*
X77619374Y-59429633D01*
X77599466Y-59413474D01*
X75717819Y-57531827D01*
X75684334Y-57470504D01*
X75681500Y-57444146D01*
X75681500Y-33398010D01*
X75681433Y-33386420D01*
X75681433Y-33386412D01*
X75658519Y-33184257D01*
X75647313Y-33132746D01*
X75622784Y-33041062D01*
X75541692Y-32854473D01*
X75541691Y-32854471D01*
X75541689Y-32854468D01*
X75424705Y-32688033D01*
X75424704Y-32688032D01*
X75424700Y-32688026D01*
X75378945Y-32635222D01*
X75259832Y-32518821D01*
X75259830Y-32518819D01*
X75090738Y-32405693D01*
X75090731Y-32405690D01*
X74902328Y-32328916D01*
X74902322Y-32328914D01*
X74835293Y-32309233D01*
X74835295Y-32309233D01*
X74835290Y-32309232D01*
X74754406Y-32289083D01*
X74754402Y-32289082D01*
X74754403Y-32289082D01*
X74552001Y-32268500D01*
X74552000Y-32268500D01*
X65402000Y-32268500D01*
X65401347Y-32268503D01*
X65390420Y-32268566D01*
X65390406Y-32268567D01*
X65188254Y-32291481D01*
X65136753Y-32302685D01*
X65045058Y-32327217D01*
X64858475Y-32408306D01*
X64858468Y-32408310D01*
X64692033Y-32525294D01*
X64692020Y-32525305D01*
X64639225Y-32571052D01*
X64522819Y-32690169D01*
X64409693Y-32859261D01*
X64409690Y-32859268D01*
X64332916Y-33047671D01*
X64332914Y-33047677D01*
X64313233Y-33114706D01*
X64293082Y-33195597D01*
X64272500Y-33397998D01*
X64272500Y-66169989D01*
X64272566Y-66181579D01*
X64272567Y-66181593D01*
X64295481Y-66383745D01*
X64306685Y-66435246D01*
X64331217Y-66526941D01*
X64412306Y-66713524D01*
X64412310Y-66713531D01*
X64528412Y-66878711D01*
X64529300Y-66879974D01*
X64575055Y-66932778D01*
X64694168Y-67049179D01*
X64863264Y-67162308D01*
X65051671Y-67239083D01*
X65051677Y-67239085D01*
X65066687Y-67243492D01*
X65118710Y-67258768D01*
X65199594Y-67278917D01*
X65334531Y-67292639D01*
X65401999Y-67299500D01*
X65402000Y-67299500D01*
X91709915Y-67299500D01*
X91759966Y-67310050D01*
X92437494Y-67608959D01*
X94166601Y-68371800D01*
X94169992Y-68373286D01*
X94171267Y-68373845D01*
X94365070Y-68435729D01*
X94365071Y-68435729D01*
X94365074Y-68435730D01*
X94415125Y-68446280D01*
X94420106Y-68447317D01*
X94565831Y-68462136D01*
X94622511Y-68467900D01*
X102789977Y-68467900D01*
X102857016Y-68487585D01*
X102902771Y-68540389D01*
X102913661Y-68600746D01*
X102913436Y-68603883D01*
X103892512Y-69582958D01*
X103832110Y-69607978D01*
X103725649Y-69679112D01*
X103635112Y-69769649D01*
X103563978Y-69876110D01*
X103538958Y-69936511D01*
X102559883Y-68957436D01*
X102559882Y-68957437D01*
X102453196Y-69099953D01*
X102453191Y-69099961D01*
X102316091Y-69351041D01*
X102216109Y-69619104D01*
X102155300Y-69898637D01*
X102134891Y-70183998D01*
X102134891Y-70184001D01*
X102155300Y-70469362D01*
X102216109Y-70748895D01*
X102316091Y-71016958D01*
X102453191Y-71268038D01*
X102453196Y-71268046D01*
X102559882Y-71410561D01*
X102559883Y-71410562D01*
X103538958Y-70431487D01*
X103563978Y-70491890D01*
X103635112Y-70598351D01*
X103725649Y-70688888D01*
X103832110Y-70760022D01*
X103892511Y-70785041D01*
X102913436Y-71764115D01*
X103055960Y-71870807D01*
X103055961Y-71870808D01*
X103307042Y-72007908D01*
X103307041Y-72007908D01*
X103575104Y-72107890D01*
X103854637Y-72168699D01*
X104139999Y-72189109D01*
X104140001Y-72189109D01*
X104425362Y-72168699D01*
X104704895Y-72107890D01*
X104972958Y-72007908D01*
X105224047Y-71870803D01*
X105366561Y-71764116D01*
X105366562Y-71764115D01*
X104387489Y-70785041D01*
X104447890Y-70760022D01*
X104554351Y-70688888D01*
X104644888Y-70598351D01*
X104716022Y-70491890D01*
X104741041Y-70431488D01*
X105720115Y-71410562D01*
X105720116Y-71410561D01*
X105826803Y-71268047D01*
X105963908Y-71016958D01*
X106063890Y-70748895D01*
X106124699Y-70469362D01*
X106145109Y-70184001D01*
X106145109Y-70183998D01*
X106124699Y-69898637D01*
X106063890Y-69619104D01*
X105963908Y-69351041D01*
X105826808Y-69099961D01*
X105826807Y-69099960D01*
X105720115Y-68957436D01*
X104741041Y-69936510D01*
X104716022Y-69876110D01*
X104644888Y-69769649D01*
X104554351Y-69679112D01*
X104447890Y-69607978D01*
X104387488Y-69582958D01*
X105366562Y-68603883D01*
X105366338Y-68600746D01*
X105381190Y-68532473D01*
X105430596Y-68483068D01*
X105490022Y-68467900D01*
X108000240Y-68467900D01*
X108010987Y-68467323D01*
X108107729Y-68462138D01*
X108134087Y-68459304D01*
X108320971Y-68421010D01*
X108508482Y-68342072D01*
X108569805Y-68308587D01*
X108641238Y-68265645D01*
X108798915Y-68137077D01*
X108878677Y-68057315D01*
X108950612Y-67977230D01*
X108967246Y-67956588D01*
X109072308Y-67797374D01*
X109149083Y-67608967D01*
X109168768Y-67541928D01*
X109188917Y-67461044D01*
X109209500Y-67258638D01*
X109209500Y-51787600D01*
X109209433Y-51776012D01*
X109186519Y-51573857D01*
X109175313Y-51522346D01*
X109150784Y-51430662D01*
X109069692Y-51244073D01*
X109069691Y-51244071D01*
X109069689Y-51244068D01*
X108952705Y-51077633D01*
X108952704Y-51077632D01*
X108952700Y-51077626D01*
X108906945Y-51024822D01*
X108787832Y-50908421D01*
X108787830Y-50908419D01*
X108618738Y-50795293D01*
X108618731Y-50795290D01*
X108430328Y-50718516D01*
X108430322Y-50718514D01*
X108363293Y-50698833D01*
X108363295Y-50698833D01*
X108363290Y-50698832D01*
X108282406Y-50678683D01*
X108282402Y-50678682D01*
X108282403Y-50678682D01*
X108080001Y-50658100D01*
X108080000Y-50658100D01*
X105393908Y-50658100D01*
X105326869Y-50638415D01*
X105306227Y-50621781D01*
X104387488Y-49703041D01*
X104447890Y-49678022D01*
X104554351Y-49606888D01*
X104644888Y-49516351D01*
X104716022Y-49409890D01*
X104741041Y-49349488D01*
X105720115Y-50328562D01*
X105720116Y-50328561D01*
X105826803Y-50186047D01*
X105963908Y-49934958D01*
X106063890Y-49666895D01*
X106124699Y-49387362D01*
X106145109Y-49102001D01*
X106145109Y-49101998D01*
X106124699Y-48816637D01*
X106063890Y-48537104D01*
X105963908Y-48269041D01*
X105826808Y-48017961D01*
X105826807Y-48017960D01*
X105720115Y-47875436D01*
X104741041Y-48854510D01*
X104716022Y-48794110D01*
X104644888Y-48687649D01*
X104554351Y-48597112D01*
X104447890Y-48525978D01*
X104387488Y-48500958D01*
X105366561Y-47521884D01*
X105362704Y-47467947D01*
X105377556Y-47399674D01*
X105426961Y-47350268D01*
X105486388Y-47335100D01*
X107961742Y-47335100D01*
X107961743Y-47335100D01*
X107961755Y-47335099D01*
X107961763Y-47335099D01*
X107979173Y-47334205D01*
X108064661Y-47329819D01*
X108089910Y-47327221D01*
X108272562Y-47291097D01*
X108460788Y-47213877D01*
X108522415Y-47180954D01*
X108662314Y-47090577D01*
X108810086Y-46950736D01*
X108926683Y-46784012D01*
X108960727Y-46722998D01*
X108998286Y-46648594D01*
X109063189Y-46455774D01*
X109303688Y-45396925D01*
X109334208Y-45262555D01*
X109334209Y-45262548D01*
X109351361Y-45165004D01*
X109351363Y-45164989D01*
X109354401Y-45140773D01*
X109361875Y-45041947D01*
X109459823Y-41301568D01*
X109460167Y-41276812D01*
X109439899Y-41074374D01*
X109428735Y-41019617D01*
X109401494Y-40915062D01*
X109320402Y-40728473D01*
X109320401Y-40728471D01*
X109320399Y-40728468D01*
X109203415Y-40562033D01*
X109203414Y-40562032D01*
X109203410Y-40562026D01*
X109157655Y-40509222D01*
X109038542Y-40392821D01*
X109038540Y-40392819D01*
X108869448Y-40279693D01*
X108869441Y-40279690D01*
X108681038Y-40202916D01*
X108681032Y-40202914D01*
X108614003Y-40183233D01*
X108614005Y-40183233D01*
X108614000Y-40183232D01*
X108533116Y-40163083D01*
X108533112Y-40163082D01*
X108533113Y-40163082D01*
X108330711Y-40142500D01*
X108330710Y-40142500D01*
X105419308Y-40142500D01*
X105352269Y-40122815D01*
X105331627Y-40106181D01*
X104387488Y-39162041D01*
X104447890Y-39137022D01*
X104554351Y-39065888D01*
X104644888Y-38975351D01*
X104716022Y-38868890D01*
X104741041Y-38808488D01*
X105720115Y-39787562D01*
X105720116Y-39787561D01*
X105826801Y-39645049D01*
X105936108Y-39444868D01*
X105985514Y-39395462D01*
X106053786Y-39380610D01*
X106113891Y-39401231D01*
X106226109Y-39476308D01*
X106368317Y-39534257D01*
X106414516Y-39553083D01*
X106414522Y-39553085D01*
X106429532Y-39557492D01*
X106481555Y-39572768D01*
X106562439Y-39592917D01*
X106697376Y-39606639D01*
X106764844Y-39613500D01*
X106764845Y-39613500D01*
X108333990Y-39613500D01*
X108334000Y-39613500D01*
X108345588Y-39613433D01*
X108547743Y-39590519D01*
X108599254Y-39579313D01*
X108690938Y-39554784D01*
X108877527Y-39473692D01*
X109043974Y-39356700D01*
X109096778Y-39310945D01*
X109213179Y-39191832D01*
X109326308Y-39022736D01*
X109403083Y-38834329D01*
X109422768Y-38767290D01*
X109442917Y-38686406D01*
X109463500Y-38484000D01*
X109463500Y-30604000D01*
X109463433Y-30592412D01*
X109440519Y-30390257D01*
X109429313Y-30338746D01*
X109404784Y-30247062D01*
X109323692Y-30060473D01*
X109323691Y-30060471D01*
X109323689Y-30060468D01*
X109206705Y-29894033D01*
X109206704Y-29894032D01*
X109206700Y-29894026D01*
X109160945Y-29841222D01*
X109041832Y-29724821D01*
X109041830Y-29724819D01*
X108872738Y-29611693D01*
X108872731Y-29611690D01*
X108684328Y-29534916D01*
X108684322Y-29534914D01*
X108617293Y-29515233D01*
X108617295Y-29515233D01*
X108617290Y-29515232D01*
X108536406Y-29495083D01*
X108536402Y-29495082D01*
X108536403Y-29495082D01*
X108334001Y-29474500D01*
X108334000Y-29474500D01*
X105797205Y-29474500D01*
X105730166Y-29454815D01*
X105684411Y-29402011D01*
X105674467Y-29332853D01*
X105697938Y-29276189D01*
X105826807Y-29104039D01*
X105826808Y-29104038D01*
X105963908Y-28852958D01*
X106063890Y-28584895D01*
X106124699Y-28305362D01*
X106145109Y-28020001D01*
X106145109Y-28019998D01*
X106124699Y-27734637D01*
X106063890Y-27455104D01*
X105963908Y-27187041D01*
X105826808Y-26935961D01*
X105826807Y-26935960D01*
X105720115Y-26793436D01*
X104741040Y-27772510D01*
X104716022Y-27712110D01*
X104644888Y-27605649D01*
X104554351Y-27515112D01*
X104447890Y-27443978D01*
X104387486Y-27418957D01*
X105316572Y-26489872D01*
X105377895Y-26456387D01*
X105393345Y-26454034D01*
X108179211Y-26208387D01*
X108347631Y-26178943D01*
X108388250Y-26168216D01*
X108388249Y-26168216D01*
X108388269Y-26168211D01*
X108414503Y-26160569D01*
X108436938Y-26154036D01*
X108623527Y-26072944D01*
X108789974Y-25955952D01*
X108842778Y-25910197D01*
X108959179Y-25791084D01*
X109072308Y-25621988D01*
X109149083Y-25433581D01*
X109168768Y-25366542D01*
X109188917Y-25285658D01*
X109209500Y-25083252D01*
X109209500Y-19319636D01*
X109192124Y-19133515D01*
X109183627Y-19088404D01*
X109169100Y-19023252D01*
X109098590Y-18832411D01*
X108991107Y-18659672D01*
X108948382Y-18604387D01*
X108835964Y-18481482D01*
X108673469Y-18359059D01*
X108673465Y-18359057D01*
X108673461Y-18359054D01*
X108489653Y-18271851D01*
X108423839Y-18248448D01*
X108344213Y-18223800D01*
X108344210Y-18223799D01*
X108143284Y-18191911D01*
X106202269Y-18082995D01*
X106136438Y-18059586D01*
X106093713Y-18004301D01*
X106087660Y-17934694D01*
X106088050Y-17932831D01*
X106124699Y-17764360D01*
X106145109Y-17479001D01*
X106145109Y-17478998D01*
X106124699Y-17193637D01*
X106063890Y-16914104D01*
X105963908Y-16646041D01*
X105826808Y-16394961D01*
X105826807Y-16394960D01*
X105720115Y-16252436D01*
X104741041Y-17231510D01*
X104716022Y-17171110D01*
X104644888Y-17064649D01*
X104554351Y-16974112D01*
X104447890Y-16902978D01*
X104387488Y-16877958D01*
X105366562Y-15898883D01*
X105366561Y-15898882D01*
X105224046Y-15792196D01*
X105224038Y-15792191D01*
X104972957Y-15655091D01*
X104972958Y-15655091D01*
X104704895Y-15555109D01*
X104425362Y-15494300D01*
X104140001Y-15473891D01*
X104139999Y-15473891D01*
X103854637Y-15494300D01*
X103575104Y-15555109D01*
X103307041Y-15655091D01*
X103055961Y-15792191D01*
X103055953Y-15792196D01*
X102913437Y-15898882D01*
X102913436Y-15898883D01*
X103892512Y-16877958D01*
X103832110Y-16902978D01*
X103725649Y-16974112D01*
X103635112Y-17064649D01*
X103563978Y-17171110D01*
X103538958Y-17231512D01*
X102559882Y-16252436D01*
X102453196Y-16394953D01*
X102453191Y-16394961D01*
X102316091Y-16646041D01*
X102216109Y-16914104D01*
X102155300Y-17193637D01*
X102134891Y-17478998D01*
X102134891Y-17479001D01*
X102151822Y-17715735D01*
X102136970Y-17784008D01*
X102087565Y-17833413D01*
X102021191Y-17848386D01*
X83042066Y-16783425D01*
X83002340Y-16781983D01*
X82799613Y-16799224D01*
X82741165Y-16810234D01*
X82741161Y-16810235D01*
X82621860Y-16840368D01*
X82435275Y-16921458D01*
X82435268Y-16921462D01*
X82268833Y-17038446D01*
X82268820Y-17038457D01*
X82216025Y-17084204D01*
X82099619Y-17203321D01*
X81986493Y-17372413D01*
X81986490Y-17372420D01*
X81909716Y-17560823D01*
X81909714Y-17560829D01*
X81890033Y-17627858D01*
X81869882Y-17708749D01*
X81849300Y-17911150D01*
X81849300Y-26279946D01*
X81829615Y-26346985D01*
X81776811Y-26392740D01*
X81707653Y-26402684D01*
X81644097Y-26373659D01*
X81637619Y-26367627D01*
X78765819Y-23495827D01*
X78732334Y-23434504D01*
X78729500Y-23408146D01*
X78729500Y-17831359D01*
X78727116Y-17786890D01*
X78723738Y-17723871D01*
X78720904Y-17697513D01*
X78682610Y-17510629D01*
X78603672Y-17323118D01*
X78570187Y-17261795D01*
X78570184Y-17261790D01*
X78527250Y-17190369D01*
X78527242Y-17190358D01*
X78403374Y-17038446D01*
X78398677Y-17032685D01*
X78217315Y-16851323D01*
X78192463Y-16829000D01*
X78137225Y-16779383D01*
X78116596Y-16762760D01*
X78116584Y-16762751D01*
X77957378Y-16657694D01*
X77957376Y-16657693D01*
X77928782Y-16646041D01*
X77768967Y-16580917D01*
X77768964Y-16580916D01*
X77768959Y-16580914D01*
X77768960Y-16580914D01*
X77701931Y-16561233D01*
X77701933Y-16561233D01*
X77701928Y-16561232D01*
X77621044Y-16541083D01*
X77621040Y-16541082D01*
X77621041Y-16541082D01*
X77418639Y-16520500D01*
X77418638Y-16520500D01*
X64386000Y-16520500D01*
X64385347Y-16520503D01*
X64374420Y-16520566D01*
X64374406Y-16520567D01*
X64172254Y-16543481D01*
X64120753Y-16554685D01*
X64029058Y-16579217D01*
X63842475Y-16660306D01*
X63842468Y-16660310D01*
X63676033Y-16777294D01*
X63676020Y-16777305D01*
X63623225Y-16823052D01*
X63506819Y-16942169D01*
X63393693Y-17111261D01*
X63393690Y-17111268D01*
X63316916Y-17299671D01*
X63316914Y-17299677D01*
X63297233Y-17366706D01*
X63277082Y-17447597D01*
X63256500Y-17649998D01*
X54186265Y-17649998D01*
X54124705Y-17535600D01*
X53887200Y-17175792D01*
X53887199Y-17175791D01*
X53618391Y-16838717D01*
X53567774Y-16785776D01*
X51686900Y-18666650D01*
X51619924Y-18579365D01*
X51420635Y-18380076D01*
X51333346Y-18313097D01*
X53213121Y-16433323D01*
X52995772Y-16243430D01*
X52995755Y-16243417D01*
X52646975Y-15990013D01*
X52276859Y-15768879D01*
X52276853Y-15768876D01*
X51888430Y-15581821D01*
X51888416Y-15581815D01*
X51484790Y-15430332D01*
X51484765Y-15430324D01*
X51069183Y-15315630D01*
X50644976Y-15238648D01*
X50215564Y-15200000D01*
X49784435Y-15200000D01*
X49355023Y-15238648D01*
X48930816Y-15315630D01*
X48515234Y-15430324D01*
X48515209Y-15430332D01*
X48111583Y-15581815D01*
X48111569Y-15581821D01*
X47723146Y-15768876D01*
X47723140Y-15768879D01*
X47353024Y-15990013D01*
X47004235Y-16243423D01*
X46786877Y-16433322D01*
X46786877Y-16433323D01*
X48666652Y-18313098D01*
X48579365Y-18380076D01*
X48380076Y-18579365D01*
X48313098Y-18666651D01*
X46432223Y-16785777D01*
X46381624Y-16838699D01*
X46381612Y-16838712D01*
X46112800Y-17175791D01*
X46112799Y-17175792D01*
X45875294Y-17535600D01*
X45670989Y-17915261D01*
X45670985Y-17915269D01*
X45501545Y-18311695D01*
X45501542Y-18311703D01*
X45368313Y-18721741D01*
X45272378Y-19142061D01*
X45214505Y-19569298D01*
X45214504Y-19569307D01*
X45195162Y-19999996D01*
X24804838Y-19999996D01*
X24785495Y-19569307D01*
X24785494Y-19569298D01*
X24727621Y-19142061D01*
X24631686Y-18721741D01*
X24498457Y-18311703D01*
X24498454Y-18311695D01*
X24329014Y-17915269D01*
X24329010Y-17915261D01*
X24124705Y-17535600D01*
X23887200Y-17175792D01*
X23887199Y-17175791D01*
X23618391Y-16838717D01*
X23567774Y-16785776D01*
X21686900Y-18666650D01*
X21619924Y-18579365D01*
X21420635Y-18380076D01*
X21333346Y-18313097D01*
X23213121Y-16433323D01*
X22995772Y-16243430D01*
X22995755Y-16243417D01*
X22646975Y-15990013D01*
X22276859Y-15768879D01*
X22276853Y-15768876D01*
X21888430Y-15581821D01*
X21888416Y-15581815D01*
X21484790Y-15430332D01*
X21484765Y-15430324D01*
X21069183Y-15315630D01*
X20644976Y-15238648D01*
X20215564Y-15200000D01*
X19784435Y-15200000D01*
X19355023Y-15238648D01*
X18930816Y-15315630D01*
X18515234Y-15430324D01*
X18515209Y-15430332D01*
X18111583Y-15581815D01*
X18111569Y-15581821D01*
X17723146Y-15768876D01*
X17723140Y-15768879D01*
X17353024Y-15990013D01*
X17004235Y-16243423D01*
X16786877Y-16433322D01*
X16786877Y-16433323D01*
X18666652Y-18313098D01*
X18579365Y-18380076D01*
X18380076Y-18579365D01*
X18313098Y-18666651D01*
X16432223Y-16785777D01*
X16381624Y-16838699D01*
X16381612Y-16838712D01*
X16112800Y-17175791D01*
X16112799Y-17175792D01*
X15875294Y-17535600D01*
X15670989Y-17915261D01*
X15670985Y-17915269D01*
X15501545Y-18311695D01*
X15501542Y-18311703D01*
X15368313Y-18721741D01*
X15272378Y-19142061D01*
X15214505Y-19569298D01*
X15214504Y-19569307D01*
X15195162Y-19999996D01*
X12500500Y-19999996D01*
X12500500Y-12624500D01*
X12520185Y-12557461D01*
X12572989Y-12511706D01*
X12624500Y-12500500D01*
X111375500Y-12500500D01*
X111442539Y-12520185D01*
G37*
%TD.AperFunction*%
%TA.AperFunction,Conductor*%
G36*
X54480079Y-87425427D02*
G01*
X57415181Y-90360529D01*
X57448666Y-90421852D01*
X57451500Y-90448210D01*
X57451500Y-99470998D01*
X57431815Y-99538037D01*
X57379011Y-99583792D01*
X57309853Y-99593736D01*
X57246297Y-99564711D01*
X57218668Y-99530425D01*
X57119308Y-99348461D01*
X57119307Y-99348460D01*
X57012615Y-99205936D01*
X56033541Y-100185010D01*
X56008522Y-100124610D01*
X55937388Y-100018149D01*
X55846851Y-99927612D01*
X55740390Y-99856478D01*
X55679988Y-99831458D01*
X56659062Y-98852383D01*
X56659061Y-98852382D01*
X56516546Y-98745696D01*
X56516538Y-98745691D01*
X56265457Y-98608591D01*
X56265458Y-98608591D01*
X55997395Y-98508609D01*
X55717862Y-98447800D01*
X55432501Y-98427391D01*
X55432499Y-98427391D01*
X55147137Y-98447800D01*
X54867604Y-98508609D01*
X54599541Y-98608591D01*
X54599535Y-98608594D01*
X54528926Y-98647150D01*
X54460653Y-98662002D01*
X54395189Y-98637585D01*
X54353318Y-98581651D01*
X54345500Y-98538318D01*
X54345500Y-87937731D01*
X54345500Y-87937721D01*
X54337874Y-87814121D01*
X54335501Y-87794970D01*
X54334142Y-87783987D01*
X54333995Y-87782826D01*
X54333697Y-87780446D01*
X54287710Y-87582262D01*
X54279722Y-87564878D01*
X54269620Y-87495744D01*
X54298498Y-87432122D01*
X54357189Y-87394212D01*
X54427058Y-87394051D01*
X54480079Y-87425427D01*
G37*
%TD.AperFunction*%
%TA.AperFunction,Conductor*%
G36*
X27168539Y-74177185D02*
G01*
X27214294Y-74229989D01*
X27225500Y-74281500D01*
X27225500Y-79924509D01*
X27246014Y-80106574D01*
X27246014Y-80106575D01*
X27263230Y-80259379D01*
X27263233Y-80259397D01*
X27338223Y-80587953D01*
X27338227Y-80587965D01*
X27449532Y-80906054D01*
X27595752Y-81209683D01*
X27658406Y-81309395D01*
X27775054Y-81495039D01*
X27901318Y-81653370D01*
X27985176Y-81758524D01*
X30255476Y-84028824D01*
X30518961Y-84238946D01*
X30804314Y-84418246D01*
X31107949Y-84564469D01*
X31346848Y-84648063D01*
X31426034Y-84675772D01*
X31426046Y-84675776D01*
X31754606Y-84750767D01*
X32089491Y-84788499D01*
X32089492Y-84788500D01*
X32089495Y-84788500D01*
X32089496Y-84788500D01*
X33629133Y-84788500D01*
X33696172Y-84808185D01*
X33705296Y-84814647D01*
X33720491Y-84826474D01*
X33939190Y-84944828D01*
X34174386Y-85025571D01*
X34419665Y-85066500D01*
X34668335Y-85066500D01*
X34913614Y-85025571D01*
X35148810Y-84944828D01*
X35367509Y-84826474D01*
X35382703Y-84814647D01*
X35447696Y-84789004D01*
X35458867Y-84788500D01*
X51791790Y-84788500D01*
X51858829Y-84808185D01*
X51879471Y-84824819D01*
X52832154Y-85777502D01*
X52865639Y-85838825D01*
X52860655Y-85908517D01*
X52818783Y-85964450D01*
X52753319Y-85988867D01*
X52697680Y-85980015D01*
X52557559Y-85922916D01*
X52557553Y-85922914D01*
X52490524Y-85903233D01*
X52490526Y-85903233D01*
X52490521Y-85903232D01*
X52409637Y-85883083D01*
X52409633Y-85883082D01*
X52409634Y-85883082D01*
X52207232Y-85862500D01*
X52207231Y-85862500D01*
X31508638Y-85862500D01*
X31453184Y-85849409D01*
X16568046Y-78406840D01*
X16516887Y-78359253D01*
X16499500Y-78295931D01*
X16499500Y-74281500D01*
X16519185Y-74214461D01*
X16571989Y-74168706D01*
X16623500Y-74157500D01*
X27101500Y-74157500D01*
X27168539Y-74177185D01*
G37*
%TD.AperFunction*%
%TA.AperFunction,Conductor*%
G36*
X19244602Y-45314514D02*
G01*
X19310855Y-45336703D01*
X19354595Y-45391187D01*
X19363942Y-45439472D01*
X19315589Y-51174526D01*
X19315580Y-51190308D01*
X19315580Y-51190309D01*
X19337644Y-51392562D01*
X19337644Y-51392563D01*
X19348848Y-51445128D01*
X19374265Y-51540937D01*
X19455356Y-51727524D01*
X19455360Y-51727531D01*
X19527878Y-51830703D01*
X19572350Y-51893974D01*
X19618105Y-51946778D01*
X19722857Y-52049145D01*
X19737219Y-52063180D01*
X19906311Y-52176306D01*
X19906314Y-52176308D01*
X20094721Y-52253083D01*
X20094727Y-52253085D01*
X20109737Y-52257492D01*
X20161760Y-52272768D01*
X20242644Y-52292917D01*
X20377581Y-52306639D01*
X20445049Y-52313500D01*
X20445050Y-52313500D01*
X29096500Y-52313500D01*
X29163539Y-52333185D01*
X29209294Y-52385989D01*
X29220500Y-52437500D01*
X29220500Y-58560500D01*
X29200815Y-58627539D01*
X29148011Y-58673294D01*
X29096500Y-58684500D01*
X24504907Y-58684500D01*
X24361112Y-58699042D01*
X24303592Y-58704859D01*
X24303574Y-58704862D01*
X24254947Y-58714799D01*
X24175120Y-58734544D01*
X24175118Y-58734544D01*
X24175117Y-58734545D01*
X24146299Y-58746213D01*
X23986541Y-58810899D01*
X23986536Y-58810902D01*
X23817200Y-58923646D01*
X23817194Y-58923650D01*
X23763251Y-58968058D01*
X23643879Y-59084196D01*
X23643876Y-59084199D01*
X23526515Y-59250383D01*
X23445011Y-59436788D01*
X23445008Y-59436796D01*
X23423638Y-59503313D01*
X23401453Y-59583658D01*
X23401453Y-59583660D01*
X23375767Y-59785489D01*
X23247551Y-64861785D01*
X23196577Y-66879966D01*
X23194918Y-66945631D01*
X23173547Y-67012152D01*
X23119605Y-67056559D01*
X23070958Y-67066500D01*
X20099500Y-67066500D01*
X20032461Y-67046815D01*
X19986706Y-66994011D01*
X19975500Y-66942500D01*
X19975500Y-66878711D01*
X19943838Y-66638214D01*
X19943838Y-66638211D01*
X19881054Y-66403900D01*
X19788224Y-66179788D01*
X19666936Y-65969711D01*
X19556266Y-65825483D01*
X19531074Y-65760317D01*
X19545112Y-65691873D01*
X19556261Y-65674523D01*
X19666936Y-65530289D01*
X19788224Y-65320212D01*
X19881054Y-65096100D01*
X19943838Y-64861789D01*
X19975500Y-64621288D01*
X19975500Y-64378712D01*
X19943838Y-64138211D01*
X19881054Y-63903900D01*
X19788224Y-63679788D01*
X19666936Y-63469711D01*
X19519265Y-63277262D01*
X19519260Y-63277256D01*
X19347743Y-63105739D01*
X19347736Y-63105733D01*
X19214094Y-63003186D01*
X19172891Y-62946758D01*
X19168736Y-62877012D01*
X19189262Y-62831924D01*
X19257502Y-62738000D01*
X21336000Y-62738000D01*
X21336000Y-58420000D01*
X28702000Y-58420000D01*
X28702000Y-52324000D01*
X17018000Y-52324000D01*
X17018000Y-60953954D01*
X16995540Y-60970272D01*
X16995535Y-60970276D01*
X16845276Y-61120535D01*
X16845272Y-61120540D01*
X16723818Y-61287708D01*
X16668488Y-61330374D01*
X16598875Y-61336353D01*
X16537080Y-61303747D01*
X16502723Y-61242909D01*
X16499500Y-61214823D01*
X16499500Y-45340106D01*
X16519185Y-45273067D01*
X16571989Y-45227312D01*
X16628153Y-45216193D01*
X19244602Y-45314514D01*
G37*
%TD.AperFunction*%
%TD*%
M02*
